<?xml version="1.0" encoding="utf-8"?>
<!-- Generator: Adobe Illustrator 22.1.0, SVG Export Plug-In . SVG Version: 6.00 Build 0)  -->
<svg version="1.1" id="Layer_1" xmlns="http://www.w3.org/2000/svg" xmlns:xlink="http://www.w3.org/1999/xlink" x="0px" y="0px"
	 viewBox="0 0 81 56.8" style="enable-background:new 0 0 81 56.8;" xml:space="preserve">
<style type="text/css">
	.st0{fill:none;stroke:#000000;stroke-miterlimit:10;}
	.st1{fill:#FFFFFF;}
</style>
<g>
	<path d="M-15.5,16.3l3.2,7v32.5h-6.4V23.3L-15.5,16.3 M-15.5,13.9l-4.2,9.2v33.7h8.4V23.1L-15.5,13.9L-15.5,13.9z"/>
</g>
<line class="st0" x1="-15.5" y1="23.1" x2="-15.5" y2="56.8"/>
<g>
	<path d="M-15.5,16.3l2.6,5.8h-5.3L-15.5,16.3 M-15.5,13.9l-4.2,9.2h8.4L-15.5,13.9L-15.5,13.9z"/>
</g>
<g>
	<path d="M-34.1,6c2.6,0,4.8,2.1,4.8,4.8V51c0,2.6-2.1,4.8-4.8,4.8h-30V6H-34.1 M-34.1,5h-31v51.8h31c3.2,0,5.8-2.6,5.8-5.8V10.8
		C-28.3,7.6-30.9,5-34.1,5L-34.1,5z"/>
</g>
<line class="st0" x1="-37.7" y1="5" x2="-37.7" y2="56.8"/>
<line class="st0" x1="-41.4" y1="5" x2="-41.4" y2="56.8"/>
<polyline class="st0" points="-54.5,6 -54.5,1.6 -56.7,3.2 -59,1.6 -59,6 "/>
<polygon points="-15.5,15.1 -16.8,17.4 -14.3,17.4 "/>
<path d="M74.7,55.1H6.3V5.4c0-1.8,1.5-3.3,3.3-3.3h61.8c1.8,0,3.3,1.5,3.3,3.3V55.1z M7.3,54.1h66.4V5.4c0-1.3-1-2.3-2.3-2.3H9.6
	c-1.3,0-2.3,1-2.3,2.3V54.1z"/>
<g>
	<path class="st1" d="M0.9,56c-0.2,0-0.4-0.2-0.4-0.4v-3.1c0-0.2,0.2-0.4,0.4-0.4H80c0.2,0,0.4,0.2,0.4,0.4v3.1
		c0,0.2-0.2,0.4-0.4,0.4H0.9z"/>
	<path d="M80,52.6v2.9H1v-2.9H80 M80.1,51.6H0.9C0.4,51.6,0,52,0,52.5v3.1c0,0.5,0.4,0.9,0.9,0.9H80c0.5,0,0.9-0.4,0.9-0.9v-3.1
		C81,52,80.6,51.6,80.1,51.6L80.1,51.6z"/>
</g>
<path d="M70.8,49.4H10.2V6.2h60.6V49.4z M11.2,48.4h58.6V7.2H11.2V48.4z"/>
<g>
	<path d="M31.5,35c-0.1,0-0.2,0-0.3-0.1l-8.5-5c-0.1-0.1-0.2-0.2-0.2-0.4s0.1-0.3,0.2-0.4l8.5-5.6c0.2-0.2,0.5-0.1,0.7,0.1
		c0.2,0.2,0.1,0.5-0.1,0.7l-7.8,5.2l7.8,4.6c0.2,0.1,0.3,0.4,0.2,0.7C31.8,34.9,31.7,35,31.5,35z"/>
	<path d="M49.5,35c-0.2,0-0.3-0.1-0.4-0.2c-0.2-0.2-0.1-0.5,0.1-0.7l7.8-5.2l-7.8-4.6c-0.2-0.1-0.3-0.4-0.2-0.7
		c0.1-0.2,0.4-0.3,0.7-0.2l8.5,5c0.1,0.1,0.2,0.2,0.2,0.4c0,0.2-0.1,0.3-0.2,0.4l-8.5,5.6C49.7,35,49.6,35,49.5,35z"/>
	<path d="M38.7,36.7c0,0-0.1,0-0.1,0c-0.3-0.1-0.4-0.3-0.4-0.6l3.6-15.2c0.1-0.3,0.3-0.4,0.6-0.4c0.3,0.1,0.4,0.3,0.4,0.6l-3.6,15.2
		C39.1,36.5,38.9,36.7,38.7,36.7z"/>
</g>
</svg>
