<?xml version="1.0" encoding="utf-8"?>
<!-- Generator: Adobe Illustrator 22.1.0, SVG Export Plug-In . SVG Version: 6.00 Build 0)  -->
<svg version="1.1" id="Layer_1" xmlns="http://www.w3.org/2000/svg" xmlns:xlink="http://www.w3.org/1999/xlink" x="0px" y="0px"
	 viewBox="0 0 494.4 493.6" style="enable-background:new 0 0 494.4 493.6;" xml:space="preserve">
<path d="M41.2,40.7L41.2,40.7c-12.3,11.9-22,26.7-28,42.9c-6.8,17.6-10.3,36-11.4,59.7c-1.2,27-1.5,36-1.5,103.6s0.3,76.6,1.5,103.7
	c1.1,23.6,4.6,41.9,11.4,59.6c6.1,16.3,15.5,30.7,27.9,42.8c12.3,12.5,26.7,21.8,42.9,27.9c17.6,6.8,36,10.3,59.7,11.4
	c27.1,1.2,36.1,1.5,103.7,1.5s76.5-0.3,103.7-1.5c23.6-1.1,41.9-4.6,59.6-11.4c32.5-12.6,58.3-38.4,70.8-70.8
	c6.8-17.6,10.3-36,11.4-59.6c1.2-27.1,1.5-36.1,1.5-103.7s-0.3-76.6-1.5-103.7c-1.1-23.6-4.6-41.9-11.4-59.6
	c-6.1-16.3-15.5-30.7-27.9-42.8c-12.2-12.4-26.6-21.8-42.9-28c-17.6-6.8-36-10.3-59.6-11.4c-26.8-1-35-1.3-103.8-1.3
	c-67.6,0-76.6,0.3-103.7,1.5c-23.6,1.1-42,4.6-59.5,11.4C67.7,18.9,53.3,28.3,41.2,40.7z M145.2,36.8c26.9-1.3,35.2-1.5,102-1.5
	c68.7,0,75.7,0.3,102,1.5c25.4,1.1,39.2,5.4,48.4,9c11.3,4.2,22,11.1,30.7,19.9c8.8,8.5,15.7,19.2,20,30.8c3.6,9.2,7.9,23,9,48.3
	c1.2,26.3,1.5,33.4,1.5,102c0,68.7-0.3,75.7-1.5,102c-1.1,25.4-5.4,39.2-9,48.4c-9,23.2-27.4,41.7-50.7,50.6c-9.2,3.6-23,7.9-48.4,9
	c-26.3,1.2-33.4,1.5-102,1.5c-68.7,0-75.7-0.3-102-1.5c-25.4-1.1-39.2-5.4-48.4-9c-11.3-4.2-22-11.1-30.7-19.9
	c-8.8-8.5-15.7-19.2-20-30.8c-3.6-9.2-7.9-23-9-48.3c-1.2-26.3-1.5-33.4-1.5-102c0-68.7,0.3-75.7,1.5-102c1.1-25.4,5.4-39.2,9-48.4
	C50.3,85.2,57.2,74.5,66,65.8c8.5-8.8,19.2-15.7,30.8-20C106,42.2,119.8,37.9,145.2,36.8z M247.2,122.4
	c-68.6,0-124.4,55.8-124.4,124.4s55.8,124.4,124.4,124.4s124.4-55.8,124.4-124.4S315.8,122.4,247.2,122.4z M247.2,335.8
	c-49.1,0-89-39.9-89-89s39.9-89,89-89s89,39.9,89,89S296.3,335.8,247.2,335.8z M409.4,112.3c0,15.3-12.4,27.7-27.7,27.7
	S354,127.6,354,112.3s12.4-27.7,27.7-27.7S409.4,97,409.4,112.3z"/>
</svg>
