<?xml version="1.0" encoding="utf-8"?>
<!-- Generator: Adobe Illustrator 22.1.0, SVG Export Plug-In . SVG Version: 6.00 Build 0)  -->
<svg version="1.1" id="Layer_1" xmlns="http://www.w3.org/2000/svg" xmlns:xlink="http://www.w3.org/1999/xlink" x="0px" y="0px"
	 viewBox="0 0 65 75" style="enable-background:new 0 0 65 75;" xml:space="preserve">
<style type="text/css">
	.st0{fill:#FFFFFF;}
	.st1{opacity:0.1;filter:url(#AI_GaussianBlur_1);}
	.st2{fill:#221F1F;}
	.st3{fill:#BABCBE;}
	.st4{fill:#CFD2D3;}
	.st5{fill:#C7C8C9;}
	.st6{opacity:0.9;fill:url(#SVGID_1_);}
</style>
<filter  id="AI_GaussianBlur_1">
	<feGaussianBlur  stdDeviation="1"></feGaussianBlur>
</filter>
<path class="st0" d="M-0.0299,10c13.8956,4.359,21.4839,12.8279,17.6698,22.2161c-0.0973,0.2395-0.1866,0.4841-0.2857,0.727
	c-0.6719,1.6467-1.5211,3.3165-2.5542,5.0054c-4.4961,7.3498,0,12.7795,5.9241,16.586l0.3572,0.1845l9.5998-1.4074l-0.224-0.2046
	c-4.2707-2.9956,0.3007-5.9006,7.9466-9.3298C46.114,40.3191,56.9508,38.4969,65,33.3421V75H0L-0.0299,10z"/>
<g class="st1">
	<path class="st2" d="M9.4045,63.7219c3.3857,4.4142,7.5258,8.4734,6.3886,7.036c0.4564,0.5768,1.3493,1.2799,3.1539,0.9478
		c1.8046-0.3321,29.9751-5.6818,30.4694-5.7837c0.4931-0.1016,0.1739-0.4505-0.0608-0.6534
		c-0.5172-0.4471-9.7122-6.0281-10.0508-6.3544c-0.3386-0.3263-1.2572-0.6489-2.1565-0.5148
		c-0.8993,0.1341-27.8718,4.2984-28.0808,4.3533C8.6823,62.8537,8.9591,63.1412,9.4045,63.7219z"/>
</g>
<path class="st2" d="M37.5688,52.0904l-28.271,4.1464l-2.878-20.3909l10.0099-0.8499c0.1741-0.3538,0.3399-0.7066,0.4978-1.0583
	c-5.0746,0.4118-9.447,0.7653-10.0102,0.8055c-1.3938,0.0995-1.1947,0.8818-1.0667,1.6782
	c0.128,0.7964,2.6453,19.0862,2.8018,20.2809c0.1564,1.1947,0.6827,1.024,1.1662,0.9671c0,0,28.1803-4.0213,28.2793-4.3922
	c0.0989-0.3709,0.0618-0.9397-0.0742-1.8793c-0.0557-0.385-0.5199-3.4658-1.0484-6.9684c-0.1705,0.0794-0.3394,0.1585-0.506,0.2374
	L37.5688,52.0904z"/>
<path class="st3" d="M50.1374,61.0119c0,0,0,0.4056,0,0.488s0.0528,0.1648-0.2197,0.2345
	c-0.2725,0.0697-29.5443,5.4914-30.0684,5.5766c-0.5241,0.0852-1.4385,0.3321-2.2544-0.4621
	c-0.9137-0.8893-8.0908-8.4221-8.1563-8.4876s-0.1145-0.1179-0.1145-0.3276c0-0.2097,0.0043-0.5253,0.0043-0.5253L50.1374,61.0119z"
	/>
<path class="st4" d="M9.5281,57.8824c2.2767,2.3476,7.3113,7.6024,7.7848,8.0759c0.4735,0.4735,0.7542,1.0221,2.5597,0.7054
	c1.8055-0.3167,29.515-5.3731,30.0092-5.469c0.4931-0.0957,0.1632-0.3812-0.0779-0.5461
	c-0.5313-0.3635-10.1102-6.7622-10.4589-7.0283c-0.3487-0.2661-0.9329-0.7154-1.8335-0.5839
	C36.611,53.168,10.0754,57.2056,9.8668,57.256C9.4821,57.349,9.0655,57.4054,9.5281,57.8824z"/>
<path class="st3" d="M35.4661,59.4068c-0.8402,0.1427-9.6647,1.5866-9.8903,1.6067c-0.2338,0.0208-0.3947,0.1509-0.1625,0.3599
	c0.2322,0.209,2.9253,2.5538,3.0414,2.6583c0.1161,0.1045,0.2568,0.1763,0.5688,0.1277c0.4073-0.0634,10.3774-1.8452,10.5735-1.8865
	c0.1121-0.0236,0.4072-0.059,0.0413-0.3305s-3.1813-2.3195-3.3701-2.4553C36.0792,59.3512,35.9869,59.3213,35.4661,59.4068z"/>
<path class="st3" d="M14.3078,57.7509c-0.4289,0.0613-0.5759,0.1103-0.3063,0.3553c0.2696,0.2451,3.4186,3.1123,3.5411,3.2225
	c0.1225,0.1103,0.2573,0.2328,0.6494,0.1838s22.5804-3.7204,22.7029-3.7449c0.1225-0.0245,0.2328-0.0613-0.0368-0.2573
	s-4.3064-3.0842-4.3876-3.1473c-0.0812-0.0631-0.1624-0.0722-0.415-0.0361C35.803,54.363,14.3078,57.7509,14.3078,57.7509z"/>
<path class="st5" d="M36.5891,63.5521c-0.0014,0.3379-0.1326,0.3464-0.2102,0.3605s-2.7797,0.5009-3.0266,0.5432
	c-0.2469,0.0423-0.247-0.0847-0.247-0.2685c0.0307-0.1209,0.1079-0.1606,0.2141-0.1793c0.1062-0.0188,2.958-0.5158,3.0159-0.5303
	C36.3931,63.4633,36.539,63.4768,36.5891,63.5521z"/>
<radialGradient id="SVGID_1_" cx="45.7537" cy="42.4719" r="21.7763" gradientUnits="userSpaceOnUse">
	<stop  offset="0" style="stop-color:#9E9E9E"/>
	<stop  offset="0.1235" style="stop-color:#7C7B7B;stop-opacity:0.8765"/>
	<stop  offset="0.293" style="stop-color:#575756;stop-opacity:0.707"/>
	<stop  offset="0.4582" style="stop-color:#3B3C3B;stop-opacity:0.5418"/>
	<stop  offset="0.6152" style="stop-color:#262727;stop-opacity:0.3848"/>
	<stop  offset="0.7619" style="stop-color:#151616;stop-opacity:0.2381"/>
	<stop  offset="0.8943" style="stop-color:#070707;stop-opacity:0.1057"/>
	<stop  offset="1" style="stop-color:#010101;stop-opacity:0"/>
</radialGradient>
<path class="st6" d="M9.5281,57.8824c2.2767,2.3476,7.3113,7.6024,7.7848,8.0759c0.4735,0.4735,0.7542,1.0221,2.5597,0.7054
	c1.8055-0.3167,29.515-5.3731,30.0092-5.469c0.4931-0.0957,0.1632-0.3812-0.0779-0.5461
	c-0.5313-0.3635-10.1102-6.7622-10.4589-7.0283c-0.3487-0.2661-0.9329-0.7154-1.8335-0.5839
	C36.611,53.168,10.0754,57.2056,9.8668,57.256C9.4821,57.349,9.0655,57.4054,9.5281,57.8824z"/>
</svg>
