<?xml version="1.0" encoding="utf-8"?>
<!-- Generator: Adobe Illustrator 22.1.0, SVG Export Plug-In . SVG Version: 6.00 Build 0)  -->
<svg version="1.1" id="Layer_1" xmlns="http://www.w3.org/2000/svg" xmlns:xlink="http://www.w3.org/1999/xlink" x="0px" y="0px"
	 viewBox="0 0 123.015 56.2098" style="enable-background:new 0 0 123.015 56.2098;" xml:space="preserve">
<style type="text/css">
	.st0{fill:#211E1F;}
</style>
<path class="st0" d="M67.0386,32.582c-0.136-0.9397-2.7046-17.9347-2.7046-17.9347c-0.1564-0.9813-0.5689-0.9671-1.3227-0.9102
	c-0.9695,0.0732-25.6854,2.0907-27.0791,2.1902c-1.3938,0.0996-1.1947,0.8818-1.0667,1.6782
	c0.128,0.7964,2.6453,19.0862,2.8018,20.2809c0.1564,1.1947,0.6827,1.024,1.1662,0.9671c0,0,28.1803-4.0213,28.2793-4.3922
	C67.2117,34.0904,67.1746,33.5217,67.0386,32.582z M38.3128,37.421L35.4348,17.03l28.3859-2.4101l2.7632,18.6547L38.3128,37.421z"/>
</svg>
