<?xml version="1.0" encoding="utf-8"?>
<!-- Generator: Adobe Illustrator 22.1.0, SVG Export Plug-In . SVG Version: 6.00 Build 0)  -->
<svg version="1.1" id="Layer_1" xmlns="http://www.w3.org/2000/svg" xmlns:xlink="http://www.w3.org/1999/xlink" x="0px" y="0px"
	 viewBox="0 0 1600 1200" style="enable-background:new 0 0 1600 1200;" xml:space="preserve">
<style type="text/css">
	.st0{opacity:3.000000e-02;}
</style>
<path class="st0" d="M853.8,584.4c0.6,15.8,2.9,66,3.2,83.9c-20.7-141.6-20.7-138.1-22.4-148.9c-0.6-4.5-13.7-2.6-23.4-0.6
	c-9,1.8-21.3,4.5-24.3,12.3c-3.6,9.6-13.2,30.8-18.5,50.3c4.1,21.6,17,84.2,17,84.2c0.5,2.4-20.6-63.8-29.6-84.8
	c-1.8-4.1-4.8-9-7.7-8.6c-3.3,0.5-21.8,7.4-35.3,15.3c-2.1,1.2-1.8,5-0.8,6.9c12.3,27.3,28.8,71.8,29.9,75.1c0.9,3,3.9,6.3,6.9,7.4
	c2.1,0.8,37.2,3.3,39.3-3.5c2.1-8,41.9-144.1,41.9-144.1s-20.6,116-20.6,116.3c1.1,7.7,3.8,30.5,7.1,34.7c2,2.4,4.7,2.9,7.1,3
	c2.4,0.2,28.5,0.2,32.3-0.5c3-0.6,4.7-2.3,6-7.8c9.8-38.9,15.9-50.6,26.4-82.7c2.9-7.8-9-9.5-17.9-11.6
	C862,578.8,853.6,576.4,853.8,584.4L853.8,584.4z"/>
</svg>
