<?xml version="1.0" encoding="utf-8"?>
<!-- Generator: Adobe Illustrator 22.1.0, SVG Export Plug-In . SVG Version: 6.00 Build 0)  -->
<svg version="1.1" id="Layer_1" xmlns="http://www.w3.org/2000/svg" xmlns:xlink="http://www.w3.org/1999/xlink" x="0px" y="0px"
	 viewBox="0 0 800 800" style="enable-background:new 0 0 800 800;" xml:space="preserve">
<style type="text/css">
	.st0{fill:#F2F3F2;}
	.st1{fill:#FFFFFF;}
</style>
<path class="st0" d="M0,0h800v800H0V0z"/>
<path class="st1" d="M436.5,389.7c0.4,10.5,1.9,44,2.1,55.9c-13.8-94.3-13.8-92-14.9-99.2c-0.4-3-9.1-1.7-15.6-0.4
	c-6,1.2-14.2,3-16.2,8.2c-2.4,6.4-8.8,20.5-12.3,33.5c2.7,14.4,11.3,56.1,11.3,56.1c0.3,1.6-13.7-42.5-19.7-56.5
	c-1.2-2.7-3.2-6-5.1-5.7c-2.2,0.3-14.5,4.9-23.5,10.2c-1.4,0.8-1.2,3.3-0.5,4.6c8.2,18.2,19.2,47.8,19.9,50c0.6,2,2.6,4.2,4.6,4.9
	c1.4,0.5,24.8,2.2,26.2-2.3c1.4-5.3,27.9-96,27.9-96S407,430.3,407,430.5c0.7,5.1,2.5,20.3,4.7,23.1c1.3,1.6,3.1,1.9,4.7,2
	s19,0.1,21.5-0.3c2-0.4,3.1-1.5,4-5.2c6.5-25.9,10.6-33.7,17.6-55.1c1.9-5.2-6-6.3-11.9-7.7C442,386,436.4,384.4,436.5,389.7
	L436.5,389.7z"/>
</svg>
