<svg enable-background="new 0 0 345.6 372.2" viewBox="0 0 345.6 372.2" xmlns="http://www.w3.org/2000/svg"><path d="m15.1 127.8c11.4 2.4 22.1 4.6 32.9 6.9 4.5.9 9 1.9 13.5 2.9 4.4 1 6.7-.1 8.5-4.2 2.7-6.2 5.3-12.4 8-18.6.2-.5.5-1 1-1.9 1.7 1.8 3.3 3.5 4.8 5.1 10.5 11.3 21 22.5 31.5 33.9 2.3 2.5 4.9 3.8 8.2 2.2 3.3-1.7 3.4-4.6 2.8-7.9-5.8-29.5-11.5-58.9-17.2-88.4-.2-.8-.1-1.6-.2-3 7 4 13.6 7.8 20.2 11.6 2.4 1.4 4.7 2.8 7.1 4.1 4.9 2.7 7.5 1.9 10.1-3.1 6.6-12.8 13.1-25.7 19.6-38.6 2.9-5.7 5.8-11.4 9-17.6.8 1.4 1.5 2.4 2 3.5 8.8 17.3 17.6 34.6 26.4 51.8 3.1 6.1 5.7 6.9 11.5 3.5 8.6-5 17.2-10 26.5-15.4-.9 5-1.7 9.3-2.5 13.6-5 26-10 52-15.2 78-.7 3.4-.5 6.2 2.8 7.9s5.8.3 8.1-2.2c11-11.9 22.1-23.8 33.2-35.7.9-1 1.8-1.9 3.1-3.2 1.7 3.9 3.3 7.5 4.9 11.1 1.4 3.1 2.6 6.3 4 9.5 1.9 4.1 4.1 5.1 8.5 4.2 14.9-3.2 29.8-6.3 44.7-9.4.3-.1.7 0 1.4.1-.4 1.6-.8 3-1.2 4.4-4.7 14.6-9.5 29.2-14.2 43.8-1.8 5.5-.9 7.5 4.2 9.9 5.4 2.6 10.9 5.2 16.8 8-5.8 4.7-11.3 9.2-16.9 13.7-21.6 17.5-43.3 35-64.9 52.5-4.3 3.5-4.6 4.8-2.7 10.1 3.1 8.4 6.1 16.9 9.4 26-5.6-.9-10.5-1.8-15.5-2.6-20-3.5-40.1-7-60.1-10.4-6.5-1.1-10.7 2.7-10.4 9.2.8 18.2 1.9 36.4 2.8 54.7.4 7 .7 13.9 1 21.1-5.2 0-10.1 0-15.4 0 0-2.3-.1-4.7 0-7 1.2-22.8 2.4-45.7 3.5-68.5.3-6.8-3.8-10.6-10.5-9.5-20.1 3.4-40.1 6.9-60.1 10.4-4.9.8-9.7 1.7-15.3 2.6.6-1.8 1-3.1 1.4-4.3 2.6-7.2 5.2-14.4 7.8-21.7 1.9-5.2 1.6-6.6-2.8-10.1-21.6-17.5-43.3-35-64.9-52.5-5.5-4.5-11-8.9-16.8-13.7 5.7-2.7 11.1-5.3 16.5-7.9s6.2-4.5 4.4-10.1c-4.9-15.1-9.7-30.1-14.6-45.2 0-1.1-.3-2-.7-3.6z" fill="#fff"/><path d="m174.8 2.5h.1v.1l-.1.2-.1.5-.3.9-.6 1.9-1.1 3.7-2.3 7.5c-1.5 5-3.2 9.9-4.8 14.8-3.3 9.9-6.8 19.7-10.9 29.3-1 2.4-2.1 4.8-3.4 7.1-.6 1.2-1.3 2.3-2 3.4-.4.6-.8 1.1-1.3 1.6s-1 1-1.7 1.4c-.2.1-.4.2-.6.2-.3 0-.5 0-.6 0-.4 0-.7-.1-1.1-.2-.7-.2-1.3-.4-1.9-.7-1.2-.6-2.4-1.2-3.5-1.9-2.2-1.4-4.3-3-6.4-4.6-4.1-3.2-8-6.7-11.9-10.2s-7.6-7.1-11.3-10.8l1.5-.8 9.2 43.3c3.1 14.4 6 28.9 9 43.3l1.1 5.4c.3 1.8.7 3.6 1 5.5.2 1.9.3 3.8.1 5.8-.1 1-.2 2-.5 3s-.7 2-1.6 3c-.5.4-1.2.8-1.9.9s-1.4 0-1.9-.2c-1.1-.4-2-1-2.8-1.6-1.6-1.3-2.8-2.7-4-4.2s-2.2-3-3.3-4.5l-3.3-4.5-26-35.8 2.3-.4c-1.3 4.1-2.8 8.1-4.6 11.9-1.8 3.9-3.9 7.6-6.6 11.1-1.4 1.7-2.9 3.3-4.7 4.7s-3.9 2.5-6.2 2.9c-1.2.2-2.3.2-3.4.2s-2.2-.1-3.2-.2c-2.1-.2-4.2-.6-6.3-1-8.3-1.6-16.5-3.7-24.6-6s-16.2-4.7-24.2-7.3l1.5-1.7c3.6 7.4 7 14.9 10.3 22.4s6.5 15.1 9.4 22.8c1.4 3.9 2.8 7.7 4 11.7.6 2 1.1 4 1.5 6.1.2 1 .4 2.1.4 3.2.1 1.1.1 2.2-.3 3.4-.1.3-.2.6-.4.9-.1.2-.2.3-.4.4-.1.1-.2.2-.3.3l-1.2 1c-.8.7-1.6 1.3-2.5 1.9-1.7 1.2-3.4 2.4-5.1 3.5-3.5 2.2-7 4.3-10.6 6.3v-1.4c10 5.8 19.9 11.6 29.8 17.6s19.7 12 29.4 18.3c4.8 3.2 9.6 6.4 14.3 9.9 1.2.9 2.3 1.8 3.4 2.7.5.5 1.1 1 1.6 1.5s1 1.1 1.4 1.8c.7 1.4.8 2.9 1 4.4.1 1.5.1 2.9.1 4.4-.2 5.8-1.1 11.5-2.1 17.2s-2.2 11.3-3.5 17l-.5-.6 41-4.3 20.5-2.3 5.1-.6c1.7-.2 3.4-.5 5.1-.7s3.5-.3 5.3-.1 3.5.8 5.1 1.8c1.5 1 2.7 2.5 3.5 4.1s1.3 3.3 1.7 5c.3 1.7.5 3.5.5 5.2 0 1.8 0 3.5-.1 5.2-.1 6.9-.3 13.8-.6 20.6l-1.4 41.3-1.2-.8 15.4-7.2-.5.8-1.3-43.6-.7-21.8-.2-5.5c-.1-1.9 0-3.7.1-5.6.2-1.9.5-3.8 1.4-5.7.4-.9 1-1.9 1.9-2.6.9-.8 2-1.2 3.1-1.3.5-.1 1.1-.1 1.6 0 .5 0 1 .2 1.5.2 1 .2 1.8.4 2.7.6l5.3 1.2 10.6 2.4 21.3 5 42.5 10-1.4 2.3c-4.3-4.9-8.6-9.9-12.7-15-2.1-2.5-4.1-5.1-6-7.8-2-2.6-3.9-5.3-5.6-8.2-.4-.7-.8-1.5-1.2-2.3s-.7-1.6-.9-2.7c0-.3-.1-.6 0-1 0-.4.1-.8.5-1.3.1-.2.4-.4.5-.5l.3-.2.5-.4 2-1.4 8.1-5.6 16.1-11.1 64.5-44.2.7 2.9c-1.8-.2-3.4-.5-5.1-1-1.6-.4-3.3-1-4.9-1.7s-3.1-1.7-4.5-2.9c-.7-.6-1.3-1.3-1.9-2.1-.5-.8-1-1.6-1.3-2.5-.1-.5-.3-.9-.4-1.4s-.1-1-.1-1.4c0-.9 0-1.8.1-2.6.2-1.7.4-3.3.8-5 .6-3.3 1.4-6.5 2.3-9.6 1.7-6.3 3.6-12.6 5.6-18.8s4.1-12.4 6.3-18.6l1.9 2c-7.4 2.1-15 3.6-22.5 4.8-7.6 1.2-15.2 1.9-22.7 2.9-1.9.3-3.8.6-5.8.7s-4.1.1-6.2-.5-4-1.8-5.5-3.2-2.7-3.1-3.8-4.8c-1-1.7-1.9-3.4-2.8-5l-2.8-5c-1.9-3.3-3.8-6.6-5.8-9.7l2.3.1-26 34.2-6.5 8.6-1.6 2.2c-.6.8-1.4 1.6-2.5 2.1-.6.2-1.4.4-2.2.1-.9-.3-1.4-1-1.6-1.6-.5-1.2-.4-2.2-.4-3.2 0-.5.1-1 .2-1.4.1-.5.2-.9.3-1.3.1-.9.3-1.7.4-2.6l.7-5.3 1.3-10.6 5-42.6 4.9-42.7 1.5.6c-3.4 3.9-6.9 7.6-10.5 11.2s-7.3 7.2-11.4 10.4c-2.1 1.6-4.2 3.1-6.7 4.1-.6.2-1.3.4-2 .5-.4 0-.8 0-1.2-.1-.5-.1-.8-.4-1.1-.6-1.1-1-1.8-2.1-2.5-3.2-2.6-4.5-4.6-9.2-6.6-13.9-3.8-9.5-7.2-19.1-10.5-28.8-1.6-4.8-3.2-9.7-4.8-14.5l-2.3-7.3-1.1-3.7-.6-1.8-.3-.9-.1-.5-.1-.2c-.2-.3-.1-.3 0-.4zm0-.3c.1.1.2.2.2.3l.1.2.1.5.3.9.6 1.8 1.2 3.6 2.4 7.3c1.6 4.8 3.3 9.7 5 14.5 3.4 9.6 6.9 19.2 10.9 28.6 2 4.7 4 9.4 6.6 13.7 2.3 6.2 7.7 1.5 11.5-1.2 4-3.1 7.6-6.7 11.2-10.3s7-7.4 10.3-11.2l1.8-2-.3 2.7-4.5 42.7c-1.5 14.2-3.1 28.5-4.7 42.7l-1.3 10.7-.7 5.3c-.1.9-.3 1.8-.4 2.7-.1.5-.2.9-.2 1.3-.1.4-.1.8-.2 1.2-.1.8 0 1.6.2 2.1.1.2.2.3.2.2 0 0 .1 0 .4-.1.5-.2 1.1-.7 1.5-1.3l1.6-2.1 6.4-8.6 25.8-34.3 1.2-1.6 1.1 1.7c2.1 3.3 4 6.5 6 9.8l2.8 5c.9 1.6 1.9 3.4 2.8 4.9 1.9 3.1 4.4 5.8 7.5 6.7 3.2 1 6.9.2 10.7-.3 7.6-1 15.1-1.7 22.6-2.9s14.9-2.7 22.1-4.7l2.9-.8-1 2.8c-2.2 6.1-4.3 12.3-6.2 18.5-2 6.2-3.9 12.4-5.5 18.7-.8 3.1-1.6 6.3-2.2 9.4-.3 1.6-.6 3.1-.7 4.7-.1.8-.1 1.5-.1 2.2 0 .4 0 .7.1 1 0 .3.2.6.3.9.9 2.5 3.3 4.5 6 5.7 2.7 1.3 5.9 2.1 8.9 2.4l4.2.5-3.5 2.4-64.6 44-16.1 11-8.1 5.5-2 1.4-.5.3-.2.2s.1-.1.1-.1c.1-.3 0-.1.1.1.1.5.4 1.2.7 1.9s.7 1.4 1.1 2c1.6 2.7 3.5 5.4 5.4 8s3.9 5.2 6 7.7c4.1 5.1 8.3 10 12.5 14.9l2.9 3.3-4.3-1-42.5-10.2-21.2-5.1-10.6-2.5-5.3-1.2-2.6-.6c-.8-.2-1.7-.3-2.4-.2-1.4.1-2.5 1.1-3.1 2.6-.7 1.4-1 3.2-1.2 4.9s-.2 3.5-.2 5.3l.1 5.5.5 21.8 1 43.7v.6l-.5.2-15.5 7.1-1.2.6.1-1.4 1.7-41.2c.3-6.9.5-13.7.7-20.6 0-1.7.1-3.4.1-5.1s-.2-3.4-.5-5-.8-3.3-1.5-4.7c-.8-1.5-1.8-2.8-3.1-3.7s-2.9-1.4-4.6-1.6c-1.6-.2-3.3-.1-5 0-1.7.2-3.4.5-5.1.7l-5.1.6-20.5 2.2-41.3 4.1-.6.1.1-.6c1.3-5.6 2.5-11.2 3.5-16.9s1.8-11.4 2-17.1c0-1.4 0-2.9-.1-4.3s-.3-2.8-.9-4c-.3-.5-.7-1.1-1.2-1.6s-1-1-1.5-1.4c-1.1-.9-2.2-1.8-3.3-2.7-4.6-3.4-9.4-6.6-14.2-9.8-9.7-6.2-19.5-12.2-29.5-18.1-9.9-5.9-19.9-11.6-29.9-17.3l-1.4-.7 1.3-.7c3.5-2 7-4.1 10.4-6.4 1.7-1.1 3.4-2.3 5-3.5.8-.6 1.6-1.2 2.4-1.9l1.1-1c.1-.1.2-.2.3-.2 0 0 .1-.1.1-.1.1-.1.1-.3.2-.5.2-.7.2-1.7.2-2.7-.1-1-.2-1.9-.4-2.9-.4-2-.9-3.9-1.5-5.9-1.2-3.9-2.6-7.7-4-11.5-2.9-7.6-6.2-15.1-9.5-22.6-3.4-7.5-6.8-14.9-10.4-22.2l-1.4-2.6 2.8.9c8 2.6 16 5 24.1 7.2s16.2 4.3 24.4 5.8c2 .4 4.1.7 6.1.9 1 .1 2 .2 3 .2s2 0 2.9-.1c1.8-.3 3.5-1.2 5.1-2.4 1.5-1.2 2.9-2.7 4.2-4.2 2.5-3.2 4.5-6.8 6.3-10.5s3.3-7.6 4.5-11.5l.8-2.5 1.5 2.1 25.9 35.9 3.2 4.5c1.1 1.5 2.1 3 3.2 4.4s2.3 2.8 3.6 3.8c.6.5 1.3 1 2 1.2s1 .1 1.4-.2c.4-.4.7-1.1 1-1.8.2-.8.4-1.6.4-2.5.1-1.7.1-3.5-.1-5.3s-.6-3.5-.9-5.4l-1.1-5.4-17.6-86.7-.6-2.9 2.1 2.1c3.6 3.7 7.4 7.3 11.2 10.8s7.7 7 11.7 10.2c2 1.6 4.1 3.2 6.2 4.5 1.1.7 2.2 1.3 3.3 1.9.6.3 1.1.5 1.7.6.3.1.6.1.8.2h.3c.1 0 .2 0 .3-.1.4-.2.9-.6 1.3-1s.8-.9 1.2-1.5c.7-1 1.4-2.1 2-3.3 1.2-2.2 2.4-4.6 3.4-6.9 4.2-9.5 7.8-19.2 11.2-29 1.7-4.9 3.4-9.8 5-14.8l2.4-7.4 1.2-3.7.6-1.9.3-.9.1-.5.1-.2v-.1c.3-.1.4-.2.5-.3z"/><path d="m174.5 20.5-33.2 48.1-.2.2-.3-.1-35.5-10.4.7-.6 17.2 100.5.4 2.1-1.6-1.3-40.5-35 1.2-.1-15 18.5-.3.4h-.5l-61-6 .9-1.2 19.4 45.5.3.7-.6.3-21.6 11.5v-1.2l91.8 58.8.3.2-.1.3-15.1 41-.4-.4 43.5-6.7 43.5-6.8.5-.1v.5l-5.4 83.5-.5-.6 16 1-.6.5 12.8-90.5.1-1 .9.4 68.6 27.9-1.3.9-1-32.5v-.4l.3-.3 80.4-80.1.7 1.8-29-1.5-1.5-.1.6-1.4 28.5-64 1.1 1.4-53.5 11.9-.8.2-.3-.8-7.9-22 1.3.4-47.4 35.1-1.2.9v-1.4l.2-81.5.8.4-28.4 16.3-.4.2-.2-.4zm0-.2 27.5 62.9-.6-.2 28.3-16.5.8-.5v.9l.2 81.5-1.2-.6 47.4-35.6.9-.7.4 1.1 8.1 22-1.1-.6 53.5-12.1 2-.4-.8 1.8-28.5 64-.9-1.5 29 1.5 2.4.1-1.7 1.7-80.6 79.9.3-.7 1 32.5v1.4l-1.3-.5-68.4-28.1 1.1-.6-13.3 90.5v.5h-.5l-16-1h-.5v-.5l5.6-83.5.5.4-43.5 6.7-43.6 6.7-.6.1.2-.5 14.9-41 .2.5-92.1-58.4-1-.7 1.1-.6 21.5-11.6-.4 1-19.6-45.3-.6-1.3 1.5.1 61 6-.8.3 15-18.5.6-.7.7.6 40.5 35-1.3.7-16.8-100.5-.1-.8.8.2 35.5 10.6-.4.2z"/></svg>