<?xml version="1.0" encoding="utf-8"?>
<!-- Generator: Adobe Illustrator 22.1.0, SVG Export Plug-In . SVG Version: 6.00 Build 0)  -->
<svg version="1.1" id="Layer_3" xmlns="http://www.w3.org/2000/svg" xmlns:xlink="http://www.w3.org/1999/xlink" x="0px" y="0px"
	 viewBox="0 0 345.6 372.2" style="enable-background:new 0 0 345.6 372.2;" xml:space="preserve">
<style type="text/css">
	.st0{fill:#FFFFFF;}
</style>
<g>
	<g>
		<path class="st0" d="M15.1,127.8c11.4,2.4,22.1,4.6,32.9,6.9c4.5,0.9,9,1.9,13.5,2.9c4.4,1,6.7-0.1,8.5-4.2
			c2.7-6.2,5.3-12.4,8-18.6c0.2-0.5,0.5-1,1-1.9c1.7,1.8,3.3,3.5,4.8,5.1c10.5,11.3,21,22.5,31.5,33.9c2.3,2.5,4.9,3.8,8.2,2.2
			c3.3-1.7,3.4-4.6,2.8-7.9c-5.8-29.5-11.5-58.9-17.2-88.4c-0.2-0.8-0.1-1.6-0.2-3c7,4,13.6,7.8,20.2,11.6c2.4,1.4,4.7,2.8,7.1,4.1
			c4.9,2.7,7.5,1.9,10.1-3.1c6.6-12.8,13.1-25.7,19.6-38.6c2.9-5.7,5.8-11.4,9-17.6c0.8,1.4,1.5,2.4,2,3.5
			c8.8,17.3,17.6,34.6,26.4,51.8c3.1,6.1,5.7,6.9,11.5,3.5c8.6-5,17.2-10,26.5-15.4c-0.9,5-1.7,9.3-2.5,13.6c-5,26-10,52-15.2,78
			c-0.7,3.4-0.5,6.2,2.8,7.9c3.3,1.7,5.8,0.3,8.1-2.2c11-11.9,22.1-23.8,33.2-35.7c0.9-1,1.8-1.9,3.1-3.2c1.7,3.9,3.3,7.5,4.9,11.1
			c1.4,3.1,2.6,6.3,4,9.5c1.9,4.1,4.1,5.1,8.5,4.2c14.9-3.2,29.8-6.3,44.7-9.4c0.3-0.1,0.7,0,1.4,0.1c-0.4,1.6-0.8,3-1.2,4.4
			c-4.7,14.6-9.5,29.2-14.2,43.8c-1.8,5.5-0.9,7.5,4.2,9.9c5.4,2.6,10.9,5.2,16.8,8c-5.8,4.7-11.3,9.2-16.9,13.7
			c-21.6,17.5-43.3,35-64.9,52.5c-4.3,3.5-4.6,4.8-2.7,10.1c3.1,8.4,6.1,16.9,9.4,26c-5.6-0.9-10.5-1.8-15.5-2.6
			c-20-3.5-40.1-7-60.1-10.4c-6.5-1.1-10.7,2.7-10.4,9.2c0.8,18.2,1.9,36.4,2.8,54.7c0.4,7,0.7,13.9,1,21.1c-5.2,0-10.1,0-15.4,0
			c0-2.3-0.1-4.7,0-7c1.2-22.8,2.4-45.7,3.5-68.5c0.3-6.8-3.8-10.6-10.5-9.5c-20.1,3.4-40.1,6.9-60.1,10.4
			c-4.9,0.8-9.7,1.7-15.3,2.6c0.6-1.8,1-3.1,1.4-4.3c2.6-7.2,5.2-14.4,7.8-21.7c1.9-5.2,1.6-6.6-2.8-10.1
			c-21.6-17.5-43.3-35-64.9-52.5c-5.5-4.5-11-8.9-16.8-13.7c5.7-2.7,11.1-5.3,16.5-7.9c5.4-2.6,6.2-4.5,4.4-10.1
			c-4.9-15.1-9.7-30.1-14.6-45.2C15.8,130.3,15.5,129.4,15.1,127.8z"/>
	</g>
	<g>
		<path d="M174.8,2.5c0,0,0.1,0,0.1,0l0,0.1l-0.1,0.2l-0.1,0.5l-0.3,0.9l-0.6,1.9l-1.1,3.7l-2.3,7.5c-1.5,5-3.2,9.9-4.8,14.8
			c-3.3,9.9-6.8,19.7-10.9,29.3c-1,2.4-2.1,4.8-3.4,7.1c-0.6,1.2-1.3,2.3-2,3.4c-0.4,0.6-0.8,1.1-1.3,1.6c-0.5,0.5-1,1-1.7,1.4
			c-0.2,0.1-0.4,0.2-0.6,0.2c-0.3,0-0.5,0-0.6,0c-0.4,0-0.7-0.1-1.1-0.2c-0.7-0.2-1.3-0.4-1.9-0.7c-1.2-0.6-2.4-1.2-3.5-1.9
			c-2.2-1.4-4.3-3-6.4-4.6c-4.1-3.2-8-6.7-11.9-10.2c-3.9-3.5-7.6-7.1-11.3-10.8l1.5-0.8l9.2,43.3c3.1,14.4,6,28.9,9,43.3l1.1,5.4
			c0.3,1.8,0.7,3.6,1,5.5c0.2,1.9,0.3,3.8,0.1,5.8c-0.1,1-0.2,2-0.5,3c-0.3,1-0.7,2-1.6,3c-0.5,0.4-1.2,0.8-1.9,0.9
			c-0.7,0.1-1.4,0-1.9-0.2c-1.1-0.4-2-1-2.8-1.6c-1.6-1.3-2.8-2.7-4-4.2c-1.2-1.5-2.2-3-3.3-4.5l-3.3-4.5l-26-35.8l2.3-0.4
			c-1.3,4.1-2.8,8.1-4.6,11.9c-1.8,3.9-3.9,7.6-6.6,11.1c-1.4,1.7-2.9,3.3-4.7,4.7c-1.8,1.4-3.9,2.5-6.2,2.9
			c-1.2,0.2-2.3,0.2-3.4,0.2c-1.1,0-2.2-0.1-3.2-0.2c-2.1-0.2-4.2-0.6-6.3-1c-8.3-1.6-16.5-3.7-24.6-6c-8.1-2.3-16.2-4.7-24.2-7.3
			l1.5-1.7c3.6,7.4,7,14.9,10.3,22.4c3.3,7.5,6.5,15.1,9.4,22.8c1.4,3.9,2.8,7.7,4,11.7c0.6,2,1.1,4,1.5,6.1c0.2,1,0.4,2.1,0.4,3.2
			c0.1,1.1,0.1,2.2-0.3,3.4c-0.1,0.3-0.2,0.6-0.4,0.9c-0.1,0.2-0.2,0.3-0.4,0.4c-0.1,0.1-0.2,0.2-0.3,0.3l-1.2,1
			c-0.8,0.7-1.6,1.3-2.5,1.9c-1.7,1.2-3.4,2.4-5.1,3.5c-3.5,2.2-7,4.3-10.6,6.3l0-1.4c10,5.8,19.9,11.6,29.8,17.6
			c9.9,6,19.7,12,29.4,18.3c4.8,3.2,9.6,6.4,14.3,9.9c1.2,0.9,2.3,1.8,3.4,2.7c0.5,0.5,1.1,1,1.6,1.5c0.5,0.5,1,1.1,1.4,1.8
			c0.7,1.4,0.8,2.9,1,4.4c0.1,1.5,0.1,2.9,0.1,4.4c-0.2,5.8-1.1,11.5-2.1,17.2c-1,5.7-2.2,11.3-3.5,17l-0.5-0.6l41-4.3l20.5-2.3
			l5.1-0.6c1.7-0.2,3.4-0.5,5.1-0.7c1.7-0.2,3.5-0.3,5.3-0.1c1.8,0.2,3.5,0.8,5.1,1.8c1.5,1,2.7,2.5,3.5,4.1c0.8,1.6,1.3,3.3,1.7,5
			c0.3,1.7,0.5,3.5,0.5,5.2c0,1.8,0,3.5-0.1,5.2c-0.1,6.9-0.3,13.8-0.6,20.6l-1.4,41.3l-1.2-0.8l15.4-7.2l-0.5,0.8l-1.3-43.6
			l-0.7-21.8l-0.2-5.5c-0.1-1.9,0-3.7,0.1-5.6c0.2-1.9,0.5-3.8,1.4-5.7c0.4-0.9,1-1.9,1.9-2.6c0.9-0.8,2-1.2,3.1-1.3
			c0.5-0.1,1.1-0.1,1.6,0c0.5,0,1,0.2,1.5,0.2c1,0.2,1.8,0.4,2.7,0.6l5.3,1.2l10.6,2.4l21.3,5l42.5,10l-1.4,2.3
			c-4.3-4.9-8.6-9.9-12.7-15c-2.1-2.5-4.1-5.1-6-7.8c-2-2.6-3.9-5.3-5.6-8.2c-0.4-0.7-0.8-1.5-1.2-2.3c-0.4-0.8-0.7-1.6-0.9-2.7
			c0-0.3-0.1-0.6,0-1c0-0.4,0.1-0.8,0.5-1.3c0.1-0.2,0.4-0.4,0.5-0.5l0.3-0.2l0.5-0.4l2-1.4l8.1-5.6l16.1-11.1l64.5-44.2l0.7,2.9
			c-1.8-0.2-3.4-0.5-5.1-1c-1.6-0.4-3.3-1-4.9-1.7c-1.6-0.7-3.1-1.7-4.5-2.9c-0.7-0.6-1.3-1.3-1.9-2.1c-0.5-0.8-1-1.6-1.3-2.5
			c-0.1-0.5-0.3-0.9-0.4-1.4c-0.1-0.5-0.1-1-0.1-1.4c0-0.9,0-1.8,0.1-2.6c0.2-1.7,0.4-3.3,0.8-5c0.6-3.3,1.4-6.5,2.3-9.6
			c1.7-6.3,3.6-12.6,5.6-18.8c2-6.2,4.1-12.4,6.3-18.6l1.9,2c-7.4,2.1-15,3.6-22.5,4.8c-7.6,1.2-15.2,1.9-22.7,2.9
			c-1.9,0.3-3.8,0.6-5.8,0.7c-2,0.1-4.1,0.1-6.2-0.5c-2.1-0.6-4-1.8-5.5-3.2c-1.5-1.4-2.7-3.1-3.8-4.8c-1-1.7-1.9-3.4-2.8-5l-2.8-5
			c-1.9-3.3-3.8-6.6-5.8-9.7l2.3,0.1l-26,34.2l-6.5,8.6l-1.6,2.2c-0.6,0.8-1.4,1.6-2.5,2.1c-0.6,0.2-1.4,0.4-2.2,0.1
			c-0.9-0.3-1.4-1-1.6-1.6c-0.5-1.2-0.4-2.2-0.4-3.2c0-0.5,0.1-1,0.2-1.4c0.1-0.5,0.2-0.9,0.3-1.3c0.1-0.9,0.3-1.7,0.4-2.6l0.7-5.3
			l1.3-10.6l5-42.6l4.9-42.7l1.5,0.6c-3.4,3.9-6.9,7.6-10.5,11.2c-3.6,3.6-7.3,7.2-11.4,10.4c-2.1,1.6-4.2,3.1-6.7,4.1
			c-0.6,0.2-1.3,0.4-2,0.5c-0.4,0-0.8,0-1.2-0.1c-0.5-0.1-0.8-0.4-1.1-0.6c-1.1-1-1.8-2.1-2.5-3.2c-2.6-4.5-4.6-9.2-6.6-13.9
			c-3.8-9.5-7.2-19.1-10.5-28.8c-1.6-4.8-3.2-9.7-4.8-14.5l-2.3-7.3l-1.1-3.7l-0.6-1.8l-0.3-0.9l-0.1-0.5l-0.1-0.2
			C174.6,2.6,174.7,2.6,174.8,2.5z M174.8,2.2c0.1,0.1,0.2,0.2,0.2,0.3l0.1,0.2l0.1,0.5l0.3,0.9l0.6,1.8l1.2,3.6l2.4,7.3
			c1.6,4.8,3.3,9.7,5,14.5c3.4,9.6,6.9,19.2,10.9,28.6c2,4.7,4,9.4,6.6,13.7c2.3,6.2,7.7,1.5,11.5-1.2c4-3.1,7.6-6.7,11.2-10.3
			c3.6-3.6,7-7.4,10.3-11.2l1.8-2l-0.3,2.7l-4.5,42.7c-1.5,14.2-3.1,28.5-4.7,42.7l-1.3,10.7l-0.7,5.3c-0.1,0.9-0.3,1.8-0.4,2.7
			c-0.1,0.5-0.2,0.9-0.2,1.3c-0.1,0.4-0.1,0.8-0.2,1.2c-0.1,0.8,0,1.6,0.2,2.1c0.1,0.2,0.2,0.3,0.2,0.2c0,0,0.1,0,0.4-0.1
			c0.5-0.2,1.1-0.7,1.5-1.3l1.6-2.1l6.4-8.6l25.8-34.3l1.2-1.6l1.1,1.7c2.1,3.3,4,6.5,6,9.8l2.8,5c0.9,1.6,1.9,3.4,2.8,4.9
			c1.9,3.1,4.4,5.8,7.5,6.7c3.2,1,6.9,0.2,10.7-0.3c7.6-1,15.1-1.7,22.6-2.9c7.5-1.2,14.9-2.7,22.1-4.7l2.9-0.8l-1,2.8
			c-2.2,6.1-4.3,12.3-6.2,18.5c-2,6.2-3.9,12.4-5.5,18.7c-0.8,3.1-1.6,6.3-2.2,9.4c-0.3,1.6-0.6,3.1-0.7,4.7
			c-0.1,0.8-0.1,1.5-0.1,2.2c0,0.4,0,0.7,0.1,1c0,0.3,0.2,0.6,0.3,0.9c0.9,2.5,3.3,4.5,6,5.7c2.7,1.3,5.9,2.1,8.9,2.4l4.2,0.5
			l-3.5,2.4l-64.6,44l-16.1,11l-8.1,5.5l-2,1.4l-0.5,0.3l-0.2,0.2c0,0,0.1-0.1,0.1-0.1c0.1-0.3,0-0.1,0.1,0.1
			c0.1,0.5,0.4,1.2,0.7,1.9c0.3,0.7,0.7,1.4,1.1,2c1.6,2.7,3.5,5.4,5.4,8c1.9,2.6,3.9,5.2,6,7.7c4.1,5.1,8.3,10,12.5,14.9l2.9,3.3
			l-4.3-1l-42.5-10.2l-21.2-5.1l-10.6-2.5l-5.3-1.2l-2.6-0.6c-0.8-0.2-1.7-0.3-2.4-0.2c-1.4,0.1-2.5,1.1-3.1,2.6
			c-0.7,1.4-1,3.2-1.2,4.9c-0.2,1.7-0.2,3.5-0.2,5.3l0.1,5.5l0.5,21.8l1,43.7l0,0.6l-0.5,0.2l-15.5,7.1l-1.2,0.6l0.1-1.4l1.7-41.2
			c0.3-6.9,0.5-13.7,0.7-20.6c0-1.7,0.1-3.4,0.1-5.1c0-1.7-0.2-3.4-0.5-5c-0.3-1.6-0.8-3.3-1.5-4.7c-0.8-1.5-1.8-2.8-3.1-3.7
			c-1.3-0.9-2.9-1.4-4.6-1.6c-1.6-0.2-3.3-0.1-5,0c-1.7,0.2-3.4,0.5-5.1,0.7l-5.1,0.6l-20.5,2.2L85,297.1l-0.6,0.1l0.1-0.6
			c1.3-5.6,2.5-11.2,3.5-16.9c1-5.7,1.8-11.4,2-17.1c0-1.4,0-2.9-0.1-4.3c-0.1-1.4-0.3-2.8-0.9-4c-0.3-0.5-0.7-1.1-1.2-1.6
			c-0.5-0.5-1-1-1.5-1.4c-1.1-0.9-2.2-1.8-3.3-2.7c-4.6-3.4-9.4-6.6-14.2-9.8c-9.7-6.2-19.5-12.2-29.5-18.1
			c-9.9-5.9-19.9-11.6-29.9-17.3L8,202.7l1.3-0.7c3.5-2,7-4.1,10.4-6.4c1.7-1.1,3.4-2.3,5-3.5c0.8-0.6,1.6-1.2,2.4-1.9l1.1-1
			c0.1-0.1,0.2-0.2,0.3-0.2c0,0,0.1-0.1,0.1-0.1c0.1-0.1,0.1-0.3,0.2-0.5c0.2-0.7,0.2-1.7,0.2-2.7c-0.1-1-0.2-1.9-0.4-2.9
			c-0.4-2-0.9-3.9-1.5-5.9c-1.2-3.9-2.6-7.7-4-11.5c-2.9-7.6-6.2-15.1-9.5-22.6c-3.4-7.5-6.8-14.9-10.4-22.2L1.8,118l2.8,0.9
			c8,2.6,16,5,24.1,7.2c8.1,2.2,16.2,4.3,24.4,5.8c2,0.4,4.1,0.7,6.1,0.9c1,0.1,2,0.2,3,0.2c1,0,2,0,2.9-0.1
			c1.8-0.3,3.5-1.2,5.1-2.4c1.5-1.2,2.9-2.7,4.2-4.2c2.5-3.2,4.5-6.8,6.3-10.5c1.8-3.7,3.3-7.6,4.5-11.5l0.8-2.5l1.5,2.1l25.9,35.9
			l3.2,4.5c1.1,1.5,2.1,3,3.2,4.4c1.1,1.4,2.3,2.8,3.6,3.8c0.6,0.5,1.3,1,2,1.2c0.7,0.2,1,0.1,1.4-0.2c0.4-0.4,0.7-1.1,1-1.8
			c0.2-0.8,0.4-1.6,0.4-2.5c0.1-1.7,0.1-3.5-0.1-5.3c-0.2-1.8-0.6-3.5-0.9-5.4l-1.1-5.4l-17.6-86.7l-0.6-2.9l2.1,2.1
			c3.6,3.7,7.4,7.3,11.2,10.8c3.8,3.5,7.7,7,11.7,10.2c2,1.6,4.1,3.2,6.2,4.5c1.1,0.7,2.2,1.3,3.3,1.9c0.6,0.3,1.1,0.5,1.7,0.6
			c0.3,0.1,0.6,0.1,0.8,0.2c0.1,0,0.3,0,0.3,0c0.1,0,0.2,0,0.3-0.1c0.4-0.2,0.9-0.6,1.3-1c0.4-0.4,0.8-0.9,1.2-1.5
			c0.7-1,1.4-2.1,2-3.3c1.2-2.2,2.4-4.6,3.4-6.9c4.2-9.5,7.8-19.2,11.2-29c1.7-4.9,3.4-9.8,5-14.8l2.4-7.4l1.2-3.7l0.6-1.9l0.3-0.9
			l0.1-0.5l0.1-0.2l0-0.1C174.6,2.4,174.7,2.3,174.8,2.2z"/>
	</g>
	<g>
		<path d="M174.5,20.5l-33.2,48.1l-0.2,0.2l-0.3-0.1l-35.5-10.4l0.7-0.6l17.2,100.5l0.4,2.1L122,159l-40.5-35l1.2-0.1l-15,18.5
			l-0.3,0.4l-0.5,0l-61-6l0.9-1.2l19.4,45.5l0.3,0.7l-0.6,0.3L4.3,193.6l0-1.2l91.8,58.8l0.3,0.2l-0.1,0.3l-15.1,41l-0.4-0.4
			l43.5-6.7l43.5-6.8l0.5-0.1l0,0.5l-5.4,83.5l-0.5-0.6l16,1l-0.6,0.5l12.8-90.5l0.1-1l0.9,0.4l68.6,27.9l-1.3,0.9l-1-32.5l0-0.4
			l0.3-0.3l80.4-80.1l0.7,1.8l-29-1.5l-1.5-0.1l0.6-1.4l28.5-64l1.1,1.4l-53.5,11.9l-0.8,0.2l-0.3-0.8l-7.9-22l1.3,0.4L230.4,149
			l-1.2,0.9l0-1.4l0.2-81.5l0.8,0.4l-28.4,16.3l-0.4,0.2l-0.2-0.4L174.5,20.5z M174.5,20.3L202,83.2l-0.6-0.2l28.3-16.5l0.8-0.5
			l0,0.9l0.2,81.5l-1.2-0.6l47.4-35.6l0.9-0.7l0.4,1.1l8.1,22l-1.1-0.6l53.5-12.1l2-0.4l-0.8,1.8l-28.5,64l-0.9-1.5l29,1.5l2.4,0.1
			l-1.7,1.7l-80.6,79.9l0.3-0.7l1,32.5l0,1.4l-1.3-0.5l-68.4-28.1l1.1-0.6L179,363.5L179,364l-0.5,0l-16-1l-0.5,0l0-0.5l5.6-83.5
			l0.5,0.4l-43.5,6.7L81,292.8l-0.6,0.1l0.2-0.5l14.9-41l0.2,0.5L3.6,193.5l-1-0.7l1.1-0.6l21.5-11.6l-0.4,1L5.2,136.3l-0.6-1.3
			l1.5,0.1l61,6l-0.8,0.3l15-18.5l0.6-0.7l0.7,0.6l40.5,35l-1.3,0.7L105,58l-0.1-0.8l0.8,0.2l35.5,10.6l-0.4,0.2L174.5,20.3z"/>
	</g>
</g>
</svg>
