<?xml version="1.0" encoding="utf-8"?>
<!-- Generator: Adobe Illustrator 26.2.1, SVG Export Plug-In . SVG Version: 6.00 Build 0)  -->
<svg version="1.1" id="splash" xmlns="http://www.w3.org/2000/svg" xmlns:xlink="http://www.w3.org/1999/xlink" x="0px" y="0px"
	 viewBox="0 0 1224 1149.7" style="enable-background:new 0 0 1224 1149.7;" xml:space="preserve">
<style type="text/css">
	.st0{fill:none;stroke:#0F24FB;stroke-width:70;stroke-miterlimit:10;}
	.st1{fill:#FFFFFF;}
	.st2{fill:#231F20;}
	.st3{fill:#BBBDBF;}
	.st4{fill:#D0D2D3;}
	.st5{fill:#E6E1DC;}
	.st6{fill:url(#SVGID_1_);}
	.st7{fill:url(#SVGID_00000118387419458528190150000009457276644158724015_);}
</style>
<path id="blueBox" class="st0" d="M306,168.7h612v828H306V168.7z"/>
<g id="computer">
	<g id="macbook">
		<path id="screen_00000137099286228165573540000007745577936036016058_" class="st1" d="M185.4,413.6l44.5,322.9L667.3,667
			l-44.5-293.7L185.4,413.6z"/>
		<path id="border" class="st2" d="M669.6,654.3c-2.1-14.2-41-271.9-41-271.9c-2.4-14.9-8.6-14.7-20-13.8
			c-14.7,1.1-389.4,31.7-410.6,33.2c-21.1,1.5-18.1,13.4-16.2,25.4c1.9,12.1,40.1,289.4,42.5,307.5c2.4,18.1,10.4,15.5,17.7,14.7
			c0,0,427.2-61,428.8-66.6S671.6,668.5,669.6,654.3L669.6,654.3z M234,727.6l-43.6-309.2l430.4-36.5l41.9,282.8L234,727.6z"/>
		<path id="edge" class="st3" d="M853.2,800v7.4c0,1.2,0.8,2.5-3.3,3.6S402,894.3,394,895.5s-21.8,5-34.2-7
			C346,875.1,237.2,760.8,236.2,759.9s-1.7-1.8-1.7-5s0.1-8,0.1-8L853.2,800z"/>
		<path id="surface" class="st4" d="M237.5,752.6c34.5,35.6,110.9,115.3,118,122.4s11.4,15.5,38.8,10.7s447.5-81.5,455-82.9
			c7.5-1.5,2.5-5.8-1.2-8.3C840.1,789,694.9,692,689.6,688s-14.1-10.8-27.8-8.8s-416,63.2-419.1,64
			C236.8,744.5,230.5,745.3,237.5,752.6L237.5,752.6z"/>
		<path id="trackpad" class="st3" d="M630.8,775.7c-12.7,2.2-146.5,24.1-150,24.4c-3.5,0.3-6,2.3-2.5,5.5s44.4,38.7,46.1,40.3
			s3.9,2.7,8.6,1.9c6.2-1,157.3-28,160.3-28.6c1.7-0.4,6.2-0.9,0.6-5c-5.5-4.1-48.2-35.2-51.1-37.2
			C640.1,774.9,638.7,774.4,630.8,775.7L630.8,775.7z"/>
		<path id="keyboard" class="st3" d="M310,750.6c-6.5,0.9-8.7,1.7-4.6,5.4s51.8,47.2,53.7,48.9s3.9,3.5,9.9,2.8
			c5.9-0.7,342.4-56.4,344.2-56.8s3.5-0.9-0.6-3.9s-65.3-46.8-66.5-47.7c-1.2-1-2.5-1.1-6.3-0.5C635.9,699.2,310,750.6,310,750.6
			L310,750.6z"/>
	</g>
</g>
<g id="book">
	<path class="st2" d="M1011.9,465.7c6.4,14.2,6.6,24.4,6.4,32.6c-0.2,8.2,1.2,21.7,1.1,31.4s5.3,25.9,6.4,32.3s4.3,19.2,1.7,40.1
		s2.9,20.7,2.9,41.8s0.3,36.3-4.4,50.3s-9.5,26-37.3,33.2s-34.1-4.8-34.1-4.8l7.5-0.5c0,0,4,1.9,5.7,2.6s8.2,1.1,8.2,1.1
		c4.5-2.1,19.4-6.4,24.9-11.4s10.2-8.5,14.1-22.2c3.9-13.7,7.7-29.4,7-44.5s-1.4-20-2.3-25.8s-1.4-11.8-0.9-16.4
		c0.4-4.6,1.9-19.4,1-28.4c-0.8-9-1.3-16-5.3-25.9s-1.4-23.4-2.3-32.3c-0.8-8.9-1.3-26.5-3-30.8
		C1007.3,483.9,1011.9,465.7,1011.9,465.7L1011.9,465.7z"/>
	<path class="st2" d="M1035.7,400.6c3.6,0.1,5.7,2,6.4,4s1,2.8-1.2,15.1c-2.3,12.2-55.9,293.6-58.5,307s-5.9,19.2-22.4,16.3
		s-143.8-27.1-145.3-27.5c-1.5-0.3-2-0.5-2.4-0.2s-3.1,0.3-3.4,0.4c-0.3,0.1-1.3,0.6-2-0.1s-4-2.2-4-2.7c-0.1-0.5,0.1-0.8-1.1-1.1
		S628.6,652.2,623,650.4s-8.6-7.7-6.3-14.7c1.3-3.8,102.1-203.1,111.5-223.2c9.4-19.6,96.8,49,154.6,44.2
		C968.3,449.7,1035.7,400.6,1035.7,400.6L1035.7,400.6z"/>
	<path class="st5" d="M1025.8,392.8c3.1,0.3,3.2,0.4,4.5,1.5c1.3,1.2,5.5,5.8,5.5,5.8s3.2,2.6,2.4,7.9s-58,304.5-59.8,312.6
		c-1.7,8-5.6,18.4-20.5,16.1s-147.3-25.2-147.3-25.2l-10.8-3.7c0,0-169.2-57.8-175.1-60c-5.9-2.3-5.5-7.1-5.5-9.7
		c0.7-2.3,1.5-6.5,3.6-10.3s107.7-214.9,108.6-216.4s3.5-4,6.1-4c2.5,0,146,44.9,146,44.9L1025.8,392.8L1025.8,392.8z"/>
	<path class="st5" d="M884.6,448.5c-48.2-20.2-98.7-28.8-137.8-40.4c-9.5-2.8-12.8-2.9-17.5,7.3c-4.7,10.2-101.9,203.5-107.3,214
		c-5.4,10.5-3.1,14,6.4,16.8c36.4,11,140.2,46.9,172.9,58.7C809.7,683.1,884.6,448.5,884.6,448.5L884.6,448.5z"/>
	
		<linearGradient id="SVGID_1_" gradientUnits="userSpaceOnUse" x1="854.873" y1="460.6162" x2="990.1221" y2="502.7033" gradientTransform="matrix(1 0 0 1 0 70)">
		<stop  offset="0" style="stop-color:#EBE6E0"/>
		<stop  offset="0.68" style="stop-color:#F2EDE8"/>
	</linearGradient>
	<path class="st6" d="M884.6,448.5c8.2-10.3,22.4-16.2,41.9-22.5c19.4-6.3,75.4-25.8,86.6-30s17.1-5.9,14.8,4.3
		s-56.5,298-59.1,310.5s-7.1,21.4-24.4,18.2c-17.3-3.2-127.8-23.3-143.1-24C805.5,693.1,884.6,448.5,884.6,448.5L884.6,448.5z"/>
	<path class="st2" d="M787.9,685.3c1.7,6.5-3.2,14.6-2.5,21s1.2,9.2,1.2,9.2l5.9-1c0,0-2.7-5.4-1.7-14.7c1-9.2,5.7-15.3,5.7-15.3
		L787.9,685.3L787.9,685.3z"/>
	
		<linearGradient id="SVGID_00000183935121867330056250000010167633862943523258_" gradientUnits="userSpaceOnUse" x1="848.1741" y1="492.5771" x2="700.0831" y2="445.946" gradientTransform="matrix(1 0 0 1 0 70)">
		<stop  offset="0" style="stop-color:#F2EDE8"/>
		<stop  offset="0.411" style="stop-color:#EDE8E2"/>
	</linearGradient>
	<path style="fill:url(#SVGID_00000183935121867330056250000010167633862943523258_);" d="M884.6,448.5
		c-34.8-65.1-81.5-50.4-120.3-52.8c-5.5-0.2-8.6,1.2-11.3,7.2S655,605.3,649.7,616s-0.5,15.6,7.1,15.6s95.7,6,144.5,73.5
		C814.9,665.3,884.6,448.5,884.6,448.5L884.6,448.5z"/>
</g>
</svg>
