<?xml version="1.0" standalone="no"?>
<!DOCTYPE svg PUBLIC "-//W3C//DTD SVG 20010904//EN"
 "http://www.w3.org/TR/2001/REC-SVG-20010904/DTD/svg10.dtd">
<svg version="1.0" xmlns="http://www.w3.org/2000/svg"
 width="417.000000pt" height="417.000000pt" viewBox="0 0 417.000000 417.000000"
 preserveAspectRatio="xMidYMid meet">
<metadata>
Created by potrace 1.11, written by Peter Selinger 2001-2013
</metadata>
<g transform="translate(0.000000,417.000000) scale(0.100000,-0.100000)"
fill="#000000" stroke="none">
<path d="M2429 3645 c-304 -49 -472 -108 -552 -192 -54 -58 -387 -933 -387
-1018 0 -16 63 -343 141 -727 77 -385 139 -701 137 -703 -2 -2 -61 170 -132
383 -71 213 -167 495 -214 627 -152 430 -212 559 -274 591 -26 14 -35 13 -86
-1 -155 -45 -578 -241 -628 -290 -15 -15 -24 -36 -24 -54 0 -17 41 -126 91
-243 111 -260 308 -755 421 -1057 87 -233 115 -282 182 -319 27 -15 65 -17
321 -17 245 0 299 3 345 17 30 9 63 23 73 30 12 9 62 166 161 508 343 1185
601 2061 604 2052 1 -5 -77 -452 -173 -993 -198 -1102 -186 -998 -140 -1292
44 -285 73 -371 134 -409 36 -23 40 -23 366 -22 375 1 389 4 423 71 11 21 40
117 66 214 67 257 154 543 247 804 244 692 242 684 198 732 -46 48 -100 68
-340 122 -75 17 -160 31 -189 31 -44 0 -56 -4 -82 -31 l-31 -30 7 -147 c5
-120 29 -720 49 -1267 3 -60 3 -103 1 -95 -2 8 -42 278 -89 600 -120 821 -239
1616 -281 1875 -27 170 -40 224 -55 240 -15 16 -35 19 -111 22 -51 1 -132 -4
-179 -12z m188 -387 c-3 -8 -6 -5 -6 6 -1 11 2 17 5 13 3 -3 4 -12 1 -19z"/>
</g>
</svg>
