<?xml version="1.0" standalone="no"?>
<!DOCTYPE svg PUBLIC "-//W3C//DTD SVG 20010904//EN"
 "http://www.w3.org/TR/2001/REC-SVG-20010904/DTD/svg10.dtd">
<svg version="1.0" xmlns="http://www.w3.org/2000/svg"
 width="459.000000pt" height="459.000000pt" viewBox="0 0 459.000000 459.000000"
 preserveAspectRatio="xMidYMid meet">
<metadata>
Created by potrace 1.14, written by Peter Selinger 2001-2017
</metadata>
<g transform="translate(0.000000,459.000000) scale(0.100000,-0.100000)"
fill="#000000" stroke="none">
<path d="M957 4370 c-374 -63 -676 -367 -737 -742 -6 -40 -10 -517 -10 -1329
0 -1390 -1 -1359 60 -1517 56 -145 169 -294 293 -388 82 -62 221 -129 327
-156 l85 -23 1315 0 c1457 0 1368 -4 1534 65 218 91 395 268 486 486 69 166
65 77 65 1534 l0 1315 -23 85 c-91 346 -367 605 -707 665 -76 13 -263 15
-1364 14 -702 -1 -1298 -5 -1324 -9z m1927 -509 c21 -5 43 -14 49 -20 6 -6 23
-88 39 -183 33 -199 216 -1417 315 -2095 37 -254 69 -461 71 -458 4 3 -17 579
-43 1179 -16 375 -15 385 50 406 47 15 87 10 297 -39 226 -54 298 -93 298
-161 0 -28 -69 -238 -213 -645 -109 -308 -164 -488 -247 -797 -65 -243 -73
-262 -113 -292 -28 -20 -39 -21 -377 -21 -336 0 -350 1 -377 21 -15 11 -36 36
-46 56 -26 53 -63 229 -93 443 l-26 190 186 1039 c102 571 185 1041 183 1042
-4 4 -163 -539 -558 -1899 -115 -396 -212 -723 -215 -729 -13 -21 -92 -47
-179 -59 -59 -7 -166 -10 -307 -7 -198 5 -221 7 -263 28 -25 12 -57 37 -71 55
-13 18 -67 145 -119 283 -124 331 -303 781 -405 1017 -100 232 -103 241 -90
281 9 25 28 41 106 84 174 97 528 240 592 240 91 0 158 -161 537 -1285 74
-220 133 -389 131 -375 -3 14 -71 355 -152 758 l-147 732 70 213 c70 209 277
736 308 783 44 68 195 132 415 178 208 43 322 53 394 37z"/>
</g>
</svg>
