<svg enable-background="new 0 0 540.2 232.6" viewBox="0 0 540.2 232.6" xmlns="http://www.w3.org/2000/svg"><g fill="#b3b3b3"><path d="m48.4 100.1c11.4 3.2 17 9.1 17 17.7v38.9c0 15.3-7.8 23.1-23.5 23.1h-41.6v-154.9h35.3c18.4 0 27.6 9.3 27.6 28.1v29.8c0 8.9-5 14.4-14.9 16.4zm-27.4-9.9h9.7c8 0 11.8-3.8 11.8-11.3v-24.2c0-7.5-3.1-11.3-9.3-11.3h-12.3v46.7zm0 70.7h15.6c5.5 0 8.2-2.3 8.2-6.7v-34.3c0-7.3-4.1-11-12.3-11h-11.5z"/><path d="m115.2 179.6h-20.7v-128.3c0-17.7 8.3-26.5 24.8-26.5h15.6c16.5 0 24.8 8.9 24.8 26.5v128.3h-20.7v-56.7h-23.8zm23.7-75.4v-51.5c0-6-3.1-9.1-9.1-9.1h-5.6c-6 0-9.1 3.1-9.1 9.1v51.6z"/><path d="m252.8 143.5v9.9c0 17.5-8.3 26.4-24.8 26.4h-13.4c-16.5 0-24.8-8.8-24.8-26.4v-102.2c0-17.5 8.3-26.4 24.8-26.4h13.4c16.6 0 24.8 8.8 24.8 26.4v17.4h-20.7v-15.9c0-6-3.1-9.1-9.3-9.1h-4.1c-5.5 0-8.2 3.1-8.2 9.1v99.2c0 6 2.7 9.1 8.2 9.1h5.2c5.5 0 8.2-3.1 8.2-9.1v-8.4z"/><path d="m301.6 179.6h-20.7v-128.3c0-17.7 8.3-26.5 24.8-26.5h15.6c16.6 0 24.8 8.9 24.8 26.5v128.3h-20.7v-56.7h-23.8zm23.7-75.4v-51.5c0-6-3.1-9.1-9.1-9.1h-5.6c-6 0-9.1 3.1-9.1 9.1v51.6z"/><path d="m377.3 24.9h40.6c15.8 0 23.8 8.9 23.8 26.5v38.2c0 13.5-4.1 22-12.3 25.7l14.4 64.4h-19.7l-13.6-62.5h-12.5v62.5h-20.7zm20.6 74.5h13.6c6.1 0 9.3-3.8 9.3-11.3v-33.4c0-7.5-3.1-11.3-9.3-11.3h-13.6z"/><path d="m495.7 179.6c-16.7 0-25-8.8-25-26.4v-102c0-17.7 8.3-26.5 24.8-26.5h19.9c16.5 0 24.8 8.9 24.8 26.5v102.1c0 17.5-8.3 26.4-25 26.4h-19.5zm5-18.7h10.6c5.5 0 8.2-3.1 8.2-9.1v-99.1c0-6-3.1-9.1-9.3-9.1h-9.7c-6 0-9.1 3.1-9.1 9.1v99.2c-.1 6 3 9 9.3 9z"/><path d="m100.4 0h53.9v14h-53.9z"/><path d="m159.7 214c1.8 0 3.3.5 4.4 1.5 1 1 1.6 2.4 1.6 4.1 0 1.8-.6 3.2-1.7 4.1s-2.7 1.5-4.9 1.5h-10.7v6.9h-3v-18.1zm-.5 8.5c2.3 0 3.5-.9 3.5-2.8 0-2-1.3-3-3.6-3h-10.6v5.8z"/><path d="m185.7 232h-3v-18.1h3z"/><path d="m222.9 232h-19.7v-2.7l14.9-12.6h-14.7v-2.7h18.8v2.7l-14.8 12.6h15.6z"/><path d="m259.6 232h-19.7v-2.7l14.9-12.6h-14.7v-2.7h18.8v2.7l-14.8 12.6h15.6z"/><path d="m295.9 232h-18.9v-18.1h18.2v2.7h-15.2v4.7h10.6v2.7h-10.6v5.3h15.9z"/><path d="m334.3 232h-3.5l-4.9-6.9h-9.1v6.9h-3v-18.1h14.2c1.9 0 3.4.5 4.4 1.5s1.6 2.4 1.6 4.2c0 1.5-.5 2.7-1.4 3.6-.8.9-1.9 1.4-3.4 1.7zm-6.7-9.5c2.3 0 3.4-.9 3.4-2.8 0-2-1.3-3-3.8-3h-10.6v5.8z"/><path d="m355.4 232h-3v-18.1h3z"/><path d="m394.9 232h-3.2l-2-4.1h-12.2l-2 4.1h-3.4l9.5-18.1h3.8zm-6.9-6.7-4.5-8.8-4.7 8.8z"/></g></svg>