<?xml version="1.0" encoding="utf-8"?>
<!-- Generator: Adobe Illustrator 26.2.1, SVG Export Plug-In . SVG Version: 6.00 Build 0)  -->
<svg version="1.1" id="Layer_1" xmlns="http://www.w3.org/2000/svg" xmlns:xlink="http://www.w3.org/1999/xlink" x="0px" y="0px"
	 viewBox="0 0 540.2 232.6" style="enable-background:new 0 0 540.2 232.6;" xml:space="preserve">
<style type="text/css">
	.st0{fill:#FFFFFF;}
</style>
<g>
	<path class="st0" d="M48.4,100.1c11.4,3.2,17,9.1,17,17.7v38.9c0,15.3-7.8,23.1-23.5,23.1H0.3V24.9h35.3c18.4,0,27.6,9.3,27.6,28.1
		v29.8c0,8.9-5,14.4-14.9,16.4L48.4,100.1z M21,90.2h9.7c8,0,11.8-3.8,11.8-11.3V54.7c0-7.5-3.1-11.3-9.3-11.3H20.9v46.7L21,90.2z
		 M21,160.9h15.6c5.5,0,8.2-2.3,8.2-6.7v-34.3c0-7.3-4.1-11-12.3-11H21V160.9z M115.2,179.6H94.5V51.3c0-17.7,8.3-26.5,24.8-26.5
		h15.6c16.5,0,24.8,8.9,24.8,26.5v128.3H139v-56.7h-23.8V179.6z M138.9,104.2V52.7c0-6-3.1-9.1-9.1-9.1h-5.6c-6,0-9.1,3.1-9.1,9.1
		v51.6L138.9,104.2z M252.8,143.5v9.9c0,17.5-8.3,26.4-24.8,26.4h-13.4c-16.5,0-24.8-8.8-24.8-26.4V51.2c0-17.5,8.3-26.4,24.8-26.4
		H228c16.6,0,24.8,8.8,24.8,26.4v17.4h-20.7V52.7c0-6-3.1-9.1-9.3-9.1h-4.1c-5.5,0-8.2,3.1-8.2,9.1v99.2c0,6,2.7,9.1,8.2,9.1h5.2
		c5.5,0,8.2-3.1,8.2-9.1v-8.4L252.8,143.5z M301.6,179.6h-20.7V51.3c0-17.7,8.3-26.5,24.8-26.5h15.6c16.6,0,24.8,8.9,24.8,26.5
		v128.3h-20.7v-56.7h-23.8L301.6,179.6z M325.3,104.2V52.7c0-6-3.1-9.1-9.1-9.1h-5.6c-6,0-9.1,3.1-9.1,9.1v51.6L325.3,104.2z
		 M377.3,24.9h40.6c15.8,0,23.8,8.9,23.8,26.5v38.2c0,13.5-4.1,22-12.3,25.7l14.4,64.4h-19.7l-13.6-62.5H398v62.5h-20.7V24.9z
		 M397.9,99.4h13.6c6.1,0,9.3-3.8,9.3-11.3V54.7c0-7.5-3.1-11.3-9.3-11.3h-13.6V99.4z M495.7,179.6c-16.7,0-25-8.8-25-26.4v-102
		c0-17.7,8.3-26.5,24.8-26.5h19.9c16.5,0,24.8,8.9,24.8,26.5v102.1c0,17.5-8.3,26.4-25,26.4h-19.5V179.6z M500.7,160.9h10.6
		c5.5,0,8.2-3.1,8.2-9.1V52.7c0-6-3.1-9.1-9.3-9.1h-9.7c-6,0-9.1,3.1-9.1,9.1v99.2C491.3,157.9,494.4,160.9,500.7,160.9L500.7,160.9
		z M100.4,0h53.9v14h-53.9V0z M159.7,214c1.8,0,3.3,0.5,4.4,1.5c1,1,1.6,2.4,1.6,4.1c0,1.8-0.6,3.2-1.7,4.1s-2.7,1.5-4.9,1.5h-10.7
		v6.9h-3V214H159.7z M159.2,222.5c2.3,0,3.5-0.9,3.5-2.8c0-2-1.3-3-3.6-3h-10.6v5.8H159.2z M185.7,232h-3v-18.1h3V232z M222.9,232
		h-19.7v-2.7l14.9-12.6h-14.7V214h18.8v2.7l-14.8,12.6H223L222.9,232z M259.6,232h-19.7v-2.7l14.9-12.6h-14.7V214h18.8v2.7
		l-14.8,12.6h15.6L259.6,232z M295.9,232H277v-18.1h18.2v2.7H280v4.7h10.6v2.7H280v5.3h15.9V232z M334.3,232h-3.5l-4.9-6.9h-9.1v6.9
		h-3v-18.1H328c1.9,0,3.4,0.5,4.4,1.5s1.6,2.4,1.6,4.2c0,1.5-0.5,2.7-1.4,3.6c-0.8,0.9-1.9,1.4-3.4,1.7L334.3,232z M327.6,222.5
		c2.3,0,3.4-0.9,3.4-2.8c0-2-1.3-3-3.8-3h-10.6v5.8H327.6z M355.4,232h-3v-18.1h3V232z M394.9,232h-3.2l-2-4.1h-12.2l-2,4.1h-3.4
		l9.5-18.1h3.8L394.9,232z M388,225.3l-4.5-8.8l-4.7,8.8H388z"/>
</g>
</svg>
