<?xml version="1.0" encoding="utf-8"?>
<!-- Generator: Adobe Illustrator 26.2.1, SVG Export Plug-In . SVG Version: 6.00 Build 0)  -->
<svg version="1.1" id="Layer_1" xmlns="http://www.w3.org/2000/svg" xmlns:xlink="http://www.w3.org/1999/xlink" x="0px" y="0px"
	 viewBox="0 0 558 225.4" style="enable-background:new 0 0 558 225.4;" xml:space="preserve">
<style type="text/css">
	.st0{fill:#FFFFFF;}
</style>
<g>
	<path class="st0" d="M143.2,141.9c-2.6-9.2-5.1-18.3-7.7-27.4c-2.6-8.9-5-17.8-7.5-26.7c-0.1-0.4-0.1-0.7-0.6-0.8
		c-1.6-0.2-3.1-0.4-4.7-0.5c-2.3-0.3-4.5-0.5-6.8-0.8c1.9-1.6,4-2.9,6-4.2c4.2-2.7,8.5-5.5,12.6-8.3c0.4-0.3,1.1-0.4,0.9-1.2
		c-0.5-2.6-1-5.2-1.4-7.9c-0.9-5.2-1.9-10.4-2.7-15.6c-1.1-6-2-11.9-3.1-17.8c-0.9-5.3-1.9-10.7-2.7-16c-0.2-1-0.5-1.5-1.6-1.9
		C110.7,8.7,97.5,4.5,84.4,0.4c-0.9-0.3-1.5,0-2.1,0.4C75.1,6,67.8,11.3,60.6,16.5c4.6,0.9,9.3,1.7,13.9,2.5
		c7.3,1.2,14.6,2.6,21.9,3.9c5.6,1.1,11.3,2,16.9,3c0.8,0.2,1.2,0.4,1.4,1.3c1.1,6.4,2.2,12.9,3.4,19.3c1.1,5.6,2,11,3.1,16.6
		c0.4,1.6,0.6,3.2,0.9,4.8c0.2,0.9,0,1.4-0.8,1.9c-9.3,6.3-18.4,12.5-27.7,18.9c-2.7,1.9-5.5,3.9-8.2,5.7c-0.3,0.2-0.4,0.4-0.7,0.8
		c3.2,0.2,6.3,0.3,9.4,0.4c4.8,0.2,9.4,0.4,14.1,0.5c3.2,0.2,6.3,0.4,9.4,0.4c0.6,0.1,0.9,0.3,1.1,0.9c3.4,12.5,7,25,10.4,37.4
		c2.2,7.9,4.4,16,6.7,23.9c0.2,0.7,0.2,1.2-0.4,1.9c-7.9,8-15.7,16.1-23.5,24.1c-7.9,8.2-15.8,16.3-23.6,24.4
		c-3.1,3.3-6.3,6.5-9.4,9.8c-0.3,0.3-0.5,0.5-1.1,1c0.6-5.2,1.2-10.1,1.8-15c0.3-1.9,0.4-3.6,0.6-5.4c0.1-0.9,0-1.1-1.1-0.9
		c-9.4,2.6-18.9,5.4-28.3,8c-2.6,0.7-5.1,1.3-7.6,2.1c-0.7,0.2-0.9,0.1-1-0.6c-0.4-3.2-0.9-6.4-1.3-9.5c-0.7-5.2-1.6-10.3-2.3-15.5
		c-0.7-4.6-1.2-9.3-1.9-13.9c-0.7-5.4-1.4-10.8-2.3-16.1c-0.9-5.2-1.4-10.5-2.2-15.8c-1.1-7.1-1.9-14.4-3.1-21.5
		c-1-5.9-1.7-11.7-2.5-17.6c-1.1-7.9-2.2-15.6-3.4-23.4c-0.7-4.6-1.3-9.3-1.9-13.9c-0.7-4.7-1.5-9.3-2-13.9
		c-0.5-4.8-1.3-9.4-1.9-14.1c-0.2-1.6-0.4-3.1-0.7-4.7c-0.1-0.7-0.2-1.1,0.9-0.9c12.2,2.3,24.3,4.6,36.4,6.9
		c0.4,0.1,0.7,0.1,1.1,0.1c1.9-5.6,3.7-11.1,5.6-16.7c0.1-0.4,0.3-0.7,0.1-1.1c-0.9,0.2-1.8-0.2-2.8-0.1c-6.7-0.4-13.3-0.8-20-1.1
		c-5.2-0.2-10.3-0.5-15.5-0.8c-4.5-0.3-9-0.3-13.5-0.6c-1.8-0.2-3.7,0-5.5-0.4c-1.1-0.3-1.1,0-1.1,0.9c0.2,1.5,0.3,3,0.5,4.4
		c0.8,4.1,1.2,8.4,1.9,12.6c0.5,3.4,1,6.7,1.4,10.1c0.5,4.2,1.1,8.4,1.8,12.6c0.7,4.7,1.2,9.3,1.9,13.9c0.7,4.9,1.3,9.8,2,14.6
		c0.5,3.4,0.9,6.9,1.4,10.2c0.6,4.2,1.1,8.4,1.8,12.6c0.5,3.4,0.9,6.9,1.4,10.2c0.6,4.1,1.1,8.3,1.8,12.4c0.5,3.4,0.9,6.9,1.4,10.3
		c0.6,4.1,1.1,8.1,1.8,12.2c0.5,3.4,0.9,6.9,1.4,10.3c0.7,4.2,1.1,8.6,1.9,12.8c0.5,3.4,0.9,6.7,1.4,10.1c0.6,4.1,1.1,8.4,1.8,12.5
		c0.5,3.4,0.9,6.9,1.4,10.2c1,5.9,1.6,11.9,2.6,17.8c0.1,0.8,0.3,1,1.1,1c2.4-0.1,4.7-0.5,7.1-0.8c4.7-0.5,9.3-1.1,13.9-1.6
		c3.9-0.4,7.8-1,11.6-1.5c4-0.5,7.9-0.7,11.8-1.6c5.1-1.1,10.1-2.8,15.1-4.3c10.2-3,20.4-6.2,30.6-9.3c0.8-0.3,1.3-0.6,1.7-1.3
		c1.1-2.1,2.4-4.3,3.5-6.4c3.2-6,6.4-11.9,9.7-17.9c3.5-6.4,7-12.7,10.5-19.1c0.4-0.7,0.4-1.3,0.2-2
		C146.6,153.8,144.9,147.8,143.2,141.9L143.2,141.9z"/>
	<path class="st0" d="M74.3,107.7c0.1,0.4,0.3,0.9,0.2,1.5c0.6,9.4,1.1,18.6,1.7,28c0.7,12.4,1.5,24.9,2.3,37.3
		c0.5,7.6,1,15.3,1.4,22.9c0.1,0.3-0.1,0.5,0.2,0.6c0.3,0.2,0.4-0.1,0.6-0.3c1.3-1.4,2.7-2.7,4.1-4.1l10.6-10.3
		c3.6-3.4,7-7,10.6-10.3c5.1-4.9,10.1-9.8,15.2-14.7c0.5-0.5,0.6-1.1,0.4-1.8c-1.6-5.4-3.1-10.9-4.6-16.2
		c-1.6-5.6-3.2-11.2-4.8-16.9c-1.1-4.4-2.4-8.8-3.5-13.2c-0.3-0.8-0.5-1.3-1.5-1.3c-1.9,0-4-0.1-5.9-0.2c-4.5-0.3-9-0.3-13.5-0.5
		c-3.7-0.2-7.5-0.2-11.2-0.3C75.8,107.9,75,107.9,74.3,107.7L74.3,107.7z"/>
	<path class="st0" d="M54.8,35C59.9,52.9,65,70.9,70.2,88.9c-0.2,0.4-0.6,0.6-1,0.8l-23.1,15.9c-0.4,0.3-0.8,0.4-1.1,1
		c5.7,0.3,11.5,0.5,17.1,0.7c4.1,0.1,8.1,0.4,12.2,0.4c0-0.3,0.1-0.6,0-0.9c-0.9-3.9-1.8-7.8-2.6-11.6c-0.5-2-1.2-4.1-1.3-6.2h0.2
		c0.3-0.1,0.5-0.2,0.7-0.4l17.4-12c6.3-4.2,12.5-8.6,18.8-12.8c0.4-0.4,0.9-0.6,0.8-1.2c-0.4-1.6-0.6-3.2-0.9-4.8
		c-1.1-6.5-2.4-13.1-3.5-19.7c-0.2-0.8-0.5-0.9-1.1-0.9c-2.6-0.1-5.2-0.3-7.8-0.4c-4.6-0.3-9.1-0.5-13.7-0.8
		c-4.2-0.3-8.4-0.5-12.6-0.8c-4.6-0.3-9.2-0.5-13.8-0.8C54.8,34.5,54.7,34.8,54.8,35z"/>
	<path class="st0" d="M333.3,89.6V61.7c-1.1-0.7-2.2-1.3-3.5-1.7s-2.6-0.6-3.9-0.6s-2.6,0.2-3.9,0.6s-2.4,0.9-3.5,1.7v27.9h5.9V78
		h2.8v11.6H333.3z M324.7,73.4V64c0-0.2,0-0.4,0.4-0.4h1.8c0.2,0,0.4,0.2,0.4,0.4h0.2v9.4H324.7z M282.4,89.6V65.5l0.6-0.4h3.1V60
		h-13.6v5.1h3.3l0.6,0.4v24.1H282.4z M240.2,65.1V60h-11.6v29.6h11.6v-5.2h-5.7v-7.2h5.1v-4.6h-5.1v-7.5L240.2,65.1z M454.9,60H449
		v29.6h11.2v-5.2h-5.3L454.9,60z M555.6,72.3V61.8c-1.1-0.7-2.2-1.3-3.5-1.7s-2.6-0.6-3.9-0.6s-2.6,0.2-3.9,0.6s-2.4,0.9-3.5,1.7
		v26.1c1.1,0.7,2.2,1.3,3.5,1.7s2.6,0.6,3.9,0.6s2.6-0.2,3.9-0.6s2.4-0.9,3.5-1.7V77.4h-5.9v8.3c0,0.2,0,0.4-0.4,0.4h-1.8
		c-0.2,0-0.4-0.2-0.4-0.4V64.2c0-0.2,0-0.4,0.4-0.4h1.8c0.2,0,0.4,0.2,0.4,0.4v8.1H555.6z M500.5,59.6c-1.3,0-2.6,0.2-3.9,0.6
		s-2.4,0.9-3.5,1.7V88c1.1,0.7,2.2,1.3,3.5,1.7s2.6,0.6,3.9,0.6s2.6-0.2,3.9-0.6s2.4-0.9,3.5-1.7V61.9c-1.1-0.7-2.2-1.3-3.5-1.7
		S501.8,59.6,500.5,59.6z M502,85.5c0,0.2,0,0.4-0.4,0.4h-1.8c-0.2,0-0.4-0.2-0.4-0.4V64c0-0.2,0-0.4,0.4-0.4h1.8
		c0.2,0,0.4,0.2,0.4,0.4V85.5z M192.1,89.2c1.3-0.4,2.6-0.7,3.5-1.5V77c-0.4-0.4-0.6-0.6-1.1-0.9c-0.4-0.4-0.9-0.6-1.3-0.9
		c0.4-0.2,0.9-0.6,1.3-0.9c0.6-0.4,0.9-0.7,1.1-1.1V61.8c-0.9-0.7-2-1.1-3.5-1.5c-1.5-0.2-2.9-0.4-4.6-0.4h-6.6v29.6h6.6
		C189.1,89.6,190.6,89.6,192.1,89.2z M186.7,64h2.2c0.4,0,0.6,0.2,0.6,0.6h-0.2v7.9c0,0.2-0.2,0.4-0.4,0.4h-2.2L186.7,64z
		 M186.9,77.4h2.2c0.2,0,0.4,0.2,0.4,0.4h0.2v7.3c0,0.4-0.2,0.6-0.6,0.6H187L186.9,77.4z M407.9,60h-6.6v29.6h6.6
		c1.7,0,3.1,0,4.6-0.4c1.3-0.4,2.6-0.7,3.5-1.5V77c-0.2-0.4-0.6-0.6-1.1-0.9c-0.4-0.4-0.9-0.6-1.3-0.9c0.4-0.2,0.9-0.6,1.3-0.9
		c0.6-0.4,0.9-0.7,1.1-1.1V61.8c-0.9-0.7-2-1.1-3.5-1.5C411,60.2,409.6,60,407.9,60z M407.2,64h2.2c0.4,0,0.6,0.2,0.6,0.6h-0.2v7.9
		c0,0.2-0.2,0.4-0.4,0.4h-2.2V64z M410.1,85.2c0,0.4-0.2,0.6-0.6,0.6h-2.2v-8.4h2.2c0.2,0,0.4,0.2,0.4,0.4h0.2V85.2z M248.1,98.6
		h-13.2v66.3h25.4v-11.4h-12.1V98.6L248.1,98.6z M197.4,97.5c-2.8,0-5.5,0.6-8.5,1.3c-2.8,0.7-5.3,2-7.7,3.9v58.6
		c2.2,1.7,4.8,3.1,7.7,3.9c2.8,0.9,5.7,1.3,8.5,1.3s5.5-0.6,8.5-1.3c2.8-0.7,5.3-2,7.7-3.9v-23.7h-13.2v18.6c0,0.6-0.2,0.9-0.9,0.9
		h-4.2c-0.6,0-0.9-0.4-0.9-0.9v-48.3c0-0.6,0.2-0.9,0.9-0.9h4.2c0.6,0,0.9,0.4,0.9,0.9v18.4h13.2v-23.5c-2.2-1.7-4.8-3.1-7.7-3.9
		C203.1,97.8,200.1,97.5,197.4,97.5z M281.2,98.6h13.4v66.3h-13.4V98.6z M488.2,112.3l-8.5-14h-11.2v66.3h13.2v-44.2l6.2,10.1v34.2
		h13.4V98.4h-13.2L488.2,112.3z M539.1,97.3c-2.9,0-5.7,0.6-8.6,1.3s-5.5,2-7.9,3.9v58.6c2.4,1.7,5,3.1,7.9,3.9
		c2.9,0.9,5.9,1.3,8.6,1.3c2.9,0,5.7-0.6,8.6-1.3s5.5-2,7.9-3.9v-33.3h-15.1v6.2l1.8,2.4v19.5c0,0.6-0.2,0.9-0.9,0.9h-4.2
		c-0.6,0-0.9-0.4-0.9-0.9v-48.3c0-0.6,0.2-0.9,0.9-0.9h4.2c0.6,0,0.9,0.4,0.9,0.9v12.1h13.2v-17.3c-2.4-1.7-5-3.1-7.9-3.9
		C544.8,97.6,541.8,97.3,539.1,97.3L539.1,97.3z M433.3,98.6h13.4v66.3h-13.4V98.6z M336.6,117.3l-7.2-18.7H316v66.3h13.4v-39.7
		l7.3,16l7.3-16v39.7h13V98.6h-13.4L336.6,117.3z M393.6,98.6h-14.7v66.3h14.7c3.5,0,7-0.2,10.1-0.9c3.1-0.6,5.7-1.7,7.9-3.1V137
		c-0.6-0.7-1.3-1.5-2.2-2.4c-0.9-0.7-1.8-1.3-2.8-2c0.9-0.7,1.8-1.5,2.8-2.2c0.9-0.7,1.7-1.7,2.2-2.4v-25.4c-2-1.5-4.8-2.6-7.9-3.1
		C400.6,98.9,397.3,98.6,393.6,98.6L393.6,98.6z M392.1,107.4h4.8c0.9,0,1.3,0.4,1.3,1.3v17.8c0,0.6-0.4,0.9-0.9,0.9h-5.1
		L392.1,107.4z M398.2,154.8c0,0.9-0.4,1.3-1.3,1.3h-4.8v-18.6h5.1c0.6,0,0.9,0.4,0.9,0.9L398.2,154.8z"/>
</g>
</svg>
