<svg viewBox="0 0 738 204" xmlns="http://www.w3.org/2000/svg"><g fill="#b3b3b3"><path d="M471.6 0c2.4.5 4.9.9 7.3 1.4 6.3 1.4 12.1 3.7 16.6 8.7 2.9 3.2 5.6 6.4 7.2 10.4.1.3.8.6 1.2.6l6.9.6c3 .3 6.1.7 9.1.7 2.4.1 4.9-.3 7.3-.5 4.8-.4 9.7-.6 13.4 3.2 2.1 2.2 3.5 5 5.2 7.5 4.1-.9 8.5-2.2 13-2.8 8.6-1.1 17.1-1.1 25.2 2.6 5.1 2.3 9.3 5.7 12.1 10.6.5 1 1.1 1.1 2.3 1 3.8-.2 7.7-.1 11.5 0 3.2.1 6.3.4 9.5.5.5 0 1.1-.1 1.4-.4 6-4.8 16.3-3.2 21.4 1.5.2.1.3.3.5.3 1.8-2 3.5-3.9 5.3-6-.4-.5-1.1-1.3-1.7-2-6.9-7.2-2.4-16.6 3.7-19.5 4.2-2 8.5-2.5 13-1.4 5.8 1.4 8.8 5.6 10.8 10.9 1.4 3.8 1.8 7.7 1.8 11.7 0 .6.3 1.6.7 1.8 5.7 3.1 7.8 8.5 9.1 14.3.2.8.3 1.5.5 2.3 18.8-4.3 39.3 10.3 42.9 28.9.4 2.1 1 3.9 2.3 5.7 4.2 5.8 4.2 12.7.4 18.5-3.6 5.5-10.7 8.5-17.4 7.2-.8-.1-1.7 0-2.6 0 1.4 2.8 2.8 5.4 4 8.1 3.9 9.3 5 18.9.8 28.4-4.3 9.5-11.8 15.1-22 16.9-15 2.7-28.1-1.2-39.6-11.1-3.7-3.2-6.9-6.6-8.7-11.1-.4-.9-1.1-1.4-2-.9-4.9 2.9-10 2.6-15.2 1.2-3.8-1-7.4-.6-11.1-.1-8.7 1.1-17.3 2.4-26.1 1.2-7.4-1-13.5-2.1-20.4-8.2-.7.5-1.4.9-2 1.4-2.6 1.8-5.6 2.1-8.6 2.4-4.6.4-9.3.8-13.9 1.1-4.9.3-9.6-.5-13.6-3.8-1.7-1.4-2.7-3.3-3.5-5.3-1.1-2.5-2.5-4.9-3.9-7.3-.3-.5-1.3-.5-2-.7-1.5-.5-2.9-1-4.4-1.3-1.4-.3-2.9-.7-4.4-.7-4.8.1-9.5.6-14.3.5-5.2 0-10.4-.9-15.4-2.6-5.7-1.9-8.8-4.5-14.1-11.5-.7 1.5-1.1 3.2-2 4.5-2.9 4.7-7.1 7.4-12.7 7.5-6.1.1-12.2.3-18.4.3-6.8 0-13.3-4.4-15.6-10.4-2.6-6.7-1.1-14.4 4.3-19 1.5-1.3 1.1-2.5 1.2-3.9v-2.1c-15.9 13.8-32.4 15-49.7 3.7-.2 2.6-.2 5.3-.5 8-.8 7-4.2 12.6-9.4 17.2-5.6 5-12.5 7.4-19.7 9-7.5 1.6-15 2.2-22.7 1.4-9.7-1-18.6-4.1-25.7-11.2-.5-.6-1.4-.8-2.2-1.1-6.6-1.9-10.7-6.1-12.3-12.8-.2-.9-.2-1.8-.3-2.8-.9-.1-1.5-.2-1.7 1.1-.9 5.9-4.3 10.1-9.6 12.8-11 5.7-22.7 9.6-34.8 12.2-3.8.8-7.6 1.3-11.5 1.4-8.2.2-14-3.7-18.2-10.7-3.6-6-4.9-12.7-6.3-19.4-1.9-8.4-3-16.8-2.9-25.4 0-.3 0-.7-.1-1-5.9-.5-10.5 2.8-10.7 9.1-.2 5.6 1.5 10.9 2.9 16.2.8 3 1.5 5.9 2.3 8.9.1.5.5 1 .8 1.4 8 7.9 7.4 18.6-1.4 25.5-.8.6-1 1.1-.8 2.1 1 6.8-1.3 12.3-6.5 16.7-3.3 2.8-6.2 6-9.2 9-3.4 3.3-7.5 4.8-12.2 4.6-5.2-.3-9.5-2.4-12.5-6.8-2.3-3.3-3.2-6.9-2.6-11 .1-.9-.2-2.1-.7-3-2.9-4.8-6-9.5-8.9-14.3-.5-.8-1-1.3-2-1.1-3.2.6-6.4 1.2-9.5 1.7.8 2.4 1.9 4.6 2.4 7 1.9 10.3-4.7 18.9-15.2 19.8-6.5.5-13 .7-19.5.9-4.3.1-7.7-1.8-10-5.4-.8-1.2-1.6-2.3-2.4-3.5-2.4 3.3-4.7 6.5-7 9.6C72 169 65 174.5 55.9 177c-15.1 4.2-28 .4-38.7-11-7-7.5-10.6-16.6-12.3-26.6-2-12-1.2-24 1-35.9C9 86.6 13.6 70.1 20.6 54.4c4.4-9.8 10-18.9 18-26.2 5.2-4.8 11-8.5 18.2-9.5 10.9-1.6 19.5 2.3 25.6 11.4 3.9 5.9 6.1 12.5 7.1 19.5.1.7.7 1.6 1.3 2 9.1 6 9.2 18.7.2 24.8-4.5 3.1-9.7 4.2-14.9 4.7-3.3.4-6.8.5-10.1 0-5.5-.8-9.4-4.1-11.7-9.1-.3-.6-.6-1.2-1-2.2-1.3 3.3-2.6 6.2-3.7 9.1-4.3 11.4-7.4 23.1-9.1 35.1-1 7.1-1.8 14.2.3 21.3.7 2.3 2 4.4 3.2 6.5.6 1 1.4 1.5 2.4.5 1.1-1.1 2.4-2.1 3.2-3.4 3.9-6.3 7.6-12.7 11.3-19.2 1.6-2.8 2.8-5.9 4.5-8.8 1.1-2 1.1-4 .9-6.2-.8-6.1.8-11.6 5.9-15.4 4.4-3.2 9.4-3.1 14.3-1.4 6.6 2.3 12.5 5.6 17.3 11.3 1-3.8 1.9-7.4 2.9-10.9 3.1-10.9 6.2-21.9 9.2-32.8 1.9-6.9 6.5-10.5 13.3-11.7 6.6-1.2 13.4 1.7 16.9 7.6 1.7 2.9 3 6.2 4.5 9.4 2.4-3.1 5.6-5.1 9.5-5.8s7.5 0 10.5 2.7c4.9-8.1 11.5-13.2 20.9-14.3-.4-2-1-4-1.2-6.1-.9-8.5 6.1-16.6 14.7-17.4 3.6-.3 7.2-1.1 10.7-1.8 7.7-1.5 16 3.2 18.7 10.6 2.3 6.2.6 11.5-3.1 16.6-.4.5-.7 1.3-.7 2 .4 5.5.8 11 1.4 16.4 1 7.8 2.1 15.5 3.3 23.2.5 3.4 1.3 6.8 1.9 10.4 3.1-1.4 5.9-2.6 8.7-3.9.4-.2.6-.9.8-1.4.8-2.6 1.9-4.9 3.8-7 .3-.4.5-1.3.3-1.8-2.3-5.5-2.9-11.2-2.9-17.1 0-7.1 1.9-13.8 4.9-20.1 4.2-9.2 9.9-17.2 18.3-23s17.7-8.3 27.9-6.7c5.4.9 9.6 3.9 13 8.1.2.3.5.6.8.8 1.5-1.4 3-2.8 4.5-4 6.2-4.9 13.4-6.7 21.2-6.1 11.7.8 21 6.2 28.5 15 1.4 1.6 2.5 3.5 3.5 5.4.8 1.4 1.6 2.7 3.1 3.4.8.4 1.4 1.1 2.1 1.7 12.3-11 26.2-13.3 41.6-7-.3-1.2-.6-2.2-.8-3.3-1.2-6.9 1.4-12.2 6.6-16.5 6.6-5.5 14.4-8.4 22.6-10.7C452 1.3 458.3.4 464.8.2c.4 0 .8-.1 1.2-.2h5.6zM16.8 119.5c.4 4.3.7 8.6 1.3 12.8 1 6.7 3.1 13.1 7.3 18.6 7.6 10.1 17.6 13.4 29 10.7 7.6-1.8 13.3-6.4 17.9-12.7 7.9-10.9 14-22.7 19.8-34.7.7-1.5 1.5-2.6 3-3.5 4-2.4 4.7-5.9 1.8-9.4-3.4-4.1-8.1-6.4-13.2-7.5-2.8-.6-4.2.9-4.1 3.9.1 1.9.6 3.8.8 5.7.1.8.3 1.8 0 2.4-5.3 11.3-10.6 22.6-17.7 33-2.5 3.7-5.2 7.3-9.4 9.3-4.9 2.4-9.4 2.1-13.5-1.5-3.6-3.1-5.9-7.1-7.3-11.6-2.7-8.8-2.1-17.7-1-26.6 1.2-9.2 3.3-18.3 6.1-27.2 3.6-11.7 7.8-23.2 15-33.4 2.3-3.2 4.7-6.4 8-8.7 2.1-1.5 2.6-1.5 3.5 1 .8 2 1.5 4 1.9 6.1.9 3.9 2.1 7.6.1 11.8-1.4 2.9.7 7.7 5.6 7.4 2.5-.2 5-.3 7.4-.8 2.7-.6 5.3-1.5 7.8-2.6 2.4-1.1 2.6-3.5.5-5.2-.9-.8-2.1-1.3-3.2-1.8-1.7-.8-2.9-1.9-3.1-3.9-.1-1.6-.3-3.2-.6-4.7-1-5.5-2.3-10.9-5.6-15.5-2.9-4.1-6.8-6.5-12.1-6.4s-9.5 2.6-13.3 6c-7.1 6.3-12.1 14.1-16.1 22.7-5.2 11.4-9 23.3-12 35.5-2.3 10.1-4.3 20.3-4.6 30.8zm438.5-18.1c-.1-3.3-.3-6.2-.4-9.1-.1-5.9-.3-11.8-.3-17.7 0-1.2-.3-2.4 1.1-3.2 9.2-5.4 17.7-11.8 25.5-18.9 4.7-4.3 8.8-8.9 11.9-14.5 2.5-4.6 3.6-9.5 3-14.7-.8-5.9-4.4-9.8-9.5-12.3-4.8-2.4-9.9-3-15.3-2.8-7.4.2-14.6 1.1-21.7 3.2-5.9 1.8-11.6 4-16.6 7.8-2.2 1.7-3.2 4.6-2.3 7 .8 2.2 3.3 3.9 5.9 3.6 1.5-.1 3-.8 4.5-1.3.1 1.6.3 3.3.4 5 .2 10.3.3 20.7.4 31 0 .7-.3 1.5-.8 2.1-1.9 2.3-2.3 5.1-.5 6.9 1.7 1.6 1.6 3.3 1.6 5.2l.3 13.1v9.6H441c-3 .3-5.2 2.4-5.3 5.2-.2 3.8 2.5 6.5 6.5 6.4 3.3 0 6.6-.2 9.9-.3 1.9 0 3.7.3 5.6.3 3 0 5.9-2.4 6.1-5.1.3-3.4-1.4-5.8-4.7-6.4-1.2-.3-2.5-.1-3.8-.1zm-344.6 19.8c.1 0 .1.1.2.1-1.1 3.5-2.2 7-3.2 10.6-.4 1.5-1 1.9-2.6 1.9s-3.4.1-4.7.8c-2.2 1.1-2.9 4-2.2 6.4.7 2.1 2.8 3.4 5.3 3.3 5-.3 10.1-.6 15.1-1 2.9-.2 4.8-3 4.4-5.9-.5-2.8-2.4-3.9-4.9-4.5 1.3-4.5 2.7-8.9 4.1-13.4.2-.5.9-1 1.4-1.1 3.6-.8 7.2-1.7 10.9-2.3 4.4-.7 8.8-1.2 13.2-1.9 1.1-.2 1.7.2 2.1 1.3 1 2.3 2.1 4.5 3.3 6.7 3.8 6.9 7.9 13.6 13.4 19.3-.2.3-.3.4-.5.6-2.3 2-2.7 5.5-1 7.7s5.3 2.5 7.7.4c3.4-3.1 6.9-6.1 10.4-9 2.4-2 2.8-5.3.8-7.8-1.6-2-5.3-2.3-7.5-.6-.7.6-1.4 1.1-2.1 1.7-.3-.3-.6-.5-.8-.8-6.2-6.7-10.8-14.3-14.5-22.6-6.1-13.6-10.1-27.9-14-42.2-1.4-5-3-9.9-4.8-14.7-.7-2.1-2.4-3.9-4.7-4-2.6-.1-4.3 1.6-5.2 4.1-.7 1.8-1.5 3.5-2 5.4-4.2 15.5-8.5 31-12.6 46.6-.6 2.4-1.4 4-4.2 4.1-1 0-1.3 0-1.8-.8-1.3-2.3-3.7-3.3-6.1-2.6-2.1.6-3.7 2.8-3.6 5.3.1 2.7.4 5.4.6 8.1.2 2.3 1.2 3.9 3.4 4.4 2.3.5 4 .4 5.5-1.8.5-.6.8-1.2 1.2-1.8zM366 43c-.8-1.9-1.6-3.8-2.5-5.6-4.8-9.4-17.1-16.8-29-14.5-5.4 1.1-9.7 3.9-12.1 9.1-2.3 5.2-2.4 10.4-.8 15.8 2 6.7 6.2 11.9 11 16.7 6.6 6.7 13.5 13.2 20.1 19.9 1.9 1.9 3.5 4.3 4.8 6.7 2.7 5.3 1.1 9.6-4.4 11.8-8.9 3.5-18.1 4.2-27.4 1.7-2.8-.8-5.3-2.4-6.7-5.3 2.1-1 3.5-2.5 3.8-4.8.4-4.1-4-7.2-7.9-5.6-4 1.7-7.9 3.5-11.9 5.3-2.1 1-3 2.9-2.8 5.4.2 1.9 1.9 4 3.9 4.3 1.4.2 2.9 0 4.6 0 1.4 2.7 3.6 5.2 6.5 7.1 5.5 3.7 11.7 4.9 18.1 5.2 8.1.3 16-.5 23.7-3.4 6-2.3 10.8-5.8 12.6-12.3 1.7-6 .4-11.6-3-16.6-2.7-4-5.8-7.7-9.1-11.2-5.3-5.6-11-10.7-16.4-16.2-3.5-3.6-6.8-7.4-8.2-12.3-.5-1.9-1-3.9-.8-5.8.6-4.7 3.6-6.5 8.6-5.9 6.9.9 13 6.7 13.9 13.1-.7.3-1.3.6-2 .8-2.6.6-4.2 4.1-3.4 6.3 1 2.8 3.8 4.5 6.7 3.7 4.1-1 8.3-2.1 12.4-3.2 2.4-.7 3.9-2.6 4-4.9 0-3-2.3-5.1-6.3-5.3zm354.5 49.2c.3-.4.5-.7.7-1.1.3-.5.8-.9.9-1.5.1-.8.1-1.7-.1-2.5-1.7-10.8-11.4-20.4-21.6-22.1-8.6-1.4-16.6 2.7-20 10.7-3.3 7.6-2.6 15.3.7 22.5 3.3 7.3 7.4 14.3 11.1 21.5 2.5 4.8 5.2 9.5 6.6 14.8 1.6 6.4-1.2 11-7.5 11.8-4.9.6-9.6-.3-13.9-2.8-3.2-1.9-6.1-4.3-7-8.3 3.7-.6 7.3-1.2 10.9-1.8 2.7-.4 4.6-2.4 4.8-4.7.1-2.7-1.7-5.1-4.2-5.9-2.4-.8-4.6.3-6.8.7-4.7 1-9.4 2.3-13.6 4.9-4.4 2.8-5.6 6.9-2.8 11.3 1.6 2.6 3.6 5.1 5.8 7.3 8.9 9 19.7 11.8 31.8 9.1 8.6-1.9 14-9 14-17.8 0-6.6-2.5-12.4-5.5-18.1-4.5-8.5-9.1-16.9-13.4-25.4-2.2-4.3-3.3-8.9-2-13.7 1.2-4.2 3.9-7.4 8.7-6.1 7.1 2 12.8 9.9 11.2 17h-1.8c-3 0-5.3 1.9-5.5 4.4-.4 4 1.6 5.7 4.8 6.1 4.6.5 9.3.5 13.9.4 3 0 5.7-3.7 4.5-6.8-.9-2-2.4-3.2-4.7-3.9zM561 120.6c-.3-2.5-.7-5-1-7.5l-1.8-17.4c0-.5.2-1.2.6-1.5 3.5-2.8 7.1-5.4 10.5-8.2 6.1-5.1 11.7-10.6 16.3-17.1 3.4-4.8 6.1-10 6.2-16.2.1-5.3-1.7-9.8-5.9-13-3.4-2.6-7.4-3.8-11.5-3.8-3 0-6 .6-8.9.9-7.1.7-13.8 2.5-20.4 5.3-4.5 1.9-8.9 4.2-12.4 7.7-2.3 2.2-2.5 5.2-.7 7.3 1.9 2.2 5.2 2.6 7.7.9.5-.3.9-.7 1.6-1.2.2 1.2.3 2.2.4 3.2.7 5.2 1.3 10.3 1.9 15.5.6 4.6 1.1 9.2 1.6 13.8.1.7 0 1.5-.4 2.1-1.8 2.8-1.6 4.8 1 7 .4.3.8.7.8 1.1.4 3.2.7 6.4 1.1 9.6.5 3.9 1 7.7 1.6 11.6.2 1.2.2 1.9-1.4 2-1.9.1-3.7 1.8-4.2 3.6-.6 2 .2 4.2 1.8 5.5 1.8 1.4 3.8 1.2 5.8 1 3.9-.4 7.7-1 11.6-1.2 2.2-.1 3.9-.8 5.3-2.4 2.5-2.8 1.3-7-2.3-7.9-1.4-.6-3-.5-4.9-.7zm37.5-30.3c0-.2-.1-.5 0-.7 3.3-9.3 6.5-18.7 9.9-28 .2-.4 1.1-.9 1.7-.9 4.6.2 9.3.3 13.9.7 1.6.1 3.2 0 4.3 2.1 1.2 2.2 3.8 2.8 6.3 2.3 2.3-.5 3.9-2 4.2-4.5.3-2.6.8-5.1.9-7.7.2-3.3-1.2-5.2-4.3-6.2-2.5-.8-4.9.2-6.7 2.7-.3.4-1 .7-1.5.7-4.3-.2-8.6-.4-12.9-.7-3.1-.2-6.1-.4-9.1-.6-2.4-.2-4.9 1.2-5.8 3.6-1.1 2.8-2.3 5.5-3.3 8.3-6.7 18.7-13.6 37.3-16.2 57.2-.9 6.5.4 11.2 7.1 13.8 2.7 1.1 5.7 1.5 8.6 2.1 6.8 1.5 13.5.7 20.2-.2 3.3-.5 6.6-1.2 9.9-1.1 3.9.1 7.7.8 11.6 1.5 3.3.6 4.9-.3 5.1-3.7.2-2.9.1-5.8 0-8.6-.1-2.5-2.3-4.5-4.9-4.9-2.4-.3-5.4 1-6.1 3.1-.6 1.8-1.8 1.8-3.2 2-4.8.6-9.5 1.3-14.3 1.8-4.6.4-9.1.8-13.7.9-2.5 0-5.1-.7-7.6-1.3-.5-.1-1.3-.9-1.3-1.4-.2-1.5-.2-3.1.1-4.6 1.1-5.5 2.5-11 3.6-16.5.2-1.2.8-1.4 1.8-1.4 4.7 0 9.3-.2 14-.3 2.1-.1 3.9-.2 5.8 1.5 2 1.9 4.7 1.4 6.9 0 1.9-1.2 2.5-3.1 2.1-5.5-.2-1.2.1-2.5.2-3.7.1-.8.4-1.7.2-2.5-.4-2.3-2.5-4-5-4.3-2.4-.2-5.1 1.3-6.1 3.3-.3.5-.9 1.1-1.4 1.2-2 .3-3.9.4-5.9.5h-9.1zm-98-22.5c3-9.6 5.9-18.6 8.7-27.6.5-1.6 1.1-2.4 3.1-2.1 4 .4 8 .3 12.1.5 1.7.1 3.3.1 4.3 2.1 1.1 2.1 4.2 2.9 6.3 2.2 2.2-.8 3.6-3 3.4-5.5-.1-1.2-.2-2.4-.3-3.5-.7-5.1-2.6-6.5-7.8-5.9-3.1.3-6.3.3-9.4.4-1.3 0-2.6-.3-3.9-.4-3.2-.2-6.4-.4-9.7-.6-2.3-.1-4.7-.4-6.2 1.7-.7 1-1 2.3-1.5 3.5-5.5 14.8-9.8 29.9-13.2 45.3-1.6 7.1-2.9 14.3-2.9 21.6 0 4.7 2.1 8 6.1 10.1 3.4 1.8 7.2 2.5 11 2.8 7.3.6 14.5.3 21.7-.7 1.3-.2 2.6-.4 3.7 1.1 1.5 1.9 4.7 2.1 6.9 1 2-1.1 2.9-3.5 2.4-6-.4-2.2-.9-4.3-1.3-6.5-.4-2.5-2.2-4.4-4.4-4.6-3.1-.3-5.2 1-6.2 3.5-.2.5-1 1.1-1.7 1.2-2.7.4-5.5.8-8.2.9-5.4.3-10.9.5-16.2-.9-3-.8-3.2-1.1-2.8-4.3.7-4.5 1.3-9 2-13.5.3-2.1.9-4.1 1.4-6.1 2.6 0 5 .1 7.3 0 2.4-.1 4.7-.4 7.1-.6 2.1-.1 4.1-.4 5.9 1.5 1.7 1.6 4.2 1.4 6.3.1 1.8-1.2 2.5-3 2.1-5.3-.2-1.2-.1-2.6.1-3.9.7-3.3-.6-5.5-3.8-6.5-3-.9-5.5.3-6.7 3.3-.1.3-.5.8-.8.8-4.7.3-9.5.6-14.9.9zM222.3 35.9c1.5-1 2.8-1.6 3.7-2.5 1.6-1.7 1.8-4.3.8-6-1.3-2.2-3.8-3.2-6.4-2.8-3.4.6-6.9 1.2-10.3 1.7-3.2.5-5.4 2.8-5.2 5.6.1 2.4 1.7 5.2 5.3 5.3.9 0 1.1.4 1.2 1.2.2 4.9.4 9.7.7 14.6.4 4.8.8 9.6 1.4 14.3.7 5.5 1.8 11 2.6 16.5 1.2 8.2 2.7 16.3 5.5 24.1 1.6 4.4 4.3 8 9.3 8.6 3.8.4 7.7.3 11.4-.8 8.9-2.5 17.1-6.6 25.1-11.1.6-.4 1.6-.5 2.3-.3 2.6.4 4.5-.4 6.1-2.5 1.1-1.5 1.2-4 .2-5.6-1.4-2.3-2.9-4.6-4.4-6.8-1.6-2.5-4.2-2.8-6.8-2.4-2.3.4-3.8 1.9-4.1 4.2-.2 1.3.3 2.7.5 4.1-.5.3-1.1.7-1.8 1.1-7.2 4.1-14.6 7.9-22.8 9.6-2.4.5-3.4.3-4.1-2-1.4-4.4-2.8-8.9-3.7-13.5-1.2-5.8-2-11.6-2.9-17.5-.7-4.8-1.3-9.6-1.9-14.4-.3-2.9-.6-5.7-.8-8.6-.4-4.9-.7-9.7-.9-14.1zm91.8 13.3c-.2-1.6-.3-3.1-.5-4.7-.4-5.4-2.2-10.4-5.2-15-2.9-4.5-6.9-7-12.2-6.9-3.1.1-6.2.3-9 1.9-3 1.8-6.3 3.2-9 5.3-7.1 5.7-11.5 13.5-14.3 22-2.5 7.5-2.7 15.1.1 22.7 3.2 8.6 15.7 17 25.4 13.2 4.6-1.8 9-3.7 12.3-7.4 8.1-8.8 12.1-19.2 12.4-31.1zM172.6 68.6c-1.7-2.8-4.1-4.2-7.4-3.9-3.4.3-5.9 3.7-4.9 6.9.9 2.6 2.2 5.1 3.1 7.7 4.4 12.4 8.8 24.9 13.2 37.4.4 1.2-.2 1.7-.9 2.2-1.8 1.5-1.9 3.4-1.5 5.4s1.7 3.4 3.7 3.8c2.3.5 4.5 0 6.7-1.2 1.5-.9 3.1-1.7 4.8-2 3.1-.6 4.7-3.5 4.9-5.4.2-2.8-1.2-4.5-4.3-5.7-.5-.2-1-.8-1.1-1.4-.6-2.2-.9-4.5-1.6-6.7-2.1-7.2-4.4-14.4-6.4-21.7-.6-2.2-1-4.6-.9-6.9.2-3.3 2.4-5.7 4.8-7.7 3-2.6 6.4-4.2 10.3-4.5 1-.1 2.6.3 3 1 1.2 1.8 2.6 2.7 4.6 2.6 2.3-.2 4.2-1.2 4.9-3.6.4-1.6.8-3.3.7-5-.4-4.8-2.1-8.3-7.1-9.2-2.1-.4-4.6-.3-6.7.4-9.7 2.8-16.8 8.8-21.9 17.5zm206.8-5.7c-.5 13.3 10.8 25.4 25.1 25.4s25.4-11.2 25.4-25.2c0-14.2-11.1-25.4-25.4-25.4-14.7-.1-25.5 12.2-25.1 25.2zm292.9 53.7c-4.6-8.8-8.5-17.5-8.2-27.5-.4 0-.7-.1-1 0-4 1-8.1 1.6-12.3 1-6.4-1-12.4-2.7-16.7-8.1-.3-.3-.8-.6-1.2-.6-2.1-.1-4.3 0-6.6 0 .6.5 1 .8 1.4 1.1 4.7 4.1 7.2 8.9 6.1 15.3-.2 1.3-.2 2.7-.4 4-.4 2.3-.8 4.6-1.4 6.9-.2.8-.8 1.6-1.2 2.5 10-.4 17.3 3.5 21.4 12.8 5.9-4 12.8-5.8 20.1-7.4zm-25.8-45.7c2 3 6.7 4.6 10.6 3.7 6.5-1.5 11.4-5.3 15.4-10.4 2.7-3.5 4.3-7.4 3.8-11.9-.4-3.6-2.7-6.1-5.8-6 .3 3.4-2 5.4-4 7.6-.1-.3 0-.6.1-.9.5-2.3.8-4.6-.6-6.7-.4-.5-1.3-1.2-1.8-1.1-1.6.2-3.1.8-4.8 1.3.4-.9.8-2 1.3-3-3.7 1.5-5.2 4.8-4.9 8.8.3 3 .3 6.2-.4 9.1-1 4.6-4.8 7.2-8.9 9.5zm-177.8 29.6c1.4-8.1 2.9-16.4 4.4-24.7-3.4 2.2-6.9 4.4-10.3 6.7-.3.2-.4.8-.4 1.2l.3 11.2c0 .4.3.9.6 1.1 1.8 1.6 3.7 3.1 5.4 4.5zm198.4-59.7c0-1.9.2-3.8 0-5.6-.3-2.9-.6-5.8-1.4-8.6-1-3.6-3.6-4.6-7.1-3.2-1.8.7-2.1 1.6-.7 2.9 4 4.2 7.2 8.9 9.2 14.5z"/><path d="M178.8 204c-.5-1-1.2-1.9-1.5-2.9-1.5-5.8-2.9-11.6-4.4-17.4-.4-1.5-.4-2.8 1-3.7 1.2-.8 3.1-.4 4.4.8.7.6 1.3 1.3 1.9 1.9s1.2 1.3 1.9 2c.9-2.4 1.7-4.5 2.5-6.7.5-1.2 1.1-2.3 2.7-2.2s2.6 1.1 2.9 2.5c1.8 6.3 3.5 12.7 5.2 19 .5 1.8-.3 3-1.8 3.4-1.7.4-2.8-.2-3.4-2.2-1-3.5-2-7-2.9-10.2-.8 1.3-1.3 3.1-2.4 4.1-1.8 1.5-2.9-.9-4.6-1.9.4 1.7.7 3.1 1 4.4.4 1.7.7 3.4 1.3 5.1.6 1.8.1 3.1-1.4 4.1-.8-.1-1.6-.1-2.4-.1zm346.4-32.1c-6 .2-9.5-2.7-9.6-7.5-.1-3.7 2.6-6.9 6.1-7.8 2.5-.6 4.9-.5 6.9 1.2.6.5.9 1.6 1.3 2.4.2.5.3 1.1.4 1.6.3 1.3 1.1 2.6.8 3.7-1.1 4.9-.7 10.1-2.9 14.7-.1.3-.2.5-.3.8-2.8 5.9-9.6 6.6-13.4 1.2-1.1-1.5-1.7-3.4-2.3-5.2-.5-1.4.3-2.8 1.6-3.3 1.4-.5 2.7.1 3.3 1.6.5 1.1.7 2.3 1.5 3.2.6.8 1.8 1.8 2.6 1.8.8-.1 1.8-1.3 2.2-2.2.7-1.9 1.1-4 1.8-6.2zm-1.7-4.9c.8-.6 2.1-1.1 2.3-1.9.4-1.5-1-3.6-2-3.6-1.5 0-2.7 1.2-2.7 2.7-.1 1.3.9 2.4 2.4 2.8zm-76.8-4.1c-.3 2.6-.5 5.2-.8 7.8 0 .5-.1.9-.2 1.3-.4 1.6-1.3 2.2-3 2-1.5-.2-2.3-1.1-2.1-2.6.4-4.6.8-9.2 1.2-13.7.2-2.6.4-5.2.8-7.8.3-2 2.4-2.8 4-1.7.5.3.9.9 1.1 1.4 1.4 3.6 2.8 7.2 4.4 10.8.4-2.1.7-4.2 1.1-6.2.1-.7.2-1.5.6-2.1.7-1.4 1.9-1.7 3.3-1.3 1.5.4 1.8 1.4 1.6 2.8-.8 4.7-1.5 9.4-2.3 14.1-.2 1.2-.3 2.5-.6 3.7-.4 1.9-1.7 3-3.5 2.6-.7-.2-1.6-.8-1.8-1.5-1.2-3.2-2.3-6.4-3.4-9.6-.1-.1-.3-.1-.4 0zm-168.6 6.9c.4 2.7.9 5.5 1.3 8.2.4 2.3-.8 3.6-2.9 3.5-1.5-.1-2.2-1-2.4-2.4-1.1-6.8-2.2-13.6-3.4-20.5-.2-1.5.5-2.7 1.8-3.1 1.5-.4 2.6.2 3.4 1.5 2 3 4.2 6 6.6 8.8-.2-2.2-.4-4.5-.6-6.7-.2-1.5 0-2.7 1.5-3.4 1.9-.9 3.6 0 3.8 2.1.5 5.9 1 11.8 1.4 17.6.2 2-.5 2.9-2.1 3.4-1.5.4-2-.3-3.1-2.1-1.5-2.5-3.4-4.8-5.1-7.1 0 .1-.1.1-.2.2zm142.2 3.9c-2.5 0-4.6-1-6.1-2.9-1.3-1.7-2.4-3.7-3.3-5.7-.8-1.7-.3-2.9 1.2-3.5s2.9 0 3.6 1.6c.5 1.1 1 2.3 1.6 3.4.7 1.1 1.6 1.9 3.1 1.8 1.2-.1 1.4-.8 1-1.6s-1.1-1.4-1.8-2c-1.8-1.6-3.9-3-5.6-4.8-2.9-3-3.5-6.8-1.9-10.2 2.5-5.1 9-5.6 12.2-1 1.8 2.6 2.2 5.7 2.3 8.7 0 1.4-1 2.1-2.4 2.2-1.5 0-2.7-1.1-2.9-2.6-.1-1.1-.1-2.2-.4-3.2-.3-.9-.8-1.8-1.4-2.4-1.2-1.1-2.4-.5-2.7 1.1-.2 1.7.3 3.2 1.5 4.3 1.4 1.3 3 2.4 4.5 3.6 1.9 1.5 3.6 3.1 3.9 5.7.7 4.1-2.3 7.5-6.4 7.5zm125 1.7c3.8 4.9 2.2 10.5-1.3 12.9-3.4 2.4-8.1 1.7-10.5-1.5-3-3.9-1.9-8.1 3.2-12.3-2.2-2.6-2.7-5.5-1.3-8.7 1.2-2.6 3.4-4.1 6.2-4.4 3.4-.4 5.5 1.5 6 5.4.5 3.2-.2 6-2.3 8.6zm-2.7 5.9c-.7-.9-1.2-2.1-2.1-2.5-1-.4-3.4 2-3.4 3.2s1.1 2.3 2.4 2.4c1.4.1 2.7-1.3 3.1-3.1zm-.5-14.4c-2.5 1-2.8 2.8-.7 4.6 1.2-1.3 1.6-2.8.7-4.6zm-187 6.9c-3.2 0-5.5-1.7-7.3-4.1-.8-1.1-1.5-2.4-2.1-3.7-.8-1.6-.4-2.9.9-3.5 1.5-.7 3-.3 3.8 1.2.6 1 1 2.1 1.7 2.9s1.6 1.4 2.6 1.8c.5.2 1.3-.2 1.8-.6.2-.1 0-1.1-.4-1.5-.6-.7-1.4-1.3-2.2-1.9-1.9-1.4-3.9-2.5-5.7-4.1-3.3-3-4.1-7.2-2.3-10.6 2-3.8 6.6-4.9 10-2.4s4.3 6.2 4.6 10c.1 1.4-1.1 2.1-2.4 2.2-1.4.1-2.6-.9-3-2.3-.3-1.2-.4-2.4-.8-3.5-.6-1.7-2.1-2.7-3.1-2.3-1.1.4-1.5 2.5-.3 3.9 1.1 1.4 2.6 2.6 4.1 3.7 1.4 1.1 3.1 1.9 4.5 3 2.3 1.9 3 4.8 2 7.4-.8 2.8-3.4 4.5-6.4 4.4zm42.9-5.2c0 1.7-1.1 3-2.5 3.1-1.6.1-2.3-1-2.7-2.3-.2-.5-.2-1.1-.3-1.7-.2-1-.3-2.5-.8-2.8-1.2-.5-2.8-.5-4.2-.5-.3 0-.7.6-.9 1-.5 1.4-.9 2.8-1.4 4.2-.6 1.6-2 2.2-3.6 1.6-1.5-.6-2-1.6-1.4-3.4 2.2-6.7 4.4-13.3 6.6-20 .4-1.4 1.2-2.3 2.6-2.6 1.4-.2 2.1.7 3 1.5 1.3 1.3 1.5 3 1.8 4.6l3.6 15.9c.1.6.2 1.1.2 1.4zm-126 10.6c0 1.8-.6 2.8-1.8 3.3-1.2.4-2.1-.2-2.8-1.1-.4-.5-.6-1.1-.8-1.7-1-3.6-1.8-4.1-5.4-3.2-.4.1-.9.8-1.1 1.2-.3 1.4-.4 2.8-.7 4.2-.3 1.6-1.7 2.5-3.3 2.2-1.6-.4-2.2-1.3-1.9-3.2 1.1-7 2.3-14.1 3.4-21.1.2-1.2.7-2.1 1.9-2.5s2 .2 3 .9c1.7 1.2 2.3 2.9 3 4.6l6 15c.3.5.4 1.2.5 1.4zm-9-8.4c-.4-.9-.7-1.7-1-2.4-.1 0-.3.1-.4.1-.1.8-.2 1.6-.3 2.5h.8s.4-.1.9-.2zm72.2-15.1c.2 2 .3 3.9.5 5.8 2.3 0 5.3-1.2 5.6 2.2.3 3.5-3 2.7-5.2 3.3.1 1.1.2 2 .3 3h4.5s2.5.7 2.6 2.3c.2 1.5-.8 2.9-2.2 3-2.5.2-5 .4-7.5.5-1.7.1-2.7-.8-2.9-2.5l-1.8-21.9c-.1-1.3.2-2.2 1.5-2.8 1.4-.6 2.5-.2 3.5.9.3.4 1 .7 1.6.6 1.1 0 2.1-.3 3.2-.4 1.6-.1 2.7.7 2.9 2.2.2 1.7-.7 2.9-2.3 3.2-1.3.3-2.7.4-4.3.6zm148.2 9.6c4.2.5 5.2 1.1 5.1 3.2-.1 1.9-1.1 2.3-5.8 2.2-.1 1-.3 2.1-.5 3.3 1.5.2 2.9.5 4.4.7s2.2 1 2.2 2.5c-.1 1.5-1.1 2.7-2.4 2.5-2.8-.3-5.6-.8-8.4-1.3-1.4-.3-1.8-1.4-1.6-2.8.6-4.7 1.3-9.4 1.9-14.2.4-2.6.8-5.1 1.2-7.7.2-1.3.9-2.1 2.2-2.2 1.3-.2 2.5.3 2.9 1.6.3.9.7 1.1 1.6 1.1 1 0 1.9.2 2.9.3 1.9.2 2.7 1.1 2.5 2.9-.2 1.6-1.4 2.7-3 2.5-1.3-.1-2.7-.3-4.3-.4-.4 2-.7 3.9-.9 5.8zm-246.3 7.3c.3-1.1.4-3.1 1.1-4.8 1.9-4.6 7.3-5.4 10.3-1.6 1.2 1.6 2 3.6 2.6 5.6.5 1.7-.4 2.9-1.9 3.2-1.8.3-2.7-.4-3.2-2.2-.3-1-.7-2-1.2-3s-1.2-.9-1.6.1c-.3 1.1-.8 2.2-.6 3.3.4 2.5.9 5 1.7 7.4.2.6 1.2 1.1 1.8 1.6.4-.6.9-1.2 1.1-1.9s.1-1.6.2-2.4c.1-1.3.9-2.1 2.2-2.2 1.3-.2 2.4.3 2.9 1.6 1.4 3.5-1.3 9.2-4.8 10.3-2.9.9-5-.4-6.8-2.5-2.9-3.3-3.5-7.5-3.8-12.5zm-15.2 13.6c-.1 1.4-.1 2.1-.2 2.9-.2 1.8-1.5 2.7-3.2 2.6-1.5-.2-2.3-1.3-2.1-3.1.2-2.1.5-4.3.6-6.4 0-.8-.3-1.9-.8-2.5-1.6-2.1-3.3-4-5.1-6-1-1.1-1.2-2.3-.4-3.6.9-1.5 2.8-1.8 4-.4 1.1 1.1 2.1 2.4 3.3 3.7.3-2.3.5-4.4.8-6.4.2-1.7 1.6-2.6 3.1-2.4 1.6.2 2.2 1.1 2.1 3.1-.3 3.1-.6 6.2-1 9.3-.2 1.4.1 2.5 1.1 3.5 1.6 1.7 3 3.5 4.5 5.3 1.2 1.5 1.1 3.1-.2 4.2s-2.5.8-3.9-.8c-.9-.9-1.6-1.7-2.6-3zm-20.9-6.7c.6 1.9 1.1 3.7 1.6 5.7 2.1-.4 4.8-2.1 5.8 1.1.9 3.3-2.3 3.2-4.4 4.2.3 1 .5 1.9.8 3.1 1.5-.3 2.9-.7 4.3-1 2-.5 3.2.1 3.6 1.8.4 1.6-.4 2.7-2.4 3.2s-3.9 1.1-5.9 1.6c-2.4.6-3.4 0-4.1-2.3-1.9-6.8-3.7-13.6-5.7-20.5-.4-1.4-.2-2.5 1.1-3.2 1.2-.7 2.3-.5 3.4.4.4.3 1.1.5 1.6.4 1-.2 1.9-.6 2.9-.9 1.7-.5 2.8 0 3.3 1.5.6 1.5-.1 3-1.7 3.6-1.2.4-2.6.8-4.2 1.3zm268.5-21.4c-2.1 1-2.8 2.5-3.1 4-.5 2.4-.8 4.8-.9 7.2 0 .7.8 1.5 1.2 2.2.6-.6 1.2-1.1 1.7-1.7.4-.5.5-1.1.7-1.7.5-1.4 1.4-2 2.9-1.7s2.4 1.4 2.3 2.9c-.2 2.7-3 6.4-5.5 7.2-2.9 1-5.9-.3-7.4-3.2-1.6-3-1.5-6.3-.9-9.5.5-2.6 1.5-5.2 2.7-7.6 1.3-2.4 3.5-3.6 6.4-3.2 3 .4 4.5 2.3 5 5 .4 1.7.4 3.6.3 5.4-.1 1.5-1.3 2.3-2.9 2.1-1.5-.2-2.2-1.1-2.3-2.6 0-1.5-.1-3-.2-4.8zm-161.6-3.2c.1 1.7.2 3 .3 4.5 1.2-.1 2.2-.3 3.3-.4 1.6-.1 2.5.6 2.8 2.1.3 1.6-.5 2.8-2.1 3.1-1.1.2-2.2.3-3.5.5.2 3.3.4 6.5.6 9.7.1 1.9-1 3.1-2.8 3-1.4 0-2.3-.6-2.4-2.1-.3-4.3-.7-8.6-1-12.9-.3-3.6-.5-7.2-.7-10.9-.1-1.4.1-2.6 1.5-3.1 1.2-.5 2.4-.4 3.4.8.2.3.9.4 1.3.3 1.5 0 2.9-.2 4.4-.2 2 0 3.1 1 3.1 2.8s-.8 2.5-3 2.6c-1.6.2-3.3.2-5.2.2zm251.8 30.6c-2.2-.2-4.2-.4-6.1-.6-2.7-.2-3.8-2.1-2.5-4.4 1.6-2.8 3.2-5.6 4.9-8.4 1.1-1.8 2.4-2.2 4-1.3 1.4.8 1.6 2.2.6 4-1 1.7-2 3.4-3 5.3h3.4c.2-.7.3-1.5.5-2.3.4-1.5 1.5-2.3 3-2s2.5 1.7 2.2 3.1l-3 13.2c-.4 1.5-1.7 2.3-3.1 2-1.5-.4-2.4-1.6-2.1-3.2.3-1.8.7-3.5 1.2-5.4zm-185.4-32.2v16.3c0 1.8-.9 2.7-2.5 2.8-1.7.1-2.7-.8-2.7-2.7-.1-4.7-.2-9.3-.4-14 0-.8-.1-1.6-.2-2.6-1.2-.1-2.3-.2-3.4-.3-1.6-.1-2.8-1.3-2.8-2.9s1-2.4 2.9-2.4c4.2.1 8.4.3 12.6.5 1.6.1 2.6 1.3 2.5 3-.1 1.5-.8 2.2-2.6 2.2-1 .1-2.3.1-3.4.1zm63.1-2c-.4 6.4-.7 12.8-1.1 19.2-.1 1.3-.2 2.6-1.7 3.1-1.9.7-3.8-.6-3.7-2.7.2-5 .5-10 .8-15 .1-2.1.2-4.2.4-6.3.2-2 1.1-2.7 2.8-2.6 1.6.1 2.4 1 2.4 2.9.2.5.2.9.1 1.4zm-111.1 20.8c.1 2.5-.7 3.7-2.6 3.7-1.4 0-2.4-.6-2.5-2.1-.4-4.3-.9-8.6-1.3-12.8-.3-2.7-.5-5.4-.8-8.1-.2-2.1.5-3.1 2.2-3.4 1.9-.2 2.8.5 3 2.7.6 6.6 1.3 13.3 2 20zm-88.8 15.1c.1 1.8-.9 2.5-2.3 2.6-1.5.2-2.5-.5-2.9-2l-3-13.2c-.5-2.4-1.1-4.7-1.6-7.1-.4-1.9.3-3.3 1.8-3.7 1.8-.4 2.9.4 3.4 2.4 1.5 6.7 3 13.5 4.5 20.2.1.3.1.7.1.8zm272.6-27.6c-.6 3.2-1.2 6.9-1.8 10.5-.5 3-1.1 6-1.6 9-.3 1.9-1.4 2.7-3.2 2.4-1.6-.3-2.5-1.5-2.2-3.2 1.1-6.6 2.3-13.1 3.5-19.7.3-1.7 1.4-2.5 3-2.3 1.5.2 2.4 1.2 2.3 3.3zm-56-101.2V30.3c0-2.4-.1-4.8-.3-7.1-.1-1.1.3-1.6 1.4-1.7 3.4-.5 6.9-1.2 10.3-1.6 3-.3 6.1-.4 9.1-.4 2.6 0 5 .9 7.1 2.4s2.2 3.7 1.9 6c-.7 4.7-3.5 8.4-6.6 11.8-6.5 7-13.9 13-21.8 18.4 0 0-.2 0-1.1.3zm-309.5 45.4c-6.2 1-12.4 2-18.9 3 3.2-10.9 6.4-21.7 9.7-32.8 3.1 10.1 6.2 20 9.2 29.8zm411.9-21.5c-.9-8-1.8-15.8-2.7-23.6-.3-2.2-.6-4.5-1-6.7-.2-1.3.1-2 1.5-2.3 3.5-.7 6.9-1.5 10.4-2.3 1.7-.4 3.3-.9 5-1.1 2.7-.3 5.4-.1 7.9 1.1 1.7.9 2.5 2.3 2.6 4.2.4 5.3-2.4 9.3-5.4 13.1-5 6.4-10.9 11.8-17.2 16.9-.3.3-.6.4-1.1.7zm-254.1-33c-.3 8.9-3.2 17.8-10.6 24.7-1.9 1.8-4.1 3.4-7 3.7-4.1.5-9.1-3.7-10.5-7.9-1.7-5.1-.9-10 .6-14.9 2.5-7.6 6.6-14.1 13.3-18.7 2.1-1.4 4.8-2.1 7.3-2.8 1-.3 2.1.1 2.9 1.2 3.2 4.2 3.9 8.9 4 14.7zm97.9 9.3c-.8-.6-1.4-1.1-2.2-1.5-4.3-2.4-3.9-9.1.5-11.8 4-2.5 8.2-2.1 12.4-.8 1.2.4 2.5.4 3.8.8.7.2 1.5.7 1.7 1.2 1.6 4.3-.1 9.1-5 10.2-2.5.6-5.2-.8-6.2-3-.6-1.4-.2-2.5 1.1-3.4.3.4.6.7.9 1.1.5.8 1.2 1.6 2.1.8.6-.6 1.3-1.7 1.2-2.5-.2-1.7-1.7-2.4-3.2-2.6-1.7-.3-3.1.4-4.1 1.9-1.8 2.7-.7 6.5 2.2 8 .7.4 1.5.6 2.2 1 .4.3 1 .8 1 1.1 0 .4-.6.9-1 1.1-1.7.7-3.6 1.1-5.2 2-3.8 2.1-4.9 6.8-2.4 10.4 1.5 2.1 4.4 3 7 2.2 1.9-.6 3-2.6 3.1-5.2.1-2 0-3.8-2.4-4.5-.3-.1-.8-.9-.7-1.3s.7-.9 1.2-.9c.7-.1 1.4.3 2.2.3 2.7 0 5.4-.1 8.1-.1.8 0 1.5.3 2.3.4-.3.7-.5 1.6-1.1 2-2.5 2-2.6 6.4-.2 8.8.4.4.3 1.8 0 2.3-1.8 2.6-4.4 4.2-7.4 5.1-5.7 1.7-11.3 1.6-16.2-2-6.6-4.8-6-14.8 1-19.2.9-.7 2-1.2 3.3-1.9z"/></g></svg>