<?xml version="1.0" encoding="utf-8"?>
<!-- Generator: Adobe Illustrator 22.1.0, SVG Export Plug-In . SVG Version: 6.00 Build 0)  -->
<svg version="1.1" id="Layer_1" xmlns="http://www.w3.org/2000/svg" xmlns:xlink="http://www.w3.org/1999/xlink" x="0px" y="0px"
	 viewBox="0 0 800 400" style="enable-background:new 0 0 800 400;" xml:space="preserve">
<style type="text/css">
	.st0{display:none;}
	.st1{display:inline;fill:#1A1A1A;}
	.st2{display:inline;fill:#FF0000;}
</style>
<g id="Layer_1_1_" class="st0">
	<path class="st1" d="M350.4,145l-25.6,111.7h15.5l6.7-30.8h23.6l6.6,30.8h15.7L368.8,145H350.4L350.4,145z M348.9,213.4l5.4-26.7
		c1.5-7.1,3.2-17.4,4.4-25.5h0.7c1.2,8,2.7,17.9,4.2,25.5l5.2,26.7H348.9L348.9,213.4z M452,142h-15.8v41.9h-0.3
		c-2.9-6.1-8.1-9.1-14.6-9.1c-13,0-25.3,13.4-25.3,41.9c0,25,9.3,41.3,24.4,41.3c8.2,0,14.5-5.5,17.2-11.1h0.5l1,9.8h13.6
		c-0.3-5.6-0.7-14.6-0.7-20.7L452,142L452,142z M436.2,228.3c0,1.8-0.2,3.8-0.5,5.1c-2.7,9.6-7.4,11.4-10.9,11.4
		c-8.4,0-12.8-11.6-12.8-28.2c0-14.9,3.4-28.5,13.3-28.5c5.7,0,9.9,6.3,10.8,13.6c0.2,1.7,0.2,3.5,0.2,5L436.2,228.3L436.2,228.3z
		 M490.5,174.8c-15,0-29,12.4-29,41.8c0,27.7,11.8,41.4,28.1,41.4h0.2c12.5,0,28.5-9.8,28.5-41.8
		C518.3,189.1,506.7,174.8,490.5,174.8L490.5,174.8z M490.2,245.7H490c-10.3,0-12.6-15.9-12.6-29.3c0-12.1,2-29.3,12.5-29.3
		c10.1,0,12.3,17.2,12.3,29.3C502.1,228.7,500,245.7,490.2,245.7L490.2,245.7z M561.2,174.8c-7.2,0-13,3.1-17.2,10.4h-0.3V142h-15.8
		v94c0,6.1-0.3,15.2-0.7,20.7h13.6l0.8-10.1h0.7c3.5,7.1,8.1,11.4,16.2,11.4c13.5,0,25.4-14.1,25.4-42.9
		C583.9,190.4,575.2,174.8,561.2,174.8L561.2,174.8z M555,244.9c-3.2,0-8.1-2-10.6-11.8c-0.5-1.3-0.7-3.1-0.7-5v-22.5
		c0-1.7,0.2-3.8,0.5-5.5c1.2-5.8,5.4-11.9,10.6-11.9c9.4,0,13.1,12.4,13.1,27.8C567.9,232.6,564.4,244.9,555,244.9L555,244.9z
		 M646,211.1c0-20.2-7.9-36.3-24.9-36.3s-29.3,16.2-29.3,42.6c0,24.9,10.8,40.1,31.3,40.1c7.2,0,14.6-1.3,19.5-3.8l-2.4-11.3
		c-3.5,1.7-8.4,3-14.1,3c-9.6,0-18.7-5.1-18.9-25.9l38.4,0.2C645.8,217.6,646,215.1,646,211.1L646,211.1z M607.4,208.5
		c0.5-10.1,4.2-21.9,12.5-21.9c6.2,0,11.3,7.6,11.1,21.9H607.4z"/>
	<path class="st2" d="M198.3,234.3l20.7-47.9l30.1,70.3h-19.7l-9-22.4L198.3,234.3L198.3,234.3z M155,145.3h47.3L155,256.7V145.3z
		 M282.9,256.7l-47.3-111.4h47.3V256.7z"/>
</g>
<g>
	<path d="M502.6,98c2.4,0.5,4.9,0.9,7.3,1.4c6.3,1.4,12.1,3.7,16.6,8.7c2.9,3.2,5.6,6.4,7.2,10.4c0.1,0.3,0.8,0.6,1.2,0.6
		c2.3,0.2,4.6,0.4,6.9,0.6c3,0.3,6.1,0.7,9.1,0.7c2.4,0.1,4.9-0.3,7.3-0.5c4.8-0.4,9.7-0.6,13.4,3.2c2.1,2.2,3.5,5,5.2,7.5
		c4.1-0.9,8.5-2.2,13-2.8c8.6-1.1,17.1-1.1,25.2,2.6c5.1,2.3,9.3,5.7,12.1,10.6c0.5,1,1.1,1.1,2.3,1c3.8-0.2,7.7-0.1,11.5,0
		c3.2,0.1,6.3,0.4,9.5,0.5c0.5,0,1.1-0.1,1.4-0.4c6-4.8,16.3-3.2,21.4,1.5c0.2,0.1,0.3,0.3,0.5,0.3c1.8-2,3.5-3.9,5.3-6
		c-0.4-0.5-1.1-1.3-1.7-2c-6.9-7.2-2.4-16.6,3.7-19.5c4.2-2,8.5-2.5,13-1.4c5.8,1.4,8.8,5.6,10.8,10.9c1.4,3.8,1.8,7.7,1.8,11.7
		c0,0.6,0.3,1.6,0.7,1.8c5.7,3.1,7.8,8.5,9.1,14.3c0.2,0.8,0.3,1.5,0.5,2.3c18.8-4.3,39.3,10.3,42.9,28.9c0.4,2.1,1,3.9,2.3,5.7
		c4.2,5.8,4.2,12.7,0.4,18.5c-3.6,5.5-10.7,8.5-17.4,7.2c-0.8-0.1-1.7,0-2.6,0c1.4,2.8,2.8,5.4,4,8.1c3.9,9.3,5,18.9,0.8,28.4
		c-4.3,9.5-11.8,15.1-22,16.9c-15,2.7-28.1-1.2-39.6-11.1c-3.7-3.2-6.9-6.6-8.7-11.1c-0.4-0.9-1.1-1.4-2-0.9
		c-4.9,2.9-10,2.6-15.2,1.2c-3.8-1-7.4-0.6-11.1-0.1c-8.7,1.1-17.3,2.4-26.1,1.2c-7.4-1-13.5-2.1-20.4-8.2c-0.7,0.5-1.4,0.9-2,1.4
		c-2.6,1.8-5.6,2.1-8.6,2.4c-4.6,0.4-9.3,0.8-13.9,1.1c-4.9,0.3-9.6-0.5-13.6-3.8c-1.7-1.4-2.7-3.3-3.5-5.3
		c-1.1-2.5-2.5-4.9-3.9-7.3c-0.3-0.5-1.3-0.5-2-0.7c-1.5-0.5-2.9-1-4.4-1.3c-1.4-0.3-2.9-0.7-4.4-0.7c-4.8,0.1-9.5,0.6-14.3,0.5
		c-5.2,0-10.4-0.9-15.4-2.6c-5.7-1.9-8.8-4.5-14.1-11.5c-0.7,1.5-1.1,3.2-2,4.5c-2.9,4.7-7.1,7.4-12.7,7.5
		c-6.1,0.1-12.2,0.3-18.4,0.3c-6.8,0-13.3-4.4-15.6-10.4c-2.6-6.7-1.1-14.4,4.3-19c1.5-1.3,1.1-2.5,1.2-3.9c0-0.7,0-1.3,0-2.1
		c-15.9,13.8-32.4,15-49.7,3.7c-0.2,2.6-0.2,5.3-0.5,8c-0.8,7-4.2,12.6-9.4,17.2c-5.6,5-12.5,7.4-19.7,9c-7.5,1.6-15,2.2-22.7,1.4
		c-9.7-1-18.6-4.1-25.7-11.2c-0.5-0.6-1.4-0.8-2.2-1.1c-6.6-1.9-10.7-6.1-12.3-12.8c-0.2-0.9-0.2-1.8-0.3-2.8
		c-0.9-0.1-1.5-0.2-1.7,1.1c-0.9,5.9-4.3,10.1-9.6,12.8c-11,5.7-22.7,9.6-34.8,12.2c-3.8,0.8-7.6,1.3-11.5,1.4
		c-8.2,0.2-14-3.7-18.2-10.7c-3.6-6-4.9-12.7-6.3-19.4c-1.9-8.4-3-16.8-2.9-25.4c0-0.3,0-0.7-0.1-1c-5.9-0.5-10.5,2.8-10.7,9.1
		c-0.2,5.6,1.5,10.9,2.9,16.2c0.8,3,1.5,5.9,2.3,8.9c0.1,0.5,0.5,1,0.8,1.4c8,7.9,7.4,18.6-1.4,25.5c-0.8,0.6-1,1.1-0.8,2.1
		c1,6.8-1.3,12.3-6.5,16.7c-3.3,2.8-6.2,6-9.2,9c-3.4,3.3-7.5,4.8-12.2,4.6c-5.2-0.3-9.5-2.4-12.5-6.8c-2.3-3.3-3.2-6.9-2.6-11
		c0.1-0.9-0.2-2.1-0.7-3c-2.9-4.8-6-9.5-8.9-14.3c-0.5-0.8-1-1.3-2-1.1c-3.2,0.6-6.4,1.2-9.5,1.7c0.8,2.4,1.9,4.6,2.4,7
		c1.9,10.3-4.7,18.9-15.2,19.8c-6.5,0.5-13,0.7-19.5,0.9c-4.3,0.1-7.7-1.8-10-5.4c-0.8-1.2-1.6-2.3-2.4-3.5c-2.4,3.3-4.7,6.5-7,9.6
		c-5.6,7.4-12.6,12.9-21.7,15.4c-15.1,4.2-28,0.4-38.7-11c-7-7.5-10.6-16.6-12.3-26.6c-2-12-1.2-24,1-35.9
		c3.1-16.9,7.7-33.4,14.7-49.1c4.4-9.8,10-18.9,18-26.2c5.2-4.8,11-8.5,18.2-9.5c10.9-1.6,19.5,2.3,25.6,11.4
		c3.9,5.9,6.1,12.5,7.1,19.5c0.1,0.7,0.7,1.6,1.3,2c9.1,6,9.2,18.7,0.2,24.8c-4.5,3.1-9.7,4.2-14.9,4.7c-3.3,0.4-6.8,0.5-10.1,0
		c-5.5-0.8-9.4-4.1-11.7-9.1c-0.3-0.6-0.6-1.2-1-2.2c-1.3,3.3-2.6,6.2-3.7,9.1c-4.3,11.4-7.4,23.1-9.1,35.1
		c-1,7.1-1.8,14.2,0.3,21.3c0.7,2.3,2,4.4,3.2,6.5c0.6,1,1.4,1.5,2.4,0.5c1.1-1.1,2.4-2.1,3.2-3.4c3.9-6.3,7.6-12.7,11.3-19.2
		c1.6-2.8,2.8-5.9,4.5-8.8c1.1-2,1.1-4,0.9-6.2c-0.8-6.1,0.8-11.6,5.9-15.4c4.4-3.2,9.4-3.1,14.3-1.4c6.6,2.3,12.5,5.6,17.3,11.3
		c1-3.8,1.9-7.4,2.9-10.9c3.1-10.9,6.2-21.9,9.2-32.8c1.9-6.9,6.5-10.5,13.3-11.7c6.6-1.2,13.4,1.7,16.9,7.6c1.7,2.9,3,6.2,4.5,9.4
		c2.4-3.1,5.6-5.1,9.5-5.8c3.9-0.7,7.5,0,10.5,2.7c4.9-8.1,11.5-13.2,20.9-14.3c-0.4-2-1-4-1.2-6.1c-0.9-8.5,6.1-16.6,14.7-17.4
		c3.6-0.3,7.2-1.1,10.7-1.8c7.7-1.5,16,3.2,18.7,10.6c2.3,6.2,0.6,11.5-3.1,16.6c-0.4,0.5-0.7,1.3-0.7,2c0.4,5.5,0.8,11,1.4,16.4
		c1,7.8,2.1,15.5,3.3,23.2c0.5,3.4,1.3,6.8,1.9,10.4c3.1-1.4,5.9-2.6,8.7-3.9c0.4-0.2,0.6-0.9,0.8-1.4c0.8-2.6,1.9-4.9,3.8-7
		c0.3-0.4,0.5-1.3,0.3-1.8c-2.3-5.5-2.9-11.2-2.9-17.1c0-7.1,1.9-13.8,4.9-20.1c4.2-9.2,9.9-17.2,18.3-23c8.4-5.8,17.7-8.3,27.9-6.7
		c5.4,0.9,9.6,3.9,13,8.1c0.2,0.3,0.5,0.6,0.8,0.8c1.5-1.4,3-2.8,4.5-4c6.2-4.9,13.4-6.7,21.2-6.1c11.7,0.8,21,6.2,28.5,15
		c1.4,1.6,2.5,3.5,3.5,5.4c0.8,1.4,1.6,2.7,3.1,3.4c0.8,0.4,1.4,1.1,2.1,1.7c12.3-11,26.2-13.3,41.6-7c-0.3-1.2-0.6-2.2-0.8-3.3
		c-1.2-6.9,1.4-12.2,6.6-16.5c6.6-5.5,14.4-8.4,22.6-10.7c6.3-1.8,12.6-2.7,19.1-2.9c0.4,0,0.8-0.1,1.2-0.2
		C498.7,98,500.7,98,502.6,98z M47.8,217.5c0.4,4.3,0.7,8.6,1.3,12.8c1,6.7,3.1,13.1,7.3,18.6c7.6,10.1,17.6,13.4,29,10.7
		c7.6-1.8,13.3-6.4,17.9-12.7c7.9-10.9,14-22.7,19.8-34.7c0.7-1.5,1.5-2.6,3-3.5c4-2.4,4.7-5.9,1.8-9.4c-3.4-4.1-8.1-6.4-13.2-7.5
		c-2.8-0.6-4.2,0.9-4.1,3.9c0.1,1.9,0.6,3.8,0.8,5.7c0.1,0.8,0.3,1.8,0,2.4c-5.3,11.3-10.6,22.6-17.7,33c-2.5,3.7-5.2,7.3-9.4,9.3
		c-4.9,2.4-9.4,2.1-13.5-1.5c-3.6-3.1-5.9-7.1-7.3-11.6c-2.7-8.8-2.1-17.7-1-26.6c1.2-9.2,3.3-18.3,6.1-27.2
		c3.6-11.7,7.8-23.2,15-33.4c2.3-3.2,4.7-6.4,8-8.7c2.1-1.5,2.6-1.5,3.5,1c0.8,2,1.5,4,1.9,6.1c0.9,3.9,2.1,7.6,0.1,11.8
		c-1.4,2.9,0.7,7.7,5.6,7.4c2.5-0.2,5-0.3,7.4-0.8c2.7-0.6,5.3-1.5,7.8-2.6c2.4-1.1,2.6-3.5,0.5-5.2c-0.9-0.8-2.1-1.3-3.2-1.8
		c-1.7-0.8-2.9-1.9-3.1-3.9c-0.1-1.6-0.3-3.2-0.6-4.7c-1-5.5-2.3-10.9-5.6-15.5c-2.9-4.1-6.8-6.5-12.1-6.4c-5.3,0.1-9.5,2.6-13.3,6
		c-7.1,6.3-12.1,14.1-16.1,22.7c-5.2,11.4-9,23.3-12,35.5C50.1,196.8,48.1,207,47.8,217.5z M486.3,199.4c-0.1-3.3-0.3-6.2-0.4-9.1
		c-0.1-5.9-0.3-11.8-0.3-17.7c0-1.2-0.3-2.4,1.1-3.2c9.2-5.4,17.7-11.8,25.5-18.9c4.7-4.3,8.8-8.9,11.9-14.5c2.5-4.6,3.6-9.5,3-14.7
		c-0.8-5.9-4.4-9.8-9.5-12.3c-4.8-2.4-9.9-3-15.3-2.8c-7.4,0.2-14.6,1.1-21.7,3.2c-5.9,1.8-11.6,4-16.6,7.8c-2.2,1.7-3.2,4.6-2.3,7
		c0.8,2.2,3.3,3.9,5.9,3.6c1.5-0.1,3-0.8,4.5-1.3c0.1,1.6,0.3,3.3,0.4,5c0.2,10.3,0.3,20.7,0.4,31c0,0.7-0.3,1.5-0.8,2.1
		c-1.9,2.3-2.3,5.1-0.5,6.9c1.7,1.6,1.6,3.3,1.6,5.2c0.1,4.4,0.2,8.7,0.3,13.1c0,3.2,0,6.3,0,9.6c-0.6,0-1,0-1.5,0
		c-3,0.3-5.2,2.4-5.3,5.2c-0.2,3.8,2.5,6.5,6.5,6.4c3.3,0,6.6-0.2,9.9-0.3c1.9,0,3.7,0.3,5.6,0.3c3,0,5.9-2.4,6.1-5.1
		c0.3-3.4-1.4-5.8-4.7-6.4C488.9,199.2,487.6,199.4,486.3,199.4z M141.7,219.2c0.1,0,0.1,0.1,0.2,0.1c-1.1,3.5-2.2,7-3.2,10.6
		c-0.4,1.5-1,1.9-2.6,1.9c-1.6,0-3.4,0.1-4.7,0.8c-2.2,1.1-2.9,4-2.2,6.4c0.7,2.1,2.8,3.4,5.3,3.3c5-0.3,10.1-0.6,15.1-1
		c2.9-0.2,4.8-3,4.4-5.9c-0.5-2.8-2.4-3.9-4.9-4.5c1.3-4.5,2.7-8.9,4.1-13.4c0.2-0.5,0.9-1,1.4-1.1c3.6-0.8,7.2-1.7,10.9-2.3
		c4.4-0.7,8.8-1.2,13.2-1.9c1.1-0.2,1.7,0.2,2.1,1.3c1,2.3,2.1,4.5,3.3,6.7c3.8,6.9,7.9,13.6,13.4,19.3c-0.2,0.3-0.3,0.4-0.5,0.6
		c-2.3,2-2.7,5.5-1,7.7c1.7,2.2,5.3,2.5,7.7,0.4c3.4-3.1,6.9-6.1,10.4-9c2.4-2,2.8-5.3,0.8-7.8c-1.6-2-5.3-2.3-7.5-0.6
		c-0.7,0.6-1.4,1.1-2.1,1.7c-0.3-0.3-0.6-0.5-0.8-0.8c-6.2-6.7-10.8-14.3-14.5-22.6c-6.1-13.6-10.1-27.9-14-42.2
		c-1.4-5-3-9.9-4.8-14.7c-0.7-2.1-2.4-3.9-4.7-4c-2.6-0.1-4.3,1.6-5.2,4.1c-0.7,1.8-1.5,3.5-2,5.4c-4.2,15.5-8.5,31-12.6,46.6
		c-0.6,2.4-1.4,4-4.2,4.1c-1,0-1.3,0-1.8-0.8c-1.3-2.3-3.7-3.3-6.1-2.6c-2.1,0.6-3.7,2.8-3.6,5.3c0.1,2.7,0.4,5.4,0.6,8.1
		c0.2,2.3,1.2,3.9,3.4,4.4c2.3,0.5,4,0.4,5.5-1.8C141,220.4,141.3,219.8,141.7,219.2z M397,141c-0.8-1.9-1.6-3.8-2.5-5.6
		c-4.8-9.4-17.1-16.8-29-14.5c-5.4,1.1-9.7,3.9-12.1,9.1c-2.3,5.2-2.4,10.4-0.8,15.8c2,6.7,6.2,11.9,11,16.7
		c6.6,6.7,13.5,13.2,20.1,19.9c1.9,1.9,3.5,4.3,4.8,6.7c2.7,5.3,1.1,9.6-4.4,11.8c-8.9,3.5-18.1,4.2-27.4,1.7
		c-2.8-0.8-5.3-2.4-6.7-5.3c2.1-1,3.5-2.5,3.8-4.8c0.4-4.1-4-7.2-7.9-5.6c-4,1.7-7.9,3.5-11.9,5.3c-2.1,1-3,2.9-2.8,5.4
		c0.2,1.9,1.9,4,3.9,4.3c1.4,0.2,2.9,0,4.6,0c1.4,2.7,3.6,5.2,6.5,7.1c5.5,3.7,11.7,4.9,18.1,5.2c8.1,0.3,16-0.5,23.7-3.4
		c6-2.3,10.8-5.8,12.6-12.3c1.7-6,0.4-11.6-3-16.6c-2.7-4-5.8-7.7-9.1-11.2c-5.3-5.6-11-10.7-16.4-16.2c-3.5-3.6-6.8-7.4-8.2-12.3
		c-0.5-1.9-1-3.9-0.8-5.8c0.6-4.7,3.6-6.5,8.6-5.9c6.9,0.9,13,6.7,13.9,13.1c-0.7,0.3-1.3,0.6-2,0.8c-2.6,0.6-4.2,4.1-3.4,6.3
		c1,2.8,3.8,4.5,6.7,3.7c4.1-1,8.3-2.1,12.4-3.2c2.4-0.7,3.9-2.6,4-4.9C403.3,143.3,401,141.2,397,141z M751.5,190.2
		c0.3-0.4,0.5-0.7,0.7-1.1c0.3-0.5,0.8-0.9,0.9-1.5c0.1-0.8,0.1-1.7-0.1-2.5c-1.7-10.8-11.4-20.4-21.6-22.1
		c-8.6-1.4-16.6,2.7-20,10.7c-3.3,7.6-2.6,15.3,0.7,22.5c3.3,7.3,7.4,14.3,11.1,21.5c2.5,4.8,5.2,9.5,6.6,14.8
		c1.6,6.4-1.2,11-7.5,11.8c-4.9,0.6-9.6-0.3-13.9-2.8c-3.2-1.9-6.1-4.3-7-8.3c3.7-0.6,7.3-1.2,10.9-1.8c2.7-0.4,4.6-2.4,4.8-4.7
		c0.1-2.7-1.7-5.1-4.2-5.9c-2.4-0.8-4.6,0.3-6.8,0.7c-4.7,1-9.4,2.3-13.6,4.9c-4.4,2.8-5.6,6.9-2.8,11.3c1.6,2.6,3.6,5.1,5.8,7.3
		c8.9,9,19.7,11.8,31.8,9.1c8.6-1.9,14-9,14-17.8c0-6.6-2.5-12.4-5.5-18.1c-4.5-8.5-9.1-16.9-13.4-25.4c-2.2-4.3-3.3-8.9-2-13.7
		c1.2-4.2,3.9-7.4,8.7-6.1c7.1,2,12.8,9.9,11.2,17c-0.6,0-1.2,0-1.8,0c-3,0-5.3,1.9-5.5,4.4c-0.4,4,1.6,5.7,4.8,6.1
		c4.6,0.5,9.3,0.5,13.9,0.4c3,0,5.7-3.7,4.5-6.8C755.3,192.1,753.8,190.9,751.5,190.2z M592,218.6c-0.3-2.5-0.7-5-1-7.5
		c-0.6-5.8-1.2-11.6-1.8-17.4c0-0.5,0.2-1.2,0.6-1.5c3.5-2.8,7.1-5.4,10.5-8.2c6.1-5.1,11.7-10.6,16.3-17.1c3.4-4.8,6.1-10,6.2-16.2
		c0.1-5.3-1.7-9.8-5.9-13c-3.4-2.6-7.4-3.8-11.5-3.8c-3,0-6,0.6-8.9,0.9c-7.1,0.7-13.8,2.5-20.4,5.3c-4.5,1.9-8.9,4.2-12.4,7.7
		c-2.3,2.2-2.5,5.2-0.7,7.3c1.9,2.2,5.2,2.6,7.7,0.9c0.5-0.3,0.9-0.7,1.6-1.2c0.2,1.2,0.3,2.2,0.4,3.2c0.7,5.2,1.3,10.3,1.9,15.5
		c0.6,4.6,1.1,9.2,1.6,13.8c0.1,0.7,0,1.5-0.4,2.1c-1.8,2.8-1.6,4.8,1,7c0.4,0.3,0.8,0.7,0.8,1.1c0.4,3.2,0.7,6.4,1.1,9.6
		c0.5,3.9,1,7.7,1.6,11.6c0.2,1.2,0.2,1.9-1.4,2c-1.9,0.1-3.7,1.8-4.2,3.6c-0.6,2,0.2,4.2,1.8,5.5c1.8,1.4,3.8,1.2,5.8,1
		c3.9-0.4,7.7-1,11.6-1.2c2.2-0.1,3.9-0.8,5.3-2.4c2.5-2.8,1.3-7-2.3-7.9C595.5,218.7,593.9,218.8,592,218.6z M629.5,188.3
		c0-0.2-0.1-0.5,0-0.7c3.3-9.3,6.5-18.7,9.9-28c0.2-0.4,1.1-0.9,1.7-0.9c4.6,0.2,9.3,0.3,13.9,0.7c1.6,0.1,3.2,0,4.3,2.1
		c1.2,2.2,3.8,2.8,6.3,2.3c2.3-0.5,3.9-2,4.2-4.5c0.3-2.6,0.8-5.1,0.9-7.7c0.2-3.3-1.2-5.2-4.3-6.2c-2.5-0.8-4.9,0.2-6.7,2.7
		c-0.3,0.4-1,0.7-1.5,0.7c-4.3-0.2-8.6-0.4-12.9-0.7c-3.1-0.2-6.1-0.4-9.1-0.6c-2.4-0.2-4.9,1.2-5.8,3.6c-1.1,2.8-2.3,5.5-3.3,8.3
		c-6.7,18.7-13.6,37.3-16.2,57.2c-0.9,6.5,0.4,11.2,7.1,13.8c2.7,1.1,5.7,1.5,8.6,2.1c6.8,1.5,13.5,0.7,20.2-0.2
		c3.3-0.5,6.6-1.2,9.9-1.1c3.9,0.1,7.7,0.8,11.6,1.5c3.3,0.6,4.9-0.3,5.1-3.7c0.2-2.9,0.1-5.8,0-8.6c-0.1-2.5-2.3-4.5-4.9-4.9
		c-2.4-0.3-5.4,1-6.1,3.1c-0.6,1.8-1.8,1.8-3.2,2c-4.8,0.6-9.5,1.3-14.3,1.8c-4.6,0.4-9.1,0.8-13.7,0.9c-2.5,0-5.1-0.7-7.6-1.3
		c-0.5-0.1-1.3-0.9-1.3-1.4c-0.2-1.5-0.2-3.1,0.1-4.6c1.1-5.5,2.5-11,3.6-16.5c0.2-1.2,0.8-1.4,1.8-1.4c4.7,0,9.3-0.2,14-0.3
		c2.1-0.1,3.9-0.2,5.8,1.5c2,1.9,4.7,1.4,6.9,0c1.9-1.2,2.5-3.1,2.1-5.5c-0.2-1.2,0.1-2.5,0.2-3.7c0.1-0.8,0.4-1.7,0.2-2.5
		c-0.4-2.3-2.5-4-5-4.3c-2.4-0.2-5.1,1.3-6.1,3.3c-0.3,0.5-0.9,1.1-1.4,1.2c-2,0.3-3.9,0.4-5.9,0.5
		C635.6,188.3,632.6,188.3,629.5,188.3z M531.5,165.8c3-9.6,5.9-18.6,8.7-27.6c0.5-1.6,1.1-2.4,3.1-2.1c4,0.4,8,0.3,12.1,0.5
		c1.7,0.1,3.3,0.1,4.3,2.1c1.1,2.1,4.2,2.9,6.3,2.2c2.2-0.8,3.6-3,3.4-5.5c-0.1-1.2-0.2-2.4-0.3-3.5c-0.7-5.1-2.6-6.5-7.8-5.9
		c-3.1,0.3-6.3,0.3-9.4,0.4c-1.3,0-2.6-0.3-3.9-0.4c-3.2-0.2-6.4-0.4-9.7-0.6c-2.3-0.1-4.7-0.4-6.2,1.7c-0.7,1-1,2.3-1.5,3.5
		c-5.5,14.8-9.8,29.9-13.2,45.3c-1.6,7.1-2.9,14.3-2.9,21.6c0,4.7,2.1,8,6.1,10.1c3.4,1.8,7.2,2.5,11,2.8c7.3,0.6,14.5,0.3,21.7-0.7
		c1.3-0.2,2.6-0.4,3.7,1.1c1.5,1.9,4.7,2.1,6.9,1c2-1.1,2.9-3.5,2.4-6c-0.4-2.2-0.9-4.3-1.3-6.5c-0.4-2.5-2.2-4.4-4.4-4.6
		c-3.1-0.3-5.2,1-6.2,3.5c-0.2,0.5-1,1.1-1.7,1.2c-2.7,0.4-5.5,0.8-8.2,0.9c-5.4,0.3-10.9,0.5-16.2-0.9c-3-0.8-3.2-1.1-2.8-4.3
		c0.7-4.5,1.3-9,2-13.5c0.3-2.1,0.9-4.1,1.4-6.1c2.6,0,5,0.1,7.3,0c2.4-0.1,4.7-0.4,7.1-0.6c2.1-0.1,4.1-0.4,5.9,1.5
		c1.7,1.6,4.2,1.4,6.3,0.1c1.8-1.2,2.5-3,2.1-5.3c-0.2-1.2-0.1-2.6,0.1-3.9c0.7-3.3-0.6-5.5-3.8-6.5c-3-0.9-5.5,0.3-6.7,3.3
		c-0.1,0.3-0.5,0.8-0.8,0.8C541.7,165.2,536.9,165.5,531.5,165.8z M253.3,133.9c1.5-1,2.8-1.6,3.7-2.5c1.6-1.7,1.8-4.3,0.8-6
		c-1.3-2.2-3.8-3.2-6.4-2.8c-3.4,0.6-6.9,1.2-10.3,1.7c-3.2,0.5-5.4,2.8-5.2,5.6c0.1,2.4,1.7,5.2,5.3,5.3c0.9,0,1.1,0.4,1.2,1.2
		c0.2,4.9,0.4,9.7,0.7,14.6c0.4,4.8,0.8,9.6,1.4,14.3c0.7,5.5,1.8,11,2.6,16.5c1.2,8.2,2.7,16.3,5.5,24.1c1.6,4.4,4.3,8,9.3,8.6
		c3.8,0.4,7.7,0.3,11.4-0.8c8.9-2.5,17.1-6.6,25.1-11.1c0.6-0.4,1.6-0.5,2.3-0.3c2.6,0.4,4.5-0.4,6.1-2.5c1.1-1.5,1.2-4,0.2-5.6
		c-1.4-2.3-2.9-4.6-4.4-6.8c-1.6-2.5-4.2-2.8-6.8-2.4c-2.3,0.4-3.8,1.9-4.1,4.2c-0.2,1.3,0.3,2.7,0.5,4.1c-0.5,0.3-1.1,0.7-1.8,1.1
		c-7.2,4.1-14.6,7.9-22.8,9.6c-2.4,0.5-3.4,0.3-4.1-2c-1.4-4.4-2.8-8.9-3.7-13.5c-1.2-5.8-2-11.6-2.9-17.5
		c-0.7-4.8-1.3-9.6-1.9-14.4c-0.3-2.9-0.6-5.7-0.8-8.6C253.8,143.1,253.5,138.3,253.3,133.9z M345.1,147.2c-0.2-1.6-0.3-3.1-0.5-4.7
		c-0.4-5.4-2.2-10.4-5.2-15c-2.9-4.5-6.9-7-12.2-6.9c-3.1,0.1-6.2,0.3-9,1.9c-3,1.8-6.3,3.2-9,5.3c-7.1,5.7-11.5,13.5-14.3,22
		c-2.5,7.5-2.7,15.1,0.1,22.7c3.2,8.6,15.7,17,25.4,13.2c4.6-1.8,9-3.7,12.3-7.4C340.8,169.5,344.8,159.1,345.1,147.2z M203.6,166.6
		c-1.7-2.8-4.1-4.2-7.4-3.9c-3.4,0.3-5.9,3.7-4.9,6.9c0.9,2.6,2.2,5.1,3.1,7.7c4.4,12.4,8.8,24.9,13.2,37.4c0.4,1.2-0.2,1.7-0.9,2.2
		c-1.8,1.5-1.9,3.4-1.5,5.4c0.4,2,1.7,3.4,3.7,3.8c2.3,0.5,4.5,0,6.7-1.2c1.5-0.9,3.1-1.7,4.8-2c3.1-0.6,4.7-3.5,4.9-5.4
		c0.2-2.8-1.2-4.5-4.3-5.7c-0.5-0.2-1-0.8-1.1-1.4c-0.6-2.2-0.9-4.5-1.6-6.7c-2.1-7.2-4.4-14.4-6.4-21.7c-0.6-2.2-1-4.6-0.9-6.9
		c0.2-3.3,2.4-5.7,4.8-7.7c3-2.6,6.4-4.2,10.3-4.5c1-0.1,2.6,0.3,3,1c1.2,1.8,2.6,2.7,4.6,2.6c2.3-0.2,4.2-1.2,4.9-3.6
		c0.4-1.6,0.8-3.3,0.7-5c-0.4-4.8-2.1-8.3-7.1-9.2c-2.1-0.4-4.6-0.3-6.7,0.4C215.8,151.9,208.7,157.9,203.6,166.6z M410.4,160.9
		c-0.5,13.3,10.8,25.4,25.1,25.4c14.3,0,25.4-11.2,25.4-25.2c0-14.2-11.1-25.4-25.4-25.4C420.8,135.6,410,147.9,410.4,160.9z
		 M703.3,214.6c-4.6-8.8-8.5-17.5-8.2-27.5c-0.4,0-0.7-0.1-1,0c-4,1-8.1,1.6-12.3,1c-6.4-1-12.4-2.7-16.7-8.1
		c-0.3-0.3-0.8-0.6-1.2-0.6c-2.1-0.1-4.3,0-6.6,0c0.6,0.5,1,0.8,1.4,1.1c4.7,4.1,7.2,8.9,6.1,15.3c-0.2,1.3-0.2,2.7-0.4,4
		c-0.4,2.3-0.8,4.6-1.4,6.9c-0.2,0.8-0.8,1.6-1.2,2.5c10-0.4,17.3,3.5,21.4,12.8C689.1,218,696,216.2,703.3,214.6z M677.5,168.9
		c2,3,6.7,4.6,10.6,3.7c6.5-1.5,11.4-5.3,15.4-10.4c2.7-3.5,4.3-7.4,3.8-11.9c-0.4-3.6-2.7-6.1-5.8-6c0.3,3.4-2,5.4-4,7.6
		c-0.1-0.3,0-0.6,0.1-0.9c0.5-2.3,0.8-4.6-0.6-6.7c-0.4-0.5-1.3-1.2-1.8-1.1c-1.6,0.2-3.1,0.8-4.8,1.3c0.4-0.9,0.8-2,1.3-3
		c-3.7,1.5-5.2,4.8-4.9,8.8c0.3,3,0.3,6.2-0.4,9.1C685.4,164,681.6,166.6,677.5,168.9z M499.7,198.5c1.4-8.1,2.9-16.4,4.4-24.7
		c-3.4,2.2-6.9,4.4-10.3,6.7c-0.3,0.2-0.4,0.8-0.4,1.2c0.1,3.7,0.2,7.5,0.3,11.2c0,0.4,0.3,0.9,0.6,1.1
		C496.1,195.6,498,197.1,499.7,198.5z M698.1,138.8c0-1.9,0.2-3.8,0-5.6c-0.3-2.9-0.6-5.8-1.4-8.6c-1-3.6-3.6-4.6-7.1-3.2
		c-1.8,0.7-2.1,1.6-0.7,2.9C692.9,128.5,696.1,133.2,698.1,138.8z"/>
	<path d="M209.8,302c-0.5-1-1.2-1.9-1.5-2.9c-1.5-5.8-2.9-11.6-4.4-17.4c-0.4-1.5-0.4-2.8,1-3.7c1.2-0.8,3.1-0.4,4.4,0.8
		c0.7,0.6,1.3,1.3,1.9,1.9c0.6,0.6,1.2,1.3,1.9,2c0.9-2.4,1.7-4.5,2.5-6.7c0.5-1.2,1.1-2.3,2.7-2.2c1.6,0.1,2.6,1.1,2.9,2.5
		c1.8,6.3,3.5,12.7,5.2,19c0.5,1.8-0.3,3-1.8,3.4c-1.7,0.4-2.8-0.2-3.4-2.2c-1-3.5-2-7-2.9-10.2c-0.8,1.3-1.3,3.1-2.4,4.1
		c-1.8,1.5-2.9-0.9-4.6-1.9c0.4,1.7,0.7,3.1,1,4.4c0.4,1.7,0.7,3.4,1.3,5.1c0.6,1.8,0.1,3.1-1.4,4.1C211.4,302,210.6,302,209.8,302z
		"/>
	<path d="M556.2,269.9c-6,0.2-9.5-2.7-9.6-7.5c-0.1-3.7,2.6-6.9,6.1-7.8c2.5-0.6,4.9-0.5,6.9,1.2c0.6,0.5,0.9,1.6,1.3,2.4
		c0.2,0.5,0.3,1.1,0.4,1.6c0.3,1.3,1.1,2.6,0.8,3.7c-1.1,4.9-0.7,10.1-2.9,14.7c-0.1,0.3-0.2,0.5-0.3,0.8c-2.8,5.9-9.6,6.6-13.4,1.2
		c-1.1-1.5-1.7-3.4-2.3-5.2c-0.5-1.4,0.3-2.8,1.6-3.3c1.4-0.5,2.7,0.1,3.3,1.6c0.5,1.1,0.7,2.3,1.5,3.2c0.6,0.8,1.8,1.8,2.6,1.8
		c0.8-0.1,1.8-1.3,2.2-2.2C555.1,274.2,555.5,272.1,556.2,269.9z M554.5,265c0.8-0.6,2.1-1.1,2.3-1.9c0.4-1.5-1-3.6-2-3.6
		c-1.5,0-2.7,1.2-2.7,2.7C552,263.5,553,264.6,554.5,265z"/>
	<path d="M477.7,260.9c-0.3,2.6-0.5,5.2-0.8,7.8c0,0.5-0.1,0.9-0.2,1.3c-0.4,1.6-1.3,2.2-3,2c-1.5-0.2-2.3-1.1-2.1-2.6
		c0.4-4.6,0.8-9.2,1.2-13.7c0.2-2.6,0.4-5.2,0.8-7.8c0.3-2,2.4-2.8,4-1.7c0.5,0.3,0.9,0.9,1.1,1.4c1.4,3.6,2.8,7.2,4.4,10.8
		c0.4-2.1,0.7-4.2,1.1-6.2c0.1-0.7,0.2-1.5,0.6-2.1c0.7-1.4,1.9-1.7,3.3-1.3c1.5,0.4,1.8,1.4,1.6,2.8c-0.8,4.7-1.5,9.4-2.3,14.1
		c-0.2,1.2-0.3,2.5-0.6,3.7c-0.4,1.9-1.7,3-3.5,2.6c-0.7-0.2-1.6-0.8-1.8-1.5c-1.2-3.2-2.3-6.4-3.4-9.6
		C478,260.8,477.8,260.8,477.7,260.9z"/>
	<path d="M309.1,267.8c0.4,2.7,0.9,5.5,1.3,8.2c0.4,2.3-0.8,3.6-2.9,3.5c-1.5-0.1-2.2-1-2.4-2.4c-1.1-6.8-2.2-13.6-3.4-20.5
		c-0.2-1.5,0.5-2.7,1.8-3.1c1.5-0.4,2.6,0.2,3.4,1.5c2,3,4.2,6,6.6,8.8c-0.2-2.2-0.4-4.5-0.6-6.7c-0.2-1.5,0-2.7,1.5-3.4
		c1.9-0.9,3.6,0,3.8,2.1c0.5,5.9,1,11.8,1.4,17.6c0.2,2-0.5,2.9-2.1,3.4c-1.5,0.4-2-0.3-3.1-2.1c-1.5-2.5-3.4-4.8-5.1-7.1
		C309.3,267.7,309.2,267.7,309.1,267.8z"/>
	<path d="M451.3,271.7c-2.5,0-4.6-1-6.1-2.9c-1.3-1.7-2.4-3.7-3.3-5.7c-0.8-1.7-0.3-2.9,1.2-3.5c1.5-0.6,2.9,0,3.6,1.6
		c0.5,1.1,1,2.3,1.6,3.4c0.7,1.1,1.6,1.9,3.1,1.8c1.2-0.1,1.4-0.8,1-1.6c-0.4-0.8-1.1-1.4-1.8-2c-1.8-1.6-3.9-3-5.6-4.8
		c-2.9-3-3.5-6.8-1.9-10.2c2.5-5.1,9-5.6,12.2-1c1.8,2.6,2.2,5.7,2.3,8.7c0,1.4-1,2.1-2.4,2.2c-1.5,0-2.7-1.1-2.9-2.6
		c-0.1-1.1-0.1-2.2-0.4-3.2c-0.3-0.9-0.8-1.8-1.4-2.4c-1.2-1.1-2.4-0.5-2.7,1.1c-0.2,1.7,0.3,3.2,1.5,4.3c1.4,1.3,3,2.4,4.5,3.6
		c1.9,1.5,3.6,3.1,3.9,5.7C458.4,268.3,455.4,271.7,451.3,271.7z"/>
	<path d="M576.3,273.4c3.8,4.9,2.2,10.5-1.3,12.9c-3.4,2.4-8.1,1.7-10.5-1.5c-3-3.9-1.9-8.1,3.2-12.3c-2.2-2.6-2.7-5.5-1.3-8.7
		c1.2-2.6,3.4-4.1,6.2-4.4c3.4-0.4,5.5,1.5,6,5.4C579.1,268,578.4,270.8,576.3,273.4z M573.6,279.3c-0.7-0.9-1.2-2.1-2.1-2.5
		c-1-0.4-3.4,2-3.4,3.2c0,1.2,1.1,2.3,2.4,2.4C571.9,282.5,573.2,281.1,573.6,279.3z M573.1,264.9c-2.5,1-2.8,2.8-0.7,4.6
		C573.6,268.2,574,266.7,573.1,264.9z"/>
	<path d="M386.1,271.8c-3.2,0-5.5-1.7-7.3-4.1c-0.8-1.1-1.5-2.4-2.1-3.7c-0.8-1.6-0.4-2.9,0.9-3.5c1.5-0.7,3-0.3,3.8,1.2
		c0.6,1,1,2.1,1.7,2.9c0.7,0.8,1.6,1.4,2.6,1.8c0.5,0.2,1.3-0.2,1.8-0.6c0.2-0.1,0-1.1-0.4-1.5c-0.6-0.7-1.4-1.3-2.2-1.9
		c-1.9-1.4-3.9-2.5-5.7-4.1c-3.3-3-4.1-7.2-2.3-10.6c2-3.8,6.6-4.9,10-2.4c3.4,2.5,4.3,6.2,4.6,10c0.1,1.4-1.1,2.1-2.4,2.2
		c-1.4,0.1-2.6-0.9-3-2.3c-0.3-1.2-0.4-2.4-0.8-3.5c-0.6-1.7-2.1-2.7-3.1-2.3c-1.1,0.4-1.5,2.5-0.3,3.9c1.1,1.4,2.6,2.6,4.1,3.7
		c1.4,1.1,3.1,1.9,4.5,3c2.3,1.9,3,4.8,2,7.4C391.7,270.2,389.1,271.9,386.1,271.8z"/>
	<path d="M429,266.6c0,1.7-1.1,3-2.5,3.1c-1.6,0.1-2.3-1-2.7-2.3c-0.2-0.5-0.2-1.1-0.3-1.7c-0.2-1-0.3-2.5-0.8-2.8
		c-1.2-0.5-2.8-0.5-4.2-0.5c-0.3,0-0.7,0.6-0.9,1c-0.5,1.4-0.9,2.8-1.4,4.2c-0.6,1.6-2,2.2-3.6,1.6c-1.5-0.6-2-1.6-1.4-3.4
		c2.2-6.7,4.4-13.3,6.6-20c0.4-1.4,1.2-2.3,2.6-2.6c1.4-0.2,2.1,0.7,3,1.5c1.3,1.3,1.5,3,1.8,4.6c1.2,5.3,2.4,10.6,3.6,15.9
		C428.9,265.8,429,266.3,429,266.6z"/>
	<path d="M303,277.2c0,1.8-0.6,2.8-1.8,3.3c-1.2,0.4-2.1-0.2-2.8-1.1c-0.4-0.5-0.6-1.1-0.8-1.7c-1-3.6-1.8-4.1-5.4-3.2
		c-0.4,0.1-0.9,0.8-1.1,1.2c-0.3,1.4-0.4,2.8-0.7,4.2c-0.3,1.6-1.7,2.5-3.3,2.2c-1.6-0.4-2.2-1.3-1.9-3.2c1.1-7,2.3-14.1,3.4-21.1
		c0.2-1.2,0.7-2.1,1.9-2.5c1.2-0.4,2,0.2,3,0.9c1.7,1.2,2.3,2.9,3,4.6c2,5,4,10,6,15C302.8,276.3,302.9,277,303,277.2z M294,268.8
		c-0.4-0.9-0.7-1.7-1-2.4c-0.1,0-0.3,0.1-0.4,0.1c-0.1,0.8-0.2,1.6-0.3,2.5c0.4,0,0.6,0,0.8,0C293.3,269,293.5,268.9,294,268.8z"/>
	<path d="M366.2,253.7c0.2,2,0.3,3.9,0.5,5.8c2.3,0,5.3-1.2,5.6,2.2c0.3,3.5-3,2.7-5.2,3.3c0.1,1.1,0.2,2,0.3,3c1.6,0,3,0,4.5,0
		c1.5,0,2.5,0.7,2.6,2.3c0.2,1.5-0.8,2.9-2.2,3c-2.5,0.2-5,0.4-7.5,0.5c-1.7,0.1-2.7-0.8-2.9-2.5c-0.6-7.3-1.2-14.6-1.8-21.9
		c-0.1-1.3,0.2-2.2,1.5-2.8c1.4-0.6,2.5-0.2,3.5,0.9c0.3,0.4,1,0.7,1.6,0.6c1.1,0,2.1-0.3,3.2-0.4c1.6-0.1,2.7,0.7,2.9,2.2
		c0.2,1.7-0.7,2.9-2.3,3.2C369.2,253.4,367.8,253.5,366.2,253.7z"/>
	<path d="M514.4,263.3c4.2,0.5,5.2,1.1,5.1,3.2c-0.1,1.9-1.1,2.3-5.8,2.2c-0.1,1-0.3,2.1-0.5,3.3c1.5,0.2,2.9,0.5,4.4,0.7
		c1.5,0.2,2.2,1,2.2,2.5c-0.1,1.5-1.1,2.7-2.4,2.5c-2.8-0.3-5.6-0.8-8.4-1.3c-1.4-0.3-1.8-1.4-1.6-2.8c0.6-4.7,1.3-9.4,1.9-14.2
		c0.4-2.6,0.8-5.1,1.2-7.7c0.2-1.3,0.9-2.1,2.2-2.2c1.3-0.2,2.5,0.3,2.9,1.6c0.3,0.9,0.7,1.1,1.6,1.1c1,0,1.9,0.2,2.9,0.3
		c1.9,0.2,2.7,1.1,2.5,2.9c-0.2,1.6-1.4,2.7-3,2.5c-1.3-0.1-2.7-0.3-4.3-0.4C514.9,259.5,514.6,261.4,514.4,263.3z"/>
	<path d="M268.1,270.6c0.3-1.1,0.4-3.1,1.1-4.8c1.9-4.6,7.3-5.4,10.3-1.6c1.2,1.6,2,3.6,2.6,5.6c0.5,1.7-0.4,2.9-1.9,3.2
		c-1.8,0.3-2.7-0.4-3.2-2.2c-0.3-1-0.7-2-1.2-3c-0.5-1-1.2-0.9-1.6,0.1c-0.3,1.1-0.8,2.2-0.6,3.3c0.4,2.5,0.9,5,1.7,7.4
		c0.2,0.6,1.2,1.1,1.8,1.6c0.4-0.6,0.9-1.2,1.1-1.9c0.2-0.7,0.1-1.6,0.2-2.4c0.1-1.3,0.9-2.1,2.2-2.2c1.3-0.2,2.4,0.3,2.9,1.6
		c1.4,3.5-1.3,9.2-4.8,10.3c-2.9,0.9-5-0.4-6.8-2.5C269,279.8,268.4,275.6,268.1,270.6z"/>
	<path d="M252.9,284.2c-0.1,1.4-0.1,2.1-0.2,2.9c-0.2,1.8-1.5,2.7-3.2,2.6c-1.5-0.2-2.3-1.3-2.1-3.1c0.2-2.1,0.5-4.3,0.6-6.4
		c0-0.8-0.3-1.9-0.8-2.5c-1.6-2.1-3.3-4-5.1-6c-1-1.1-1.2-2.3-0.4-3.6c0.9-1.5,2.8-1.8,4-0.4c1.1,1.1,2.1,2.4,3.3,3.7
		c0.3-2.3,0.5-4.4,0.8-6.4c0.2-1.7,1.6-2.6,3.1-2.4c1.6,0.2,2.2,1.1,2.1,3.1c-0.3,3.1-0.6,6.2-1,9.3c-0.2,1.4,0.1,2.5,1.1,3.5
		c1.6,1.7,3,3.5,4.5,5.3c1.2,1.5,1.1,3.1-0.2,4.2c-1.3,1.1-2.5,0.8-3.9-0.8C254.6,286.3,253.9,285.5,252.9,284.2z"/>
	<path d="M232,277.5c0.6,1.9,1.1,3.7,1.6,5.7c2.1-0.4,4.8-2.1,5.8,1.1c0.9,3.3-2.3,3.2-4.4,4.2c0.3,1,0.5,1.9,0.8,3.1
		c1.5-0.3,2.9-0.7,4.3-1c2-0.5,3.2,0.1,3.6,1.8c0.4,1.6-0.4,2.7-2.4,3.2c-2,0.5-3.9,1.1-5.9,1.6c-2.4,0.6-3.4,0-4.1-2.3
		c-1.9-6.8-3.7-13.6-5.7-20.5c-0.4-1.4-0.2-2.5,1.1-3.2c1.2-0.7,2.3-0.5,3.4,0.4c0.4,0.3,1.1,0.5,1.6,0.4c1-0.2,1.9-0.6,2.9-0.9
		c1.7-0.5,2.8,0,3.3,1.5c0.6,1.5-0.1,3-1.7,3.6C235,276.6,233.6,277,232,277.5z"/>
	<path d="M500.5,256.1c-2.1,1-2.8,2.5-3.1,4c-0.5,2.4-0.8,4.8-0.9,7.2c0,0.7,0.8,1.5,1.2,2.2c0.6-0.6,1.2-1.1,1.7-1.7
		c0.4-0.5,0.5-1.1,0.7-1.7c0.5-1.4,1.4-2,2.9-1.7c1.5,0.3,2.4,1.4,2.3,2.9c-0.2,2.7-3,6.4-5.5,7.2c-2.9,1-5.9-0.3-7.4-3.2
		c-1.6-3-1.5-6.3-0.9-9.5c0.5-2.6,1.5-5.2,2.7-7.6c1.3-2.4,3.5-3.6,6.4-3.2c3,0.4,4.5,2.3,5,5c0.4,1.7,0.4,3.6,0.3,5.4
		c-0.1,1.5-1.3,2.3-2.9,2.1c-1.5-0.2-2.2-1.1-2.3-2.6C500.7,259.4,500.6,257.9,500.5,256.1z"/>
	<path d="M338.9,252.9c0.1,1.7,0.2,3,0.3,4.5c1.2-0.1,2.2-0.3,3.3-0.4c1.6-0.1,2.5,0.6,2.8,2.1c0.3,1.6-0.5,2.8-2.1,3.1
		c-1.1,0.2-2.2,0.3-3.5,0.5c0.2,3.3,0.4,6.5,0.6,9.7c0.1,1.9-1,3.1-2.8,3c-1.4,0-2.3-0.6-2.4-2.1c-0.3-4.3-0.7-8.6-1-12.9
		c-0.3-3.6-0.5-7.2-0.7-10.9c-0.1-1.4,0.1-2.6,1.5-3.1c1.2-0.5,2.4-0.4,3.4,0.8c0.2,0.3,0.9,0.4,1.3,0.3c1.5,0,2.9-0.2,4.4-0.2
		c2,0,3.1,1,3.1,2.8c0,1.8-0.8,2.5-3,2.6C342.5,252.9,340.8,252.9,338.9,252.9z"/>
	<path d="M590.7,283.5c-2.2-0.2-4.2-0.4-6.1-0.6c-2.7-0.2-3.8-2.1-2.5-4.4c1.6-2.8,3.2-5.6,4.9-8.4c1.1-1.8,2.4-2.2,4-1.3
		c1.4,0.8,1.6,2.2,0.6,4c-1,1.7-2,3.4-3,5.3c1.2,0,2.2,0,3.4,0c0.2-0.7,0.3-1.5,0.5-2.3c0.4-1.5,1.5-2.3,3-2
		c1.5,0.3,2.5,1.7,2.2,3.1c-1,4.4-2,8.8-3,13.2c-0.4,1.5-1.7,2.3-3.1,2c-1.5-0.4-2.4-1.6-2.1-3.2
		C589.8,287.1,590.2,285.4,590.7,283.5z"/>
	<path d="M405.3,251.3c0,5.5,0,10.9,0,16.3c0,1.8-0.9,2.7-2.5,2.8c-1.7,0.1-2.7-0.8-2.7-2.7c-0.1-4.7-0.2-9.3-0.4-14
		c0-0.8-0.1-1.6-0.2-2.6c-1.2-0.1-2.3-0.2-3.4-0.3c-1.6-0.1-2.8-1.3-2.8-2.9c0-1.6,1-2.4,2.9-2.4c4.2,0.1,8.4,0.3,12.6,0.5
		c1.6,0.1,2.6,1.3,2.5,3c-0.1,1.5-0.8,2.2-2.6,2.2C407.7,251.3,406.4,251.3,405.3,251.3z"/>
	<path d="M468.4,249.3c-0.4,6.4-0.7,12.8-1.1,19.2c-0.1,1.3-0.2,2.6-1.7,3.1c-1.9,0.7-3.8-0.6-3.7-2.7c0.2-5,0.5-10,0.8-15
		c0.1-2.1,0.2-4.2,0.4-6.3c0.2-2,1.1-2.7,2.8-2.6c1.6,0.1,2.4,1,2.4,2.9C468.5,248.4,468.5,248.8,468.4,249.3
		C468.5,249.3,468.4,249.3,468.4,249.3z"/>
	<path d="M357.3,270.1c0.1,2.5-0.7,3.7-2.6,3.7c-1.4,0-2.4-0.6-2.5-2.1c-0.4-4.3-0.9-8.6-1.3-12.8c-0.3-2.7-0.5-5.4-0.8-8.1
		c-0.2-2.1,0.5-3.1,2.2-3.4c1.9-0.2,2.8,0.5,3,2.7C355.9,256.7,356.6,263.4,357.3,270.1z"/>
	<path d="M268.5,285.2c0.1,1.8-0.9,2.5-2.3,2.6c-1.5,0.2-2.5-0.5-2.9-2c-1-4.4-2-8.8-3-13.2c-0.5-2.4-1.1-4.7-1.6-7.1
		c-0.4-1.9,0.3-3.3,1.8-3.7c1.8-0.4,2.9,0.4,3.4,2.4c1.5,6.7,3,13.5,4.5,20.2C268.5,284.7,268.5,285.1,268.5,285.2z"/>
	<path d="M541.1,257.6c-0.6,3.2-1.2,6.9-1.8,10.5c-0.5,3-1.1,6-1.6,9c-0.3,1.9-1.4,2.7-3.2,2.4c-1.6-0.3-2.5-1.5-2.2-3.2
		c1.1-6.6,2.3-13.1,3.5-19.7c0.3-1.7,1.4-2.5,3-2.3C540.3,254.5,541.2,255.5,541.1,257.6z"/>
	<path d="M485.1,156.4c0-9.6,0-18.9,0-28.1c0-2.4-0.1-4.8-0.3-7.1c-0.1-1.1,0.3-1.6,1.4-1.7c3.4-0.5,6.9-1.2,10.3-1.6
		c3-0.3,6.1-0.4,9.1-0.4c2.6,0,5,0.9,7.1,2.4c2.1,1.5,2.2,3.7,1.9,6c-0.7,4.7-3.5,8.4-6.6,11.8c-6.5,7-13.9,13-21.8,18.4
		C486.2,156.1,486,156.1,485.1,156.4z"/>
	<path d="M175.6,201.8c-6.2,1-12.4,2-18.9,3c3.2-10.9,6.4-21.7,9.7-32.8C169.5,182.1,172.6,192,175.6,201.8z"/>
	<path d="M587.5,180.3c-0.9-8-1.8-15.8-2.7-23.6c-0.3-2.2-0.6-4.5-1-6.7c-0.2-1.3,0.1-2,1.5-2.3c3.5-0.7,6.9-1.5,10.4-2.3
		c1.7-0.4,3.3-0.9,5-1.1c2.7-0.3,5.4-0.1,7.9,1.1c1.7,0.9,2.5,2.3,2.6,4.2c0.4,5.3-2.4,9.3-5.4,13.1c-5,6.4-10.9,11.8-17.2,16.9
		C588.3,179.9,588,180,587.5,180.3z"/>
	<path d="M333.4,147.3c-0.3,8.9-3.2,17.8-10.6,24.7c-1.9,1.8-4.1,3.4-7,3.7c-4.1,0.5-9.1-3.7-10.5-7.9c-1.7-5.1-0.9-10,0.6-14.9
		c2.5-7.6,6.6-14.1,13.3-18.7c2.1-1.4,4.8-2.1,7.3-2.8c1-0.3,2.1,0.1,2.9,1.2C332.6,136.8,333.3,141.5,333.4,147.3z"/>
	<path d="M431.3,156.6c-0.8-0.6-1.4-1.1-2.2-1.5c-4.3-2.4-3.9-9.1,0.5-11.8c4-2.5,8.2-2.1,12.4-0.8c1.2,0.4,2.5,0.4,3.8,0.8
		c0.7,0.2,1.5,0.7,1.7,1.2c1.6,4.3-0.1,9.1-5,10.2c-2.5,0.6-5.2-0.8-6.2-3c-0.6-1.4-0.2-2.5,1.1-3.4c0.3,0.4,0.6,0.7,0.9,1.1
		c0.5,0.8,1.2,1.6,2.1,0.8c0.6-0.6,1.3-1.7,1.2-2.5c-0.2-1.7-1.7-2.4-3.2-2.6c-1.7-0.3-3.1,0.4-4.1,1.9c-1.8,2.7-0.7,6.5,2.2,8
		c0.7,0.4,1.5,0.6,2.2,1c0.4,0.3,1,0.8,1,1.1c0,0.4-0.6,0.9-1,1.1c-1.7,0.7-3.6,1.1-5.2,2c-3.8,2.1-4.9,6.8-2.4,10.4
		c1.5,2.1,4.4,3,7,2.2c1.9-0.6,3-2.6,3.1-5.2c0.1-2,0-3.8-2.4-4.5c-0.3-0.1-0.8-0.9-0.7-1.3c0.1-0.4,0.7-0.9,1.2-0.9
		c0.7-0.1,1.4,0.3,2.2,0.3c2.7,0,5.4-0.1,8.1-0.1c0.8,0,1.5,0.3,2.3,0.4c-0.3,0.7-0.5,1.6-1.1,2c-2.5,2-2.6,6.4-0.2,8.8
		c0.4,0.4,0.3,1.8,0,2.3c-1.8,2.6-4.4,4.2-7.4,5.1c-5.7,1.7-11.3,1.6-16.2-2c-6.6-4.8-6-14.8,1-19.2
		C428.9,157.8,430,157.3,431.3,156.6z"/>
</g>
</svg>
