<svg enable-background="new 0 0 546 152" viewBox="0 0 546 152" xmlns="http://www.w3.org/2000/svg"><g fill="#b3b3b3"><path d="m121.4 134.2h-3.3v14.1h2.2v-5.3h1.1c2.2 0 3.3-1.2 3.3-3.5v-1.8c0-2.3-1.1-3.5-3.3-3.5zm1.1 5.4c0 1-.4 1.3-1.1 1.3h-1.1v-4.8h1.1c.7 0 1.1.3 1.1 1.3z"/><path d="m135.8 134.2h2.2v14.1h-2.2z"/><path d="m149.6 136.2h4l-4.2 10.1v2h6.4v-2h-4.2l4.2-10.2v-1.9h-6.2z"/><path d="m167.1 136.2h4l-4.2 10.1v2h6.5v-2h-4.2l4.2-10.2v-1.9h-6.3z"/><path d="m186.4 134.2-2.3 14.1h2l.4-2.6h2.7l.4 2.6h2.2l-2.3-14.1zm.5 9.6 1.1-7.1 1.1 7.1z"/><path d="m219.5 134.2h-3.3v14.1h2.2v-5.3h1c2.2 0 3.3-1.2 3.3-3.5v-1.8c.1-2.3-1-3.5-3.2-3.5zm1.1 5.4c0 1-.4 1.3-1.1 1.3h-1v-4.8h1c.7 0 1.1.3 1.1 1.3z"/><path d="m235.3 134.2-2.3 14.1h2l.4-2.6h2.7l.4 2.6h2.2l-2.3-14.1zm.4 9.6 1.1-7.1 1.1 7.1z"/><path d="m253.8 137.4c0-1 .4-1.4 1.1-1.4s1.1.4 1.1 1.4v.6h2.1v-.4c0-2.3-1.1-3.5-3.3-3.5s-3.3 1.3-3.3 3.5c0 4 4.3 4.6 4.3 7.5 0 1-.4 1.4-1.2 1.4-.7 0-1.1-.4-1.1-1.4v-1h-2.1v.9c0 2.3 1.1 3.5 3.3 3.5s3.3-1.3 3.3-3.5c.2-4.1-4.2-4.7-4.2-7.6z"/><path d="m268.9 136.2h2.3v12.1h2.2v-12.1h2.3v-2h-6.8z"/><path d="m287.6 134.2-2.3 14.1h2l.4-2.6h2.7l.4 2.6h2.2l-2.3-14.1zm.5 9.6 1.1-7.1 1.1 7.1z"/><path d="m317.4 148.3h6.1v-2h-3.8v-4.2h3v-2h-3v-3.9h3.8v-2h-6.1z"/><path d="m353.3 140.8c1-.5 1.4-1.4 1.4-2.8v-.5c0-2.2-1-3.2-3.3-3.2h-3.3v14.1h3.5c2.2 0 3.4-1.2 3.4-3.3v-1.1c0-1.7-.5-2.8-1.7-3.2zm-3-4.6h1.1c.8 0 1.1.4 1.1 1.5v.8c0 1.1-.5 1.5-1.3 1.5h-.9zm2.5 8.7c0 1-.4 1.4-1.2 1.4h-1.3v-4.3h1c1 0 1.4.4 1.4 1.7v1.2z"/><path d="m368 134.2-2.3 14.1h2l.4-2.6h2.7l.4 2.6h2.2l-2.3-14.1zm.5 9.6 1.1-7.1 1.1 7.1z"/><path d="m386.6 137.4c0-1 .4-1.4 1.1-1.4s1.1.4 1.1 1.4v.6h2.1v-.4c0-2.3-1.1-3.5-3.3-3.5s-3.3 1.3-3.3 3.5c0 4 4.3 4.6 4.3 7.5 0 1-.4 1.4-1.1 1.4s-1.1-.4-1.1-1.4v-1h-2.1v.9c0 2.3 1.1 3.5 3.3 3.5s3.3-1.3 3.3-3.5c0-4.1-4.3-4.7-4.3-7.6z"/><path d="m401.6 136.2h2.3v12.1h2.2v-12.1h2.3v-2h-6.8z"/><path d="m420.4 134.2-2.3 14.1h2l.4-2.6h2.7l.4 2.6h2.2l-2.3-14.1zm.4 9.6 1.1-7.1 1.1 7.1z"/><path d="m3.1 55.9c0 14.5 4.9 26.5 14.8 35.8 9.1 8.6 21 13.7 35.6 15.2v-76.2-.6h-13.3l2.4 7.5h3.4v60.8c-10.6-2.3-19.1-7.3-25.7-15s-9.8-16.8-9.8-27.5c0-12.5 4.1-22.8 12.4-31s18.5-12.3 30.5-12.3v-7.3c-14.2 0-26.2 4.9-35.9 14.5-9.5 9.8-14.4 21.8-14.4 36.1z"/><path d="m83.1 3.9c-7.2 0-11.9 2.9-14.2 8.7-1.2 3.1-1.8 9-1.8 17.5h-6.4l2.4 7.5h4v69.3h7.5v-69.3h17.2v69.3h7.3v-83.3c0-6-1.1-10.6-3.4-13.9-2.6-3.8-6.8-5.8-12.6-5.8zm8.6 26.2h-17.2v-9.1c0-2.8.8-5.2 2.4-6.9 1.6-1.8 3.8-2.7 6.6-2.7 2.6 0 4.7.9 6.1 2.7s2.1 4.1 2.1 6.9z"/><path d="m107.4 12.8h12.1v94.1h7.4v-94.1h11.9v-7.5h-31.4z"/><path d="m172.2 5.3h-31.4v7.5h12v94.1h7.5v-94.1h11.9z"/><path d="m255.9 93.1c10.2-10.2 15.2-22.4 15.2-36.7s-5-26.6-14.9-36.9-22-15.5-36.2-15.5c-14.9 0-27.5 5.1-37.8 15.2-10.3 10.2-15.4 22.7-15.4 37.6 0 14.4 5.1 26.6 15.4 36.6s22.5 14.9 36.9 14.9c14.5 0 26.7-5.1 36.8-15.2zm-68.5-5.4c-8.7-8.7-13.1-19.2-13.1-31.5 0-12.1 4.3-22.6 12.9-31.5s18.9-13.3 30.8-13.3c12.9 0 23.8 4.3 32.6 12.9s13.3 19.4 13.3 32.4c0 12.2-4.4 22.6-13.2 31.1-8.8 8.6-19.3 12.9-31.6 12.9-12.4.1-23-4.2-31.7-13z"/><path d="m301.2 38.7-15.4-35.2-16.8 103.4h7.8l12.2-78.7 12.2 28.8 11.9-28.4 12.4 78.3h7.7l-16.8-103.4z"/><path d="m370.8 106.9v-83.3c0-6-1.1-10.6-3.4-13.9-2.6-3.9-6.9-5.8-12.6-5.8-7.2 0-11.9 2.9-14.2 8.7-1.2 3.1-1.8 9-1.8 17.5h-6.4l2.4 7.5h4v69.3h7.5v-69.3h17.2v69.3zm-24.5-76.8v-9.1c0-2.8.8-5.2 2.4-6.9 1.6-1.8 3.8-2.7 6.6-2.7 2.6 0 4.7.9 6.1 2.7s2.1 4.1 2.1 6.9v9.1z"/><path d="m379.2 12.8h12v94.1h7.5v-94.1h11.8v-7.5h-31.3z"/><path d="m443.9 5.3h-31.4v7.5h12.1v94.1h7.4v-94.1h11.9z"/><path d="m528 19.4c-9.9-10.3-22-15.5-36.2-15.5-14.9 0-27.5 5.1-37.8 15.2-10.3 10.2-15.4 22.7-15.4 37.6 0 14.4 5.1 26.6 15.4 36.6s22.5 14.9 36.9 14.9c14.3 0 26.5-5.1 36.7-15.2 10.2-10.2 15.2-22.4 15.2-36.7.1-14.3-4.9-26.6-14.8-36.9zm-5.6 68.5c-8.8 8.6-19.3 12.9-31.6 12.9-12.4 0-23-4.4-31.7-13.1s-13.1-19.2-13.1-31.5c0-12.1 4.3-22.6 12.9-31.5s18.9-13.3 30.8-13.3c12.9 0 23.8 4.3 32.6 12.9s13.3 19.4 13.3 32.4c0 12.3-4.4 22.7-13.2 31.2z"/></g></svg>