<svg id="Layer_1" xmlns="http://www.w3.org/2000/svg" viewBox="0 0 503.5 295"><style>.st0{display:none}.st1,.st2{display:inline;fill:#1a1a1a}.st2{fill:red}.st3{fill:#b3b3b3}</style><g id="Layer_1_1_" class="st0"><path class="st1" d="M196.2 93l-25.6 111.7h15.5l6.7-30.8h23.6l6.6 30.8h15.7L214.6 93h-18.4zm-1.5 68.4l5.4-26.7c1.5-7.1 3.2-17.4 4.4-25.5h.7c1.2 8 2.7 17.9 4.2 25.5l5.2 26.7h-19.9zM297.8 90H282v41.9h-.3c-2.9-6.1-8.1-9.1-14.6-9.1-13 0-25.3 13.4-25.3 41.9 0 25 9.3 41.3 24.4 41.3 8.2 0 14.5-5.5 17.2-11.1h.5l1 9.8h13.6c-.3-5.6-.7-14.6-.7-20.7V90zM282 176.3c0 1.8-.2 3.8-.5 5.1-2.7 9.6-7.4 11.4-10.9 11.4-8.4 0-12.8-11.6-12.8-28.2 0-14.9 3.4-28.5 13.3-28.5 5.7 0 9.9 6.3 10.8 13.6.2 1.7.2 3.5.2 5l-.1 21.6zm54.3-53.5c-15 0-29 12.4-29 41.8 0 27.7 11.8 41.4 28.1 41.4h.2c12.5 0 28.5-9.8 28.5-41.8 0-27.1-11.6-41.4-27.8-41.4zm-.3 70.9h-.2c-10.3 0-12.6-15.9-12.6-29.3 0-12.1 2-29.3 12.5-29.3 10.1 0 12.3 17.2 12.3 29.3-.1 12.3-2.2 29.3-12 29.3zm71-70.9c-7.2 0-13 3.1-17.2 10.4h-.3V90h-15.8v94c0 6.1-.3 15.2-.7 20.7h13.6l.8-10.1h.7c3.5 7.1 8.1 11.4 16.2 11.4 13.5 0 25.4-14.1 25.4-42.9 0-24.7-8.7-40.3-22.7-40.3zm-6.2 70.1c-3.2 0-8.1-2-10.6-11.8-.5-1.3-.7-3.1-.7-5v-22.5c0-1.7.2-3.8.5-5.5 1.2-5.8 5.4-11.9 10.6-11.9 9.4 0 13.1 12.4 13.1 27.8 0 16.6-3.5 28.9-12.9 28.9zm91-33.8c0-20.2-7.9-36.3-24.9-36.3s-29.3 16.2-29.3 42.6c0 24.9 10.8 40.1 31.3 40.1 7.2 0 14.6-1.3 19.5-3.8l-2.4-11.3c-3.5 1.7-8.4 3-14.1 3-9.6 0-18.7-5.1-18.9-25.9l38.4.2c.2-2.1.4-4.6.4-8.6zm-38.6-2.6c.5-10.1 4.2-21.9 12.5-21.9 6.2 0 11.3 7.6 11.1 21.9h-23.6z"/><path class="st2" d="M44.1 182.3l20.7-47.9 30.1 70.3H75.2l-9-22.4H44.1zM.8 93.3h47.3L.8 204.7V93.3zm127.9 111.4L81.4 93.3h47.3v111.4z"/></g><g id="Layer_2_1_"><path class="st3" d="M165.1 252.8l2 1.2c.1.1.2.4.2.6.9 4.9 1.8 9.8.4 14.7-1.1 3.7-3.1 6.8-6 9.2-2.7 2.2-6 2.9-9.6 2.5-1.8-.2-3.7-.9-5.6-1.2-1.6.6-2.6 2.3-4.5 2.1-2.1-1.7-2.8-3.8-2.1-6.5.5-1.8.5-3.8-.2-5.6-.4-1-.5-2.2-.6-3.3-.2-5.2-1.1-10.3-1.6-15.5-.1-1.1-.1-2.2-.2-3.3.9-.7 1.7-1.4 2.7-2.2 1.1.4 2.5.7 4.2 1.2 1-.2 2.1-1.1 3.1-2 1.1-1 2.3-1.4 3.7-1.1 1.1.2 2.1 0 3.3-.4 1.6-.6 3.3-.4 4.8.7 1.7 1.4 3.4 2.5 4.8 4.3.5.7 1 1.5.9 2.5-.2.7.3 1.6.3 2.1zm102.1 29.8c-.2-.5-.5-.9-.7-1.2-.7-.9-1.5-1.2-2.3-.6-1.1.7-2.1.6-3.2.2-3.9-1.2-6.1-4.7-5.6-8.8.2-1.7 0-3.7 1.5-5-.5-1.4-1-2.7-1.5-3.9-1.1-2.8-1.1-5.5 1-8 1.6-1.8 1.6-3.6.9-5.6-.9-2.2-.9-4.7-.9-7 0-3.2 1.2-5.6 4.2-7.2.5-.2 1-.6 1.5-.9 1-.5 2-1.1 2.6-2.1 1.2-1.8 2.9-2 4.8-1.4s3.6 1.4 5.5 2.1c.7-.6 1.8-1.1 2.5-2 1.1-1.5 2.6-1.7 4.2-1.8 1.7-.2 3.3.1 4.8 1.2 2.8 2.1 3.7 5.5 2.3 9.2-.9 0-1.7.2-2.6 0-1.6-.6-2.5.6-3.3 1.2-1 .7-1.6 1.8-1.5 3.2.1 1.2.1 2.5 0 3.7-.1 3.8-1.7 6.8-4.9 8.7-.7.4-1.5.7-2 1.4-.7 1-.7 2.3.9 2.5 1.6.1 3.1.4 4.3 1.7.2.4 1.1.4 1.6.4 1.1 0 2.3 0 3.3-.4 1.6-.7 2.8-.1 4.1.9 2 1.6 3.3 3.7 3.4 6.5-1 1-2.1 2.1-3.2 3.3-1 1.1-2 2.5-2.9 3.7.2.9.5 1.6.6 2.3-1 1.4-2.5 2-4.1 2.5-5.1 1.2-10.2 1.6-15.3 1.2zm2.4-6.6c.6 0 1.2-.1 1.7 0 1.2.6 2.5.5 3.7.2 1.1-.1 2.2-.1 3.3-.4 1.7-.4 3.6-.9 5.2-1.6 1.2-.6 2.1-1.6 3.1-2.6.6-.6.5-1.5 0-2.2-.9-1.2-2.1-2-3.6-2.5-2-.7-3.9-.9-6-.7-3.2.2-6.5.5-9.7.9-1 .1-2 .5-2.9.9-1.4.5-2.3 1.4-2.8 2.7-.6 1.4-.5 2.1.6 2.9 2.1 1.5 4.3 2.8 6 4.8.1.1.4 0 .7 0 .2-.7.5-1.6.7-2.4zm7.9-32.2c-1.7-1.6-3.1-2.9-4.4-4.3-.4-.2-.7-.6-1.1-.7-3.4-1.5-7.7-.5-9.5 2.8-.5.7-.7 1.6-1.1 2.5-1 2.1-.5 3.9.9 5.8 1.2 1.7 2.9 2.7 4.7 3.8 1.8 1.1 3.6 1 5.4.1 1.6-.7 2.7-2 3.6-3.6.2-.5.5-1.4.2-1.8-.7-2 .1-3.4 1.3-4.6zm-15 14.2c-.7.9-2.1 1.6-2.3 3.1 2.3 2.8 4.2 3.1 6.6.9.7-.6 1.4-1.6 1.8-2.3.4-.6-.1-1.5-.9-1.5-1.5 0-3.2 0-5.2-.2zm197.6-14.8c1.1-1 2.1-1.7 2.1-3.1 0-2.1 1.4-2.9 3.1-3.6 1.8 1.6 2 3.4 1.2 5.8-1.8.1-3.8.2-4.7 2.6.1.5.1 1 .2 1.5 0 .1-.1.2-.1.4-.2.1-.4.4-.5.4-.9.1-1.7-.1-2.6.5-1.4.9-2.8.9-4.1-.2-1.4-1-2.5-.6-3.7.2-1.5 1.1-3.2 2.1-4.5 3.1-1.5-.2-1-1.5-1.5-2.2-1.5.5-2.8 1.1-4.1 2.1-2 1.7-4.1 1.8-6.3.5-2.1-1.2-3.7-3.1-4.7-5.3-2.1-4.5-1.1-9.5 2.5-13.1.7-.7 1.6-1.5 2.6-2.3-.9-1.2-2-1.7-3.1-2.1-1.5-.5-2.7-1.1-3.7-2.6V223c0-2.5 1.2-4.3 2.9-5.9.2-.2.6-.5.9-.5 1.2.1 2.1-.9 3.2-1.1 2.3-.5 4.3-1.8 6.8-1.8.5 0 1-.2 1.4 0 1.8.9 3.6.1 5.2-.6 1.2.7 2.5 1.5 3.4 2.2s1.6 1.6 2.3 2.5c.6.7.9 1.7.4 2.6-.9 1.5-.2 2.8.2 4.2.5.1 1 .2 1.7.4.1 1.2.1 2.5.2 3.7.2 3.4.5 7 .9 10.4 0 1.5.3 3.2 2.4 4.1zm-19.8-15c2.2-.1 4.2-.9 6.3-.4 1.4.2 2.5-.4 3.2-1.5.5-.6.9-1.2 1.4-1.8-1.7-4.2-3.7-5.4-8.1-5h-.4c-2.6.2-4.2 1.6-4.9 3.9-.4 1.1-.4 2.2.7 3.1.7.5 1.2 1 1.8 1.7zm-260.1 29.1c-.2-.4-.4-.7-.6-1-1.2-1-1.4-2.2-1.2-3.7.4-2.5-.5-4.4-2.1-6.1-.5-.6-1-1.1-1.8-1.4-.9-.2-1.6-.9-2.5-1.5.1-.6 0-1.2.4-1.6.7-.7 1.7-1.7 2.7-2 2.3-.5 4.7-.6 6.9-.9 1.1 1 1.4 2 1.5 3.1.2 1.7.4 3.4.5 5 .4 5.6 1.1 11.2 2.2 16.7.2 1.1.6 2.2.9 3.3.9 2.9 4.8 4.3 7.5 2.6.9-.5 1.7-1.2 2.3-2 1.2-1.5 2.2-3.2 3.3-4.7.7-1 1.4-2 2.3-3.3-.1-1.1-.4-2.7-.6-4.3-.4-2.2-.4-4.4-.2-6.6.2-2.7-1.5-4.9-4.1-5.8-1.2-.4-2.5-1-3.6-1.5-.4-2 1.1-2.6 1.8-3.4 3.1-.4 5.9-.7 9-1.2 1.4 1.5 1.5 3.4 1.6 5.3.9 6.9 1.5 13.8 2.1 20.5.1.6.1 1.4.1 2 0 1.5.9 2.3 2.2 2.7.6.2 1.4.2 2 .6s1.1 1 1.7 1.5c-.7 1.6-1.5 3.1-2.2 4.8-1.7.2-3.8.5-5.8.9-1.6-1.4-3.2-2.5-4.8-3.8-.9.7-1.6 1.5-2.2 2.2-2.6 2.6-5.8 3.8-9.5 3.7-2.5 0-4.4-.7-6.1-2.5-2.2-2.2-3.8-4.8-4.4-7.9-.4-1.6-.5-3.3-.9-5-.3-1.9-.2-3.5 1.6-4.7zm146.4-7.8c.7 2.1.2 3.9-.6 5.9-2.2 5.4-6.6 7.7-11.9 9-2.6.6-4.9-.1-6.3-2.6-1.8-.6-3.1.7-4.5 1.4-1.6-.6-3.1-1.7-4.4-2.9.7-2.1-1-3.6-1.1-5.5-1.5.2-2.3-.4-2.7-1.6-.2-1.1-.6-2.2-.7-3.3-.2-1.8-.4-3.8-.6-5.8-.5-2.6.5-4.9.6-7.4 0-.2.1-.5.2-.6 1.7-1.1 1.7-3.3 3.2-4.7 1.1-1 2.1-2.1 3.2-3.1 3.1-2.7 6.5-3.8 10.6-3.1.5.1.9.1 1.2.2.7-.5 1.4-.9 2.1-1.4 3.2 2.6 6.4 5.2 9.5 7.7.6 2-1.8 3.4-.5 5.4.5 0 1 .1 1.7.1 1 1.5.9 3.2.9 4.8-1.2 1.4-2.8 1.7-4.5 2-5.2.6-10.3 1.2-15.5 2-1.5.1-2.9.5-4.4.7-.6 1.4-2.1 2.2-2 3.8 3.8 4.7 3.8 4.7 8.1 7.4 2.9 1.8 5.8 1.5 8.2-1.1 1.5-1.6 2.9-3.4 4.4-5.2.4-.4.7-.9 1.1-1.2 1.1-1.7 2.6-2.1 4.4-1.5-.1.2 0 .3.3.6zm-26.9-10.2c2.2 2.2 2.2 2.3 4.5 2.1 3.7-.4 7.4-.9 11.1-1.2 1-.1 1.7-.2 2.3-1 .5-.7 1-1.5 1.6-2.2-.4-.6-.7-1.2-1.1-1.7-.5-.6-1-1.2-1.6-1.7-3.2-2.7-10.1-2.7-13.3 0-1.8 1.4-2.9 3.3-3.5 5.7zm-.7 15.8c.2.5.4.7.5.9.2.1.5.1.9.1-.1-.2-.1-.5-.4-.6-.2-.3-.4-.3-1-.4zm95.2-34.5c.7-.6 1.6-1.1 2.7-2 1.2.2 2.6.7 4.3 1.1 1-.6 2.1-1.4 3.1-2.2 1.1-1 2.3-1.5 3.7-1 1.1.4 2 .1 2.9-.4 1.7-.7 3.3-.6 4.8.6 1.2 1.1 2.7 2 3.9 3.2 1.1 1.1 2.1 2.2 1.7 4.2-.1.9.1 2.3 1.8 2.3.2 0 .5.4.7.6.1.2.2.6.4 1 .6 4.1 1.5 8.2.9 12.4-.7 4.4-2.9 8-6.1 11.1-1.7 1.6-3.8 2.3-6.1 2.6-2.2.2-4.5.1-6.8-.5-.9-.2-1.7-.5-2.8-.7-1.4.6-2.5 2.2-4.4 2.2-2.1-1.6-2.8-3.9-2.2-6.5.5-2.2.4-4.2-.4-6.3-.4-1-.5-2-.5-2.9-.2-5.6-1.4-11.2-1.7-16.8.1-.7.1-1.3.1-2zm24.6 7.4c-1.2-1.1-2.8-2.6-4.4-4.1-.7-.7-1.7-1-2.8-.7-1.7.2-3.6.5-5.5.7-1 1.4-2.1 2.8-3.1 4.3-1.2 2-1.8 4.1-1.4 6.4.2 1.2.4 2.5.4 3.7-.1 2.8 1.4 4.9 3.1 6.9 1.2 1.4 2.8 2.2 4.7 2.5.6 0 1.4 0 2 .2 2 .9 3.6 0 4.9-1.2 2.3-2.1 3.7-4.5 3.6-7.7-.1-2.1-.5-4.3-.6-6.4-.5-1.4-.7-2.8-.9-4.6zm65.7.9c-.6.2-1.1.5-1.6.6-2.3.5-3.3-.2-3.7-2.7-.2-1.5-.4-2.9-.6-4.3-.2-1.4-.5-2.7-1-3.9-.7-2-2-2.7-4.2-2.5-1 .1-2 .1-3.1.1-.6 0-1.1-.1-1.7-.2-1-.4-1.7-1-2-2.1-.2-1.2.2-2.2 1.2-2.9 1.4-.9 2.9-1.2 4.5-1.4 1.2-.1 2.5 0 3.7-.4 2.8-.7 3.7-.7 5.8.7 1.1.7 2.2 1.5 3.3 2.2 1.5-.5 2.3-1.5 3.4-2.3 1.2-.9 2.3-1.8 3.4-2.7.9-.7 1.7-1 2.8-.9 1.2.1 2.5 0 3.8 0 1.5 1.2 3.2 2.6 4.9 3.9.1 1.6.2 3.2.2 4.9.1 1.4-.4 2.7-1.1 3.8-1.4 2-3.7 2.3-5.5 1-1.1-.9-2.1-1.5-2.6-3.1-.4-1.5-1.6-2.3-2.8-3.2-2.2 1.5-4.2 3.8-5.8 6.5-1.1 3.1-1.2 5.9-1.3 8.9zm-4.8-14c-.1-.1-.1-.4-.2-.5 0 .1-.2.1-.2.2s.1.4.2.5c.1 0 .1 0 .2-.2zm-126.8 13.4c-5.2 4.4-6.9 7.9-7.4 15-.4.1-.9.5-1.4.6-2.7.5-3.6 0-3.9-2.7-.2-2-.6-4.1-.9-6-.1-.9-.5-1.7-.9-2.6-.7-1.7-2.1-2.5-4.1-2.1-1.6.4-3.1.2-4.7-.2-1.1-.2-1.7-1-2-2.1-.2-1.2.1-2.3 1.4-2.8 1-.5 2.1-.7 3.2-1.1 2.1-.6 4.3 0 6.3-1.2 1.4.1 2.7.1 3.8.9 1.4 1 2.7 2 4.4 2.8 2-1.5 3.8-2.8 5.6-4.4 1.4-1.1 2.7-1.6 4.3-1.5 1.1.1 2.2 0 3.3 0 1.6 1.2 3.1 2.6 4.7 3.8.1 1.2.4 2.5.5 3.7.1 1.5 0 2.9-.6 4.3-1.2 2.7-3.9 3.4-6.4 1.6-1-.7-1.8-1.4-2.2-2.8-.3-1.4-1.7-2.4-3-3.2zm-12.2 1.1c-.1-.1-.1-.4-.2-.5 0 .1-.1.1-.1.2 0 .2 0 .4.1.5s.1 0 .2-.2zm-102.6 10.8c-2.5 1.7-4.1 4.2-5.5 6.6-1.6 2.5-1.7 5.3-1.6 8-.2.2-.4.5-.6.6-3.7 1.2-4.7.6-5.2-3.2-.2-1.8-.5-3.8-.9-5.6-.1-.9-.5-1.7-1-2.6-.7-1.2-1.8-1.8-3.4-1.6-1.2.1-2.5.2-3.7.1-.7 0-1.6-.4-2.2-.7-1.5-.9-1.6-2.9-.4-4.1 1.1-1.1 2.6-1.5 4.1-1.7 1.1-.1 2.2-.1 3.3-.2.5 0 1.2 0 1.6-.4 1.8-1.2 3.4-.4 4.9.5 1.4.7 2.6 1.7 4.1 2.7 2-1.2 3.7-2.7 5.4-4.1 1.6-1.5 3.3-2.3 5.5-1.8.7.1 1.6 0 2.6 0 1.5 1.2 3.2 2.6 4.8 3.8.1 1.4.4 2.6.4 3.8 0 1.4-.1 2.7-.5 3.9-.6 2-2.1 2.9-4.1 2.8-.5 0-1.2-.1-1.6-.5-1.1-1-2.7-1.6-2.9-3.4-.4-1.1-1.7-2.1-3.1-2.9zm-12.2 1.3c0-.1.1-.2.1-.2s-.1-.1-.2-.1c0 .1-.1.2-.1.2.1-.1.2-.1.2.1zm118 4.9c.9.4 1.7.7 2.6 1.1.7 2.3 1.1 4.9 3.8 6.1 1.6-.2 3.2-.5 5.2-.9.6.7 1.8.7 2.3 2 .9 1.8.5 3.7-1.4 4.5-.9.5-1.8.7-2.9.9l-14.7 1.8c-1.6.1-3.1.1-5 .2-.6-.7-1.4-1.6-2.1-2.5 0-1.1.5-2 1.5-2.7.9-.6 1.5-1.4 2.5-2.3.9.1 2 .4 3.2.6.6-.7 1.4-1.6 2-2.5.1-4.5.1-4.5 3-6.3zm-125.1 27.5c-.6-.7-1.4-1.5-2-2.1 0-1.4.6-2.1 1.6-2.8.9-.6 1.6-1.6 2.3-2.5 1 .2 2 .5 3.1.9.7-.9 1.5-1.7 2.2-2.7-.5-2.6-.2-5.2 2.9-6.3.7.2 1.6.5 2.6.9.1.4.5.9.6 1.5.5 2 1.4 3.6 3.2 4.7 1.7-.2 3.4-.5 5.4-.7.4.2 1 .5 1.5 1 1.8 1.6 1.7 4.2-.4 5.4-.7.5-1.6.7-2.6.9-2.5.4-4.9.6-7.4.9-4 .3-8.2 1.3-13 .9zm251.7-28.6c.4-2.6 2.8-3.2 3.9-5.2 1.2.2 2.2.6 3.3.9.7-.9 1.5-1.7 2.1-2.7-.1-2.5-.5-5.2 3.1-6.3.6.2 1.5.5 2.5.9.1.4.4.6.5 1 1 3.3 1 3.4 3.3 5.3 1.7-.2 3.4-.5 5.4-.7.2.2.6.5 1 .7 1.4.6 1.7 1.8 1.7 3.1 0 1.5-1 2.6-2.3 2.9-1.2.4-2.6.6-3.9.7-2.2.2-4.4.5-6.8.7-3.7.4-7.4.9-11.2 1.4-1-1-1.7-1.9-2.6-2.7zm-328.3-2.7c-2 .4-3.4.6-5.2 1-.1-.9-.2-1.5-.2-2.1-1.7-1.4-3.7-2.1-5.9-1.8-1.4.1-1.4 0-4.3-2.1.1-.7.2-1.6.5-2.6 1.8-.6 3.7-1.1 5.4-1.7.4-.1.9-.2 1.2-.6.9-.9 2.1-.9 3.2-.9 3.2-.1 4.3.7 4.7 3.9.2 1.6.4 3.3.5 5 .2.5.1 1.1.1 1.9zM399 215.8c-1.8.4-3.3.6-5 .9-.1-.5-.1-1-.2-1.4-.1-.2-.2-.7-.5-.9-1.5-.6-2.7-2.1-4.5-1.7s-3.4-.5-4.9-1.6c-.1-.2-.2-.4-.2-.6 0-.6.1-1.4.2-2 1.7-.7 3.2-1.7 5-2 .7-.1 1.5-.6 2.1-1 1.7-1 3.4-1 5.2-.4 1 .4 1.8 1 2.1 2.1.4 3 .9 5.7.7 8.6zm66.1 30.3c-1.6 2.9-1.6 2.9-3.4 3.1.8-1.5 1.9-2.5 3.4-3.1zM173 247c-.9-.7-1.8-1.5-2.8-2.3.5-.1.7-.4.9-.2.9.5 1.6 1.3 1.9 2.5z"/><path class="st3" d="M326.6 249.5l-.5-.5v-.6c0-.1.1-.2.2-.5.9.2 1.4.9 2 2.1-1-.3-1.3-.4-1.7-.5zm-144.5-12.3c.9.7 1.5 1.4 2.1 2-.2.2-.5.5-.5.4-1.3-.8-1.3-.8-1.6-2.4zm16.6 8h-1.2c0-.1 0-.5.1-.5.2-.1.6-.2.9-.2-.1-.1-.1.3.2.7zM173 247c.1.1.2.1.5.2v-.5c-.1 0-.4.2-.5.3zm151.4.9h-.2s-.1-.1-.1-.2h.4c-.1-.1-.1 0-.1.2zm-94.6-114.5c.5 0 .9-.1 1.2-.1h11.5c1.1 0 2.3.1 3.4.4 2.9.5 5.2 2.1 6.8 4.5 1.2 1.8 1.8 3.8 2.3 5.9.5 2.2.7 4.4.7 6.8v10.8c0 2-.4 3.8-1 5.6s-1.5 3.4-2.8 4.8c-.1.1-.2.2-.2.4v.2c.1.1.1.2.2.4 2.1 2.1 3.1 4.8 3.6 7.6.2 1.5.4 3.1.4 4.7v12.2c-.1 3.1-.6 6.1-2 9.1-1.4 3.1-3.7 5.4-7 6.3-1 .2-2.1.5-3.1.5h-13.7c0-.4-.1-.6-.1-.9v-1-75.9c-.2-.9-.2-1.5-.2-2.3zm10.7 44.7c0 .4-.1.7-.1 1.2-.1 10.3 0 22.2.2 23.5.9.1 1.7.1 2.6 0s1.5-.6 1.7-1.5c.1-.5.2-1.1.2-1.6v-18.3c0-.5 0-1.1-.2-1.6-.2-.9-.9-1.5-1.8-1.5-.7-.4-1.6-.4-2.6-.2zm0-11c.9.2 1.6.1 2.3.1 1.4 0 2-.5 2.2-1.8.1-.4.1-.7.1-1V147c0-.5-.1-1.1-.2-1.6-.2-.6-.7-1-1.4-1.1-1-.2-2.1-.2-3.1 0 .1 7.5.1 15 .1 22.8zm150.2-33.6c1.1-.1 8.3-.2 9.9-.1.1 0 .4.1.6.1v66.9c.1 1.4 1 2.1 2.3 2.1 1.2 0 2.1-.7 2.2-2 .1-.9.1-1.7.1-2.6v-62.6-2c.9-.2 1.7-.1 2.6-.1h7.9c0 .4.1.7.1 1V195.5c0 2.6-.2 5.2-.9 7.7-.2 1.4-.7 2.6-1.4 3.8-1.8 3.7-4.7 5.6-8.7 6.1-2.1.2-4.2.1-6.3-.5-2.6-.7-4.5-2.3-5.9-4.5-1.4-2-2-4.3-2.3-6.6-.4-2.2-.5-4.5-.5-6.8v-59.3c.2-.5 0-1.2.3-1.9zM311 173.3v22.2c0 2.8-.2 5.5-1 8.2-.4 1.1-.7 2.3-1.4 3.3-1.6 3.3-4.2 5.3-7.9 5.9-2.2.4-4.5.4-6.8-.2-2.8-.7-5-2.5-6.5-5-1.4-2.3-2-4.8-2.3-7.4-.2-1.8-.4-3.8-.4-5.6v-43.3c0-2.8.2-5.5 1-8.2.4-1.6 1-3.1 1.8-4.4 1.6-2.7 4.1-4.4 7.1-5 2.2-.5 4.5-.5 6.8.1 2.7.6 4.8 2.1 6.3 4.3 1.2 1.8 2 3.8 2.5 5.9.5 2.3.7 4.7.7 7 .1 7.4.1 14.9.1 22.2zm-10.6.1v-4.1-21.4c0-.7 0-1.5-.1-2.2-.2-1.2-1.1-1.8-2.2-1.8s-2 .6-2.2 1.8c-.1.6-.1 1.2-.1 1.8v52.4c0 .5.1.9.2 1.4.2.5.6 1 1.1 1.1 1.5.6 2.9-.1 3.2-1.7.1-.7.1-1.5.1-2.2v-25.1zm-152.1 39.8c-.4 0-.6.1-.9.1h-9.5c-.1 0-.1-.1-.2-.1v-.6c3.4-26.2 6.9-52.2 10.4-78.3 0-.2.1-.5.2-.7 1.1-.2 8.6-.2 10.2 0 .1.2.2.6.2 1 .6 4.9 1.2 9.7 2 14.6.7 5.6 1.5 11.3 2.3 17.1.6 4.9 1.2 9.8 2 14.7.6 4.9 1.4 9.8 2 14.7.5 4.2 1.1 8.2 1.6 12.4.1 1.1.4 2.2.5 3.3.1.6.1 1.2.2 1.8-.2 0-.5.1-.7.1h-9.3c-.1 0-.2 0-.5-.1-.5-1.8-.5-3.7-.9-5.6-.2-1.8-.5-3.8-.7-5.5-1.2-.2-5.4-.2-7-.1-.4 1.1-.4 2.5-.5 3.7-.2 1.4-.2 2.6-.5 3.9-.5 1.2-.6 2.4-.9 3.6zm4.8-42.8c0 .2-.1.6-.1.9-.1 4.1-.7 8.2-1.1 12.3-.2 1.8-.5 3.8-.6 5.6 0 .4-.2.9.1 1.4 1.2 0 2.6.1 3.8-.1 0-.2.1-.4.1-.5-.6-6.4-1.6-12.8-2-19.3 0-.1-.1-.1-.2-.3.2.1.1.1 0 0zm187-36.9c1.4-.2 20.9-.2 22.3 0 0 .2.1.4.1.6v9.1c0 .2-.1.5-.1.9H351c-.5.6-.4 1.1-.4 1.7v20.5c0 .2 0 .6.1 1 2.2.2 4.3 0 6.4.1.1.2.2.4.2.5v9.2c0 .2 0 .5-.1.7-.2 0-.6.1-.9.1H350.6c0 .4-.1.7-.1 1.1v22.5c0 .4 0 .7.1 1.1.5 0 1 .1 1.4.1h10.2c0 .4.1.6.1.9v9.5c-.5.5-1.1.2-1.5.2H340c0-.4-.1-.6-.1-1v-1.2-75.8c.2-.5.2-1.1.2-1.8zm112.6 79.9h-9.9c-.1 0-.4-.1-.6-.1 0-.1-.1-.4-.1-.5V134c0-.1.1-.2.1-.5.4 0 .6-.1 1-.1 7.7-.1 23.9-.1 25.2.1 0 .1.1.1.1.2v10l-.1.1h-15.5c-.4.2-.2.7-.2 1.1v21.9c.4 0 .6.1 1 .1h4.4c.4 0 .7 0 1.1.1.1.2.1.2.1.4v10.2c-.4 0-.7.1-1 .1h-4.1c-.5 0-.9 0-1.4.1-.2.6-.1 1.2-.1 1.8v33.8zM102 202.7h7.8c1.2 0 2.5-.1 3.8.1 0 .2.1.4.1.6v9.3c0 .1-.1.2-.1.4-1.2.1-20.9.1-22.2 0 0-.2-.1-.5-.1-.9V211v-75.6-2c1.8-.2 3.6-.1 5.3-.1h5.2c0 .4.1.6.1 1v66.3c0 .6-.1 1.3.1 2.1zm178.5-95.6c1 3.1 2 6 3.1 9.3.2-.6.5-1 .7-1.4 1.2-.2 4.3-.2 5.5 0 0 .4-.1.6-.1 1-.9 3.2-1.7 6.3-2.7 9.5-.1.4-.2.9-.1 1.4 1 .6 1.8-.4 2.8 0 .2 1 .2 4.7 0 6.1-.2 0-.5.1-.9.1h-2.2c-1.2 0-2.3-.2-3.4-1-.1-.1-.2-.1-.2-.1-1.2.4-2.3.7-3.4 1-1.4.2-2.7.2-4.1 0-2.3-.5-4.1-1.8-5.2-4.1-.6-1.4-1-2.8-1.1-4.3-.2-2.8-.4-5.8.2-8.6.5-2.8 1.6-5.4 3.2-7.7.2-.4.5-.9.9-1.4-.4-1.2-.9-2.5-1.2-3.7-.6-2.1-1.2-4.2-1.5-6.3-.4-2.5-.4-4.8.1-7.2.2-1 .6-2 1.2-2.9.9-1.4 2.1-2.2 3.6-2.6 1.1-.2 2.2-.4 3.3-.2 2.1.2 3.7 1.4 4.5 3.2.7 1.5 1 3.1 1.2 4.8.2 3.1-.2 6-1.4 8.8-.6 1.7-1.5 3.3-2.2 4.9-.1.6-.3 1-.6 1.4zm-4.1 7.4c-.1.2-.2.2-.4.4-.1.7-.2 1.5-.4 2.2-.4 2.2-.2 4.4-.1 6.6 0 .6.1 1.2.2 1.7s.5 1.1 1 1.2c1.2.2 2.3.4 3.4-.5-.2-1.1-2.7-9.3-3.4-11.3-.1.1-.2 0-.3-.3zm1.2-14.4c.5-.5.5-1.1.6-1.7.5-1.8.9-3.7.9-5.6 0-.5 0-.9-.1-1.4s-.5-.7-1-.7-.9.2-1 .7c-.1.7-.2 1.4-.2 2.1 0 1 .1 2 .2 2.8.1 1.3.1 2.6.6 3.8zm191.4 7v1.8c-.4 0-.6.1-.9.1h-169c-.4-.6-.2-1.2-.1-1.8.2 0 .6-.1.9-.1h166.8c.7-.1 1.5-.2 2.3 0zm-379.3 1.8c-.1-.6-.2-1.2 0-1.8.2 0 .4-.1.6-.1H259c.1 0 .2.1.5.1v1.7c-.2 0-.5.1-.9.1H91.7c-.5.2-1.2.2-2 0zm379.2 4.9c.1.4.1.5.1.6v1.1c-.4.1-.6.1-.9.2H301c-.6 0-1.4.1-2-.1-.2-.5-.1-1.1-.1-1.7.2 0 .6-.1.9-.1h169.1zm-379.2 1.9c-.1-.7-.1-1.2 0-1.8.2 0 .4-.1.6-.1h169.1c.4.6.2 1.1.2 1.7-.2.1-.6.1-.9.2h-169z"/><g><path class="st3" d="M234.4 88.1c0-.2-.1-.5-.1-.6V8.8c0-.1.1-.2.1-.5.4 0 .7-.1 1.1-.1h11.9c1.8 0 3.7.4 5.4 1.1 2.5 1.1 4.2 2.9 5.3 5.4 1 2 1.5 4.1 1.8 6.1.2 1.8.4 3.6.4 5.4v9.1c0 2.1-.2 4.2-.9 6.3-.6 2.1-1.5 3.9-3.1 5.4-.1.1-.1.2-.2.4 0 .1 0 .2.1.2 2.2 2.2 3.2 4.9 3.7 7.9.2 1.6.4 3.1.4 4.7V71c0 2.8-.4 5.6-1.2 8.5-.6 2-1.5 3.8-2.9 5.3-1.6 1.7-3.6 2.7-5.8 3.1-1 .2-2.1.2-3.2.4h-11.8c-.3-.1-.6-.2-1-.2zm10.7-35.3c0 .2-.1.4-.1.5v23.6c0 .1.1.2.1.5.9.1 1.7.1 2.5 0 1 0 1.6-.6 1.8-1.5.1-.6.2-1.2.2-1.7v-18c0-.5-.1-1-.1-1.5-.2-1.1-.9-1.7-2-1.8-.7-.3-1.6-.3-2.4-.1zm.1-10.7h2.5c1-.1 1.7-.6 1.8-1.6.1-.7.2-1.4.2-2.1V27.8v-5.4c0-.7-.1-1.4-.2-2.1-.1-.6-.5-1.1-1.1-1.4-.7-.2-2.3-.2-3.2 0-.3 1.7-.3 21.8 0 23.2zM170 88c-1.1.2-9.2.2-10.6 0-.6-3.7-1-7.5-1.6-11.3-1.2-.4-2.5-.1-3.6-.1s-2.3-.1-3.4.1c-.6 3.8-.9 7.6-1.4 11.3-.2.1-.4.1-.5.1h-9.6c-.1 0-.2-.1-.4-.1 0-.1 0-.1-.1-.1v-.1c3.4-26.5 7-52.9 10.6-79.4.2-.1.5-.1.7-.1h8.8c.2 0 .4 0 .6.1.4.7.4 1.6.5 2.5.9 6 1.6 12 2.5 18 .7 5.6 1.5 11.3 2.2 17.1.7 5.6 1.5 11.3 2.3 17.1.6 4.9 1.2 9.8 2 14.7.4 3.2.9 6.5 1.2 9.7-.2 0-.2.2-.2.5zm-15.8-43.4c-.2 2.3-.4 4.5-.6 6.9-.2 2.2-.5 4.5-.7 6.8s-.5 4.5-.7 6.9c.7.4 1.5.2 2.1.1.7 0 1.4.2 2.1-.2-.6-6.8-1.7-13.6-2.2-20.5zm148-2.5c1 .1 2.1 0 3.2 0h3.1c.1.2.1.4.1.5v9.5c0 .1-.1.2-.1.5-2.1.2-4.2 0-6.4.1-.1.2-.1.5-.1.9V77.3c.5.5 1 .4 1.4.4h8.7c.5 0 1 0 1.6.1.2 1.8.1 3.6.1 5.3v5.3c-.4.1-.5.1-.7.1h-21.6c-.1-.4-.2-.6-.2-.9v-1.4-75.6-1.8c.5-.5 1-.4 1.4-.4h19.4c.5 0 1 0 1.6.1.2 1.8.1 3.6.1 5.3v5c-.5.4-1 .4-1.4.4h-10.1c-.1.1-.1.1-.1.2v22.7c-.3-.3-.2-.3 0 0zm154.5-23.2c0 .4-.1.6-.1.9V42c.4.1.6.1 1 .1H463.3c.1.4.1.6.1 1v8.7c0 .2 0 .5-.1.7-.7.4-1.4.1-2.1.1h-4.4c0 .5-.1.9-.1 1.2V77.2c.5 0 1 .1 1.4.1h8.7c.5 0 1 0 1.6.1.1 1.8 0 3.6.1 5.3v5c-.6.4-1.1.2-1.7.2h-19.5c-.4 0-.7 0-1.1-.1 0-.2-.1-.5-.1-.7-.1-3.7 0-77.7.1-79 .4-.4.7-.2 1.1-.2h19.4c.5 0 1.1 0 1.7.1.2 1 .1 1.7.1 2.6V15.9c0 .9 0 1.7-.1 2.6-1.4.2-2.6.1-3.8.1h-3.9c-1.3.3-2.5.3-4 .3zm-62-10.6c1.5-.2 9.1-.2 10.6 0 0 .2.1.5.1.9v66.3c0 .6 0 1.2.1 2 1.4.2 2.6.1 3.8.1H417c.1.2.2.5.2.7v9.2c0 .2 0 .4-.1.5l-.2.2h-21.3c-.2 0-.4 0-.6-.1 0 0-.1-.1-.2-.1 0-.1-.1-.4-.1-.6V8.3zm-304.1 0c1.4-.2 7.1-.2 9.8-.1.2 0 .5.1.9.1.1 2 0 3.8 0 5.8V77.9c.6.4 1.1.2 1.6.2h8.6c.5 0 1-.1 1.5.1.2 1.1.2 9 0 10.4-.2 0-.5.1-.7.1H91.4c-.1 0-.2 0-.5-.1 0-.2-.1-.5-.1-.9v-1.4-75.6c-.2-1-.2-1.7-.2-2.4zm263.5 69c1.5.2 2.7.1 3.9.1H365.7c.1.4.1.6.1.9V87c0 .2 0 .6-.1.9-.1.1-.1.1-.2.1h-21.3c-.2 0-.4 0-.7-.1 0-.2-.1-.6-.1-.9v-1.2V10c0-.6-.1-1.4.1-2 1.1-.2 2.3-.1 3.4-.1h3.4c1.1 0 2.3 0 3.6.1 0 .4.1.6.1.9V75c.1.8.1 1.6.1 2.3z"/></g><g><path class="st3" d="M48.4 179.6c-.7-.4-1.5-.9-2.3-1.1-.7-.4-1.5-.6-2.2-.9-.9-.2-1.7-.4-2.5-.5s-1.6-.1-2.5-.1-1.7.1-2.6.2c-.7.1-1.6.2-2.3.5-.9.2-1.6.5-2.3.9s-1.4.7-2.2 1.1c-.1-.2-.1-.5-.1-.6 0-1.6-.1-3.1-.1-4.7v-12.6-7.9c-.1-9.2-.1-18.4-.2-27.7 0-4.7 0-9.3-.1-14 0-1.7-.1-2.1-1.8-2.6-1.8-.6-3.7-1.1-5.5-1.6-3.2-.7-6.4-1.5-9.6-2.2-.7-.1-1.6-.4-2.3-.6-1.4-.4-2.6-1-3.7-2-1.6-1.4-2.3-2.9-2.5-5 0-1.4-.1-2.8-.2-4.2-.2-4.4-.4-8.7-.6-13.1-.1-3.4-.2-6.9-.5-10.4-.2-4.4-.4-8.7-.6-13.1-.2-4.2-.4-8.5-.6-12.6-.2-4.7-.4-9.3-.6-14-.2-5.5-.4-10.9-.6-16.5 0-1.5-.2-2.9.1-4.3.2-1.4.7-2.5 1.7-3.4C2.8 5.4 4.3 5 5.9 4.8h66.4c3.3.2 5.5 2.3 5.9 5.8.1.9.1 1.7.1 2.6-.1 3.1-.1 6.1-.2 9.2-.1 3.9-.2 7.9-.5 11.8-.2 4.7-.4 9.3-.6 14-.2 4.3-.4 8.5-.6 12.8l-.6 12.9c-.2 4.2-.4 8.3-.6 12.5-.1 3.9-.4 8-.5 11.9-.1 2.1-.9 3.8-2.5 5.2-1.1 1-2.2 1.6-3.7 2-3.1.7-6 1.4-9.1 2.1-2.3.6-4.8 1.2-7.1 1.8-.7.2-1.4.5-2.1.9-.6.2-1 .7-.9 1.5v31.4c-.1 8.5-.1 16.8-.2 25.3 0 2.6 0 5.3-.1 7.9 0 1.1-.1 2.2-.1 3.3-.4-.5-.4-.4-.5-.1zM36.1 46v23.2c0 .6 0 1.2.2 1.7.2 1 1 1.6 2.1 1.7h.9c1.2-.1 2-.7 2.2-1.8.1-.5.1-1.1.1-1.6V22.9c0-.5 0-1-.1-1.5-.1-.6-.5-1.2-1-1.6-1.7-1.2-4.2-.1-4.4 2V46zm25.4-.4c-.1 0-.1 0 0 0 0-3.6.1-7.2.2-10.8.1-4.2.1-8.3.1-12.5 0-.4 0-.7-.1-1-.1-.6-.5-1.2-1.1-1.6-1.8-1.2-4.2-.1-4.3 2.1-.1 1-.1 2-.1 2.9 0 2.2 0 4.4-.1 6.6v4.9c-.1 3.3-.1 6.8-.2 10.1-.1 5.2-.1 10.3-.2 15.5 0 2-.1 3.9-.1 5.9v2.1c.1 1.8 1.1 2.7 2.9 2.7h.2c1.1-.1 2-.7 2.2-1.8.1-.6.2-1.4.2-2 0-2.1 0-4.2.1-6.3 0-1.7 0-3.4.1-5.2 0-3.7.1-7.6.2-11.6zm-39.4.4c-.1-2.2-.1-4.3-.1-6.5-.1-5.2-.1-10.2-.2-15.3 0-.7 0-1.4-.1-2.1-.1-2.1-1.6-3.2-3.7-2.7-1 .2-1.7 1-1.8 2-.1.5-.1.9-.1 1.4 0 1.7 0 3.6.1 5.3.1 5.2.1 10.3.2 15.5.1 4.9.2 9.7.2 14.6 0 3.6.1 7.2.1 10.8 0 .6.1 1.2.2 1.8.1 1 .7 1.7 1.7 1.8 1.1.2 2.1.2 2.9-.6.6-.6.7-1.2.7-2.1v-2.7c-.1-4.1-.1-8-.2-12 .2-3.1.2-6.1.1-9.2zm16.8 36.6c1.2 0 2.6-.9 2.6-2.6 0-1.4-1.2-2.5-2.5-2.5-1.4 0-2.5 1.1-2.6 2.5s1 2.6 2.5 2.6zm19 0c1.4 0 2.5-1.1 2.6-2.5 0-1.5-1.1-2.7-2.5-2.7s-2.6 1.2-2.6 2.6c.1 1.5 1.2 2.6 2.5 2.6zM20.1 92.8c1.4 0 2.5-1.1 2.5-2.5.1-1.4-1.1-2.6-2.6-2.6-1.4 0-2.5 1.1-2.5 2.5 0 1.5 1.1 2.6 2.6 2.6zM17.4 80c-.1 1.1.9 2.5 2.5 2.6 1.5 0 2.6-1.1 2.6-2.6s-1.2-2.6-2.6-2.6c-1.5.2-2.6 1.3-2.5 2.6zm24.1 10.3c0-1.4-1.1-2.6-2.5-2.6-1.5-.1-2.7 1.1-2.7 2.5s1 2.6 2.3 2.6c1.7.1 2.9-1.1 2.9-2.5zm18.8-.1c0-1.4-1-2.5-2.5-2.6-1.5 0-2.6 1.1-2.6 2.6 0 1.4 1 2.5 2.5 2.6 1.5 0 2.6-1.1 2.6-2.6z"/><path class="st3" d="M22.3 234v-5.2c0-2.3 0-4.7.1-7.1.1-5.3.2-10.4.2-15.6.1-4.1.1-8 .2-12 0-3.9 1.2-7.4 3.8-10.4 3.2-3.7 7.2-5.6 12.2-5.8 7.1-.2 14.1 4.8 15.8 12.4.2 1.2.4 2.5.5 3.6.1 3.7.1 7.4.1 11.2.1 5.3.2 10.4.2 15.6.1 3.6.1 7.2.2 10.8 0 3.6.1 7 .1 10.6.1 4.8.1 9.6.2 14.5.1 5.6.1 11.2.2 16.8.1 5.4-2.2 9.6-6.4 12.9-3.7 2.9-8 4.2-12.6 3.8-4.1-.4-7.6-2.1-10.7-4.8-2.5-2.2-4.2-5-4.9-8.3-.1-.9-.2-1.8-.2-2.7 0-4.3.1-8.6.1-12.9 0-3.7.1-7.5.2-11.2 0-3.6.1-7 .1-10.6.4-1.8.5-3.7.6-5.6-.1 0-.1 0 0 0zm30.4 28.8c-.9-1-1.8-1.1-3.1-.9-1.4.2-2.6 1-3.8 1.7-.7.5-1.5.9-2.2 1.2-.6.4-1.4.4-2.1 0-.5-.2-1-.2-1.6-.1-.7.1-1.5.1-2.2 0-.5-.1-1-.1-1.5.2-.7.5-1.6.4-2.3 0-.6-.2-1.1-.6-1.7-1-.7-.5-1.5-1-2.2-1.2-.7-.4-1.5-.5-2.1-.7-1.1-.2-2 0-2.8.9l.1.1h.2c1.6-.4 2.9.1 4.3 1 1.2.9 2.5 1.8 3.8 2.7-.1.1-.2.2-.4.2-.2.1-.5.2-.5.5 0 .4.2.5.6.6.5.1 1 .1 1.5.1.4 0 .7-.1 1.2-.2.2.6.4 1.1.6 1.6.2.5.5 1 .7 1.5.2.6.4 1.2.1 2-.2.6 0 1.2.2 1.7s.6.7 1.2.7 1-.2 1.2-.7c.2-.6.4-1.2.2-2-.1-.6-.1-1.2.2-1.8.5-1 .9-1.8 1.4-2.9.4.1.9.1 1.2.2.6.1 1.2 0 1.7-.4.2-.1.2-.6 0-.7s-.5-.2-.6-.5c1.1-.7 2-1.5 2.9-2.2.4-.2.9-.6 1.2-.9 1.1-.7 2.3-1 3.6-.7h1z"/></g></g></svg>