<?xml version="1.0" encoding="utf-8"?>
<!-- Generator: Adobe Illustrator 26.2.1, SVG Export Plug-In . SVG Version: 6.00 Build 0)  -->
<svg version="1.1" id="Layer_1" xmlns="http://www.w3.org/2000/svg" xmlns:xlink="http://www.w3.org/1999/xlink" x="0px" y="0px"
	 viewBox="0 0 503.5 295" style="enable-background:new 0 0 503.5 295;" xml:space="preserve">
<style type="text/css">
	.st0{fill:#FFFFFF;}
</style>
<g>
	<path class="st0" d="M165.1,252.8l2,1.2c0.1,0.1,0.2,0.4,0.2,0.6c0.9,4.9,1.8,9.8,0.4,14.7c-1.1,3.7-3.1,6.8-6,9.2
		c-2.7,2.2-6,2.9-9.6,2.5c-1.8-0.2-3.7-0.9-5.6-1.2c-1.6,0.6-2.6,2.3-4.5,2.1c-2.1-1.7-2.8-3.8-2.1-6.5c0.5-1.8,0.5-3.8-0.2-5.6
		c-0.4-1-0.5-2.2-0.6-3.3c-0.2-5.2-1.1-10.3-1.6-15.5c-0.1-1.1-0.1-2.2-0.2-3.3c0.9-0.7,1.7-1.4,2.7-2.2c1.1,0.4,2.5,0.7,4.2,1.2
		c1-0.2,2.1-1.1,3.1-2c1.1-1,2.3-1.4,3.7-1.1c1.1,0.2,2.1,0,3.3-0.4c1.6-0.6,3.3-0.4,4.8,0.7c1.7,1.4,3.4,2.5,4.8,4.3
		c0.5,0.7,1,1.5,0.9,2.5C164.6,251.4,165.1,252.3,165.1,252.8L165.1,252.8z M267.2,282.6c-0.2-0.5-0.5-0.9-0.7-1.2
		c-0.7-0.9-1.5-1.2-2.3-0.6c-1.1,0.7-2.1,0.6-3.2,0.2c-3.9-1.2-6.1-4.7-5.6-8.8c0.2-1.7,0-3.7,1.5-5c-0.5-1.4-1-2.7-1.5-3.9
		c-1.1-2.8-1.1-5.5,1-8c1.6-1.8,1.6-3.6,0.9-5.6c-0.9-2.2-0.9-4.7-0.9-7c0-3.2,1.2-5.6,4.2-7.2c0.5-0.2,1-0.6,1.5-0.9
		c1-0.5,2-1.1,2.6-2.1c1.2-1.8,2.9-2,4.8-1.4s3.6,1.4,5.5,2.1c0.7-0.6,1.8-1.1,2.5-2c1.1-1.5,2.6-1.7,4.2-1.8
		c1.7-0.2,3.3,0.1,4.8,1.2c2.8,2.1,3.7,5.5,2.3,9.2c-0.9,0-1.7,0.2-2.6,0c-1.6-0.6-2.5,0.6-3.3,1.2c-1,0.7-1.6,1.8-1.5,3.2
		c0.1,1.2,0.1,2.5,0,3.7c-0.1,3.8-1.7,6.8-4.9,8.7c-0.7,0.4-1.5,0.7-2,1.4c-0.7,1-0.7,2.3,0.9,2.5c1.6,0.1,3.1,0.4,4.3,1.7
		c0.2,0.4,1.1,0.4,1.6,0.4c1.1,0,2.3,0,3.3-0.4c1.6-0.7,2.8-0.1,4.1,0.9c2,1.6,3.3,3.7,3.4,6.5c-1,1-2.1,2.1-3.2,3.3
		c-1,1.1-2,2.5-2.9,3.7c0.2,0.9,0.5,1.6,0.6,2.3c-1,1.4-2.5,2-4.1,2.5C277.4,282.6,272.3,283,267.2,282.6L267.2,282.6z M269.6,276
		c0.6,0,1.2-0.1,1.7,0c1.2,0.6,2.5,0.5,3.7,0.2c1.1-0.1,2.2-0.1,3.3-0.4c1.7-0.4,3.6-0.9,5.2-1.6c1.2-0.6,2.1-1.6,3.1-2.6
		c0.6-0.6,0.5-1.5,0-2.2c-0.9-1.2-2.1-2-3.6-2.5c-2-0.7-3.9-0.9-6-0.7c-3.2,0.2-6.5,0.5-9.7,0.9c-1,0.1-2,0.5-2.9,0.9
		c-1.4,0.5-2.3,1.4-2.8,2.7c-0.6,1.4-0.5,2.1,0.6,2.9c2.1,1.5,4.3,2.8,6,4.8c0.1,0.1,0.4,0,0.7,0C269.1,277.7,269.4,276.8,269.6,276
		L269.6,276z M277.5,243.8c-1.7-1.6-3.1-2.9-4.4-4.3c-0.4-0.2-0.7-0.6-1.1-0.7c-3.4-1.5-7.7-0.5-9.5,2.8c-0.5,0.7-0.7,1.6-1.1,2.5
		c-1,2.1-0.5,3.9,0.9,5.8c1.2,1.7,2.9,2.7,4.7,3.8s3.6,1,5.4,0.1c1.6-0.7,2.7-2,3.6-3.6c0.2-0.5,0.5-1.4,0.2-1.8
		C275.5,246.4,276.3,245,277.5,243.8z M262.5,258c-0.7,0.9-2.1,1.6-2.3,3.1c2.3,2.8,4.2,3.1,6.6,0.9c0.7-0.6,1.4-1.6,1.8-2.3
		c0.4-0.6-0.1-1.5-0.9-1.5C266.2,258.2,264.5,258.2,262.5,258z M460.1,243.2c1.1-1,2.1-1.7,2.1-3.1c0-2.1,1.4-2.9,3.1-3.6
		c1.8,1.6,2,3.4,1.2,5.8c-1.8,0.1-3.8,0.2-4.7,2.6c0.1,0.5,0.1,1,0.2,1.5c0,0.1-0.1,0.2-0.1,0.4c-0.2,0.1-0.4,0.4-0.5,0.4
		c-0.9,0.1-1.7-0.1-2.6,0.5c-1.4,0.9-2.8,0.9-4.1-0.2c-1.4-1-2.5-0.6-3.7,0.2c-1.5,1.1-3.2,2.1-4.5,3.1c-1.5-0.2-1-1.5-1.5-2.2
		c-1.5,0.5-2.8,1.1-4.1,2.1c-2,1.7-4.1,1.8-6.3,0.5c-2.1-1.2-3.7-3.1-4.7-5.3c-2.1-4.5-1.1-9.5,2.5-13.1c0.7-0.7,1.6-1.5,2.6-2.3
		c-0.9-1.2-2-1.7-3.1-2.1c-1.5-0.5-2.7-1.1-3.7-2.6V223c0-2.5,1.2-4.3,2.9-5.9c0.2-0.2,0.6-0.5,0.9-0.5c1.2,0.1,2.1-0.9,3.2-1.1
		c2.3-0.5,4.3-1.8,6.8-1.8c0.5,0,1-0.2,1.4,0c1.8,0.9,3.6,0.1,5.2-0.6c1.2,0.7,2.5,1.5,3.4,2.2s1.6,1.6,2.3,2.5
		c0.6,0.7,0.9,1.7,0.4,2.6c-0.9,1.5-0.2,2.8,0.2,4.2c0.5,0.1,1,0.2,1.7,0.4c0.1,1.2,0.1,2.5,0.2,3.7c0.2,3.4,0.5,7,0.9,10.4
		C457.7,240.6,458,242.3,460.1,243.2L460.1,243.2z M440.3,228.2c2.2-0.1,4.2-0.9,6.3-0.4c1.4,0.2,2.5-0.4,3.2-1.5
		c0.5-0.6,0.9-1.2,1.4-1.8c-1.7-4.2-3.7-5.4-8.1-5h-0.4c-2.6,0.2-4.2,1.6-4.9,3.9c-0.4,1.1-0.4,2.2,0.7,3.1
		C439.2,227,439.7,227.5,440.3,228.2z M180.2,257.3c-0.2-0.4-0.4-0.7-0.6-1c-1.2-1-1.4-2.2-1.2-3.7c0.4-2.5-0.5-4.4-2.1-6.1
		c-0.5-0.6-1-1.1-1.8-1.4c-0.9-0.2-1.6-0.9-2.5-1.5c0.1-0.6,0-1.2,0.4-1.6c0.7-0.7,1.7-1.7,2.7-2c2.3-0.5,4.7-0.6,6.9-0.9
		c1.1,1,1.4,2,1.5,3.1c0.2,1.7,0.4,3.4,0.5,5c0.4,5.6,1.1,11.2,2.2,16.7c0.2,1.1,0.6,2.2,0.9,3.3c0.9,2.9,4.8,4.3,7.5,2.6
		c0.9-0.5,1.7-1.2,2.3-2c1.2-1.5,2.2-3.2,3.3-4.7c0.7-1,1.4-2,2.3-3.3c-0.1-1.1-0.4-2.7-0.6-4.3c-0.4-2.2-0.4-4.4-0.2-6.6
		c0.2-2.7-1.5-4.9-4.1-5.8c-1.2-0.4-2.5-1-3.6-1.5c-0.4-2,1.1-2.6,1.8-3.4c3.1-0.4,5.9-0.7,9-1.2c1.4,1.5,1.5,3.4,1.6,5.3
		c0.9,6.9,1.5,13.8,2.1,20.5c0.1,0.6,0.1,1.4,0.1,2c0,1.5,0.9,2.3,2.2,2.7c0.6,0.2,1.4,0.2,2,0.6s1.1,1,1.7,1.5
		c-0.7,1.6-1.5,3.1-2.2,4.8c-1.7,0.2-3.8,0.5-5.8,0.9c-1.6-1.4-3.2-2.5-4.8-3.8c-0.9,0.7-1.6,1.5-2.2,2.2c-2.6,2.6-5.8,3.8-9.5,3.7
		c-2.5,0-4.4-0.7-6.1-2.5c-2.2-2.2-3.8-4.8-4.4-7.9c-0.4-1.6-0.5-3.3-0.9-5C178.3,260.1,178.4,258.5,180.2,257.3L180.2,257.3z
		 M326.6,249.5c0.7,2.1,0.2,3.9-0.6,5.9c-2.2,5.4-6.6,7.7-11.9,9c-2.6,0.6-4.9-0.1-6.3-2.6c-1.8-0.6-3.1,0.7-4.5,1.4
		c-1.6-0.6-3.1-1.7-4.4-2.9c0.7-2.1-1-3.6-1.1-5.5c-1.5,0.2-2.3-0.4-2.7-1.6c-0.2-1.1-0.6-2.2-0.7-3.3c-0.2-1.8-0.4-3.8-0.6-5.8
		c-0.5-2.6,0.5-4.9,0.6-7.4c0-0.2,0.1-0.5,0.2-0.6c1.7-1.1,1.7-3.3,3.2-4.7c1.1-1,2.1-2.1,3.2-3.1c3.1-2.7,6.5-3.8,10.6-3.1
		c0.5,0.1,0.9,0.1,1.2,0.2c0.7-0.5,1.4-0.9,2.1-1.4c3.2,2.6,6.4,5.2,9.5,7.7c0.6,2-1.8,3.4-0.5,5.4c0.5,0,1,0.1,1.7,0.1
		c1,1.5,0.9,3.2,0.9,4.8c-1.2,1.4-2.8,1.7-4.5,2c-5.2,0.6-10.3,1.2-15.5,2c-1.5,0.1-2.9,0.5-4.4,0.7c-0.6,1.4-2.1,2.2-2,3.8
		c3.8,4.7,3.8,4.7,8.1,7.4c2.9,1.8,5.8,1.5,8.2-1.1c1.5-1.6,2.9-3.4,4.4-5.2c0.4-0.4,0.7-0.9,1.1-1.2c1.1-1.7,2.6-2.1,4.4-1.5
		C326.2,249.1,326.3,249.2,326.6,249.5L326.6,249.5z M299.7,239.3c2.2,2.2,2.2,2.3,4.5,2.1c3.7-0.4,7.4-0.9,11.1-1.2
		c1-0.1,1.7-0.2,2.3-1c0.5-0.7,1-1.5,1.6-2.2c-0.4-0.6-0.7-1.2-1.1-1.7c-0.5-0.6-1-1.2-1.6-1.7c-3.2-2.7-10.1-2.7-13.3,0
		C301.4,235,300.3,236.9,299.7,239.3L299.7,239.3z M299,255.1c0.2,0.5,0.4,0.7,0.5,0.9c0.2,0.1,0.5,0.1,0.9,0.1
		c-0.1-0.2-0.1-0.5-0.4-0.6C299.8,255.2,299.6,255.2,299,255.1L299,255.1z M394.2,220.6c0.7-0.6,1.6-1.1,2.7-2
		c1.2,0.2,2.6,0.7,4.3,1.1c1-0.6,2.1-1.4,3.1-2.2c1.1-1,2.3-1.5,3.7-1c1.1,0.4,2,0.1,2.9-0.4c1.7-0.7,3.3-0.6,4.8,0.6
		c1.2,1.1,2.7,2,3.9,3.2c1.1,1.1,2.1,2.2,1.7,4.2c-0.1,0.9,0.1,2.3,1.8,2.3c0.2,0,0.5,0.4,0.7,0.6c0.1,0.2,0.2,0.6,0.4,1
		c0.6,4.1,1.5,8.2,0.9,12.4c-0.7,4.4-2.9,8-6.1,11.1c-1.7,1.6-3.8,2.3-6.1,2.6c-2.2,0.2-4.5,0.1-6.8-0.5c-0.9-0.2-1.7-0.5-2.8-0.7
		c-1.4,0.6-2.5,2.2-4.4,2.2c-2.1-1.6-2.8-3.9-2.2-6.5c0.5-2.2,0.4-4.2-0.4-6.3c-0.4-1-0.5-2-0.5-2.9c-0.2-5.6-1.4-11.2-1.7-16.8
		C394.2,221.9,394.2,221.3,394.2,220.6L394.2,220.6z M418.8,228c-1.2-1.1-2.8-2.6-4.4-4.1c-0.7-0.7-1.7-1-2.8-0.7
		c-1.7,0.2-3.6,0.5-5.5,0.7c-1,1.4-2.1,2.8-3.1,4.3c-1.2,2-1.8,4.1-1.4,6.4c0.2,1.2,0.4,2.5,0.4,3.7c-0.1,2.8,1.4,4.9,3.1,6.9
		c1.2,1.4,2.8,2.2,4.7,2.5c0.6,0,1.4,0,2,0.2c2,0.9,3.6,0,4.9-1.2c2.3-2.1,3.7-4.5,3.6-7.7c-0.1-2.1-0.5-4.3-0.6-6.4
		C419.2,231.2,419,229.8,418.8,228L418.8,228z M484.5,228.9c-0.6,0.2-1.1,0.5-1.6,0.6c-2.3,0.5-3.3-0.2-3.7-2.7
		c-0.2-1.5-0.4-2.9-0.6-4.3s-0.5-2.7-1-3.9c-0.7-2-2-2.7-4.2-2.5c-1,0.1-2,0.1-3.1,0.1c-0.6,0-1.1-0.1-1.7-0.2c-1-0.4-1.7-1-2-2.1
		c-0.2-1.2,0.2-2.2,1.2-2.9c1.4-0.9,2.9-1.2,4.5-1.4c1.2-0.1,2.5,0,3.7-0.4c2.8-0.7,3.7-0.7,5.8,0.7c1.1,0.7,2.2,1.5,3.3,2.2
		c1.5-0.5,2.3-1.5,3.4-2.3c1.2-0.9,2.3-1.8,3.4-2.7c0.9-0.7,1.7-1,2.8-0.9c1.2,0.1,2.5,0,3.8,0c1.5,1.2,3.2,2.6,4.9,3.9
		c0.1,1.6,0.2,3.2,0.2,4.9c0.1,1.4-0.4,2.7-1.1,3.8c-1.4,2-3.7,2.3-5.5,1c-1.1-0.9-2.1-1.5-2.6-3.1c-0.4-1.5-1.6-2.3-2.8-3.2
		c-2.2,1.5-4.2,3.8-5.8,6.5C484.7,223.1,484.6,225.9,484.5,228.9L484.5,228.9z M479.7,214.9c-0.1-0.1-0.1-0.4-0.2-0.5
		c0,0.1-0.2,0.1-0.2,0.2s0.1,0.4,0.2,0.5C479.6,215.1,479.6,215.1,479.7,214.9z M352.9,228.3c-5.2,4.4-6.9,7.9-7.4,15
		c-0.4,0.1-0.9,0.5-1.4,0.6c-2.7,0.5-3.6,0-3.9-2.7c-0.2-2-0.6-4.1-0.9-6c-0.1-0.9-0.5-1.7-0.9-2.6c-0.7-1.7-2.1-2.5-4.1-2.1
		c-1.6,0.4-3.1,0.2-4.7-0.2c-1.1-0.2-1.7-1-2-2.1c-0.2-1.2,0.1-2.3,1.4-2.8c1-0.5,2.1-0.7,3.2-1.1c2.1-0.6,4.3,0,6.3-1.2
		c1.4,0.1,2.7,0.1,3.8,0.9c1.4,1,2.7,2,4.4,2.8c2-1.5,3.8-2.8,5.6-4.4c1.4-1.1,2.7-1.6,4.3-1.5c1.1,0.1,2.2,0,3.3,0
		c1.6,1.2,3.1,2.6,4.7,3.8c0.1,1.2,0.4,2.5,0.5,3.7c0.1,1.5,0,2.9-0.6,4.3c-1.2,2.7-3.9,3.4-6.4,1.6c-1-0.7-1.8-1.4-2.2-2.8
		C355.6,230.1,354.2,229.1,352.9,228.3L352.9,228.3z M340.7,229.4c-0.1-0.1-0.1-0.4-0.2-0.5c0,0.1-0.1,0.1-0.1,0.2
		c0,0.2,0,0.4,0.1,0.5S340.6,229.6,340.7,229.4z M238.1,240.2c-2.5,1.7-4.1,4.2-5.5,6.6c-1.6,2.5-1.7,5.3-1.6,8
		c-0.2,0.2-0.4,0.5-0.6,0.6c-3.7,1.2-4.7,0.6-5.2-3.2c-0.2-1.8-0.5-3.8-0.9-5.6c-0.1-0.9-0.5-1.7-1-2.6c-0.7-1.2-1.8-1.8-3.4-1.6
		c-1.2,0.1-2.5,0.2-3.7,0.1c-0.7,0-1.6-0.4-2.2-0.7c-1.5-0.9-1.6-2.9-0.4-4.1c1.1-1.1,2.6-1.5,4.1-1.7c1.1-0.1,2.2-0.1,3.3-0.2
		c0.5,0,1.2,0,1.6-0.4c1.8-1.2,3.4-0.4,4.9,0.5c1.4,0.7,2.6,1.7,4.1,2.7c2-1.2,3.7-2.7,5.4-4.1c1.6-1.5,3.3-2.3,5.5-1.8
		c0.7,0.1,1.6,0,2.6,0c1.5,1.2,3.2,2.6,4.8,3.8c0.1,1.4,0.4,2.6,0.4,3.8c0,1.4-0.1,2.7-0.5,3.9c-0.6,2-2.1,2.9-4.1,2.8
		c-0.5,0-1.2-0.1-1.6-0.5c-1.1-1-2.7-1.6-2.9-3.4C240.8,242,239.5,241,238.1,240.2L238.1,240.2z M225.9,241.5c0-0.1,0.1-0.2,0.1-0.2
		s-0.1-0.1-0.2-0.1c0,0.1-0.1,0.2-0.1,0.2C225.8,241.3,225.9,241.3,225.9,241.5z M343.9,246.4c0.9,0.4,1.7,0.7,2.6,1.1
		c0.7,2.3,1.1,4.9,3.8,6.1c1.6-0.2,3.2-0.5,5.2-0.9c0.6,0.7,1.8,0.7,2.3,2c0.9,1.8,0.5,3.7-1.4,4.5c-0.9,0.5-1.8,0.7-2.9,0.9
		l-14.7,1.8c-1.6,0.1-3.1,0.1-5,0.2c-0.6-0.7-1.4-1.6-2.1-2.5c0-1.1,0.5-2,1.5-2.7c0.9-0.6,1.5-1.4,2.5-2.3c0.9,0.1,2,0.4,3.2,0.6
		c0.6-0.7,1.4-1.6,2-2.5C341,248.2,341,248.2,343.9,246.4L343.9,246.4z M218.8,273.9c-0.6-0.7-1.4-1.5-2-2.1c0-1.4,0.6-2.1,1.6-2.8
		c0.9-0.6,1.6-1.6,2.3-2.5c1,0.2,2,0.5,3.1,0.9c0.7-0.9,1.5-1.7,2.2-2.7c-0.5-2.6-0.2-5.2,2.9-6.3c0.7,0.2,1.6,0.5,2.6,0.9
		c0.1,0.4,0.5,0.9,0.6,1.5c0.5,2,1.4,3.6,3.2,4.7c1.7-0.2,3.4-0.5,5.4-0.7c0.4,0.2,1,0.5,1.5,1c1.8,1.6,1.7,4.2-0.4,5.4
		c-0.7,0.5-1.6,0.7-2.6,0.9c-2.5,0.4-4.9,0.6-7.4,0.9C227.8,273.3,223.6,274.3,218.8,273.9L218.8,273.9z M470.5,245.3
		c0.4-2.6,2.8-3.2,3.9-5.2c1.2,0.2,2.2,0.6,3.3,0.9c0.7-0.9,1.5-1.7,2.1-2.7c-0.1-2.5-0.5-5.2,3.1-6.3c0.6,0.2,1.5,0.5,2.5,0.9
		c0.1,0.4,0.4,0.6,0.5,1c1,3.3,1,3.4,3.3,5.3c1.7-0.2,3.4-0.5,5.4-0.7c0.2,0.2,0.6,0.5,1,0.7c1.4,0.6,1.7,1.8,1.7,3.1
		c0,1.5-1,2.6-2.3,2.9c-1.2,0.4-2.6,0.6-3.9,0.7c-2.2,0.2-4.4,0.5-6.8,0.7c-3.7,0.4-7.4,0.9-11.2,1.4
		C472.1,247,471.4,246.1,470.5,245.3L470.5,245.3z M142.2,242.6c-2,0.4-3.4,0.6-5.2,1c-0.1-0.9-0.2-1.5-0.2-2.1
		c-1.7-1.4-3.7-2.1-5.9-1.8c-1.4,0.1-1.4,0-4.3-2.1c0.1-0.7,0.2-1.6,0.5-2.6c1.8-0.6,3.7-1.1,5.4-1.7c0.4-0.1,0.9-0.2,1.2-0.6
		c0.9-0.9,2.1-0.9,3.2-0.9c3.2-0.1,4.3,0.7,4.7,3.9c0.2,1.6,0.4,3.3,0.5,5C142.3,241.2,142.2,241.8,142.2,242.6L142.2,242.6z
		 M399,215.8c-1.8,0.4-3.3,0.6-5,0.9c-0.1-0.5-0.1-1-0.2-1.4c-0.1-0.2-0.2-0.7-0.5-0.9c-1.5-0.6-2.7-2.1-4.5-1.7s-3.4-0.5-4.9-1.6
		c-0.1-0.2-0.2-0.4-0.2-0.6c0-0.6,0.1-1.4,0.2-2c1.7-0.7,3.2-1.7,5-2c0.7-0.1,1.5-0.6,2.1-1c1.7-1,3.4-1,5.2-0.4
		c1,0.4,1.8,1,2.1,2.1C398.7,210.2,399.2,212.9,399,215.8L399,215.8z M465.1,246.1c-1.6,2.9-1.6,2.9-3.4,3.1
		C462.5,247.7,463.6,246.7,465.1,246.1z M173,247c-0.9-0.7-1.8-1.5-2.8-2.3c0.5-0.1,0.7-0.4,0.9-0.2C172,245,172.7,245.8,173,247
		L173,247z"/>
	<path class="st0" d="M326.6,249.5l-0.5-0.5v-0.6c0-0.1,0.1-0.2,0.2-0.5c0.9,0.2,1.4,0.9,2,2.1C327.3,249.7,327,249.6,326.6,249.5z
		 M182.1,237.2c0.9,0.7,1.5,1.4,2.1,2c-0.2,0.2-0.5,0.5-0.5,0.4C182.4,238.8,182.4,238.8,182.1,237.2z M198.7,245.2h-1.2
		c0-0.1,0-0.5,0.1-0.5c0.2-0.1,0.6-0.2,0.9-0.2C198.4,244.4,198.4,244.8,198.7,245.2z M173,247c0.1,0.1,0.2,0.1,0.5,0.2v-0.5
		C173.4,246.7,173.1,246.9,173,247z M324.4,247.9h-0.2c0,0-0.1-0.1-0.1-0.2h0.4C324.4,247.6,324.4,247.7,324.4,247.9L324.4,247.9z
		 M229.8,133.4c0.5,0,0.9-0.1,1.2-0.1h11.5c1.1,0,2.3,0.1,3.4,0.4c2.9,0.5,5.2,2.1,6.8,4.5c1.2,1.8,1.8,3.8,2.3,5.9
		c0.5,2.2,0.7,4.4,0.7,6.8v10.8c0,2-0.4,3.8-1,5.6s-1.5,3.4-2.8,4.8c-0.1,0.1-0.2,0.2-0.2,0.4v0.2c0.1,0.1,0.1,0.2,0.2,0.4
		c2.1,2.1,3.1,4.8,3.6,7.6c0.2,1.5,0.4,3.1,0.4,4.7v12.2c-0.1,3.1-0.6,6.1-2,9.1c-1.4,3.1-3.7,5.4-7,6.3c-1,0.2-2.1,0.5-3.1,0.5
		h-13.7c0-0.4-0.1-0.6-0.1-0.9v-1v-75.9C229.8,134.8,229.8,134.2,229.8,133.4L229.8,133.4z M240.5,178.1c0,0.4-0.1,0.7-0.1,1.2
		c-0.1,10.3,0,22.2,0.2,23.5c0.9,0.1,1.7,0.1,2.6,0s1.5-0.6,1.7-1.5c0.1-0.5,0.2-1.1,0.2-1.6v-18.3c0-0.5,0-1.1-0.2-1.6
		c-0.2-0.9-0.9-1.5-1.8-1.5C242.4,177.9,241.5,177.9,240.5,178.1L240.5,178.1z M240.5,167.1c0.9,0.2,1.6,0.1,2.3,0.1
		c1.4,0,2-0.5,2.2-1.8c0.1-0.4,0.1-0.7,0.1-1V147c0-0.5-0.1-1.1-0.2-1.6c-0.2-0.6-0.7-1-1.4-1.1c-1-0.2-2.1-0.2-3.1,0
		C240.5,151.8,240.5,159.3,240.5,167.1L240.5,167.1z M390.7,133.5c1.1-0.1,8.3-0.2,9.9-0.1c0.1,0,0.4,0.1,0.6,0.1v66.9
		c0.1,1.4,1,2.1,2.3,2.1c1.2,0,2.1-0.7,2.2-2c0.1-0.9,0.1-1.7,0.1-2.6v-62.6v-2c0.9-0.2,1.7-0.1,2.6-0.1h7.9c0,0.4,0.1,0.7,0.1,1
		v61.3c0,2.6-0.2,5.2-0.9,7.7c-0.2,1.4-0.7,2.6-1.4,3.8c-1.8,3.7-4.7,5.6-8.7,6.1c-2.1,0.2-4.2,0.1-6.3-0.5
		c-2.6-0.7-4.5-2.3-5.9-4.5c-1.4-2-2-4.3-2.3-6.6c-0.4-2.2-0.5-4.5-0.5-6.8v-59.3C390.6,134.9,390.4,134.2,390.7,133.5L390.7,133.5z
		 M311,173.3v22.2c0,2.8-0.2,5.5-1,8.2c-0.4,1.1-0.7,2.3-1.4,3.3c-1.6,3.3-4.2,5.3-7.9,5.9c-2.2,0.4-4.5,0.4-6.8-0.2
		c-2.8-0.7-5-2.5-6.5-5c-1.4-2.3-2-4.8-2.3-7.4c-0.2-1.8-0.4-3.8-0.4-5.6v-43.3c0-2.8,0.2-5.5,1-8.2c0.4-1.6,1-3.1,1.8-4.4
		c1.6-2.7,4.1-4.4,7.1-5c2.2-0.5,4.5-0.5,6.8,0.1c2.7,0.6,4.8,2.1,6.3,4.3c1.2,1.8,2,3.8,2.5,5.9c0.5,2.3,0.7,4.7,0.7,7
		C311,158.5,311,166,311,173.3L311,173.3z M300.4,173.4v-4.1v-21.4c0-0.7,0-1.5-0.1-2.2c-0.2-1.2-1.1-1.8-2.2-1.8s-2,0.6-2.2,1.8
		c-0.1,0.6-0.1,1.2-0.1,1.8v52.4c0,0.5,0.1,0.9,0.2,1.4c0.2,0.5,0.6,1,1.1,1.1c1.5,0.6,2.9-0.1,3.2-1.7c0.1-0.7,0.1-1.5,0.1-2.2
		V173.4z M148.3,213.2c-0.4,0-0.6,0.1-0.9,0.1h-9.5c-0.1,0-0.1-0.1-0.2-0.1v-0.6c3.4-26.2,6.9-52.2,10.4-78.3c0-0.2,0.1-0.5,0.2-0.7
		c1.1-0.2,8.6-0.2,10.2,0c0.1,0.2,0.2,0.6,0.2,1c0.6,4.9,1.2,9.7,2,14.6c0.7,5.6,1.5,11.3,2.3,17.1c0.6,4.9,1.2,9.8,2,14.7
		c0.6,4.9,1.4,9.8,2,14.7c0.5,4.2,1.1,8.2,1.6,12.4c0.1,1.1,0.4,2.2,0.5,3.3c0.1,0.6,0.1,1.2,0.2,1.8c-0.2,0-0.5,0.1-0.7,0.1h-9.3
		c-0.1,0-0.2,0-0.5-0.1c-0.5-1.8-0.5-3.7-0.9-5.6c-0.2-1.8-0.5-3.8-0.7-5.5c-1.2-0.2-5.4-0.2-7-0.1c-0.4,1.1-0.4,2.5-0.5,3.7
		c-0.2,1.4-0.2,2.6-0.5,3.9C148.7,210.8,148.6,212,148.3,213.2L148.3,213.2z M153.1,170.4c0,0.2-0.1,0.6-0.1,0.9
		c-0.1,4.1-0.7,8.2-1.1,12.3c-0.2,1.8-0.5,3.8-0.6,5.6c0,0.4-0.2,0.9,0.1,1.4c1.2,0,2.6,0.1,3.8-0.1c0-0.2,0.1-0.4,0.1-0.5
		c-0.6-6.4-1.6-12.8-2-19.3C153.3,170.6,153.2,170.6,153.1,170.4C153.3,170.5,153.2,170.5,153.1,170.4L153.1,170.4z M340.1,133.5
		c1.4-0.2,20.9-0.2,22.3,0c0,0.2,0.1,0.4,0.1,0.6v9.1c0,0.2-0.1,0.5-0.1,0.9H351c-0.5,0.6-0.4,1.1-0.4,1.7v20.5c0,0.2,0,0.6,0.1,1
		c2.2,0.2,4.3,0,6.4,0.1c0.1,0.2,0.2,0.4,0.2,0.5v9.2c0,0.2,0,0.5-0.1,0.7c-0.2,0-0.6,0.1-0.9,0.1h-5.7c0,0.4-0.1,0.7-0.1,1.1v22.5
		c0,0.4,0,0.7,0.1,1.1c0.5,0,1,0.1,1.4,0.1h10.2c0,0.4,0.1,0.6,0.1,0.9v9.5c-0.5,0.5-1.1,0.2-1.5,0.2H340c0-0.4-0.1-0.6-0.1-1v-1.2
		v-75.8C340.1,134.8,340.1,134.2,340.1,133.5L340.1,133.5z M452.7,213.4h-9.9c-0.1,0-0.4-0.1-0.6-0.1c0-0.1-0.1-0.4-0.1-0.5V134
		c0-0.1,0.1-0.2,0.1-0.5c0.4,0,0.6-0.1,1-0.1c7.7-0.1,23.9-0.1,25.2,0.1c0,0.1,0.1,0.1,0.1,0.2v10l-0.1,0.1h-15.5
		c-0.4,0.2-0.2,0.7-0.2,1.1v21.9c0.4,0,0.6,0.1,1,0.1h4.4c0.4,0,0.7,0,1.1,0.1c0.1,0.2,0.1,0.2,0.1,0.4v10.2c-0.4,0-0.7,0.1-1,0.1
		h-4.1c-0.5,0-0.9,0-1.4,0.1c-0.2,0.6-0.1,1.2-0.1,1.8V213.4z M102,202.7h7.8c1.2,0,2.5-0.1,3.8,0.1c0,0.2,0.1,0.4,0.1,0.6v9.3
		c0,0.1-0.1,0.2-0.1,0.4c-1.2,0.1-20.9,0.1-22.2,0c0-0.2-0.1-0.5-0.1-0.9V211v-75.6v-2c1.8-0.2,3.6-0.1,5.3-0.1h5.2
		c0,0.4,0.1,0.6,0.1,1v66.3C101.9,201.2,101.8,201.9,102,202.7L102,202.7z M280.5,107.1c1,3.1,2,6,3.1,9.3c0.2-0.6,0.5-1,0.7-1.4
		c1.2-0.2,4.3-0.2,5.5,0c0,0.4-0.1,0.6-0.1,1c-0.9,3.2-1.7,6.3-2.7,9.5c-0.1,0.4-0.2,0.9-0.1,1.4c1,0.6,1.8-0.4,2.8,0
		c0.2,1,0.2,4.7,0,6.1c-0.2,0-0.5,0.1-0.9,0.1h-2.2c-1.2,0-2.3-0.2-3.4-1c-0.1-0.1-0.2-0.1-0.2-0.1c-1.2,0.4-2.3,0.7-3.4,1
		c-1.4,0.2-2.7,0.2-4.1,0c-2.3-0.5-4.1-1.8-5.2-4.1c-0.6-1.4-1-2.8-1.1-4.3c-0.2-2.8-0.4-5.8,0.2-8.6c0.5-2.8,1.6-5.4,3.2-7.7
		c0.2-0.4,0.5-0.9,0.9-1.4c-0.4-1.2-0.9-2.5-1.2-3.7c-0.6-2.1-1.2-4.2-1.5-6.3c-0.4-2.5-0.4-4.8,0.1-7.2c0.2-1,0.6-2,1.2-2.9
		c0.9-1.4,2.1-2.2,3.6-2.6c1.1-0.2,2.2-0.4,3.3-0.2c2.1,0.2,3.7,1.4,4.5,3.2c0.7,1.5,1,3.1,1.2,4.8c0.2,3.1-0.2,6-1.4,8.8
		c-0.6,1.7-1.5,3.3-2.2,4.9C281,106.3,280.8,106.7,280.5,107.1L280.5,107.1z M276.4,114.5c-0.1,0.2-0.2,0.2-0.4,0.4
		c-0.1,0.7-0.2,1.5-0.4,2.2c-0.4,2.2-0.2,4.4-0.1,6.6c0,0.6,0.1,1.2,0.2,1.7s0.5,1.1,1,1.2c1.2,0.2,2.3,0.4,3.4-0.5
		c-0.2-1.1-2.7-9.3-3.4-11.3C276.6,114.9,276.5,114.8,276.4,114.5L276.4,114.5z M277.6,100.1c0.5-0.5,0.5-1.1,0.6-1.7
		c0.5-1.8,0.9-3.7,0.9-5.6c0-0.5,0-0.9-0.1-1.4s-0.5-0.7-1-0.7s-0.9,0.2-1,0.7c-0.1,0.7-0.2,1.4-0.2,2.1c0,1,0.1,2,0.2,2.8
		C277.1,97.6,277.1,98.9,277.6,100.1z M469,107.1v1.8c-0.4,0-0.6,0.1-0.9,0.1h-169c-0.4-0.6-0.2-1.2-0.1-1.8c0.2,0,0.6-0.1,0.9-0.1
		h166.8C467.4,107,468.2,106.9,469,107.1L469,107.1z M89.7,108.9c-0.1-0.6-0.2-1.2,0-1.8c0.2,0,0.4-0.1,0.6-0.1H259
		c0.1,0,0.2,0.1,0.5,0.1v1.7c-0.2,0-0.5,0.1-0.9,0.1H91.7C91.2,109.1,90.5,109.1,89.7,108.9z M468.9,113.8c0.1,0.4,0.1,0.5,0.1,0.6
		v1.1c-0.4,0.1-0.6,0.1-0.9,0.2H301c-0.6,0-1.4,0.1-2-0.1c-0.2-0.5-0.1-1.1-0.1-1.7c0.2,0,0.6-0.1,0.9-0.1H468.9z M89.7,115.7
		c-0.1-0.7-0.1-1.2,0-1.8c0.2,0,0.4-0.1,0.6-0.1h169.1c0.4,0.6,0.2,1.1,0.2,1.7c-0.2,0.1-0.6,0.1-0.9,0.2L89.7,115.7z"/>
	<path class="st0" d="M234.4,88.1c0-0.2-0.1-0.5-0.1-0.6V8.8c0-0.1,0.1-0.2,0.1-0.5c0.4,0,0.7-0.1,1.1-0.1h11.9
		c1.8,0,3.7,0.4,5.4,1.1c2.5,1.1,4.2,2.9,5.3,5.4c1,2,1.5,4.1,1.8,6.1c0.2,1.8,0.4,3.6,0.4,5.4v9.1c0,2.1-0.2,4.2-0.9,6.3
		c-0.6,2.1-1.5,3.9-3.1,5.4c-0.1,0.1-0.1,0.2-0.2,0.4c0,0.1,0,0.2,0.1,0.2c2.2,2.2,3.2,4.9,3.7,7.9c0.2,1.6,0.4,3.1,0.4,4.7V71
		c0,2.8-0.4,5.6-1.2,8.5c-0.6,2-1.5,3.8-2.9,5.3c-1.6,1.7-3.6,2.7-5.8,3.1c-1,0.2-2.1,0.2-3.2,0.4h-11.8
		C235.1,88.2,234.8,88.1,234.4,88.1L234.4,88.1z M245.1,52.8c0,0.2-0.1,0.4-0.1,0.5v23.6c0,0.1,0.1,0.2,0.1,0.5
		c0.9,0.1,1.7,0.1,2.5,0c1,0,1.6-0.6,1.8-1.5c0.1-0.6,0.2-1.2,0.2-1.7v-18c0-0.5-0.1-1-0.1-1.5c-0.2-1.1-0.9-1.7-2-1.8
		C246.8,52.6,245.9,52.6,245.1,52.8z M245.2,42.1h2.5c1-0.1,1.7-0.6,1.8-1.6c0.1-0.7,0.2-1.4,0.2-2.1V27.8v-5.4
		c0-0.7-0.1-1.4-0.2-2.1c-0.1-0.6-0.5-1.1-1.1-1.4c-0.7-0.2-2.3-0.2-3.2,0C244.9,20.6,244.9,40.7,245.2,42.1z M170,88
		c-1.1,0.2-9.2,0.2-10.6,0c-0.6-3.7-1-7.5-1.6-11.3c-1.2-0.4-2.5-0.1-3.6-0.1s-2.3-0.1-3.4,0.1c-0.6,3.8-0.9,7.6-1.4,11.3
		c-0.2,0.1-0.4,0.1-0.5,0.1h-9.6c-0.1,0-0.2-0.1-0.4-0.1c0-0.1,0-0.1-0.1-0.1v-0.1c3.4-26.5,7-52.9,10.6-79.4
		c0.2-0.1,0.5-0.1,0.7-0.1h8.8c0.2,0,0.4,0,0.6,0.1c0.4,0.7,0.4,1.6,0.5,2.5c0.9,6,1.6,12,2.5,18c0.7,5.6,1.5,11.3,2.2,17.1
		c0.7,5.6,1.5,11.3,2.3,17.1c0.6,4.9,1.2,9.8,2,14.7c0.4,3.2,0.9,6.5,1.2,9.7C170,87.5,170,87.7,170,88z M154.2,44.6
		c-0.2,2.3-0.4,4.5-0.6,6.9c-0.2,2.2-0.5,4.5-0.7,6.8s-0.5,4.5-0.7,6.9c0.7,0.4,1.5,0.2,2.1,0.1c0.7,0,1.4,0.2,2.1-0.2
		C155.8,58.3,154.7,51.5,154.2,44.6L154.2,44.6z M302.2,42.1c1,0.1,2.1,0,3.2,0h3.1c0.1,0.2,0.1,0.4,0.1,0.5v9.5
		c0,0.1-0.1,0.2-0.1,0.5c-2.1,0.2-4.2,0-6.4,0.1c-0.1,0.2-0.1,0.5-0.1,0.9v23.7c0.5,0.5,1,0.4,1.4,0.4h8.7c0.5,0,1,0,1.6,0.1
		c0.2,1.8,0.1,3.6,0.1,5.3v5.3c-0.4,0.1-0.5,0.1-0.7,0.1h-21.6c-0.1-0.4-0.2-0.6-0.2-0.9v-1.4V10.6V8.8c0.5-0.5,1-0.4,1.4-0.4h19.4
		c0.5,0,1,0,1.6,0.1c0.2,1.8,0.1,3.6,0.1,5.3v5c-0.5,0.4-1,0.4-1.4,0.4h-10.1c-0.1,0.1-0.1,0.1-0.1,0.2V42.1
		C301.9,41.8,302,41.8,302.2,42.1z M456.7,18.9c0,0.4-0.1,0.6-0.1,0.9V42c0.4,0.1,0.6,0.1,1,0.1h5.7c0.1,0.4,0.1,0.6,0.1,1v8.7
		c0,0.2,0,0.5-0.1,0.7c-0.7,0.4-1.4,0.1-2.1,0.1h-4.4c0,0.5-0.1,0.9-0.1,1.2v23.4c0.5,0,1,0.1,1.4,0.1h8.7c0.5,0,1,0,1.6,0.1
		c0.1,1.8,0,3.6,0.1,5.3v5c-0.6,0.4-1.1,0.2-1.7,0.2h-19.5c-0.4,0-0.7,0-1.1-0.1c0-0.2-0.1-0.5-0.1-0.7c-0.1-3.7,0-77.7,0.1-79
		c0.4-0.4,0.7-0.2,1.1-0.2h19.4c0.5,0,1.1,0,1.7,0.1c0.2,1,0.1,1.7,0.1,2.6v5.3c0,0.9,0,1.7-0.1,2.6c-1.4,0.2-2.6,0.1-3.8,0.1h-3.9
		C459.4,18.9,458.2,18.9,456.7,18.9L456.7,18.9z M394.7,8.3c1.5-0.2,9.1-0.2,10.6,0c0,0.2,0.1,0.5,0.1,0.9v66.3c0,0.6,0,1.2,0.1,2
		c1.4,0.2,2.6,0.1,3.8,0.1h7.7c0.1,0.2,0.2,0.5,0.2,0.7v9.2c0,0.2,0,0.4-0.1,0.5l-0.2,0.2h-21.3c-0.2,0-0.4,0-0.6-0.1
		c0,0-0.1-0.1-0.2-0.1c0-0.1-0.1-0.4-0.1-0.6V8.3z M90.6,8.3c1.4-0.2,7.1-0.2,9.8-0.1c0.2,0,0.5,0.1,0.9,0.1c0.1,2,0,3.8,0,5.8v63.8
		c0.6,0.4,1.1,0.2,1.6,0.2h8.6c0.5,0,1-0.1,1.5,0.1c0.2,1.1,0.2,9,0,10.4c-0.2,0-0.5,0.1-0.7,0.1H91.4c-0.1,0-0.2,0-0.5-0.1
		c0-0.2-0.1-0.5-0.1-0.9v-1.4V10.7C90.6,9.7,90.6,9,90.6,8.3z M354.1,77.3c1.5,0.2,2.7,0.1,3.9,0.1h7.7c0.1,0.4,0.1,0.6,0.1,0.9V87
		c0,0.2,0,0.6-0.1,0.9c-0.1,0.1-0.1,0.1-0.2,0.1h-21.3c-0.2,0-0.4,0-0.7-0.1c0-0.2-0.1-0.6-0.1-0.9v-1.2V10c0-0.6-0.1-1.4,0.1-2
		c1.1-0.2,2.3-0.1,3.4-0.1h3.4c1.1,0,2.3,0,3.6,0.1c0,0.4,0.1,0.6,0.1,0.9V75C354.1,75.8,354.1,76.6,354.1,77.3z"/>
	<path class="st0" d="M48.4,179.6c-0.7-0.4-1.5-0.9-2.3-1.1c-0.7-0.4-1.5-0.6-2.2-0.9c-0.9-0.2-1.7-0.4-2.5-0.5s-1.6-0.1-2.5-0.1
		s-1.7,0.1-2.6,0.2c-0.7,0.1-1.6,0.2-2.3,0.5c-0.9,0.2-1.6,0.5-2.3,0.9s-1.4,0.7-2.2,1.1c-0.1-0.2-0.1-0.5-0.1-0.6
		c0-1.6-0.1-3.1-0.1-4.7v-12.6v-7.9c-0.1-9.2-0.1-18.4-0.2-27.7c0-4.7,0-9.3-0.1-14c0-1.7-0.1-2.1-1.8-2.6c-1.8-0.6-3.7-1.1-5.5-1.6
		c-3.2-0.7-6.4-1.5-9.6-2.2c-0.7-0.1-1.6-0.4-2.3-0.6c-1.4-0.4-2.6-1-3.7-2c-1.6-1.4-2.3-2.9-2.5-5c0-1.4-0.1-2.8-0.2-4.2
		C3.2,89.6,3,85.3,2.8,80.9C2.7,77.5,2.6,74,2.3,70.5c-0.2-4.4-0.4-8.7-0.6-13.1c-0.2-4.2-0.4-8.5-0.6-12.6c-0.2-4.7-0.4-9.3-0.6-14
		c-0.2-5.5-0.4-10.9-0.6-16.5c0-1.5-0.2-2.9,0.1-4.3c0.2-1.4,0.7-2.5,1.7-3.4C2.8,5.4,4.3,5,5.9,4.8h66.4c3.3,0.2,5.5,2.3,5.9,5.8
		c0.1,0.9,0.1,1.7,0.1,2.6c-0.1,3.1-0.1,6.1-0.2,9.2c-0.1,3.9-0.2,7.9-0.5,11.8c-0.2,4.7-0.4,9.3-0.6,14c-0.2,4.3-0.4,8.5-0.6,12.8
		l-0.6,12.9c-0.2,4.2-0.4,8.3-0.6,12.5c-0.1,3.9-0.4,8-0.5,11.9c-0.1,2.1-0.9,3.8-2.5,5.2c-1.1,1-2.2,1.6-3.7,2
		c-3.1,0.7-6,1.4-9.1,2.1c-2.3,0.6-4.8,1.2-7.1,1.8c-0.7,0.2-1.4,0.5-2.1,0.9c-0.6,0.2-1,0.7-0.9,1.5v31.4
		c-0.1,8.5-0.1,16.8-0.2,25.3c0,2.6,0,5.3-0.1,7.9c0,1.1-0.1,2.2-0.1,3.3C48.5,179.2,48.5,179.3,48.4,179.6L48.4,179.6z M36.1,46
		v23.2c0,0.6,0,1.2,0.2,1.7c0.2,1,1,1.6,2.1,1.7h0.9c1.2-0.1,2-0.7,2.2-1.8c0.1-0.5,0.1-1.1,0.1-1.6V22.9c0-0.5,0-1-0.1-1.5
		c-0.1-0.6-0.5-1.2-1-1.6c-1.7-1.2-4.2-0.1-4.4,2V46z M61.5,45.6C61.4,45.6,61.4,45.6,61.5,45.6c0-3.6,0.1-7.2,0.2-10.8
		c0.1-4.2,0.1-8.3,0.1-12.5c0-0.4,0-0.7-0.1-1c-0.1-0.6-0.5-1.2-1.1-1.6c-1.8-1.2-4.2-0.1-4.3,2.1c-0.1,1-0.1,2-0.1,2.9
		c0,2.2,0,4.4-0.1,6.6v4.9C56,39.5,56,43,55.9,46.3c-0.1,5.2-0.1,10.3-0.2,15.5c0,2-0.1,3.9-0.1,5.9v2.1c0.1,1.8,1.1,2.7,2.9,2.7
		h0.2c1.1-0.1,2-0.7,2.2-1.8c0.1-0.6,0.2-1.4,0.2-2c0-2.1,0-4.2,0.1-6.3c0-1.7,0-3.4,0.1-5.2C61.3,53.5,61.4,49.6,61.5,45.6z
		 M22.1,46C22,43.8,22,41.7,22,39.5c-0.1-5.2-0.1-10.2-0.2-15.3c0-0.7,0-1.4-0.1-2.1c-0.1-2.1-1.6-3.2-3.7-2.7c-1,0.2-1.7,1-1.8,2
		c-0.1,0.5-0.1,0.9-0.1,1.4c0,1.7,0,3.6,0.1,5.3c0.1,5.2,0.1,10.3,0.2,15.5c0.1,4.9,0.2,9.7,0.2,14.6c0,3.6,0.1,7.2,0.1,10.8
		c0,0.6,0.1,1.2,0.2,1.8c0.1,1,0.7,1.7,1.7,1.8c1.1,0.2,2.1,0.2,2.9-0.6c0.6-0.6,0.7-1.2,0.7-2.1v-2.7c-0.1-4.1-0.1-8-0.2-12
		C22.2,52.1,22.2,49.1,22.1,46L22.1,46z M38.9,82.6c1.2,0,2.6-0.9,2.6-2.6c0-1.4-1.2-2.5-2.5-2.5c-1.4,0-2.5,1.1-2.6,2.5
		S37.4,82.6,38.9,82.6z M57.9,82.6c1.4,0,2.5-1.1,2.6-2.5c0-1.5-1.1-2.7-2.5-2.7s-2.6,1.2-2.6,2.6C55.5,81.5,56.6,82.6,57.9,82.6z
		 M20.1,92.8c1.4,0,2.5-1.1,2.5-2.5c0.1-1.4-1.1-2.6-2.6-2.6c-1.4,0-2.5,1.1-2.5,2.5C17.5,91.7,18.6,92.8,20.1,92.8z M17.4,80
		c-0.1,1.1,0.9,2.5,2.5,2.6c1.5,0,2.6-1.1,2.6-2.6s-1.2-2.6-2.6-2.6C18.4,77.6,17.3,78.7,17.4,80z M41.5,90.3c0-1.4-1.1-2.6-2.5-2.6
		c-1.5-0.1-2.7,1.1-2.7,2.5s1,2.6,2.3,2.6C40.3,92.9,41.5,91.7,41.5,90.3z M60.3,90.2c0-1.4-1-2.5-2.5-2.6c-1.5,0-2.6,1.1-2.6,2.6
		c0,1.4,1,2.5,2.5,2.6C59.2,92.8,60.3,91.7,60.3,90.2z"/>
	<path class="st0" d="M22.3,234v-5.2c0-2.3,0-4.7,0.1-7.1c0.1-5.3,0.2-10.4,0.2-15.6c0.1-4.1,0.1-8,0.2-12c0-3.9,1.2-7.4,3.8-10.4
		c3.2-3.7,7.2-5.6,12.2-5.8c7.1-0.2,14.1,4.8,15.8,12.4c0.2,1.2,0.4,2.5,0.5,3.6c0.1,3.7,0.1,7.4,0.1,11.2
		c0.1,5.3,0.2,10.4,0.2,15.6c0.1,3.6,0.1,7.2,0.2,10.8c0,3.6,0.1,7,0.1,10.6c0.1,4.8,0.1,9.6,0.2,14.5c0.1,5.6,0.1,11.2,0.2,16.8
		c0.1,5.4-2.2,9.6-6.4,12.9c-3.7,2.9-8,4.2-12.6,3.8c-4.1-0.4-7.6-2.1-10.7-4.8c-2.5-2.2-4.2-5-4.9-8.3c-0.1-0.9-0.2-1.8-0.2-2.7
		c0-4.3,0.1-8.6,0.1-12.9c0-3.7,0.1-7.5,0.2-11.2c0-3.6,0.1-7,0.1-10.6C22.1,237.8,22.2,235.9,22.3,234C22.2,234,22.2,234,22.3,234
		L22.3,234z M52.7,262.8c-0.9-1-1.8-1.1-3.1-0.9c-1.4,0.2-2.6,1-3.8,1.7c-0.7,0.5-1.5,0.9-2.2,1.2c-0.6,0.4-1.4,0.4-2.1,0
		c-0.5-0.2-1-0.2-1.6-0.1c-0.7,0.1-1.5,0.1-2.2,0c-0.5-0.1-1-0.1-1.5,0.2c-0.7,0.5-1.6,0.4-2.3,0c-0.6-0.2-1.1-0.6-1.7-1
		c-0.7-0.5-1.5-1-2.2-1.2c-0.7-0.4-1.5-0.5-2.1-0.7c-1.1-0.2-2,0-2.8,0.9l0.1,0.1h0.2c1.6-0.4,2.9,0.1,4.3,1
		c1.2,0.9,2.5,1.8,3.8,2.7c-0.1,0.1-0.2,0.2-0.4,0.2c-0.2,0.1-0.5,0.2-0.5,0.5c0,0.4,0.2,0.5,0.6,0.6c0.5,0.1,1,0.1,1.5,0.1
		c0.4,0,0.7-0.1,1.2-0.2c0.2,0.6,0.4,1.1,0.6,1.6s0.5,1,0.7,1.5c0.2,0.6,0.4,1.2,0.1,2c-0.2,0.6,0,1.2,0.2,1.7s0.6,0.7,1.2,0.7
		s1-0.2,1.2-0.7c0.2-0.6,0.4-1.2,0.2-2c-0.1-0.6-0.1-1.2,0.2-1.8c0.5-1,0.9-1.8,1.4-2.9c0.4,0.1,0.9,0.1,1.2,0.2
		c0.6,0.1,1.2,0,1.7-0.4c0.2-0.1,0.2-0.6,0-0.7s-0.5-0.2-0.6-0.5c1.1-0.7,2-1.5,2.9-2.2c0.4-0.2,0.9-0.6,1.2-0.9
		c1.1-0.7,2.3-1,3.6-0.7L52.7,262.8z"/>
</g>
</svg>
