<?xml version="1.0" encoding="utf-8"?>
<!-- Generator: Adobe Illustrator 26.2.1, SVG Export Plug-In . SVG Version: 6.00 Build 0)  -->
<svg version="1.1" id="Layer_1" xmlns="http://www.w3.org/2000/svg" xmlns:xlink="http://www.w3.org/1999/xlink" x="0px" y="0px"
	 viewBox="0 0 543.5 194.2" style="enable-background:new 0 0 543.5 194.2;" xml:space="preserve">
<style type="text/css">
	.st0{fill:#FFFFFF;}
</style>
<g>
	<path class="st0" d="M32.7,71.9v35.8c0,5,2.2,8.6,6.9,10.3c3.8,1.4,7.7,2.5,11.5,3.8c0.8,0.2,1.6,0.5,2.3,0.9
		c1.1,0.6,1.9,1.6,1.4,3c-0.5,1.3-1.3,2.2-3,2.1c-6-0.5-12.1-0.8-18.1-1.2c-8.7-0.5-17.4,0.5-26,1.6c-1.4,0.2-2.9,0.4-4.3,0.5
		c-1.7,0.1-3.1-1-3.3-2.4c-0.2-1.3,0.8-2.5,2.5-3c3.6-1,7.2-2,10.8-3.1c4.3-1.4,6.6-4.3,6.8-8.9c0.7-14.2,1.6-28.3,2.4-42.5
		c0.8-13.9,1.6-27.8,2.3-41.6c0.1-2.1-0.3-4.2-0.7-6.3c-0.5-2.5-2.1-4-4.6-4.6c-3.1-0.8-6.2-1.6-9.3-2.5c-1.2-0.3-2.4-0.7-3.3-1.4
		s-2-2.1-1.8-2.9c0.2-0.9,1.6-1.8,2.7-2.3c1.1-0.4,2.5-0.4,3.7-0.4C18.2,7,24.8,7.3,31.5,7.4c2.6,0,5.3-0.4,7.9-0.8
		c5-0.7,8.6,1.3,10.8,5.8l13.2,28.5c6.5,13.9,13,27.9,19.5,41.8c0.5,1,1,2,1.6,2.9c0.9,1.3,1.6,1.3,2.5-0.1c0.6-1,1.1-2.1,1.6-3.3
		c9-22.8,17.9-45.6,26.9-68.3c2.5-6.3,5.9-8.4,12.6-8.3c8.4,0.1,16.7,0,25.1-0.1c2.1,0,4.1-0.4,6.2-0.5c1.5-0.1,3-0.1,4.4,0.3
		c2.6,0.7,3.1,3,1,4.8c-1.5,1.4-3.4,2.1-5.5,2.3c-2.7,0.3-5.5,0.6-8.1,1.4c-5.6,1.8-8.8,6.9-8.7,12.8c0.5,25.8,1,51.7,1.6,77.5
		c0.2,7.9,3.5,12.4,11.1,14.8c2.4,0.7,4.9,1.3,7.3,2c0.7,0.2,1.3,0.4,1.9,0.7c1.8,1,2.6,2.3,2.2,3.7s-2.3,2.7-4.1,2.6
		c-4.5-0.4-9.1-0.8-13.6-1.3c-9.1-0.8-18.2-0.7-27.3,0c-4.5,0.4-9.1,0.8-13.6,1.1c-1.2,0.1-2.5,0-3.6-0.4c-1.9-0.6-2.4-2.5-0.9-3.8
		c1.1-1,2.6-1.7,4-2.2c2.4-0.9,5-1.2,7.2-2.3c1.8-0.9,3.4-2.3,4.8-3.7c1.1-1.1,1.3-2.7,1.3-4.3c-0.5-17.8-0.9-35.6-1.3-53.5
		c-0.2-7.2-0.3-14.3-0.5-21.5c0-0.9-0.1-1.7-0.3-2.6c-0.1-0.4-0.6-1.1-0.9-1.1c-0.5,0-1.1,0.4-1.4,0.7c-0.4,0.4-0.6,1-0.8,1.5
		c-11,27.4-21.9,54.7-32.9,82.1c-0.7,1.9-1.7,3.7-2.8,5.4c-1,1.6-2,1.6-3.2,0.2c-1-1.3-2-2.7-2.7-4.2C61.3,90.7,48.7,63.3,36,36
		c-0.4-0.9-0.8-1.8-1.3-2.6c-0.2-0.3-0.8-0.7-1.1-0.7c-0.4,0.1-0.8,0.6-1,1c-0.2,0.6-0.1,1.3-0.1,1.9V72
		C32.5,71.9,32.6,71.9,32.7,71.9L32.7,71.9z M343.9,66.5c10.6-0.6,21.3-1.2,31.9-1.8c1.5-0.1,3,0,4.4,0.3c1.6,0.3,3,1.1,3.1,3
		s-1.2,2.9-2.7,3.4c-2.2,0.7-4.5,1-6.7,1.5s-4.4,0.9-6.5,1.8c-2.5,1.1-3.8,3.3-3.8,6.1c0.1,8,0.3,15.9,0.4,23.9c0,1.7,0,3.5-0.2,5.2
		c-0.5,4.3-2.7,7.4-6.4,9.6c-6,3.6-12.5,5.7-19.4,6.9c-10.9,1.8-21.9,2.6-32.9,1.7c-13.2-1.1-25.9-4.2-37-11.6
		c-15.1-10-23.7-24.4-25.8-42.1c-2.5-20.9,3.7-39.5,18.7-54.6c8.7-8.8,19.8-13.4,31.7-16.5c12.1-3.2,24.4-3.5,36.7-2.6
		c5.2,0.4,10.5,0.9,15.6,2c8.6,1.9,12.4,6.7,12.8,15.5c0.1,3.3,0.1,6.6,0,9.9c-0.1,2-0.4,4.2-2.7,4.8c-2.2,0.5-3.4-1.3-4.4-3
		c-1-1.6-1.7-3.3-2.6-4.9c-5.3-10.1-13.2-16.1-24.8-17.1c-12.4-1-24,1-34.3,8.5c-8.7,6.4-14.3,14.9-17.6,25.1
		c-4.6,14.3-5.6,28.7-0.9,43.2c6.6,20.5,26.1,35.3,47.7,36.2c3,0.1,6.2-0.1,9.1-1c10.3-2.9,12.6-7.6,13.2-15.7
		c0.5-6.7,0.4-13.4,0.7-20s-4.4-9.1-8.9-9.5c-2.8-0.3-5.5-0.3-8.3-0.4c-1.9-0.1-3.7-0.4-5.1-1.7c-1.9-1.8-1.7-4.4,0.8-5.3
		c1.7-0.7,3.7-0.9,5.6-0.9c6.2-0.1,12.5,0,18.7,0C343.9,66.1,343.9,66.3,343.9,66.5L343.9,66.5z M470.3,55.3
		c0,16.8-0.1,33.6,0.1,50.4c0,2.7,1,5.4,1.8,8c0.7,2.1,2.5,3.4,4.5,4.3c1.9,0.9,4,1.6,5.9,2.5c1.1,0.5,2.3,1.2,3.1,2
		c1.6,1.6,1.1,3.6-1.2,4c-2.1,0.3-4.4,0.3-6.5,0c-11.8-1.5-23.5-1.1-35.2,0.6c-1.8,0.3-3.9-0.2-5.7-0.8c-1.7-0.5-1.8-2-0.3-3
		c1.1-0.8,2.4-1.3,3.7-1.8c2.2-1,4.5-1.7,6.7-2.8c3.1-1.7,4.6-4.5,4.5-8c-0.4-29-0.9-58-1.3-87c-0.1-4.8-2.1-8.1-6.8-9.7
		c-0.3-0.1-0.6-0.2-0.8-0.3c-0.7-0.7-2-1.5-2-2.3s1.1-1.7,1.8-2.4c0.5-0.5,1.3-0.7,2-0.9c6.7-2.5,13.4-5,20-7.5
		c0.7-0.3,1.5-0.5,2.3-0.6c1.4-0.1,2.3,0.6,2.6,2c0.1,0.7,0.2,1.5,0.2,2.2v51.2C470,55.3,470.1,55.3,470.3,55.3L470.3,55.3z
		 M526.9,55.4c0,16.9-0.1,33.8,0.1,50.7c0,2.8,1.1,5.6,2,8.3c0.7,2.1,2.5,3.4,4.5,4.3s4.1,1.6,6,2.5c1.2,0.6,2.4,1.3,3.2,2.2
		c1.3,1.4,0.8,3-1,3.4c-1.6,0.4-3.4,0.3-5.1,0.2c-5.2-0.3-10.5-1.2-15.7-1.1c-7.4,0.2-14.7,1.1-22,1.6c-1.6,0.1-3.2-0.2-4.7-0.7
		c-1.8-0.6-2-2.1-0.4-3.2c1.1-0.8,2.5-1.3,3.8-1.9c1.9-0.8,3.9-1.4,5.8-2.3c3.6-1.8,5.3-4.8,5.2-8.8c-0.3-24-0.7-48-1-72
		c-0.1-5.2-0.1-10.5-0.4-15.7c-0.2-3.8-2.2-6.4-5.7-7.9c-1.1-0.5-2.2-1-3.2-1.7c-1.2-0.9-1.2-2,0-2.9c0.9-0.7,2.1-1.3,3.2-1.7
		c6.7-2.6,13.4-5,20-7.6c3.8-1.4,5.1-0.5,5.1,3.5v50.7C526.6,55.4,526.8,55.4,526.9,55.4L526.9,55.4z"/>
	<path class="st0" d="M180.1,80.8c0,8.2,1.7,15.9,6.7,22.6c7.8,10.3,20.3,13.9,33.2,9.5c1.8-0.6,3.5-1.4,5.3-2.2
		c2.2-1,4.6-0.8,5.4,0.5s0.2,3.6-2,4.8c-4,2.4-8.1,4.7-12.4,6.5c-9.9,4-20.2,5.3-30.3,1.2c-15.2-6.1-24.2-17.6-26.2-33.9
		c-0.9-7.5,1.4-14.8,4.6-21.6c6.6-13.8,17.9-21.6,32.5-25c7.9-1.9,15.9-1.8,23.8,0.4c2.8,0.8,5.5,2.2,7.8,3.8
		c3.4,2.4,4.3,6.4,3.1,10.2c-1.2,3.6-4.3,5.3-8,4.5c-2.9-0.6-5.2-2.1-7.1-4.4c-1.3-1.5-2.5-3.2-3.8-4.7c-3.1-3.7-9.2-6.3-15.4-3.6
		c-8.2,3.5-12.9,9.9-15.3,18.1c-1.2,4.2-1.6,8.7-2.4,13C179.8,80.7,179.9,80.7,180.1,80.8L180.1,80.8z M429.4,127.3
		c-4.6-0.5-8.8-1-13.1-1.5c-7.5-0.9-14.8,0.2-22.2,1.6c-2.1,0.4-4.2,0.6-6.3,0.4c-0.8-0.1-2.1-1.1-2.3-1.9s0.6-2.1,1.3-2.7
		c1.3-0.9,2.8-1.6,4.3-2.1c7.8-2.9,8.8-4.3,8.8-12.7V74.6c0-1.8-0.3-3.7-0.6-5.5c-0.7-3.5-2.9-5.5-6.3-6.4c-1.6-0.4-3.5-0.7-3.6-2.7
		c-0.2-2,1.7-2.7,3.3-3.3c1.7-0.7,3.5-1.2,5.2-1.8c5.4-1.6,10.2-4.3,14.5-7.9c0.8-0.7,1.6-1.5,2.5-1.9c1-0.4,2.2-0.6,3.2-0.3
		c1.3,0.4,1.4,1.7,1.3,2.9c-0.2,2.1-0.7,4.1-0.7,6.2c-0.2,18.4-0.2,36.8-0.3,55.2c0,0.6,0.1,1.3,0.2,1.9c0.5,3.6,2.5,6.1,5.7,7.7
		c1.4,0.7,3,1.2,4.5,1.8c0.7,0.3,1.5,0.6,2.1,1.1c1.1,0.9,2,2.1,1.5,3.6C431.9,127.1,430.5,127.3,429.4,127.3z M292.7,193.1
		c0.5-0.3,0.9-0.8,1.4-1c1.8-0.8,2.6-2.1,2.6-4v-28.7c0-2.7-0.6-3.4-3.2-4.1c-0.5-0.1-0.9-0.4-1.4-1c0.5-0.2,0.9-0.5,1.4-0.5
		c4.4-0.1,8.9-0.2,13.3,0c2.2,0.1,4.5,0.2,6.6,0.9c6,1.9,8.1,9.3,4,14.6c-1.3,1.6-3.1,2.8-4.8,4.4c0.3,0.4,0.7,1.1,1.1,1.7
		c2.2,3.3,4.4,6.7,6.5,10c2.1,3.2,4.1,6.6,8.4,7.5c-2.1,1.6-6.3,1.1-8.5-1c-1.2-1.1-2.1-2.4-3-3.7c-2.4-3.6-4.7-7.1-6.9-10.8
		c-1.1-1.9-2.6-2.6-4.8-2.6c-5,0.1-4.3-0.2-4.3,4.3v8c0,3.6,0.6,4.4,4.1,5.3c0.7,0.2,1.3,0.6,2,0.8c-0.1,0.2-0.1,0.4-0.2,0.5h-14
		C292.9,193.4,292.8,193.2,292.7,193.1L292.7,193.1z M301.1,164.4v6.7c0,1.1,0.5,1.6,1.5,1.6c2.1,0,4.3,0.1,6.4-0.1
		c2.5-0.2,4.5-1.5,5.6-3.8c2.6-5.5-0.2-11.6-6.1-13c-1.7-0.4-3.4-0.4-5.1-0.5c-1.5-0.1-2.2,0.8-2.2,2.2
		C301.1,159.9,301.1,162.1,301.1,164.4L301.1,164.4z M70.6,153.8c1.1,0.1,2.3,0.4,3.3,0.1c2.4-0.7,3.6,0.6,4.9,2.1
		c8.3,9.4,16.8,18.8,25.2,28.1c0.4,0.5,0.9,1,1.3,1.6c0.2-0.1,0.3-0.2,0.5-0.2c0-0.6,0.1-1.2,0.1-1.8v-21.6c0-4.6-0.8-5.7-5.1-7.2
		c-0.4-0.1-0.8-0.4-1.1-1h12.1c-0.6,0.5-0.9,0.9-1.3,1c-1.8,0.8-2.3,2.2-2.3,4v32.5c0,0.7-0.1,1.4-0.2,2.7c-1-0.9-1.8-1.3-2.4-2
		c-8.2-9.2-16.3-18.4-24.4-27.6c-0.3-0.4-0.5-0.9-0.7-1.4c-0.2,0.1-0.5,0.3-0.7,0.4c-0.1,0.6-0.3,1.2-0.3,1.7v22.5
		c0,2.7,0.7,3.6,3.4,4.2c0.3,0.1,0.6,0.1,0.8,0.2c0.3,0.2,0.4,0.4,0.6,0.7c-0.3,0.2-0.6,0.6-0.9,0.6c-1.2,0-2.3-0.2-3.5-0.2
		c-2.1,0-4.3,0.2-6.4,0.2c-0.4,0-0.9-0.3-1.3-0.5c0.3-0.3,0.5-0.8,0.8-0.9c3.3-0.8,4-3.3,4-6.2v-22.5c0-1.4-0.3-2.9-0.7-4.2
		c-0.6-2.2-2-3.6-4.2-4.2c-0.6-0.2-1.1-0.4-1.7-0.6C70.6,154.2,70.6,154,70.6,153.8L70.6,153.8z M269.2,185.7c0,0.7,0.1,1.1,0,1.6
		c-0.6,3.1-4.3,6.4-7.4,6.4h-20.1c-0.4,0-0.9-0.1-1.4-0.6c0.5-0.3,1-0.6,1.5-0.8c1.5-0.5,2.3-1.5,2.4-3c0.1-0.8,0.2-1.6,0.2-2.4
		v-26.1c0-0.6,0-1.3-0.1-1.9c-0.2-1.9-1-3.3-3.1-3.6c-0.5-0.1-1-0.4-1.5-0.6v-0.5c0.7-0.1,1.4-0.3,2-0.3h22.8c1.1,0,1.6,0.4,1.5,1.5
		c-0.1,1.5-0.2,3.1-0.4,4.6c-0.1,0.5-0.3,1-0.5,1.5h-0.5c-0.1-0.7-0.4-1.3-0.4-2c-0.1-1.8-1.1-2.9-2.8-3c-3.8-0.2-7.6-0.3-11.4-0.3
		c-0.5,0-1.4,1-1.4,1.5c-0.1,4.4-0.1,8.9,0,13.3c0,0.4,0.7,1.1,1.1,1.1c2.8,0.1,5.7,0.1,8.5,0c1.7-0.1,2.9-1,3.4-2.7
		c0.2-0.5,0.4-1,1.1-1.5c0.1,0.4,0.4,0.8,0.4,1.3v9c0,0.4-0.3,0.8-0.5,1.2c-0.3-0.4-0.7-0.7-0.8-1.1c-1-3.4-1.5-3.7-5-3.7h-6.6
		c-1.3,0-1.7,0.5-1.7,1.8c0.1,4.2,0,8.3,0,12.5c0,2.1,0.6,2.7,2.6,2.9c4.8,0.3,9.6-0.1,13.9-2.6
		C266.6,188.1,267.7,186.9,269.2,185.7L269.2,185.7z M6.1,153.9h12.3c0,0.2,0.1,0.3,0.1,0.5c-0.5,0.2-1.1,0.5-1.6,0.7
		c-1.2,0.4-2.1,1.2-2.1,2.4c0,7.9-0.3,15.8,0.3,23.7c0.4,6.2,4.7,9.8,10.9,10.5c1.8,0.2,3.6,0.2,5.3-0.1c6.2-0.9,9.9-4.9,10.1-11.3
		c0.2-7,0.1-14.1,0.1-21.1c0-2.2-1-3.2-3.1-3.8c-0.8-0.2-1.5-0.5-2.2-0.8c0-0.2,0.1-0.4,0.1-0.6h11.1c-0.4,0.5-0.5,0.8-0.8,0.9
		c-2.5,1.1-2.9,3.2-2.9,5.6v18c0,1.7-0.1,3.4-0.5,5c-1.5,6.4-5.9,10.1-12.8,10.6c-2.9,0.2-5.9,0-8.8-0.6c-6.6-1.3-10.7-5.9-11-12.6
		c-0.3-7-0.2-14-0.3-20.9c0-3.5,0-3.5-3.3-4.8c-0.4-0.1-0.7-0.4-1.1-0.6C6,154.2,6.1,154.1,6.1,153.9L6.1,153.9z M409.7,1.6
		c5.6,0,10.3,4.6,10.3,10.1c0.1,5.6-4.7,10.5-10.2,10.5c-5.6,0-10.2-4.6-10.3-10.4C399.5,6.3,404.1,1.7,409.7,1.6z M353,182
		c0.2,0.4,0.6,0.8,0.7,1.3c2.4,9,13.1,11.1,19.2,7.1c2.7-1.8,3.9-4.4,3.7-7.6c-0.2-3.1-2.3-4.7-4.9-5.7c-2.8-1-5.6-1.8-8.4-2.7
		c-1.6-0.5-3.2-1.1-4.6-1.9c-3.6-1.9-5.3-5-5.2-9.1c0.1-4,2-7,5.6-8.7c4.8-2.4,9.8-2,14.8-0.3c1,0.3,2,0.5,3.4,0.8
		c0.3,2.5,0.6,5.4,0.9,8.4c-0.2,0.1-0.4,0.1-0.7,0.2c-0.4-0.6-0.9-1.2-1.1-1.9c-2.4-7-10.7-8.5-16-6c-2.6,1.2-3.9,3.3-4,6.2
		c-0.1,2.8,1.4,4.6,3.8,5.7c2.7,1.1,5.5,1.9,8.3,2.9c1.7,0.6,3.4,1.2,5,2c7.9,3.9,7.2,14.3,1.2,18.5c-5.1,3.6-14.6,4.1-20,0.8
		c-0.5-0.3-1-0.8-1.1-1.2c-0.5-2.5-0.9-5-1.3-7.5c-0.1-0.3,0.1-0.7,0.1-1C352.6,182.1,352.8,182,353,182z M198.3,187.4
		c0.6-1.3,0.9-2,1.2-2.7c3.2-7.9,6.5-15.9,9.7-23.8c0.3-0.7,0.6-1.5,0.7-2.3c0.4-2.1-0.1-2.8-2.1-3.4c-0.5-0.2-1-0.5-1.3-1.1h9.4
		c0.1,0.1,0.1,0.3,0.2,0.4c-3,1.3-3.5,4.2-4.6,6.8l-13.2,31.2c-0.2,0.5-0.4,1.2-0.8,1.5c-0.3,0.2-1,0.2-1.4,0
		c-0.3-0.2-0.4-0.8-0.6-1.2c-4.7-11.3-9.5-22.6-14.1-34c-0.8-1.8-1.9-3.1-3.8-3.6c-0.3-0.1-0.6-0.5-0.8-0.7c0.3-0.2,0.6-0.6,0.9-0.6
		h9.5c0.1,0,0.3,0.2,0.4,0.3c-0.1,0.2-0.1,0.4-0.2,0.5c-2.3,2.2-2.4,2.6-1.2,5.4c3.6,8.4,7.1,16.7,10.7,25.1
		C197.2,185.8,197.7,186.3,198.3,187.4L198.3,187.4z M444.1,161.9c-0.1-0.3-0.3-0.7-0.3-1c0.2-2,0.4-4,0.7-6c0.2-1.2,1.1-1.1,2-1.1
		c5.7,0.1,11.3,0.2,17,0.2c4.7,0,9.3-0.1,14-0.3c1.6-0.1,2.3,0.5,2.3,2.2c-0.1,1.3,0.1,2.5,0.1,3.8c0,0.4-0.3,0.8-0.5,1.2
		c-0.3-0.3-0.7-0.6-0.8-0.9c-0.9-3.1-1.3-3.4-4.5-3.5H466c-1.3,0-1.8,0.5-1.8,1.8v29.8c0,2.5,0.6,3.3,3.1,4.1
		c0.5,0.2,0.9,0.7,1.3,1.1c-0.5,0.1-1,0.4-1.5,0.4h-10.4c-0.4,0-0.8-0.3-1.2-0.5c0.3-0.3,0.6-0.9,1-1c2.9-0.7,3.5-2.5,3.5-5.3
		c-0.1-9.2,0-18.5,0-27.7c0-2.6-0.1-2.7-2.7-2.7h-7.1c-3.1,0.1-3.6,0.5-4.6,3.4l-0.9,2.1C444.4,161.9,444.3,161.9,444.1,161.9z
		 M521.2,171.4c0.6-0.7,1.1-1.3,1.4-1.9c2.1-3.3,4.1-6.7,6.2-10c1.3-2.2,0.7-3.7-1.7-4.4c-0.6-0.2-1.2-0.5-1.7-0.7
		c0-0.2,0.1-0.3,0.1-0.5h10.3c-5.8,5.4-8.5,12.9-13.2,18.9c-0.4,0.5-0.6,1.4-0.6,2.1c-0.1,4.2,0,8.3,0,12.5c0,2.8,0.7,3.7,3.2,4.6
		c0.5,0.2,1,0.5,1.5,0.8c0,0.2-0.1,0.3-0.1,0.5h-13.1c-0.1-0.2-0.1-0.3-0.2-0.5c0.6-0.3,1.2-0.6,1.8-0.8c1.6-0.5,2.5-1.5,2.5-3.3
		v-13.3c0-1-0.4-2.1-0.9-2.9c-3.1-5.1-6.3-10.2-9.6-15.2c-0.6-0.9-1.7-1.4-2.6-2.1c-0.5-0.3-1.1-0.4-1.8-0.7
		c0.7-0.7,10.8-1,12.2-0.4c-0.6,0.4-1,0.7-1.5,1c-1.3,0.7-1.6,1.8-0.8,3c2.4,3.9,4.8,7.7,7.2,11.6
		C520.2,170.3,520.6,170.8,521.2,171.4L521.2,171.4z M152.5,193.5c-0.6,0.1-1.3,0.2-1.9,0.2h-10.2c-0.5,0-1.1-0.4-1.6-0.6
		c0.4-0.4,0.8-0.8,1.3-1c2.3-0.9,3-1.8,3-4.8v-23.2v-5c0-2.6-0.5-3.2-2.9-4l-1.5-0.6c0-0.1,0.1-0.3,0.1-0.4h12.5
		c0,0.1,0.1,0.3,0.1,0.4c-0.5,0.2-0.9,0.5-1.4,0.6c-2,0.7-2.6,1.5-2.6,3.7v29.4c0,2.4,0.6,3.1,2.9,3.9c0.8,0.3,1.5,0.6,2.3,0.8
		C152.5,193,152.5,193.2,152.5,193.5L152.5,193.5z M419.3,193.5c-0.5,0.1-1.1,0.2-1.6,0.2h-10.5c-0.5,0-1-0.4-1.4-0.6
		c0.3-0.3,0.6-0.8,1-0.9c2.7-1,3.4-1.9,3.4-4.9v-20.2v-7.4c0-2.9-0.6-3.7-3.4-4.6c-0.5-0.2-0.9-0.4-1.3-1h12.8
		c0,0.1,0.1,0.2,0.1,0.4c-0.5,0.2-0.9,0.5-1.4,0.6c-1.9,0.5-2.6,1.8-2.6,3.6v28.9c0,3.4,0.3,3.7,3.5,4.8c0.5,0.2,1,0.5,1.4,0.7
		C419.4,193.1,419.3,193.3,419.3,193.5z"/>
</g>
</svg>
