<?xml version="1.0" encoding="utf-8"?>
<!-- Generator: Adobe Illustrator 26.3.1, SVG Export Plug-In . SVG Version: 6.00 Build 0)  -->
<svg version="1.1" xmlns="http://www.w3.org/2000/svg" xmlns:xlink="http://www.w3.org/1999/xlink" x="0px" y="0px"
	 viewBox="0 0 225.87 88.57" style="enable-background:new 0 0 225.87 88.57;" xml:space="preserve">
<style type="text/css">
	.st0{display:none;}
	.st1{display:inline;fill-rule:evenodd;clip-rule:evenodd;fill:#0000FF;}
	.st2{fill-rule:evenodd;clip-rule:evenodd;fill:#FFFFFF;}
</style>
<g id="Background" class="st0">
	<rect x="-5.81" y="-7.56" class="st1" width="238.22" height="102.52"/>
</g>
<g id="Layer_1">
	<g>
		<g>
			<path class="st2" d="M1.92,0H0c0,22.81,0,45.62,0,68.43h79.55v-3.84H3.84V3.84h218.19v60.75h-75.71v3.84h79.55V0H1.92z"/>
		</g>
		<path class="st2" d="M24.6,41.3c-1.85,0-3.62-0.95-4.77-2.23l-2.55,2.66c2.08,1.91,4.6,3.04,7.32,3.04c3.64,0,6.85-2.49,6.85-6.07
			c0-6.83-9.34-5.81-9.34-9.08c0-1.56,1.65-2.2,3.12-2.2c1.33,0,2.69,0.58,3.5,1.33l2.02-2.89c-1.91-1.42-3.82-1.91-5.87-1.91
			c-3.35,0-6.68,2.08-6.68,5.7c0,2.28,1.27,3.67,2.87,4.6c2.72,1.59,6.48,1.91,6.48,4.51C27.55,40.23,26.34,41.3,24.6,41.3
			L24.6,41.3z"/>
		<polygon class="st2" points="48.31,41.01 39.77,41.01 39.77,35.37 45.99,35.37 45.99,31.9 39.77,31.9 39.77,27.71 48.02,27.71 
			48.02,24.24 35.87,24.24 35.87,44.48 48.31,44.48 48.31,41.01 		"/>
		<path class="st2" d="M62.49,44.77c3.7,0,6.71-1.59,8.5-3.88l-2.69-2.4c-1.18,1.53-3.09,2.81-5.73,2.81c-3.9,0-6.91-3.01-6.91-6.94
			c0-3.85,2.89-6.94,6.74-6.94c1.99,0,3.7,0.87,4.92,2.08l2.52-2.66c-1.82-1.76-4.4-2.89-7.41-2.89c-6.31,0-10.67,4.6-10.67,10.41
			C51.76,40.17,56.19,44.77,62.49,44.77L62.49,44.77z"/>
		<path class="st2" d="M83.61,44.77c6.24,0,10.56-4.66,10.56-10.41c0-5.76-4.31-10.41-10.56-10.41c-6.25,0-10.56,4.66-10.56,10.41
			C73.05,40.12,77.36,44.77,83.61,44.77L83.61,44.77z M83.61,27.42c3.81,0,6.65,3.12,6.65,6.94c0,3.82-2.83,6.94-6.65,6.94
			c-3.82,0-6.65-3.12-6.65-6.94C76.96,30.54,79.79,27.42,83.61,27.42L83.61,27.42z"/>
		<polygon class="st2" points="102.58,31.3 113.86,44.48 116.61,44.48 116.61,24.24 112.71,24.24 112.71,37.43 101.43,24.24 
			98.68,24.24 98.68,44.48 102.58,44.48 102.58,31.3 		"/>
		<path class="st2" d="M135.89,42.57c2.49-1.85,4.02-4.86,4.02-8.21s-1.53-6.36-4.02-8.21c-1.65-1.21-3.76-1.91-6.97-1.91h-6.36
			v20.24h6.36C132.13,44.48,134.24,43.79,135.89,42.57L135.89,42.57z M126.46,27.71h2.89c2.4,0,4.05,0.84,5.18,2.26
			c0.92,1.16,1.47,2.72,1.47,4.4s-0.55,3.24-1.47,4.4c-1.13,1.42-2.78,2.26-5.18,2.26h-2.89V27.71L126.46,27.71z"/>
		<path class="st2" d="M160.55,44.77c3.7,0,6.71-1.59,8.5-3.88l-2.69-2.4c-1.19,1.53-3.1,2.81-5.73,2.81c-3.9,0-6.91-3.01-6.91-6.94
			c0-3.85,2.89-6.94,6.74-6.94c2,0,3.7,0.87,4.92,2.08l2.52-2.66c-1.82-1.76-4.39-2.89-7.4-2.89c-6.3,0-10.67,4.6-10.67,10.41
			C149.82,40.17,154.24,44.77,160.55,44.77L160.55,44.77z"/>
		<path class="st2" d="M180.84,44.77c2.29,0,4.51-0.69,6.07-2.08c1.68-1.5,2.6-3.64,2.6-6.74V24.24h-3.9v12
			c0,1.85-0.49,2.98-1.33,3.76c-0.87,0.84-2.08,1.3-3.44,1.3c-1.36,0-2.57-0.46-3.44-1.3c-0.84-0.78-1.33-1.91-1.33-3.76v-12h-3.9
			v11.71c0,3.09,0.92,5.24,2.61,6.74C176.33,44.08,178.55,44.77,180.84,44.77L180.84,44.77z"/>
		<path class="st2" d="M198.03,36.24h3.7c2.6,0,4.16-0.64,5.26-1.79c1.01-1.04,1.59-2.6,1.59-4.19c0-1.59-0.58-3.15-1.59-4.19
			c-1.13-1.18-2.66-1.82-5.26-1.82h-7.6v20.24h3.9V36.24L198.03,36.24z M198.03,27.71h3.53c1.33,0,2,0.32,2.46,0.81
			c0.43,0.46,0.66,1.07,0.66,1.73c0,0.67-0.23,1.24-0.66,1.71c-0.46,0.49-1.13,0.81-2.46,0.81h-3.53V27.71L198.03,27.71z"/>
		<g>
			<polygon class="st2" points="108.03,70.66 110.83,70.66 109.43,67.4 			"/>
			<path class="st2" d="M82.17,54.84v28.38h61.53V54.84H82.17z M129.27,60.49h2.21l-1.89,2.52h-1.42L129.27,60.49z M98.05,75.16
				c-3.44,0-5.85-2.51-5.85-5.67c0-3.17,2.38-5.68,5.82-5.68c1.64,0,3.04,0.61,4.04,1.58l-1.37,1.45c-0.66-0.66-1.59-1.13-2.68-1.13
				c-2.09,0-3.67,1.69-3.67,3.78c0,2.14,1.64,3.78,3.77,3.78c1.44,0,2.48-0.7,3.12-1.53l1.47,1.31
				C101.71,74.29,100.07,75.16,98.05,75.16z M112.69,75l-1.04-2.44h-4.43L106.18,75h-2.22l4.73-11.04h1.5L114.91,75H112.69z
				 M123.43,65.86h-4.49v2.29h3.39v1.89h-3.39V75h-2.13V63.96h6.62V65.86z M132.43,75h-6.78V63.96h6.62v1.89h-4.49v2.29h3.39v1.89
				h-3.39v3.07h4.65V75z"/>
		</g>
	</g>
</g>
</svg>
