<?xml version="1.0" encoding="utf-8"?>
<!-- Generator: Adobe Illustrator 22.1.0, SVG Export Plug-In . SVG Version: 6.00 Build 0)  -->
<svg version="1.1" id="Layer_1" xmlns="http://www.w3.org/2000/svg" xmlns:xlink="http://www.w3.org/1999/xlink" x="0px" y="0px"
	 viewBox="0 0 800 400" style="enable-background:new 0 0 800 400;" xml:space="preserve">
<style type="text/css">
	.st0{display:none;}
	.st1{display:inline;fill:#1A1A1A;}
	.st2{display:inline;fill:#FF0000;}
</style>
<g id="Layer_1_1_" class="st0">
	<path class="st1" d="M350.4,145l-25.6,111.7h15.5l6.7-30.8h23.6l6.6,30.8h15.7L368.8,145H350.4L350.4,145z M348.9,213.4l5.4-26.7
		c1.5-7.1,3.2-17.4,4.4-25.5h0.7c1.2,8,2.7,17.9,4.2,25.5l5.2,26.7H348.9L348.9,213.4z M452,142h-15.8v41.9h-0.3
		c-2.9-6.1-8.1-9.1-14.6-9.1c-13,0-25.3,13.4-25.3,41.9c0,25,9.3,41.3,24.4,41.3c8.2,0,14.5-5.5,17.2-11.1h0.5l1,9.8h13.6
		c-0.3-5.6-0.7-14.6-0.7-20.7L452,142L452,142z M436.2,228.3c0,1.8-0.2,3.8-0.5,5.1c-2.7,9.6-7.4,11.4-10.9,11.4
		c-8.4,0-12.8-11.6-12.8-28.2c0-14.9,3.4-28.5,13.3-28.5c5.7,0,9.9,6.3,10.8,13.6c0.2,1.7,0.2,3.5,0.2,5L436.2,228.3L436.2,228.3z
		 M490.5,174.8c-15,0-29,12.4-29,41.8c0,27.7,11.8,41.4,28.1,41.4h0.2c12.5,0,28.5-9.8,28.5-41.8
		C518.3,189.1,506.7,174.8,490.5,174.8L490.5,174.8z M490.2,245.7H490c-10.3,0-12.6-15.9-12.6-29.3c0-12.1,2-29.3,12.5-29.3
		c10.1,0,12.3,17.2,12.3,29.3C502.1,228.7,500,245.7,490.2,245.7L490.2,245.7z M561.2,174.8c-7.2,0-13,3.1-17.2,10.4h-0.3V142h-15.8
		v94c0,6.1-0.3,15.2-0.7,20.7h13.6l0.8-10.1h0.7c3.5,7.1,8.1,11.4,16.2,11.4c13.5,0,25.4-14.1,25.4-42.9
		C583.9,190.4,575.2,174.8,561.2,174.8L561.2,174.8z M555,244.9c-3.2,0-8.1-2-10.6-11.8c-0.5-1.3-0.7-3.1-0.7-5v-22.5
		c0-1.7,0.2-3.8,0.5-5.5c1.2-5.8,5.4-11.9,10.6-11.9c9.4,0,13.1,12.4,13.1,27.8C567.9,232.6,564.4,244.9,555,244.9L555,244.9z
		 M646,211.1c0-20.2-7.9-36.3-24.9-36.3s-29.3,16.2-29.3,42.6c0,24.9,10.8,40.1,31.3,40.1c7.2,0,14.6-1.3,19.5-3.8l-2.4-11.3
		c-3.5,1.7-8.4,3-14.1,3c-9.6,0-18.7-5.1-18.9-25.9l38.4,0.2C645.8,217.6,646,215.1,646,211.1L646,211.1z M607.4,208.5
		c0.5-10.1,4.2-21.9,12.5-21.9c6.2,0,11.3,7.6,11.1,21.9H607.4z"/>
	<path class="st2" d="M198.3,234.3l20.7-47.9l30.1,70.3h-19.7l-9-22.4L198.3,234.3L198.3,234.3z M155,145.3h47.3L155,256.7V145.3z
		 M282.9,256.7l-47.3-111.4h47.3V256.7z"/>
</g>
<g id="Layer_2_1_">
	<g>
		<path d="M196.5,163.3l0.3,0.2v0.3l-0.5,0.8v0.2c0.7,0,1,0.8,1,2.4c0.7,1.7,1.5,3,2.4,3.9v0.2l-0.3-0.2h-0.2v0.4h0.2l0.3-0.3
			c3.1,1.8,5.4,2.8,6.9,3v0.7h0.5v-0.5h1.5c1,0.1,1.5,0.3,1.5,0.7v2c0,0.3-0.3,0.5-0.8,0.5l-0.3-0.2h-0.5v0.2c0.6,0.1,1,0.5,1,1.3
			l-0.8,1.2c0.5,0,0.8,0.2,0.8,0.5v0.5l-0.3,1.2L209,182h-0.3l-0.2,0.2v1c0.7,0,1.2,0.3,1.5,0.9v1.5c0,0.3-0.3,0.5-1,0.5l0.8,1
			l-0.5,0.5H208c0-0.4-0.6-1-1.7-2v-0.4h-1.5v0.2h0.7v1.3h-1.9c-0.8-1.3-1.4-2-1.7-2l-0.3,0.3v0.3c0.5,0,0.7,0.5,0.7,1.5h-0.2
			l-1,0.2c-3.3-0.4-6.4-1.5-9.5-3.4c0.3-1.1,0.7-1.7,1.3-1.7V181c-0.9,0.1-1.6,0.5-2.2,1.2h-1c-3.7-2.6-6.2-6.3-7.6-11.1l-0.5-3
			l0.5-0.4v-0.3l-0.2,0.3h-0.3c-0.3-0.7-0.5-1.8-0.5-3.2l0.5-0.5h0.3l0.2,0.3l0.3-0.3h0.8l1.5,0.3l1.5-0.5h3.4v0.8h0.3
			c0.1-0.7,0.3-1,0.7-1h4.4L196.5,163.3z M182.1,165.5v1.7h0.3c0-0.3,0.3-0.5,0.8-0.5v-0.2l-0.5-1H182.1z M209.7,115.8l0.3,0.3V128
			c0,0.4-2,0.7-5.9,1c0.2-0.6,0.7-1,1.7-1.2l1,0.3h0.5v-0.5h-2.7v0.5h-1.7l0.3,1.2c-2.5,1.7-3.7,3.1-3.7,4.2l-0.2,1.2v1.5
			c0,3.3,4.2,5.7,12.5,7.1l0.2,0.2l-0.2,0.3v0.5l1-0.8c8.4,1.8,14.5,3.7,18.1,5.6l4.4,3.7v0.2h-0.8v-0.4c-0.6,0-1-0.3-1-1h-1
			l1.7,1.5l0.3,1.5H234v0.5h0.3l0.8-0.3l-0.8,1.7h2.2c0,0.5,0.2,0.8,0.7,0.8c0,0.5,0.3,1.1,1,1.9c0.8,0.3,1.2,1,1.2,2.2l-0.8,0.5
			h-2.4c0,0.3-0.4,0.6-1.2,1h-1.7v0.5c0.8,0,1.3,0.2,1.7,0.5c0-0.3,0.3-0.5,1-0.5l0.8-0.8c0.2,0.8,0.4,1.3,0.7,1.3l0.3-0.3l0.3,0.3
			c0-1.1,0.5-1.7,1.5-1.7l0.3,0.2v1.7l-0.3,0.3c0,0.3-0.5,0.5-1.5,0.5c0,0.8-0.2,1.2-0.5,1.2c-0.6,0-1,0.4-1,1.2h-2v0.3l0.3,1.2h0.3
			v-0.4l-0.3-0.3l2-0.8h1.2v0.5h0.5l1-0.5v-1.5h0.5c-0.2,2.9-0.5,5.3-1,7.1l-0.3-0.3h-0.5v0.3h0.5c-0.2,1.9-0.7,2.9-1.5,2.9
			l-0.7-0.3v0.5l1,0.3c-0.4,1-1,1.9-1.9,2.9l-0.3-0.3h-0.3c0,1-0.5,1.8-1.5,2.4l-0.3-0.2H233l0.5-1.7l-2.7-2.2h0.5V177l-0.5-0.5
			l-1.2,0.3V174c0-0.4,0.3-0.6,1-0.8V173c0-0.4-0.7-0.6-2-0.7l0.5,0.7v1.7h-0.3l-0.8-0.2l0.5,0.7v0.5l-1,0.9l-0.2-0.2l-0.3,0.2h-0.5
			l-0.3-0.2h-0.3c0-1.1,0.5-1.7,1.5-1.7v-0.2l-1.5-1h-1.5l0.3,0.3v0.3l-0.5,0.5c-1.2,0-1.8-0.2-1.9-0.7l0.3-0.3l-0.5-0.5
			c0-0.6,0.7-0.9,2-0.9l0.2-0.3v-0.3c-0.7,0-1.2-0.4-1.5-1.2c0.7-1.1,1-2.6,1-4.4l1.2,0.3c0.3-0.8,0.7-1.3,1-1.3v-0.2l-0.5-0.5h-0.8
			l-0.7,0.5h-0.3l-1.7-2.2v-0.3h0.3l1.7,0.3c0-0.5,0.3-0.8,1-0.8v-0.2l0.3,0.2h1l0.5-0.5v-0.5c-0.9,0-1.5-0.3-2-1h-0.7l-0.8,0.5
			h-3.7l-0.7-0.5l-1,0.3c-1.1-0.4-1.7-0.7-1.7-1v-0.3c0.4,0,0.9-0.3,1.5-1c-0.8-0.7-1.9-1.1-3.2-1.2v0.3l-1.5-0.5l-0.3,0.3l-2.5-2.9
			c-0.3,1-1,1.5-1.9,1.5c0,0.5-0.6,0.9-1.7,1.2v0.5h-1c-15-2.5-22.4-9.2-22.4-20.2v-1c0-11.2,7.3-17.9,22-19.9L209.7,115.8z
			 M184.6,169.6h0.7v-0.4h-0.2L184.6,169.6z M185.1,167.2h1.2v-0.5h-0.8L185.1,167.2z M185.5,173v0.3h0.5v-0.7L185.5,173z
			 M187.2,165.7L187,166v0.5h0.8v-0.2L187.2,165.7z M187.5,125l0.5,0.5h0.2V125H187.5z M188.5,145.1l0.8,0.8l0.3-0.8l-0.3-0.3
			L188.5,145.1z M188.5,167.7v1h0.5v-1H188.5z M189.7,173.5l0.2,1.5h0.5v-0.3l-0.3-1.2H189.7z M190.2,149.3l0.5,0.4h0.5v-0.4H190.2z
			 M190.7,167.7l0.5,0.4h0.7l-0.3-0.9L190.7,167.7z M190.9,164.8l0.5,0.5l0.5-0.5v-0.5h-0.5L190.9,164.8z M191.4,179.1v0.3h1
			l-0.3-0.3v-0.2L191.4,179.1z M191.9,145.4v0.9l0.5,0.5v-1.5h-0.5V145.4z M193.3,171.5v0.5l0.5,0.9h0.5v-0.4l-0.5-1H193.3z
			 M193.8,125.5v0.5c0.8,0,1.2,0.2,1.2,0.5h0.5l-0.8-1H193.8z M194.1,166.2v0.4c0.6,0,1,0.3,1,1h0.8v-0.5l-0.5-0.5h-0.3l0.3-0.2
			v-0.7h-0.8L194.1,166.2z M194.6,147.8l-0.2,0.3v0.3h1.2V148L194.6,147.8z M194.6,121.2l0.5,0.5h0.3l0.5-0.5v-0.5L194.6,121.2z
			 M194.8,140.3v0.3l2.9,0.5l-1.7-1L194.8,140.3z M195.1,183.5v0.2c1.1,0,1.7,0.5,1.7,1.5h0.5v-0.5l0.3-0.3l-0.3-0.3l-2-0.7
			L195.1,183.5L195.1,183.5z M196.5,173.5c0,0.5-0.2,0.8-0.7,0.8v0.4l1.2-1.2L196.5,173.5L196.5,173.5z M196.8,178.9h0.3l0.3-0.3
			h0.3l0.7,0.7h0.3V179l-0.3-0.7h-1L196.8,178.9z M197,180.8l0.5,0.5h0.2l-0.5-0.5H197z M198.5,175.4c0,0.3,0.3,0.5,1,0.5l-0.2,0.3
			v0.3l1,0.5v-0.3l-0.8-1.2L198.5,175.4L198.5,175.4z M199,182.2l-0.3,0.3v0.8l0.3-0.3h0.3l1,0.3L199,182.2z M199.7,142v0.5h0.8V142
			H199.7z M201.4,147.8l-0.3,0.3v0.3h1V148L201.4,147.8z M201.7,179.3v0.7l1,0.7h0.5v-1h-0.3l-0.3,0.2c-0.5,0-0.7-0.2-0.7-0.7
			L201.7,179.3L201.7,179.3z M203.4,186.6v0.2l-0.3,0.3v0.3l-0.8-0.3v-0.3L203.4,186.6z M203.6,183.7v1h0.5v-0.5L203.6,183.7z
			 M204.3,179.1v0.3l0.5,0.5h0.3l0.7-0.3v-0.3l-1.2-0.3L204.3,179.1L204.3,179.1z M204.3,187.1h1v0.5H205l-0.8-0.3v-0.2H204.3z
			 M207.1,153.1l-2-0.5l1,1.5h1c0-0.4,0.3-0.6,1-0.7v-0.5l0.7-0.4l-0.2-0.8L207.1,153.1z M209,156.5h1.7l0.8,0.7v1.2
			c-3.1-0.6-4.6-1.1-4.6-1.5h2.2L209,156.5L209,156.5z M207.1,183.2v0.9l0.5,0.5l0.3-0.3h0.5v0.5h0.3v-0.5L207.1,183.2z
			 M207.5,176.6v0.8h0.8v-0.3l-0.5-0.5H207.5z M208.3,150.2v1.2h0.3v-1.2H208.3z M210.9,144.4v0.3l0.3,1.2c-0.3,0-0.7,0.5-1,1.5H209
			l0.3,0.9L209,149c1.6-1.2,2.5-2.4,2.5-3.7v-1L210.9,144.4L210.9,144.4z M210.2,155.1h0.7l0.8,0.7v0.7h-0.3l-1.2-0.5V155.1z
			 M212.7,115.8c7,0,13.3,2,18.8,6.1c2.6,2.7,3.9,4.5,3.9,5.4c0.8,0,1.9,3.2,3.1,9.5v0.7l-8.3,1v-0.3l-6.9,0.7
			c-0.6-3.9-1.8-6.5-3.4-7.8c-1.3-1.1-3.9-2-7.6-2.7v-0.5l0.3-1.5l-0.3-2.4v-7.8L212.7,115.8L212.7,115.8L212.7,115.8z M219,173.2
			c1,0,2,0.4,2.9,1.2c1.6,0,2.4,0.6,2.4,1.7l0.8,0.3l0.3-0.3l0.5,0.7l-0.3,0.3v0.3c1,0.8,1.5,1.4,1.5,1.9h0.5c0-0.7,0.7-1.1,2-1.2
			l0.3,0.2l-0.3,0.3v0.5l0.3,0.3c-0.1,0.8-0.3,1.2-0.7,1.2v1c0,0.8-0.4,1.2-1.3,1.2c0,0.4,0.4,0.6,1.3,0.7v-0.2l0.2-0.3h0.3v-1.7
			h0.5V181l-0.3-0.3c0.1-0.8,0.7-1.2,1.7-1.2c0.3,1.1,0.6,1.7,1,1.7v0.3c-3.4,2.6-6,3.9-7.8,3.9V185l-2.7,0.4v-0.2l0.3-0.8h-0.3
			l-0.7,0.3v0.3l0.5,0.7v0.5c0,0.7-3,1.2-9,1.5l-0.3-0.3v-2.9l0.3-0.3v-0.3l1.2,0.3h0.5c0.3,0,0.5-0.4,0.5-1.2l0.7-0.8v-0.5h-0.3
			l-0.3,0.3H215c0-0.8-0.3-1.8-1-3l0.3-0.7l-1.7-1.5v-1.5c0-0.4,0.4-0.6,1.2-0.8l1.3,0.3c0-0.6,0.8-0.9,2.4-0.9v1.5h-2.4l0.7,1.5
			h0.3v-0.5h2l-0.3-0.3v-0.3h0.5l0.7,0.5l0.3-0.3l0.3,1.5h0.5v-0.7l-0.2-1.2l0.2-0.3c-0.5,0-0.8-0.4-1-1.2h-0.7V174L219,173.2z
			 M212.4,178.1h0.5l0.3,0.7l-0.3,0.7h-0.5V178.1z M213.2,180.1l1.2,0.3v1.9h-1.5l-0.5-0.5v-1.2
			C212.4,180.2,212.7,180.1,213.2,180.1z M213.9,186.6v0.2l1.7,0.3l-0.3-0.7L213.9,186.6z M215.3,184.9v1.2l1.2-0.5
			C216.5,185.2,216.1,185,215.3,184.9z M215.6,149.5h1V149h-0.5L215.6,149.5z M216.3,153.6l-0.3,0.3v0.2h0.7L216.3,153.6z
			 M218.3,151.2l-0.5,0.5v0.5h0.7v-1H218.3z M218.1,181.3c0.2,0.6,0.5,0.9,0.7,0.9h0.5V182l-0.8-0.7H218.1z M218.8,117.8v0.3
			l0.8,0.2v-0.5H218.8z M221,175.2l0.3,0.7l0.5-0.5v-0.8h-0.3L221,175.2z M221.9,177.4v0.5h1.2l-0.5-0.5H221.9z M222.4,157.5
			l-0.3,0.7h0.5l0.5-0.5l-0.3-0.2H222.4z M223.1,180.6v1.2l1.7-0.2v-0.3c-0.8,0-1.2-0.2-1.2-0.7H223.1z M229,149.7l0.5,1.2l-1,0.5
			l-0.3-0.3h-0.8l-0.5,0.5v0.3l0.5,0.7v1l-0.5,0.9h-1.2l-0.8-0.5v1h-1.7v0.3l1.2,0.5l0.8-0.7h0.3l0.7,0.5c0.2-0.7,0.7-1,1.5-1v1.2
			H227v0.7l1,1l0.5-0.5v-1.7l0.5-0.5h0.2l0.8,0.3v-1.7h-1.7v-0.3l0.3-1.2h0.3l1.2,0.3c0-0.7,0.2-1,0.5-1
			C230.4,150.7,229.9,150.2,229,149.7z M223.9,119.5l1-0.8h-0.3L223.9,119.5z M223.9,168.6v0.3c0,0.5,0.6,0.7,1.7,0.7
			c0,0.7,0.2,1,0.5,1h0.5l0.5-0.5l-2.7-1.5H223.9z M224.9,184.2h1.5v-0.5l-0.5-0.4h-0.3L224.9,184.2z M225.9,180.3
			c0,0.5-0.3,0.7-0.8,0.7v0.3h1l0.3-1H225.9z M225.9,167.2l0.5,0.5h0.3l-0.5-0.5H225.9z M231.2,162.8v0.5H230
			c-0.3,0.3-1.3,0.5-2.9,0.7l-0.3-0.3v0.5h2.2c0,1,0.2,1.5,0.5,1.5h0.5l-0.5-0.8v-0.2l0.5-0.5h1.7l0.7,0.5v-1l-0.2-0.3v-0.2l0.5-0.5
			L231.2,162.8L231.2,162.8z M227.1,127.5v0.5h1v-0.5H227.1z M228.8,157.7c0,0.8-0.4,1.2-1.3,1.2v0.7h0.3l2.2-1.7L228.8,157.7z
			 M227.5,171.1v0.4l1,0.5h0.3v-0.5L227.5,171.1z M230.3,125v0.5h-1.5v0.5h1.2l1.2-0.2l0.5,0.7l0.7-0.3v-0.7L232,125H230.3z
			 M229,169.6v0.3c0,0.3,0.5,0.7,1.5,1.3v-1c-0.8,0-1.3-0.2-1.3-0.5L229,169.6L229,169.6z M229.7,167.7v0.4h1.2v-1.5
			c-0.3,0-0.5,0.3-0.5,1h-0.7V167.7z M230.5,152.9l-0.3,0.8h0.7v-0.8H230.5z M230.3,177.6h1v1l-0.7,0.3l-0.3-0.3V177.6z
			 M230.7,155.6v0.4l1,0.3v-0.5L230.7,155.6z M230.7,159.9v0.5h1.3l-0.5-0.5H230.7z M231,168.6v0.9h0.5v-0.9H231z M231,175.4v0.3
			h0.5v0.2l1.2-1c0.8,0,1.2-0.4,1.2-1.2h0.3c0-0.5-0.3-0.8-1-0.8v-0.4h-0.3c-0.3,0-0.5,0.8-0.5,2.4L231,175.4z M231.7,172v0.3
			l0.7,0.3V172H231.7z M232,154.6v0.5l1.5-0.3v-0.3H232V154.6z M232.2,156.5l0.5,0.5h0.3l-0.5-0.5H232.2z M232.9,165.2l0.5,1l0.7-1
			H232.9z M233.2,169.1v0.4l0.5,0.5h0.2v-1h-0.7V169.1z M233.2,177.4v0.5h0.7v-0.5H233.2z M233.4,158.5v0.5l1,0.3h0.8V159
			C234.4,158.9,233.8,158.8,233.4,158.5z M233.9,170.3v1h0.3l0.5-0.4L233.9,170.3z M235.4,153.1h0.2c0.7,0.3,1,0.8,1,1.5h-1.2
			l-0.5-0.5v-0.5L235.4,153.1z M235.1,164.3v0.5h0.3l0.5-0.5H235.1z M236.1,130.8v1.3l0.8,0.4v-0.3l-0.5-1.5h-0.3V130.8z"/>
		<path d="M269.8,115.8l0.3,0.3v11.2l-1.5,1v0.3l0.8,0.3c0-0.5,0.2-0.8,0.5-0.8h0.3v0.5l-6.4,2.2l-4.2,3.2l-2-0.5
			c0.3,0.7,0.7,1.1,1,1.2c0-0.5,0.2-0.7,0.5-0.7v0.4c-2.8,3.3-4.6,7.6-5.3,12.7l-0.3-0.3h-0.8c0,0.3,0.3,0.5,0.8,0.5l0.3,0.3v0.5
			c0,1.9-0.3,2.9-0.8,2.9h-0.3l0.3,0.3v0.5l-0.5,0.4l-0.7-0.3l-0.3,0.3v0.3l0.3,0.3h0.3l0.7-0.3c0.6,0.6,1.2,3.1,1.7,7.6l-0.7,0.7
			h-0.3v0.3h0.5v-0.3c0.8,0,1.3,0.7,1.3,2.2l-0.3,0.3c0.4,0.1,1.7,2.1,3.9,6.1c0,0.4,1.7,1.7,5.1,3.9l4.1,1v0.7l-0.3,0.3v0.3
			l-0.2-0.3h-0.5v0.8h-0.5v-0.3l0.3-0.3v-0.3l-1.5-0.3c-0.5,1.5-1.4,2.2-2.7,2.2v0.5c0.5,0,0.8,0.3,0.8,1v0.3l1-0.3l-0.2-0.3v-0.2
			c0.8,0,1.2-0.2,1.2-0.5v-0.5l-0.3-0.7h0.3l1-0.3h0.5l1.7,0.4v-0.2c0.7,0.2,1,0.5,1,0.7l-0.3,0.3v0.3h0.3l-0.3,0.3v0.7l0.3,0.3v0.3
			l-0.3,0.3h-0.3l-0.5-0.5c0,0.3-0.3,0.5-0.8,0.5l-0.2,1.2h0.2l1-0.3c0,0.3,0.3,0.5,1,0.5v0.5l-0.5,1.2H269l-1-0.5l-1,0.8v0.5h0.5
			v0.9l-0.5,0.5l-1,0.3v-0.8h0.5v-0.5l-0.7-0.2c1-1.2,1.5-2.1,1.5-2.7c-0.4,0-0.9,0.6-1.7,2l0.3,0.3h-0.3l-0.8-0.5h-0.3l-0.5,0.5
			c0,0.5,0.3,0.7,1,0.7l-0.3,0.8l0.3,1.2l-0.3-0.3h-0.3v0.3c0.5,0,0.8,0.6,1,1.7h-0.5v0.3l-4.4-0.9l0.2-1.3l-1.5-0.4l-0.5,0.4
			c0-0.6-0.2-0.9-0.7-0.9l0,0c0,0.6-0.3,0.9-1,0.9c-3-0.9-6.5-3.4-10.5-7.5l0.2-1l-0.2-0.3h-0.3l-0.5,0.5l-3.7-5.1l0.3-0.8H242
			c-0.6,0-1.7-2.2-3.2-6.6c0-1.5,0.6-2.2,1.7-2.2l-0.3-1.2c0.3,0,0.5,0.3,0.5,0.8l0.3-0.3h0.2l0.3,0.3V161h0.8l0.5,0.5l-0.8,0.7
			l0.3,0.3v0.5l-0.3-0.3h-0.3l-0.3,1.7l1.3,0.3v-0.3c1,0,1.8,0.5,2.4,1.5l-0.3,0.3l0.3,0.3h0.5l-0.5-1.5h0.3l0.8,0.3V165l0.7,0.5
			l0.3-0.3h0.5v0.5l0.5-0.5v-0.3l-0.3-0.3v-0.3l0.3-0.3l-0.3-0.3h-0.3c0,0.7-0.3,1-0.8,1h-0.3c-0.7-0.8-1.3-1.2-1.7-1.2l-0.5,0.4h-1
			c-0.3-0.1-0.7-0.5-1-1.2c0-0.8,0.4-1.5,1.2-2l0.3,0.3v0l1,0.5l0.3-0.3V161l-0.3-0.3l0.5-0.9l-0.3-0.3l0.3-0.3H245l-0.2,0.3h-0.3
			l-0.8-0.3v0.3l-0.5,0.5v-0.3l-1.5,0.5h-2.2v0.4h-1.2c-0.6,0-1-1.2-1-3.7l1.2,0.8h0.8v-0.5L239,156l0.7-0.8h-0.3l-1,0.8l-0.5-1
			l0.3-0.2l-1-0.5c0.1,1,0.3,1.5,0.5,1.5l-0.2,0.8c-0.5,0-0.8-1.8-0.8-5.4c0-3.9,0.3-5.9,0.8-5.9l-0.3-0.3v0
			c0.4-5,2.6-10.5,6.4-16.5C250.9,120.1,259.6,115.8,269.8,115.8z M238.1,161.8h0.3l1,0.3v0.2l-0.8,0.8h-0.3L238.1,161.8z
			 M240.1,164.7l-0.3,0.3v0.3l2.5,1.5v-0.5c0-0.6-0.3-1.1-0.8-1.5l-0.3,0.3H241L240.1,164.7z M240.4,148.6v0.5l0.8,0.3v-0.3
			L240.4,148.6z M240.9,155v0.4h1l-0.5-0.4H240.9z M241.1,151.8v0.8l0.7-0.3v-0.5l-0.3,0.3h-0.3L241.1,151.8z M245.8,149.1v0.3
			l0.3,0.7c-0.5,0.4-1.3,0.7-2.2,0.8c0-0.4-0.3-0.6-1-0.8l-0.3,0.3v0.3c1.3,0,2,0.8,2,2.5h-0.3c-0.3,0-0.5,0.2-0.5,0.7
			c-1.3,0.6-2,1-2,1.3h0.3c1.5-0.3,2.2-0.8,2.2-1.5l1.5-0.2v0.2l0.3-0.2h0.5l-0.3,0.2v0.3l0.3,0.3l0.2-0.3h0.3l0.5,0.5l-0.3,0.3h1.2
			v-0.3l-0.2-0.8h0.5v0.5h0.8l-0.3-0.3v-0.4h0.3l1,0.7l0.8-0.3l-0.3-0.3v-0.2l0.3-1.3h-1.5v-0.4h-0.3v0.4c-1.1-0.2-1.7-0.6-1.7-1.2
			v-0.3l-0.3,0.3h-0.3c-0.6-0.4-1-0.9-1.2-1.7h-0.3V149.1z M242.1,138.9v0.5h0.8v-0.5H242.1z M242.1,146.7v0.5l0.5,0.5l0.3-0.3v-0.8
			h-0.8V146.7z M243.1,156.7v0.3l0.7-0.8h-0.3L243.1,156.7z M244,155l-0.3,0.9c0.3,0,0.5-0.3,0.5-0.8V155H244z M244,173.4v0.8h0.3
			l0.7-0.3l-0.5-0.5H244z M244.3,147.7v0.5h0.7v-0.3L244.3,147.7z M245.8,162.2l-0.3,0.8l0.3,0.8h0.3l0.3-0.8l0.7,0.3v-0.8
			L245.8,162.2z M245.5,173.9v0.7l0.3,0.3h0.3v-0.3l-0.3-0.7H245.5z M246.7,159.6l-0.7-0.3h-0.3v0.3l1.7,1h0.3l-0.3-1.2l0.5-0.5
			h-0.3L246.7,159.6z M247,169.1l1,0.2l0.5-0.7h-1L247,169.1z M250.2,160.8c0,0.5-0.2,0.8-0.5,0.8l-1-0.3v0.3l-0.3-0.3h-0.2l-1,1.5
			l0.3,1h0.3c0-0.7,0.4-1.2,1.2-1.5h0.8v0.3h-0.5l0.8,1.3h1.2l0.3-0.3h0.3l1,0.9h0.3c-1-1.6-1.7-2.4-2.2-2.4v-1.3H250.2z
			 M247.2,175.9l0.5,0.4l0.3-0.2v0.2l0.7-0.2l-0.3-0.8h-0.7L247.2,175.9z M248,172l0.3,0.9h0.5l0.5-0.4V172l-0.3,0.3l-0.3-0.3H248z
			 M248.4,144.3v0.4h0.8v-0.4H248.4z M248.9,128.2v0.7c0.7-0.4,1.1-0.8,1.2-1.2h-0.2L248.9,128.2z M249.7,177.6h0.3l0.5-0.5v-0.3
			L249.7,177.6z M249.9,158.6l0.2,0.7l1-0.9h-0.5L249.9,158.6z M250.7,176.3l0.5,0.5h0.5l0.3-1h-0.3L250.7,176.3z M251.2,180.3v0.3
			c0.3,0.8,0.9,1.2,1.7,1.2h1.2v-0.3l-1.2-0.2l-0.8,0.2l0.3-0.2v-0.5L251.2,180.3z M251.4,158.1l0.3,0.3v0.3l1.2-0.3v-0.5h-0.3
			L251.4,158.1z M252.1,176.8v0.8h0.5v-0.8H252.1z M253.4,143.8c0,0.3-0.3,0.5-0.8,0.5v0.4h0.3l1-0.9H253.4z M252.9,177.9l0.3,0.2
			l-0.3,0.3v0.3l0.5,0.5l0.7-0.3v0.5h0.3c0-0.3,0.3-0.5,1-0.5l0.5-0.5V178l-0.7,0.4l-1.5-0.4h-0.8V177.9z M253.1,173.4v1h0.3l0.3-1
			H253.1z M254.6,182.5l-0.3,0.8h0.3l1-0.5v-0.3h-0.5l-0.3-0.3L254.6,182.5z M254.6,165.9v0.3h0.8v-0.4L254.6,165.9z M255.8,180.5
			l-0.5,0.8h0.5l0.3-0.8H255.8z M255.5,170.3l0.3,0.3v0.3l-0.3,0.7l0.3,0.3h0.5C256.3,170.9,256.1,170.4,255.5,170.3z M257.5,171.5
			l-1.2,1.2l2.2-0.7v-0.3L257.5,171.5z M256.8,167.6v0.5l0.5,0.5l0.5-0.5l-0.7-0.5H256.8z M256.8,174.2v0.9c0,0.8,0.4,1.4,1.2,1.7
			h0.5v-1L256.8,174.2z M259.7,182v0.3l0.3,0.3h0.8v-0.3L259.7,182z M261.2,183.2l-0.3,0.2v0.3h0.5l-0.3,0.3v0.3h1v-0.8L261.2,183.2
			z M262.5,182l0.5,1.3h1v-0.5c-0.3,0-0.5-0.3-0.5-0.8H262.5z M264.2,173.4l0.2,0.3v0.3h-0.5v0.5l0.7-0.5l0.3,0.3V174l-0.5-0.5
			L264.2,173.4L264.2,173.4z M268.3,185.4c1,0,1.5,0.4,1.5,1.3l0.3,0.7h-0.3l-2,0.3v-0.3l-0.7-0.9l-0.3,0.3h-0.3v-0.5L268.3,185.4z
			 M269.8,183h0.3v2l-0.3,0.2v0.3l-0.7-0.3C269.3,183.7,269.5,183,269.8,183z M273.2,115.8c7.5,0,14.8,2.8,21.8,8.5
			c4.4,4.6,6.9,8.4,7.6,11.5l-0.5,0.7v0.5l0.5,0.5V136c0.4,0,0.9,1.4,1.5,4.2h-0.5v-0.7c-0.3,0-0.5,0.5-0.5,1.5
			c-0.3,0-0.5,0.4-0.5,1.2l-0.3,0.3H299l-1.7-1.5H297l0.3,0.3v1.2l-1.2,0.5h-1.3v-0.5h-0.5v0.7l0.8,1h-0.3l-0.3-0.3h-0.3v1.2
			l-3.2-0.9v0.5c0,0.5,1,0.7,3,0.7c0,0.3,0.5,0.6,1.5,1l0.7-0.3l0.3,0.3V146l0.3,0.3h0.3l1-0.3l1,0.3l0.5-0.8
			c-0.5,0-0.8-0.4-0.8-1.2l-1,0.3l-0.8-0.3v-0.5c0-0.9,0.4-1.5,1.2-1.7l0.5,1.2l-0.3,0.3v0.5h0.3c0-0.4,0.6-0.8,1.7-1l0.3,0.3v0.8
			c-0.4,0-0.7,0.4-0.8,1.2h0.5v-0.5c0.5,0,0.8-0.3,0.8-0.9l0.2-0.3v-0.3h-0.5V143h0.5l0.3,0.3h0.3l2.5-1.2l0.5,0.8l-0.3,0.7
			c0.5,0,0.7,0.9,0.7,2.7l-0.7,1.2l-0.3-0.3h-0.5c0,0.4-0.4,0.7-1.2,0.8l-0.3,0.3v0.4l1.7-0.7l-0.3,0.3v0.4h1.2l0.5,0.5l-0.3,0.3
			v0.3l0.5,0.4l-0.3,0.3l0.3,1.3l-0.3,1.5c-0.3,0-0.5-0.3-0.5-1h-1v1l-0.3,1.2l-1-0.3l-0.8,0.3l0.3,0.8l1-0.5v0.5h0.8l0.3-0.3h0.3
			v0.3l-0.3,0.7h1.2c0,6.5-2.8,13.4-8.3,20.9c-7.2,7.3-15.3,11-24.3,11v-0.5c0.5,0,0.7-0.1,0.7-0.4h-1v-3.4h0.5v-1.5h0.8l0.8,0.5
			h0.2l1-0.5l-1.5-2v-1c0-1.7,0.7-2.7,2-2.9l-0.3-0.3l0.3-0.3v-0.9l-1.3,0.2v-0.7l2.2-0.5v0.3l-0.3,0.3v0.3h0.5c0-0.7,1.3-1.7,3.9-3
			c1.9-1.6,2.9-2.7,2.9-3.2h1.7v-0.3l-0.3-0.3v-0.2l-0.3,0.2h-0.5v-0.2c0-0.3,0.7-0.8,2.2-1.7v-0.8l-0.2-1.2l0.2-0.3h0.5l0.3,0.3
			l0.3-0.3h0.3c0.5,0,0.7,0.2,0.7,0.7h0.3v-1h-1.2c-0.3,0-0.5-0.3-0.5-0.8l0.3-1.7h0.3l0.7,0.5h0.3L289,161c0.1-0.8,0.4-1.2,0.8-1.2
			v-0.5c-0.6,0-1-0.2-1-0.5v-1.5l0.2-0.3v-0.2l0.3,0.2h0.5c0-0.3,0.3-0.4,0.8-0.4l0.2-1.3h-0.5v0.5l-0.5,0.5H289V156
			c0.1-1.8,0.3-2.7,0.5-2.7h0.5v-0.2l-0.8-1.3v-1.2h0.5v-0.3l0.3,0.3h0.3c0.5,0,0.7-0.3,0.7-0.8h0.3v0.5h2.5l1-0.3l3,0.8
			c0.7-0.8,1.3-1.2,1.9-1.2l0.5,0.4h0.3v-0.3c-0.5,0-0.8-0.1-0.8-0.4h0.3l-0.7-1c-0.2,0.4-1.1,0.9-2.7,1.3l-0.5-0.5h-0.5l-0.3,0.3
			H295l-0.3-0.3v-0.3l0.5-1.5l-1.5,0.5h-0.8l-0.3-0.3l-0.3,0.3h-0.2c-0.2-0.3-1.2-0.5-3-0.5l-0.7-3.2c0.3,0,0.5-0.3,0.5-1l1.3-0.3
			l-2.7-2.4l0.3-0.3v-0.3l-2.9-4.9c-2.4-2.9-5.5-5-9.3-6.1c-1.9-0.2-2.9-0.6-2.9-0.9v-12.2L273.2,115.8z M273.2,176.1h0.5l-0.3,1.2
			h-0.3l-0.5-0.5v-0.3L273.2,176.1z M272.7,179.1h0.5v2l-0.5,0.4V179.1z M276.4,183.9l-0.3,0.3v0.5l0.7,0.3v-0.5L276.4,183.9z
			 M276.4,178.3v0.3l0.7,0.3v-0.5L276.4,178.3L276.4,178.3z M282,181.3v0.2h0.5l0.3-0.7h-0.3L282,181.3z M287,169.8l0.3,0.8h0.2
			l0.5-0.5v-0.5l-0.5-0.4C287.1,169.1,287,169.3,287,169.8z M288.4,167.8l0.3,0.8h0.3l0.5-0.5v-0.5l-0.5-0.4
			C288.6,167.1,288.4,167.4,288.4,167.8z M289.4,148.4l1.7,0.5l-0.3,0.3v0.5l0.3,0.3v0.2l-0.3,0.3c-1.1,0-1.7-0.6-1.7-1.7
			L289.4,148.4z M289.9,168.8v0.3l0.3,0.2h0.7v-0.2L289.9,168.8z M290.1,159.3v0.3l0.3,0.8h0.7l-0.5-1L290.1,159.3L290.1,159.3z
			 M290.1,164.7l0.5,0.5h0.2l-0.5-0.5H290.1z M290.4,123.8v0.3c0.3,0,0.5,0.3,0.5,0.8h0.5v-1h-1V123.8z M291.3,153
			c0,0.5-0.2,0.7-0.5,0.7l-0.2-0.3h-0.3v0.3c0,0.4,0.9,0.7,2.7,1c0,0.5,0.2,0.7,0.5,0.7l0.3-0.3V155c-0.5,0-0.8-0.3-0.8-1l-0.3,0.3
			h-0.3c-0.4,0-0.7-0.4-0.7-1.2h-0.4V153z M291.6,161.3l-0.3,0.9h0.8l1-0.4l-0.3-0.3v-0.3l-0.3,0.3H292l-0.3-0.3L291.6,161.3
			L291.6,161.3z M293.1,167.6l0.3,0.3l-0.3,0.3h0.8l-0.3-0.9L293.1,167.6z M294.8,155.7l-0.3-0.3h-0.3l-0.2,0.3v0.5l0.2-0.3h0.8
			l0.8,0.5v-1.3h-0.3L294.8,155.7z M294.3,156.4v0.3l0.3,0.7l-0.3,0.3h0.8v-0.3l-0.5-0.9h-0.3V156.4z M295.3,146.4v0.8h0.3l0.3-0.8
			H295.3z M296.2,144.7v0.3l-0.5,0.5v-0.3L296.2,144.7z M296.7,157.1l0.3,0.8h0.8v-0.5L296.7,157.1z M300.2,137.5
			c0,0.5-0.4,0.7-1.2,0.7v0.3h1l1.5-0.5v-0.4H301l-0.3,0.2h-0.3L300.2,137.5z M299.2,155.2v0.3h1.2l-0.5-0.4L299.2,155.2z
			 M299.7,148.4l0.3,0.3v0.3l0.3-0.3h1c0.3,0,0.5,0.3,0.5,1l0.3,0.3h0.3l0.3-0.3l-0.3-1.5h-1.2L299.7,148.4z M302.9,150.1l-0.3,1.3
			l0.7,0.3l0.8-0.3l0.3,0.3v0.2l0.7-0.2v-1h-0.2c0,0.5-0.2,0.8-0.5,0.8c-0.7,0-1-0.4-1-1.3h-0.5V150.1z M303.6,157.1l-0.3,0.8h0.8
			v-0.8H303.6z"/>
		<path d="M313.6,115.4v0.6c-0.3,0-0.5,0.3-0.5,1l-0.3,0.3h-0.3l-1-0.3v0.3c0,0.3,0.5,0.7,1.6,1l0.3,1.2v0.3h-0.6v0.3
			c0.5,0,0.8,0.2,0.8,0.5h0.5l0.3-1.6l-0.8-0.7v-0.5l1.3-0.3h0.8l0.6-1.3v-0.3l-0.6-0.5h-0.3l-1.3,0.3l-0.1-0.3h4
			c0.1,0.5,0.2,1.1,0.2,1.9l0.3-0.3h0.8l0.5,0.6v2H319l0.3,0.3v0.3L319,121l0.8,1.2v41.1c0.1,3.4,1.6,5.8,4.4,7.4v0.3l-0.3,0.2h-0.3
			l-0.3-0.2v0.5h2.1v0.5l2.8-0.3h0.6v10.2h-0.1l-0.3-0.3H327l-0.3,0.3l-0.3-0.3v0.5l2,0.3v0.5l-0.3,0.3l0.6,0.6v3.8
			c-0.4,0.1-1.2,0.1-2.4,0.2c-0.5,0-0.8-0.3-0.8-0.8h-0.3l-0.3,0.8c-2.1,0-4.3-0.3-6.6-1.1c-8.2-3-13.3-10.3-15.3-21.7v-40.5h1.3
			l1.3,0.8c0-0.7,0.3-1.1,1-1.1c0-1,0.2-1.5,0.5-1.5h1.3l0.8,0.5l0.5-0.8l-0.3-0.3h-1.5v-0.5c-0.8,0-1.5-0.4-2.1-1.2l-0.5,0.8
			c0.5,0,0.8,0.2,0.8,0.5v1.6h-1.6l-0.5-0.5v-1.3c0.5,0,0.8-0.2,0.8-0.5c-0.7,0-1.3-0.4-1.8-1.3v-3.1l1-1.1h3.8
			c-0.2,0.4-0.8,0.8-1.7,1.1v0.5h0.3l1.6-1.2l0.8,0.2v-0.6L313.6,115.4L313.6,115.4z M303.3,123.8v-2.6h0.5v0.5l0.3,1.8l-0.3,0.2
			h-0.5V123.8z M305.3,119v-0.5h-1.6v0.8L305.3,119z M304.3,127.9l0.5-1.3v-0.3l-1,0.3l0.3,1.3H304.3z M304.2,156l0.2,0.2l0.1-0.3
			L304.2,156z M305.3,134v-2.3h-0.6l-0.3,0.8l0.6,1.6h0.3V134z M309.9,125.1l-0.5-0.6c-1.5,0.5-2.4,1-2.6,1.6l0.3,0.2
			C307.9,125.6,308.9,125.1,309.9,125.1z M308.6,165.1h0.3l0.3-1h-0.5L308.6,165.1L308.6,165.1z M312,120v-0.3l-2.6-1.8v1
			c0.9,0.6,1.3,1.4,1.3,2.3c0.3,0,0.5-0.4,0.8-1.2H312z M309.5,163.6L309.5,163.6h0.6l0,0H309.5z M310.1,169.2v0.3l0.5,0.5
			C310.6,169.5,310.4,169.2,310.1,169.2z M311.1,169.2v-0.8h-0.6C310.6,169,310.8,169.2,311.1,169.2z M311.9,164.6l-0.3,1.3
			c0,0.5,0.2,0.7,0.5,0.7c0-0.9,0.2-1.6,0.5-2.1l-1-1h-0.3l-0.3,0.3L311.9,164.6z M313.1,123.6v-1h-0.8v0.3l0.3,0.8h0.5V123.6z
			 M312.7,173.5h1v-0.2l-1-0.5V173.5z M314.6,125.1v-0.6l-0.5-0.5v1.1H314.6z M315.2,171.5v0.8h0.5v-0.8l0.3-1.3h-0.5L315.2,171.5z
			 M318.5,119.8v-0.3c-0.5,0-1.1-0.3-1.6-1h-0.3l-0.8,0.8l0.8,1.3h0.3C317.5,120,318,119.8,318.5,119.8z M318.1,175.6h0.3v-0.8H317
			C317,175.1,317.4,175.3,318.1,175.6z M319.2,124.1l-1.3-1h-0.8C317.1,123.5,317.8,123.9,319.2,124.1z M317.6,126.4v-1.2h-0.5v1.2
			H317.6z M317.8,171.2l0.5,0.8v1.3l0.8,0.2c0.2-1,0.9-1.5,2.3-1.5v-0.3l-3.3-0.8h-0.3V171.2z M318.1,165.4l0.8,0.2v-0.5l-0.5-0.5
			L318.1,165.4z M319.7,115.4v0.3l-0.3,0.2v0.3c-0.6-0.1-1-0.3-1.2-0.8H319.7z M318.8,178.4c0.2,1,1.1,1.6,2.8,2h0.3l0.3-0.3v-0.3
			l-0.3-0.3c-1.8-0.5-2.8-1-2.8-1.5h-0.3V178.4z M319.3,185.5h0.6v-1.3h-0.6V185.5z M321.6,172.5l0.3,0.3v0.5h0.8l0.3-0.3
			c0-0.3-0.3-0.5-1-0.8L321.6,172.5z M324.9,180.4l0.8-3.1V177l-2.3,0.8l-0.8-0.6C322.6,178.6,323.4,179.6,324.9,180.4z M323.1,182
			h0.3l-0.5-0.5h-0.3L323.1,182z M323.3,174.5v0.3l2.1-0.6v-1l-0.3-0.3l-2.1,0.3L323.3,174.5z M324.9,181.7h1.3v-0.3l-1.3-0.2V181.7
			z M325.2,184.5h1.3V184h-0.8L325.2,184.5z M351.5,115.5v0.6l0.8-0.3l1.6,1.2h0.3v-0.5c-0.9-0.3-1.5-0.6-1.7-1.1h3.8l1,1.1v3.1
			c-0.5,0.9-1.1,1.3-1.8,1.3c0,0.3,0.3,0.5,0.8,0.5v1.3l-0.5,0.5h-1.6v-1.6c0-0.3,0.3-0.5,0.8-0.5l-0.5-0.8
			c-0.6,0.8-1.3,1.3-2.1,1.3v0.5h-1.5l-0.3,0.3l0.5,0.8l0.8-0.5h1.3c0.3,0,0.5,0.5,0.5,1.5c0.7,0,1,0.3,1,1l1.3-0.8h1.3v40.5
			c-2,11.4-7.1,18.7-15.3,21.7c-2.3,0.7-4.5,1-6.6,1l-0.3-0.7h-0.3c0,0.5-0.3,0.7-0.8,0.7c-1.1,0-1.9-0.1-2.4-0.1v-3.8l0.6-0.6
			l-0.3-0.3v-0.5l2-0.2v-0.5l-0.3,0.3l-0.3-0.3H332l-0.3,0.3h-0.1v-10.2h0.6l2.8,0.2v-0.5h2.1v-0.5l-0.3,0.3h-0.3l-0.3-0.3v-0.3
			c2.9-1.5,4.3-4,4.4-7.4v-41.1l0.8-1.2l-0.3-0.8v-0.3l0.3-0.3h-0.8v-2l0.5-0.6h0.8l0.3,0.3c0-0.8,0.1-1.4,0.2-1.9h4l-0.1,0.3
			l-1.3-0.3h-0.3l-0.6,0.5v0.3l0.6,1.3h0.8l1.3,0.3v0.5L346,119l0.3,1.5h0.5c0-0.3,0.3-0.5,0.8-0.5v-0.3H347v-0.3l0.3-1.2
			c1-0.3,1.6-0.7,1.6-1V117l-1,0.3h-0.3l-0.3-0.3c0-0.7-0.2-1-0.5-1v-0.6h4.7V115.5z M337.8,175.7l-2.1-0.3l-0.3,0.3v1l2.1,0.6V177
			L337.8,175.7z M338.4,180.6h-0.8v0.5h1.3L338.4,180.6z M339.1,174.7c-0.7,0.2-1,0.5-1,0.8l0.3,0.3h0.8v-0.5l0.3-0.3L339.1,174.7z
			 M342.2,115.5c-0.2,0.5-0.6,0.7-1.2,0.8V116l-0.3-0.3v-0.3h1.5V115.5z M343.3,123.2h-0.8l-1.3,1
			C342.6,124,343.3,123.6,343.3,123.2z M342.2,164.7l-0.5,0.5v0.5l0.8-0.3L342.2,164.7z M345.4,169.8h-0.3l-3.3,0.8v0.3
			c1.3,0,2.1,0.5,2.3,1.5l0.8-0.3v-1.2l0.5-0.8V169.8z M343.6,120.6h0.3l0.8-1.3l-0.8-0.7h-0.3c-0.5,0.7-1,1-1.6,1v0.3
			C342.5,119.9,343,120.1,343.6,120.6z M343.3,126.5v-1.3h-0.5v1.3H343.3z M344.8,158.4l-1.3,0.3v0.3h1.3V158.4z M344.5,130.7
			c0.2,0.8,0.5,1.2,0.8,1.2c0-0.9,0.4-1.7,1.3-2.3v-1l-2.6,1.8v0.3H344.5z M347.1,154.6l-0.8,0.6l-2.3-0.8v0.3l0.8,3.1
			C346.4,156.9,347.1,155.9,347.1,154.6z M344.7,180.8h-0.6v1.3h0.6V180.8z M346.2,173.7h-1.3v0.8h0.3
			C345.9,174.2,346.2,173.9,346.2,173.7z M346.4,125.2v-1l-0.5,0.5v0.6h0.5V125.2z M347.1,158.7h-0.3l-0.5,0.5h0.3L347.1,158.7z
			 M347.8,169.1h-0.5l0.3,1.2v0.8h0.5v-0.8L347.8,169.1z M349.1,160.7l-0.3-0.3h-0.3l-1,1c0.3,0.5,0.5,1.2,0.5,2.1
			c0.3,0,0.5-0.3,0.5-0.8l-0.3-1.3L349.1,160.7z M350.9,155.4h-0.3c0,0.5-0.9,1-2.8,1.5l-0.3,0.3v0.3l0.3,0.3h0.3
			c1.7-0.4,2.6-1,2.8-2V155.4z M348.3,127.6l0.3-0.8v-0.3h-0.8v1h0.5V127.6z M349.7,165.3h-0.6v0.8
			C349.5,166.1,349.7,165.8,349.7,165.3z M350.6,171.6l-1,0.5v0.3h1V171.6z M349.7,166.8l0.5-0.5V166
			C349.8,166.1,349.7,166.3,349.7,166.8z M350.2,160.4L350.2,160.4l0.5,0.1v-0.1H350.2z M353.3,126.5l0.3-0.3
			c-0.2-0.5-1.1-1.1-2.6-1.6l-0.5,0.6C351.6,125.2,352.5,125.7,353.3,126.5z M351.7,161h-0.5l0.3,1h0.3L351.7,161L351.7,161z
			 M356.7,119.3v-0.7h-1.6v0.5L356.7,119.3z M355.4,134.1l0.6-1.6l-0.3-0.7h-0.6v2.3H355.4z M356.4,128l0.3-1.3l-1-0.3v0.3l0.5,1.3
			H356.4z M356,156l0.1,0.3l0.2-0.2L356,156z M356.7,123.9l-0.3-0.3l0.3-1.8v-0.5h0.5v2.6H356.7z"/>
		<path d="M387.8,175.3l-0.2,0.2h0.2v12.1h-5.3l-26.4-71.7h15.6l16,43.6L387.8,175.3L387.8,175.3z M365.5,119h2l-0.5-0.8v-0.5
			l0.3-1.3H367l-0.3,0.3l-3.1,1.3v0.3L365.5,119z M367.5,128.5l0.5-0.5v-0.3h-0.5l-0.3,0.3v0.5H367.5z M369.3,133.3l-0.8-0.3h-0.3
			l0.5,0.8L369.3,133.3z M371.1,137.3v-0.6h-0.5l-0.6,0.6H371.1z M372,142.3l0.3-1l-0.8-0.2l-0.6,0.7L372,142.3z M372.5,145.9
			l-0.5-0.5h-0.3v0.5H372.5z M374.6,143.3v-0.5h-0.8l-0.5,0.5H374.6z M375.2,153.1l-0.3-1.3h-1.3v0.3c0.7,0,1.1,0.3,1.1,0.7v0.5
			l-0.6,0.8v0.3C374.5,154.4,374.8,153.9,375.2,153.1z M375.1,146.9v-0.5c-0.5,0-0.8-0.2-0.8-0.5h-0.6v0.2L375.1,146.9z M378.6,162
			c0-0.3,0.3-0.5,0.8-0.5v-0.3h-0.6v-0.3l0.3-1.3c1-0.3,1.6-0.7,1.6-1v-0.3l-1,0.3h-0.3l-0.3-0.3c0-0.7-0.2-1-0.5-1v-1.5h-0.3
			L378,157l-1.3-0.3h-0.3l-0.6,0.5v0.3l0.6,1.3h0.8l1.3,0.3v0.5l-0.8,0.8l0.3,1.6L378.6,162L378.6,162z M377.2,149.3v-0.5h-0.8v0.5
			H377.2z M378.1,166.6v-1.1l-0.5,0.5v0.6H378.1z M378.8,144.6l0.5-0.5v-0.3l-0.3-0.2l-0.6,0.5v0.5H378.8z M381.5,152.8
			c-0.8-0.6-1.3-1.2-1.3-2h-0.5c0,0.7-0.4,1-1.1,1v0.3C378.6,152.4,379.6,152.6,381.5,152.8z M379.7,165l0.3-0.7V164h-0.8v1H379.7z
			 M380.5,155.3l0.3-0.8h-0.3l-0.3-0.3h-0.8L380.5,155.3z M382.2,171.8v-1.2c-1.3,0-2-0.4-2.1-1.2h-0.3v0.3
			C379.9,170.6,380.6,171.2,382.2,171.8z M383.7,165.5l0.3-0.3c0-0.5,0.3-0.7,0.8-0.7V164c-1.2,0.6-1.8,1-1.8,1.3v0.3L383.7,165.5
			L383.7,165.5z M384.9,181.3l-0.3-1.2h-0.8l0.3,1.2H384.9z M384.4,177c0.2,0.8,0.5,1.3,0.8,1.3c0-0.9,0.4-1.7,1.3-2.3v-1l-2.6,1.8
			v0.3L384.4,177L384.4,177z M386.6,169.6h0.3v-0.5c-1.2-0.3-1.8-0.8-1.8-1.5h-0.8v1l0.8-0.3L386.6,169.6z M385.2,163.5v-0.3
			l0.3-0.3h-1.1v0.3L385.2,163.5z M387.1,166.8c0-0.2-0.3-0.5-1-0.8v0.5L387.1,166.8z M390.8,183.6l1.5,0.6l0.3,0.3h0.3l-0.3-1.2
			v-0.5l0.5-0.8h-2l-0.2,0.1v-22L407,116h15.6l-26.3,71.6h-5.5L390.8,183.6L390.8,183.6z M392.8,172.4v0.5l0.3,0.3h0.5v-0.3
			l-0.5-0.5H392.8z M394.3,167.1l-0.5,0.8h0.3l0.8-0.3L394.3,167.1z M395.5,163.6l0.6,0.6h0.5v-0.6H395.5z M396.5,159.1l0.6,0.8
			l0.8-0.3l-0.3-1L396.5,159.1z M397.3,155v0.5h0.3l0.5-0.5H397.3z M398.8,157.6l0.5,0.5h0.8v-0.5H398.8z M399.6,146.5v0.3l0.6,0.8
			v0.5c0,0.5-0.4,0.8-1.1,0.8v0.3h1.3l0.3-1.3C400.3,147,400,146.6,399.6,146.5z M399.3,154.8v0.3h0.6c0-0.4,0.3-0.6,0.8-0.6V154
			L399.3,154.8z M403.7,138.9l-0.3,1.6l0.8,0.8v0.5l-1.3,0.3h-0.8l-0.6,1.3v0.3l0.6,0.5h0.3l1.3-0.3l0.3,1.2h0.3v-1.5
			c0.3,0,0.5-0.3,0.5-1l0.3-0.3h0.3l1,0.3v-0.3c0-0.3-0.5-0.7-1.6-1l-0.3-1.2v-0.3h0.6v-0.3c-0.5,0-0.8-0.2-0.8-0.5h-0.6V138.9z
			 M401.9,151.6v0.5h0.8v-0.5H401.9z M403.1,134.3v0.6l0.5,0.5v-1h-0.5V134.3z M404.1,156.3v0.5l0.6,0.5l0.3-0.3v-0.3l-0.5-0.5
			L404.1,156.3L404.1,156.3z M404.2,148.9v0.3c0.7,0,1.1,0.3,1.1,1h0.5c0-0.8,0.4-1.4,1.3-2C405.1,148.3,404.2,148.6,404.2,148.9z
			 M404.7,135.9v1h0.8v-0.3l-0.3-0.8h-0.5V135.9z M405,146.6h0.8l0.3-0.3h0.3l-0.3-0.8L405,146.6z M405.4,131.1v0.3h0.3
			c0.1-0.8,0.8-1.2,2.1-1.2V129C406.1,129.7,405.4,130.4,405.4,131.1z M407.5,146.6v0.3c0,0.3,0.6,0.7,1.8,1.3v-0.5
			c-0.5,0-0.8-0.3-0.8-0.8l-0.3-0.3H407.5z M408.7,130.8l-0.3,1.2h0.8l0.3-1.2H408.7z M408.5,135.1v0.3l2.6,1.8v-1
			c-0.9-0.6-1.3-1.4-1.3-2.3c-0.3,0-0.5,0.4-0.8,1.3h-0.5V135.1z M409.6,143.8l-0.8-0.3v1h0.8c0-0.7,0.6-1.2,1.8-1.5v-0.5h-0.3
			L409.6,143.8z M409,148.9v0.3h1.1l-0.3-0.3v-0.3L409,148.9z M409.2,118v0.3c0.5,0,1.1,0.3,1.6,1h0.3l0.8-0.7l-0.8-1.3h-0.3
			C410.2,117.8,409.7,118,409.2,118z M410.3,127.6l0.5,0.6c1.5-0.5,2.4-1,2.6-1.6l-0.3-0.3C412.2,127.2,411.3,127.6,410.3,127.6z
			 M410.6,145.6v0.5c0.7-0.3,1-0.5,1-0.7L410.6,145.6z M412.1,129.8h0.8l0.5-0.6h-0.8L412.1,129.8z M413.1,125.2h0.5l0.5-0.5h-0.5
			L413.1,125.2z M414.6,128.3v0.5c-0.5,0-0.8,0.2-0.8,0.5h0.8l0.3-0.8v-0.3h-0.3V128.3z M416.2,119.4c0,0.7-0.2,1-0.5,1l-0.8-0.3
			l-0.3,0.3v0.8c0.5,0,0.8,0.3,0.8,0.8h0.3c0-0.9,0.4-1.3,1.3-1.3h0.8C417.4,120,416.9,119.6,416.2,119.4z"/>
		<path d="M420.1,115.7h15.4l0.5,0.5v5.9l-0.5,0.6H435c0-0.4-0.4-0.9-1.3-1.5v-0.5h-0.3l-0.3,0.3H433l1.6,2.3l-1.3,1h0.3l2.3-1.3
			l0.3,0.3V155h-1.3l-1.3-0.8c0,0.7-0.3,1.1-1,1.1c0,1-0.2,1.5-0.5,1.5h-1.3l-0.8-0.5l-0.5,0.8l0.3,0.3h1.5v0.5
			c0.8,0,1.5,0.4,2.1,1.3l0.5-0.8c-0.5,0-0.8-0.2-0.8-0.5v-1.6h1.6l0.5,0.5v1.3c-0.5,0-0.8,0.2-0.8,0.5c0.7,0,1.3,0.4,1.8,1.3v3.1
			l-1.8,2h1.3v-1h0.5v11.2c-0.3,0.7-0.8,1.1-1.3,1.1l0.5,0.5l0.8-0.2v7.1h-0.5c0-0.8-0.2-1.3-0.5-1.3l-1.6-0.7v0.2
			c0,0.3,0.5,0.5,1.6,0.8l0.3,1.3v0.3l-0.8,0.7H434l-1.5-1.3v0.3l1.3,1.5l-0.3,0.8h0.3c1,0,1.6-0.3,1.6-1h0.8v2.1l-0.5,0.5H434
			l-0.8-0.5l-0.5,0.5h-1.8c-0.3,0-0.5-0.3-0.5-0.7h-1.6c0,0.5-0.2,0.7-0.5,0.7H427l-1.6-1.2h-0.3v1.2H422v-0.7h-1.6v0.2h0.6v0.5
			h-1.1l-0.5-0.5v-0.2l0.5-0.8v-1.3h-0.5v-2.3l1-1.5c0-0.5-0.3-0.8-0.8-0.8l-0.3-0.3v-1.8l0.5-0.5h1.1l0.8,0.5h0.8l-0.3-0.3
			l-1.3-0.5l-0.6-1.5h-0.5v1.2h-0.5v-9.7l0.5-0.5h0.3l1.6,0.5v0.3l1.3-0.3h2.1c0-0.3-0.3-0.5-1-0.5v-0.5h-1.8l-0.5-0.5l0.3-1.1
			c-0.7,0-1-0.9-1-2.8l-0.3,0.3H420l-0.5-0.6v-2h0.8l-0.3-0.3v-0.3l0.3-0.8l-0.8-1.2v-41.1L420.1,115.7z M419.9,163.1
			c0.9,0.1,1.3,0.6,1.3,1.5c-0.7,0.4-1.1,0.8-1.1,1.3h-0.5v-2.3l0.3-0.3L419.9,163.1L419.9,163.1z M420.1,155.2l1.3,1h0.8
			C422.2,155.8,421.5,155.5,420.1,155.2z M422.2,168.7c0,0.7-0.2,1-0.5,1l-0.8-0.3l-0.3,0.3v0.8c0.5,0,0.8,0.3,0.8,0.7h0.3
			c0-0.9,0.4-1.3,1.3-1.3h0.8C423.4,169.4,422.9,169,422.2,168.7z M420.9,125.2v0.5l0.6,0.5l0.3-0.3v-0.3l-0.5-0.5h-0.4V125.2z
			 M420.9,159.5v0.3c0.5,0,1.1,0.3,1.6,1h0.3l0.8-0.7l-0.8-1.3h-0.3C421.9,159.3,421.3,159.5,420.9,159.5z M421.7,152.9v1.3h0.5
			v-1.3H421.7z M425.3,158.8l-0.3,1.6l0.8,0.7v0.5l-1.3,0.3h-0.8l-0.6,1.3v0.2l0.6,0.5h0.3l1.3-0.3l0.3,1.3h0.3v-1.5
			c0.3,0,0.5-0.3,0.5-1l0.3-0.3h0.3l1,0.3v-0.3c0-0.3-0.5-0.7-1.6-1l-0.3-1.3v-0.3h0.6v-0.3c-0.5,0-0.8-0.2-0.8-0.5L425.3,158.8
			L425.3,158.8z M423.2,176.1h0.8l0.5-0.6h-0.8L423.2,176.1z M423.2,185.3l0.6,0.8l0.8-0.3l-0.3-1L423.2,185.3z M424,181.3v0.5h0.3
			l0.5-0.5H424z M424.8,116.5l-0.5,0.8h0.3l0.8-0.3L424.8,116.5z M424.3,171.5h0.5l0.5-0.5h-0.5L424.3,171.5z M424.8,154.2v0.6
			l0.5,0.5v-1.1H424.8z M425.8,174.6v0.5c-0.5,0-0.8,0.2-0.8,0.5h0.8l0.3-0.8v-0.3L425.8,174.6L425.8,174.6z M425.5,183.8l0.5,0.5
			h0.8v-0.5H425.5z M425.8,168.7v0.3c0.7,0,1.1,0.3,1.1,1h0.5c0-0.8,0.4-1.4,1.3-2C426.7,168.2,425.8,168.4,425.8,168.7z M426,181
			v0.3h0.6c0-0.4,0.3-0.6,0.8-0.6v-0.5L426,181z M426.3,155.7v1h0.8v-0.3l-0.3-0.8L426.3,155.7L426.3,155.7z M426.6,166.4h0.8
			l0.3-0.3h0.3l-0.3-0.7L426.6,166.4z M427.3,159.3v0.3l2.6,1.8v-1c-0.9-0.6-1.3-1.4-1.3-2.3c-0.3,0-0.5,0.4-0.8,1.2H427.3z
			 M427.6,118.8v0.5l0.3,0.3h0.5v-0.3l-0.5-0.5H427.6z M427.6,122.9v0.3l3.1,1.2l0.3,0.3h0.3l-0.3-1.2V123l0.5-0.8h-2L427.6,122.9z
			 M428.8,180.2v0.3l0.6,0.8v0.5c0,0.5-0.4,0.8-1.1,0.8v0.3h1.3l0.3-1.3C429.6,180.7,429.2,180.3,428.8,180.2z M429.1,166.4v0.3
			c0,0.3,0.6,0.7,1.8,1.3v-0.6c-0.5,0-0.8-0.3-0.8-0.8l-0.3-0.3h-0.7V166.4z M429.4,154.2l0.5,0.6c1.5-0.5,2.4-1,2.6-1.6l-0.3-0.3
			C431.4,153.8,430.4,154.2,429.4,154.2z M431.2,163.6l-0.8-0.3v1h0.8c0-0.7,0.6-1.2,1.8-1.5v-0.5h-0.3L431.2,163.6z M430.7,168.7
			v0.3h1.1l-0.3-0.3v-0.2L430.7,168.7z M431.2,172.3v0.3h0.3c0.1-0.7,0.8-1,2.1-1v-1C431.9,171,431.2,171.6,431.2,172.3z
			 M431.2,185.3v0.5h0.8v-0.5H431.2z M431.4,124.6l0.6,0.6h0.5v-0.6H431.4z M432.2,165.4v0.5c0.7-0.3,1-0.5,1-0.8L432.2,165.4z
			 M434,145.3v2.3h0.6l0.3-0.8l-0.6-1.6H434V145.3z M434,160.3v0.5h1.6v-0.7L434,160.3z M434.5,172l-0.3,1.1h0.8l0.3-1.1H434.5z
			 M435,151.4l-0.5,1.3v0.2l1-0.2l-0.3-1.3H435z M436.1,155.5v2.6h-0.5v-0.5l-0.3-1.8l0.3-0.2h0.5V155.5z M470.6,174.6v0.8h-0.3
			l-0.3,0.3l0.3,0.3c0,0.7,0.3,1,1,1c0-0.5,0.2-0.8,0.5-0.8l0.5,2.6h-1v0.5c0.7,0,1,0.3,1,0.8l1.6,1.3v2.1h-0.8v1l0.5,0.8v1.5
			l-0.3,0.3c-0.7,0-1.1,0.3-1.1,0.8H469l-0.5-0.5v-0.3h1v-2.6c0.7,0,1.1-0.3,1.1-0.7h-0.8V183c0.8-0.1,1.3-0.4,1.3-0.8v-0.5
			c-0.5-0.6-0.8-1.2-0.8-1.8l0.3-1.3l-1.1-0.5c-0.7,0.4-1.2,0.8-1.3,1.2l0.5,0.8v0.3l-0.3,0.3l0.3,0.3v0.3c-0.4,0-0.9,0.2-1.5,0.7
			v0.3l0.3,0.3v1.6l-0.3,0.3h0.8v1.8l-0.5,0.5c-1,0-1.6-0.4-1.6-1.3h-1.5v0.5h-1.3l-0.8,1c0.5,0,0.8,0.2,0.8,0.5v0.3h-3.6l-0.5-0.5
			V187l0.3-0.3H459c0-0.5,0.3-0.8,0.8-0.8V185l-1.8-0.8c-0.4,0.3-1.3,0.6-2.8,0.8l0.8,1.5l-1.3,1h-4.1v-0.8h-0.8l-0.3,0.3v-0.3H449
			v0.3l1,0.3v0.3h-10.2l-0.6-0.5v-3.3l0.6-0.8l-0.6-0.8V182l0.3-0.3l-0.3-0.3v-3.3h0.3l1.1,0.7h0.3l-1.6-2.3v-2l0.6-0.6h3.3v0.8
			l-0.3,0.3l0.5,0.5c1.7-1,2.9-1.6,3.6-1.6h4.3c-0.2,1.2-0.6,1.8-1.3,1.8v0.5l2.1-1l-0.3-0.3c0.1-0.5,0.4-0.9,1-1.1l1,0.6l0.8-0.6
			h8.7l1.1,1.1h0.3l0.3-0.3v-0.3l-0.3-0.3v0h2.3c0.3,0,0.5,0.3,0.5,0.8l1-0.8h1.6L470.6,174.6z M441.6,179.2v0.5l0.3,0.3l-0.3,0.3
			l-1.3-0.3l-0.3,1.1l0.3,0.3l0.3-0.3l1,0.3l-0.3,1.2v0.8c0.5,0,0.8,0.2,0.8,0.5h0.5l-1-1.6c0.3-0.4,0.6-1.2,0.8-2.6l-0.5-0.5
			L441.6,179.2L441.6,179.2z M444.9,178.2l-0.3,0.3l0.3,1.5h0.3l0.3-1.3v-0.5H444.9z M447.5,181.2l-1.5,1v0.5l0.3,0.3l0.8-0.3
			c0-0.7,0.2-1,0.5-1l0.3-0.3l0.3-0.2H447.5z M450.1,181l-0.5,0.5v0.3h0.5l0.3-0.3V181H450.1z M451.1,181.7v1.6l0.5,0.5h0.3
			l-0.3-1.3v-0.8L451.1,181.7L451.1,181.7z M452.4,179.4l-0.8-0.8v1l1.1,0.3v-0.5H452.4z M452.9,175.9l-0.3,0.7l0.5,0.6v-1.3
			L452.9,175.9L452.9,175.9z M452.9,179.7l-0.3,0.8v0.3h0.3l0.3-0.8v-0.3H452.9z M454.2,180.7v1.2l-1,1l0.5,1l-1,1.8v0.3
			c0.8-0.2,1.5-0.7,2-1.5v-3.8H454.2z M453.4,177.7v0.3c0.3,0,0.5,0.3,0.5,0.7h0.3V178l-0.3-0.3H453.4z M456.2,176.6l0.5,0.6
			l0.5-0.6H456.2z M459,185.5c-0.7,0.7-1,1.4-1,2.1h-0.6l-1.3-0.5v-0.5h0.3c0.4-1,1.1-1.5,2.1-1.5L459,185.5z M457.8,179.2l-0.6,0.5
			c0.4,0,0.7,0.4,0.8,1.3l-0.8,0.3l0.3,0.2v0.3l-0.3,0.3v0.3c1-0.4,1.6-0.7,1.6-1H458V181l0.3-0.3v-1.6h-0.5V179.2z M458,175.1
			l-0.3,0.3v0.3l0.8-0.3v-0.3H458z M464.7,180.2l-1.1-0.3l-1.8,0.8h-0.5l-0.8-1.1l0.3,1.3c0,0.8-0.4,1.2-1.1,1.2v0.3l0.3,0.3l2.3-2
			h1l0.6,0.5l1.5-1.3v-0.3L464.7,180.2z M461.1,175.1v1h0.5v-0.5L461.1,175.1z M466.7,187.1l-0.5,0.5h-2.3v-0.3l1-1h0.8L466.7,187.1
			z M473.9,178.4h-1v-1l0.5-0.6h0.5V178.4z"/>
		<path d="M512.4,115.8l25.6,71.7h-18.7c-2.8-10.2-4.4-15.3-4.8-15.3h-20l3.9-13.3h12.3v-0.3c-3.4-10.7-5.9-19.5-7.5-26.4h-0.3
			c0,2-3.4,14.3-10.2,36.9c-1.9,6.7-3.2,10.6-3.9,11.7h-0.5v0.5l0.5,0.8l-1.5,5.4H487l-0.8-0.3l-1.3,0.3h-1.3l-0.8-0.3l-1.3,0.3
			h-3.3l-1.6-0.3l-0.8,0.3v-0.3l-0.3,0.3h-3.1v-3.3l0.3-1.6l-0.3-0.8l0.3,0.3h0.3l0.3-0.3v-0.3h-0.8v-3.3l0.5-0.5h0.5l0.8,0.3v-0.3
			l-0.3-0.8h-0.6l-0.3,0.3l-0.8-0.3l0.3-2.1h0.3l2.1-6.6l0.8,0.5l0.3-0.3v-0.2l-0.8-0.6l1.5-4.6h0.3c0,0.3,0.3,0.5,0.8,0.5v1.6
			l0.5-0.6v-2.3c0-0.5,0.5-0.8,1.5-0.8v-0.3l-0.3-0.8h-0.5c-0.6,0-1.1,0.9-1.5,2.6h-0.5v-0.2l1.5-4.9h1v0.5h0.8V158l-0.6-0.8
			l0.6-1.6l-0.3-0.2h-0.3c0,1.2-0.2,1.8-0.5,1.8H479l5.6-16.8h0.3v0.5h0.5l-0.5-0.8c0.2-1.4,0.6-2.1,1.1-2.1l-0.3-0.3v-0.3l7.7-21.9
			h19V115.8z M473.4,184.3v0.8c0.7-0.2,1.1-0.5,1.1-0.8H473.4z M475.2,175.1c0,0.3-0.3,0.5-0.8,0.5l0.5,0.5h0.3l1-0.5v-0.5H475.2z
			 M476.7,176.3c-0.7,0-1,0.3-1,0.8h1v-0.6l0.8-0.3l-0.3-0.7l-0.3,0.3h-0.3L476.7,176.3L476.7,176.3z M477,165.9v0.2l1.3,0.5
			l-0.3-0.7H477z M478.5,171v1.1h0.8c0-0.3,0.3-0.5,0.8-0.5V171l-1.3,0.3L478.5,171z M478.5,183v0.3l1.3,0.5c0-0.3,0.3-0.5,0.8-0.5
			V183l-0.6-0.5h-1L478.5,183z M480.1,167.4v0.5h1.1v-0.5H480.1z M481.9,180.2l-0.5,2l0.5,1.6l-1.8,0.7l0.3,0.8h0.5
			c0-0.4,0.3-0.7,1-1h1.3v0.5c0.5,0,0.8,0.5,1.1,1.6h0.8l-0.5-1.8c0.5,0,0.8-0.3,0.8-0.7l-0.5-1.6V182h0.5v-0.7h-0.5l-0.5,0.5v0.3
			l0.3,2.3l-2.3-1.8v-1l0.5-0.7v-0.3L481.9,180.2z M480.9,154.2v0.3l0.5,0.5l0.3-0.3v-0.5H480.9z M483.7,150.7c0,1-0.4,1.5-1.1,1.5
			l0.3,0.3v0.3c-0.5,0-0.8,0.3-0.8,1h1c0-1.4,0.4-2.1,1.1-2.1v-1H483.7z M482.1,162.9v0.3l0.5-0.5v-0.3L482.1,162.9z M482.4,170v0.5
			h1.8v-0.3l-0.8-0.3v0.3l-0.3-0.3L482.4,170L482.4,170z M483.4,167.4l-0.3,0.3v0.3l0.8,0.6h0.3v-0.3L483.4,167.4z M483.1,178.2v0.3
			l0.3,0.7h0.5v-1H483.1z M483.9,146.1v0.5l1.3-0.3V146h-1.3V146.1z M485.5,160.8c0.5,0.7,0.9,1,1.3,1v1.6h0.5l0.5-1
			c-0.3-0.7-0.8-1.2-1.5-1.6H485.5z M485.7,165.9v1l0.3-0.3h0.3l-0.3-0.7H485.7z M487.8,177.7c0,0.3-0.3,0.5-0.8,0.5
			c0.7,0.6,1,1.2,1,1.8h0.3l0.5-0.5v-0.3C488.8,178.3,488.4,177.8,487.8,177.7z M488.3,157.3l-0.3,0.3v0.3h0.8L488.3,157.3z
			 M488.8,137.9v0.6l1.1,0.3v-0.3l-0.8-0.6H488.8z"/>
		<path d="M551.3,115.8l-0.2,71.7h-16.5v-71.7H551.3z M576.4,115.8h21v0.3l-32.8,32.3l34.3,38.9v0.3h-19.7l-25.7-29.8V140
			L576.4,115.8z"/>
		<path d="M595.5,115.7H611l0.5,0.5v5.9l-0.5,0.6h-0.5c0-0.4-0.4-0.9-1.3-1.6v-0.5h-0.3l-0.3,0.3h-0.3l1.6,2.3l-1.3,1h0.3l2.3-1.2
			l0.3,0.3v31.9h-1.3l-1.3-0.8c0,0.7-0.3,1-1,1c0,1-0.2,1.5-0.5,1.5h-1.3l-0.8-0.5l-0.5,0.8l0.3,0.3h1.5v0.5c0.8,0,1.5,0.4,2.1,1.3
			l0.5-0.8c-0.5,0-0.8-0.2-0.8-0.5v-1.5h1.6l0.5,0.5v1.3c-0.5,0-0.8,0.2-0.8,0.5c0.7,0,1.3,0.4,1.8,1.3v3.1l-1.8,2h1.3v-1h0.5V175
			c-0.3,0.7-0.8,1-1.3,1l0.5,0.5l0.8-0.3v7.1H611c0-0.8-0.2-1.2-0.5-1.2l-1.6-0.8v0.3c0,0.3,0.5,0.5,1.6,0.8l0.3,1.3v0.2l-0.8,0.8
			h-0.6l-1.5-1.3v0.3l1.3,1.5l-0.3,0.8h0.3c1,0,1.6-0.3,1.6-1h0.8v2.1l-0.5,0.5h-1.6l-0.8-0.5l-0.5,0.5h-1.8c-0.3,0-0.5-0.3-0.5-0.8
			h-1.6c0,0.5-0.2,0.8-0.5,0.8h-1.3l-1.6-1.2h-0.3v1.2h-3.1v-0.8H596v0.3h0.6v0.5h-1.1l-0.5-0.5v-0.3l0.5-0.8v-1.3H595v-2.3l1-1.5
			c0-0.5-0.3-0.8-0.8-0.8l-0.3-0.3V178l0.5-0.5h1.1l0.8,0.5h0.8l-0.3-0.3l-1.3-0.5l-0.6-1.5h-0.5v1.2H595v-9.7l0.5-0.5h0.3l1.6,0.5
			v0.3l1.3-0.3h2.1c0-0.3-0.3-0.5-1-0.5v-0.5H598l-0.5-0.5l0.3-1c-0.7,0-1-0.9-1-2.8l-0.3,0.3h-0.8l-0.5-0.6v-2h0.8l-0.3-0.3V159
			l0.3-0.8l-0.8-1.2v-41.1L595.5,115.7z M595.3,163.1c0.9,0.1,1.3,0.6,1.3,1.5c-0.7,0.4-1.1,0.8-1.1,1.3H595v-2.3l0.3-0.3V163.1z
			 M595.3,163.1c0.9,0.1,1.3,0.6,1.3,1.5c-0.7,0.4-1.1,0.8-1.1,1.3H595v-2.3l0.3-0.3V163.1z M595.5,155.2l1.3,1h0.8
			C597.6,155.8,596.9,155.4,595.5,155.2z M597.6,168.7c0,0.7-0.2,1-0.5,1l-0.8-0.3l-0.3,0.3v0.8c0.5,0,0.8,0.3,0.8,0.7h0.3
			c0-0.9,0.4-1.3,1.3-1.3h0.8C598.8,169.3,598.3,168.9,597.6,168.7z M596.3,125.1v0.5l0.6,0.5l0.3-0.3v-0.3l-0.5-0.5h-0.4V125.1z
			 M596.3,159.5v0.3c0.5,0,1.1,0.3,1.6,1h0.3l0.8-0.7l-0.8-1.3h-0.3C597.3,159.2,596.8,159.5,596.3,159.5z M597.1,152.9v1.3h0.5
			v-1.3H597.1z M600.7,158.7l-0.3,1.6l0.8,0.7v0.5l-1.3,0.3h-0.8l-0.6,1.3v0.3l0.6,0.5h0.3l1.3-0.3l0.3,1.3h0.3v-1.5
			c0.3,0,0.5-0.3,0.5-1l0.3-0.3h0.3l1,0.3V162c0-0.3-0.5-0.7-1.6-1l-0.3-1.2v-0.3h0.6v-0.3c-0.5,0-0.8-0.2-0.8-0.5H600.7z
			 M598.6,176.1h0.8l0.5-0.5h-0.8L598.6,176.1z M598.6,185.3l0.6,0.8l0.8-0.3l-0.3-1L598.6,185.3z M599.4,181.2v0.5h0.3l0.5-0.5
			H599.4z M600.2,116.4l-0.5,0.8h0.3l0.8-0.3L600.2,116.4z M599.7,171.5h0.5l0.5-0.5h-0.5L599.7,171.5z M600.2,154.1v0.6l0.5,0.5v-1
			h-0.5V154.1z M601.2,174.5v0.5c-0.5,0-0.8,0.2-0.8,0.5h0.8l0.3-0.8v-0.3L601.2,174.5L601.2,174.5z M600.9,183.8l0.5,0.5h0.8v-0.5
			H600.9z M601.2,168.7v0.3c0.7,0,1.1,0.3,1.1,1h0.5c0-0.8,0.4-1.4,1.3-2C602.1,168.1,601.2,168.4,601.2,168.7z M601.4,181v0.3h0.6
			c0-0.4,0.3-0.6,0.8-0.6v-0.5L601.4,181z M601.7,155.7v1h0.8v-0.3l-0.3-0.8L601.7,155.7L601.7,155.7z M602,166.4h0.8l0.3-0.3h0.3
			l-0.3-0.7L602,166.4z M602.7,159.2v0.3l2.6,1.8v-1c-0.9-0.6-1.3-1.4-1.3-2.3c-0.3,0-0.5,0.4-0.8,1.3L602.7,159.2L602.7,159.2z
			 M603,118.7v0.5l0.3,0.3h0.5v-0.3l-0.5-0.5H603z M603,122.8v0.3l3.1,1.3l0.3,0.3h0.3l-0.3-1.2V123l0.5-0.8h-2L603,122.8z
			 M604.3,180.2v0.3l0.6,0.8v0.5c0,0.5-0.4,0.8-1.1,0.8v0.3h1.3l0.3-1.3C605,180.7,604.6,180.2,604.3,180.2z M604.6,166.4v0.3
			c0,0.3,0.6,0.7,1.8,1.3v-0.6c-0.5,0-0.8-0.3-0.8-0.8l-0.3-0.3h-0.7V166.4z M604.8,154.1l0.5,0.6c1.5-0.5,2.4-1,2.6-1.6l-0.3-0.3
			C606.8,153.7,605.9,154.1,604.8,154.1z M606.6,163.6l-0.8-0.3v1h0.8c0-0.7,0.6-1.2,1.8-1.5v-0.5h-0.3L606.6,163.6z M606.1,168.7
			v0.3h1.1l-0.3-0.3v-0.3L606.1,168.7z M606.6,172.2v0.3h0.3c0.1-0.7,0.8-1,2.1-1v-1C607.4,171,606.6,171.6,606.6,172.2z
			 M606.6,185.3v0.5h0.8v-0.5H606.6z M606.8,124.6l0.6,0.6h0.5v-0.6H606.8z M607.6,165.4v0.5c0.7-0.3,1-0.5,1-0.7L607.6,165.4z
			 M609.4,145.2v2.3h0.6l0.3-0.7l-0.6-1.6H609.4z M609.4,160.3v0.5h1.6V160L609.4,160.3z M610,172l-0.3,1.1h0.8l0.3-1.1H610z
			 M610.5,151.3l-0.5,1.3v0.3l1-0.3l-0.3-1.3H610.5z M611.5,155.4v2.6H611v-0.5l-0.3-1.8l0.3-0.3H611.5z M611.5,155.4v2.6H611v-0.5
			l-0.3-1.8l0.3-0.3H611.5z"/>
	</g>
	<g>
		<path d="M435.6,207.8H451l0.5,0.5v5.9l-0.5,0.6h-0.5c0-0.4-0.4-0.9-1.3-1.6v-0.5H449l-0.3,0.3h-0.3l1.6,2.3l-1.3,1h0.3l2.3-1.2
			l0.3,0.3v31.9h-1.3l-1.3-0.8c0,0.7-0.3,1-1,1c0,1-0.2,1.5-0.5,1.5h-1.3l-0.8-0.5l-0.5,0.8l0.3,0.2h1.5v0.5c0.8,0,1.5,0.4,2.1,1.2
			l0.5-0.7c-0.5,0-0.8-0.2-0.8-0.5v-1.6h1.6l0.5,0.5v1.3c-0.5,0-0.8,0.2-0.8,0.5c0.7,0,1.3,0.4,1.8,1.3v3.1l-1.8,2h1.3v-1h0.5v11.2
			c-0.3,0.7-0.8,1-1.3,1l0.5,0.5l0.8-0.2v7.1H451c0-0.8-0.2-1.2-0.5-1.2l-1.6-0.7v0.2c0,0.3,0.5,0.5,1.6,0.8l0.3,1.3v0.2l-0.8,0.8
			h-0.6l-1.5-1.3v0.3l1.3,1.5l-0.3,0.7h0.3c1,0,1.6-0.3,1.6-1h0.8v2.1l-0.5,0.5h-1.6l-0.8-0.5l-0.5,0.5h-1.8c-0.3,0-0.5-0.3-0.5-0.8
			h-1.6c0,0.5-0.2,0.8-0.5,0.8h-1.3l-1.6-1.2h-0.3v1.2h-3.1v-0.8h-1.6v0.3h0.6v0.5h-1.1l-0.5-0.5v-0.3l0.5-0.8v-1.2h-0.5v-2.3l1-1.5
			c0-0.5-0.3-0.8-0.8-0.8l-0.3-0.3v-1.8l0.5-0.5h1.1l0.8,0.5h0.8l-0.3-0.2l-1.3-0.5l-0.6-1.5h-0.5v1.2h-0.5v-9.7l0.5-0.5h0.3
			l1.6,0.5v0.3l1.3-0.3h2.1c0-0.3-0.3-0.5-1-0.5v-0.5h-1.8l-0.5-0.5l0.3-1c-0.7,0-1-0.9-1-2.8l-0.3,0.3h-0.8l-0.5-0.6v-2h0.8
			l-0.3-0.3v-0.2l0.3-0.8l-0.8-1.2v-41.1L435.6,207.8z M435.3,255.2c0.9,0.1,1.3,0.6,1.3,1.5c-0.7,0.4-1.1,0.8-1.1,1.3H435v-2.3
			l0.3-0.2L435.3,255.2L435.3,255.2z M435.3,255.2c0.9,0.1,1.3,0.6,1.3,1.5c-0.7,0.4-1.1,0.8-1.1,1.3H435v-2.3l0.3-0.2L435.3,255.2
			L435.3,255.2z M435.6,247.3l1.3,1h0.8C437.7,247.9,437,247.6,435.6,247.3z M437.7,260.8c0,0.7-0.2,1-0.5,1l-0.8-0.2l-0.3,0.2v0.8
			c0.5,0,0.8,0.2,0.8,0.7h0.3c0-0.9,0.4-1.3,1.3-1.3h0.8C438.9,261.5,438.4,261.1,437.7,260.8z M436.4,217.3v0.5l0.6,0.5l0.3-0.2
			v-0.3l-0.5-0.5H436.4z M436.4,251.6v0.3c0.5,0,1.1,0.3,1.6,1h0.3l0.8-0.7l-0.8-1.3H438C437.3,251.4,436.8,251.6,436.4,251.6z
			 M437.2,245v1.3h0.5V245H437.2z M440.7,250.9l-0.3,1.6l0.8,0.7v0.5l-1.3,0.2h-0.8l-0.6,1.3v0.3l0.6,0.5h0.3l1.3-0.3l0.3,1.3h0.3
			v-1.5c0.3,0,0.5-0.3,0.5-1l0.3-0.3h0.3l1,0.3v-0.3c0-0.3-0.5-0.7-1.6-1l-0.3-1.2v-0.3h0.6v-0.2c-0.5,0-0.8-0.2-0.8-0.5h-0.6V250.9
			z M438.7,268.2h0.8l0.5-0.5h-0.8L438.7,268.2z M438.7,277.4l0.6,0.7l0.8-0.2l-0.3-1L438.7,277.4z M439.5,273.3v0.5h0.3l0.5-0.5
			H439.5z M440.2,208.6l-0.5,0.8h0.3l0.8-0.3L440.2,208.6z M439.7,263.6h0.5l0.5-0.5h-0.5L439.7,263.6z M440.2,246.3v0.6l0.5,0.5v-1
			h-0.5V246.3z M441.2,266.7v0.5c-0.5,0-0.8,0.2-0.8,0.5h0.8l0.3-0.8v-0.2H441.2z M441,275.9l0.5,0.5h0.8v-0.5H441z M441.2,260.8
			v0.3c0.7,0,1.1,0.3,1.1,1h0.5c0-0.8,0.4-1.4,1.3-2C442.2,260.3,441.2,260.5,441.2,260.8z M441.5,273.1v0.3h0.6
			c0-0.4,0.3-0.6,0.8-0.6v-0.5L441.5,273.1z M441.7,247.8v1h0.8v-0.2l-0.3-0.8H441.7z M442.1,258.5h0.8l0.3-0.2h0.3l-0.3-0.7
			L442.1,258.5z M442.8,251.4v0.2l2.6,1.8v-1c-0.9-0.6-1.3-1.4-1.3-2.3c-0.3,0-0.5,0.4-0.8,1.3H442.8z M443.1,210.9v0.5l0.3,0.3h0.5
			v-0.3l-0.5-0.5H443.1z M443.1,215v0.3l3.1,1.3l0.3,0.2h0.3l-0.3-1.2V215l0.5-0.8h-2L443.1,215z M444.3,272.3v0.2l0.6,0.8v0.5
			c0,0.5-0.4,0.8-1.1,0.8v0.2h1.3l0.3-1.2C445,272.8,444.7,272.4,444.3,272.3z M444.6,258.5v0.3c0,0.3,0.6,0.7,1.8,1.3v-0.6
			c-0.5,0-0.8-0.2-0.8-0.7l-0.3-0.3L444.6,258.5L444.6,258.5z M444.9,246.3l0.5,0.6c1.5-0.5,2.4-1,2.6-1.6l-0.3-0.3
			C446.9,245.9,445.9,246.3,444.9,246.3z M446.6,255.7l-0.8-0.2v1h0.8c0-0.7,0.6-1.2,1.8-1.5v-0.5h-0.3L446.6,255.7z M446.1,260.8
			v0.3h1.1l-0.3-0.3v-0.2L446.1,260.8z M446.6,264.4v0.2h0.3c0.1-0.7,0.8-1,2.1-1v-1C447.4,263.1,446.6,263.7,446.6,264.4z
			 M446.6,277.4v0.5h0.8v-0.5H446.6z M446.9,216.7l0.6,0.6h0.5v-0.6H446.9z M447.7,257.5v0.5c0.7-0.3,1-0.5,1-0.7L447.7,257.5z
			 M449.5,237.4v2.3h0.6l0.3-0.7l-0.6-1.6L449.5,237.4L449.5,237.4z M449.5,252.4v0.5h1.6v-0.7L449.5,252.4z M450,264.1l-0.3,1.1
			h0.8l0.3-1.1H450z M450.5,243.5l-0.5,1.3v0.2l1-0.2l-0.3-1.3H450.5z M451.5,247.6v2.5H451v-0.5l-0.3-1.8l0.3-0.2H451.5z
			 M451.5,247.6v2.5H451v-0.5l-0.3-1.8l0.3-0.2H451.5z M454.6,208h14.9c11.6,0,19,4.1,22,12.2c0.7,1.6,1.1,3.5,1.1,5.6l-0.8,0.3v0.2
			c0.5,0,0.8,0.3,0.8,0.8c-0.3,3.1-0.7,4.6-1.3,4.6l-0.3-1.6h-1.3l-0.3,0.2h-0.3l-0.6-0.5v-0.5l0.3-0.3v-0.2l-1.1-1l-0.3,0.2h-0.5
			l-0.3-1h-0.5l0.3,0.2l-0.3,0.3v0.5l0.3,0.3v0.2l-0.3,0.3c0.8,0.5,1.5,1.4,2,2.8v0.5l-0.3,1.8l-1.3-0.3h-0.3l1,1.3h-1.8l0.3,2.5
			l-0.8,0.2v0.8l0.6,0.7l-2.3,1.3c-0.9,0-1.3-0.4-1.3-1.3h-2v0.8c0.8,0,2.2,0.7,4.1,2c0,0.4,0.4,0.6,1.3,0.6
			c1.2,0.6,1.8,1.3,1.8,2.3c2.1,0,4,2.4,5.9,7.2l-0.3,0.2c0.6,0,1.1,1.3,1.3,3.8c-0.5,0-0.8,0.2-0.8,0.5c0.7,0.3,1,0.9,1,1.8h-0.3
			l0.3,0.2c-0.3,4.1-0.9,6.1-1.8,6.1l0.5,1l-0.5,1.1l-1.8-0.3h-0.3L490,267c-0.9-0.2-1.3-0.5-1.3-0.8v-0.3l0.3-0.2v-0.2h-0.3
			l-1.3,0.5v0.6c0,0.4,0.6,0.8,1.8,1v0.7l-0.8,0.8h-1.3l-0.5,0.6v0.5c0.6,0,1.6,0.7,3.1,2c-2.7,3.1-4.9,4.6-6.7,4.6
			c0,0.3-1.3,0.9-3.9,1.8c-0.4,0-0.9-0.5-1.5-1.6l-0.8,0.2V277l-0.3-0.8l0.3-0.7h-1.3l-0.8-0.6v0.3c1.1,1.4,1.7,2.7,1.8,4.1
			l-4.3,0.2h-0.3c-0.3,0-0.5-0.5-0.5-1.5c-0.5,0-0.8-0.4-0.8-1.3h-0.3v1.5c-1,0.1-1.5,0.3-1.5,0.6l0.3,0.7l-0.3,0.3h-14.4l-0.5-0.5
			v-12.5l0.5-0.6h10.3l1,0.8h0.3l-0.3-0.2v-0.3l1.5-0.6h0.8c0,0.5,0.2,0.8,0.5,0.8h0.5c0-0.7,0.6-1.1,1.8-1.1l3.8-1.5l0.3,1.8v0.8
			h0.5c0,0.4,0.6,0.9,1.8,1.5h1.5v-1c-0.5,0-0.8-0.2-0.8-0.5v-0.8l0.3-1.3h0.5c0.3,0,0.5,0.3,0.5,1h0.3l0.3-1.2l-2.8-1.6l-0.6-0.5
			v-0.7c0-0.6,0.4-1.5,1.1-2.6v-3l0.3-0.3l-1.6-3.8l1.1,0.5l0.3-0.3v-0.7h-1.8l-1-1.1l0.3-0.2v-0.3h-0.3l-0.8,0.3
			c-0.8-1.2-3.7-1.8-8.7-1.8h-10.8l-0.5-0.6v-12l0.5-0.5h12.8v0.8h0.6c0-0.8,1.3-1.2,3.8-1.2c3.1-1.3,4.6-3.7,4.6-7.1l0.3-1.8h-0.5
			V224h-0.5l0.3,0.3v0.3l-0.3,0.3h-0.3c-1.5-2.2-4-3.3-7.4-3.3h-13.4L454,221v-12.5L454.6,208z M455.4,212v0.3l0.6,0.6l0.8-0.3v-0.3
			l-1-0.3L455.4,212L455.4,212z M461,268.7c0,0.4-0.5,1-1.5,1.8c0.3,0,1,0.6,2,1.8c0.1-0.7,0.4-1.1,0.8-1.1l-0.3-0.3l0.3-1.3v-0.2
			c-0.5,0-0.8-0.3-0.8-0.8H461V268.7z M459.7,208.2v1.3l1.3-0.3L459.7,208.2z M461.3,273.8v0.8l0.6-0.5l-0.3-0.3H461.3z
			 M463.3,277.9l-0.3,1h2.1v-0.5l-0.6-0.6h-1.2V277.9z M463.6,267.7v0.2c0.1,0.5,0.8,0.7,2.1,0.7h0.3c-0.2-0.7-0.7-1-1.6-1
			L463.6,267.7L463.6,267.7z M464.3,246.4h1.6l-0.5-0.5h-0.5L464.3,246.4z M464.9,275.6v1h0.3l0.3-0.2h0.3l0.3,0.2v-0.2
			C465.9,276.1,465.6,275.9,464.9,275.6z M465.1,277.1v0.3l0.3,0.7h0.5l0.3-1H465.1z M466.2,268.2l1.3,0.5l0.3-0.2h0.3l-0.6-1.2
			C466.6,267.6,466.2,267.9,466.2,268.2z M466.2,271.8v0.2l0.3,0.3v0.2l-0.3,0.3h0.3l0.3-0.3l1.3,0.3h0.5v-1.1l-1.3-0.3L466.2,271.8
			z M468,210.8v1h0.5v-0.5L468,210.8z M468.7,212.8l-0.3,0.3v0.3l1,1c0.5-0.3,1.2-0.5,2.1-0.5c0-0.3-0.3-0.5-0.8-0.5l-1.3,0.3
			L468.7,212.8z M469,210.3v0.5l1-0.3v-0.3L469,210.3L469,210.3z M469.5,235.9l-0.3,0.3v0.6c1,0.2,1.6,0.5,1.6,1h0.3v-0.5
			c-0.4,0-0.6-0.4-0.6-1.1L469.5,235.9z M469.5,219.9l0.5,0.5h0.5l-0.3-0.7L469.5,219.9z M469.7,269.5l-0.3,1c0.9,0,1.3,0.3,1.3,1
			h0.3v-0.7l-0.3-1.2L469.7,269.5L469.7,269.5z M470.2,239.8l-0.5,1h1.1l0.5-0.5V240L470.2,239.8z M470.8,243.8v0.5
			c0.4,0,0.8,0.3,1.3,0.7h0.3c-0.1-0.4-0.5-0.8-1.3-1.3L470.8,243.8L470.8,243.8z M471.5,275.4v1h1v-1H471.5z M474.1,211.8
			c0,0.3-0.3,0.5-0.8,0.5v0.6h0.8c0-0.4,0.3-0.6,0.8-0.6l-0.5-0.5H474.1z M474.1,234.2v0.5l0.5,0.5h0.3l-0.3-1H474.1z M475.9,262.6
			h0.3c0,0.5,0.6,1.3,1.8,2.3c-0.2,0.7-0.8,1-1.8,1c-0.8-1-1.3-1.8-1.3-2.5L475.9,262.6z M475.1,217.1v0.5l1.3-0.3h0.8v-0.5h-0.8
			L475.1,217.1z M475.9,219.4v0.3l0.8,2.3h0.3c0-0.7,0.5-1.1,1.5-1.3l-0.3-0.7h-1.3l-0.8-0.5L475.9,219.4L475.9,219.4z M476.1,242.6
			c0.3,0.8,0.7,1.2,1.1,1.2h0.3l-0.8-1.8L476.1,242.6z M476.1,248.4v0.5h0.8l0.5-0.5H476.1z M476.6,238v0.7h0.6l0.5-0.5L476.6,238z
			 M476.9,229.1v0.5l1-0.5v-0.2h-0.3L476.9,229.1z M477.2,222.5c0.2,0.7,0.5,1,0.8,1l0.3-0.2v-0.8h-0.5l-0.3-0.2L477.2,222.5z
			 M477.4,248.9v0.5h0.8v-0.5H477.4z M477.7,214.3l0.5,1h0.3v-1H477.7z M478.2,223.7l-0.3,2l0.3,0.3h1l0.6-2.1h-0.3L478.2,223.7z
			 M478.2,235.2v0.5l0.5,0.5h2.1v-0.5h1.3l0.8,0.5h0.5c0-0.6-1.2-1.1-3.6-1.5h-0.6L478.2,235.2z M478.7,241.8h0.3l0.5-0.5h-0.3
			L478.7,241.8z M479.8,218.7v1.2h0.8v-0.2C480.3,219,480,218.7,479.8,218.7z M480,229.1l0.3,1h0.3c0.2,0,0.5-0.3,0.8-1H480z
			 M482.5,247.9c0.9,0,1.3,0.5,1.3,1.6h0.8c0-0.9,0.2-1.3,0.5-1.3l0.3,0.3l2.1-0.6h0.3c0.3,0,0.5,0.3,0.5,0.8
			c0.3,0.3,0.8,0.5,1.6,0.5v0.5c-1.2,1.2-1.8,2.3-1.8,3.1l0.8,0.7v0.3c-0.4,0-0.8,0.3-1.3,0.8h-1v2l-1.8,0.5l-0.5-0.5l-0.5,1.6
			l0.3,1l-0.8,0.8l0.8,1.3v0.5c0,0.3-0.7,0.6-2.1,0.7l-0.3-0.2l-0.3,0.2v0.3c0.4,0,0.7,0.3,0.8,1l-0.5,0.5c1,0,1.6,0.4,1.6,1.3
			c0,0.4,0.8,0.8,2.3,1.3c0.1-0.9,0.3-1.3,0.6-1.3l-0.3-0.3v-0.2l0.3-0.3v-0.2l1.3,0.2h0.3l-2.1-1.2l-0.3,0.2h-0.3l-0.3-0.2v-0.3
			l0.5-1.2l3.6-0.2v-0.3l-0.5-0.7l-1.3,0.2l-1.3-0.5v-1.1l0.3-0.3l-0.3-0.2v-1l0.8-0.8h1.8l-0.3,1.3l0.3,0.2h0.5l0.3-1.3l-0.3-1.8
			l0.3,0.2h0.3l0.5-0.5V255l-0.3-0.2v-0.3c1-0.4,1.5-0.8,1.5-1.1l-0.8-1.2c0.4-1,0.7-1.6,1-1.6l0.3,0.3v-0.3l-1-1.5l0.5-0.8v-0.6
			l-0.3,0.3h-0.3l-0.3-0.3L490,248h-0.3c-0.3,0-0.5-0.3-0.5-0.7h-3.9c-0.3,0-0.6-0.8-0.8-2.3l1.6-0.5l0.3,0.2h0.8v-0.2
			c-0.6,0-1.3-0.3-2.1-0.8c-1.3,0.9-2,1.7-2,2.3L482.5,247.9z M482.3,223.2l0.6,0.7l-0.8,2.3h0.3l3.1-0.7
			C484.6,224,483.6,223.2,482.3,223.2z M482.8,253l-0.6,1l0.3,0.3l-0.3,0.3h1.6l-0.5-0.8l1-0.3V253H482.8z M483.1,220.4v0.2
			c0.5,0,1,0.6,1.5,1.8l0.3,0.3h0.3l0.3-0.3v-0.2c-0.4-1-1-1.6-2-1.8H483.1z M483.1,230.1l0.3,0.2v0.3l-0.3,0.2v0.3h0.5l0.5-1.6
			L483.1,230.1z M483.3,269.5v0.2l0.5,0.5h0.3v-0.5l-0.3-0.2H483.3z M486.2,267.2l-0.6,1v0.3c0.9-0.2,1.3-0.5,1.3-0.7l-0.5-0.5
			L486.2,267.2L486.2,267.2z M486.2,225.5l0.3,1.2h0.3v-1.2H486.2z M486.4,223.2v0.2l0.5,0.5v-0.2L486.4,223.2z M487.9,249.4v0.8
			l0.8-0.3v-0.2L487.9,249.4z M489.2,233.9l1,0.7l-1.8,2.1h-0.3v-0.8C488.9,235.1,489.2,234.5,489.2,233.9z M489.2,231.4v0.8h-0.6
			v-0.3L489.2,231.4z M489,226.3v0.8h0.5v-1.3L489,226.3z M489.2,220.9v0.6h1.3v-0.6H489.2z M489.2,261.1v0.2l0.8,1.8l-0.3,1.3h0.5
			c0-0.3,0.3-0.5,1-0.5v-0.5c-0.5,0-0.8-0.4-0.8-1.3l0.5-0.8v-0.2H489.2z M489.8,231.9h0.3l1.3,0.3c0,0.9-0.3,1.5-1,1.8h-0.5v-0.3
			l0.3-0.2l-0.3-0.3L489.8,231.9L489.8,231.9z M490.3,268h0.3l1.3,0.5v0.5l-1.1,1.1h-0.5l-0.5-0.5v-1.1L490.3,268z M491.8,255
			l0.5,0.5l0.5-0.5H491.8z M492.6,259.8v0.2l0.5,0.6v-0.8L492.6,259.8L492.6,259.8z M492.6,262.6l0.3,0.2h0.8v-0.7h-0.5L492.6,262.6
			z"/>
		<path d="M532.4,208l25.6,71.7h-18.7c-2.8-10.2-4.4-15.3-4.8-15.3h-20l3.9-13.3h12.3v-0.2c-3.4-10.7-5.9-19.5-7.5-26.4h-0.3
			c0,2-3.4,14.3-10.2,36.9c-1.9,6.7-3.2,10.6-3.9,11.7h-0.5v0.5l0.5,0.7l-1.5,5.4H507l-0.8-0.3l-1.3,0.3h-1.3l-0.8-0.3l-1.3,0.3
			h-3.3l-1.6-0.3l-0.8,0.3v-0.3l-0.3,0.3h-3.1v-3.3l0.3-1.6l-0.3-0.7l0.3,0.2h0.3l0.3-0.2v-0.3h-0.8v-3.3l0.5-0.5h0.5l0.8,0.2V270
			l-0.3-0.8h-0.6l-0.3,0.3l-0.8-0.3l0.3-2h0.3l2.1-6.6l0.8,0.5l0.3-0.3v-0.2l-0.8-0.6l1.5-4.6h0.3c0,0.3,0.3,0.5,0.8,0.5v1.6
			l0.5-0.6v-2.3c0-0.5,0.5-0.8,1.5-0.8v-0.2l-0.3-0.8h-0.5c-0.6,0-1.1,0.9-1.5,2.6h-0.5v-0.2l1.5-4.9h1v0.5h0.8v-0.7l-0.6-0.8
			l0.6-1.6l-0.3-0.2h-0.3c0,1.2-0.2,1.8-0.5,1.8H499l5.6-16.8h0.3v0.5h0.5l-0.5-0.7c0.2-1.4,0.6-2.1,1.1-2.1l-0.3-0.2v-0.3l7.7-21.9
			h19V208z M493.4,276.4v0.7c0.7-0.2,1.1-0.5,1.1-0.7H493.4z M495.2,267.2c0,0.3-0.3,0.5-0.8,0.5l0.5,0.5h0.3l1-0.5v-0.5H495.2z
			 M496.7,268.5c-0.7,0-1,0.3-1,0.8h1v-0.6l0.8-0.2l-0.3-0.7L497,268h-0.3V268.5z M497,258.1v0.2l1.3,0.5l-0.3-0.7H497z
			 M498.6,263.1v1.1h0.8c0-0.3,0.3-0.5,0.8-0.5v-0.6l-1.3,0.3L498.6,263.1z M498.6,275.1v0.3l1.3,0.5c0-0.3,0.3-0.5,0.8-0.5v-0.3
			l-0.6-0.5h-1L498.6,275.1z M500.1,259.6v0.5h1.1v-0.5H500.1z M501.9,272.3l-0.5,2l0.5,1.6l-1.8,0.7l0.3,0.8h0.5c0-0.4,0.3-0.7,1-1
			h1.3v0.5c0.5,0,0.8,0.5,1.1,1.6h0.8l-0.5-1.8c0.5,0,0.8-0.2,0.8-0.7l-0.5-1.6v-0.2h0.5v-0.7h-0.5l-0.5,0.5v0.3l0.3,2.3l-2.3-1.8
			v-1l0.5-0.7v-0.3L501.9,272.3z M500.9,246.4v0.2l0.5,0.5l0.3-0.2v-0.5H500.9z M503.7,242.8c0,1-0.4,1.5-1.1,1.5l0.3,0.3v0.2
			c-0.5,0-0.8,0.4-0.8,1.1h1c0-1.4,0.4-2.1,1.1-2.1v-1H503.7z M502.1,255v0.3l0.5-0.5v-0.3L502.1,255z M502.4,262.1v0.5h1.8v-0.3
			l-0.8-0.2v0.2l-0.3-0.2H502.4z M503.4,259.6l-0.3,0.3v0.2l0.8,0.6h0.3v-0.2L503.4,259.6z M503.1,270.3v0.3l0.3,0.7h0.5v-1H503.1z
			 M504,238.2v0.5l1.3-0.2v-0.3H504z M505.5,253c0.5,0.7,0.9,1,1.3,1v1.6h0.5l0.5-1c-0.3-0.7-0.8-1.2-1.5-1.6H505.5z M505.7,258.1v1
			l0.3-0.2h0.3l-0.3-0.7L505.7,258.1L505.7,258.1z M507.8,269.8c0,0.3-0.3,0.5-0.8,0.5c0.7,0.6,1,1.2,1,1.8h0.3l0.5-0.5v-0.2
			C508.8,270.5,508.5,270,507.8,269.8z M508.3,249.4l-0.3,0.3v0.2h0.8L508.3,249.4z M508.8,230.1v0.6l1.1,0.2v-0.2l-0.8-0.6H508.8z"
			/>
		<path d="M567.6,207.5l0.3,0.3h2.8l0.5,0.5v28.8l-0.3,1l0.3,0.7h-0.3l0.3,0.3v8.4l-0.3,0.3l0.3,0.3v31.1l-0.5,0.5h-1.6v-0.8h-0.5
			c0,0.5-0.2,0.8-0.5,0.8h-8.2v-0.8h-0.5v0.8h-4.1l-0.5-0.5v-70.8l0.5-0.5h12.1L567.6,207.5z M557,272.7v0.5h0.8v-0.5H557z
			 M557.3,276.5v0.8l0.5-0.5v-0.3H557.3z M558.3,276.3h1.1l-0.6-0.5L558.3,276.3z M561.6,274.5v0.2c1.2-0.2,1.8-0.4,1.8-0.7v-0.3h-1
			L561.6,274.5z M562.4,276.8l0.3,0.7h0.3v-0.7H562.4z M564.7,246.7c0,0.6-0.5,1.1-1.6,1.3v0.2h1.3l0.5-1.3v-0.3L564.7,246.7
			L564.7,246.7z M563.7,269.1v0.3l0.8,0.8h0.3v-1.1L563.7,269.1L563.7,269.1z M565.5,276.8l-0.5,0.5v0.8l0.8-1.1v-0.2L565.5,276.8
			L565.5,276.8z M565.2,270.2v0.5h0.8l-0.5-0.5H565.2z M566,249.3v0.5h1l0.3-1H567L566,249.3z M566.3,276.3l-0.3,0.2v0.3h0.8
			L566.3,276.3z M568.1,262c0,0.5-0.5,0.8-1.6,0.8v0.5l2.1-0.8V262H568.1z M567.8,238.1l0.5,0.5h0.3v-0.5H567.8z M568.8,260.5
			l-0.3,1.1h0.5l0.3-1.1H568.8z M569.8,236.6c0,0.7-0.3,1-1,1v0.3h0.3c0.8-0.3,1.2-0.7,1.3-1v-0.3H569.8z M569.1,246.7v0.5h1.1v-0.5
			H569.1z M569.6,229.4v0.5h0.8v-0.5H569.6z M574.2,207.8h13.9c10.3,0.5,15.4,2,15.4,4.4h1.3c4.8,3.4,7.2,8.6,7.2,15.5
			c0,7.6-2.9,13-8.8,16.1l-0.5-0.5c0,0.8-1,1.4-3.1,1.8v0.3c3,0,5.7,2.6,8.2,7.9l-0.3,0.3h-1l-0.3-0.3H606l-0.3,1.1h0.3l1.6-0.3
			c0.7,0,1.2,1.9,1.6,5.6h-0.6l-1.3-0.2l-1,1.2c0.5,0,0.9,0.3,1.3,1.1v0.5l-0.3,0.3v0.2h1.8V262h0.5l1.5,7.9c-1,0.3-1.5,0.7-1.5,1
			v0.3h1.3c0.5,0,1,1.2,1.6,3.6l-0.8,0.8v0.8l0.8-0.5h0.3c0.4,0.2,1.1,1.1,2.1,2.8l-1.1,1h-4.1l0.5-2.1v-0.7c-0.5,0-0.8,0.9-1,2.8
			h-4.4l-0.5-0.5l0.3-0.3h0.5l1.3,0.3v-0.8l-0.3-1l0.8-1l1.3,0.2l1.1-0.2V275c-2.6,0.6-3.9,1.1-3.9,1.6l0.3,1.6l-0.3,0.2H603
			c0,0.8-0.2,1.3-0.5,1.3h-4.1c-0.6,0-1.6-2-3.1-6.1l0.3-0.8c-0.5,0-1.4-4.5-2.8-13.5c-0.6-2.1-2-3.8-4.1-5.1
			c-2-0.7-4.8-1.1-8.2-1.1v-0.8h0.5v-0.5h-0.5c0,0.3-0.3,0.5-1,0.5v0.8l-4.4,0.3h-0.8l-0.5-0.6V248c0-0.4,0.4-0.6,1.3-0.6V247h-0.3
			l-0.8,0.2l-0.3-0.2v-6.4l0.5-0.5h6.4c10.1,0,15.2-3,15.2-8.9v-2.1c-0.6-4.9-3-7.4-7.2-7.4c0-0.3-2.1-0.5-6.4-0.5h-8l-0.5-0.5
			v-12.5L574.2,207.8z M577.3,247.2v0.3l1.6,0.8h2.3v-0.5h-2.3c-0.4,0-0.6-0.3-0.6-0.8L577.3,247.2z M577.8,241.1v0.5l0.5,0.6
			l-0.3,0.3v0.7h1.1l-0.3-0.2v-0.3l0.8-1.1l-1.6-0.5H577.8z M580.4,240.6l-0.3,1h0.8v-1H580.4z M581.4,248.3l0.5,0.5h1.5v-0.2
			l-0.5-0.5L581.4,248.3z M584.3,246l0.3,0.7h0.5l0.5-0.5V246l-1.3-0.2V246z M590.2,240.1l0.5,0.7l-0.3,0.2h-0.3l-0.3-0.2
			c-0.9,0-2,0.4-3.4,1.3h-0.8l0.3,0.3v0.2l-0.5,1.5h0.8c1-0.4,1.6-1,1.6-2l0.8-0.6h1.1c0.5,0,0.8,0.4,0.8,1.1h0.5l0.8-1.3
			c-0.3,0-0.5-0.3-0.5-1l-0.3-0.2H590.2z M591.9,250.8l0.8,3.8h0.5v-0.7l-0.5-2.1l0.5-0.7v-0.2L591.9,250.8L591.9,250.8z
			 M594.2,244.7l-0.5,1.1l2.6,1v-0.5c-0.3,0-0.5-0.3-0.5-1l-1.1-0.6H594.2z M594.2,237.6l1.1,1h1l0.5-0.5h-2.1v-0.5H594.2z
			 M595,266.1c0.2,1,0.5,1.5,0.8,1.5l0.5-0.5v-0.3l-0.8-0.7H595z M595.6,256.4l-0.3,1v0.3h0.3l0.3-1v-0.2L595.6,256.4L595.6,256.4z
			 M596.6,248.8l-0.3,0.2v0.5l1-0.5v-0.2H596.6z M596.3,261l1,1.5h0.5V262c-0.5,0-0.8-0.3-0.8-1H596.3z M596.6,271.2
			c1.1,0.3,1.8,0.8,2.1,1.5l2.3,0.8v-0.8c-1.2,0-2.1-0.6-2.8-1.8l-0.3-0.2h-0.8L596.6,271.2z M597.1,267.6l0.5,0.5h0.6v-0.5H597.1z
			 M597.1,274.2l0.5,0.5h0.3l-0.5-0.5H597.1z M597.3,240.6v2h0.5v-2H597.3z M597.8,264.8v0.3h0.6v-0.7L597.8,264.8z M599.1,234.5
			l-0.3,0.7l0.3,0.7h0.3l0.3-1.5L599.1,234.5L599.1,234.5z M599.9,256.7v0.2h0.3l0.8-0.7v-0.6L599.9,256.7z M599.9,277.8v0.6h0.3
			l1.3-0.2v-0.8H601L599.9,277.8z M600.6,259h0.3l0.5-0.6h-0.3L600.6,259z M602,263.8l-0.8-0.5l-0.6,0.5v0.2h1.8l0.3,0.3
			c1-0.4,1.6-0.7,1.6-1.1L604,263h-0.3C603.1,263.5,602.5,263.8,602,263.8z M600.6,266.6l0.3,1h0.3l1-0.5v-0.6h-1.6V266.6z
			 M601.5,262.3v0.2l0.5,0.5h0.5l0.5-0.5L601.5,262.3z M603.2,273.2c0,0.7-0.2,1-0.5,1l0.3,0.3v0.2l-0.5,0.8v0.3h1.1v-2.6
			L603.2,273.2L603.2,273.2z M603,223.3h0.3l0.6-0.5h-0.3L603,223.3z M603.5,259v0.5l1.3-0.2V259H603.5z M604,269.1
			c0,0.3,0.6,0.9,1.8,1.6h0.6v-0.3c0-0.3-0.6-0.7-1.8-1.3L604,269.1L604,269.1z M604.3,261.5h0.5l1-0.6v-0.5h-0.3
			C604.8,260.8,604.3,261.2,604.3,261.5z M605.5,255.1l-0.5,0.8l1,0.7l0.3-0.2h0.3l1.5,1v-2h-0.8l-1.3,0.2L605.5,255.1z M605,266.6
			v0.6h1v-0.6H605z M605.3,252.3v0.3l0.8,0.2v-0.5H605.3z M606,257.2v1.6c0.4,0,0.6-0.3,0.6-0.8l-0.3-0.7H606V257.2z M607.1,271.7
			l0.5,0.5l0.5-0.5H607.1z M609.9,273.2v0.5h1v-0.5H609.9z M614.8,281.1h1.3l0.5,0.5l-0.5,0.5h-1.3l-0.6-0.5L614.8,281.1z"/>
	</g>
	<rect x="427.5" y="207.8" width="5.1" height="71.9"/>
	<rect x="429.4" y="207.8" width="5.5" height="71.8"/>
	<rect x="422" y="207.8" width="3.2" height="71.9"/>
	<rect x="412.6" y="207.8" width="6.4" height="71.9"/>
	<path d="M402.1,281.9V210c0,0-0.1-3.9,3.6-3.5c0,0,3.8-0.1,2.3,7.1c0,0-2.5,7.9-3.4,11.1c-1,3.4-0.1,6.3,3.7,7.1
		c0,0,1.3,0.3,4.3-0.5C412.6,231.4,414.4,279.6,402.1,281.9z M405.1,212c0.7,0,1.3-0.6,1.3-1.3c0-0.7-0.6-1.3-1.3-1.3
		c-0.7,0-1.3,0.6-1.3,1.3C403.8,211.4,404.4,212,405.1,212z"/>
	<path d="M396.4,267.5c-0.1-1.7-0.9-7-0.9-7c-0.2-2-0.1-3.4-0.1-3.4c0.1-2.5,1.8-3.7,1.8-3.7c1.6-1.6-0.3-1.6-0.3-1.6h-1.3
		l-0.6-22.4c4.1-1.5,4.3-4.4,4.3-4.4c0.9-11.6-3.7-22-3.7-22l0.3,17.7c-0.1,2.3-2.9,2.1-2.9,2.1c-2-0.2-2.3-2.2-2.3-2.2l-0.4-16.6
		c-3.2,9.1-3.3,19.1-3.3,19.1c0.4,5.1,4.4,6.3,4.4,6.3L391,252h-1.1c-1.8,0.2,0,1.8,0,1.8c1.5,1.1,1.5,3.2,1.5,3.2
		c0.2,1.1-0.8,7.6-0.8,7.6s-1.3,12-0.1,15.5c0,0,0.5,1.4,1.3,2c0,0,1.6,1,2.7,0c0,0,0.7-0.5,1.2-2.1
		C395.9,280.1,397.1,277.8,396.4,267.5z"/>
	<path d="M378.3,203.7l-0.2,10.8c0,0-9.8,1.5-4.1,10.3c0,0-4.8,3.9-0.4,11.4c0,0,1.4,1.6,0.7,2.2c0,0-3.8,4.1,0.9,8.6
		c0,0-4.1,5.1-0.4,8.1c0,0-5.4,9.5,5.3,9.1l2,16.3c0,0,1.7,1.2,3.4-0.3l-1-17.6c0,0,6.8-2.9,3.4-7c0,0,3.1-6.6-1.2-7.1
		c0,0-1.3-0.6-0.4-2.1c0,0,2.7-5.9,0.7-6.8c0,0,1.6-2.3,2.7-2.3c0,0,1.6-8.3-5-11.4c0,0,4.9-10.2-3.1-11.2L378.3,203.7z"/>
	<path d="M369.3,209c0.3,4.6,1.2,49.9,1.2,49.9l3.1,20c-0.5,2.3-5.3,1.1-5.3,1.1c-1.8-3.5-2.5-19.2-2.5-19.2
		c-1.5-4-11.8-3.9-11.8-3.9c-12.3-34.6-8-49.6-8-49.6s21.9-0.4,22.4-0.4C369.3,206.9,369.3,209,369.3,209z M363.5,214.8
		c1.3,0,2.4-1.1,2.4-2.4s-1.1-2.4-2.4-2.4s-2.4,1.1-2.4,2.4C361.1,213.7,362.2,214.8,363.5,214.8z"/>
</g>
</svg>
