<?xml version="1.0" encoding="utf-8"?>
<!-- Generator: Adobe Illustrator 26.2.1, SVG Export Plug-In . SVG Version: 6.00 Build 0)  -->
<svg version="1.1" id="Layer_1" xmlns="http://www.w3.org/2000/svg" xmlns:xlink="http://www.w3.org/1999/xlink" x="0px" y="0px"
	 viewBox="0 0 999.02 999.32" style="enable-background:new 0 0 999.02 999.32;" xml:space="preserve">
<style type="text/css">
	.st0{fill:#FFFFFF;}
</style>
<path class="st0" d="M546.45,999.32c-31.3,0-62.61,0-93.91,0c-3.67-1.11-7.29-2.87-11.03-3.23c-23.92-2.3-47.28-7.49-70.47-13.48
	c-9.79-2.53-19.43-5.68-29.02-8.9c-10.23-3.43-20.67-6.53-30.43-11.05c-23.02-10.67-46.09-21.2-67.98-34.28
	c-21.05-12.58-41.3-26.28-60.01-41.94c-31.71-26.54-60.34-56.12-85.06-89.52c-15.99-21.6-30.44-44.1-42.46-67.98
	c-9.91-19.67-18.05-40.26-26.34-60.71c-4.48-11.06-8.49-22.46-11.2-34.06c-4.9-21.02-9.12-42.22-12.78-63.49
	c-3.27-18.97-6.35-38.04-5.65-57.46c0.7-19.58,0.21-39.26,2.13-58.71c2.27-22.96,5.85-45.76,11.18-68.37
	c5.21-22.08,12.04-43.57,19.78-64.74c6.14-16.79,13.53-33.28,22-49.03c10.52-19.57,22.21-38.56,34.32-57.21
	c18.03-27.74,40.29-52.04,63.97-75.04c24.53-23.82,50.95-45.28,80.1-63.25c11.16-6.88,22.22-14.11,34.01-19.74
	c20.05-9.57,40.55-18.24,61.07-26.78c9.16-3.81,18.74-6.71,28.31-9.4c10.23-2.87,20.62-5.25,31.04-7.38
	c16.44-3.36,32.95-6.36,49.45-9.47c6.5-1.23,13.04-3.39,19.54-3.33c34.34,0.29,68.8-3.41,102.96,3.12
	c12.08,2.31,24.31,3.84,36.37,6.24c10.75,2.14,21.48,4.58,32.01,7.6c17.2,4.95,34.72,9.3,51.23,16.04
	c24.54,10.02,48.8,20.8,71.73,34.46c22.64,13.48,44.44,28.15,64.49,45.1c34.92,29.51,66.97,61.92,92.47,100.16
	c11.69,17.54,23.46,35.21,33.01,53.94c11.66,22.87,23.11,46.03,30.17,70.95c5.48,19.32,11.99,38.41,16.26,58
	c4.28,19.62,6.31,39.72,9.42,59.59c0.26,1.66,1.25,3.21,1.9,4.82c0,25.64,0,51.29,0,76.93c-0.67,1.76-1.67,3.48-1.95,5.3
	c-2.86,18.57-5.31,37.2-8.5,55.71c-1.75,10.13-4.24,20.2-7.18,30.06c-5.11,17.17-10.34,34.33-16.46,51.15
	c-4.3,11.82-10.26,23.02-15.29,34.59c-10.71,24.64-24.69,47.39-39.93,69.41c-19.84,28.7-42.74,54.74-67.9,78.91
	c-21.81,20.94-45.36,39.66-70.8,55.8c-17.21,10.92-35.37,20.39-53.4,29.95c-10.54,5.59-21.39,10.82-32.57,14.9
	c-19.63,7.17-39.49,13.79-59.52,19.77c-12.71,3.79-25.82,6.4-38.88,8.79c-11.11,2.03-22.44,2.89-33.63,4.52
	C550.74,996.91,548.63,998.38,546.45,999.32z M941.89,499.9c-1.51-248.71-199.98-442.49-442.7-442.18
	C253.43,58.04,56.96,254.77,57.4,499.9c0.45,248.1,198.5,442.35,442.56,441.87C747.33,941.29,940.22,744,941.89,499.9z"/>
<path class="st0" d="M624.61,492.77c0-36.12,0.06-72.25-0.07-108.37c-0.02-4.29,1.34-5.99,5.71-5.97
	c40.78,0.19,81.6-0.87,122.32,0.82c23.56,0.98,45.46,9.32,58.2,31.72c3.1,5.45,4.45,12,5.97,18.2c0.81,3.31,0.21,6.96,0.34,10.45
	c0.7,17.92-7.42,31.53-20.78,42.58c-1.15,0.95-2.42,1.77-3.55,2.76c-2.2,1.92-1.73,3.36,0.92,4.29
	c11.76,4.14,20.69,11.9,27.11,22.34c3.7,6.02,6.68,12.48,6.94,19.92c0.13,3.76,2.16,7.51,1.99,11.2
	c-1.1,23.59-9.69,42.61-32.32,53.52c-15.61,7.53-31.89,10.62-49.04,10.59c-38.95-0.08-77.9-0.02-116.85-0.03
	c-6.64,0-6.88-0.33-6.87-7.15c0.02-35.62,0.01-71.25,0.01-106.87C624.62,492.77,624.62,492.77,624.61,492.77z M714.64,571.83
	c8.48,0,16.97,0,25.45,0c8.79,0,17.28-0.62,25.85-3.7c20.98-7.55,25.36-33.95,11.38-48.65c-9.46-9.95-22.39-11.42-34.42-12.16
	c-22.7-1.39-45.56-0.39-68.34-0.43c-4.04-0.01-5.5,1.75-5.47,5.81c0.16,17.47,0.07,34.94,0.08,52.4c0,5.87,0.75,6.71,6.55,6.73
	C688.69,571.86,701.66,571.83,714.64,571.83z M709.37,413.86c0-0.14,0-0.27,0-0.41c-11.31,0-22.62,0.08-33.93-0.04
	c-4.32-0.05-6.4,1.39-6.35,6.06c0.16,15.8,0.13,31.6,0.03,47.4c-0.03,4.2,1.63,6.07,5.92,5.99c22.59-0.4,45.18-0.71,67.77-1.03
	c10.26-0.15,18.4-4.58,25.06-12.17c7.22-8.22,8.06-22.67,1.73-31.55c-6.21-8.7-15.35-13.04-25.35-14
	C732.73,413.01,721.01,413.86,709.37,413.86z"/>
<path class="st0" d="M471.09,374.94c10.99-0.93,23.17,0.65,34.29,6.63c16.17,8.69,25.37,21.72,26.39,40.85
	c1.42,26.55-14.27,41.83-33.76,55.13c-2.19,1.49-4.53,2.78-6.88,4.01c-3.98,2.08-4.54,4.11-1.38,7.2
	c4.03,3.94,8.45,7.48,12.53,11.39c9.37,8.97,18.69,18,27.9,27.14c2.73,2.71,4.45,2.57,5.71-1.07c3.35-9.7,6.87-19.34,9.9-29.14
	c1.14-3.67,2.85-4.48,6.18-3.35c7.22,2.46,14.48,4.82,21.68,7.32c1.71,0.59,3.49,1.36,4.84,2.51c0.98,0.83,2.11,2.68,1.8,3.63
	c-3.45,10.69-6.95,21.37-10.91,31.87c-1.8,4.77-4.48,9.24-7.09,13.65c-2.09,3.54-0.1,5.62,2.1,7.76c7.04,6.84,14,13.76,21.22,20.4
	c2.67,2.46,2.97,4.29,0.56,7.07c-5.67,6.52-11.12,13.22-16.66,19.85c-2.87,3.43-5.57,2.67-8.43-0.15
	c-6.88-6.76-13.96-13.32-20.74-20.18c-2.82-2.85-5-2.96-8.08-0.41c-10.88,9.04-23.5,14.9-36.86,19.16
	c-16.29,5.19-33.12,4.72-49.89,3.85c-19.87-1.03-37.56-8.09-52.6-21.11c-7.1-6.14-11.71-13.92-15.1-22.99
	c-3.51-9.4-3.75-18.73-2.22-27.93c1.88-11.32,6.65-21.79,14.79-30.4c9.67-10.22,20.46-18.96,32.87-25.64
	c4.25-2.29,2.23-4.58,0.28-7.17c-4.89-6.48-10.33-12.68-14.29-19.7c-12.4-21.98-7.24-55.99,17.75-69.8
	C439.33,378.51,451.59,374.07,471.09,374.94z M460.86,575.23c16.2,1.76,30.94-3.08,44.76-11.45c5.36-3.24,5.66-4.87,1.48-8.8
	c-6.16-5.81-12.39-11.54-18.53-17.35c-11.47-10.85-22.85-21.79-34.44-32.52c-1.17-1.08-4.04-1.92-5.13-1.25
	c-11,6.77-22.11,13.24-28.81,25.26c-7.54,13.53-3.31,31.28,10.07,39.02C439.7,573.59,449.69,576.48,460.86,575.23z M441.19,428.5
	c0.63,3.4,0.3,7.45,2.08,10.07c4.83,7.09,10.45,13.66,16.01,20.22c0.91,1.07,3.68,1.94,4.68,1.35c9.86-5.79,20.11-11.15,27.38-20.41
	c12.3-15.67-0.51-33.85-14.13-33.88c-5.46-0.01-10.99-0.21-16.38,0.49C449.33,407.83,441.65,416.97,441.19,428.5z"/>
<path class="st0" d="M256.53,610.65c-8.14-0.37-16.45,0.13-24.39-1.33c-11.32-2.09-22.45-5.35-33.52-8.61
	c-10.23-3.01-19.6-7.87-27.99-14.63c-3.3-2.66-3.34-5.64-1.97-8.87c3.34-7.92,6.95-15.73,10.42-23.6c1.68-3.83,3.56-4.1,7.45-1.91
	c9.51,5.33,18.85,11.19,28.89,15.3c7.38,3.02,15.69,4.01,23.69,5.17c8.81,1.28,17.85,2.96,26.59,2.21
	c10.59-0.91,21.14-3.25,30.73-8.88c12.83-7.54,17.05-30.15,0.75-39.5c-6.53-3.75-13.72-6.58-20.91-8.9
	c-11.43-3.69-23.11-6.57-34.67-9.85c-8.89-2.52-17.9-4.75-26.61-7.79c-15.59-5.43-29.32-13.81-37.12-29.03
	c-7.33-14.29-8.35-29.32-3.87-44.96c4.88-17.04,15.15-29.55,30.58-37.55c7.7-3.99,16.17-6.65,24.48-9.28
	c19.84-6.29,40.22-4.04,60.39-2.56c7.72,0.56,15.38,3.38,22.81,5.94c8.54,2.94,16.8,6.68,25.14,10.19c3.47,1.46,4.46,3.51,2.59,7.47
	c-3.4,7.18-6.13,14.69-8.87,22.16c-2.34,6.4-3.83,6.72-10.03,3.69c-12.23-5.98-24.79-11.17-38.57-12.54
	c-6.73-0.67-13.44-2.27-20.16-2.25c-11.48,0.03-22.88,1.96-33.14,7.31c-8.31,4.33-14.23,11.83-14.9,21.11
	c-0.62,8.61,3.93,15.78,11.9,20.45c10.88,6.36,22.65,9.8,34.88,12.32c7.07,1.45,13.95,3.83,20.93,5.71
	c5.9,1.59,11.97,2.68,17.73,4.67c17.45,6.02,33.95,13.63,44.11,30.28c5.99,9.81,8.45,20.97,7.51,32.01
	c-2.31,27.17-17.22,47.88-46.36,58.82C289.2,609.31,273.1,610.89,256.53,610.65z"/>
</svg>
