<?xml version="1.0" encoding="utf-8"?>
<!-- Generator: Adobe Illustrator 26.2.1, SVG Export Plug-In . SVG Version: 6.00 Build 0)  -->
<svg version="1.1" id="Layer_1" xmlns="http://www.w3.org/2000/svg" xmlns:xlink="http://www.w3.org/1999/xlink" x="0px" y="0px"
	 viewBox="0 0 736.29 488.24" style="enable-background:new 0 0 736.29 488.24;" xml:space="preserve">
<style type="text/css">
	.st0{fill:#FFFFFF;}
</style>
<g>
	<path class="st0" d="M509.21,272.5c3.84-6.66,7.83-13.24,11.48-20.01c9.55-17.68,18.98-35.43,28.39-53.18
		c5.35-10.1,10.48-20.31,15.87-30.39c10.81-20.21,21.64-40.4,32.61-60.52c9.61-17.62,19.28-35.22,29.22-52.66
		c7.22-12.68,14.92-25.08,22.4-37.61c1.53-2.56,2.83-5.29,4.6-7.67c3.53-4.77,8.41-6.08,12.45-3.67c3.78,2.26,4.81,8.41,2.26,13.49
		c-3.58,7.13-7.2,14.24-10.74,21.39C649.8,57.71,642,73.83,633.96,89.83c-9.55,18.99-19.34,37.85-28.92,56.82
		c-7.33,14.51-14.49,29.11-21.7,43.68c-9.2,18.6-18.46,37.17-27.54,55.83c-10.31,21.19-20.44,42.46-30.7,63.68
		c-5.42,11.21-10.63,22.54-16.57,33.47c-2.73,5.03-6.59,9.62-10.64,13.72c-4.19,4.26-16.3,2.62-21.43-1.66
		c-9.25-7.7-9.17-17.78-7.97-28.29c0.81-7.08,1.8-14.15,2.44-21.25c1.88-20.83,3.27-41.71,5.51-62.51
		c2.49-23.1,6.18-46.08,8.5-69.19c2.96-29.56,5.06-59.2,7.55-88.81c0.12-1.49,0.25-2.99,0.58-4.44c2.86-12.52-0.19-24.02-6.41-34.79
		c-4.49-7.77-12.14-11.04-20.85-8.99c-12.69,2.98-23.86,9.31-33.86,17.4c-12.94,10.47-25.9,21.03-37.89,32.55
		c-14.81,14.25-28.79,29.37-42.83,44.4c-14.6,15.63-29.41,31.14-43.09,47.56c-12.94,15.52-24.05,32.45-32.93,50.74
		c-5.3,10.93-10.63,21.8-11.96,34.06c-0.2,1.83,0.75,3.78,1.17,5.68c1.37-1.33,3.69-2.48,3.97-4.01
		c2.47-13.47,9.57-24.9,16.89-35.84c6.37-9.52,14.09-18.32,26.19-21.9c13.09-3.87,26.21,2.34,28.33,16.07
		c1.42,9.15,1.47,18.12-2.66,26.34c-6.16,12.28-12.4,24.65-20.02,36.04c-6.74,10.07-15.81,18.27-27.93,22.25
		c-1.52,0.5-3.46,2.64-3.54,4.1c-0.51,9.54,0.48,18.73,9.97,24.14c1.28,0.73,3.53,0.87,4.84,0.25
		c12.82-6.08,24.57-13.86,34.73-23.76c6.46-6.3,10.83-13.41,11.88-23.25c1.13-10.55,5.01-20.89,8.38-31.09
		c3.49-10.57,8.24-20.63,14.75-29.8c6.96-9.81,14.9-18.72,26.97-21.62c13.19-3.18,24.98,0.41,27,17.09
		c2.1,17.36-3.24,32.51-12.2,46.74c-4.77,7.57-9.38,15.58-15.66,21.76c-6.2,6.1-14.46,10.11-21.76,15.12
		c-1.67,1.15-3.81,2.37-4.48,4.06c-1.73,4.41,3.11,19.38,6.71,22.26c4.6,3.68,9.94,3.31,17-0.97c13.74-8.31,25.91-18.36,35.4-31.44
		c2.08-2.87,5.25-4.62,8.11-2.51c1.95,1.44,3.17,4.88,3.3,7.49c0.12,2.41-1.1,5.37-2.69,7.29c-10.33,12.41-21.57,24.03-34.99,33.06
		c-5.82,3.91-12.8,7.55-19.56,8.23c-7.88,0.79-15.99-2.05-22.29-7.95c-5.54-5.18-10.29-10.72-11.82-18.57
		c-0.92-4.72-4.32-5.33-8.06-1.94c-5.87,5.33-11.29,11.31-17.75,15.79c-7.17,4.96-14.9,10.12-23.13,12.17
		c-5.67,1.41-12.98-1.46-18.92-3.94c-9.03-3.77-13.89-11.76-16.05-21.01c-1.54-6.57-1.71-13.46-3.11-20.07
		c-0.76-3.57-1.86-8.17-4.44-10.05c-12.04-8.75-15.51-21.17-16.26-34.81c-1.02-18.63,4.26-35.82,13.31-51.91
		c5.52-9.83,10.64-20.01,17.26-29.06c10.07-13.76,21.2-26.75,32.06-39.91c5.48-6.64,11.3-13,17.07-19.4
		c3.67-4.07,7.36-8.13,11.31-11.91c17.13-16.43,34.23-32.88,51.58-49.07c11.53-10.76,23-21.69,35.37-31.42
		c14.67-11.54,29.53-23.19,47.79-28.94c12.47-3.92,25.41-4.59,38.03-2.21c8.21,1.55,14.84,6.88,18.22,15.45
		c3.91,9.93,5.83,20.21,5.41,30.73c-0.62,15.39-1.92,30.77-3.12,46.13c-0.81,10.43-1.9,20.84-2.91,31.26
		c-1.54,15.86-2.84,31.75-4.75,47.56c-1.94,16.14-4.83,32.16-6.66,48.31c-1.59,14.02-2.27,28.14-3.41,42.21
		c-0.23,2.88-0.67,5.73-1.01,8.6C507.79,271.93,508.5,272.21,509.21,272.5z M291.28,284.39c8.45-4.34,24.71-37.7,21.81-44.74
		C305.4,243.56,289.47,276.25,291.28,284.39z M398.55,239.45c-8.12,2.62-24.19,37.14-21.09,45.3
		C384.61,279.91,400.14,246.55,398.55,239.45z"/>
	<path class="st0" d="M183.04,272.63c0.82-1.09,1.79-2.1,2.42-3.29c10.58-20.12,20.99-40.33,31.71-60.38
		c13.62-25.46,27.5-50.78,41.23-76.18c9.63-17.81,18.93-35.82,28.9-53.44c11.6-20.5,23.74-40.69,35.71-60.97
		c2.1-3.55,4.32-7.07,6.87-10.3c2.52-3.17,6.08-3.7,9.34-1.3c3.12,2.3,5.93,5.22,3.99,9.71c-2.57,5.93-5.14,11.87-7.96,17.68
		c-6.96,14.35-13.97,28.68-21.11,42.95c-15.9,31.79-31.94,63.52-47.83,95.32c-9.42,18.85-18.63,37.8-28.01,56.67
		c-6.58,13.24-13.42,26.35-19.92,39.63c-6.34,12.95-12.2,26.14-18.64,39.04c-6.66,13.35-13.53,26.62-20.77,39.67
		c-4.15,7.47-17.79,8.81-26.1,3.2c-4.51-3.05-7.77-6.89-7.64-12.64c0.39-18.11,0.02-36.29,1.52-54.31
		c2.22-26.64,5.89-53.15,8.76-79.74c2.65-24.59,5.2-49.19,7.51-73.8c1.77-18.84,3.07-37.72,4.67-56.57
		c0.5-5.93,1.44-11.83,1.89-17.76c0.52-6.93-0.46-13.62-7.24-17.32c-6.92-3.78-13.52-0.33-19.32,2.9
		c-11.73,6.51-22.2,14.89-31.83,24.26c-11.3,11-22.93,21.69-33.85,33.06c-14.08,14.66-26.11,31.01-36.41,48.5
		c-7.9,13.42-15.7,26.98-19.15,42.48c-1.53,6.87-1.88,13.62,1.5,19.91c5.09,9.47,14.36,12.8,24.08,13.58
		c7.12,0.57,14.42-1.51,21.67-1.94c5.25-0.32,10.63-0.42,15.76,0.49c2.08,0.37,4.77,3.54,5.07,5.72c0.25,1.78-2.33,4.36-4.2,5.95
		c-6.36,5.41-14.28,5.85-22.1,5.94c-9.48,0.12-18.98,0.02-28.46-0.32c-21.66-0.79-34.14-15.91-34.93-35.97
		c-0.32-8.28-0.15-16.62,0.4-24.9c0.84-12.62,6.63-23.88,12.73-34.35c10-17.16,21.15-33.75,33.05-49.66
		c8.3-11.11,18.38-20.95,28.16-30.87c9.88-10.03,19.75-20.26,30.77-28.95c11.79-9.29,24.76-17.13,37.53-25.11
		c9.86-6.16,20.68-9.47,32.6-8.94c10.21,0.46,14.94,3.38,18.55,12.83c3.59,9.4,5.82,19.04,5.58,29.2
		c-0.46,19.27-0.31,38.56-1.3,57.8c-0.95,18.39-2.91,36.73-4.65,55.07c-1.5,15.85-3.17,31.69-5,47.51
		c-1.83,15.83-4.12,31.6-5.86,47.44c-0.8,7.31-0.78,14.7-1.13,22.06C182.08,272.34,182.56,272.49,183.04,272.63z"/>
	<path class="st0" d="M557.59,302.98c1.64-26.59,7.95-49.19,21.17-69.62c3.13-4.84,6.46-9.71,10.5-13.77
		c7.45-7.49,15.99-13.23,27.32-13.05c9.2,0.14,16.49,5.49,18.03,14.62c2.04,12.07,2.45,24-4.15,35.28
		c-6.77,11.57-11.58,24.29-21.04,34.24c-7.03,7.38-14.42,14.13-24.12,17.93c-1.49,0.58-3.01,2.2-3.63,3.71
		c-2.44,5.93,1.39,21.24,10.22,24.81c5.56,2.25,9.4-1.63,13.1-4.15c8.88-6.05,17.68-12.37,25.64-19.54
		c6.44-5.8,11.7-12.5,12.81-22.2c2.97-26.08,12.21-49.94,29.01-70.37c7.33-8.92,17.06-13.81,28.97-14.36
		c7.77-0.36,17.44,7.31,17.95,15.88c0.91,15.27-0.38,29.31-8.63,43c-6.54,10.84-11.99,22.33-21.66,30.72
		c-5.27,4.58-11.53,8.16-17.71,11.51c-3.32,1.8-5.7,3.47-5,7.45c0.8,4.56,1.4,9.23,2.89,13.59c2.28,6.68,8.33,9.85,14.74,6.82
		c7.43-3.51,14.79-7.74,21.04-13.01c7.54-6.36,13.71-14.31,20.85-21.18c1.56-1.5,5.22-2.46,7-1.66c1.75,0.79,3.07,4.06,3.32,6.38
		c0.73,6.8-4.31,11.04-8.43,15.12c-8.94,8.86-17.88,17.9-27.91,25.4c-6.16,4.61-14.24,8.76-21.65,9.11
		c-10.76,0.51-20.8-4.4-27.05-14.2c-2.38-3.73-4.32-7.84-5.82-12.01c-1.78-4.93-3.9-5.96-7.85-2.45c-4.83,4.3-9.1,9.23-14.01,13.44
		c-8.13,6.97-17.5,12.09-27.69,15.18c-6.77,2.05-13.3-1.21-18.9-4.51c-9.26-5.46-15.23-13.73-16.55-24.78
		C559.33,317.76,558.33,309.21,557.59,302.98z M608.54,239.29c-7.11,3.39-22.45,37.56-21.46,45.63
		C595.34,281.01,611.85,245.9,608.54,239.29z M695.43,239.21c-9.49,4.47-25.71,38.36-22.49,46.59
		C683.2,271.58,692.11,257.32,695.43,239.21z"/>
</g>
<g>
	<path class="st0" d="M63.98,432.51c1.32-4,2.33-8.13,4.01-11.97c5.06-11.62,16.59-21.5,31.69-20.56
		c9.05,0.56,14.2,8.08,10.83,16.41c-1.32,3.27-6.3,4.57-9.04,2.31c-1.32-1.09-1.86-2.26-0.7-4.03c0.95-1.45,1.92-3.35,1.76-4.93
		c-0.2-2-1.08-4.49-2.55-5.6c-0.98-0.74-3.91,0.05-5.28,1.07c-4.55,3.41-6.98,8.45-8.79,13.64c-3.3,9.46-5.69,19.14-3,29.2
		c2.05,7.67,4.96,14.93,12.64,18.9c3.49,1.81,7.01,1.71,10.08-0.84c7.37-6.13,12.33-14.1,16.7-22.46c0.36-0.69,0.54-1.5,0.98-2.13
		c1.51-2.13,1.14-3.57-0.98-5.25c-3.45-2.72-4.19-7.02-2.31-10.54c1.49-2.79,6.15-4.75,9.74-3.7c1.06,0.31,2.41,1.84,2.48,2.88
		c0.14,2.16-0.45,4.38-0.82,6.57c-0.22,1.26-0.6,2.49-1.07,4.36c3.01-0.56,5.38-0.99,7.74-1.45c0.55-0.11,1.07-0.33,1.62-0.46
		c6.78-1.55,8.31-0.02,7.54,6.82c-1.03,9.09-1.85,18.22-2.56,27.34c-0.19,2.48-0.49,5.94,2.42,6.62c1.54,0.36,4.19-1.81,5.6-3.46
		c6.47-7.59,11.99-15.69,15.5-25.25c2.94-7.99,8.08-14.57,17.75-15.38c4.09-0.34,7.64,0.61,9.72,4.48c2.01,3.74,1.7,7.63-1.12,10.59
		c-2.63,2.76-5.89,5.05-9.2,7.01c-1.9,1.13-3.04,2.05-2.63,4.31c0.89,4.91,1.46,9.89,2.69,14.71c0.79,3.09,3.39,4.23,6.04,2.41
		c3.62-2.5,7.17-5.45,9.83-8.91c3.72-4.85,6.52-10.4,9.83-15.57c2.34-3.66,4.52-7.51,7.4-10.71c5.3-5.87,12.19-6.53,19.5-4.57
		c1.97,0.53,3.33,1.2,4.97-1.29c1.71-2.6,4.95-1.56,7.37-0.3c2.42,1.26,3.14,3.7,2.01,6.06c-5.48,11.47-6.14,23.89-7.38,36.19
		c-0.21,2.06,0.26,4.24,0.73,6.29c0.67,2.9,2.21,3.46,4.17,1.21c2.99-3.45,5.59-7.25,8.21-11c1.53-2.19,2.64-4.68,4.17-6.87
		c5.37-7.71,6.85-16.57,8.01-25.58c0.56-4.31,1.52-8.57,2.39-12.84c0.56-2.72,0.09-4.45-3.24-4.05c-0.77,0.09-1.65,0.13-2.33-0.15
		c-0.6-0.25-1.17-0.93-1.38-1.54c-0.09-0.25,0.75-0.97,1.29-1.23c0.47-0.23,1.1-0.13,1.66-0.16c5.76-0.29,5.97-0.5,6.48-6.37
		c0.38-4.31,1.32-5.38,4.37-4.95c4.34,0.6,6.97,3.46,6.4,6.95c-0.77,4.75-0.39,5.1,4.64,4.81c0.89-0.05,1.82,0.62,2.74,0.96
		c-0.86,0.66-1.64,1.52-2.6,1.92c-0.77,0.32-1.78,0.16-2.67,0.08c-2.41-0.23-3.56,0.95-3.78,3.22c-1.35,13.77-2.76,27.54-3.96,41.33
		c-0.17,1.91,0.48,3.98,1.11,5.86c1.08,3.21,3.39,3.91,5.85,1.51c2.38-2.31,4.52-4.97,6.3-7.77c2.87-4.53,6.06-9.06,7.79-14.05
		c1.62-4.67,1.49-9.94,2.2-14.93c0.13-0.89,0.51-2.45,0.9-2.49c2.68-0.28,5.54-0.78,8.07-0.14c2.55,0.65,3.07,3.37,2.8,5.86
		c-0.47,4.33-1.26,8.64-1.6,12.98c-0.36,4.66-0.67,9.36-0.41,14.02c0.22,3.87,2.53,4.8,5.8,2.64c5.6-3.7,8.88-9.37,12.07-15.02
		c0.43-0.76-0.09-2.15-0.36-3.2c-1.41-5.5-3.01-10.95-4.29-16.48c-0.81-3.51,0.32-5.59,3.82-6.15c2.49-0.4,5.21,0.32,7.77,0.85
		c0.66,0.14,1.36,1.41,1.55,2.28c0.95,4.31,1.13,8.89,2.71,12.94c2.63,6.74,6.09,13.15,9.27,19.67c0.41,0.85,1.17,1.53,1.79,2.31
		c3.54-3.25,3.96-7.21,1.69-10.79c-4.02-6.35-4.66-13.2-2.17-20.24c1.27-3.59,5.43-5.12,10.32-4.21c3.22,0.6,5.64,3.35,5.33,7.08
		c-0.37,4.52-1.31,8.99-2.12,13.47c-0.29,1.61-0.88,3.17-1.35,4.78c4.66,0.73,10.89-3.52,12.42-8.5c1.83-5.93,4.59-11.29,9.75-14.88
		c2.48-1.72,5.53-3.02,8.5-3.55c5.19-0.92,9.03,1.1,10.52,4.64c1.71,4.07,0.55,9.55-3.12,12.52c-2.31,1.87-5.19,3.03-7.59,4.82
		c-1.16,0.86-2.63,2.5-2.51,3.65c0.47,4.75,1.1,9.55,2.41,14.12c1.42,4.92,5.17,5.92,8.97,2.39c3.67-3.41,6.99-7.27,10.02-11.26
		c2.48-3.28,4.24-7.1,6.48-10.56c0.51-0.79,1.73-1.12,2.63-1.66c0.19,0.75,0.79,1.7,0.52,2.22c-5.01,9.69-10.54,18.93-20.06,25.12
		c-13.21,8.58-28.14-0.94-27.76-15.18c0.03-1.16-0.25-2.33-0.37-3.43c-4.05,0.92-7.75,1.6-11.33,2.67c-0.93,0.28-1.62,1.72-2.2,2.74
		c-2.28,3.97-4.41,8.02-6.75,11.96c-0.51,0.85-1.7,1.92-2.5,1.87c-4.44-0.3-9.19-0.24-11.98-4.65c-2.15-3.39-4.05-6.94-6.06-10.42
		c-0.53-0.92-1.06-1.84-1.76-3.05c-2.99,3.77-5.33,7.5-8.44,10.43c-3.11,2.94-6.73,5.63-10.58,7.47c-5.96,2.84-11.66-0.6-12.68-7.05
		c-0.39-2.52-0.63-5.06-1.02-8.34c-2.1,2.98-3.65,5.63-5.64,7.91c-2.86,3.27-5.7,6.69-9.14,9.27c-7.78,5.85-15.76,2.24-17.12-7.39
		c-0.38-2.7-0.86-5.38-1.33-8.32c-3.75,5.76-7.13,11.21-10.81,16.47c-1.52,2.17-3.49,4.12-5.57,5.78
		c-6.13,4.89-13.82,2.88-16.07-4.65c-1.34-4.49-1.13-9.45-1.56-14.2c-0.11-1.25-0.02-2.52-0.02-3.83c-3.04,3.07-5.63,6.1-8.64,8.65
		c-5.18,4.4-15.76,2.41-16.56-7.15c-0.02-0.29-0.25-0.55-0.61-1.29c-1.24,1.42-2.19,2.75-3.38,3.83c-4.1,3.74-7.85,8.09-12.53,10.92
		c-11.34,6.88-24.71-2.05-25.41-12.19c-0.1-1.4-0.83-2.75-1.42-4.61c-2.12,2.89-3.87,5.54-5.9,7.95c-2.08,2.48-4.46,4.7-6.67,7.07
		c-6.74,7.22-20.37,3.53-22.12-8.31c-1.01-6.84,0.04-13.98,0.24-20.99c0.04-1.44,0.66-2.86,0.66-4.29c0-0.97-0.59-1.94-0.92-2.91
		c-0.95,0.57-2.29,0.91-2.79,1.75c-2.02,3.34-3.73,6.86-5.65,10.26c-2.64,4.67-5.53,9.2-8.03,13.93
		c-7.22,13.63-31.8,17.24-42.61-0.89c-2.85-4.78-3.92-10.6-5.81-15.95c-0.4-1.14-0.83-2.28-1.24-3.41
		C63.98,441.02,63.98,436.77,63.98,432.51z M221.61,460.38c0.67,1.15,1.24,3.41,2.43,3.8c1.07,0.36,3.47-0.95,4.18-2.17
		c4.04-6.91,7.84-13.96,11.5-21.08c1.07-2.09-0.22-3.19-2.48-2.79c-1.08,0.19-2.23,0.49-3.15,1.05
		C226.4,443.9,223.45,451.41,221.61,460.38z M393.92,451.15c4.61-2.68,7.91-5.34,8.8-9.82c0.27-1.37-0.53-3.19-1.4-4.41
		c-0.29-0.4-2.81,0-3.47,0.76C394.74,441.26,393.71,445.58,393.92,451.15z M192.38,439.28c-0.29-0.46-0.76-2.09-1.68-2.42
		c-0.93-0.33-3.02,0.32-3.39,1.1c-1.64,3.47-2.88,7.14-4.1,10.78c-0.07,0.2,1.39,1.37,1.92,1.23
		C188.18,449.22,192.29,443.44,192.38,439.28z M358.43,451.27c3.03-3.55,3.53-7.22,1.48-9.81
		C359.36,445.11,358.89,448.19,358.43,451.27z"/>
	<path class="st0" d="M573.82,478.79c2.1-1.84,3.61-2.73,4.5-4.03c3.36-4.87,7-9.65,9.59-14.92c1.98-4.02,2.35-8.79,3.8-13.1
		c0.81-2.39,2.2-4.65,3.62-6.77c4.31-6.4,10.6-7.26,17.58-5.85c1.52,0.31,3.01,0.73,5.1,1.24c0.52-2.88,1.08-5.45,1.43-8.05
		c0.69-5.2,1.24-10.43,1.9-15.63c0.36-2.83,1.49-6.07,4.61-5.49c2.9,0.54,5.44,3.07,8.05,4.85c0.25,0.17-0.01,1.26-0.19,1.87
		c-3.82,13.37-5.98,27.03-7.11,40.85c-0.55,6.67-0.97,13.35-1.16,20.03c-0.06,2.28,0.59,4.63,1.22,6.86c0.84,3,2.79,3.64,4.85,1.28
		c3.89-4.46,7.55-9.14,10.93-13.99c3-4.3,6.21-8.69,8-13.53c1.86-5.01,2.56-10.57,2.88-15.95c0.16-2.61,0.76-3.64,3.05-4.14
		c5.28-1.15,8.59,1.47,8.15,6.86c-0.55,6.66-1.64,13.28-2.17,19.95c-0.22,2.72,0.12,5.58,0.76,8.24c0.65,2.72,2.73,3.5,4.86,1.73
		c7.12-5.9,13.56-12.29,14.51-22.3c0.88-9.28,5.83-15.75,14.4-19.44c3.98-1.71,6.58-0.96,9.69,2.17c0.7,0.71,2.22,0.85,3.36,0.85
		c6.57,0.02,10.22,2.57,11.29,9.02c0.74,4.45,0.7,9.06,0.65,13.6c-0.03,2.87,0.88,3.93,3.5,2.56c2.54-1.34,4.75-3.3,7.14-4.94
		c1.08-0.74,2.24-1.35,3.68-1.58c-1.42,4.25-4.43,7.14-8.35,8.27c-4.73,1.36-7.69,3.46-9.6,8.37c-2.36,6.05-7.12,10.39-14.31,10.49
		c-8.04,0.11-13.89-3.81-17.94-10.5c-1.36-2.24-2.24-4.78-3.6-7.76c-1.85,2.42-3.23,4.71-5.08,6.52c-3.49,3.41-6.88,7.14-10.99,9.65
		c-8,4.89-14.65,1.05-15.38-8.31c-0.13-1.72-0.32-3.43-0.56-6.1c-1.46,2.2-2.34,3.69-3.38,5.07c-4.09,5.43-7.98,11.06-12.46,16.16
		c-2.89,3.29-6.68,5.92-11.62,3.86c-5.23-2.18-6.97-6.76-7.39-11.82c-0.35-4.29-0.07-8.64-0.78-13.14c-0.31,0.46-0.7,0.88-0.92,1.37
		c-2,4.48-4.5,8.48-9.24,10.62c-4.87,2.21-12.9,0.66-14.9-5.63c-0.23-0.71-0.73-1.33-1.18-2.12c-3.18,3.9-6.2,7.67-9.29,11.38
		c-2.59,3.1-5.76,4.71-9.81,3.05c-3.94-1.62-5.74-4.79-6.01-8.93c-0.12-1.85-0.2-3.7-0.98-5.84c-0.69,0.91-1.4,1.8-2.05,2.73
		c-2.12,3.02-4.72,5.38-8.46,6.22c-5.49,1.24-10.21-1.63-12.22-7.43c-0.49-1.42-1.03-2.82-1.54-4.21
		c-4.05,4.79-7.7,9.41-11.68,13.72c-2.89,3.13-6.57,5.12-11.05,4.83c-4.51-0.3-7.67-3.73-8.66-8.49
		c-2.08-9.96-0.63-19.81,0.74-29.65c0.82-5.86,1.9-11.7,3.08-17.5c0.62-3.02-0.31-4.26-3.37-3.97c-0.56,0.05-1.21,0.2-1.66-0.01
		c-0.7-0.34-1.26-0.95-1.88-1.45c0.57-0.44,1.08-0.99,1.71-1.27c0.47-0.21,1.11-0.06,1.67-0.08c4.74-0.1,5.53-0.85,5.86-5.61
		c0.33-4.76,1.22-6.24,3.95-5.73c5.14,0.96,7.48,2.85,6.82,7.27c-0.66,4.43-0.14,4.83,4.32,4.56c1.04-0.06,2.09-0.01,3.36-0.01
		c-0.47,3.39-2.76,2.9-4.42,2.69c-3.6-0.46-4.85,1.43-5.21,4.5c-1.32,11.19-2.85,22.37-3.83,33.59c-0.35,4.03,0.26,8.26,1.1,12.25
		c0.76,3.62,4.08,4.58,6.21,1.66c4.65-6.37,9.75-12.78,12.59-19.99c2.23-5.67,1.42-12.55,1.83-18.9c0.28-4.4,0.79-4.97,5.26-4.9
		c5.07,0.09,7.22,1.64,6.94,5.53c-0.58,7.91-1.45,15.8-2.15,23.7c-0.17,1.89-0.47,3.87-0.08,5.67c0.34,1.59,1.23,3.64,2.49,4.27
		c0.99,0.49,3.28-0.49,4.35-1.5c5.26-4.94,7.19-11.44,7.85-18.37c0.36-3.78,0.24-7.61,0.66-11.37c0.13-1.17,1.09-2.77,2.1-3.21
		c2.7-1.2,5.66-1,7.86,1.08c0.86,0.82,1.35,2.8,1.02,3.98c-2.94,10.64-4.07,21.47-3.75,32.47
		C572.35,474.48,573.12,476.13,573.82,478.79z M704.62,433.54c-4.43-0.79-7.78,1.27-9.76,5.92c-2.16,5.09-2.23,10.41-1.24,15.73
		c1.13,6.05,2.75,11.98,6.65,16.91c0.92,1.16,2.81,2.48,4.04,2.29c4.06-0.61,4.72-4.51,5.56-7.56c0.72-2.62,2.82-5.62-0.18-8.35
		C700.91,450.46,699.55,443.93,704.62,433.54z M602.61,459.65c0,0.78-0.28,1.72,0.06,2.31c0.83,1.45,1.71,3.25,3.05,3.9
		c0.79,0.38,2.65-1.02,3.78-1.93c0.82-0.66,1.48-1.75,1.8-2.78c1.89-6.04,3.78-12.09,5.38-18.21c0.33-1.25-0.59-2.82-0.93-4.25
		c-1.5,0.52-3.35,0.65-4.43,1.63C605.61,445.45,603.72,452.4,602.61,459.65z M709.51,436.59c-1.72,3.89-1.06,10.38,1.45,15.48
		C712.95,448.58,712.25,439.76,709.51,436.59z"/>
	<path class="st0" d="M476.92,476.81c-2.89-0.65-8.23-1.22-13.08-3.08c-7.49-2.87-10.28-9.54-11.38-16.95
		c-0.31-2.08-0.24-4.25-0.14-6.37c0.19-4.02,4.22-6.83,8.1-5.79c1.76,0.48,2.76,1.64,1.58,3.17c-2.77,3.59-1.72,6.93,0.28,10.24
		c2.44,4.03,5.92,6.68,10.7,7.35c1.1,0.15,2.28,0.27,3.36,0.07c6.24-1.21,10.18-4.47,6.91-10.87c-3.59-7.02-8.08-13.6-12.29-20.3
		c-4.03-6.42-8.7-12.47-10.2-20.2c-1.26-6.49,1.73-12.12,7.92-14.46c5.87-2.22,11.36-1.34,16.58,1.88c3.19,1.97,4.85,4.81,4.8,8.65
		c-0.03,2.14-0.75,3.52-3.04,3.51c-2.21-0.01-3.17-1.2-3.16-3.43c0.02-2.99-1.31-5.12-4.3-6.08c-2.84-0.92-5.65-0.67-7.25,1.83
		c-1.12,1.75-2.21,4.78-1.43,6.26c2.9,5.48,6.33,10.73,10.02,15.73c4.84,6.56,10.36,12.62,15.14,19.22
		c4.8,6.63,4.6,14.04,0.82,20.94C493.17,474.82,486.46,476.54,476.92,476.81z"/>
	<path class="st0" d="M310.8,412.89c1.32,0.64,3.1,0.97,3.92,2.04c1.04,1.36,2.14,3.65,1.63,4.9c-0.52,1.27-2.89,2.15-4.59,2.49
		c-1.42,0.28-3.21-0.16-4.54-0.85c-1.44-0.74-3.4-2.03-3.56-3.28c-0.15-1.19,1.53-2.9,2.79-3.88
		C307.5,413.5,309.11,413.4,310.8,412.89z"/>
	<path class="st0" d="M660.44,413.01c1.35,0.65,3.18,1.04,4.16,2.16c0.96,1.1,1.75,3.15,1.36,4.39c-0.38,1.19-2.31,2.49-3.67,2.62
		c-2.02,0.2-4.23-0.33-6.16-1.06c-1.13-0.43-2.6-1.87-2.6-2.86c0-1.24,1.1-2.81,2.18-3.62C656.88,413.76,658.59,413.6,660.44,413.01
		z"/>
</g>
</svg>
