<?xml version="1.0" encoding="utf-8"?>
<!-- Generator: Adobe Illustrator 26.3.1, SVG Export Plug-In . SVG Version: 6.00 Build 0)  -->
<svg version="1.1" id="Layer_5" xmlns="http://www.w3.org/2000/svg" xmlns:xlink="http://www.w3.org/1999/xlink" x="0px" y="0px"
	 viewBox="0 0 500 500" style="enable-background:new 0 0 500 500;" xml:space="preserve">
<style type="text/css">
	.st0{fill:none;stroke:#000000;stroke-width:1.8597;stroke-miterlimit:10;}
</style>
<line class="st0" x1="12.22" y1="12.22" x2="12.22" y2="487.78"/>
<line class="st0" x1="65.06" y1="12.22" x2="65.06" y2="487.78"/>
<line class="st0" x1="117.9" y1="12.22" x2="117.9" y2="487.78"/>
<line class="st0" x1="170.74" y1="12.22" x2="170.74" y2="487.78"/>
<line class="st0" x1="223.58" y1="12.22" x2="223.58" y2="487.78"/>
<line class="st0" x1="276.42" y1="12.22" x2="276.42" y2="487.78"/>
<line class="st0" x1="329.26" y1="12.22" x2="329.26" y2="487.78"/>
<line class="st0" x1="382.1" y1="12.22" x2="382.1" y2="487.78"/>
<line class="st0" x1="434.94" y1="12.22" x2="434.94" y2="487.78"/>
<line class="st0" x1="487.78" y1="12.22" x2="487.78" y2="487.78"/>
<line class="st0" x1="487.78" y1="12.22" x2="12.22" y2="12.22"/>
<line class="st0" x1="487.78" y1="65.06" x2="12.22" y2="65.06"/>
<line class="st0" x1="487.78" y1="117.9" x2="12.22" y2="117.9"/>
<line class="st0" x1="487.78" y1="170.74" x2="12.22" y2="170.74"/>
<line class="st0" x1="487.78" y1="223.58" x2="12.22" y2="223.58"/>
<line class="st0" x1="487.78" y1="276.42" x2="12.22" y2="276.42"/>
<line class="st0" x1="487.78" y1="329.26" x2="12.22" y2="329.26"/>
<line class="st0" x1="487.78" y1="382.1" x2="12.22" y2="382.1"/>
<line class="st0" x1="487.78" y1="434.94" x2="12.22" y2="434.94"/>
<line class="st0" x1="487.78" y1="487.78" x2="12.22" y2="487.78"/>
</svg>
