<svg enable-background="new 0 0 800 800" viewBox="0 0 800 800" xmlns="http://www.w3.org/2000/svg"><path d="m0 0h800v800h-800z" fill="#f2f3f2" stroke="#000" stroke-miterlimit="10"/><path d="m436.5 389.7c.4 10.5 1.9 44 2.1 55.9-13.8-94.3-13.8-92-14.9-99.2-.4-3-9.1-1.7-15.6-.4-6 1.2-14.2 3-16.2 8.2-2.4 6.4-8.8 20.5-12.3 33.5 2.7 14.4 11.3 56.1 11.3 56.1.3 1.6-13.7-42.5-19.7-56.5-1.2-2.7-3.2-6-5.1-5.7-2.2.3-14.5 4.9-23.5 10.2-1.4.8-1.2 3.3-.5 4.6 8.2 18.2 19.2 47.8 19.9 50 .6 2 2.6 4.2 4.6 4.9 1.4.5 24.8 2.2 26.2-2.3 1.4-5.3 27.9-96 27.9-96s-13.7 77.3-13.7 77.5c.7 5.1 2.5 20.3 4.7 23.1 1.3 1.6 3.1 1.9 4.7 2s19 .1 21.5-.3c2-.4 3.1-1.5 4-5.2 6.5-25.9 10.6-33.7 17.6-55.1 1.9-5.2-6-6.3-11.9-7.7-5.6-1.3-11.2-2.9-11.1 2.4z" fill="#fff"/></svg>