<?xml version="1.0" encoding="utf-8"?>
<!-- Generator: Adobe Illustrator 22.1.0, SVG Export Plug-In . SVG Version: 6.00 Build 0)  -->
<svg version="1.1" id="Layer_1" xmlns="http://www.w3.org/2000/svg" xmlns:xlink="http://www.w3.org/1999/xlink" x="0px" y="0px"
	 viewBox="0 0 800 400" style="enable-background:new 0 0 800 400;" xml:space="preserve">
<style type="text/css">
	.st0{display:none;}
	.st1{display:inline;fill:#1A1A1A;}
	.st2{display:inline;fill:#FF0000;}
</style>
<g id="Layer_1_1_" class="st0">
	<path class="st1" d="M350.4,145l-25.6,111.7h15.5l6.7-30.8h23.6l6.6,30.8h15.7L368.8,145H350.4L350.4,145z M348.9,213.4l5.4-26.7
		c1.5-7.1,3.2-17.4,4.4-25.5h0.7c1.2,8,2.7,17.9,4.2,25.5l5.2,26.7H348.9L348.9,213.4z M452,142h-15.8v41.9h-0.3
		c-2.9-6.1-8.1-9.1-14.6-9.1c-13,0-25.3,13.4-25.3,41.9c0,25,9.3,41.3,24.4,41.3c8.2,0,14.5-5.5,17.2-11.1h0.5l1,9.8h13.6
		c-0.3-5.6-0.7-14.6-0.7-20.7L452,142L452,142z M436.2,228.3c0,1.8-0.2,3.8-0.5,5.1c-2.7,9.6-7.4,11.4-10.9,11.4
		c-8.4,0-12.8-11.6-12.8-28.2c0-14.9,3.4-28.5,13.3-28.5c5.7,0,9.9,6.3,10.8,13.6c0.2,1.7,0.2,3.5,0.2,5L436.2,228.3L436.2,228.3z
		 M490.5,174.8c-15,0-29,12.4-29,41.8c0,27.7,11.8,41.4,28.1,41.4h0.2c12.5,0,28.5-9.8,28.5-41.8
		C518.3,189.1,506.7,174.8,490.5,174.8L490.5,174.8z M490.2,245.7H490c-10.3,0-12.6-15.9-12.6-29.3c0-12.1,2-29.3,12.5-29.3
		c10.1,0,12.3,17.2,12.3,29.3C502.1,228.7,500,245.7,490.2,245.7L490.2,245.7z M561.2,174.8c-7.2,0-13,3.1-17.2,10.4h-0.3V142h-15.8
		v94c0,6.1-0.3,15.2-0.7,20.7h13.6l0.8-10.1h0.7c3.5,7.1,8.1,11.4,16.2,11.4c13.5,0,25.4-14.1,25.4-42.9
		C583.9,190.4,575.2,174.8,561.2,174.8L561.2,174.8z M555,244.9c-3.2,0-8.1-2-10.6-11.8c-0.5-1.3-0.7-3.1-0.7-5v-22.5
		c0-1.7,0.2-3.8,0.5-5.5c1.2-5.8,5.4-11.9,10.6-11.9c9.4,0,13.1,12.4,13.1,27.8C567.9,232.6,564.4,244.9,555,244.9L555,244.9z
		 M646,211.1c0-20.2-7.9-36.3-24.9-36.3s-29.3,16.2-29.3,42.6c0,24.9,10.8,40.1,31.3,40.1c7.2,0,14.6-1.3,19.5-3.8l-2.4-11.3
		c-3.5,1.7-8.4,3-14.1,3c-9.6,0-18.7-5.1-18.9-25.9l38.4,0.2C645.8,217.6,646,215.1,646,211.1L646,211.1z M607.4,208.5
		c0.5-10.1,4.2-21.9,12.5-21.9c6.2,0,11.3,7.6,11.1,21.9H607.4z"/>
	<path class="st2" d="M198.3,234.3l20.7-47.9l30.1,70.3h-19.7l-9-22.4L198.3,234.3L198.3,234.3z M155,145.3h47.3L155,256.7V145.3z
		 M282.9,256.7l-47.3-111.4h47.3V256.7z"/>
</g>
<g id="Layer_2_1_">
	<g>
		<g>
			<g>
				<path d="M178.3,183.8c11.4,3.2,17,9.1,17,17.7v38.9c0,15.3-7.8,23.1-23.5,23.1h-41.6V108.6h35.3c18.4,0,27.6,9.3,27.6,28.1v29.8
					c0,8.9-5,14.4-14.9,16.4L178.3,183.8L178.3,183.8z M150.9,173.9h9.7c8,0,11.8-3.8,11.8-11.3v-24.2c0-7.5-3.1-11.3-9.3-11.3
					h-12.3v46.7H150.9z M150.9,244.6h15.6c5.5,0,8.2-2.3,8.2-6.7v-34.3c0-7.3-4.1-11-12.3-11h-11.5L150.9,244.6L150.9,244.6z"/>
				<path d="M245.1,263.3h-20.7V135c0-17.7,8.3-26.5,24.8-26.5h15.6c16.5,0,24.8,8.9,24.8,26.5v128.3h-20.7v-56.7h-23.8L245.1,263.3
					L245.1,263.3z M268.8,187.9v-51.5c0-6-3.1-9.1-9.1-9.1h-5.6c-6,0-9.1,3.1-9.1,9.1V188h23.8V187.9z"/>
				<path d="M382.7,227.2v9.9c0,17.5-8.3,26.4-24.8,26.4h-13.4c-16.5,0-24.8-8.8-24.8-26.4V134.9c0-17.5,8.3-26.4,24.8-26.4h13.4
					c16.6,0,24.8,8.8,24.8,26.4v17.4H362v-15.9c0-6-3.1-9.1-9.3-9.1h-4.1c-5.5,0-8.2,3.1-8.2,9.1v99.2c0,6,2.7,9.1,8.2,9.1h5.2
					c5.5,0,8.2-3.1,8.2-9.1v-8.4H382.7z"/>
				<path d="M431.5,263.3h-20.7V135c0-17.7,8.3-26.5,24.8-26.5h15.6c16.6,0,24.8,8.9,24.8,26.5v128.3h-20.7v-56.7h-23.8L431.5,263.3
					L431.5,263.3z M455.2,187.9v-51.5c0-6-3.1-9.1-9.1-9.1h-5.6c-6,0-9.1,3.1-9.1,9.1V188h23.8V187.9z"/>
				<path d="M507.2,108.6h40.6c15.8,0,23.8,8.9,23.8,26.5v38.2c0,13.5-4.1,22-12.3,25.7l14.4,64.4H554l-13.6-62.5h-12.5v62.5h-20.7
					L507.2,108.6L507.2,108.6z M527.8,183.1h13.6c6.1,0,9.3-3.8,9.3-11.3v-33.4c0-7.5-3.1-11.3-9.3-11.3h-13.6V183.1z"/>
				<path d="M625.6,263.3c-16.7,0-25-8.8-25-26.4V134.9c0-17.7,8.3-26.5,24.8-26.5h19.9c16.5,0,24.8,8.9,24.8,26.5V237
					c0,17.5-8.3,26.4-25,26.4H625.6z M630.6,244.6h10.6c5.5,0,8.2-3.1,8.2-9.1v-99.1c0-6-3.1-9.1-9.3-9.1h-9.7c-6,0-9.1,3.1-9.1,9.1
					v99.2C621.2,241.6,624.3,244.6,630.6,244.6z"/>
			</g>
			<rect x="230.3" y="83.7" width="53.9" height="14"/>
		</g>
	</g>
	<g>
		<path d="M289.6,297.7c1.8,0,3.3,0.5,4.4,1.5c1,1,1.6,2.4,1.6,4.1c0,1.8-0.6,3.2-1.7,4.1c-1.1,0.9-2.7,1.5-4.9,1.5h-10.7v6.9h-3
			v-18.1H289.6z M289.1,306.2c2.3,0,3.5-0.9,3.5-2.8c0-2-1.3-3-3.6-3h-10.6v5.8H289.1z"/>
		<path d="M315.6,315.7h-3v-18.1h3V315.7z"/>
		<path d="M352.8,315.7h-19.7V313l14.9-12.6h-14.7v-2.7h18.8v2.7L337.3,313h15.6L352.8,315.7L352.8,315.7z"/>
		<path d="M389.5,315.7h-19.7V313l14.9-12.6h-14.7v-2.7h18.8v2.7L374,313h15.6L389.5,315.7L389.5,315.7z"/>
		<path d="M425.8,315.7h-18.9v-18.1h18.2v2.7h-15.2v4.7h10.6v2.7h-10.6v5.3h15.9V315.7z"/>
		<path d="M464.2,315.7h-3.5l-4.9-6.9h-9.1v6.9h-3v-18.1h14.2c1.9,0,3.4,0.5,4.4,1.5c1,1,1.6,2.4,1.6,4.2c0,1.5-0.5,2.7-1.4,3.6
			c-0.8,0.9-1.9,1.4-3.4,1.7L464.2,315.7z M457.5,306.2c2.3,0,3.4-0.9,3.4-2.8c0-2-1.3-3-3.8-3h-10.6v5.8H457.5z"/>
		<path d="M485.3,315.7h-3v-18.1h3V315.7z"/>
		<path d="M524.8,315.7h-3.2l-2-4.1h-12.2l-2,4.1H502l9.5-18.1h3.8L524.8,315.7z M517.9,309l-4.5-8.8l-4.7,8.8H517.9z"/>
	</g>
</g>
</svg>
