<svg viewBox="0 0 540.2 232.6" xmlns="http://www.w3.org/2000/svg"><g fill="#b3b3b3"><path d="M48.4 100.1c11.4 3.2 17 9.1 17 17.7v38.9c0 15.3-7.8 23.1-23.5 23.1H.3V24.9h35.3c18.4 0 27.6 9.3 27.6 28.1v29.8c0 8.9-5 14.4-14.9 16.4zM21 90.2h9.7c8 0 11.8-3.8 11.8-11.3V54.7c0-7.5-3.1-11.3-9.3-11.3H20.9v46.7zm0 70.7h15.6c5.5 0 8.2-2.3 8.2-6.7v-34.3c0-7.3-4.1-11-12.3-11H21zm94.2 18.7H94.5V51.3c0-17.7 8.3-26.5 24.8-26.5h15.6c16.5 0 24.8 8.9 24.8 26.5v128.3H139v-56.7h-23.8zm23.7-75.4V52.7c0-6-3.1-9.1-9.1-9.1h-5.6c-6 0-9.1 3.1-9.1 9.1v51.6zm113.9 39.3v9.9c0 17.5-8.3 26.4-24.8 26.4h-13.4c-16.5 0-24.8-8.8-24.8-26.4V51.2c0-17.5 8.3-26.4 24.8-26.4H228c16.6 0 24.8 8.8 24.8 26.4v17.4h-20.7V52.7c0-6-3.1-9.1-9.3-9.1h-4.1c-5.5 0-8.2 3.1-8.2 9.1v99.2c0 6 2.7 9.1 8.2 9.1h5.2c5.5 0 8.2-3.1 8.2-9.1v-8.4zm48.8 36.1h-20.7V51.3c0-17.7 8.3-26.5 24.8-26.5h15.6c16.6 0 24.8 8.9 24.8 26.5v128.3h-20.7v-56.7h-23.8zm23.7-75.4V52.7c0-6-3.1-9.1-9.1-9.1h-5.6c-6 0-9.1 3.1-9.1 9.1v51.6zm52-79.3h40.6c15.8 0 23.8 8.9 23.8 26.5v38.2c0 13.5-4.1 22-12.3 25.7l14.4 64.4h-19.7l-13.6-62.5H398v62.5h-20.7zm20.6 74.5h13.6c6.1 0 9.3-3.8 9.3-11.3V54.7c0-7.5-3.1-11.3-9.3-11.3h-13.6zm97.8 80.2c-16.7 0-25-8.8-25-26.4v-102c0-17.7 8.3-26.5 24.8-26.5h19.9c16.5 0 24.8 8.9 24.8 26.5v102.1c0 17.5-8.3 26.4-25 26.4h-19.5zm5-18.7h10.6c5.5 0 8.2-3.1 8.2-9.1V52.7c0-6-3.1-9.1-9.3-9.1h-9.7c-6 0-9.1 3.1-9.1 9.1v99.2c-.1 6 3 9 9.3 9zM100.4 0h53.9v14h-53.9zm59.3 214c1.8 0 3.3.5 4.4 1.5 1 1 1.6 2.4 1.6 4.1 0 1.8-.6 3.2-1.7 4.1s-2.7 1.5-4.9 1.5h-10.7v6.9h-3V214zm-.5 8.5c2.3 0 3.5-.9 3.5-2.8 0-2-1.3-3-3.6-3h-10.6v5.8zm26.5 9.5h-3v-18.1h3zm37.2 0h-19.7v-2.7l14.9-12.6h-14.7V214h18.8v2.7l-14.8 12.6H223zm36.7 0h-19.7v-2.7l14.9-12.6h-14.7V214h18.8v2.7l-14.8 12.6h15.6zm36.3 0H277v-18.1h18.2v2.7H280v4.7h10.6v2.7H280v5.3h15.9zm38.4 0h-3.5l-4.9-6.9h-9.1v6.9h-3v-18.1H328c1.9 0 3.4.5 4.4 1.5s1.6 2.4 1.6 4.2c0 1.5-.5 2.7-1.4 3.6-.8.9-1.9 1.4-3.4 1.7zm-6.7-9.5c2.3 0 3.4-.9 3.4-2.8 0-2-1.3-3-3.8-3h-10.6v5.8zm27.8 9.5h-3v-18.1h3zm39.5 0h-3.2l-2-4.1h-12.2l-2 4.1h-3.4l9.5-18.1h3.8zm-6.9-6.7l-4.5-8.8-4.7 8.8z"/></g></svg>