<svg id="Layer_1" xmlns="http://www.w3.org/2000/svg" viewBox="0 0 558 225.4"><style>.st0{fill:#b3b3b3}</style><path class="st0" d="M143.2 141.9c-2.6-9.2-5.1-18.3-7.7-27.4-2.6-8.9-5-17.8-7.5-26.7-.1-.4-.1-.7-.6-.8-1.6-.2-3.1-.4-4.7-.5-2.3-.3-4.5-.5-6.8-.8 1.9-1.6 4-2.9 6-4.2 4.2-2.7 8.5-5.5 12.6-8.3.4-.3 1.1-.4.9-1.2-.5-2.6-1-5.2-1.4-7.9-.9-5.2-1.9-10.4-2.7-15.6-1.1-6-2-11.9-3.1-17.8-.9-5.3-1.9-10.7-2.7-16-.2-1-.5-1.5-1.6-1.9C110.7 8.7 97.5 4.5 84.4.4c-.9-.3-1.5 0-2.1.4C75.1 6 67.8 11.3 60.6 16.5c4.6.9 9.3 1.7 13.9 2.5 7.3 1.2 14.6 2.6 21.9 3.9 5.6 1.1 11.3 2 16.9 3 .8.2 1.2.4 1.4 1.3 1.1 6.4 2.2 12.9 3.4 19.3 1.1 5.6 2 11 3.1 16.6.4 1.6.6 3.2.9 4.8.2.9 0 1.4-.8 1.9-9.3 6.3-18.4 12.5-27.7 18.9-2.7 1.9-5.5 3.9-8.2 5.7-.3.2-.4.4-.7.8 3.2.2 6.3.3 9.4.4 4.8.2 9.4.4 14.1.5 3.2.2 6.3.4 9.4.4.6.1.9.3 1.1.9 3.4 12.5 7 25 10.4 37.4 2.2 7.9 4.4 16 6.7 23.9.2.7.2 1.2-.4 1.9-7.9 8-15.7 16.1-23.5 24.1-7.9 8.2-15.8 16.3-23.6 24.4-3.1 3.3-6.3 6.5-9.4 9.8-.3.3-.5.5-1.1 1 .6-5.2 1.2-10.1 1.8-15 .3-1.9.4-3.6.6-5.4.1-.9 0-1.1-1.1-.9-9.4 2.6-18.9 5.4-28.3 8-2.6.7-5.1 1.3-7.6 2.1-.7.2-.9.1-1-.6-.4-3.2-.9-6.4-1.3-9.5-.7-5.2-1.6-10.3-2.3-15.5-.7-4.6-1.2-9.3-1.9-13.9-.7-5.4-1.4-10.8-2.3-16.1-.9-5.2-1.4-10.5-2.2-15.8-1.1-7.1-1.9-14.4-3.1-21.5-1-5.9-1.7-11.7-2.5-17.6-1.1-7.9-2.2-15.6-3.4-23.4-.7-4.6-1.3-9.3-1.9-13.9-.7-4.7-1.5-9.3-2-13.9-.5-4.8-1.3-9.4-1.9-14.1-.2-1.6-.4-3.1-.7-4.7-.1-.7-.2-1.1.9-.9 12.2 2.3 24.3 4.6 36.4 6.9.4.1.7.1 1.1.1 1.9-5.6 3.7-11.1 5.6-16.7.1-.4.3-.7.1-1.1-.9.2-1.8-.2-2.8-.1-6.7-.4-13.3-.8-20-1.1-5.2-.2-10.3-.5-15.5-.8-4.5-.3-9-.3-13.5-.6-1.8-.2-3.7 0-5.5-.4-1.1-.3-1.1 0-1.1.9.2 1.5.3 3 .5 4.4.8 4.1 1.2 8.4 1.9 12.6.5 3.4 1 6.7 1.4 10.1.5 4.2 1.1 8.4 1.8 12.6.7 4.7 1.2 9.3 1.9 13.9.7 4.9 1.3 9.8 2 14.6.5 3.4.9 6.9 1.4 10.2.6 4.2 1.1 8.4 1.8 12.6.5 3.4.9 6.9 1.4 10.2.6 4.1 1.1 8.3 1.8 12.4.5 3.4.9 6.9 1.4 10.3.6 4.1 1.1 8.1 1.8 12.2.5 3.4.9 6.9 1.4 10.3.7 4.2 1.1 8.6 1.9 12.8.5 3.4.9 6.7 1.4 10.1.6 4.1 1.1 8.4 1.8 12.5.5 3.4.9 6.9 1.4 10.2 1 5.9 1.6 11.9 2.6 17.8.1.8.3 1 1.1 1 2.4-.1 4.7-.5 7.1-.8 4.7-.5 9.3-1.1 13.9-1.6 3.9-.4 7.8-1 11.6-1.5 4-.5 7.9-.7 11.8-1.6 5.1-1.1 10.1-2.8 15.1-4.3 10.2-3 20.4-6.2 30.6-9.3.8-.3 1.3-.6 1.7-1.3 1.1-2.1 2.4-4.3 3.5-6.4 3.2-6 6.4-11.9 9.7-17.9 3.5-6.4 7-12.7 10.5-19.1.4-.7.4-1.3.2-2-2.2-5.6-3.9-11.6-5.6-17.5z"/><path class="st0" d="M74.3 107.7c.1.4.3.9.2 1.5.6 9.4 1.1 18.6 1.7 28 .7 12.4 1.5 24.9 2.3 37.3.5 7.6 1 15.3 1.4 22.9.1.3-.1.5.2.6.3.2.4-.1.6-.3 1.3-1.4 2.7-2.7 4.1-4.1l10.6-10.3c3.6-3.4 7-7 10.6-10.3 5.1-4.9 10.1-9.8 15.2-14.7.5-.5.6-1.1.4-1.8-1.6-5.4-3.1-10.9-4.6-16.2-1.6-5.6-3.2-11.2-4.8-16.9-1.1-4.4-2.4-8.8-3.5-13.2-.3-.8-.5-1.3-1.5-1.3-1.9 0-4-.1-5.9-.2-4.5-.3-9-.3-13.5-.5-3.7-.2-7.5-.2-11.2-.3-.8 0-1.6 0-2.3-.2z"/><path class="st0" d="M54.8 35C59.9 52.9 65 70.9 70.2 88.9c-.2.4-.6.6-1 .8l-23.1 15.9c-.4.3-.8.4-1.1 1 5.7.3 11.5.5 17.1.7 4.1.1 8.1.4 12.2.4 0-.3.1-.6 0-.9-.9-3.9-1.8-7.8-2.6-11.6-.5-2-1.2-4.1-1.3-6.2h.2c.3-.1.5-.2.7-.4l17.4-12c6.3-4.2 12.5-8.6 18.8-12.8.4-.4.9-.6.8-1.2-.4-1.6-.6-3.2-.9-4.8-1.1-6.5-2.4-13.1-3.5-19.7-.2-.8-.5-.9-1.1-.9-2.6-.1-5.2-.3-7.8-.4-4.6-.3-9.1-.5-13.7-.8-4.2-.3-8.4-.5-12.6-.8-4.6-.3-9.2-.5-13.8-.8-.1.1-.2.4-.1.6z"/><g><path class="st0" d="M333.3 89.6V61.7c-1.1-.7-2.2-1.3-3.5-1.7s-2.6-.6-3.9-.6-2.6.2-3.9.6c-1.3.4-2.4.9-3.5 1.7v27.9h5.9V78h2.8v11.6h6.1zm-8.6-16.2V64c0-.2 0-.4.4-.4h1.8c.2 0 .4.2.4.4h.2v9.4h-2.8zm-42.3 16.2V65.5l.6-.4h3.1V60h-13.6v5.1h3.3l.6.4v24.1h6zm-42.2-24.5V60h-11.6v29.6h11.6v-5.2h-5.7v-7.2h5.1v-4.6h-5.1v-7.5h5.7zM454.9 60H449v29.6h11.2v-5.2h-5.3V60zm100.7 12.3V61.8c-1.1-.7-2.2-1.3-3.5-1.7s-2.6-.6-3.9-.6-2.6.2-3.9.6-2.4.9-3.5 1.7v26.1c1.1.7 2.2 1.3 3.5 1.7s2.6.6 3.9.6 2.6-.2 3.9-.6 2.4-.9 3.5-1.7V77.4h-5.9v8.3c0 .2 0 .4-.4.4h-1.8c-.2 0-.4-.2-.4-.4V64.2c0-.2 0-.4.4-.4h1.8c.2 0 .4.2.4.4v8.1h5.9zm-55.1-12.7c-1.3 0-2.6.2-3.9.6s-2.4.9-3.5 1.7V88c1.1.7 2.2 1.3 3.5 1.7s2.6.6 3.9.6 2.6-.2 3.9-.6 2.4-.9 3.5-1.7V61.9c-1.1-.7-2.2-1.3-3.5-1.7s-2.6-.6-3.9-.6zm1.5 25.9c0 .2 0 .4-.4.4h-1.8c-.2 0-.4-.2-.4-.4V64c0-.2 0-.4.4-.4h1.8c.2 0 .4.2.4.4v21.5zm-309.9 3.7c1.3-.4 2.6-.7 3.5-1.5V77c-.4-.4-.6-.6-1.1-.9-.4-.4-.9-.6-1.3-.9.4-.2.9-.6 1.3-.9.6-.4.9-.7 1.1-1.1V61.8c-.9-.7-2-1.1-3.5-1.5-1.5-.2-2.9-.4-4.6-.4h-6.6v29.6h6.6c1.6.1 3.1.1 4.6-.3zM186.7 64h2.2c.4 0 .6.2.6.6h-.2v7.9c0 .2-.2.4-.4.4h-2.2V64zm.2 13.4h2.2c.2 0 .4.2.4.4h.2v7.3c0 .4-.2.6-.6.6H187l-.1-8.3zm221-17.4h-6.6v29.6h6.6c1.7 0 3.1 0 4.6-.4 1.3-.4 2.6-.7 3.5-1.5V77c-.2-.4-.6-.6-1.1-.9-.4-.4-.9-.6-1.3-.9.4-.2.9-.6 1.3-.9.6-.4.9-.7 1.1-1.1V61.8c-.9-.7-2-1.1-3.5-1.5-1.5-.1-2.9-.3-4.6-.3zm-.7 4h2.2c.4 0 .6.2.6.6h-.2v7.9c0 .2-.2.4-.4.4h-2.2V64zm2.9 21.2c0 .4-.2.6-.6.6h-2.2v-8.4h2.2c.2 0 .4.2.4.4h.2v7.4zm-162 13.4h-13.2v66.3h25.4v-11.4h-12.1V98.6h-.1zm-50.7-1.1c-2.8 0-5.5.6-8.5 1.3-2.8.7-5.3 2-7.7 3.9v58.6c2.2 1.7 4.8 3.1 7.7 3.9 2.8.9 5.7 1.3 8.5 1.3s5.5-.6 8.5-1.3c2.8-.7 5.3-2 7.7-3.9v-23.7h-13.2v18.6c0 .6-.2.9-.9.9h-4.2c-.6 0-.9-.4-.9-.9v-48.3c0-.6.2-.9.9-.9h4.2c.6 0 .9.4.9.9v18.4h13.2v-23.5c-2.2-1.7-4.8-3.1-7.7-3.9-2.8-1.1-5.8-1.4-8.5-1.4zm83.8 1.1h13.4v66.3h-13.4V98.6zm207 13.7l-8.5-14h-11.2v66.3h13.2v-44.2l6.2 10.1v34.2h13.4V98.4h-13.2l.1 13.9zm50.9-15c-2.9 0-5.7.6-8.6 1.3s-5.5 2-7.9 3.9v58.6c2.4 1.7 5 3.1 7.9 3.9 2.9.9 5.9 1.3 8.6 1.3 2.9 0 5.7-.6 8.6-1.3s5.5-2 7.9-3.9v-33.3h-15.1v6.2l1.8 2.4v19.5c0 .6-.2.9-.9.9h-4.2c-.6 0-.9-.4-.9-.9v-48.3c0-.6.2-.9.9-.9h4.2c.6 0 .9.4.9.9v12.1h13.2v-17.3c-2.4-1.7-5-3.1-7.9-3.9-2.8-.9-5.8-1.2-8.5-1.2zm-105.8 1.3h13.4v66.3h-13.4V98.6zm-96.7 18.7l-7.2-18.7H316v66.3h13.4v-39.7l7.3 16 7.3-16v39.7h13V98.6h-13.4l-7 18.7zm57-18.7h-14.7v66.3h14.7c3.5 0 7-.2 10.1-.9 3.1-.6 5.7-1.7 7.9-3.1V137c-.6-.7-1.3-1.5-2.2-2.4-.9-.7-1.8-1.3-2.8-2 .9-.7 1.8-1.5 2.8-2.2.9-.7 1.7-1.7 2.2-2.4v-25.4c-2-1.5-4.8-2.6-7.9-3.1-3.1-.6-6.4-.9-10.1-.9zm-1.5 8.8h4.8c.9 0 1.3.4 1.3 1.3v17.8c0 .6-.4.9-.9.9h-5.1l-.1-20zm6.1 47.4c0 .9-.4 1.3-1.3 1.3h-4.8v-18.6h5.1c.6 0 .9.4.9.9l.1 16.4z"/></g></svg>