<?xml version="1.0" encoding="utf-8"?>
<!-- Generator: Adobe Illustrator 26.2.1, SVG Export Plug-In . SVG Version: 6.00 Build 0)  -->
<svg version="1.1" id="Layer_1" xmlns="http://www.w3.org/2000/svg" xmlns:xlink="http://www.w3.org/1999/xlink" x="0px" y="0px"
	 viewBox="0 0 738 204" style="enable-background:new 0 0 738 204;" xml:space="preserve">
<style type="text/css">
	.st0{fill:#FFFFFF;}
</style>
<g>
	<path class="st0" d="M471.6,0c2.4,0.5,4.9,0.9,7.3,1.4c6.3,1.4,12.1,3.7,16.6,8.7c2.9,3.2,5.6,6.4,7.2,10.4
		c0.1,0.3,0.8,0.6,1.2,0.6l6.9,0.6c3,0.3,6.1,0.7,9.1,0.7c2.4,0.1,4.9-0.3,7.3-0.5c4.8-0.4,9.7-0.6,13.4,3.2c2.1,2.2,3.5,5,5.2,7.5
		c4.1-0.9,8.5-2.2,13-2.8c8.6-1.1,17.1-1.1,25.2,2.6c5.1,2.3,9.3,5.7,12.1,10.6c0.5,1,1.1,1.1,2.3,1c3.8-0.2,7.7-0.1,11.5,0
		c3.2,0.1,6.3,0.4,9.5,0.5c0.5,0,1.1-0.1,1.4-0.4c6-4.8,16.3-3.2,21.4,1.5c0.2,0.1,0.3,0.3,0.5,0.3c1.8-2,3.5-3.9,5.3-6
		c-0.4-0.5-1.1-1.3-1.7-2c-6.9-7.2-2.4-16.6,3.7-19.5c4.2-2,8.5-2.5,13-1.4c5.8,1.4,8.8,5.6,10.8,10.9c1.4,3.8,1.8,7.7,1.8,11.7
		c0,0.6,0.3,1.6,0.7,1.8c5.7,3.1,7.8,8.5,9.1,14.3c0.2,0.8,0.3,1.5,0.5,2.3c18.8-4.3,39.3,10.3,42.9,28.9c0.4,2.1,1,3.9,2.3,5.7
		c4.2,5.8,4.2,12.7,0.4,18.5c-3.6,5.5-10.7,8.5-17.4,7.2c-0.8-0.1-1.7,0-2.6,0c1.4,2.8,2.8,5.4,4,8.1c3.9,9.3,5,18.9,0.8,28.4
		c-4.3,9.5-11.8,15.1-22,16.9c-15,2.7-28.1-1.2-39.6-11.1c-3.7-3.2-6.9-6.6-8.7-11.1c-0.4-0.9-1.1-1.4-2-0.9
		c-4.9,2.9-10,2.6-15.2,1.2c-3.8-1-7.4-0.6-11.1-0.1c-8.7,1.1-17.3,2.4-26.1,1.2c-7.4-1-13.5-2.1-20.4-8.2c-0.7,0.5-1.4,0.9-2,1.4
		c-2.6,1.8-5.6,2.1-8.6,2.4c-4.6,0.4-9.3,0.8-13.9,1.1c-4.9,0.3-9.6-0.5-13.6-3.8c-1.7-1.4-2.7-3.3-3.5-5.3
		c-1.1-2.5-2.5-4.9-3.9-7.3c-0.3-0.5-1.3-0.5-2-0.7c-1.5-0.5-2.9-1-4.4-1.3c-1.4-0.3-2.9-0.7-4.4-0.7c-4.8,0.1-9.5,0.6-14.3,0.5
		c-5.2,0-10.4-0.9-15.4-2.6c-5.7-1.9-8.8-4.5-14.1-11.5c-0.7,1.5-1.1,3.2-2,4.5c-2.9,4.7-7.1,7.4-12.7,7.5
		c-6.1,0.1-12.2,0.3-18.4,0.3c-6.8,0-13.3-4.4-15.6-10.4c-2.6-6.7-1.1-14.4,4.3-19c1.5-1.3,1.1-2.5,1.2-3.9v-2.1
		c-15.9,13.8-32.4,15-49.7,3.7c-0.2,2.6-0.2,5.3-0.5,8c-0.8,7-4.2,12.6-9.4,17.2c-5.6,5-12.5,7.4-19.7,9c-7.5,1.6-15,2.2-22.7,1.4
		c-9.7-1-18.6-4.1-25.7-11.2c-0.5-0.6-1.4-0.8-2.2-1.1c-6.6-1.9-10.7-6.1-12.3-12.8c-0.2-0.9-0.2-1.8-0.3-2.8
		c-0.9-0.1-1.5-0.2-1.7,1.1c-0.9,5.9-4.3,10.1-9.6,12.8c-11,5.7-22.7,9.6-34.8,12.2c-3.8,0.8-7.6,1.3-11.5,1.4
		c-8.2,0.2-14-3.7-18.2-10.7c-3.6-6-4.9-12.7-6.3-19.4c-1.9-8.4-3-16.8-2.9-25.4c0-0.3,0-0.7-0.1-1c-5.9-0.5-10.5,2.8-10.7,9.1
		c-0.2,5.6,1.5,10.9,2.9,16.2c0.8,3,1.5,5.9,2.3,8.9c0.1,0.5,0.5,1,0.8,1.4c8,7.9,7.4,18.6-1.4,25.5c-0.8,0.6-1,1.1-0.8,2.1
		c1,6.8-1.3,12.3-6.5,16.7c-3.3,2.8-6.2,6-9.2,9c-3.4,3.3-7.5,4.8-12.2,4.6c-5.2-0.3-9.5-2.4-12.5-6.8c-2.3-3.3-3.2-6.9-2.6-11
		c0.1-0.9-0.2-2.1-0.7-3c-2.9-4.8-6-9.5-8.9-14.3c-0.5-0.8-1-1.3-2-1.1c-3.2,0.6-6.4,1.2-9.5,1.7c0.8,2.4,1.9,4.6,2.4,7
		c1.9,10.3-4.7,18.9-15.2,19.8c-6.5,0.5-13,0.7-19.5,0.9c-4.3,0.1-7.7-1.8-10-5.4c-0.8-1.2-1.6-2.3-2.4-3.5c-2.4,3.3-4.7,6.5-7,9.6
		C72,169,65,174.5,55.9,177c-15.1,4.2-28,0.4-38.7-11c-7-7.5-10.6-16.6-12.3-26.6c-2-12-1.2-24,1-35.9C9,86.6,13.6,70.1,20.6,54.4
		c4.4-9.8,10-18.9,18-26.2c5.2-4.8,11-8.5,18.2-9.5c10.9-1.6,19.5,2.3,25.6,11.4c3.9,5.9,6.1,12.5,7.1,19.5c0.1,0.7,0.7,1.6,1.3,2
		c9.1,6,9.2,18.7,0.2,24.8c-4.5,3.1-9.7,4.2-14.9,4.7c-3.3,0.4-6.8,0.5-10.1,0c-5.5-0.8-9.4-4.1-11.7-9.1c-0.3-0.6-0.6-1.2-1-2.2
		c-1.3,3.3-2.6,6.2-3.7,9.1c-4.3,11.4-7.4,23.1-9.1,35.1c-1,7.1-1.8,14.2,0.3,21.3c0.7,2.3,2,4.4,3.2,6.5c0.6,1,1.4,1.5,2.4,0.5
		c1.1-1.1,2.4-2.1,3.2-3.4c3.9-6.3,7.6-12.7,11.3-19.2c1.6-2.8,2.8-5.9,4.5-8.8c1.1-2,1.1-4,0.9-6.2c-0.8-6.1,0.8-11.6,5.9-15.4
		c4.4-3.2,9.4-3.1,14.3-1.4c6.6,2.3,12.5,5.6,17.3,11.3c1-3.8,1.9-7.4,2.9-10.9c3.1-10.9,6.2-21.9,9.2-32.8
		c1.9-6.9,6.5-10.5,13.3-11.7c6.6-1.2,13.4,1.7,16.9,7.6c1.7,2.9,3,6.2,4.5,9.4c2.4-3.1,5.6-5.1,9.5-5.8s7.5,0,10.5,2.7
		c4.9-8.1,11.5-13.2,20.9-14.3c-0.4-2-1-4-1.2-6.1c-0.9-8.5,6.1-16.6,14.7-17.4c3.6-0.3,7.2-1.1,10.7-1.8c7.7-1.5,16,3.2,18.7,10.6
		c2.3,6.2,0.6,11.5-3.1,16.6c-0.4,0.5-0.7,1.3-0.7,2c0.4,5.5,0.8,11,1.4,16.4c1,7.8,2.1,15.5,3.3,23.2c0.5,3.4,1.3,6.8,1.9,10.4
		c3.1-1.4,5.9-2.6,8.7-3.9c0.4-0.2,0.6-0.9,0.8-1.4c0.8-2.6,1.9-4.9,3.8-7c0.3-0.4,0.5-1.3,0.3-1.8c-2.3-5.5-2.9-11.2-2.9-17.1
		c0-7.1,1.9-13.8,4.9-20.1c4.2-9.2,9.9-17.2,18.3-23s17.7-8.3,27.9-6.7c5.4,0.9,9.6,3.9,13,8.1c0.2,0.3,0.5,0.6,0.8,0.8
		c1.5-1.4,3-2.8,4.5-4c6.2-4.9,13.4-6.7,21.2-6.1c11.7,0.8,21,6.2,28.5,15c1.4,1.6,2.5,3.5,3.5,5.4c0.8,1.4,1.6,2.7,3.1,3.4
		c0.8,0.4,1.4,1.1,2.1,1.7c12.3-11,26.2-13.3,41.6-7c-0.3-1.2-0.6-2.2-0.8-3.3c-1.2-6.9,1.4-12.2,6.6-16.5
		c6.6-5.5,14.4-8.4,22.6-10.7c6.3-1.8,12.6-2.7,19.1-2.9c0.4,0,0.8-0.1,1.2-0.2H471.6z M16.8,119.5c0.4,4.3,0.7,8.6,1.3,12.8
		c1,6.7,3.1,13.1,7.3,18.6c7.6,10.1,17.6,13.4,29,10.7c7.6-1.8,13.3-6.4,17.9-12.7c7.9-10.9,14-22.7,19.8-34.7
		c0.7-1.5,1.5-2.6,3-3.5c4-2.4,4.7-5.9,1.8-9.4c-3.4-4.1-8.1-6.4-13.2-7.5c-2.8-0.6-4.2,0.9-4.1,3.9c0.1,1.9,0.6,3.8,0.8,5.7
		c0.1,0.8,0.3,1.8,0,2.4c-5.3,11.3-10.6,22.6-17.7,33c-2.5,3.7-5.2,7.3-9.4,9.3c-4.9,2.4-9.4,2.1-13.5-1.5
		c-3.6-3.1-5.9-7.1-7.3-11.6c-2.7-8.8-2.1-17.7-1-26.6c1.2-9.2,3.3-18.3,6.1-27.2c3.6-11.7,7.8-23.2,15-33.4c2.3-3.2,4.7-6.4,8-8.7
		c2.1-1.5,2.6-1.5,3.5,1c0.8,2,1.5,4,1.9,6.1c0.9,3.9,2.1,7.6,0.1,11.8c-1.4,2.9,0.7,7.7,5.6,7.4c2.5-0.2,5-0.3,7.4-0.8
		c2.7-0.6,5.3-1.5,7.8-2.6c2.4-1.1,2.6-3.5,0.5-5.2c-0.9-0.8-2.1-1.3-3.2-1.8c-1.7-0.8-2.9-1.9-3.1-3.9c-0.1-1.6-0.3-3.2-0.6-4.7
		c-1-5.5-2.3-10.9-5.6-15.5c-2.9-4.1-6.8-6.5-12.1-6.4s-9.5,2.6-13.3,6c-7.1,6.3-12.1,14.1-16.1,22.7c-5.2,11.4-9,23.3-12,35.5
		C19.1,98.8,17.1,109,16.8,119.5L16.8,119.5z M455.3,101.4c-0.1-3.3-0.3-6.2-0.4-9.1c-0.1-5.9-0.3-11.8-0.3-17.7
		c0-1.2-0.3-2.4,1.1-3.2c9.2-5.4,17.7-11.8,25.5-18.9c4.7-4.3,8.8-8.9,11.9-14.5c2.5-4.6,3.6-9.5,3-14.7c-0.8-5.9-4.4-9.8-9.5-12.3
		c-4.8-2.4-9.9-3-15.3-2.8c-7.4,0.2-14.6,1.1-21.7,3.2c-5.9,1.8-11.6,4-16.6,7.8c-2.2,1.7-3.2,4.6-2.3,7c0.8,2.2,3.3,3.9,5.9,3.6
		c1.5-0.1,3-0.8,4.5-1.3c0.1,1.6,0.3,3.3,0.4,5c0.2,10.3,0.3,20.7,0.4,31c0,0.7-0.3,1.5-0.8,2.1c-1.9,2.3-2.3,5.1-0.5,6.9
		c1.7,1.6,1.6,3.3,1.6,5.2l0.3,13.1v9.6H441c-3,0.3-5.2,2.4-5.3,5.2c-0.2,3.8,2.5,6.5,6.5,6.4c3.3,0,6.6-0.2,9.9-0.3
		c1.9,0,3.7,0.3,5.6,0.3c3,0,5.9-2.4,6.1-5.1c0.3-3.4-1.4-5.8-4.7-6.4C457.9,101.2,456.6,101.4,455.3,101.4L455.3,101.4z
		 M110.7,121.2c0.1,0,0.1,0.1,0.2,0.1c-1.1,3.5-2.2,7-3.2,10.6c-0.4,1.5-1,1.9-2.6,1.9s-3.4,0.1-4.7,0.8c-2.2,1.1-2.9,4-2.2,6.4
		c0.7,2.1,2.8,3.4,5.3,3.3c5-0.3,10.1-0.6,15.1-1c2.9-0.2,4.8-3,4.4-5.9c-0.5-2.8-2.4-3.9-4.9-4.5c1.3-4.5,2.7-8.9,4.1-13.4
		c0.2-0.5,0.9-1,1.4-1.1c3.6-0.8,7.2-1.7,10.9-2.3c4.4-0.7,8.8-1.2,13.2-1.9c1.1-0.2,1.7,0.2,2.1,1.3c1,2.3,2.1,4.5,3.3,6.7
		c3.8,6.9,7.9,13.6,13.4,19.3c-0.2,0.3-0.3,0.4-0.5,0.6c-2.3,2-2.7,5.5-1,7.7s5.3,2.5,7.7,0.4c3.4-3.1,6.9-6.1,10.4-9
		c2.4-2,2.8-5.3,0.8-7.8c-1.6-2-5.3-2.3-7.5-0.6c-0.7,0.6-1.4,1.1-2.1,1.7c-0.3-0.3-0.6-0.5-0.8-0.8c-6.2-6.7-10.8-14.3-14.5-22.6
		c-6.1-13.6-10.1-27.9-14-42.2c-1.4-5-3-9.9-4.8-14.7c-0.7-2.1-2.4-3.9-4.7-4c-2.6-0.1-4.3,1.6-5.2,4.1c-0.7,1.8-1.5,3.5-2,5.4
		c-4.2,15.5-8.5,31-12.6,46.6c-0.6,2.4-1.4,4-4.2,4.1c-1,0-1.3,0-1.8-0.8c-1.3-2.3-3.7-3.3-6.1-2.6c-2.1,0.6-3.7,2.8-3.6,5.3
		c0.1,2.7,0.4,5.4,0.6,8.1c0.2,2.3,1.2,3.9,3.4,4.4c2.3,0.5,4,0.4,5.5-1.8C110,122.4,110.3,121.8,110.7,121.2L110.7,121.2z M366,43
		c-0.8-1.9-1.6-3.8-2.5-5.6c-4.8-9.4-17.1-16.8-29-14.5c-5.4,1.1-9.7,3.9-12.1,9.1c-2.3,5.2-2.4,10.4-0.8,15.8
		c2,6.7,6.2,11.9,11,16.7c6.6,6.7,13.5,13.2,20.1,19.9c1.9,1.9,3.5,4.3,4.8,6.7c2.7,5.3,1.1,9.6-4.4,11.8
		c-8.9,3.5-18.1,4.2-27.4,1.7c-2.8-0.8-5.3-2.4-6.7-5.3c2.1-1,3.5-2.5,3.8-4.8c0.4-4.1-4-7.2-7.9-5.6c-4,1.7-7.9,3.5-11.9,5.3
		c-2.1,1-3,2.9-2.8,5.4c0.2,1.9,1.9,4,3.9,4.3c1.4,0.2,2.9,0,4.6,0c1.4,2.7,3.6,5.2,6.5,7.1c5.5,3.7,11.7,4.9,18.1,5.2
		c8.1,0.3,16-0.5,23.7-3.4c6-2.3,10.8-5.8,12.6-12.3c1.7-6,0.4-11.6-3-16.6c-2.7-4-5.8-7.7-9.1-11.2c-5.3-5.6-11-10.7-16.4-16.2
		c-3.5-3.6-6.8-7.4-8.2-12.3c-0.5-1.9-1-3.9-0.8-5.8c0.6-4.7,3.6-6.5,8.6-5.9c6.9,0.9,13,6.7,13.9,13.1c-0.7,0.3-1.3,0.6-2,0.8
		c-2.6,0.6-4.2,4.1-3.4,6.3c1,2.8,3.8,4.5,6.7,3.7c4.1-1,8.3-2.1,12.4-3.2c2.4-0.7,3.9-2.6,4-4.9C372.3,45.3,370,43.2,366,43L366,43
		z M720.5,92.2c0.3-0.4,0.5-0.7,0.7-1.1c0.3-0.5,0.8-0.9,0.9-1.5c0.1-0.8,0.1-1.7-0.1-2.5c-1.7-10.8-11.4-20.4-21.6-22.1
		c-8.6-1.4-16.6,2.7-20,10.7c-3.3,7.6-2.6,15.3,0.7,22.5c3.3,7.3,7.4,14.3,11.1,21.5c2.5,4.8,5.2,9.5,6.6,14.8
		c1.6,6.4-1.2,11-7.5,11.8c-4.9,0.6-9.6-0.3-13.9-2.8c-3.2-1.9-6.1-4.3-7-8.3c3.7-0.6,7.3-1.2,10.9-1.8c2.7-0.4,4.6-2.4,4.8-4.7
		c0.1-2.7-1.7-5.1-4.2-5.9c-2.4-0.8-4.6,0.3-6.8,0.7c-4.7,1-9.4,2.3-13.6,4.9c-4.4,2.8-5.6,6.9-2.8,11.3c1.6,2.6,3.6,5.1,5.8,7.3
		c8.9,9,19.7,11.8,31.8,9.1c8.6-1.9,14-9,14-17.8c0-6.6-2.5-12.4-5.5-18.1c-4.5-8.5-9.1-16.9-13.4-25.4c-2.2-4.3-3.3-8.9-2-13.7
		c1.2-4.2,3.9-7.4,8.7-6.1c7.1,2,12.8,9.9,11.2,17h-1.8c-3,0-5.3,1.9-5.5,4.4c-0.4,4,1.6,5.7,4.8,6.1c4.6,0.5,9.3,0.5,13.9,0.4
		c3,0,5.7-3.7,4.5-6.8C724.3,94.1,722.8,92.9,720.5,92.2L720.5,92.2z M561,120.6c-0.3-2.5-0.7-5-1-7.5l-1.8-17.4
		c0-0.5,0.2-1.2,0.6-1.5c3.5-2.8,7.1-5.4,10.5-8.2c6.1-5.1,11.7-10.6,16.3-17.1c3.4-4.8,6.1-10,6.2-16.2c0.1-5.3-1.7-9.8-5.9-13
		c-3.4-2.6-7.4-3.8-11.5-3.8c-3,0-6,0.6-8.9,0.9c-7.1,0.7-13.8,2.5-20.4,5.3c-4.5,1.9-8.9,4.2-12.4,7.7c-2.3,2.2-2.5,5.2-0.7,7.3
		c1.9,2.2,5.2,2.6,7.7,0.9c0.5-0.3,0.9-0.7,1.6-1.2c0.2,1.2,0.3,2.2,0.4,3.2c0.7,5.2,1.3,10.3,1.9,15.5c0.6,4.6,1.1,9.2,1.6,13.8
		c0.1,0.7,0,1.5-0.4,2.1c-1.8,2.8-1.6,4.8,1,7c0.4,0.3,0.8,0.7,0.8,1.1c0.4,3.2,0.7,6.4,1.1,9.6c0.5,3.9,1,7.7,1.6,11.6
		c0.2,1.2,0.2,1.9-1.4,2c-1.9,0.1-3.7,1.8-4.2,3.6c-0.6,2,0.2,4.2,1.8,5.5c1.8,1.4,3.8,1.2,5.8,1c3.9-0.4,7.7-1,11.6-1.2
		c2.2-0.1,3.9-0.8,5.3-2.4c2.5-2.8,1.3-7-2.3-7.9C564.5,120.7,562.9,120.8,561,120.6L561,120.6z M598.5,90.3c0-0.2-0.1-0.5,0-0.7
		c3.3-9.3,6.5-18.7,9.9-28c0.2-0.4,1.1-0.9,1.7-0.9c4.6,0.2,9.3,0.3,13.9,0.7c1.6,0.1,3.2,0,4.3,2.1c1.2,2.2,3.8,2.8,6.3,2.3
		c2.3-0.5,3.9-2,4.2-4.5c0.3-2.6,0.8-5.1,0.9-7.7c0.2-3.3-1.2-5.2-4.3-6.2c-2.5-0.8-4.9,0.2-6.7,2.7c-0.3,0.4-1,0.7-1.5,0.7
		c-4.3-0.2-8.6-0.4-12.9-0.7c-3.1-0.2-6.1-0.4-9.1-0.6c-2.4-0.2-4.9,1.2-5.8,3.6c-1.1,2.8-2.3,5.5-3.3,8.3
		c-6.7,18.7-13.6,37.3-16.2,57.2c-0.9,6.5,0.4,11.2,7.1,13.8c2.7,1.1,5.7,1.5,8.6,2.1c6.8,1.5,13.5,0.7,20.2-0.2
		c3.3-0.5,6.6-1.2,9.9-1.1c3.9,0.1,7.7,0.8,11.6,1.5c3.3,0.6,4.9-0.3,5.1-3.7c0.2-2.9,0.1-5.8,0-8.6c-0.1-2.5-2.3-4.5-4.9-4.9
		c-2.4-0.3-5.4,1-6.1,3.1c-0.6,1.8-1.8,1.8-3.2,2c-4.8,0.6-9.5,1.3-14.3,1.8c-4.6,0.4-9.1,0.8-13.7,0.9c-2.5,0-5.1-0.7-7.6-1.3
		c-0.5-0.1-1.3-0.9-1.3-1.4c-0.2-1.5-0.2-3.1,0.1-4.6c1.1-5.5,2.5-11,3.6-16.5c0.2-1.2,0.8-1.4,1.8-1.4c4.7,0,9.3-0.2,14-0.3
		c2.1-0.1,3.9-0.2,5.8,1.5c2,1.9,4.7,1.4,6.9,0c1.9-1.2,2.5-3.1,2.1-5.5c-0.2-1.2,0.1-2.5,0.2-3.7c0.1-0.8,0.4-1.7,0.2-2.5
		c-0.4-2.3-2.5-4-5-4.3c-2.4-0.2-5.1,1.3-6.1,3.3c-0.3,0.5-0.9,1.1-1.4,1.2c-2,0.3-3.9,0.4-5.9,0.5
		C607.6,90.3,598.5,90.3,598.5,90.3z M500.5,67.8c3-9.6,5.9-18.6,8.7-27.6c0.5-1.6,1.1-2.4,3.1-2.1c4,0.4,8,0.3,12.1,0.5
		c1.7,0.1,3.3,0.1,4.3,2.1c1.1,2.1,4.2,2.9,6.3,2.2c2.2-0.8,3.6-3,3.4-5.5c-0.1-1.2-0.2-2.4-0.3-3.5c-0.7-5.1-2.6-6.5-7.8-5.9
		c-3.1,0.3-6.3,0.3-9.4,0.4c-1.3,0-2.6-0.3-3.9-0.4c-3.2-0.2-6.4-0.4-9.7-0.6c-2.3-0.1-4.7-0.4-6.2,1.7c-0.7,1-1,2.3-1.5,3.5
		c-5.5,14.8-9.8,29.9-13.2,45.3c-1.6,7.1-2.9,14.3-2.9,21.6c0,4.7,2.1,8,6.1,10.1c3.4,1.8,7.2,2.5,11,2.8c7.3,0.6,14.5,0.3,21.7-0.7
		c1.3-0.2,2.6-0.4,3.7,1.1c1.5,1.9,4.7,2.1,6.9,1c2-1.1,2.9-3.5,2.4-6c-0.4-2.2-0.9-4.3-1.3-6.5c-0.4-2.5-2.2-4.4-4.4-4.6
		c-3.1-0.3-5.2,1-6.2,3.5c-0.2,0.5-1,1.1-1.7,1.2c-2.7,0.4-5.5,0.8-8.2,0.9c-5.4,0.3-10.9,0.5-16.2-0.9c-3-0.8-3.2-1.1-2.8-4.3
		c0.7-4.5,1.3-9,2-13.5c0.3-2.1,0.9-4.1,1.4-6.1c2.6,0,5,0.1,7.3,0c2.4-0.1,4.7-0.4,7.1-0.6c2.1-0.1,4.1-0.4,5.9,1.5
		c1.7,1.6,4.2,1.4,6.3,0.1c1.8-1.2,2.5-3,2.1-5.3c-0.2-1.2-0.1-2.6,0.1-3.9c0.7-3.3-0.6-5.5-3.8-6.5c-3-0.9-5.5,0.3-6.7,3.3
		c-0.1,0.3-0.5,0.8-0.8,0.8C510.7,67.2,505.9,67.5,500.5,67.8L500.5,67.8z M222.3,35.9c1.5-1,2.8-1.6,3.7-2.5c1.6-1.7,1.8-4.3,0.8-6
		c-1.3-2.2-3.8-3.2-6.4-2.8c-3.4,0.6-6.9,1.2-10.3,1.7c-3.2,0.5-5.4,2.8-5.2,5.6c0.1,2.4,1.7,5.2,5.3,5.3c0.9,0,1.1,0.4,1.2,1.2
		c0.2,4.9,0.4,9.7,0.7,14.6c0.4,4.8,0.8,9.6,1.4,14.3c0.7,5.5,1.8,11,2.6,16.5c1.2,8.2,2.7,16.3,5.5,24.1c1.6,4.4,4.3,8,9.3,8.6
		c3.8,0.4,7.7,0.3,11.4-0.8c8.9-2.5,17.1-6.6,25.1-11.1c0.6-0.4,1.6-0.5,2.3-0.3c2.6,0.4,4.5-0.4,6.1-2.5c1.1-1.5,1.2-4,0.2-5.6
		c-1.4-2.3-2.9-4.6-4.4-6.8c-1.6-2.5-4.2-2.8-6.8-2.4c-2.3,0.4-3.8,1.9-4.1,4.2c-0.2,1.3,0.3,2.7,0.5,4.1c-0.5,0.3-1.1,0.7-1.8,1.1
		c-7.2,4.1-14.6,7.9-22.8,9.6c-2.4,0.5-3.4,0.3-4.1-2c-1.4-4.4-2.8-8.9-3.7-13.5c-1.2-5.8-2-11.6-2.9-17.5
		c-0.7-4.8-1.3-9.6-1.9-14.4c-0.3-2.9-0.6-5.7-0.8-8.6C222.8,45.1,222.5,40.3,222.3,35.9L222.3,35.9z M314.1,49.2
		c-0.2-1.6-0.3-3.1-0.5-4.7c-0.4-5.4-2.2-10.4-5.2-15c-2.9-4.5-6.9-7-12.2-6.9c-3.1,0.1-6.2,0.3-9,1.9c-3,1.8-6.3,3.2-9,5.3
		c-7.1,5.7-11.5,13.5-14.3,22c-2.5,7.5-2.7,15.1,0.1,22.7c3.2,8.6,15.7,17,25.4,13.2c4.6-1.8,9-3.7,12.3-7.4
		C309.8,71.5,313.8,61.1,314.1,49.2L314.1,49.2z M172.6,68.6c-1.7-2.8-4.1-4.2-7.4-3.9c-3.4,0.3-5.9,3.7-4.9,6.9
		c0.9,2.6,2.2,5.1,3.1,7.7c4.4,12.4,8.8,24.9,13.2,37.4c0.4,1.2-0.2,1.7-0.9,2.2c-1.8,1.5-1.9,3.4-1.5,5.4s1.7,3.4,3.7,3.8
		c2.3,0.5,4.5,0,6.7-1.2c1.5-0.9,3.1-1.7,4.8-2c3.1-0.6,4.7-3.5,4.9-5.4c0.2-2.8-1.2-4.5-4.3-5.7c-0.5-0.2-1-0.8-1.1-1.4
		c-0.6-2.2-0.9-4.5-1.6-6.7c-2.1-7.2-4.4-14.4-6.4-21.7c-0.6-2.2-1-4.6-0.9-6.9c0.2-3.3,2.4-5.7,4.8-7.7c3-2.6,6.4-4.2,10.3-4.5
		c1-0.1,2.6,0.3,3,1c1.2,1.8,2.6,2.7,4.6,2.6c2.3-0.2,4.2-1.2,4.9-3.6c0.4-1.6,0.8-3.3,0.7-5c-0.4-4.8-2.1-8.3-7.1-9.2
		c-2.1-0.4-4.6-0.3-6.7,0.4C184.8,53.9,177.7,59.9,172.6,68.6L172.6,68.6z M379.4,62.9c-0.5,13.3,10.8,25.4,25.1,25.4
		s25.4-11.2,25.4-25.2c0-14.2-11.1-25.4-25.4-25.4C389.8,37.6,379,49.9,379.4,62.9z M672.3,116.6c-4.6-8.8-8.5-17.5-8.2-27.5
		c-0.4,0-0.7-0.1-1,0c-4,1-8.1,1.6-12.3,1c-6.4-1-12.4-2.7-16.7-8.1c-0.3-0.3-0.8-0.6-1.2-0.6c-2.1-0.1-4.3,0-6.6,0
		c0.6,0.5,1,0.8,1.4,1.1c4.7,4.1,7.2,8.9,6.1,15.3c-0.2,1.3-0.2,2.7-0.4,4c-0.4,2.3-0.8,4.6-1.4,6.9c-0.2,0.8-0.8,1.6-1.2,2.5
		c10-0.4,17.3,3.5,21.4,12.8C658.1,120,665,118.2,672.3,116.6L672.3,116.6z M646.5,70.9c2,3,6.7,4.6,10.6,3.7
		c6.5-1.5,11.4-5.3,15.4-10.4c2.7-3.5,4.3-7.4,3.8-11.9c-0.4-3.6-2.7-6.1-5.8-6c0.3,3.4-2,5.4-4,7.6c-0.1-0.3,0-0.6,0.1-0.9
		c0.5-2.3,0.8-4.6-0.6-6.7c-0.4-0.5-1.3-1.2-1.8-1.1c-1.6,0.2-3.1,0.8-4.8,1.3c0.4-0.9,0.8-2,1.3-3c-3.7,1.5-5.2,4.8-4.9,8.8
		c0.3,3,0.3,6.2-0.4,9.1C654.4,66,650.6,68.6,646.5,70.9L646.5,70.9z M468.7,100.5c1.4-8.1,2.9-16.4,4.4-24.7
		c-3.4,2.2-6.9,4.4-10.3,6.7c-0.3,0.2-0.4,0.8-0.4,1.2l0.3,11.2c0,0.4,0.3,0.9,0.6,1.1C465.1,97.6,467,99.1,468.7,100.5L468.7,100.5
		z M667.1,40.8c0-1.9,0.2-3.8,0-5.6c-0.3-2.9-0.6-5.8-1.4-8.6c-1-3.6-3.6-4.6-7.1-3.2c-1.8,0.7-2.1,1.6-0.7,2.9
		C661.9,30.5,665.1,35.2,667.1,40.8z"/>
	<path class="st0" d="M178.8,204c-0.5-1-1.2-1.9-1.5-2.9c-1.5-5.8-2.9-11.6-4.4-17.4c-0.4-1.5-0.4-2.8,1-3.7
		c1.2-0.8,3.1-0.4,4.4,0.8c0.7,0.6,1.3,1.3,1.9,1.9s1.2,1.3,1.9,2c0.9-2.4,1.7-4.5,2.5-6.7c0.5-1.2,1.1-2.3,2.7-2.2s2.6,1.1,2.9,2.5
		c1.8,6.3,3.5,12.7,5.2,19c0.5,1.8-0.3,3-1.8,3.4c-1.7,0.4-2.8-0.2-3.4-2.2c-1-3.5-2-7-2.9-10.2c-0.8,1.3-1.3,3.1-2.4,4.1
		c-1.8,1.5-2.9-0.9-4.6-1.9c0.4,1.7,0.7,3.1,1,4.4c0.4,1.7,0.7,3.4,1.3,5.1c0.6,1.8,0.1,3.1-1.4,4.1C180.4,204,179.6,204,178.8,204
		L178.8,204z M525.2,171.9c-6,0.2-9.5-2.7-9.6-7.5c-0.1-3.7,2.6-6.9,6.1-7.8c2.5-0.6,4.9-0.5,6.9,1.2c0.6,0.5,0.9,1.6,1.3,2.4
		c0.2,0.5,0.3,1.1,0.4,1.6c0.3,1.3,1.1,2.6,0.8,3.7c-1.1,4.9-0.7,10.1-2.9,14.7c-0.1,0.3-0.2,0.5-0.3,0.8c-2.8,5.9-9.6,6.6-13.4,1.2
		c-1.1-1.5-1.7-3.4-2.3-5.2c-0.5-1.4,0.3-2.8,1.6-3.3c1.4-0.5,2.7,0.1,3.3,1.6c0.5,1.1,0.7,2.3,1.5,3.2c0.6,0.8,1.8,1.8,2.6,1.8
		c0.8-0.1,1.8-1.3,2.2-2.2C524.1,176.2,524.5,174.1,525.2,171.9L525.2,171.9z M523.5,167c0.8-0.6,2.1-1.1,2.3-1.9
		c0.4-1.5-1-3.6-2-3.6c-1.5,0-2.7,1.2-2.7,2.7C521,165.5,522,166.6,523.5,167z M446.7,162.9c-0.3,2.6-0.5,5.2-0.8,7.8
		c0,0.5-0.1,0.9-0.2,1.3c-0.4,1.6-1.3,2.2-3,2c-1.5-0.2-2.3-1.1-2.1-2.6c0.4-4.6,0.8-9.2,1.2-13.7c0.2-2.6,0.4-5.2,0.8-7.8
		c0.3-2,2.4-2.8,4-1.7c0.5,0.3,0.9,0.9,1.1,1.4c1.4,3.6,2.8,7.2,4.4,10.8c0.4-2.1,0.7-4.2,1.1-6.2c0.1-0.7,0.2-1.5,0.6-2.1
		c0.7-1.4,1.9-1.7,3.3-1.3c1.5,0.4,1.8,1.4,1.6,2.8c-0.8,4.7-1.5,9.4-2.3,14.1c-0.2,1.2-0.3,2.5-0.6,3.7c-0.4,1.9-1.7,3-3.5,2.6
		c-0.7-0.2-1.6-0.8-1.8-1.5c-1.2-3.2-2.3-6.4-3.4-9.6C447,162.8,446.8,162.8,446.7,162.9L446.7,162.9z M278.1,169.8
		c0.4,2.7,0.9,5.5,1.3,8.2c0.4,2.3-0.8,3.6-2.9,3.5c-1.5-0.1-2.2-1-2.4-2.4c-1.1-6.8-2.2-13.6-3.4-20.5c-0.2-1.5,0.5-2.7,1.8-3.1
		c1.5-0.4,2.6,0.2,3.4,1.5c2,3,4.2,6,6.6,8.8c-0.2-2.2-0.4-4.5-0.6-6.7c-0.2-1.5,0-2.7,1.5-3.4c1.9-0.9,3.6,0,3.8,2.1
		c0.5,5.9,1,11.8,1.4,17.6c0.2,2-0.5,2.9-2.1,3.4c-1.5,0.4-2-0.3-3.1-2.1c-1.5-2.5-3.4-4.8-5.1-7.1
		C278.3,169.7,278.2,169.7,278.1,169.8L278.1,169.8z M420.3,173.7c-2.5,0-4.6-1-6.1-2.9c-1.3-1.7-2.4-3.7-3.3-5.7
		c-0.8-1.7-0.3-2.9,1.2-3.5s2.9,0,3.6,1.6c0.5,1.1,1,2.3,1.6,3.4c0.7,1.1,1.6,1.9,3.1,1.8c1.2-0.1,1.4-0.8,1-1.6s-1.1-1.4-1.8-2
		c-1.8-1.6-3.9-3-5.6-4.8c-2.9-3-3.5-6.8-1.9-10.2c2.5-5.1,9-5.6,12.2-1c1.8,2.6,2.2,5.7,2.3,8.7c0,1.4-1,2.1-2.4,2.2
		c-1.5,0-2.7-1.1-2.9-2.6c-0.1-1.1-0.1-2.2-0.4-3.2c-0.3-0.9-0.8-1.8-1.4-2.4c-1.2-1.1-2.4-0.5-2.7,1.1c-0.2,1.7,0.3,3.2,1.5,4.3
		c1.4,1.3,3,2.4,4.5,3.6c1.9,1.5,3.6,3.1,3.9,5.7C427.4,170.3,424.4,173.7,420.3,173.7L420.3,173.7z M545.3,175.4
		c3.8,4.9,2.2,10.5-1.3,12.9c-3.4,2.4-8.1,1.7-10.5-1.5c-3-3.9-1.9-8.1,3.2-12.3c-2.2-2.6-2.7-5.5-1.3-8.7c1.2-2.6,3.4-4.1,6.2-4.4
		c3.4-0.4,5.5,1.5,6,5.4C548.1,170,547.4,172.8,545.3,175.4L545.3,175.4z M542.6,181.3c-0.7-0.9-1.2-2.1-2.1-2.5
		c-1-0.4-3.4,2-3.4,3.2s1.1,2.3,2.4,2.4C540.9,184.5,542.2,183.1,542.6,181.3L542.6,181.3z M542.1,166.9c-2.5,1-2.8,2.8-0.7,4.6
		C542.6,170.2,543,168.7,542.1,166.9z M355.1,173.8c-3.2,0-5.5-1.7-7.3-4.1c-0.8-1.1-1.5-2.4-2.1-3.7c-0.8-1.6-0.4-2.9,0.9-3.5
		c1.5-0.7,3-0.3,3.8,1.2c0.6,1,1,2.1,1.7,2.9s1.6,1.4,2.6,1.8c0.5,0.2,1.3-0.2,1.8-0.6c0.2-0.1,0-1.1-0.4-1.5
		c-0.6-0.7-1.4-1.3-2.2-1.9c-1.9-1.4-3.9-2.5-5.7-4.1c-3.3-3-4.1-7.2-2.3-10.6c2-3.8,6.6-4.9,10-2.4s4.3,6.2,4.6,10
		c0.1,1.4-1.1,2.1-2.4,2.2c-1.4,0.1-2.6-0.9-3-2.3c-0.3-1.2-0.4-2.4-0.8-3.5c-0.6-1.7-2.1-2.7-3.1-2.3c-1.1,0.4-1.5,2.5-0.3,3.9
		c1.1,1.4,2.6,2.6,4.1,3.7c1.4,1.1,3.1,1.9,4.5,3c2.3,1.9,3,4.8,2,7.4C360.7,172.2,358.1,173.9,355.1,173.8L355.1,173.8z M398,168.6
		c0,1.7-1.1,3-2.5,3.1c-1.6,0.1-2.3-1-2.7-2.3c-0.2-0.5-0.2-1.1-0.3-1.7c-0.2-1-0.3-2.5-0.8-2.8c-1.2-0.5-2.8-0.5-4.2-0.5
		c-0.3,0-0.7,0.6-0.9,1c-0.5,1.4-0.9,2.8-1.4,4.2c-0.6,1.6-2,2.2-3.6,1.6c-1.5-0.6-2-1.6-1.4-3.4c2.2-6.7,4.4-13.3,6.6-20
		c0.4-1.4,1.2-2.3,2.6-2.6c1.4-0.2,2.1,0.7,3,1.5c1.3,1.3,1.5,3,1.8,4.6l3.6,15.9C397.9,167.8,398,168.3,398,168.6L398,168.6z
		 M272,179.2c0,1.8-0.6,2.8-1.8,3.3c-1.2,0.4-2.1-0.2-2.8-1.1c-0.4-0.5-0.6-1.1-0.8-1.7c-1-3.6-1.8-4.1-5.4-3.2
		c-0.4,0.1-0.9,0.8-1.1,1.2c-0.3,1.4-0.4,2.8-0.7,4.2c-0.3,1.6-1.7,2.5-3.3,2.2c-1.6-0.4-2.2-1.3-1.9-3.2c1.1-7,2.3-14.1,3.4-21.1
		c0.2-1.2,0.7-2.1,1.9-2.5s2,0.2,3,0.9c1.7,1.2,2.3,2.9,3,4.6l6,15C271.8,178.3,271.9,179,272,179.2L272,179.2z M263,170.8
		c-0.4-0.9-0.7-1.7-1-2.4c-0.1,0-0.3,0.1-0.4,0.1c-0.1,0.8-0.2,1.6-0.3,2.5h0.8C262.1,171,262.5,170.9,263,170.8L263,170.8z
		 M335.2,155.7c0.2,2,0.3,3.9,0.5,5.8c2.3,0,5.3-1.2,5.6,2.2c0.3,3.5-3,2.7-5.2,3.3c0.1,1.1,0.2,2,0.3,3h4.5c0,0,2.5,0.7,2.6,2.3
		c0.2,1.5-0.8,2.9-2.2,3c-2.5,0.2-5,0.4-7.5,0.5c-1.7,0.1-2.7-0.8-2.9-2.5l-1.8-21.9c-0.1-1.3,0.2-2.2,1.5-2.8
		c1.4-0.6,2.5-0.2,3.5,0.9c0.3,0.4,1,0.7,1.6,0.6c1.1,0,2.1-0.3,3.2-0.4c1.6-0.1,2.7,0.7,2.9,2.2c0.2,1.7-0.7,2.9-2.3,3.2
		C338.2,155.4,336.8,155.5,335.2,155.7L335.2,155.7z M483.4,165.3c4.2,0.5,5.2,1.1,5.1,3.2c-0.1,1.9-1.1,2.3-5.8,2.2
		c-0.1,1-0.3,2.1-0.5,3.3c1.5,0.2,2.9,0.5,4.4,0.7s2.2,1,2.2,2.5c-0.1,1.5-1.1,2.7-2.4,2.5c-2.8-0.3-5.6-0.8-8.4-1.3
		c-1.4-0.3-1.8-1.4-1.6-2.8c0.6-4.7,1.3-9.4,1.9-14.2c0.4-2.6,0.8-5.1,1.2-7.7c0.2-1.3,0.9-2.1,2.2-2.2c1.3-0.2,2.5,0.3,2.9,1.6
		c0.3,0.9,0.7,1.1,1.6,1.1c1,0,1.9,0.2,2.9,0.3c1.9,0.2,2.7,1.1,2.5,2.9c-0.2,1.6-1.4,2.7-3,2.5c-1.3-0.1-2.7-0.3-4.3-0.4
		C483.9,161.5,483.6,163.4,483.4,165.3L483.4,165.3z M237.1,172.6c0.3-1.1,0.4-3.1,1.1-4.8c1.9-4.6,7.3-5.4,10.3-1.6
		c1.2,1.6,2,3.6,2.6,5.6c0.5,1.7-0.4,2.9-1.9,3.2c-1.8,0.3-2.7-0.4-3.2-2.2c-0.3-1-0.7-2-1.2-3s-1.2-0.9-1.6,0.1
		c-0.3,1.1-0.8,2.2-0.6,3.3c0.4,2.5,0.9,5,1.7,7.4c0.2,0.6,1.2,1.1,1.8,1.6c0.4-0.6,0.9-1.2,1.1-1.9s0.1-1.6,0.2-2.4
		c0.1-1.3,0.9-2.1,2.2-2.2c1.3-0.2,2.4,0.3,2.9,1.6c1.4,3.5-1.3,9.2-4.8,10.3c-2.9,0.9-5-0.4-6.8-2.5
		C238,181.8,237.4,177.6,237.1,172.6L237.1,172.6z M221.9,186.2c-0.1,1.4-0.1,2.1-0.2,2.9c-0.2,1.8-1.5,2.7-3.2,2.6
		c-1.5-0.2-2.3-1.3-2.1-3.1c0.2-2.1,0.5-4.3,0.6-6.4c0-0.8-0.3-1.9-0.8-2.5c-1.6-2.1-3.3-4-5.1-6c-1-1.1-1.2-2.3-0.4-3.6
		c0.9-1.5,2.8-1.8,4-0.4c1.1,1.1,2.1,2.4,3.3,3.7c0.3-2.3,0.5-4.4,0.8-6.4c0.2-1.7,1.6-2.6,3.1-2.4c1.6,0.2,2.2,1.1,2.1,3.1
		c-0.3,3.1-0.6,6.2-1,9.3c-0.2,1.4,0.1,2.5,1.1,3.5c1.6,1.7,3,3.5,4.5,5.3c1.2,1.5,1.1,3.1-0.2,4.2s-2.5,0.8-3.9-0.8
		C223.6,188.3,222.9,187.5,221.9,186.2L221.9,186.2z M201,179.5c0.6,1.9,1.1,3.7,1.6,5.7c2.1-0.4,4.8-2.1,5.8,1.1
		c0.9,3.3-2.3,3.2-4.4,4.2c0.3,1,0.5,1.9,0.8,3.1c1.5-0.3,2.9-0.7,4.3-1c2-0.5,3.2,0.1,3.6,1.8c0.4,1.6-0.4,2.7-2.4,3.2
		s-3.9,1.1-5.9,1.6c-2.4,0.6-3.4,0-4.1-2.3c-1.9-6.8-3.7-13.6-5.7-20.5c-0.4-1.4-0.2-2.5,1.1-3.2c1.2-0.7,2.3-0.5,3.4,0.4
		c0.4,0.3,1.1,0.5,1.6,0.4c1-0.2,1.9-0.6,2.9-0.9c1.7-0.5,2.8,0,3.3,1.5c0.6,1.5-0.1,3-1.7,3.6C204,178.6,202.6,179,201,179.5
		L201,179.5z M469.5,158.1c-2.1,1-2.8,2.5-3.1,4c-0.5,2.4-0.8,4.8-0.9,7.2c0,0.7,0.8,1.5,1.2,2.2c0.6-0.6,1.2-1.1,1.7-1.7
		c0.4-0.5,0.5-1.1,0.7-1.7c0.5-1.4,1.4-2,2.9-1.7s2.4,1.4,2.3,2.9c-0.2,2.7-3,6.4-5.5,7.2c-2.9,1-5.9-0.3-7.4-3.2
		c-1.6-3-1.5-6.3-0.9-9.5c0.5-2.6,1.5-5.2,2.7-7.6c1.3-2.4,3.5-3.6,6.4-3.2c3,0.4,4.5,2.3,5,5c0.4,1.7,0.4,3.6,0.3,5.4
		c-0.1,1.5-1.3,2.3-2.9,2.1c-1.5-0.2-2.2-1.1-2.3-2.6C469.7,161.4,469.6,159.9,469.5,158.1L469.5,158.1z M307.9,154.9
		c0.1,1.7,0.2,3,0.3,4.5c1.2-0.1,2.2-0.3,3.3-0.4c1.6-0.1,2.5,0.6,2.8,2.1c0.3,1.6-0.5,2.8-2.1,3.1c-1.1,0.2-2.2,0.3-3.5,0.5
		c0.2,3.3,0.4,6.5,0.6,9.7c0.1,1.9-1,3.1-2.8,3c-1.4,0-2.3-0.6-2.4-2.1c-0.3-4.3-0.7-8.6-1-12.9c-0.3-3.6-0.5-7.2-0.7-10.9
		c-0.1-1.4,0.1-2.6,1.5-3.1c1.2-0.5,2.4-0.4,3.4,0.8c0.2,0.3,0.9,0.4,1.3,0.3c1.5,0,2.9-0.2,4.4-0.2c2,0,3.1,1,3.1,2.8
		s-0.8,2.5-3,2.6C311.5,154.9,309.8,154.9,307.9,154.9L307.9,154.9z M559.7,185.5c-2.2-0.2-4.2-0.4-6.1-0.6
		c-2.7-0.2-3.8-2.1-2.5-4.4c1.6-2.8,3.2-5.6,4.9-8.4c1.1-1.8,2.4-2.2,4-1.3c1.4,0.8,1.6,2.2,0.6,4c-1,1.7-2,3.4-3,5.3h3.4
		c0.2-0.7,0.3-1.5,0.5-2.3c0.4-1.5,1.5-2.3,3-2s2.5,1.7,2.2,3.1l-3,13.2c-0.4,1.5-1.7,2.3-3.1,2c-1.5-0.4-2.4-1.6-2.1-3.2
		C558.8,189.1,559.2,187.4,559.7,185.5L559.7,185.5z M374.3,153.3v16.3c0,1.8-0.9,2.7-2.5,2.8c-1.7,0.1-2.7-0.8-2.7-2.7
		c-0.1-4.7-0.2-9.3-0.4-14c0-0.8-0.1-1.6-0.2-2.6c-1.2-0.1-2.3-0.2-3.4-0.3c-1.6-0.1-2.8-1.3-2.8-2.9s1-2.4,2.9-2.4
		c4.2,0.1,8.4,0.3,12.6,0.5c1.6,0.1,2.6,1.3,2.5,3c-0.1,1.5-0.8,2.2-2.6,2.2C376.7,153.3,375.4,153.3,374.3,153.3L374.3,153.3z
		 M437.4,151.3c-0.4,6.4-0.7,12.8-1.1,19.2c-0.1,1.3-0.2,2.6-1.7,3.1c-1.9,0.7-3.8-0.6-3.7-2.7c0.2-5,0.5-10,0.8-15
		c0.1-2.1,0.2-4.2,0.4-6.3c0.2-2,1.1-2.7,2.8-2.6c1.6,0.1,2.4,1,2.4,2.9C437.5,150.4,437.5,150.8,437.4,151.3L437.4,151.3z
		 M326.3,172.1c0.1,2.5-0.7,3.7-2.6,3.7c-1.4,0-2.4-0.6-2.5-2.1c-0.4-4.3-0.9-8.6-1.3-12.8c-0.3-2.7-0.5-5.4-0.8-8.1
		c-0.2-2.1,0.5-3.1,2.2-3.4c1.9-0.2,2.8,0.5,3,2.7C324.9,158.7,325.6,165.4,326.3,172.1L326.3,172.1z M237.5,187.2
		c0.1,1.8-0.9,2.5-2.3,2.6c-1.5,0.2-2.5-0.5-2.9-2l-3-13.2c-0.5-2.4-1.1-4.7-1.6-7.1c-0.4-1.9,0.3-3.3,1.8-3.7
		c1.8-0.4,2.9,0.4,3.4,2.4c1.5,6.7,3,13.5,4.5,20.2C237.5,186.7,237.5,187.1,237.5,187.2z M510.1,159.6c-0.6,3.2-1.2,6.9-1.8,10.5
		c-0.5,3-1.1,6-1.6,9c-0.3,1.9-1.4,2.7-3.2,2.4c-1.6-0.3-2.5-1.5-2.2-3.2c1.1-6.6,2.3-13.1,3.5-19.7c0.3-1.7,1.4-2.5,3-2.3
		C509.3,156.5,510.2,157.5,510.1,159.6L510.1,159.6z M454.1,58.4V30.3c0-2.4-0.1-4.8-0.3-7.1c-0.1-1.1,0.3-1.6,1.4-1.7
		c3.4-0.5,6.9-1.2,10.3-1.6c3-0.3,6.1-0.4,9.1-0.4c2.6,0,5,0.9,7.1,2.4s2.2,3.7,1.9,6c-0.7,4.7-3.5,8.4-6.6,11.8
		c-6.5,7-13.9,13-21.8,18.4C455.2,58.1,455,58.1,454.1,58.4L454.1,58.4z M144.6,103.8c-6.2,1-12.4,2-18.9,3
		c3.2-10.9,6.4-21.7,9.7-32.8C138.5,84.1,141.6,94,144.6,103.8z M556.5,82.3c-0.9-8-1.8-15.8-2.7-23.6c-0.3-2.2-0.6-4.5-1-6.7
		c-0.2-1.3,0.1-2,1.5-2.3c3.5-0.7,6.9-1.5,10.4-2.3c1.7-0.4,3.3-0.9,5-1.1c2.7-0.3,5.4-0.1,7.9,1.1c1.7,0.9,2.5,2.3,2.6,4.2
		c0.4,5.3-2.4,9.3-5.4,13.1c-5,6.4-10.9,11.8-17.2,16.9C557.3,81.9,557,82,556.5,82.3z M302.4,49.3c-0.3,8.9-3.2,17.8-10.6,24.7
		c-1.9,1.8-4.1,3.4-7,3.7c-4.1,0.5-9.1-3.7-10.5-7.9c-1.7-5.1-0.9-10,0.6-14.9c2.5-7.6,6.6-14.1,13.3-18.7c2.1-1.4,4.8-2.1,7.3-2.8
		c1-0.3,2.1,0.1,2.9,1.2C301.6,38.8,302.3,43.5,302.4,49.3L302.4,49.3z M400.3,58.6c-0.8-0.6-1.4-1.1-2.2-1.5
		c-4.3-2.4-3.9-9.1,0.5-11.8c4-2.5,8.2-2.1,12.4-0.8c1.2,0.4,2.5,0.4,3.8,0.8c0.7,0.2,1.5,0.7,1.7,1.2c1.6,4.3-0.1,9.1-5,10.2
		c-2.5,0.6-5.2-0.8-6.2-3c-0.6-1.4-0.2-2.5,1.1-3.4c0.3,0.4,0.6,0.7,0.9,1.1c0.5,0.8,1.2,1.6,2.1,0.8c0.6-0.6,1.3-1.7,1.2-2.5
		c-0.2-1.7-1.7-2.4-3.2-2.6c-1.7-0.3-3.1,0.4-4.1,1.9c-1.8,2.7-0.7,6.5,2.2,8c0.7,0.4,1.5,0.6,2.2,1c0.4,0.3,1,0.8,1,1.1
		c0,0.4-0.6,0.9-1,1.1c-1.7,0.7-3.6,1.1-5.2,2c-3.8,2.1-4.9,6.8-2.4,10.4c1.5,2.1,4.4,3,7,2.2c1.9-0.6,3-2.6,3.1-5.2
		c0.1-2,0-3.8-2.4-4.5c-0.3-0.1-0.8-0.9-0.7-1.3s0.7-0.9,1.2-0.9c0.7-0.1,1.4,0.3,2.2,0.3c2.7,0,5.4-0.1,8.1-0.1
		c0.8,0,1.5,0.3,2.3,0.4c-0.3,0.7-0.5,1.6-1.1,2c-2.5,2-2.6,6.4-0.2,8.8c0.4,0.4,0.3,1.8,0,2.3c-1.8,2.6-4.4,4.2-7.4,5.1
		c-5.7,1.7-11.3,1.6-16.2-2c-6.6-4.8-6-14.8,1-19.2C397.9,59.8,399,59.3,400.3,58.6L400.3,58.6z"/>
</g>
</svg>
