<svg viewBox="0 0 5228.8 319" xmlns="http://www.w3.org/2000/svg"><path d="m1343.7 143.7c11.3 3.2 16.8 9 16.8 17.5v38.5c0 15.1-7.7 22.9-23.3 22.9h-41.2v-153.3h34.9c18.2 0 27.3 9.2 27.3 27.8v29.5c0 8.8-4.9 14.2-14.7 16.2zm-27.1-9.8h9.6c7.9 0 11.7-3.8 11.7-11.2v-23.9c0-7.4-3.1-11.2-9.2-11.2h-12.2zm0 70h15.4c5.4 0 8.1-2.3 8.1-6.6v-33.9c0-7.2-4.1-10.9-12.2-10.9h-11.4v51.4zm93.2 18.5h-20.5v-127c0-17.5 8.2-26.2 24.5-26.2h15.4c16.3 0 24.5 8.8 24.5 26.2v127h-20.5v-56.1h-23.6v56.1zm23.4-74.6v-51c0-5.9-3.1-9-9-9h-5.5c-5.9 0-9 3.1-9 9v51.1zm112.7 38.9v9.8c0 17.3-8.2 26.1-24.5 26.1h-13.3c-16.3 0-24.5-8.7-24.5-26.1v-101.2c0-17.3 8.2-26.1 24.5-26.1h13.3c16.4 0 24.5 8.7 24.5 26.1v17.2h-20.5v-15.7c0-5.9-3.1-9-9.2-9h-4.1c-5.4 0-8.1 3.1-8.1 9v98.2c0 5.9 2.7 9 8.1 9h5.1c5.4 0 8.1-3.1 8.1-9v-8.3zm48.3 35.7h-20.5v-127c0-17.5 8.2-26.2 24.5-26.2h15.4c16.4 0 24.5 8.8 24.5 26.2v127h-20.5v-56.1h-23.6zm23.5-74.6v-51c0-5.9-3.1-9-9-9h-5.5c-5.9 0-9 3.1-9 9v51.1zm51.4-78.5h40.2c15.6 0 23.6 8.8 23.6 26.2v37.8c0 13.4-4.1 21.8-12.2 25.4l14.2 63.7h-19.5l-13.5-61.8h-12.4v61.8h-20.5v-153.1zm20.4 73.7h13.5c6 0 9.2-3.8 9.2-11.2v-33c0-7.4-3.1-11.2-9.2-11.2h-13.5zm96.8 79.4c-16.5 0-24.7-8.7-24.7-26.1v-101c0-17.5 8.2-26.2 24.5-26.2h19.7c16.3 0 24.5 8.8 24.5 26.2v101c0 17.3-8.2 26.1-24.7 26.1zm4.9-18.5h10.5c5.4 0 8.1-3.1 8.1-9v-98.1c0-5.9-3.1-9-9.2-9h-9.6c-5.9 0-9 3.1-9 9v98.2c-.1 5.9 3 8.9 9.2 8.9z"/><path d="m1395.1 44.7h53.3v13.9h-53.3z"/><path d="m1453.8 256.4c1.8 0 3.3.5 4.4 1.5 1 1 1.6 2.4 1.6 4.1 0 1.8-.6 3.2-1.7 4.1s-2.7 1.5-4.8 1.5h-10.6v6.8h-3v-17.9h14.1zm-.5 8.4c2.3 0 3.5-.9 3.5-2.8 0-2-1.3-3-3.6-3h-10.5v5.7h10.6zm26.2 9.4h-3v-17.9h3zm36.8 0h-19.5v-2.7l14.7-12.5h-14.5v-2.7h18.6v2.7l-14.6 12.5h15.4zm36.4 0h-19.5v-2.7l14.7-12.5h-14.5v-2.7h18.6v2.7l-14.6 12.5h15.4zm35.9 0h-18.7v-17.9h18v2.7h-15v4.7h10.5v2.7h-10.5v5.2h15.7zm38 0h-3.5l-4.8-6.8h-9v6.8h-3v-17.9h14.1c1.9 0 3.4.5 4.4 1.5s1.6 2.4 1.6 4.2c0 1.5-.5 2.7-1.4 3.6-.8.9-1.9 1.4-3.4 1.7zm-6.6-9.4c2.3 0 3.4-.9 3.4-2.8 0-2-1.3-3-3.8-3h-10.5v5.7h10.9zm27.5 9.4h-3v-17.9h3zm39 0h-3.2l-2-4.1h-12.1l-2 4.1h-3.4l9.4-17.9h3.8zm-6.8-6.6-4.5-8.7-4.7 8.7z"/><path d="m167.7 243.5c.8.5 1.2.7 1.6 1 .1.1.2.3.2.5.7 3.9 1.4 7.8.3 11.7-.9 3-2.5 5.4-4.8 7.3-2.2 1.8-4.8 2.3-7.7 2-1.4-.2-3-.7-4.5-1-1.3.5-2.1 1.8-3.6 1.7-1.7-1.4-2.2-3-1.7-5.2.4-1.4.4-3-.2-4.5-.3-.8-.4-1.8-.5-2.6-.2-4.1-.9-8.2-1.3-12.4-.1-.9-.1-1.8-.2-2.6.7-.6 1.4-1.1 2.2-1.8.9.3 2 .6 3.4 1 .8-.2 1.7-.9 2.5-1.6.9-.8 1.8-1.1 3-.9.9.2 1.7 0 2.6-.3 1.3-.5 2.6-.3 3.8.6 1.4 1.1 2.7 2 3.8 3.4.4.6.8 1.2.7 2 0 .6.4 1.3.4 1.7zm81.4 23.8c-.2-.4-.4-.7-.6-1-.6-.7-1.2-1-1.8-.5-.9.6-1.7.5-2.6.2-3.1-1-4.9-3.8-4.5-7 .2-1.4 0-3 1.2-4-.4-1.1-.8-2.2-1.2-3.1-.9-2.2-.9-4.4.8-6.4 1.3-1.4 1.3-2.9.7-4.5-.7-1.8-.7-3.8-.7-5.6 0-2.6 1-4.5 3.4-5.7.4-.2.8-.5 1.2-.7.8-.4 1.6-.9 2.1-1.7 1-1.4 2.3-1.6 3.8-1.1s2.9 1.1 4.4 1.7c.6-.5 1.4-.9 2-1.6.9-1.2 2.1-1.4 3.4-1.4 1.4-.2 2.6.1 3.8 1 2.2 1.7 3 4.4 1.8 7.3-.7 0-1.4.2-2.1 0-1.3-.5-2 .5-2.6 1-.8.6-1.3 1.4-1.2 2.6.1 1 .1 2 0 3-.1 3-1.4 5.4-3.9 6.9-.6.3-1.2.6-1.6 1.1-.6.8-.6 1.8.7 2 1.3.1 2.5.3 3.4 1.4.2.3.9.3 1.3.3.9 0 1.8 0 2.6-.3 1.3-.6 2.2-.1 3.3.7 1.6 1.3 2.6 3 2.7 5.2l-2.6 2.6c-.8.9-1.6 2-2.3 3 .2.7.4 1.3.5 1.8-.8 1.1-2 1.6-3.3 2-3.9.8-8 1.1-12.1.8zm1.9-5.3c.5 0 1-.1 1.4 0 1 .5 2 .4 3 .2.9-.1 1.8-.1 2.6-.3 1.4-.3 2.9-.7 4.1-1.3 1-.5 1.7-1.3 2.5-2.1.5-.5.4-1.2 0-1.8-.7-1-1.7-1.6-2.9-2-1.6-.6-3.1-.7-4.8-.6-2.6.2-5.2.4-7.7.7-.8.1-1.6.4-2.3.7-1.1.4-1.8 1.1-2.2 2.2-.5 1.1-.4 1.7.5 2.3 1.7 1.2 3.4 2.2 4.8 3.8.1.1.3 0 .6 0 0-.4.3-1.1.4-1.8zm6.3-25.7c-1.4-1.3-2.5-2.3-3.5-3.4-.3-.2-.6-.5-.9-.6-2.7-1.2-6.1-.4-7.6 2.2-.4.6-.6 1.3-.9 2-.8 1.7-.4 3.1.7 4.6 1 1.4 2.3 2.2 3.8 3 1.4.9 2.9.8 4.3.1 1.3-.6 2.2-1.6 2.9-2.9.2-.4.4-1.1.2-1.4-.6-1.5.1-2.6 1-3.6zm-11.9 11.4c-.6.7-1.7 1.3-1.8 2.5 1.8 2.2 3.4 2.5 5.3.7.6-.5 1.1-1.3 1.4-1.8s-.1-1.2-.7-1.2c-1.3-.1-2.6-.1-4.2-.2zm157.6-11.8c.9-.8 1.7-1.4 1.7-2.5 0-1.7 1.1-2.3 2.5-2.9 1.4 1.3 1.6 2.7 1 4.6-1.4.1-3 .2-3.8 2.1.1.4.1.8.2 1.2 0 .1-.1.2-.1.3-.2.1-.3.3-.4.3-.7.1-1.4-.1-2.1.4-1.1.7-2.2.7-3.3-.2-1.1-.8-2-.5-3 .2-1.2.9-2.6 1.7-3.6 2.5-1.2-.2-.8-1.2-1.2-1.8-1.2.4-2.2.9-3.3 1.7-1.6 1.4-3.3 1.4-5 .4s-3-2.5-3.8-4.2c-1.7-3.6-.9-7.6 2-10.5.6-.6 1.3-1.2 2.1-1.8-.7-1-1.6-1.4-2.5-1.7-1.2-.4-2.2-.9-3-2.1v-2.2c0-2 1-3.4 2.3-4.7.2-.2.5-.4.7-.4 1 .1 1.7-.7 2.6-.9 1.8-.4 3.4-1.4 5.4-1.4.4 0 .8-.2 1.1 0 1.4.7 2.9.1 4.1-.5 1 .6 2 1.2 2.7 1.8s1.3 1.3 1.8 2c.5.6.7 1.4.3 2.1-.7 1.2-.2 2.2.2 3.4.4.1.8.2 1.4.3.1 1 .1 2 .2 3 .2 2.7.4 5.6.7 8.3.2 1.1.5 2.5 2.1 3.2zm-15.8-12c1.8-.1 3.4-.7 5-.3 1.1.2 2-.3 2.6-1.2.4-.5.7-1 1.1-1.4-1.4-3.4-3-4.3-6.5-4h-.3c-2.1.2-3.4 1.3-3.9 3.1-.3.9-.3 1.8.6 2.5.6.3 1 .7 1.4 1.3zm-207.5 23.2c-.2-.3-.3-.6-.5-.8-1-.8-1.1-1.8-1-3 .3-2-.4-3.5-1.7-4.9-.4-.5-.8-.9-1.4-1.1-.7-.2-1.3-.7-2-1.2.1-.5 0-1 .3-1.3.6-.6 1.4-1.4 2.2-1.6 1.8-.4 3.8-.5 5.5-.7.9.8 1.1 1.6 1.2 2.5.2 1.4.3 2.7.4 4 .3 4.5.9 8.9 1.8 13.3.2.9.5 1.8.7 2.6.7 2.3 3.8 3.4 6 2.1.7-.4 1.4-1 1.8-1.6 1-1.2 1.8-2.6 2.6-3.8.6-.8 1.1-1.6 1.8-2.6-.1-.9-.3-2.2-.5-3.4-.3-1.8-.3-3.5-.2-5.3.2-2.2-1.2-3.9-3.3-4.6-1-.3-2-.8-2.9-1.2-.3-1.6.9-2.1 1.4-2.7 2.5-.3 4.7-.6 7.2-1 1.1 1.2 1.2 2.7 1.3 4.2.7 5.5 1.2 11 1.7 16.4.1.5.1 1.1.1 1.6 0 1.2.7 1.8 1.8 2.2.5.2 1.1.2 1.6.5s.9.8 1.4 1.2c-.6 1.3-1.2 2.5-1.8 3.8-1.4.2-3 .4-4.6.7-1.3-1.1-2.6-2-3.8-3-.7.6-1.3 1.2-1.8 1.8-2.1 2.1-4.6 3-7.6 3-2 0-3.5-.6-4.9-2-1.8-1.8-3-3.8-3.5-6.3-.3-1.3-.4-2.6-.7-4-.1-1.5 0-2.8 1.4-3.8zm116.8-6.2c.6 1.7.2 3.1-.5 4.7-1.8 4.3-5.3 6.1-9.5 7.2-2.1.5-3.9-.1-5-2.1-1.4-.5-2.5.6-3.6 1.1-1.3-.5-2.5-1.4-3.5-2.3.6-1.7-.8-2.9-.9-4.4-1.2.2-1.8-.3-2.2-1.3-.2-.9-.5-1.8-.6-2.6-.2-1.4-.3-3-.5-4.6-.4-2.1.4-3.9.5-5.9 0-.2.1-.4.2-.5 1.4-.9 1.4-2.6 2.6-3.8.9-.8 1.7-1.7 2.6-2.5 2.5-2.2 5.2-3 8.5-2.5.4.1.7.1 1 .2.6-.4 1.1-.7 1.7-1.1 2.6 2.1 5.1 4.1 7.6 6.1.5 1.6-1.4 2.7-.4 4.3.4 0 .8.1 1.4.1.8 1.2.7 2.6.7 3.8-1 1.1-2.2 1.4-3.6 1.6-4.1.5-8.2 1-12.4 1.6-1.2.1-2.3.4-3.5.6-.5 1.1-1.7 1.8-1.6 3 3 3.8 3 3.8 6.5 5.9 2.3 1.4 4.6 1.2 6.5-.9 1.2-1.3 2.3-2.7 3.5-4.1.3-.3.6-.7.9-1 .9-1.4 2.1-1.7 3.5-1.2-.2.3-.1.4.1.6zm-21.4-8.1c1.8 1.8 1.8 1.8 3.6 1.7 3-.3 5.9-.7 8.9-1 .8-.1 1.4-.2 1.8-.8s.8-1.2 1.3-1.8c-.3-.5-.6-1-.9-1.4-.4-.5-.8-1-1.3-1.4-2.6-2.2-8.1-2.2-10.6 0-1.5 1.2-2.4 2.7-2.8 4.7zm-.6 12.6c.2.4.3.6.4.7.2.1.4.1.7.1-.1-.2-.1-.4-.3-.5-.2-.3-.3-.3-.8-.3zm76-27.6c.6-.5 1.3-.9 2.2-1.6 1 .2 2.1.6 3.4.9.8-.5 1.7-1.1 2.5-1.8.9-.8 1.8-1.2 3-.8.9.3 1.6.1 2.3-.3 1.4-.6 2.6-.5 3.8.5 1 .9 2.2 1.6 3.1 2.6.9.9 1.7 1.8 1.4 3.4-.1.7.1 1.8 1.4 1.8.2 0 .4.3.6.5.1.2.2.5.3.8.5 3.3 1.2 6.5.7 9.9-.6 3.5-2.3 6.4-4.9 8.9-1.4 1.3-3 1.8-4.9 2.1-1.8.2-3.6.1-5.4-.4-.7-.2-1.4-.4-2.2-.6-1.1.5-2 1.8-3.5 1.8-1.7-1.3-2.2-3.1-1.8-5.2.4-1.8.3-3.4-.3-5-.3-.8-.4-1.6-.4-2.3-.2-4.5-1.1-8.9-1.4-13.4.1-.7.1-1.2.1-1.8zm19.6 5.9c-1-.9-2.2-2.1-3.5-3.3-.6-.6-1.4-.8-2.2-.6-1.4.2-2.9.4-4.4.6-.8 1.1-1.7 2.2-2.5 3.4-1 1.6-1.4 3.3-1.1 5.1.2 1 .3 2 .3 3-.1 2.2 1.1 3.9 2.5 5.5 1 1.1 2.2 1.8 3.8 2 .5 0 1.1 0 1.6.2 1.6.7 2.9 0 3.9-1 1.8-1.7 3-3.6 2.9-6.1-.1-1.7-.4-3.4-.5-5.1-.5-1.1-.7-2.2-.8-3.7zm52.4.8c-.5.2-.9.4-1.3.5-1.8.4-2.6-.2-3-2.2-.2-1.2-.3-2.3-.5-3.4s-.4-2.2-.8-3.1c-.6-1.6-1.6-2.2-3.4-2-.8.1-1.6.1-2.5.1-.5 0-.9-.1-1.4-.2-.8-.3-1.4-.8-1.6-1.7-.2-1 .2-1.8 1-2.3 1.1-.7 2.3-1 3.6-1.1 1-.1 2 0 3-.3 2.2-.6 3-.6 4.6.6.9.6 1.8 1.2 2.6 1.8 1.2-.4 1.8-1.2 2.7-1.8 1-.7 1.8-1.4 2.7-2.2.7-.6 1.4-.8 2.2-.7 1 .1 2 0 3 0 1.2 1 2.6 2.1 3.9 3.1.1 1.3.2 2.6.2 3.9.1 1.1-.3 2.2-.9 3-1.1 1.6-3 1.8-4.4.8-.9-.7-1.7-1.2-2.1-2.5-.3-1.2-1.3-1.8-2.2-2.6-1.8 1.2-3.4 3-4.6 5.2-.6 2.4-.7 4.7-.8 7.1zm-3.8-11.2c-.1-.1-.1-.3-.2-.4 0 .1-.2.1-.2.2s.1.3.2.4zm-101.2 10.7c-4.1 3.5-5.5 6.3-5.9 12-.3.1-.7.4-1.1.5-2.2.4-2.9 0-3.1-2.2-.2-1.6-.5-3.3-.7-4.8-.1-.7-.4-1.4-.7-2.1-.6-1.4-1.7-2-3.3-1.7-1.3.3-2.5.2-3.8-.2-.9-.2-1.4-.8-1.6-1.7-.2-1 .1-1.8 1.1-2.2.8-.4 1.7-.6 2.6-.9 1.7-.5 3.4 0 5-1 1.1.1 2.2.1 3 .7 1.1.8 2.2 1.6 3.5 2.2 1.6-1.2 3-2.2 4.5-3.5 1.1-.9 2.2-1.3 3.4-1.2.9.1 1.8 0 2.6 0 1.3 1 2.5 2.1 3.8 3 .1 1 .3 2 .4 3 .1 1.2 0 2.3-.5 3.4-1 2.2-3.1 2.7-5.1 1.3-.8-.6-1.4-1.1-1.8-2.2-.1-1-1.3-1.8-2.3-2.4zm-9.7.9c-.1-.1-.1-.3-.2-.4 0 .1-.1.1-.1.2 0 .2 0 .3.1.4.1 0 .1-.1.2-.2zm-81.9 8.6c-2 1.4-3.3 3.4-4.4 5.3-1.3 2-1.4 4.2-1.3 6.4-.2.2-.3.4-.5.5-3 1-3.8.5-4.1-2.6-.2-1.4-.4-3-.7-4.5-.1-.7-.4-1.4-.8-2.1-.6-1-1.4-1.4-2.7-1.3-1 .1-2 .2-3 .1-.6 0-1.3-.3-1.8-.6-1.2-.7-1.3-2.3-.3-3.3.9-.9 2.1-1.2 3.3-1.4.9-.1 1.8-.1 2.6-.2.4 0 1 0 1.3-.3 1.4-1 2.7-.3 3.9.4 1.1.6 2.1 1.4 3.3 2.2 1.6-1 3-2.2 4.3-3.3 1.3-1.2 2.6-1.8 4.4-1.4.6.1 1.3 0 2.1 0 1.2 1 2.6 2.1 3.8 3 .1 1.1.3 2.1.3 3 0 1.1-.1 2.2-.4 3.1-.5 1.6-1.7 2.3-3.3 2.2-.4 0-1-.1-1.3-.4-.9-.8-2.2-1.3-2.3-2.7-.2-.7-1.3-1.5-2.4-2.1zm-9.7 1c0-.1.1-.2.1-.2s-.1-.1-.2-.1c0 .1-.1.2-.1.2.1 0 .2 0 .2.1zm94.1 3.9 2.1.9c.6 1.8.9 3.9 3 4.9 1.3-.2 2.6-.4 4.1-.7.5.6 1.4.6 1.8 1.6.7 1.4.4 3-1.1 3.6-.7.4-1.4.6-2.3.7-3.9.5-7.8 1-11.7 1.4-1.3.1-2.5.1-4 .2-.5-.6-1.1-1.3-1.7-2 0-.9.4-1.6 1.2-2.2.7-.5 1.2-1.1 2-1.8.7.1 1.6.3 2.6.5.5-.6 1.1-1.3 1.6-2 .1-3.6.1-3.6 2.4-5.1zm-99.8 22c-.5-.6-1.1-1.2-1.6-1.7 0-1.1.5-1.7 1.3-2.2.7-.5 1.3-1.3 1.8-2 .8.2 1.6.4 2.5.7.6-.7 1.2-1.4 1.8-2.2-.4-2.1-.2-4.1 2.3-5 .6.2 1.3.4 2.1.7.1.3.4.7.5 1.2.4 1.6 1.1 2.9 2.6 3.8 1.4-.2 2.7-.4 4.3-.6.3.2.8.4 1.2.8 1.4 1.3 1.4 3.4-.3 4.3-.6.4-1.3.6-2.1.7-2 .3-3.9.5-5.9.7-3.3.3-6.7 1.1-10.5.8zm200.8-22.9c.3-2.1 2.2-2.6 3.1-4.1 1 .2 1.8.5 2.6.7.6-.7 1.2-1.4 1.7-2.2-.1-2-.4-4.1 2.5-5 .5.2 1.2.4 2 .7.1.3.3.5.4.8.8 2.6.8 2.7 2.6 4.2 1.4-.2 2.7-.4 4.3-.6.2.2.5.4.8.6 1.1.5 1.4 1.4 1.4 2.5 0 1.2-.8 2.1-1.8 2.3-1 .3-2.1.5-3.1.6-1.8.2-3.5.4-5.4.6-3 .3-5.9.7-8.9 1.1-.9-.8-1.4-1.5-2.2-2.2zm-261.9-2.1c-1.6.3-2.7.5-4.1.8-.1-.7-.2-1.2-.2-1.7-1.4-1.1-3-1.7-4.7-1.4-1.1.1-1.1 0-3.4-1.7.1-.6.2-1.3.4-2.1 1.4-.5 3-.9 4.3-1.4.3-.1.7-.2 1-.5.7-.7 1.7-.7 2.6-.7 2.6-.1 3.4.6 3.8 3.1.2 1.3.3 2.6.4 4 0 .5-.1 1-.1 1.6zm204.9-21.4c-1.4.3-2.6.5-4 .7-.1-.4-.1-.8-.2-1.1-.1-.2-.2-.6-.4-.7-1.2-.5-2.2-1.7-3.6-1.4s-2.7-.4-3.9-1.3c-.1-.2-.2-.3-.2-.5 0-.5.1-1.1.2-1.6 1.4-.6 2.6-1.4 4-1.6.6-.1 1.2-.5 1.7-.8 1.4-.8 2.7-.8 4.1-.3.8.3 1.4.8 1.7 1.7.4 2.4.8 4.6.6 6.9zm52.7 24.2c-1.3 2.3-1.3 2.3-2.7 2.5.7-1.2 1.5-2 2.7-2.5z"/><path d="m174 238.9c-.7-.6-1.4-1.2-2.2-1.8.4-.1.6-.3.7-.2.7.4 1.2 1 1.5 2zm122.5 2-.4-.4v-.5c0-.1.1-.2.2-.4.7.2 1.1.7 1.6 1.7-.8-.2-1.1-.3-1.4-.4zm-115.3-9.8c.7.6 1.2 1.1 1.7 1.6-.2.2-.4.4-.4.3-1-.6-1-.6-1.3-1.9zm13.3 6.4h-1c0-.1 0-.4.1-.4.2-.1.5-.2.7-.2-.1-.1-.1.2.2.6zm-20.5 1.4c.1.1.2.1.4.2v-.4c-.1 0-.4.1-.4.2zm120.8.7h-.2s-.1-.1-.1-.2h.3zm-75.5-91.3c.4 0 .7-.1 1-.1h9.2c.9 0 1.8.1 2.7.3 2.3.4 4.1 1.7 5.4 3.6 1 1.4 1.4 3 1.8 4.7.4 1.8.6 3.5.6 5.4v8.6c0 1.6-.3 3-.8 4.5-.5 1.4-1.2 2.7-2.2 3.8-.1.1-.2.2-.2.3v.2c.1.1.1.2.2.3 1.7 1.7 2.5 3.8 2.9 6.1.2 1.2.3 2.5.3 3.8v9.7c-.1 2.5-.5 4.9-1.6 7.3-1.1 2.5-3 4.3-5.6 5-.8.2-1.7.4-2.5.4h-11c0-.3-.1-.5-.1-.7v-.8-60.6c-.1-.7-.1-1.2-.1-1.8zm8.5 35.6c0 .3-.1.6-.1 1-.1 8.2 0 17.7.2 18.8.7.1 1.4.1 2.1 0s1.2-.5 1.4-1.2c.1-.4.2-.9.2-1.3v-14.6c0-.4 0-.9-.2-1.3-.2-.7-.7-1.2-1.4-1.2-.7-.3-1.4-.3-2.2-.2zm0-8.8c.7.2 1.3.1 1.8.1 1.1 0 1.6-.4 1.8-1.4.1-.3.1-.6.1-.8v-13.9c0-.4-.1-.9-.2-1.3-.2-.5-.6-.8-1.1-.9-.8-.2-1.7-.2-2.5 0 .1 6 .1 12 .1 18.2zm119.9-26.8c.9-.1 6.6-.2 7.9-.1.1 0 .3.1.5.1v53.4c.1 1.1.8 1.7 1.8 1.7s1.7-.6 1.8-1.6c.1-.7.1-1.4.1-2.1v-49.9-1.6c.7-.2 1.4-.1 2.1-.1h6.4c0 .3.1.6.1.8v48.9c0 2.1-.2 4.1-.7 6.1-.2 1.1-.6 2.1-1.1 3-1.4 3-3.8 4.5-6.9 4.9-1.7.2-3.4.1-5-.4-2.1-.6-3.6-1.8-4.7-3.6-1.1-1.6-1.6-3.4-1.8-5.3-.3-1.8-.4-3.6-.4-5.4v-47.3c-.2-.3-.4-.9-.1-1.5zm-63.6 31.8v17.7c0 2.2-.2 4.4-.8 6.5-.3.9-.6 1.8-1.1 2.6-1.3 2.6-3.4 4.2-6.3 4.7-1.8.3-3.6.3-5.4-.2-2.2-.6-4-2-5.2-4-1.1-1.8-1.6-3.8-1.8-5.9-.2-1.4-.3-3-.3-4.5v-34.5c0-2.2.2-4.4.8-6.5.3-1.3.8-2.5 1.4-3.5 1.3-2.2 3.3-3.5 5.7-4 1.8-.4 3.6-.4 5.4.1 2.2.5 3.8 1.7 5 3.4 1 1.4 1.6 3 2 4.7.4 1.8.6 3.8.6 5.6zm-8.5.1v-3.3-17.1c0-.6 0-1.2-.1-1.8-.2-1-.9-1.4-1.8-1.4s-1.6.5-1.8 1.4c-.1.5-.1 1-.1 1.4v41.8c0 .4.1.7.2 1.1.2.4.5.8.9.9 1.2.5 2.3-.1 2.6-1.4.1-.6.1-1.2.1-1.8zm-121.3 31.7c-.3 0-.5.1-.7.1h-7.6c-.1 0-.1-.1-.2-.1v-.5c2.7-20.9 5.5-41.7 8.3-62.5 0-.2.1-.4.2-.6.9-.2 6.9-.2 8.1 0 .1.2.2.5.2.8.5 3.9 1 7.7 1.6 11.6.6 4.5 1.2 9 1.8 13.6.5 3.9 1 7.8 1.6 11.7.5 3.9 1.1 7.8 1.6 11.7.4 3.4.9 6.5 1.3 9.9.1.9.3 1.8.4 2.6.1.5.1 1 .2 1.4-.2 0-.4.1-.6.1h-7.4c-.1 0-.2 0-.4-.1-.4-1.4-.4-3-.7-4.5-.2-1.4-.4-3-.6-4.4-1-.2-4.3-.2-5.6-.1-.3.9-.3 2-.4 3-.2 1.1-.2 2.1-.4 3.1-.4 1.3-.5 2.3-.7 3.2zm3.8-34.1c0 .2-.1.5-.1.7-.1 3.3-.6 6.5-.9 9.8-.2 1.4-.4 3-.5 4.5 0 .3-.2.7.1 1.1 1 0 2.1.1 3-.1 0-.2.1-.3.1-.4-.5-5.1-1.3-10.2-1.6-15.4 0-.1 0-.1-.1-.2zm149.2-29.5c1.1-.2 16.7-.2 17.8 0 0 .2.1.3.1.5v7.3c0 .2-.1.4-.1.7h-9.1c-.4.5-.3.9-.3 1.4v16.3c0 .2 0 .5.1.8 1.8.2 3.4 0 5.1.1.1.2.2.3.2.4v7.3c0 .2 0 .4-.1.6-.2 0-.5.1-.7.1h-4.6c0 .3-.1.6-.1.9v18c0 .3 0 .6.1.9.4 0 .8.1 1.1.1h8.1c0 .3.1.5.1.7v7.6c-.4.4-.9.2-1.2.2h-16.7c0-.3-.1-.5-.1-.8v-1-60.5c.3-.5.3-1 .3-1.6zm89.8 63.8h-7.9c-.1 0-.3-.1-.5-.1 0-.1-.1-.3-.1-.4v-62.9c0-.1.1-.2.1-.4.3 0 .5-.1.8-.1 6.1-.1 19.1-.1 20.1.1 0 .1.1.1.1.2v8l-.1.1h-12.3c-.3.2-.2.6-.2.9v17.5c.3 0 .5.1.8.1h3.5c.3 0 .6 0 .9.1.1.2.1.2.1.3v8.2c-.3 0-.6.1-.8.1h-3.3c-.4 0-.7 0-1.1.1-.2.5-.1 1-.1 1.4zm-279.8-8.5h6.2c1 0 2-.1 3 .1 0 .2.1.3.1.5v7.4c0 .1-.1.2-.1.3-1 .1-16.7.1-17.7 0 0-.2-.1-.4-.1-.7v-1-60.3-1.6c1.4-.2 2.9-.1 4.2-.1h4.1c0 .3.1.5.1.8v52.9c.1.5.1 1 .2 1.7zm142.4-76.3c.8 2.5 1.6 4.8 2.5 7.4.2-.5.4-.8.6-1.1 1-.2 3.4-.2 4.4 0 0 .3-.1.5-.1.8-.7 2.6-1.4 5-2.2 7.6-.1.3-.2.7-.1 1.1.8.5 1.4-.3 2.2 0 .2.8.2 3.8 0 4.9-.2 0-.4.1-.7.1h-1.8c-1 0-1.8-.2-2.7-.8-.1-.1-.2-.1-.2-.1-1 .3-1.8.6-2.7.8-1.1.2-2.2.2-3.3 0-1.8-.4-3.3-1.4-4.1-3.3-.5-1.1-.8-2.2-.9-3.4-.2-2.2-.3-4.6.2-6.9.4-2.2 1.3-4.3 2.6-6.1.2-.3.4-.7.7-1.1-.3-1-.7-2-1-3-.5-1.7-1-3.4-1.2-5-.3-2-.3-3.8.1-5.7.2-.8.5-1.6 1-2.3.7-1.1 1.7-1.8 2.9-2.1.9-.2 1.8-.3 2.6-.2 1.7.2 3 1.1 3.6 2.6.6 1.2.8 2.5 1 3.8.2 2.5-.2 4.8-1.1 7-.5 1.4-1.2 2.6-1.8 3.9-.1.4-.2.8-.5 1.1zm-3.2 5.9c-.1.2-.2.2-.3.3l-.3 1.8c-.3 1.8-.2 3.5-.1 5.3 0 .5.1 1 .2 1.4s.4.9.8 1c1 .2 1.8.3 2.7-.4-.2-.9-2.2-7.4-2.7-9-.2-.1-.3-.2-.3-.4zm.9-11.5c.4-.4.4-.9.5-1.4.4-1.4.7-3 .7-4.5 0-.4 0-.7-.1-1.1s-.4-.6-.8-.6-.7.2-.8.6c-.1.6-.2 1.1-.2 1.7 0 .8.1 1.6.2 2.2.1 1.1.1 2.1.5 3.1zm152.7 5.6v1.4c-.3 0-.5.1-.7.1h-134.9c-.3-.5-.2-1-.1-1.4.2 0 .5-.1.7-.1h133.1c.7-.1 1.3-.2 1.9 0zm-302.6 1.4c-.1-.5-.2-1 0-1.4.2 0 .3-.1.5-.1h134.6c.1 0 .2.1.4.1v1.4c-.2 0-.4.1-.7.1h-133.2c-.4.1-1 .1-1.6-.1zm302.6 3.9c.1.3.1.4.1.5v.9c-.3.1-.5.1-.7.2h-133.4c-.5 0-1.1.1-1.6-.1-.2-.4-.1-.9-.1-1.4.2 0 .5-.1.7-.1zm-302.6 1.5c-.1-.6-.1-1 0-1.4.2 0 .3-.1.5-.1h134.9c.3.5.2.9.2 1.4-.2.1-.5.1-.7.2h-133.2c-.5-.1-1-.1-1.7-.1z"/><path d="m223 112.1c0-.2-.1-.4-.1-.5v-62.8c0-.1.1-.2.1-.4.3 0 .6-.1.9-.1h9.5c1.4 0 3 .3 4.3.9 2 .9 3.4 2.3 4.2 4.3.8 1.6 1.2 3.3 1.4 4.9.2 1.4.3 2.9.3 4.3v7.3c0 1.7-.2 3.4-.7 5-.5 1.7-1.2 3.1-2.5 4.3-.1.1-.1.2-.2.3 0 .1 0 .2.1.2 1.8 1.8 2.6 3.9 3 6.3.2 1.3.3 2.5.3 3.8v8.6c0 2.2-.3 4.5-1 6.8-.5 1.6-1.2 3-2.3 4.2-1.3 1.4-2.9 2.2-4.6 2.5-.8.2-1.7.2-2.6.3h-9.4c-.2-.1-.4-.2-.7-.2zm8.5-28.2c0 .2-.1.3-.1.4v18.8c0 .1.1.2.1.4.7.1 1.4.1 2 0 .8 0 1.3-.5 1.4-1.2.1-.5.2-1 .2-1.4v-14.4c0-.4-.1-.8-.1-1.2-.2-.9-.7-1.4-1.6-1.4-.6-.1-1.3-.1-1.9 0zm.1-8.5h2c.8-.1 1.4-.5 1.4-1.3.1-.6.2-1.1.2-1.7v-8.5-4.3c0-.6-.1-1.1-.2-1.7-.1-.5-.4-.9-.9-1.1-.6-.2-1.8-.2-2.6 0-.2 1.5-.2 17.5.1 18.6zm-60 36.6c-.9.2-7.3.2-8.5 0-.5-3-.8-6-1.3-9-1-.3-2-.1-2.9-.1s-1.8-.1-2.7.1c-.5 3-.7 6.1-1.1 9-.2.1-.3.1-.4.1h-7.7c-.1 0-.2-.1-.3-.1 0-.1 0-.1-.1-.1v-.1c2.7-21.1 5.6-42.2 8.5-63.4.2-.1.4-.1.6-.1h7c.2 0 .3 0 .5.1.3.6.3 1.3.4 2 .7 4.8 1.3 9.6 2 14.4.6 4.5 1.2 9 1.8 13.6.6 4.5 1.2 9 1.8 13.6.5 3.9 1 7.8 1.6 11.7.3 2.6.7 5.2 1 7.7-.2.2-.2.4-.2.6zm-12.6-34.6c-.2 1.8-.3 3.6-.5 5.5l-.6 5.4c-.2 1.8-.4 3.6-.6 5.5.6.3 1.2.2 1.7.1.6 0 1.1.2 1.7-.2-.5-5.4-1.3-10.8-1.7-16.3zm118.1-2c.8.1 1.7 0 2.6 0h2.5c.1.2.1.3.1.4v7.6c0 .1-.1.2-.1.4-1.7.2-3.4 0-5.1.1-.1.2-.1.4-.1.7v19c.4.4.8.3 1.1.3h6.9c.4 0 .8 0 1.3.1.2 1.4.1 2.9.1 4.2v4.2c-.3.1-.4.1-.6.1h-17.2c-.1-.3-.2-.5-.2-.7v-1.1-60.3-1.4c.4-.4.8-.3 1.1-.3h15.5c.4 0 .8 0 1.3.1.2 1.4.1 2.9.1 4.2v4c-.4.3-.8.3-1.1.3h-8c-.1.1-.1.1-.1.2v17.6c-.1-.1-.1.1-.1.3-.3-.2-.2-.2 0 0zm123.2-18.5c0 .3-.1.5-.1.7v17.7c.3.1.5.1.8.1h4.6c.1.3.1.5.1.8v6.9c0 .2 0 .4-.1.6-.6.3-1.1.1-1.7.1h-3.6c0 .4-.1.7-.1 1v18.7c.4 0 .8.1 1.1.1h6.9c.4 0 .8 0 1.3.1.1 1.4 0 2.9.1 4.2v4c-.5.3-.9.2-1.4.2h-15.6c-.3 0-.6 0-.9-.1 0-.2-.1-.4-.1-.6-.1-3 0-62 .1-63 .3-.3.6-.2.9-.2h15.5c.4 0 .9 0 1.4.1.2.8.1 1.4.1 2.1v4.3c0 .7 0 1.4-.1 2.1-1.1.2-2.1.1-3 .1zm-49.4-8.5c1.2-.2 7.3-.2 8.5 0 0 .2.1.4.1.7v52.9c0 .5 0 1 .1 1.6 1.1.2 2.1.1 3 .1h6.1c.1.2.2.4.2.6v7.3c0 .2 0 .3-.1.4l-.2.2h-17c-.2 0-.3 0-.5-.1 0 0-.1-.1-.2-.1 0-.1-.1-.3-.1-.5.1-21 .1-42 .1-63.1zm-242.7 0c1.1-.2 5.7-.2 7.8-.1.2 0 .4.1.7.1.1 1.6 0 3 0 4.6v50.7c.5.3.9.2 1.3.2h6.9c.4 0 .8-.1 1.2.1.2.9.2 7.2 0 8.3-.2 0-.4.1-.6.1h-16.7c-.1 0-.2 0-.4-.1 0-.2-.1-.4-.1-.7v-1.1-60.3c-.1-.6-.1-1.2-.1-1.8zm210.3 55.1c1.2.2 2.2.1 3.1.1h6.1c.1.3.1.5.1.7v6.9c0 .2 0 .5-.1.7-.1.1-.1.1-.2.1h-17c-.2 0-.3 0-.6-.1 0-.2-.1-.5-.1-.7v-1-60.5c0-.5-.1-1.1.1-1.6.9-.2 1.8-.1 2.7-.1h2.7c.9 0 1.8 0 2.9.1 0 .3.1.5.1.7v52.7c.2.8.2 1.4.2 2z"/><path d="m74.5 185.1c-.6-.3-1.2-.7-1.8-.9-.6-.3-1.2-.5-1.8-.7-.7-.2-1.4-.3-2-.4s-1.3-.1-2-.1-1.4.1-2.1.2c-.6.1-1.3.2-1.8.4-.7.2-1.3.4-1.8.7-.6.3-1.1.6-1.8.9-.1-.2-.1-.4-.1-.5 0-1.3-.1-2.5-.1-3.8v-10.1-6.3c-.1-7.3-.1-14.7-.2-22.1 0-3.8 0-7.4-.1-11.2 0-1.4-.1-1.7-1.4-2.1-1.4-.5-3-.9-4.4-1.3-2.6-.6-5.1-1.2-7.7-1.8-.6-.1-1.3-.3-1.8-.5-1.1-.3-2.1-.8-3-1.6-1.3-1.1-1.8-2.3-2-4 0-1.1-.1-2.2-.2-3.4-.2-3.5-.3-6.9-.5-10.5-.1-2.7-.2-5.5-.4-8.3-.2-3.5-.3-6.9-.5-10.5-.2-3.4-.3-6.8-.5-10.1-.2-3.8-.3-7.4-.5-11.2-.2-4.4-.3-8.7-.5-13.2 0-1.2-.2-2.3.1-3.4.2-1.1.6-2 1.4-2.7.9-1 2.1-1.3 3.4-1.4h52.9c2.6.2 4.4 1.8 4.7 4.6.1.7.1 1.4.1 2.1-.1 2.5-.1 4.9-.2 7.3-.1 3.1-.2 6.3-.4 9.4-.2 3.8-.3 7.4-.5 11.2-.2 3.4-.3 6.8-.5 10.2s-.3 6.9-.5 10.3-.3 6.6-.5 10c-.1 3.1-.3 6.4-.4 9.5-.1 1.7-.7 3-2 4.1-.9.8-1.8 1.3-3 1.6-2.5.6-4.8 1.1-7.3 1.7-1.8.5-3.8 1-5.7 1.4-.6.2-1.1.4-1.7.7-.5.2-.8.6-.7 1.2v25.1c-.1 6.8-.1 13.4-.2 20.2 0 2.1 0 4.2-.1 6.3 0 .9-.1 1.8-.1 2.6.3.1.3.2.2.4zm-9.8-106.6v18.5c0 .5 0 1 .2 1.4.2.8.8 1.3 1.7 1.4h.7c1-.1 1.6-.6 1.8-1.4.1-.4.1-.9.1-1.3v-36.9c0-.4 0-.8-.1-1.2-.1-.5-.4-1-.8-1.3-1.4-1-3.4-.1-3.5 1.6v1.1c-.1 6-.1 12.1-.1 18.1zm20.3-.3c-.1 0-.1 0 0 0 0-2.9.1-5.7.2-8.6.1-3.4.1-6.6.1-10 0-.3 0-.6-.1-.8-.1-.5-.4-1-.9-1.3-1.4-1-3.4-.1-3.4 1.7-.1.8-.1 1.6-.1 2.3 0 1.8 0 3.5-.1 5.3v3.9c-.1 2.6-.1 5.4-.2 8.1-.1 4.1-.1 8.2-.2 12.4 0 1.6-.1 3.1-.1 4.7v1.7c.1 1.4.9 2.2 2.3 2.2h.2c.9-.1 1.6-.6 1.8-1.4.1-.5.2-1.1.2-1.6 0-1.7 0-3.4.1-5 0-1.4 0-2.7.1-4.1-.1-3.2 0-6.3.1-9.5zm-31.4.3c-.1-1.8-.1-3.4-.1-5.2-.1-4.1-.1-8.1-.2-12.2 0-.6 0-1.1-.1-1.7-.1-1.7-1.3-2.6-3-2.2-.8.2-1.4.8-1.4 1.6-.1.4-.1.7-.1 1.1 0 1.4 0 2.9.1 4.2.1 4.1.1 8.2.2 12.4.1 3.9.2 7.7.2 11.6 0 2.9.1 5.7.1 8.6 0 .5.1 1 .2 1.4.1.8.6 1.4 1.4 1.4.9.2 1.7.2 2.3-.5.5-.5.6-1 .6-1.7v-2.2c-.1-3.3-.1-6.4-.2-9.6zm13.4 29.2c1 0 2.1-.7 2.1-2.1 0-1.1-1-2-2-2-1.1 0-2 .9-2.1 2-.1 1.2.8 2.1 2 2.1zm15.1 0c1.1 0 2-.9 2.1-2 0-1.2-.9-2.2-2-2.2s-2.1 1-2.1 2.1c.1 1.2 1 2.1 2 2.1zm-30.1 8.2c1.1 0 2-.9 2-2 .1-1.1-.9-2.1-2.1-2.1-1.1 0-2 .9-2 2 0 1.2.9 2.1 2.1 2.1zm-2.2-10.3c-.1.9.7 2 2 2.1 1.2 0 2.1-.9 2.1-2.1s-1-2.1-2.1-2.1c-1.2.2-2.1 1.1-2 2.1zm19.2 8.3c0-1.1-.9-2.1-2-2.1-1.2-.1-2.2.9-2.2 2s.8 2.1 1.8 2.1c1.5 0 2.4-.9 2.4-2zm15-.1c0-1.1-.8-2-2-2.1-1.2 0-2.1.9-2.1 2.1 0 1.1.8 2 2 2.1 1.3 0 2.1-.9 2.1-2.1z"/><path d="m53.7 228.5v-4.1c0-1.8 0-3.8.1-5.7.1-4.2.2-8.3.2-12.4.1-3.3.1-6.4.2-9.6 0-3.1 1-5.9 3-8.3 2.6-3 5.7-4.5 9.7-4.6 5.7-.2 11.3 3.8 12.6 9.9.2 1 .3 2 .4 2.9.1 3 .1 5.9.1 8.9.1 4.2.2 8.3.2 12.4.1 2.9.1 5.7.2 8.6 0 2.9.1 5.6.1 8.5.1 3.8.1 7.7.2 11.6.1 4.5.1 8.9.2 13.4.1 4.3-1.8 7.7-5.1 10.3-3 2.3-6.4 3.4-10.1 3-3.3-.3-6.1-1.7-8.5-3.8-2-1.8-3.4-4-3.9-6.6-.1-.7-.2-1.4-.2-2.2 0-3.4.1-6.9.1-10.3 0-3 .1-6 .2-8.9 0-2.9.1-5.6.1-8.5.1-1.4.1-3 .2-4.5-.1 0-.1 0 0 0zm24.3 23c-.7-.8-1.4-.9-2.5-.7s-2.1.8-3 1.4c-.6.4-1.2.7-1.8 1-.5.3-1.1.3-1.7 0-.4-.2-.8-.2-1.3-.1-.6.1-1.2.1-1.8 0-.4-.1-.8-.1-1.2.2-.6.4-1.3.3-1.8 0-.5-.2-.9-.5-1.4-.8-.6-.4-1.2-.8-1.8-1-.6-.3-1.2-.4-1.7-.6-.9-.2-1.6 0-2.2.7l.1.1h.2c1.3-.3 2.3.1 3.4.8 1 .7 2 1.4 3 2.2-.1.1-.2.2-.3.2-.2.1-.4.2-.4.4 0 .3.2.4.5.5.4.1.8.1 1.2.1.3 0 .6-.1 1-.2.2.5.3.9.5 1.3l.6 1.2c.2.5.3 1 .1 1.6-.2.5 0 1 .2 1.4s.5.6 1 .6.8-.2 1-.6c.2-.5.3-1 .2-1.6-.1-.5-.1-1 .2-1.4.4-.8.7-1.4 1.1-2.3.3.1.7.1 1 .2.5.1 1 0 1.4-.3.2-.1.2-.5 0-.6s-.4-.2-.5-.4c.9-.6 1.6-1.2 2.3-1.8.3-.2.7-.5 1-.7.9-.6 1.8-.8 2.9-.6.2-.2.3-.2.5-.2z"/><path d="m3024.6 133.4v37c0 5.2 2.3 8.9 7.1 10.7 3.9 1.4 8 2.6 11.9 3.9.8.2 1.7.5 2.4.9 1.1.6 2 1.7 1.4 3.1-.5 1.3-1.3 2.3-3.1 2.2-6.2-.5-12.5-.8-18.7-1.2-9-.5-18 .5-26.9 1.7-1.4.2-3 .4-4.4.5-1.8.1-3.2-1-3.4-2.5-.2-1.3.8-2.6 2.6-3.1 3.7-1 7.4-2.1 11.2-3.2 4.4-1.4 6.8-4.4 7-9.2.7-14.7 1.7-29.3 2.5-44 .8-14.4 1.7-28.8 2.4-43 .1-2.2-.3-4.3-.7-6.5-.5-2.6-2.2-4.1-4.8-4.8-3.2-.8-6.4-1.7-9.6-2.6-1.2-.3-2.5-.7-3.4-1.4s-2.1-2.2-1.9-3c.2-.9 1.7-1.9 2.8-2.4 1.1-.4 2.6-.4 3.8-.4 6.8.2 13.7.5 20.6.6 2.7 0 5.5-.4 8.2-.8 5.2-.7 8.9 1.3 11.2 6 4.6 9.8 9.1 19.7 13.7 29.5 6.7 14.4 13.4 28.9 20.2 43.2.5 1 1 2.1 1.7 3 .9 1.3 1.7 1.3 2.6-.1.6-1 1.1-2.2 1.7-3.4 9.3-23.6 18.5-47.2 27.8-70.7 2.6-6.5 6.1-8.7 13-8.6 8.7.1 17.3 0 26-.1 2.2 0 4.2-.4 6.4-.5 1.6-.1 3.1-.1 4.6.3 2.7.7 3.2 3.1 1 5-1.6 1.4-3.5 2.2-5.7 2.4-2.8.3-5.7.6-8.4 1.4-5.8 1.9-9.1 7.1-9 13.2.5 26.7 1 53.5 1.7 80.2.2 8.2 3.6 12.8 11.5 15.3 2.5.7 5.1 1.3 7.6 2.1.7.2 1.3.4 2 .7 1.9 1 2.7 2.4 2.3 3.8s-2.4 2.8-4.2 2.7c-4.7-.4-9.4-.8-14.1-1.3-9.4-.8-18.8-.7-28.2 0-4.7.4-9.4.8-14.1 1.1-1.2.1-2.6 0-3.7-.4-2-.6-2.5-2.6-.9-3.9 1.1-1 2.7-1.8 4.1-2.3 2.5-.9 5.2-1.2 7.4-2.4 1.9-.9 3.5-2.4 5-3.8 1.1-1.1 1.3-2.8 1.3-4.4-.5-18.4-.9-36.8-1.3-55.3-.2-7.4-.3-14.8-.5-22.2 0-.9-.1-1.8-.3-2.7-.1-.4-.6-1.1-.9-1.1-.5 0-1.1.4-1.4.7-.4.4-.6 1-.8 1.6-11.4 28.3-22.7 56.6-34 84.9-.7 2-1.8 3.8-2.9 5.6-1 1.7-2.1 1.7-3.3.2-1-1.3-2.1-2.8-2.8-4.3-13.1-28.2-26.2-56.6-39.3-84.8-.4-.9-.8-1.9-1.3-2.7-.2-.3-.8-.7-1.1-.7-.4.1-.8.6-1 1-.2.6-.1 1.3-.1 2v37.7c-.7-.4-.6-.4-.5-.4zm321.9-5.6c11-.6 22-1.2 33-1.9 1.6-.1 3.1 0 4.6.3 1.7.3 3.1 1.1 3.2 3.1s-1.2 3-2.8 3.5c-2.3.7-4.7 1-6.9 1.6-2.3.5-4.6.9-6.7 1.9-2.6 1.1-3.9 3.4-3.9 6.3.1 8.3.3 16.4.4 24.7 0 1.8 0 3.6-.2 5.4-.5 4.4-2.8 7.7-6.6 9.9-6.2 3.7-12.9 5.9-20.1 7.1-11.3 1.9-22.7 2.7-34 1.8-13.7-1.1-26.8-4.3-38.3-12-15.6-10.3-24.5-25.2-26.7-43.6-2.6-21.6 3.8-40.9 19.3-56.5 9-9.1 20.5-13.9 32.8-17.1 12.5-3.3 25.2-3.6 38-2.7 5.4.4 10.9.9 16.1 2.1 8.9 2 12.8 6.9 13.2 16 .1 3.4.1 6.8 0 10.2-.1 2.1-.4 4.3-2.8 5-2.3.5-3.5-1.3-4.6-3.1-1-1.7-1.8-3.4-2.7-5.1-5.5-10.4-13.7-16.7-25.7-17.7-12.8-1-24.8 1-35.5 8.8-9 6.6-14.8 15.4-18.2 26-4.8 14.8-5.8 29.7-.9 44.7 6.8 21.2 27 36.5 49.3 37.4 3.1.1 6.4-.1 9.4-1 10.7-3 13-7.9 13.7-16.2.5-6.9.4-13.9.7-20.7s-4.6-9.4-9.2-9.8c-2.9-.3-5.7-.3-8.6-.4-2-.1-3.8-.4-5.3-1.8-2-1.9-1.8-4.6.8-5.5 1.8-.7 3.8-.9 5.8-.9 6.4-.1 12.9 0 19.3 0 .1-.2.1 0 .1.2zm130.8-11.5c0 17.4-.1 34.8.1 52.1 0 2.8 1 5.6 1.9 8.3.7 2.2 2.6 3.5 4.7 4.4 2 .9 4.1 1.7 6.1 2.6 1.1.5 2.4 1.2 3.2 2.1 1.7 1.7 1.1 3.7-1.2 4.1-2.2.3-4.6.3-6.7 0-12.2-1.6-24.3-1.1-36.4.6-1.9.3-4-.2-5.9-.8-1.8-.5-1.9-2.1-.3-3.1 1.1-.8 2.5-1.3 3.8-1.9 2.3-1 4.7-1.8 6.9-2.9 3.2-1.8 4.8-4.7 4.7-8.3-.4-30-.9-60-1.3-90-.1-5-2.2-8.4-7-10-.3-.1-.6-.2-.8-.3-.7-.7-2.1-1.6-2.1-2.4s1.1-1.8 1.9-2.5c.5-.5 1.3-.7 2.1-.9 6.9-2.6 13.9-5.2 20.7-7.8.7-.3 1.6-.5 2.4-.6 1.4-.1 2.4.6 2.7 2.1.1.7.2 1.6.2 2.3v53c0-.1.1-.1.3-.1zm58.5.1c0 17.5-.1 35 .1 52.5 0 2.9 1.1 5.8 2.1 8.6.7 2.2 2.6 3.5 4.7 4.4s4.2 1.7 6.2 2.6c1.2.6 2.5 1.3 3.3 2.3 1.3 1.4.8 3.1-1 3.5-1.7.4-3.5.3-5.3.2-5.4-.3-10.9-1.2-16.2-1.1-7.7.2-15.2 1.1-22.8 1.7-1.7.1-3.3-.2-4.9-.7-1.9-.6-2.1-2.2-.4-3.3 1.1-.8 2.6-1.3 3.9-2 2-.8 4-1.4 6-2.4 3.7-1.9 5.5-5 5.4-9.1-.3-24.8-.7-49.7-1-74.5-.1-5.4-.1-10.9-.4-16.2-.2-3.9-2.3-6.6-5.9-8.2-1.1-.5-2.3-1-3.3-1.8-1.2-.9-1.2-2.1 0-3 .9-.7 2.2-1.3 3.3-1.8 6.9-2.7 13.9-5.2 20.7-7.9 3.9-1.4 5.3-.5 5.3 3.6v52.5c-.1.1.1.1.2.1z"/><path d="m3177.1 142.6c0 8.5 1.8 16.4 6.9 23.4 8.1 10.7 21 14.4 34.3 9.8 1.9-.6 3.6-1.4 5.5-2.3 2.3-1 4.8-.8 5.6.5s.2 3.7-2.1 5c-4.1 2.5-8.4 4.9-12.8 6.7-10.2 4.1-20.9 5.5-31.3 1.2-15.7-6.3-25-18.2-27.1-35.1-.9-7.8 1.4-15.3 4.8-22.3 6.8-14.3 18.5-22.3 33.6-25.9 8.2-2 16.4-1.9 24.6.4 2.9.8 5.7 2.3 8.1 3.9 3.5 2.5 4.4 6.6 3.2 10.6-1.2 3.7-4.4 5.5-8.3 4.7-3-.6-5.4-2.2-7.3-4.6-1.3-1.6-2.6-3.3-3.9-4.9-3.2-3.8-9.5-6.5-15.9-3.7-8.5 3.6-13.3 10.2-15.8 18.7-1.2 4.3-1.7 9-2.5 13.4.1.4.2.4.4.5zm257.9 48.1c-4.8-.5-9.1-1-13.6-1.6-7.8-.9-15.3.2-23 1.7-2.2.4-4.3.6-6.5.4-.8-.1-2.2-1.1-2.4-2-.2-.8.6-2.2 1.3-2.8 1.3-.9 2.9-1.7 4.4-2.2 8.1-3 9.1-4.4 9.1-13.1v-35c0-1.9-.3-3.8-.6-5.7-.7-3.6-3-5.7-6.5-6.6-1.7-.4-3.6-.7-3.7-2.8-.2-2.1 1.8-2.8 3.4-3.4 1.8-.7 3.6-1.2 5.4-1.9 5.6-1.7 10.6-4.4 15-8.2.8-.7 1.7-1.6 2.6-2 1-.4 2.3-.6 3.3-.3 1.3.4 1.4 1.8 1.3 3-.2 2.2-.7 4.2-.7 6.4-.2 19-.2 38.1-.3 57.1 0 .6.1 1.3.2 2 .5 3.7 2.6 6.3 5.9 8 1.4.7 3.1 1.2 4.7 1.9.7.3 1.6.6 2.2 1.1 1.1.9 2.1 2.2 1.6 3.7-.5 2.1-2 2.3-3.1 2.3zm-141.4 68.1c.5-.3.9-.8 1.4-1 1.9-.8 2.7-2.2 2.7-4.1v-29.7c0-2.8-.6-3.5-3.3-4.2-.5-.1-.9-.4-1.4-1 .5-.2.9-.5 1.4-.5 4.6-.1 9.2-.2 13.8 0 2.3.1 4.7.2 6.8.9 6.2 2 8.4 9.6 4.1 15.1-1.3 1.7-3.2 2.9-5 4.6.3.4.7 1.1 1.1 1.8 2.3 3.4 4.6 6.9 6.7 10.3 2.2 3.3 4.2 6.8 8.7 7.8-2.2 1.7-6.5 1.1-8.8-1-1.2-1.1-2.2-2.5-3.1-3.8-2.5-3.7-4.9-7.3-7.1-11.2-1.1-2-2.7-2.7-5-2.7-5.2.1-4.4-.2-4.4 4.4v8.3c0 3.7.6 4.6 4.2 5.5.7.2 1.3.6 2.1.8-.1.2-.1.4-.2.5h-14.5c0-.5-.1-.7-.2-.8zm8.6-29.7v6.9c0 1.1.5 1.7 1.6 1.7 2.2 0 4.4.1 6.6-.1 2.6-.2 4.7-1.6 5.8-3.9 2.7-5.7-.2-12-6.3-13.4-1.8-.4-3.5-.4-5.3-.5-1.6-.1-2.3.8-2.3 2.3-.1 2.4-.1 4.6-.1 7zm-238.4-10.9c1.1.1 2.4.4 3.4.1 2.5-.7 3.7.6 5.1 2.2 8.6 9.7 17.4 19.4 26.1 29.1.4.5.9 1 1.3 1.7.2-.1.3-.2.5-.2 0-.6.1-1.2.1-1.9v-22.3c0-4.8-.8-5.9-5.3-7.4-.4-.1-.8-.4-1.1-1h12.5c-.6.5-.9.9-1.3 1-1.9.8-2.4 2.3-2.4 4.1v33.6c0 .7-.1 1.4-.2 2.8-1-.9-1.9-1.3-2.5-2.1-8.5-9.5-16.9-19-25.2-28.6-.3-.4-.5-.9-.7-1.4-.2.1-.5.3-.7.4-.1.6-.3 1.2-.3 1.8v23.3c0 2.8.7 3.7 3.5 4.3.3.1.6.1.8.2.3.2.4.4.6.7-.3.2-.6.6-.9.6-1.2 0-2.4-.2-3.6-.2-2.2 0-4.4.2-6.6.2-.4 0-.9-.3-1.3-.5.3-.3.5-.8.8-.9 3.4-.8 4.1-3.4 4.1-6.4v-23.3c0-1.4-.3-3-.7-4.3-.6-2.3-2.1-3.7-4.3-4.3-.6-.2-1.1-.4-1.8-.6.1-.3.1-.5.1-.7zm205.4 33c0 .7.1 1.1 0 1.7-.6 3.2-4.4 6.6-7.7 6.6h-20.8c-.4 0-.9-.1-1.4-.6.5-.3 1-.6 1.6-.8 1.6-.5 2.4-1.6 2.5-3.1.1-.8.2-1.7.2-2.5v-27c0-.6 0-1.3-.1-2-.2-2-1-3.4-3.2-3.7-.5-.1-1-.4-1.6-.6v-.5c.7-.1 1.4-.3 2.1-.3h23.6c1.1 0 1.7.4 1.6 1.6-.1 1.6-.2 3.2-.4 4.8-.1.5-.3 1-.5 1.6h-.5c-.1-.7-.4-1.3-.4-2.1-.1-1.9-1.1-3-2.9-3.1-3.9-.2-7.9-.3-11.8-.3-.5 0-1.4 1-1.4 1.6-.1 4.6-.1 9.2 0 13.8 0 .4.7 1.1 1.1 1.1 2.9.1 5.9.1 8.8 0 1.8-.1 3-1 3.5-2.8.2-.5.4-1 1.1-1.6.1.4.4.8.4 1.3v9.3c0 .4-.3.8-.5 1.2-.3-.4-.7-.7-.8-1.1-1-3.5-1.6-3.8-5.2-3.8h-6.8c-1.3 0-1.8.5-1.8 1.9.1 4.3 0 8.6 0 12.9 0 2.2.6 2.8 2.7 3 5 .3 9.9-.1 14.4-2.7 1.6-1.4 2.7-2.6 4.2-3.8zm-272.1-32.9h12.7c0 .2.1.3.1.5-.5.2-1.1.5-1.7.7-1.2.4-2.2 1.2-2.2 2.5 0 8.2-.3 16.3.3 24.5.4 6.4 4.9 10.1 11.3 10.9 1.9.2 3.7.2 5.5-.1 6.4-.9 10.2-5.1 10.4-11.7.2-7.2.1-14.6.1-21.8 0-2.3-1-3.3-3.2-3.9-.8-.2-1.6-.5-2.3-.8 0-.2.1-.4.1-.6h11.5c-.4.5-.5.8-.8.9-2.6 1.1-3 3.3-3 5.8v18.6c0 1.8-.1 3.5-.5 5.2-1.6 6.6-6.1 10.4-13.2 11-3 .2-6.1 0-9.1-.6-6.8-1.3-11.1-6.1-11.4-13-.3-7.2-.2-14.5-.3-21.6 0-3.6 0-3.6-3.4-5-.4-.1-.7-.4-1.1-.6.1-.6.2-.7.2-.9zm417.5-157.6c5.8 0 10.7 4.8 10.7 10.4.1 5.8-4.9 10.9-10.6 10.9-5.8 0-10.6-4.8-10.7-10.8 0-5.6 4.8-10.4 10.6-10.5zm-58.7 186.6c.2.4.6.8.7 1.3 2.5 9.3 13.6 11.5 19.9 7.3 2.8-1.9 4-4.6 3.8-7.9-.2-3.2-2.4-4.9-5.1-5.9-2.9-1-5.8-1.9-8.7-2.8-1.7-.5-3.3-1.1-4.8-2-3.7-2-5.5-5.2-5.4-9.4.1-4.1 2.1-7.2 5.8-9 5-2.5 10.1-2.1 15.3-.3 1 .3 2.1.5 3.5.8.3 2.6.6 5.6.9 8.7-.2.1-.4.1-.7.2-.4-.6-.9-1.2-1.1-2-2.5-7.2-11.1-8.8-16.6-6.2-2.7 1.2-4 3.4-4.1 6.4-.1 2.9 1.4 4.8 3.9 5.9 2.8 1.1 5.7 2 8.6 3 1.8.6 3.5 1.2 5.2 2.1 8.2 4 7.4 14.8 1.2 19.1-5.3 3.7-15.1 4.2-20.7.8-.5-.3-1-.8-1.1-1.2-.5-2.6-.9-5.2-1.3-7.8-.1-.3.1-.7.1-1 .3 0 .5-.1.7-.1zm-160 5.6c.6-1.3.9-2.1 1.2-2.8 3.3-8.2 6.7-16.4 10-24.6.3-.7.6-1.6.7-2.4.4-2.2-.1-2.9-2.2-3.5-.5-.2-1-.5-1.3-1.1h9.7c.1.1.1.3.2.4-3.1 1.3-3.6 4.3-4.8 7-4.6 10.8-9.1 21.5-13.7 32.3-.2.5-.4 1.2-.8 1.6-.3.2-1 .2-1.4 0-.3-.2-.4-.8-.6-1.2-4.9-11.7-9.8-23.4-14.6-35.2-.8-1.9-2-3.2-3.9-3.7-.3-.1-.6-.5-.8-.7.3-.2.6-.6.9-.6h9.8c.1 0 .3.2.4.3-.1.2-.1.4-.2.5-2.4 2.3-2.5 2.7-1.2 5.6 3.7 8.7 7.3 17.3 11.1 26 .4.5.9 1 1.5 2.1zm254.3-26.4c-.1-.3-.3-.7-.3-1 .2-2.1.4-4.1.7-6.2.2-1.2 1.1-1.1 2.1-1.1 5.9.1 11.7.2 17.6.2 4.9 0 9.6-.1 14.5-.3 1.7-.1 2.4.5 2.4 2.3-.1 1.3.1 2.6.1 3.9 0 .4-.3.8-.5 1.2-.3-.3-.7-.6-.8-.9-.9-3.2-1.3-3.5-4.7-3.6h-8.4c-1.3 0-1.9.5-1.9 1.9v30.8c0 2.6.6 3.4 3.2 4.2.5.2.9.7 1.3 1.1-.5.1-1 .4-1.6.4h-10.8c-.4 0-.8-.3-1.2-.5.3-.3.6-.9 1-1 3-.7 3.6-2.6 3.6-5.5-.1-9.5 0-19.1 0-28.7 0-2.7-.1-2.8-2.8-2.8h-7.3c-3.2.1-3.7.5-4.8 3.5-.3.7-.6 1.4-.9 2.2-.2-.1-.3-.1-.5-.1zm79.7 9.9c.6-.7 1.1-1.3 1.4-2 2.2-3.4 4.2-6.9 6.4-10.3 1.3-2.3.7-3.8-1.8-4.6-.6-.2-1.2-.5-1.8-.7 0-.2.1-.3.1-.5h10.7c-6 5.6-8.8 13.3-13.7 19.6-.4.5-.6 1.4-.6 2.2-.1 4.3 0 8.6 0 12.9 0 2.9.7 3.8 3.3 4.8.5.2 1 .5 1.6.8 0 .2-.1.3-.1.5h-13.6c-.1-.2-.1-.3-.2-.5.6-.3 1.2-.6 1.9-.8 1.7-.5 2.6-1.6 2.6-3.4v-13.8c0-1-.4-2.2-.9-3-3.2-5.3-6.5-10.6-9.9-15.7-.6-.9-1.8-1.4-2.7-2.2-.5-.3-1.1-.4-1.9-.7.7-.7 11.2-1 12.6-.4-.6.4-1 .7-1.6 1-1.3.7-1.7 1.9-.8 3.1 2.5 4 5 8 7.4 12 .6.5 1 1 1.6 1.7zm-381.4 22.8c-.6.1-1.3.2-2 .2h-10.6c-.5 0-1.1-.4-1.7-.6.4-.4.8-.8 1.3-1 2.4-.9 3.1-1.9 3.1-5v-24-5.2c0-2.7-.5-3.3-3-4.1-.5-.2-1-.4-1.6-.6 0-.1.1-.3.1-.4h12.9c0 .1.1.3.1.4-.5.2-.9.5-1.4.6-2.1.7-2.7 1.6-2.7 3.8v30.4c0 2.5.6 3.2 3 4 .8.3 1.6.6 2.4.8.1.2.1.4.1.7zm276 0c-.5.1-1.1.2-1.7.2h-10.9c-.5 0-1-.4-1.4-.6.3-.3.6-.8 1-.9 2.8-1 3.5-2 3.5-5.1v-20.9-7.7c0-3-.6-3.8-3.5-4.8-.5-.2-.9-.4-1.3-1h13.2c0 .1.1.2.1.4-.5.2-.9.5-1.4.6-2 .5-2.7 1.9-2.7 3.7v29.9c0 3.5.3 3.8 3.6 5 .5.2 1 .5 1.4.7.2.1.1.3.1.5z"/><path d="m707.2 188.5c-2.6-9.2-5.1-18.3-7.7-27.4-2.6-8.9-5-17.8-7.5-26.7-.1-.4-.1-.7-.6-.8-1.6-.2-3.1-.4-4.7-.5-2.3-.3-4.5-.5-6.8-.8 1.9-1.6 4-2.9 6-4.2 4.2-2.7 8.5-5.5 12.6-8.3.4-.3 1.1-.4.9-1.2-.5-2.6-1-5.2-1.4-7.9-.9-5.2-1.9-10.4-2.7-15.6-1.1-6-2-11.9-3.1-17.8-.9-5.3-1.9-10.7-2.7-16-.2-1-.5-1.5-1.6-1.9-13.2-4.1-26.4-8.3-39.5-12.4-.9-.3-1.5 0-2.1.4-7.2 5.2-14.5 10.5-21.7 15.7 4.6.9 9.3 1.7 13.9 2.5 7.3 1.2 14.6 2.6 21.9 3.9 5.6 1.1 11.3 2 16.9 3 .8.2 1.2.4 1.4 1.3 1.1 6.4 2.2 12.9 3.4 19.3 1.1 5.6 2 11 3.1 16.6.4 1.6.6 3.2.9 4.8.2.9 0 1.4-.8 1.9-9.3 6.3-18.4 12.5-27.7 18.9-2.7 1.9-5.5 3.9-8.2 5.7-.3.2-.4.4-.7.8 3.2.2 6.3.3 9.4.4 4.8.2 9.4.4 14.1.5 3.2.2 6.3.4 9.4.4.6.1.9.3 1.1.9 3.4 12.5 7 25 10.4 37.4 2.2 7.9 4.4 16 6.7 23.9.2.7.2 1.2-.4 1.9-7.9 8-15.7 16.1-23.5 24.1-7.9 8.2-15.8 16.3-23.6 24.4-3.1 3.3-6.3 6.5-9.4 9.8-.3.3-.5.5-1.1 1 .6-5.2 1.2-10.1 1.8-15 .3-1.9.4-3.6.6-5.4.1-.9 0-1.1-1.1-.9-9.4 2.6-18.9 5.4-28.3 8-2.6.7-5.1 1.3-7.6 2.1-.7.2-.9.1-1-.6-.4-3.2-.9-6.4-1.3-9.5-.7-5.2-1.6-10.3-2.3-15.5-.7-4.6-1.2-9.3-1.9-13.9-.7-5.4-1.4-10.8-2.3-16.1-.9-5.2-1.4-10.5-2.2-15.8-1.1-7.1-1.9-14.4-3.1-21.5-1-5.9-1.7-11.7-2.5-17.6-1.1-7.9-2.2-15.6-3.4-23.4-.7-4.6-1.3-9.3-1.9-13.9-.7-4.7-1.5-9.3-2-13.9-.5-4.8-1.3-9.4-1.9-14.1-.2-1.6-.4-3.1-.7-4.7-.1-.7-.2-1.1.9-.9 12.2 2.3 24.3 4.6 36.4 6.9.4.1.7.1 1.1.1 1.9-5.6 3.7-11.1 5.6-16.7.1-.4.3-.7.1-1.1-.9.2-1.8-.2-2.8-.1-6.7-.4-13.3-.8-20-1.1-5.2-.2-10.3-.5-15.5-.8-4.6-.3-9.1-.3-13.6-.6-1.8-.2-3.7 0-5.5-.4-1.1-.3-1.1 0-1.1.9.2 1.5.3 3 .5 4.4.8 4.1 1.2 8.4 1.9 12.6.5 3.4 1 6.7 1.4 10.1.5 4.2 1.1 8.4 1.8 12.6.7 4.7 1.2 9.3 1.9 13.9.7 4.9 1.3 9.8 2 14.6.5 3.4.9 6.9 1.4 10.2.6 4.2 1.1 8.4 1.8 12.6.5 3.4.9 6.9 1.4 10.2.6 4.1 1.1 8.3 1.8 12.4.5 3.4.9 6.9 1.4 10.3.6 4.1 1.1 8.1 1.8 12.2.5 3.4.9 6.9 1.4 10.3.7 4.2 1.1 8.6 1.9 12.8.5 3.4.9 6.7 1.4 10.1.6 4.1 1.1 8.4 1.8 12.5.5 3.4.9 6.9 1.4 10.2 1 5.9 1.6 11.9 2.6 17.8.1.8.3 1 1.1 1 2.4-.1 4.7-.5 7.1-.8 4.7-.5 9.3-1.1 13.9-1.6 3.9-.4 7.8-1 11.6-1.5 4-.5 7.9-.7 11.8-1.6 5.1-1.1 10.1-2.8 15.1-4.3 10.2-3 20.4-6.2 30.6-9.3.8-.3 1.3-.6 1.7-1.3 1.1-2.1 2.4-4.3 3.5-6.4 3.2-6 6.4-11.9 9.7-17.9 3.5-6.4 7-12.7 10.5-19.1.4-.7.4-1.3.2-2-2.1-5.6-3.8-11.6-5.5-17.5z"/><path d="m638.3 154.3c.1.4.3.9.2 1.5.6 9.4 1.1 18.6 1.7 28 .7 12.4 1.5 24.9 2.3 37.3.5 7.6 1 15.3 1.4 22.9.1.3-.1.5.2.6.3.2.4-.1.6-.3 1.3-1.4 2.7-2.7 4.1-4.1l10.6-10.3c3.6-3.4 7-7 10.6-10.3 5.1-4.9 10.1-9.8 15.2-14.7.5-.5.6-1.1.4-1.8-1.6-5.4-3.1-10.9-4.6-16.2-1.6-5.6-3.2-11.2-4.8-16.9-1.1-4.4-2.4-8.8-3.5-13.2-.3-.8-.5-1.3-1.5-1.3-1.9 0-4-.1-5.9-.2-4.5-.3-9-.3-13.5-.5-3.7-.2-7.5-.2-11.2-.3-.8 0-1.6 0-2.3-.2zm-19.5-72.7c5.1 17.9 10.2 35.9 15.4 53.9-.2.4-.6.6-1 .8l-23.1 15.9c-.4.3-.8.4-1.1 1 5.7.3 11.5.5 17.1.7 4.1.1 8.1.4 12.2.4 0-.3.1-.6 0-.9-.9-3.9-1.8-7.8-2.6-11.6-.5-2-1.2-4.1-1.3-6.2h.2c.3-.1.5-.2.7-.4l17.4-12c6.3-4.2 12.5-8.6 18.8-12.8.4-.4.9-.6.8-1.2-.4-1.6-.6-3.2-.9-4.8-1.1-6.5-2.4-13.1-3.5-19.7-.2-.8-.5-.9-1.1-.9-2.6-.1-5.2-.3-7.8-.4-4.6-.3-9.1-.5-13.7-.8-4.2-.3-8.4-.5-12.6-.8-4.6-.3-9.2-.5-13.8-.8-.1.1-.2.4-.1.6z"/><path d="m897.3 136.2v-27.9c-1.1-.7-2.2-1.3-3.5-1.7s-2.6-.6-3.9-.6-2.6.2-3.9.6-2.4.9-3.5 1.7v27.9h5.9v-11.6h2.8v11.6zm-8.6-16.2v-9.4c0-.2 0-.4.4-.4h1.8c.2 0 .4.2.4.4h.2v9.4zm-42.3 16.2v-24.1l.6-.4h3.1v-5.1h-13.6v5.1h3.3l.6.4v24.1zm-42.2-24.5v-5.1h-11.6v29.6h11.6v-5.2h-5.7v-7.2h5.1v-4.6h-5.1v-7.5zm214.7-5.1h-5.9v29.6h11.2v-5.2h-5.3zm100.7 12.3v-10.5c-1.1-.7-2.2-1.3-3.5-1.7s-2.6-.6-3.9-.6-2.6.2-3.9.6-2.4.9-3.5 1.7v26.1c1.1.7 2.2 1.3 3.5 1.7s2.6.6 3.9.6 2.6-.2 3.9-.6 2.4-.9 3.5-1.7v-10.5h-5.9v8.3c0 .2 0 .4-.4.4h-1.8c-.2 0-.4-.2-.4-.4v-21.5c0-.2 0-.4.4-.4h1.8c.2 0 .4.2.4.4v8.1zm-55.1-12.7c-1.3 0-2.6.2-3.9.6s-2.4.9-3.5 1.7v26.1c1.1.7 2.2 1.3 3.5 1.7s2.6.6 3.9.6 2.6-.2 3.9-.6 2.4-.9 3.5-1.7v-26.1c-1.1-.7-2.2-1.3-3.5-1.7s-2.6-.6-3.9-.6zm1.5 25.9c0 .2 0 .4-.4.4h-1.8c-.2 0-.4-.2-.4-.4v-21.5c0-.2 0-.4.4-.4h1.8c.2 0 .4.2.4.4zm-309.9 3.7c1.3-.4 2.6-.7 3.5-1.5v-10.7c-.4-.4-.6-.6-1.1-.9-.4-.4-.9-.6-1.3-.9.4-.2.9-.6 1.3-.9.6-.4.9-.7 1.1-1.1v-11.4c-.9-.7-2-1.1-3.5-1.5-1.5-.2-2.9-.4-4.6-.4h-6.6v29.6h6.6c1.6.1 3.1.1 4.6-.3zm-5.4-25.2h2.2c.4 0 .6.2.6.6h-.2v7.9c0 .2-.2.4-.4.4h-2.2zm.2 13.4h2.2c.2 0 .4.2.4.4h.2v7.3c0 .4-.2.6-.6.6h-2.2zm221-17.4h-6.6v29.6h6.6c1.7 0 3.1 0 4.6-.4 1.3-.4 2.6-.7 3.5-1.5v-10.7c-.2-.4-.6-.6-1.1-.9-.4-.4-.9-.6-1.3-.9.4-.2.9-.6 1.3-.9.6-.4.9-.7 1.1-1.1v-11.4c-.9-.7-2-1.1-3.5-1.5-1.5-.1-2.9-.3-4.6-.3zm-.7 4h2.2c.4 0 .6.2.6.6h-.2v7.9c0 .2-.2.4-.4.4h-2.2zm2.9 21.2c0 .4-.2.6-.6.6h-2.2v-8.4h2.2c.2 0 .4.2.4.4h.2zm-162 13.4h-13.2v66.3h25.4v-11.4h-12.1v-54.9zm-50.7-1.1c-2.8 0-5.5.6-8.5 1.3-2.8.7-5.3 2-7.7 3.9v58.6c2.2 1.7 4.8 3.1 7.7 3.9 2.8.9 5.7 1.3 8.5 1.3s5.5-.6 8.5-1.3c2.8-.7 5.3-2 7.7-3.9v-23.7h-13.2v18.6c0 .6-.2.9-.9.9h-4.2c-.6 0-.9-.4-.9-.9v-48.3c0-.6.2-.9.9-.9h4.2c.6 0 .9.4.9.9v18.4h13.2v-23.5c-2.2-1.7-4.8-3.1-7.7-3.9-2.8-1.1-5.8-1.4-8.5-1.4zm83.8 1.1h13.4v66.3h-13.4zm207 13.7-8.5-14h-11.2v66.3h13.2v-44.2l6.2 10.1v34.2h13.4v-66.3h-13.2v13.9zm50.9-15c-2.9 0-5.7.6-8.6 1.3s-5.5 2-7.9 3.9v58.6c2.4 1.7 5 3.1 7.9 3.9 2.9.9 5.9 1.3 8.6 1.3 2.9 0 5.7-.6 8.6-1.3s5.5-2 7.9-3.9v-33.3h-15.1v6.2l1.8 2.4v19.5c0 .6-.2.9-.9.9h-4.2c-.6 0-.9-.4-.9-.9v-48.3c0-.6.2-.9.9-.9h4.2c.6 0 .9.4.9.9v12.1h13.2v-17.3c-2.4-1.7-5-3.1-7.9-3.9-2.8-.9-5.8-1.2-8.5-1.2zm-105.8 1.3h13.4v66.3h-13.4zm-96.7 18.7-7.2-18.7h-13.4v66.3h13.4v-39.7l7.3 16 7.3-16v39.7h13v-66.3h-13.4zm57-18.7h-14.7v66.3h14.7c3.5 0 7-.2 10.1-.9 3.1-.6 5.7-1.7 7.9-3.1v-23.9c-.6-.7-1.3-1.5-2.2-2.4-.9-.7-1.8-1.3-2.8-2 .9-.7 1.8-1.5 2.8-2.2.9-.7 1.7-1.7 2.2-2.4v-25.4c-2-1.5-4.8-2.6-7.9-3.1-3.1-.6-6.4-.9-10.1-.9zm-1.5 8.8h4.8c.9 0 1.3.4 1.3 1.3v17.8c0 .6-.4.9-.9.9h-5.1v-20zm6.1 47.4c0 .9-.4 1.3-1.3 1.3h-4.8v-18.6h5.1c.6 0 .9.4.9.9v16.4z"/><path d="m2498.8 46.3c2.7.6 5.4 1 8.1 1.6 7 1.6 13.4 4.1 18.4 9.7 3.2 3.6 6.2 7.1 8 11.5.1.3.9.7 1.3.7 2.6.2 5.1.4 7.7.7 3.3.3 6.8.8 10.1.8 2.7.1 5.4-.3 8.1-.6 5.3-.4 10.8-.7 14.9 3.6 2.3 2.4 3.9 5.5 5.8 8.3 4.5-1 9.4-2.4 14.4-3.1 9.5-1.2 19-1.2 28 2.9 5.7 2.6 10.3 6.3 13.4 11.8.6 1.1 1.2 1.2 2.6 1.1 4.2-.2 8.5-.1 12.8 0 3.6.1 7 .4 10.5.6.6 0 1.2-.1 1.6-.4 6.7-5.3 18.1-3.6 23.7 1.7.2.1.3.3.6.3 2-2.2 3.9-4.3 5.9-6.7-.4-.6-1.2-1.4-1.9-2.2-7.7-8-2.7-18.4 4.1-21.6 4.7-2.2 9.4-2.8 14.4-1.6 6.4 1.6 9.8 6.2 12 12.1 1.6 4.2 2 8.5 2 13 0 .7.3 1.8.8 2 6.3 3.4 8.7 9.4 10.1 15.9.2.9.3 1.7.6 2.6 20.9-4.8 43.6 11.4 47.6 32.1.4 2.3 1.1 4.3 2.6 6.3 4.7 6.4 4.7 14.1.4 20.5-4 6.1-11.9 9.4-19.3 8-.9-.1-1.9 0-2.9 0 1.6 3.1 3.1 6 4.4 9 4.3 10.3 5.5 21 .9 31.5-4.8 10.5-13.1 16.8-24.4 18.7-16.6 3-31.2-1.3-43.9-12.3-4.1-3.6-7.7-7.3-9.7-12.3-.4-1-1.2-1.6-2.2-1-5.4 3.2-11.1 2.9-16.9 1.3-4.2-1.1-8.2-.7-12.3-.1-9.7 1.2-19.2 2.7-29 1.3-8.2-1.1-15-2.3-22.6-9.1-.8.6-1.6 1-2.2 1.6-2.9 2-6.2 2.3-9.5 2.7-5.1.4-10.3.9-15.4 1.2-5.4.3-10.7-.6-15.1-4.2-1.9-1.6-3-3.7-3.9-5.9-1.2-2.8-2.8-5.4-4.3-8.1-.3-.6-1.4-.6-2.2-.8-1.7-.6-3.2-1.1-4.9-1.4-1.6-.3-3.2-.8-4.9-.8-5.3.1-10.5.7-15.9.6-5.8 0-11.5-1-17.1-2.9-6.3-2.1-9.8-5-15.6-12.8-.8 1.7-1.2 3.6-2.2 5-3.2 5.2-7.9 8.2-14.1 8.3-6.8.1-13.5.3-20.4.3-7.5 0-14.8-4.9-17.3-11.5-2.9-7.4-1.2-16 4.8-21.1 1.7-1.4 1.2-2.8 1.3-4.3v-2.3c-17.6 15.3-35.9 16.6-55.1 4.1-.2 2.9-.2 5.9-.6 8.9-.9 7.8-4.7 14-10.4 19.1-6.2 5.5-13.9 8.2-21.9 10-8.3 1.8-16.6 2.4-25.2 1.6-10.8-1.1-20.6-4.5-28.5-12.4-.6-.7-1.6-.9-2.4-1.2-7.3-2.1-11.9-6.8-13.6-14.2-.2-1-.2-2-.3-3.1-1-.1-1.7-.2-1.9 1.2-1 6.5-4.8 11.2-10.7 14.2-12.2 6.3-25.2 10.7-38.6 13.5-4.2.9-8.4 1.4-12.8 1.6-9.1.2-15.5-4.1-20.2-11.9-4-6.7-5.4-14.1-7-21.5-2.1-9.3-3.3-18.6-3.2-28.2 0-.3 0-.8-.1-1.1-6.5-.6-11.6 3.1-11.9 10.1-.2 6.2 1.7 12.1 3.2 18 .9 3.3 1.7 6.5 2.6 9.9.1.6.6 1.1.9 1.6 8.9 8.8 8.2 20.6-1.6 28.3-.9.7-1.1 1.2-.9 2.3 1.1 7.5-1.4 13.6-7.2 18.5-3.7 3.1-6.9 6.7-10.2 10-3.8 3.7-8.3 5.3-13.5 5.1-5.8-.3-10.5-2.7-13.9-7.5-2.6-3.7-3.6-7.7-2.9-12.2.1-1-.2-2.3-.8-3.3-3.2-5.3-6.7-10.5-9.9-15.9-.6-.9-1.1-1.4-2.2-1.2-3.6.7-7.1 1.3-10.5 1.9.9 2.7 2.1 5.1 2.7 7.8 2.1 11.4-5.2 21-16.9 22-7.2.6-14.4.8-21.6 1-4.8.1-8.5-2-11.1-6l-2.7-3.9c-2.7 3.7-5.2 7.2-7.8 10.7-6.2 8.2-14 14.3-24.1 17.1-16.8 4.7-31.1.4-42.9-12.2-7.8-8.3-11.8-18.4-13.6-29.5-2.2-13.3-1.3-26.6 1.1-39.8 3.4-18.7 8.5-37.1 16.3-54.5 4.9-10.9 11.1-21 20-29.1 5.8-5.3 12.2-9.4 20.2-10.5 12.1-1.8 21.6 2.6 28.4 12.6 4.3 6.5 6.8 13.9 7.9 21.6.1.8.8 1.8 1.4 2.2 10.1 6.7 10.2 20.7.2 27.5-5 3.4-10.8 4.7-16.5 5.2-3.7.4-7.5.6-11.2 0-6.1-.9-10.4-4.5-13-10.1-.3-.7-.7-1.3-1.1-2.4-1.4 3.7-2.9 6.9-4.1 10.1-4.8 12.6-8.2 25.6-10.1 38.9-1.1 7.9-2 15.8.3 23.6.8 2.6 2.2 4.9 3.6 7.2.7 1.1 1.6 1.7 2.7.6 1.2-1.2 2.7-2.3 3.6-3.8 4.3-7 8.4-14.1 12.5-21.3 1.8-3.1 3.1-6.5 5-9.8 1.2-2.2 1.2-4.4 1-6.9-.9-6.8.9-12.9 6.5-17.1 4.9-3.6 10.4-3.4 15.9-1.6 7.3 2.6 13.9 6.2 19.2 12.5 1.1-4.2 2.1-8.2 3.2-12.1 3.4-12.1 6.9-24.3 10.2-36.4 2.1-7.7 7.2-11.6 14.8-13 7.3-1.3 14.9 1.9 18.7 8.4 1.9 3.2 3.3 6.9 5 10.4 2.7-3.4 6.2-5.7 10.5-6.4s8.3 0 11.6 3c5.4-9 12.8-14.6 23.2-15.9-.4-2.2-1.1-4.4-1.3-6.8-1-9.4 6.8-18.4 16.3-19.3 4-.3 8-1.2 11.9-2 8.5-1.7 17.8 3.6 20.7 11.8 2.6 6.9.7 12.8-3.4 18.4-.4.6-.8 1.4-.8 2.2.4 6.1.9 12.2 1.6 18.2 1.1 8.7 2.3 17.2 3.7 25.7.6 3.8 1.4 7.5 2.1 11.5 3.4-1.6 6.5-2.9 9.7-4.3.4-.2.7-1 .9-1.6.9-2.9 2.1-5.4 4.2-7.8.3-.4.6-1.4.3-2-2.6-6.1-3.2-12.4-3.2-19 0-7.9 2.1-15.3 5.4-22.3 4.7-10.2 11-19.1 20.3-25.5s19.6-9.2 31-7.4c6 1 10.7 4.3 14.4 9 .2.3.6.7.9.9 1.7-1.6 3.3-3.1 5-4.4 6.9-5.4 14.9-7.4 23.5-6.8 13 .9 23.3 6.9 31.6 16.6 1.6 1.8 2.8 3.9 3.9 6 .9 1.6 1.8 3 3.4 3.8.9.4 1.6 1.2 2.3 1.9 13.6-12.2 29.1-14.8 46.2-7.8-.3-1.3-.7-2.4-.9-3.7-1.3-7.7 1.6-13.5 7.3-18.3 7.3-6.1 16-9.3 25.1-11.9 7-2 14-3 21.2-3.2.4 0 .9-.1 1.3-.2 1.6-.2 3.8-.2 5.9-.2zm-504.6 132.6c.4 4.8.8 9.5 1.4 14.2 1.1 7.4 3.4 14.5 8.1 20.6 8.4 11.2 19.5 14.9 32.2 11.9 8.4-2 14.8-7.1 19.9-14.1 8.8-12.1 15.5-25.2 22-38.5.8-1.7 1.7-2.9 3.3-3.9 4.4-2.7 5.2-6.5 2-10.4-3.8-4.5-9-7.1-14.6-8.3-3.1-.7-4.7 1-4.5 4.3.1 2.1.7 4.2.9 6.3.1.9.3 2 0 2.7-5.9 12.5-11.8 25.1-19.6 36.6-2.8 4.1-5.8 8.1-10.4 10.3-5.4 2.7-10.4 2.3-15-1.7-4-3.4-6.5-7.9-8.1-12.9-3-9.8-2.3-19.6-1.1-29.5 1.3-10.2 3.7-20.3 6.8-30.2 4-13 8.7-25.7 16.6-37.1 2.6-3.6 5.2-7.1 8.9-9.7 2.3-1.7 2.9-1.7 3.9 1.1.9 2.2 1.7 4.4 2.1 6.8 1 4.3 2.3 8.4.1 13.1-1.6 3.2.8 8.5 6.2 8.2 2.8-.2 5.5-.3 8.2-.9 3-.7 5.9-1.7 8.7-2.9 2.7-1.2 2.9-3.9.6-5.8-1-.9-2.3-1.4-3.6-2-1.9-.9-3.2-2.1-3.4-4.3-.1-1.8-.3-3.6-.7-5.2-1.1-6.1-2.6-12.1-6.2-17.2-3.2-4.5-7.5-7.2-13.4-7.1s-10.5 2.9-14.8 6.7c-7.9 7-13.4 15.6-17.9 25.2-5.8 12.6-10 25.8-13.3 39.4-2.7 11.3-5 22.6-5.3 34.3zm486.5-20.1c-.1-3.7-.3-6.9-.4-10.1-.1-6.5-.3-13.1-.3-19.6 0-1.3-.3-2.7 1.2-3.6 10.2-6 19.6-13.1 28.3-21 5.2-4.8 9.8-9.9 13.2-16.1 2.8-5.1 4-10.5 3.3-16.3-.9-6.5-4.9-10.9-10.5-13.6-5.3-2.7-11-3.3-17-3.1-8.2.2-16.2 1.2-24.1 3.6-6.5 2-12.9 4.4-18.4 8.7-2.4 1.9-3.6 5.1-2.6 7.8.9 2.4 3.7 4.3 6.5 4 1.7-.1 3.3-.9 5-1.4.1 1.8.3 3.7.4 5.5.2 11.4.3 23 .4 34.4 0 .8-.3 1.7-.9 2.3-2.1 2.6-2.6 5.7-.6 7.7 1.9 1.8 1.8 3.7 1.8 5.8.1 4.9.2 9.7.3 14.5v10.7h-1.7c-3.3.3-5.8 2.7-5.9 5.8-.2 4.2 2.8 7.2 7.2 7.1 3.7 0 7.3-.2 11-.3 2.1 0 4.1.3 6.2.3 3.3 0 6.5-2.7 6.8-5.7.3-3.8-1.6-6.4-5.2-7.1-1.1-.5-2.6-.3-4-.3zm-382.3 21.9c.1 0 .1.1.2.1-1.2 3.9-2.4 7.8-3.6 11.8-.4 1.7-1.1 2.1-2.9 2.1s-3.8.1-5.2.9c-2.4 1.2-3.2 4.4-2.4 7.1.8 2.3 3.1 3.8 5.9 3.7 5.5-.3 11.2-.7 16.8-1.1 3.2-.2 5.3-3.3 4.9-6.5-.6-3.1-2.7-4.3-5.4-5 1.4-5 3-9.9 4.5-14.9.2-.6 1-1.1 1.6-1.2 4-.9 8-1.9 12.1-2.6 4.9-.8 9.8-1.3 14.6-2.1 1.2-.2 1.9.2 2.3 1.4 1.1 2.6 2.3 5 3.7 7.4 4.2 7.7 8.8 15.1 14.9 21.4-.2.3-.3.4-.6.7-2.6 2.2-3 6.1-1.1 8.5s5.9 2.8 8.5.4c3.8-3.4 7.7-6.8 11.5-10 2.7-2.2 3.1-5.9.9-8.7-1.8-2.2-5.9-2.6-8.3-.7-.8.7-1.6 1.2-2.3 1.9-.3-.3-.7-.6-.9-.9-6.9-7.4-12-15.9-16.1-25.1-6.8-15.1-11.2-31-15.5-46.8-1.6-5.5-3.3-11-5.3-16.3-.8-2.3-2.7-4.3-5.2-4.4-2.9-.1-4.8 1.8-5.8 4.5-.8 2-1.7 3.9-2.2 6-4.7 17.2-9.4 34.4-14 51.7-.7 2.7-1.6 4.4-4.7 4.5-1.1 0-1.4 0-2-.9-1.4-2.6-4.1-3.7-6.8-2.9-2.3.7-4.1 3.1-4 5.9.1 3 .4 6 .7 9 .2 2.6 1.3 4.3 3.8 4.9 2.6.6 4.4.4 6.1-2 .5-.4.8-1.1 1.3-1.8zm283.2-86.7c-.9-2.1-1.8-4.2-2.8-6.2-5.3-10.4-19-18.6-32.2-16.1-6 1.2-10.8 4.3-13.4 10.1s-2.7 11.5-.9 17.5c2.2 7.4 6.9 13.2 12.2 18.5 7.3 7.4 15 14.6 22.3 22.1 2.1 2.1 3.9 4.8 5.3 7.4 3 5.9 1.2 10.7-4.9 13.1-9.9 3.9-20.1 4.7-30.4 1.9-3.1-.9-5.9-2.7-7.4-5.9 2.3-1.1 3.9-2.8 4.2-5.3.4-4.5-4.4-8-8.8-6.2-4.4 1.9-8.8 3.9-13.2 5.9-2.3 1.1-3.3 3.2-3.1 6 .2 2.1 2.1 4.4 4.3 4.8 1.6.2 3.2 0 5.1 0 1.6 3 4 5.8 7.2 7.9 6.1 4.1 13 5.4 20.1 5.8 9 .3 17.8-.6 26.3-3.8 6.7-2.6 12-6.4 14-13.6 1.9-6.7.4-12.9-3.3-18.4-3-4.4-6.4-8.5-10.1-12.4-5.9-6.2-12.2-11.9-18.2-18-3.9-4-7.5-8.2-9.1-13.6-.6-2.1-1.1-4.3-.9-6.4.7-5.2 4-7.2 9.5-6.5 7.7 1 14.4 7.4 15.4 14.5-.8.3-1.4.7-2.2.9-2.9.7-4.7 4.5-3.8 7 1.1 3.1 4.2 5 7.4 4.1 4.5-1.1 9.2-2.3 13.8-3.6 2.7-.8 4.3-2.9 4.4-5.4.2-3.6-2.3-5.9-6.8-6.1zm393.3 54.6c.3-.4.6-.8.8-1.2.3-.6.9-1 1-1.7.1-.9.1-1.9-.1-2.8-1.9-12-12.6-22.6-24-24.5-9.5-1.6-18.4 3-22.2 11.9-3.7 8.4-2.9 17 .8 25 3.7 8.1 8.2 15.9 12.3 23.9 2.8 5.3 5.8 10.5 7.3 16.4 1.8 7.1-1.3 12.2-8.3 13.1-5.4.7-10.7-.3-15.4-3.1-3.6-2.1-6.8-4.8-7.8-9.2 4.1-.7 8.1-1.3 12.1-2 3-.4 5.1-2.7 5.3-5.2.1-3-1.9-5.7-4.7-6.5-2.7-.9-5.1.3-7.5.8-5.2 1.1-10.4 2.6-15.1 5.4-4.9 3.1-6.2 7.7-3.1 12.5 1.8 2.9 4 5.7 6.4 8.1 9.9 10 21.9 13.1 35.3 10.1 9.5-2.1 15.5-10 15.5-19.7 0-7.3-2.8-13.8-6.1-20.1-5-9.4-10.1-18.7-14.9-28.2-2.4-4.8-3.7-9.9-2.2-15.2 1.3-4.7 4.3-8.2 9.7-6.8 7.9 2.2 14.2 11 12.4 18.9h-2c-3.3 0-5.9 2.1-6.1 4.9-.4 4.4 1.8 6.3 5.3 6.8 5.1.6 10.3.6 15.4.4 3.3 0 6.3-4.1 5-7.5-.9-2.4-2.5-3.8-5.1-4.5zm-176.9 31.5c-.3-2.8-.8-5.5-1.1-8.3-.7-6.4-1.3-12.9-2-19.3 0-.6.2-1.3.7-1.7 3.9-3.1 7.9-6 11.6-9.1 6.8-5.7 13-11.8 18.1-19 3.8-5.3 6.8-11.1 6.9-18 .1-5.9-1.9-10.9-6.5-14.4-3.8-2.9-8.2-4.2-12.8-4.2-3.3 0-6.7.7-9.9 1-7.9.8-15.3 2.8-22.6 5.9-5 2.1-9.9 4.7-13.8 8.5-2.6 2.4-2.8 5.8-.8 8.1 2.1 2.4 5.8 2.9 8.5 1 .6-.3 1-.8 1.8-1.3.2 1.3.3 2.4.4 3.6.8 5.8 1.4 11.4 2.1 17.2.7 5.1 1.2 10.2 1.8 15.3.1.8 0 1.7-.4 2.3-2 3.1-1.8 5.3 1.1 7.8.4.3.9.8.9 1.2.4 3.6.8 7.1 1.2 10.7.6 4.3 1.1 8.5 1.8 12.9.2 1.3.2 2.1-1.6 2.2-2.1.1-4.1 2-4.7 4-.7 2.2.2 4.7 2 6.1 2 1.6 4.2 1.3 6.4 1.1 4.3-.4 8.5-1.1 12.9-1.3 2.4-.1 4.3-.9 5.9-2.7 2.8-3.1 1.4-7.8-2.6-8.8-1.5-.7-3.2-.6-5.3-.8zm41.6-33.6c0-.2-.1-.6 0-.8 3.7-10.3 7.2-20.7 11-31.1.2-.4 1.2-1 1.9-1 5.1.2 10.3.3 15.4.8 1.8.1 3.6 0 4.8 2.3 1.3 2.4 4.2 3.1 7 2.6 2.6-.6 4.3-2.2 4.7-5 .3-2.9.9-5.7 1-8.5.2-3.7-1.3-5.8-4.8-6.9-2.8-.9-5.4.2-7.4 3-.3.4-1.1.8-1.7.8-4.8-.2-9.5-.4-14.3-.8-3.4-.2-6.8-.4-10.1-.7-2.7-.2-5.4 1.3-6.4 4-1.2 3.1-2.6 6.1-3.7 9.2-7.4 20.7-15.1 41.4-18 63.5-1 7.2.4 12.4 7.9 15.3 3 1.2 6.3 1.7 9.5 2.3 7.5 1.7 15 .8 22.4-.2 3.7-.6 7.3-1.3 11-1.2 4.3.1 8.5.9 12.9 1.7 3.7.7 5.4-.3 5.7-4.1.2-3.2.1-6.4 0-9.5-.1-2.8-2.6-5-5.4-5.4-2.7-.3-6 1.1-6.8 3.4-.7 2-2 2-3.6 2.2-5.3.7-10.5 1.4-15.9 2-5.1.4-10.1.9-15.2 1-2.8 0-5.7-.8-8.4-1.4-.6-.1-1.4-1-1.4-1.6-.2-1.7-.2-3.4.1-5.1 1.2-6.1 2.8-12.2 4-18.3.2-1.3.9-1.6 2-1.6 5.2 0 10.3-.2 15.5-.3 2.3-.1 4.3-.2 6.4 1.7 2.2 2.1 5.2 1.6 7.7 0 2.1-1.3 2.8-3.4 2.3-6.1-.2-1.3.1-2.8.2-4.1.1-.9.4-1.9.2-2.8-.4-2.6-2.8-4.4-5.5-4.8-2.7-.2-5.7 1.4-6.8 3.7-.3.6-1 1.2-1.6 1.3-2.2.3-4.3.4-6.5.6-3.4-.1-6.7-.1-10.1-.1zm-108.8-25c3.3-10.7 6.5-20.6 9.7-30.6.6-1.8 1.2-2.7 3.4-2.3 4.4.4 8.9.3 13.4.6 1.9.1 3.7.1 4.8 2.3 1.2 2.3 4.7 3.2 7 2.4 2.4-.9 4-3.3 3.8-6.1-.1-1.3-.2-2.7-.3-3.9-.8-5.7-2.9-7.2-8.7-6.5-3.4.3-7 .3-10.4.4-1.4 0-2.9-.3-4.3-.4-3.6-.2-7.1-.4-10.8-.7-2.6-.1-5.2-.4-6.9 1.9-.8 1.1-1.1 2.6-1.7 3.9-6.1 16.4-10.9 33.2-14.6 50.3-1.8 7.9-3.2 15.9-3.2 24 0 5.2 2.3 8.9 6.8 11.2 3.8 2 8 2.8 12.2 3.1 8.1.7 16.1.3 24.1-.8 1.4-.2 2.9-.4 4.1 1.2 1.7 2.1 5.2 2.3 7.7 1.1 2.2-1.2 3.2-3.9 2.7-6.7-.4-2.4-1-4.8-1.4-7.2-.4-2.8-2.4-4.9-4.9-5.1-3.4-.3-5.8 1.1-6.9 3.9-.2.6-1.1 1.2-1.9 1.3-3 .4-6.1.9-9.1 1-6 .3-12.1.6-18-1-3.3-.9-3.6-1.2-3.1-4.8.8-5 1.4-10 2.2-15 .3-2.3 1-4.5 1.6-6.8 2.9 0 5.5.1 8.1 0 2.7-.1 5.2-.4 7.9-.7 2.3-.1 4.5-.4 6.5 1.7 1.9 1.8 4.7 1.6 7 .1 2-1.3 2.8-3.3 2.3-5.9-.2-1.3-.1-2.9.1-4.3.8-3.7-.7-6.1-4.2-7.2-3.3-1-6.1.3-7.4 3.7-.1.3-.6.9-.9.9-5.3.3-10.7.7-16.7 1zm-308.6-35.4c1.7-1.1 3.1-1.8 4.1-2.8 1.8-1.9 2-4.8.9-6.7-1.4-2.4-4.2-3.6-7.1-3.1-3.8.7-7.7 1.3-11.4 1.9-3.6.6-6 3.1-5.8 6.2.1 2.7 1.9 5.8 5.9 5.9 1 0 1.2.4 1.3 1.3.2 5.4.4 10.8.8 16.2.4 5.3.9 10.7 1.6 15.9.8 6.1 2 12.2 2.9 18.3 1.3 9.1 3 18.1 6.1 26.7 1.8 4.9 4.8 8.9 10.3 9.5 4.2.4 8.5.3 12.6-.9 9.9-2.8 19-7.3 27.8-12.3.7-.4 1.8-.6 2.6-.3 2.9.4 5-.4 6.8-2.8 1.2-1.7 1.3-4.4.2-6.2-1.6-2.6-3.2-5.1-4.9-7.5-1.8-2.8-4.7-3.1-7.5-2.7-2.6.4-4.2 2.1-4.5 4.7-.2 1.4.3 3 .6 4.5-.6.3-1.2.8-2 1.2-8 4.5-16.2 8.8-25.3 10.7-2.7.6-3.8.3-4.5-2.2-1.6-4.9-3.1-9.9-4.1-15-1.3-6.4-2.2-12.9-3.2-19.4-.8-5.3-1.4-10.7-2.1-16-.3-3.2-.7-6.3-.9-9.5-.6-5.4-1-10.7-1.2-15.6zm101.8 14.8c-.2-1.8-.3-3.4-.6-5.2-.4-6-2.4-11.5-5.8-16.6-3.2-5-7.7-7.8-13.5-7.7-3.4.1-6.9.3-10 2.1-3.3 2-7 3.6-10 5.9-7.9 6.3-12.8 15-15.9 24.4-2.8 8.3-3 16.8.1 25.2 3.6 9.5 17.4 18.9 28.2 14.6 5.1-2 10-4.1 13.6-8.2 9.2-9.8 13.6-21.3 13.9-34.5zm-156.9 21.5c-1.9-3.1-4.5-4.7-8.2-4.3-3.8.3-6.5 4.1-5.4 7.7 1 2.9 2.4 5.7 3.4 8.5 4.9 13.8 9.8 27.6 14.6 41.5.4 1.3-.2 1.9-1 2.4-2 1.7-2.1 3.8-1.7 6s1.9 3.8 4.1 4.2c2.6.6 5 0 7.4-1.3 1.7-1 3.4-1.9 5.3-2.2 3.4-.7 5.2-3.9 5.4-6 .2-3.1-1.3-5-4.8-6.3-.6-.2-1.1-.9-1.2-1.6-.7-2.4-1-5-1.8-7.4-2.3-8-4.9-16-7.1-24.1-.7-2.4-1.1-5.1-1-7.7.2-3.7 2.7-6.3 5.3-8.5 3.3-2.9 7.1-4.7 11.4-5 1.1-.1 2.9.3 3.3 1.1 1.3 2 2.9 3 5.1 2.9 2.6-.2 4.7-1.3 5.4-4 .4-1.8.9-3.7.8-5.5-.4-5.3-2.3-9.2-7.9-10.2-2.3-.4-5.1-.3-7.4.4-10.5 3.1-18.4 9.7-24 19.4zm229.4-6.3c-.6 14.8 12 28.2 27.8 28.2s28.2-12.4 28.2-28c0-15.8-12.3-28.2-28.2-28.2-16.3-.1-28.3 13.5-27.8 28zm324.9 59.5c-5.1-9.8-9.4-19.4-9.1-30.5-.4 0-.8-.1-1.1 0-4.4 1.1-9 1.8-13.6 1.1-7.1-1.1-13.8-3-18.5-9-.3-.3-.9-.7-1.3-.7-2.3-.1-4.8 0-7.3 0 .7.6 1.1.9 1.6 1.2 5.2 4.5 8 9.9 6.8 17-.2 1.4-.2 3-.4 4.4-.4 2.6-.9 5.1-1.6 7.7-.2.9-.9 1.8-1.3 2.8 11.1-.4 19.2 3.9 23.7 14.2 6.4-4.4 14-6.4 22.1-8.2zm-28.6-50.7c2.2 3.3 7.4 5.1 11.8 4.1 7.2-1.7 12.6-5.9 17.1-11.5 3-3.9 4.8-8.2 4.2-13.2-.4-4-3-6.8-6.4-6.7.3 3.8-2.2 6-4.4 8.4-.1-.3 0-.7.1-1 .6-2.6.9-5.1-.7-7.4-.4-.6-1.4-1.3-2-1.2-1.8.2-3.4.9-5.3 1.4.4-1 .9-2.2 1.4-3.3-4.1 1.7-5.8 5.3-5.4 9.8.3 3.3.3 6.9-.4 10.1-1.2 5.1-5.4 8-10 10.5zm-197.2 32.9c1.6-9 3.2-18.2 4.9-27.4-3.8 2.4-7.7 4.9-11.4 7.4-.3.2-.4.9-.4 1.3l.3 12.4c0 .4.3 1 .7 1.2 1.9 1.9 4 3.5 5.9 5.1zm220.1-66.3c0-2.1.2-4.2 0-6.2-.3-3.2-.7-6.4-1.6-9.5-1.1-4-4-5.1-7.9-3.6-2 .8-2.3 1.8-.8 3.2 4.5 4.7 8.1 9.9 10.3 16.1z"/><path d="m2173.9 272.6c-.6-1.1-1.3-2.1-1.7-3.2-1.7-6.4-3.2-12.9-4.9-19.3-.4-1.7-.4-3.1 1.1-4.1 1.3-.9 3.4-.4 4.9.9.8.7 1.4 1.4 2.1 2.1s1.3 1.4 2.1 2.2c1-2.7 1.9-5 2.8-7.4.6-1.3 1.2-2.6 3-2.4 1.8.1 2.9 1.2 3.2 2.8 2 7 3.9 14.1 5.8 21.1.6 2-.3 3.3-2 3.8-1.9.4-3.1-.2-3.8-2.4-1.1-3.9-2.2-7.8-3.2-11.3-.9 1.4-1.4 3.4-2.7 4.5-2 1.7-3.2-1-5.1-2.1.4 1.9.8 3.4 1.1 4.9.4 1.9.8 3.8 1.4 5.7.7 2 .1 3.4-1.6 4.5-.7-.3-1.6-.3-2.5-.3zm384.3-35.6c-6.7.2-10.5-3-10.7-8.3-.1-4.1 2.9-7.7 6.8-8.7 2.8-.7 5.4-.6 7.7 1.3.7.6 1 1.8 1.4 2.7.2.6.3 1.2.4 1.8.3 1.4 1.2 2.9.9 4.1-1.2 5.4-.8 11.2-3.2 16.3l-.3.9c-3.1 6.5-10.7 7.3-14.9 1.3-1.2-1.7-1.9-3.8-2.6-5.8-.6-1.6.3-3.1 1.8-3.7 1.6-.6 3 .1 3.7 1.8.6 1.2.8 2.6 1.7 3.6.7.9 2 2 2.9 2 .9-.1 2-1.4 2.4-2.4.8-2.1 1.3-4.5 2-6.9zm-1.8-5.4c.9-.7 2.3-1.2 2.6-2.1.4-1.7-1.1-4-2.2-4-1.7 0-3 1.3-3 3-.2 1.4.9 2.6 2.6 3.1zm-85.2-4.6-.9 8.7c0 .6-.1 1-.2 1.4-.4 1.8-1.4 2.4-3.3 2.2-1.7-.2-2.6-1.2-2.3-2.9.4-5.1.9-10.2 1.3-15.2.2-2.9.4-5.8.9-8.7.3-2.2 2.7-3.1 4.4-1.9.6.3 1 1 1.2 1.6 1.6 4 3.1 8 4.9 12 .4-2.3.8-4.7 1.2-6.9.1-.8.2-1.7.7-2.3.8-1.6 2.1-1.9 3.7-1.4 1.7.4 2 1.6 1.8 3.1-.9 5.2-1.7 10.4-2.6 15.6-.2 1.3-.3 2.8-.7 4.1-.4 2.1-1.9 3.3-3.9 2.9-.8-.2-1.8-.9-2-1.7-1.3-3.6-2.6-7.1-3.8-10.7-.1 0-.3 0-.4.1zm-187.1 7.7c.4 3 1 6.1 1.4 9.1.4 2.6-.9 4-3.2 3.9-1.7-.1-2.4-1.1-2.7-2.7-1.2-7.5-2.4-15.1-3.8-22.7-.2-1.7.6-3 2-3.4 1.7-.4 2.9.2 3.8 1.7 2.2 3.3 4.7 6.7 7.3 9.8-.2-2.4-.4-5-.7-7.4-.2-1.7 0-3 1.7-3.8 2.1-1 4 0 4.2 2.3.6 6.5 1.1 13.1 1.6 19.5.2 2.2-.6 3.2-2.3 3.8-1.7.4-2.2-.3-3.4-2.3-1.7-2.8-3.8-5.3-5.7-7.9 0-.1-.1-.1-.2.1zm157.8 4.3c-2.8 0-5.1-1.1-6.8-3.2-1.4-1.9-2.7-4.1-3.7-6.3-.9-1.9-.3-3.2 1.3-3.9 1.7-.7 3.2 0 4 1.8.6 1.2 1.1 2.6 1.8 3.8.8 1.2 1.8 2.1 3.4 2 1.3-.1 1.6-.9 1.1-1.8-.4-.9-1.2-1.6-2-2.2-2-1.8-4.3-3.3-6.2-5.3-3.2-3.3-3.9-7.5-2.1-11.3 2.8-5.7 10-6.2 13.5-1.1 2 2.9 2.4 6.3 2.6 9.7 0 1.6-1.1 2.3-2.7 2.4-1.7 0-3-1.2-3.2-2.9-.1-1.2-.1-2.4-.4-3.6-.3-1-.9-2-1.6-2.7-1.3-1.2-2.7-.6-3 1.2-.2 1.9.3 3.6 1.7 4.8 1.6 1.4 3.3 2.7 5 4 2.1 1.7 4 3.4 4.3 6.3.8 4.5-2.5 8.3-7 8.3zm138.6 1.9c4.2 5.4 2.4 11.6-1.4 14.3s-9 1.9-11.6-1.7c-3.3-4.3-2.1-9 3.6-13.6-2.4-2.9-3-6.1-1.4-9.7 1.3-2.9 3.8-4.5 6.9-4.9 3.8-.4 6.1 1.7 6.7 6 .4 3.6-.4 6.7-2.8 9.6zm-2.9 6.5c-.8-1-1.3-2.3-2.3-2.8-1.1-.4-3.8 2.2-3.8 3.6 0 1.3 1.2 2.6 2.7 2.7s2.9-1.5 3.4-3.5zm-.6-16c-2.8 1.1-3.1 3.1-.8 5.1 1.4-1.4 1.8-3.1.8-5.1zm-207.5 7.7c-3.6 0-6.1-1.9-8.1-4.5-.9-1.2-1.7-2.7-2.3-4.1-.9-1.8-.4-3.2 1-3.9 1.7-.8 3.3-.3 4.2 1.3.7 1.1 1.1 2.3 1.9 3.2s1.8 1.6 2.9 2c.6.2 1.4-.2 2-.7.2-.1 0-1.2-.4-1.7-.7-.8-1.6-1.4-2.4-2.1-2.1-1.6-4.3-2.8-6.3-4.5-3.7-3.3-4.5-8-2.6-11.8 2.2-4.2 7.3-5.4 11.1-2.7s4.8 6.9 5.1 11.1c.1 1.6-1.2 2.3-2.7 2.4-1.6.1-2.9-1-3.3-2.6-.3-1.3-.4-2.7-.9-3.9-.7-1.9-2.3-3-3.4-2.6-1.2.4-1.7 2.8-.3 4.3 1.2 1.6 2.9 2.9 4.5 4.1s3.4 2.1 5 3.3c2.6 2.1 3.3 5.3 2.2 8.2-1 3.4-3.8 5.3-7.2 5.2zm47.6-5.8c0 1.9-1.2 3.3-2.8 3.4-1.8.1-2.6-1.1-3-2.6-.2-.6-.2-1.2-.3-1.9-.2-1.1-.3-2.8-.9-3.1-1.3-.6-3.1-.6-4.7-.6-.3 0-.8.7-1 1.1-.6 1.6-1 3.1-1.6 4.7-.7 1.8-2.2 2.4-4 1.8-1.7-.7-2.2-1.8-1.6-3.8 2.4-7.4 4.9-14.8 7.3-22.2.4-1.6 1.3-2.6 2.9-2.9 1.6-.2 2.3.8 3.3 1.7 1.4 1.4 1.7 3.3 2 5.1 1.3 5.9 2.7 11.8 4 17.6.3.8.4 1.4.4 1.7zm-139.8 11.8c0 2-.7 3.1-2 3.7-1.3.4-2.3-.2-3.1-1.2-.4-.6-.7-1.2-.9-1.9-1.1-4-2-4.5-6-3.6-.4.1-1 .9-1.2 1.3-.3 1.6-.4 3.1-.8 4.7-.3 1.8-1.9 2.8-3.7 2.4s-2.4-1.4-2.1-3.6c1.2-7.8 2.6-15.6 3.8-23.4.2-1.3.8-2.3 2.1-2.8 1.3-.4 2.2.2 3.3 1 1.9 1.3 2.6 3.2 3.3 5.1 2.2 5.5 4.4 11.1 6.7 16.6.4.7.5 1.5.6 1.7zm-9.9-9.3c-.4-1-.8-1.9-1.1-2.7-.1 0-.3.1-.4.1-.1.9-.2 1.8-.3 2.8h.9c.2 0 .3-.1.9-.2zm80.1-16.8c.2 2.2.3 4.3.6 6.4 2.6 0 5.9-1.3 6.2 2.4.3 3.9-3.3 3-5.8 3.7.1 1.2.2 2.2.3 3.3h5c1.7 0 2.8.8 2.9 2.6.2 1.7-.9 3.2-2.4 3.3-2.8.2-5.5.4-8.3.6-1.9.1-3-.9-3.2-2.8-.7-8.1-1.3-16.2-2-24.3-.1-1.4.2-2.4 1.7-3.1 1.6-.7 2.8-.2 3.9 1 .3.4 1.1.8 1.8.7 1.2 0 2.3-.3 3.6-.4 1.8-.1 3 .8 3.2 2.4.2 1.9-.8 3.2-2.6 3.6-1.6.3-3.2.4-4.9.6zm164.4 10.7c4.7.6 5.8 1.2 5.7 3.6-.1 2.1-1.2 2.6-6.4 2.4-.1 1.1-.3 2.3-.6 3.7 1.7.2 3.2.6 4.9.8s2.4 1.1 2.4 2.8c-.1 1.7-1.2 3-2.7 2.8-3.1-.3-6.2-.9-9.3-1.4-1.6-.3-2-1.6-1.8-3.1.7-5.2 1.4-10.4 2.1-15.8.4-2.9.9-5.7 1.3-8.5.2-1.4 1-2.3 2.4-2.4 1.4-.2 2.8.3 3.2 1.8.3 1 .8 1.2 1.8 1.2 1.1 0 2.1.2 3.2.3 2.1.2 3 1.2 2.8 3.2-.2 1.8-1.6 3-3.3 2.8-1.4-.1-3-.3-4.8-.4-.4 2-.7 4.1-.9 6.2zm-273.3 8.1c.3-1.2.4-3.4 1.2-5.3 2.1-5.1 8.1-6 11.4-1.8 1.3 1.8 2.2 4 2.9 6.2.6 1.9-.4 3.2-2.1 3.6-2 .3-3-.4-3.6-2.4-.3-1.1-.8-2.2-1.3-3.3-.6-1.1-1.3-1-1.8.1-.3 1.2-.9 2.4-.7 3.7.4 2.8 1 5.5 1.9 8.2.2.7 1.3 1.2 2 1.8.4-.7 1-1.3 1.2-2.1s.1-1.8.2-2.7c.1-1.4 1-2.3 2.4-2.4 1.4-.2 2.7.3 3.2 1.8 1.6 3.9-1.4 10.2-5.3 11.4-3.2 1-5.5-.4-7.5-2.8-3.1-3.8-3.7-8.5-4.1-14zm-16.8 15.1c-.1 1.6-.1 2.3-.2 3.2-.2 2-1.7 3-3.6 2.9-1.7-.2-2.6-1.4-2.3-3.4.2-2.3.6-4.8.7-7.1 0-.9-.3-2.1-.9-2.8-1.8-2.3-3.7-4.4-5.7-6.7-1.1-1.2-1.3-2.6-.4-4 1-1.7 3.1-2 4.4-.4 1.2 1.2 2.3 2.7 3.7 4.1.3-2.6.6-4.9.9-7.1.2-1.9 1.8-2.9 3.4-2.7 1.8.2 2.4 1.2 2.3 3.4-.3 3.4-.7 6.9-1.1 10.3-.2 1.6.1 2.8 1.2 3.9 1.8 1.9 3.3 3.9 5 5.9 1.3 1.7 1.2 3.4-.2 4.7-1.4 1.2-2.8.9-4.3-.9-1.1-1-1.8-1.9-2.9-3.3zm-23.2-7.5c.7 2.1 1.2 4.1 1.8 6.3 2.3-.4 5.3-2.3 6.4 1.2 1 3.7-2.6 3.6-4.9 4.7.3 1.1.6 2.1.9 3.4 1.7-.3 3.2-.8 4.8-1.1 2.2-.6 3.6.1 4 2 .4 1.8-.4 3-2.7 3.6s-4.3 1.2-6.5 1.8c-2.7.7-3.8 0-4.5-2.6-2.1-7.5-4.1-15.1-6.3-22.7-.4-1.6-.2-2.8 1.2-3.6 1.3-.8 2.6-.6 3.8.4.4.3 1.2.6 1.8.4 1.1-.2 2.1-.7 3.2-1 1.9-.6 3.1 0 3.7 1.7.7 1.7-.1 3.3-1.9 4-1.5.5-3.1 1-4.8 1.5zm297.9-23.7c-2.3 1.1-3.1 2.8-3.4 4.4-.6 2.7-.9 5.3-1 8 0 .8.9 1.7 1.3 2.4.7-.7 1.3-1.2 1.9-1.9.4-.6.6-1.2.8-1.9.6-1.6 1.6-2.2 3.2-1.9 1.7.3 2.7 1.6 2.6 3.2-.2 3-3.3 7.1-6.1 8-3.2 1.1-6.5-.3-8.2-3.6-1.8-3.3-1.7-7-1-10.5.6-2.9 1.7-5.8 3-8.4 1.4-2.7 3.9-4 7.1-3.6 3.3.4 5 2.6 5.5 5.5.4 1.9.4 4 .3 6-.1 1.7-1.4 2.6-3.2 2.3-1.7-.2-2.4-1.2-2.6-2.9 0-1.5-.1-3.1-.2-5.1zm-179.3-3.6c.1 1.9.2 3.3.3 5 1.3-.1 2.4-.3 3.7-.4 1.8-.1 2.8.7 3.1 2.3.3 1.8-.6 3.1-2.3 3.4-1.2.2-2.4.3-3.9.6.2 3.7.4 7.2.7 10.8.1 2.1-1.1 3.4-3.1 3.3-1.6 0-2.6-.7-2.7-2.3-.3-4.8-.8-9.5-1.1-14.3-.3-4-.6-8-.8-12.1-.1-1.6.1-2.9 1.7-3.4 1.3-.6 2.7-.4 3.8.9.2.3 1 .4 1.4.3 1.7 0 3.2-.2 4.9-.2 2.2 0 3.4 1.1 3.4 3.1s-.9 2.8-3.3 2.9c-1.8.1-3.7.1-5.8.1zm279.3 34c-2.4-.2-4.7-.4-6.8-.7-3-.2-4.2-2.3-2.8-4.9l5.4-9.3c1.2-2 2.7-2.4 4.4-1.4 1.6.9 1.8 2.4.7 4.4-1.1 1.9-2.2 3.8-3.3 5.9h3.8c.2-.8.3-1.7.6-2.6.4-1.7 1.7-2.6 3.3-2.2 1.7.3 2.8 1.9 2.4 3.4-1.1 4.9-2.2 9.8-3.3 14.6-.4 1.7-1.9 2.6-3.4 2.2-1.7-.4-2.7-1.8-2.3-3.6.3-1.8.8-3.7 1.3-5.8zm-205.7-35.7v18.1c0 2-1 3-2.8 3.1-1.9.1-3-.9-3-3-.1-5.2-.2-10.3-.4-15.5 0-.9-.1-1.8-.2-2.9-1.3-.1-2.6-.2-3.8-.3-1.8-.1-3.1-1.4-3.1-3.2s1.1-2.7 3.2-2.7c4.7.1 9.3.3 14 .6 1.8.1 2.9 1.4 2.8 3.3-.1 1.7-.9 2.4-2.9 2.4-1.1.1-2.5.1-3.8.1zm70-2.3-1.2 21.3c-.1 1.4-.2 2.9-1.9 3.4-2.1.8-4.2-.7-4.1-3 .2-5.5.6-11.1.9-16.6.1-2.3.2-4.7.4-7 .2-2.2 1.2-3 3.1-2.9 1.8.1 2.7 1.1 2.7 3.2.2.6.2 1.1.1 1.6zm-123.2 23.1c.1 2.8-.8 4.1-2.9 4.1-1.6 0-2.7-.7-2.8-2.3-.4-4.8-1-9.5-1.4-14.2l-.9-9c-.2-2.3.6-3.4 2.4-3.8 2.1-.2 3.1.6 3.3 3 .7 7.3 1.5 14.8 2.3 22.2zm-98.5 16.8c.1 2-1 2.8-2.6 2.9-1.7.2-2.8-.6-3.2-2.2-1.1-4.9-2.2-9.8-3.3-14.6-.6-2.7-1.2-5.2-1.8-7.9-.4-2.1.3-3.7 2-4.1 2-.4 3.2.4 3.8 2.7 1.7 7.4 3.3 15 5 22.4.1.2.1.7.1.8zm302.4-30.7c-.7 3.6-1.3 7.7-2 11.6-.6 3.3-1.2 6.7-1.8 10-.3 2.1-1.6 3-3.6 2.7-1.8-.3-2.8-1.7-2.4-3.6 1.2-7.3 2.6-14.5 3.9-21.9.3-1.9 1.6-2.8 3.3-2.6 1.7.4 2.7 1.5 2.6 3.8zm-62.1-112.2v-31.2c0-2.7-.1-5.3-.3-7.9-.1-1.2.3-1.8 1.6-1.9 3.8-.6 7.7-1.3 11.4-1.8 3.3-.3 6.8-.4 10.1-.4 2.9 0 5.5 1 7.9 2.7 2.3 1.7 2.4 4.1 2.1 6.7-.8 5.2-3.9 9.3-7.3 13.1-7.2 7.8-15.4 14.4-24.2 20.4-.1-.1-.3-.1-1.3.3zm-343.4 50.3c-6.9 1.1-13.8 2.2-21 3.3 3.6-12.1 7.1-24.1 10.8-36.4 3.4 11.3 6.9 22.3 10.2 33.1zm457-23.8c-1-8.9-2-17.5-3-26.2-.3-2.4-.7-5-1.1-7.4-.2-1.4.1-2.2 1.7-2.6 3.9-.8 7.7-1.7 11.5-2.6 1.9-.4 3.7-1 5.5-1.2 3-.3 6-.1 8.8 1.2 1.9 1 2.8 2.6 2.9 4.7.4 5.9-2.7 10.3-6 14.5-5.5 7.1-12.1 13.1-19.1 18.7-.3.4-.7.6-1.2.9zm-281.9-36.6c-.3 9.9-3.6 19.7-11.8 27.4-2.1 2-4.5 3.8-7.8 4.1-4.5.6-10.1-4.1-11.6-8.8-1.9-5.7-1-11.1.7-16.5 2.8-8.4 7.3-15.6 14.8-20.7 2.3-1.6 5.3-2.3 8.1-3.1 1.1-.3 2.3.1 3.2 1.3 3.5 4.6 4.3 9.8 4.4 16.3zm108.6 10.3c-.9-.7-1.6-1.2-2.4-1.7-4.8-2.7-4.3-10.1.6-13.1 4.4-2.8 9.1-2.3 13.8-.9 1.3.4 2.8.4 4.2.9.8.2 1.7.8 1.9 1.3 1.8 4.8-.1 10.1-5.5 11.3-2.8.7-5.8-.9-6.9-3.3-.7-1.6-.2-2.8 1.2-3.8.3.4.7.8 1 1.2.6.9 1.3 1.8 2.3.9.7-.7 1.4-1.9 1.3-2.8-.2-1.9-1.9-2.7-3.6-2.9-1.9-.3-3.4.4-4.5 2.1-2 3-.8 7.2 2.4 8.9.8.4 1.7.7 2.4 1.1.4.3 1.1.9 1.1 1.2 0 .4-.7 1-1.1 1.2-1.9.8-4 1.2-5.8 2.2-4.2 2.3-5.4 7.5-2.7 11.5 1.7 2.3 4.9 3.3 7.8 2.4 2.1-.7 3.3-2.9 3.4-5.8.1-2.2 0-4.2-2.7-5-.3-.1-.9-1-.8-1.4s.8-1 1.3-1c.8-.1 1.6.3 2.4.3 3 0 6-.1 9-.1.9 0 1.7.3 2.6.4-.3.8-.6 1.8-1.2 2.2-2.8 2.2-2.9 7.1-.2 9.8.4.4.3 2 0 2.6-2 2.9-4.9 4.7-8.2 5.7-6.3 1.9-12.5 1.8-18-2.2-7.3-5.3-6.7-16.4 1.1-21.3 1.1-.6 2.3-1.1 3.8-1.9z"/><path d="m4278.6 198.8c0 13.9-10.3 27.7-22.7 30.8l-221.9 53.5c-12.4 3-33 3-45.5 0l-221.9-53.7c-12.4-3-22.7-16.9-22.7-30.8v-78.5c0-13.9 10.3-27.7 22.7-30.8l221.9-53.5c12.4-3 33-3 45.5 0l221.9 53.6c12.4 3 22.7 16.9 22.7 30.8z" fill="none"/><path d="m4011.2 293.1c-9.2 0-17.9-.9-24.6-2.5l-221.9-53.5c-16-3.9-28.7-20.7-28.7-38.3v-78.6c0-17.6 12.5-34.3 28.7-38.3l221.9-53.6c6.7-1.6 15.3-2.5 24.6-2.5s17.9.9 24.6 2.5l221.9 53.7c16 3.9 28.7 20.7 28.7 38.3v78.4c0 17.6-12.5 34.3-28.7 38.3l-221.9 53.6c-6.7 1.7-15.3 2.5-24.6 2.5zm0-251.9c-8 0-15.4.7-20.9 2.1l-221.9 53.5c-9 2.2-16.9 13.1-16.9 23.3v78.5c0 10.3 8 21.1 16.9 23.3l221.9 53.6c5.4 1.3 13 2.1 20.9 2.1s15.6-.7 20.9-2.1l221.9-53.6c9-2.2 16.9-13 16.9-23.3v-78.5c0-10.3-8-21.1-16.9-23.3l-221.9-53.5c-5.4-1.2-13-2.1-20.9-2.1z" fill="none"/><path d="m4011.2 291.6c-9.1 0-17.7-.8-24.2-2.5l-221.9-53.6c-15.3-3.7-27.5-19.9-27.5-36.7v-78.6c0-16.9 12.1-33.1 27.5-36.7l221.9-53.7c6.6-1.6 15.1-2.5 24.2-2.5s17.7.8 24.2 2.5l221.9 53.6c15.3 3.7 27.5 19.9 27.5 36.7v78.5c0 16.9-12.1 33.1-27.5 36.7l-221.9 53.7c-6.6 1.7-15.1 2.6-24.2 2.6zm0-251.9c-8.1 0-15.8.8-21.3 2.1l-221.9 53.5c-9.8 2.3-18 13.8-18 24.8v78.5c0 11.1 8.3 22.5 18 24.8l221.9 53.6c5.5 1.3 13.2 2.1 21.3 2.1s15.8-.8 21.3-2.1l221.9-53.5c9.8-2.3 18-13.7 18-24.8v-78.6c0-11.1-8.3-22.5-18-24.8l-221.9-53.5c-5.6-1.3-13.2-2.1-21.3-2.1z"/><path d="m3898.9 219.5h6.9c4.3 0 7.5 2.9 7.5 7 0 4-3.3 7-7.5 7h-6.9v-2.3h1.5v-9.5h-1.5zm4.1 2.2v9.5h2.8c2.7 0 4.8-2 4.8-4.7 0-2.8-2-4.8-4.8-4.8zm26.8 1.6v-1.5h-4.6v4h3.4v2.2h-3.4v3.4h4.6v-1.5h2.1v3.9h-10.8v-2.3h1.5v-9.5h-1.5v-2.3h10.8v3.9zm10.6 10.1v-2.3h1.5v-9.5h-1.5v-2.3h6.2v2.3h-2.1v9.5h4.6v-1.5h2.1v3.9h-10.8zm18.5-13.9h5.6v2.3h-1.5v9.5h1.5v2.3h-5.6v-2.3h1.5v-9.5h-1.5zm26.1 13s-1.8 1.2-4.7 1.2c-4.6 0-8-2.9-8-7.3 0-4.1 3.2-7.3 6.9-7.3 3.4 0 4 1.4 4.1 1.8l-.1-1.4h2.2v4.8h-2.2c-.1-1.6-1.6-2.7-3.5-2.7-2.9 0-4.7 2.1-4.7 5 0 2.8 2.3 4.9 4.9 4.9 2.8 0 4.3-.9 4.3-.9zm11-13h4.6l5.3 11.7h1.5v2.3h-5.3v-2.3h1.1l-.6-1.4h-5.3l-.6 1.4h1.2v2.3h-5.3v-2.3h1.5l4.3-9.5h-2.5v-2.2zm2.1 8.2h3.6l-1.8-4.2zm17.9 3.5h1.5v-9.5h-2.6v1.5h-2.1v-3.9h11.7v3.9h-2.1v-1.5h-2.5v9.5h1.5v2.3h-5.6v-2.3zm24.9-7.9v-1.5h-4.6v4h3.4v2.2h-3.4v3.4h4.6v-1.5h2.1v3.9h-10.8v-2.3h1.5v-9.5h-1.5v-2.3h10.8v3.9zm12.7 5.8v.2c0 1.6 1.4 2.1 2.7 2.1 1.6 0 2.3-.8 2.3-1.8s-.5-1.5-3-2.5c-2.7-1.1-3.7-2.5-3.7-4.2 0-2 1.5-3.9 4.3-3.9 1.9 0 2.5 1.1 2.5 1.2l-.2-.9h2.2v4.1h-2.2v-.7c-.1-1.2-1.1-1.5-2.2-1.5-1.4 0-2 .7-2 1.6s.8 1.6 2.8 2.3c3.2 1.3 4.1 2.5 4.1 4.3 0 2.5-1.9 4.1-4.3 4.1-2.7 0-3.4-1.4-3.4-1.4l.2 1.2h-2.2v-4.3zm18 0v.2c0 1.6 1.4 2.1 2.7 2.1 1.6 0 2.3-.8 2.3-1.8s-.5-1.5-3-2.5c-2.8-1.1-3.7-2.5-3.7-4.2 0-2 1.5-3.9 4.3-3.9 1.9 0 2.5 1.1 2.5 1.2l-.2-.9h2.2v4.1h-2.1v-.7c-.1-1.2-1.1-1.5-2.1-1.5-1.4 0-2 .7-2 1.6s.8 1.6 2.7 2.3c3.2 1.3 4.1 2.5 4.1 4.3 0 2.5-1.9 4.1-4.3 4.1-2.7 0-3.4-1.4-3.4-1.4l.2 1.2h-2.2v-4.3zm24.6-5.8v-1.5h-4.6v4h3.4v2.2h-3.4v3.4h4.6v-1.5h2.1v3.9h-10.6v-2.3h1.5v-9.5h-1.5v-2.3h10.6v3.9zm20.1-3.8h5.6v2.3h-1.5v11.7h-2l-7.6-9.2v6.9h1.5v2.3h-5.6v-2.3h1.5v-9.5h-1.5v-2.3h3l8.1 9.4v-7.1h-1.5z" fill="#231f20"/><path d="m3972.1 86.8v-1.8h-5v4.3h3.7v2.5h-3.7v3.7h5v-1.8h2.3v4.3h-11.6v-2.5h1.6v-10.4h-1.6v-2.5h11.6v4.2zm6.9 6.3v.2c0 1.8 1.6 2.2 3 2.2 1.8 0 2.6-.9 2.6-1.9 0-1.1-.6-1.6-3.4-2.7-3-1.2-4.1-2.7-4.1-4.6 0-2.2 1.8-4.3 4.8-4.3 2 0 2.7 1.2 2.7 1.3l-.2-.9h2.5v4.6h-2.5v-.7c-.1-1.3-1.2-1.6-2.3-1.6-1.5 0-2.1.8-2.1 1.8 0 1.1.8 1.8 3 2.6 3.5 1.3 4.4 2.7 4.4 4.7 0 2.8-2.1 4.4-4.8 4.4-3 0-3.7-1.5-3.7-1.5l.2 1.3h-2.5v-4.8zm13.3 2.3h1.6v-10.4h-2.8v1.8h-2.3v-4.2h12.9v4.2h-2.3v-1.8h-2.8v10.4h1.6v2.5h-6.1zm11.9 2.8c-.9 0-1.6-.7-1.6-1.6s.7-1.6 1.6-1.6 1.6.7 1.6 1.6-.7 1.6-1.6 1.6zm11.1-2.8h3v-9.5l-3.3 1.3-.9-2.3 6.2-2.5h.7v12.9h2.7v2.5h-8.4zm11.1.8c3.3-1.5 5.5-3.5 6.1-5.3-.5.6-1.5 1.5-3 1.5-2.9 0-4.8-1.8-4.8-5 0-2.9 2-5.3 5.6-5.3 3.3 0 5.5 2.3 5.5 5.9 0 5.3-3.3 7.8-8 10.5zm3.9-11.4c-1.4 0-2.7.9-2.7 2.8s1.2 2.8 2.7 2.8 2.6-.9 2.6-2.8-1.2-2.8-2.6-2.8zm8.9 11.4c3.3-1.5 5.5-3.5 6.1-5.3-.5.6-1.5 1.5-3 1.5-2.9 0-4.8-1.8-4.8-5 0-2.9 2-5.3 5.6-5.3 3.3 0 5.5 2.3 5.5 5.9 0 5.3-3.3 7.8-8 10.5zm3.8-11.4c-1.4 0-2.7.9-2.7 2.8s1.2 2.8 2.7 2.8 2.6-.9 2.6-2.8-1-2.8-2.6-2.8zm14.8-2.5c4.6 0 7.4 3.4 7.4 8s-2.6 8-7.4 8-7.5-3.4-7.5-8c0-4.5 3-8 7.5-8zm0 13.5c2.8 0 4.4-2.5 4.4-5.6s-1.6-5.6-4.4-5.6-4.6 2.5-4.6 5.6 1.9 5.6 4.6 5.6z" fill="#231f20"/><path d="m3849.4 130.3c-5.3-6.3-12.1-9.9-18.6-9.9h-6.7v72.6h16.4v-48.4c2.8 4.3 8.9 15.4 8.9 33v15.6h16.4v-72.7h-16.4zm204.5 48.2c0 12.6 9.9 14.6 15.7 14.6h18v-14.7h-17.4v-15.8h15.7v-14.3h-15.6v-13.1h17.4v-14.9h-33.8zm74.8-.3v-57.8h-16.4v56.4c0 3.6 0 7.5 3.9 11.5 3.5 4.1 9.2 4.6 13.8 4.6h14.9v-14.9h-14.9c-.6.2-.9.2-1.3.2zm-116.5-40.3c0 1.5 0 3.5-2.3 5.9-.5.5-.9.8-1.5 1.3v-24.7h-16.5v72.6h16.5v-27.2c.6.5 1.1.8 1.5 1.2 2.5 2.3 2.5 4.3 2.5 5.9v20.2h16.4l.1-6.4v-15.2c0-5.7-3.4-11.8-8.8-15.9 5.4-4.1 8.8-10.4 8.8-15.9v-19.1h-16.6v17.3z"/><path d="m3891.7 120.4h16.4v72.7h-16.4z"/><path d="m3951.1 119.9c-8.8 0-17.7 6-17.7 17.2v39.6c0 11.2 8.9 17.2 17.7 17.2s17.7-6 17.7-17.2v-3.9h-16v3.9c0 1.8-.4 1.8-1.5 1.8-1.3 0-1.5 0-1.5-1.8v-39.4c0-1.8.4-1.8 1.5-1.8 1.2 0 1.5 0 1.5 1.8v3.9h16v-3.9c-.1-11.4-9.1-17.4-17.7-17.4zm246 42.9c-2.6-6.7-7.1-9.8-11.1-12.4-3.3-2.2-5.7-4-6.9-7.3-.4-1.1-.4-2.8-.4-4.8v-1.1c0-1.8.4-1.8 1.5-1.8 1.3 0 1.5 0 1.5 1.8v3.9h16v-3.9c0-11.2-8.9-17.2-17.7-17.2s-17.7 6-17.7 17.2c0 5.5.2 9.1 1.5 12.2 2.5 6.2 6.9 9 10.8 11.4 3.5 2.2 6.2 4 7.5 8 .4 1.3.4 3 .4 5.4v1.4c0 1.6-.9 1.8-2.1 1.8-1.1 0-2.1-.1-2.1-1.8v-3.9h-16v3.9c0 11.1 9.4 17.2 18.1 17.2 8.5 0 17.7-5.3 17.7-16.9v-2.5c.1-4 .1-7.4-1-10.6z"/><path d="m4606.5 240.2h-4.6v19.6h3.1v-7.4h1.5c3.1 0 4.6-1.7 4.6-4.9v-2.5c0-3.1-1.6-4.8-4.6-4.8zm1.5 7.5c0 1.4-.6 1.8-1.5 1.8h-1.5v-6.7h1.5c1 0 1.5.4 1.5 1.8z"/><path d="m4626.5 240.2h3.1v19.6h-3.1z"/><path d="m4645.6 243h5.6l-5.9 14v2.8h8.9v-2.8h-5.8l5.8-14.1v-2.7h-8.6z"/><path d="m4669.9 243h5.5l-5.8 14v2.8h9v-2.8h-5.8l5.8-14.1v-2.7h-8.7z"/><path d="m4696.6 240.2-3.2 19.6h2.8l.6-3.6h3.7l.6 3.6h3.1l-3.2-19.6zm.7 13.3 1.5-9.8 1.5 9.8zm45.3-13.3h-4.6v19.6h3.1v-7.4h1.4c3.1 0 4.6-1.7 4.6-4.9v-2.5c0-3.1-1.5-4.8-4.5-4.8zm1.5 7.5c0 1.4-.6 1.8-1.5 1.8h-1.4v-6.7h1.4c1 0 1.5.4 1.5 1.8zm20.4-7.5-3.2 19.6h2.8l.6-3.6h3.7l.6 3.6h3.1l-3.2-19.6zm.5 13.3 1.5-9.8 1.5 9.8zm25.1-8.8c0-1.4.6-1.9 1.5-1.9 1 0 1.5.6 1.5 1.9v.8h2.9v-.6c0-3.2-1.5-4.9-4.6-4.9s-4.6 1.8-4.6 4.9c0 5.5 6 6.4 6 10.4 0 1.4-.6 1.9-1.7 1.9-1 0-1.5-.6-1.5-1.9v-1.3h-2.9v1.2c0 3.2 1.5 4.9 4.6 4.9s4.6-1.8 4.6-4.9c.3-5.7-5.8-6.5-5.8-10.5z"/><path d="m4811.1 243h3.2v16.8h3v-16.8h3.2v-2.8h-9.4z"/><path d="m4837 240.2-3.2 19.6h2.8l.6-3.6h3.7l.6 3.6h3.1l-3.2-19.6zm.7 13.3 1.5-9.8 1.5 9.8z"/><path d="m4878.4 259.8h8.4v-2.8h-5.3v-5.8h4.2v-2.8h-4.2v-5.4h5.3v-2.8h-8.4z"/><path d="m4928.1 249.4c1.4-.7 1.9-1.9 1.9-3.9v-.7c0-3.1-1.4-4.4-4.6-4.4h-4.6v19.6h4.9c3.1 0 4.7-1.7 4.7-4.6v-1.5c.1-2.4-.6-4-2.3-4.5zm-4.1-6.4h1.5c1.1 0 1.5.6 1.5 2.1v1.1c0 1.5-.7 2.1-1.8 2.1h-1.2zm3.5 12.1c0 1.4-.6 1.9-1.7 1.9h-1.8v-6h1.4c1.4 0 1.9.6 1.9 2.4v1.7zm21-14.9-3.2 19.6h2.8l.6-3.6h3.7l.6 3.6h3.1l-3.2-19.6zm.7 13.3 1.5-9.8 1.5 9.8zm25.1-8.8c0-1.4.6-1.9 1.5-1.9 1 0 1.5.6 1.5 1.9v.8h2.9v-.6c0-3.2-1.5-4.9-4.6-4.9s-4.6 1.8-4.6 4.9c0 5.5 6 6.4 6 10.4 0 1.4-.6 1.9-1.5 1.9-1 0-1.5-.6-1.5-1.9v-1.3h-2.9v1.2c0 3.2 1.5 4.9 4.6 4.9s4.6-1.8 4.6-4.9c0-5.7-6-6.5-6-10.5z"/><path d="m4995.1 243h3.2v16.8h3.1v-16.8h3.2v-2.8h-9.5z"/><path d="m5021.2 240.2-3.2 19.6h2.8l.6-3.6h3.7l.6 3.6h3.1l-3.2-19.6zm.6 13.3 1.5-9.8 1.5 9.8zm-579.4-121.9c0 20.1 6.8 36.8 20.5 49.7 12.6 11.9 29.1 19 49.4 21.1v-106.5h-18.4l3.3 10.4h4.7v84.3c-14.7-3.2-26.5-10.1-35.6-20.8-9.2-10.7-13.6-23.3-13.6-38.1 0-17.3 5.7-31.6 17.2-43s25.7-17.1 42.3-17.1v-10.2c-19.7 0-36.3 6.8-49.8 20.1-13.2 13.6-20 30.3-20 50.1zm111-72.1c-10 0-16.5 4-19.7 12.1-1.7 4.3-2.5 12.5-2.5 24.3h-8.9l3.3 10.4h5.5v96.1h10.4v-96.1h23.9v96.1h10.1v-115.6c0-8.3-1.5-14.7-4.7-19.3-3.6-5.2-9.4-8-17.4-8zm11.9 36.3h-23.9v-12.6c0-3.9 1.1-7.2 3.3-9.6 2.2-2.5 5.3-3.7 9.2-3.7 3.6 0 6.5 1.2 8.5 3.7s2.9 5.7 2.9 9.6z"/><path d="m4587.1 71.8h16.8v130.6h10.2v-130.6h16.5v-10.4h-43.5z"/><path d="m4677 61.4h-43.6v10.4h16.6v130.6h10.4v-130.6h16.6z"/><path d="m4793 183.2c14.1-14.1 21.1-31.1 21.1-50.9s-6.9-36.9-20.7-51.2-30.5-21.5-50.2-21.5c-20.7 0-38.1 7.1-52.4 21.1-14.3 14.1-21.4 31.5-21.4 52.2 0 20 7.1 36.9 21.4 50.8s31.2 20.7 51.2 20.7c20.1-.1 37-7.2 51-21.2zm-95-7.5c-12.1-12.1-18.2-26.6-18.2-43.7 0-16.8 6-31.3 17.9-43.7s26.2-18.4 42.7-18.4c17.9 0 33 6 45.2 17.9s18.4 26.9 18.4 44.9c0 16.9-6.1 31.3-18.3 43.1-12.2 11.9-26.8 17.9-43.8 17.9-17.1.2-31.8-5.8-43.9-18z"/><path d="m4855.9 107.8-21.4-48.9-23.3 143.5h10.8l17-109.2 16.9 39.9 16.5-39.3 17.2 108.6h10.7l-23.3-143.5z"/><path d="m4952.4 202.4v-115.6c0-8.3-1.5-14.7-4.7-19.3-3.6-5.4-9.6-8-17.5-8-10 0-16.5 4-19.7 12.1-1.7 4.3-2.5 12.5-2.5 24.3h-8.9l3.3 10.4h5.5v96.1h10.4v-96.1h23.9v96.1zm-34-106.6v-12.6c0-3.9 1.1-7.2 3.3-9.6 2.2-2.5 5.3-3.7 9.2-3.7 3.6 0 6.5 1.2 8.5 3.7s2.9 5.7 2.9 9.6v12.6z"/><path d="m4964.1 71.8h16.6v130.6h10.4v-130.6h16.4v-10.4h-43.4z"/><path d="m5053.8 61.4h-43.5v10.4h16.7v130.6h10.3v-130.6h16.5z"/><path d="m5170.5 81c-13.7-14.3-30.5-21.5-50.2-21.5-20.7 0-38.1 7.1-52.4 21.1-14.3 14.1-21.4 31.5-21.4 52.2 0 20 7.1 36.9 21.4 50.8s31.2 20.7 51.2 20.7c19.8 0 36.8-7.1 50.9-21.1 14.1-14.1 21.1-31.1 21.1-50.9 0-20-6.9-37-20.6-51.3zm-7.8 95c-12.2 11.9-26.8 17.9-43.8 17.9-17.2 0-31.9-6.1-44-18.2s-18.2-26.6-18.2-43.7c0-16.8 6-31.3 17.9-43.7s26.2-18.4 42.7-18.4c17.9 0 33 6 45.2 17.9s18.4 26.9 18.4 44.9c.1 17.1-6 31.5-18.2 43.3z"/></svg>