<?xml version="1.0" encoding="utf-8"?>
<!-- Generator: Adobe Illustrator 22.1.0, SVG Export Plug-In . SVG Version: 6.00 Build 0)  -->
<svg version="1.1" id="Layer_1" xmlns="http://www.w3.org/2000/svg" xmlns:xlink="http://www.w3.org/1999/xlink" x="0px" y="0px"
	 viewBox="0 0 800 400" style="enable-background:new 0 0 800 400;" xml:space="preserve">
<style type="text/css">
	.st0{display:none;}
	.st1{display:inline;fill:#1A1A1A;}
	.st2{display:inline;fill:#FF0000;}
</style>
<g id="Layer_1_1_" class="st0">
	<path class="st1" d="M350.4,145l-25.6,111.7h15.5l6.7-30.8h23.6l6.6,30.8h15.7L368.8,145H350.4L350.4,145z M348.9,213.4l5.4-26.7
		c1.5-7.1,3.2-17.4,4.4-25.5h0.7c1.2,8,2.7,17.9,4.2,25.5l5.2,26.7H348.9L348.9,213.4z M452,142h-15.8v41.9h-0.3
		c-2.9-6.1-8.1-9.1-14.6-9.1c-13,0-25.3,13.4-25.3,41.9c0,25,9.3,41.3,24.4,41.3c8.2,0,14.5-5.5,17.2-11.1h0.5l1,9.8h13.6
		c-0.3-5.6-0.7-14.6-0.7-20.7L452,142L452,142z M436.2,228.3c0,1.8-0.2,3.8-0.5,5.1c-2.7,9.6-7.4,11.4-10.9,11.4
		c-8.4,0-12.8-11.6-12.8-28.2c0-14.9,3.4-28.5,13.3-28.5c5.7,0,9.9,6.3,10.8,13.6c0.2,1.7,0.2,3.5,0.2,5L436.2,228.3L436.2,228.3z
		 M490.5,174.8c-15,0-29,12.4-29,41.8c0,27.7,11.8,41.4,28.1,41.4h0.2c12.5,0,28.5-9.8,28.5-41.8
		C518.3,189.1,506.7,174.8,490.5,174.8L490.5,174.8z M490.2,245.7H490c-10.3,0-12.6-15.9-12.6-29.3c0-12.1,2-29.3,12.5-29.3
		c10.1,0,12.3,17.2,12.3,29.3C502.1,228.7,500,245.7,490.2,245.7L490.2,245.7z M561.2,174.8c-7.2,0-13,3.1-17.2,10.4h-0.3V142h-15.8
		v94c0,6.1-0.3,15.2-0.7,20.7h13.6l0.8-10.1h0.7c3.5,7.1,8.1,11.4,16.2,11.4c13.5,0,25.4-14.1,25.4-42.9
		C583.9,190.4,575.2,174.8,561.2,174.8L561.2,174.8z M555,244.9c-3.2,0-8.1-2-10.6-11.8c-0.5-1.3-0.7-3.1-0.7-5v-22.5
		c0-1.7,0.2-3.8,0.5-5.5c1.2-5.8,5.4-11.9,10.6-11.9c9.4,0,13.1,12.4,13.1,27.8C567.9,232.6,564.4,244.9,555,244.9L555,244.9z
		 M646,211.1c0-20.2-7.9-36.3-24.9-36.3s-29.3,16.2-29.3,42.6c0,24.9,10.8,40.1,31.3,40.1c7.2,0,14.6-1.3,19.5-3.8l-2.4-11.3
		c-3.5,1.7-8.4,3-14.1,3c-9.6,0-18.7-5.1-18.9-25.9l38.4,0.2C645.8,217.6,646,215.1,646,211.1L646,211.1z M607.4,208.5
		c0.5-10.1,4.2-21.9,12.5-21.9c6.2,0,11.3,7.6,11.1,21.9H607.4z"/>
	<path class="st2" d="M198.3,234.3l20.7-47.9l30.1,70.3h-19.7l-9-22.4L198.3,234.3L198.3,234.3z M155,145.3h47.3L155,256.7V145.3z
		 M282.9,256.7l-47.3-111.4h47.3V256.7z"/>
</g>
<g id="Layer_2_1_">
	<path d="M245.4,257.2h-3.3v14.1h2.2V266h1.1c2.2,0,3.3-1.2,3.3-3.5v-1.8C248.7,258.4,247.6,257.2,245.4,257.2z M246.5,262.6
		c0,1-0.4,1.3-1.1,1.3h-1.1v-4.8h1.1c0.7,0,1.1,0.3,1.1,1.3V262.6z"/>
	<rect x="259.8" y="257.2" width="2.2" height="14.1"/>
	<polygon points="273.6,259.2 277.6,259.2 273.4,269.3 273.4,271.3 279.8,271.3 279.8,269.3 275.6,269.3 279.8,259.1 279.8,257.2 
		273.6,257.2 	"/>
	<polygon points="291.1,259.2 295.1,259.2 290.9,269.3 290.9,271.3 297.4,271.3 297.4,269.3 293.2,269.3 297.4,259.1 297.4,257.2 
		291.1,257.2 	"/>
	<path d="M310.4,257.2l-2.3,14.1h2l0.4-2.6h2.7l0.4,2.6h2.2l-2.3-14.1H310.4z M310.9,266.8l1.1-7.1l1.1,7.1H310.9z"/>
	<path d="M343.5,257.2h-3.3v14.1h2.2V266h1c2.2,0,3.3-1.2,3.3-3.5v-1.8C346.8,258.4,345.7,257.2,343.5,257.2z M344.6,262.6
		c0,1-0.4,1.3-1.1,1.3h-1v-4.8h1c0.7,0,1.1,0.3,1.1,1.3V262.6z"/>
	<path d="M359.3,257.2l-2.3,14.1h2l0.4-2.6h2.7l0.4,2.6h2.2l-2.3-14.1H359.3z M359.7,266.8l1.1-7.1l1.1,7.1H359.7z"/>
	<path d="M377.8,260.4c0-1,0.4-1.4,1.1-1.4s1.1,0.4,1.1,1.4v0.6h2.1v-0.4c0-2.3-1.1-3.5-3.3-3.5c-2.2,0-3.3,1.3-3.3,3.5
		c0,4,4.3,4.6,4.3,7.5c0,1-0.4,1.4-1.2,1.4c-0.7,0-1.1-0.4-1.1-1.4v-1h-2.1v0.9c0,2.3,1.1,3.5,3.3,3.5c2.2,0,3.3-1.3,3.3-3.5
		C382.2,263.9,377.8,263.3,377.8,260.4z"/>
	<polygon points="392.9,259.2 395.2,259.2 395.2,271.3 397.4,271.3 397.4,259.2 399.7,259.2 399.7,257.2 392.9,257.2 	"/>
	<path d="M411.6,257.2l-2.3,14.1h2l0.4-2.6h2.7l0.4,2.6h2.2l-2.3-14.1H411.6z M412.1,266.8l1.1-7.1l1.1,7.1H412.1z"/>
	<polygon points="441.4,271.3 447.5,271.3 447.5,269.3 443.7,269.3 443.7,265.1 446.7,265.1 446.7,263.1 443.7,263.1 443.7,259.2 
		447.5,259.2 447.5,257.2 441.4,257.2 	"/>
	<path d="M477.3,263.8c1-0.5,1.4-1.4,1.4-2.8v-0.5c0-2.2-1-3.2-3.3-3.2h-3.3v14.1h3.5c2.2,0,3.4-1.2,3.4-3.3V267
		C479,265.3,478.5,264.2,477.3,263.8z M474.3,259.2h1.1c0.8,0,1.1,0.4,1.1,1.5v0.8c0,1.1-0.5,1.5-1.3,1.5h-0.9L474.3,259.2
		L474.3,259.2z M476.8,267.9c0,1-0.4,1.4-1.2,1.4h-1.3V265h1c1,0,1.4,0.4,1.4,1.7v1.2H476.8z"/>
	<path d="M492,257.2l-2.3,14.1h2l0.4-2.6h2.7l0.4,2.6h2.2l-2.3-14.1H492z M492.5,266.8l1.1-7.1l1.1,7.1H492.5z"/>
	<path d="M510.6,260.4c0-1,0.4-1.4,1.1-1.4s1.1,0.4,1.1,1.4v0.6h2.1v-0.4c0-2.3-1.1-3.5-3.3-3.5s-3.3,1.3-3.3,3.5
		c0,4,4.3,4.6,4.3,7.5c0,1-0.4,1.4-1.1,1.4c-0.7,0-1.1-0.4-1.1-1.4v-1h-2.1v0.9c0,2.3,1.1,3.5,3.3,3.5s3.3-1.3,3.3-3.5
		C514.9,263.9,510.6,263.3,510.6,260.4z"/>
	<polygon points="525.6,259.2 527.9,259.2 527.9,271.3 530.1,271.3 530.1,259.2 532.4,259.2 532.4,257.2 525.6,257.2 	"/>
	<path d="M544.4,257.2l-2.3,14.1h2l0.4-2.6h2.7l0.4,2.6h2.2l-2.3-14.1H544.4z M544.8,266.8l1.1-7.1l1.1,7.1H544.8z"/>
	<path d="M127.1,178.9c0,14.5,4.9,26.5,14.8,35.8c9.1,8.6,21,13.7,35.6,15.2v-76.2l0,0v-0.6h-13.3l2.4,7.5h3.4v60.8
		c-10.6-2.3-19.1-7.3-25.7-15c-6.6-7.7-9.8-16.8-9.8-27.5c0-12.5,4.1-22.8,12.4-31c8.3-8.2,18.5-12.3,30.5-12.3v-7.3
		c-14.2,0-26.2,4.9-35.9,14.5C132,152.6,127.1,164.6,127.1,178.9z"/>
	<path d="M207.1,126.9c-7.2,0-11.9,2.9-14.2,8.7c-1.2,3.1-1.8,9-1.8,17.5h-6.4l2.4,7.5h4v69.3h7.5v-69.3h17.2v69.3h7.3v-83.3
		c0-6-1.1-10.6-3.4-13.9C217.1,128.9,212.9,126.9,207.1,126.9z M215.7,153.1h-17.2V144c0-2.8,0.8-5.2,2.4-6.9
		c1.6-1.8,3.8-2.7,6.6-2.7c2.6,0,4.7,0.9,6.1,2.7c1.4,1.8,2.1,4.1,2.1,6.9L215.7,153.1L215.7,153.1z"/>
	<polygon points="231.4,135.8 243.5,135.8 243.5,229.9 250.9,229.9 250.9,135.8 262.8,135.8 262.8,128.3 231.4,128.3 	"/>
	<polygon points="296.2,128.3 264.8,128.3 264.8,135.8 276.8,135.8 276.8,229.9 284.3,229.9 284.3,135.8 296.2,135.8 	"/>
	<path d="M379.9,216.1c10.2-10.2,15.2-22.4,15.2-36.7c0-14.3-5-26.6-14.9-36.9c-9.9-10.3-22-15.5-36.2-15.5
		c-14.9,0-27.5,5.1-37.8,15.2c-10.3,10.2-15.4,22.7-15.4,37.6c0,14.4,5.1,26.6,15.4,36.6s22.5,14.9,36.9,14.9
		C357.6,231.3,369.8,226.2,379.9,216.1z M311.4,210.7c-8.7-8.7-13.1-19.2-13.1-31.5c0-12.1,4.3-22.6,12.9-31.5s18.9-13.3,30.8-13.3
		c12.9,0,23.8,4.3,32.6,12.9c8.8,8.6,13.3,19.4,13.3,32.4c0,12.2-4.4,22.6-13.2,31.1c-8.8,8.6-19.3,12.9-31.6,12.9
		C330.7,223.8,320.1,219.5,311.4,210.7z"/>
	<polygon points="425.2,161.7 409.8,126.5 393,229.9 400.8,229.9 413,151.2 425.2,180 437.1,151.6 449.5,229.9 457.2,229.9 
		440.4,126.5 	"/>
	<path d="M494.8,229.9v-83.3c0-6-1.1-10.6-3.4-13.9c-2.6-3.9-6.9-5.8-12.6-5.8c-7.2,0-11.9,2.9-14.2,8.7c-1.2,3.1-1.8,9-1.8,17.5
		h-6.4l2.4,7.5h4v69.3h7.5v-69.3h17.2v69.3L494.8,229.9L494.8,229.9z M470.3,153.1V144c0-2.8,0.8-5.2,2.4-6.9
		c1.6-1.8,3.8-2.7,6.6-2.7c2.6,0,4.7,0.9,6.1,2.7s2.1,4.1,2.1,6.9v9.1H470.3z"/>
	<polygon points="503.2,135.8 515.2,135.8 515.2,229.9 522.7,229.9 522.7,135.8 534.5,135.8 534.5,128.3 503.2,128.3 	"/>
	<polygon points="567.9,128.3 536.5,128.3 536.5,135.8 548.6,135.8 548.6,229.9 556,229.9 556,135.8 567.9,135.8 	"/>
	<path d="M652,142.4c-9.9-10.3-22-15.5-36.2-15.5c-14.9,0-27.5,5.1-37.8,15.2c-10.3,10.2-15.4,22.7-15.4,37.6
		c0,14.4,5.1,26.6,15.4,36.6c10.3,10,22.5,14.9,36.9,14.9c14.3,0,26.5-5.1,36.7-15.2c10.2-10.2,15.2-22.4,15.2-36.7
		C666.9,165,661.9,152.7,652,142.4z M646.4,210.9c-8.8,8.6-19.3,12.9-31.6,12.9c-12.4,0-23-4.4-31.7-13.1S570,191.5,570,179.2
		c0-12.1,4.3-22.6,12.9-31.5c8.6-8.9,18.9-13.3,30.8-13.3c12.9,0,23.8,4.3,32.6,12.9c8.8,8.6,13.3,19.4,13.3,32.4
		C659.6,192,655.2,202.4,646.4,210.9z"/>
</g>
</svg>
