<?xml version="1.0" encoding="utf-8"?>
<!-- Generator: Adobe Illustrator 26.2.1, SVG Export Plug-In . SVG Version: 6.00 Build 0)  -->
<svg version="1.1" id="Layer_1" xmlns="http://www.w3.org/2000/svg" xmlns:xlink="http://www.w3.org/1999/xlink" x="0px" y="0px"
	 viewBox="0 0 546 152" style="enable-background:new 0 0 546 152;" xml:space="preserve">
<style type="text/css">
	.st0{fill:#FFFFFF;}
</style>
<g>
	<path class="st0" d="M121.4,134.2h-3.3v14.1h2.2V143h1.1c2.2,0,3.3-1.2,3.3-3.5v-1.8C124.7,135.4,123.6,134.2,121.4,134.2z
		 M122.5,139.6c0,1-0.4,1.3-1.1,1.3h-1.1v-4.8h1.1c0.7,0,1.1,0.3,1.1,1.3V139.6z M135.8,134.2h2.2v14.1h-2.2V134.2z M149.6,136.2h4
		l-4.2,10.1v2h6.4v-2h-4.2l4.2-10.2v-1.9h-6.2V136.2z M167.1,136.2h4l-4.2,10.1v2h6.5v-2h-4.2l4.2-10.2v-1.9h-6.3V136.2z
		 M186.4,134.2l-2.3,14.1h2l0.4-2.6h2.7l0.4,2.6h2.2l-2.3-14.1H186.4z M186.9,143.8l1.1-7.1l1.1,7.1H186.9z M219.5,134.2h-3.3v14.1
		h2.2V143h1c2.2,0,3.3-1.2,3.3-3.5v-1.8C222.8,135.4,221.7,134.2,219.5,134.2z M220.6,139.6c0,1-0.4,1.3-1.1,1.3h-1v-4.8h1
		c0.7,0,1.1,0.3,1.1,1.3V139.6z M235.3,134.2l-2.3,14.1h2l0.4-2.6h2.7l0.4,2.6h2.2l-2.3-14.1H235.3z M235.7,143.8l1.1-7.1l1.1,7.1
		H235.7z M253.8,137.4c0-1,0.4-1.4,1.1-1.4s1.1,0.4,1.1,1.4v0.6h2.1v-0.4c0-2.3-1.1-3.5-3.3-3.5s-3.3,1.3-3.3,3.5
		c0,4,4.3,4.6,4.3,7.5c0,1-0.4,1.4-1.2,1.4c-0.7,0-1.1-0.4-1.1-1.4v-1h-2.1v0.9c0,2.3,1.1,3.5,3.3,3.5s3.3-1.3,3.3-3.5
		C258.2,140.9,253.8,140.3,253.8,137.4z M268.9,136.2h2.3v12.1h2.2v-12.1h2.3v-2h-6.8V136.2z M287.6,134.2l-2.3,14.1h2l0.4-2.6h2.7
		l0.4,2.6h2.2l-2.3-14.1H287.6z M288.1,143.8l1.1-7.1l1.1,7.1H288.1z M317.4,148.3h6.1v-2h-3.8v-4.2h3v-2h-3v-3.9h3.8v-2h-6.1V148.3
		z M353.3,140.8c1-0.5,1.4-1.4,1.4-2.8v-0.5c0-2.2-1-3.2-3.3-3.2h-3.3v14.1h3.5c2.2,0,3.4-1.2,3.4-3.3V144
		C355,142.3,354.5,141.2,353.3,140.8L353.3,140.8z M350.3,136.2h1.1c0.8,0,1.1,0.4,1.1,1.5v0.8c0,1.1-0.5,1.5-1.3,1.5h-0.9
		L350.3,136.2z M352.8,144.9c0,1-0.4,1.4-1.2,1.4h-1.3V142h1c1,0,1.4,0.4,1.4,1.7v1.2L352.8,144.9z M368,134.2l-2.3,14.1h2l0.4-2.6
		h2.7l0.4,2.6h2.2l-2.3-14.1H368z M368.5,143.8l1.1-7.1l1.1,7.1H368.5z M386.6,137.4c0-1,0.4-1.4,1.1-1.4s1.1,0.4,1.1,1.4v0.6h2.1
		v-0.4c0-2.3-1.1-3.5-3.3-3.5s-3.3,1.3-3.3,3.5c0,4,4.3,4.6,4.3,7.5c0,1-0.4,1.4-1.1,1.4s-1.1-0.4-1.1-1.4v-1h-2.1v0.9
		c0,2.3,1.1,3.5,3.3,3.5s3.3-1.3,3.3-3.5C390.9,140.9,386.6,140.3,386.6,137.4z M401.6,136.2h2.3v12.1h2.2v-12.1h2.3v-2h-6.8V136.2z
		 M420.4,134.2l-2.3,14.1h2l0.4-2.6h2.7l0.4,2.6h2.2l-2.3-14.1H420.4z M420.8,143.8l1.1-7.1l1.1,7.1H420.8z M3.1,55.9
		c0,14.5,4.9,26.5,14.8,35.8c9.1,8.6,21,13.7,35.6,15.2V30.1H40.2l2.4,7.5H46v60.8c-10.6-2.3-19.1-7.3-25.7-15s-9.8-16.8-9.8-27.5
		c0-12.5,4.1-22.8,12.4-31s18.5-12.3,30.5-12.3V5.3c-14.2,0-26.2,4.9-35.9,14.5C8,29.6,3.1,41.6,3.1,55.9z M83.1,3.9
		c-7.2,0-11.9,2.9-14.2,8.7c-1.2,3.1-1.8,9-1.8,17.5h-6.4l2.4,7.5h4v69.3h7.5V37.6h17.2v69.3h7.3V23.6c0-6-1.1-10.6-3.4-13.9
		C93.1,5.9,88.9,3.9,83.1,3.9z M91.7,30.1H74.5V21c0-2.8,0.8-5.2,2.4-6.9c1.6-1.8,3.8-2.7,6.6-2.7c2.6,0,4.7,0.9,6.1,2.7
		s2.1,4.1,2.1,6.9V30.1z M107.4,12.8h12.1v94.1h7.4V12.8h11.9V5.3h-31.4L107.4,12.8z M172.2,5.3h-31.4v7.5h12v94.1h7.5V12.8h11.9
		V5.3z"/>
	<path class="st0" d="M255.9,93.1c10.2-10.2,15.2-22.4,15.2-36.7s-5-26.6-14.9-36.9S234.2,4,220,4c-14.9,0-27.5,5.1-37.8,15.2
		c-10.3,10.2-15.4,22.7-15.4,37.6c0,14.4,5.1,26.6,15.4,36.6s22.5,14.9,36.9,14.9C233.6,108.3,245.8,103.2,255.9,93.1L255.9,93.1z
		 M187.4,87.7c-8.7-8.7-13.1-19.2-13.1-31.5c0-12.1,4.3-22.6,12.9-31.5s18.9-13.3,30.8-13.3c12.9,0,23.8,4.3,32.6,12.9
		s13.3,19.4,13.3,32.4c0,12.2-4.4,22.6-13.2,31.1c-8.8,8.6-19.3,12.9-31.6,12.9C206.7,100.8,196.1,96.5,187.4,87.7L187.4,87.7z
		 M301.2,38.7L285.8,3.5L269,106.9h7.8L289,28.2L301.2,57l11.9-28.4l12.4,78.3h7.7L316.4,3.5L301.2,38.7z M370.8,106.9V23.6
		c0-6-1.1-10.6-3.4-13.9c-2.6-3.9-6.9-5.8-12.6-5.8c-7.2,0-11.9,2.9-14.2,8.7c-1.2,3.1-1.8,9-1.8,17.5h-6.4l2.4,7.5h4v69.3h7.5V37.6
		h17.2v69.3L370.8,106.9z M346.3,30.1V21c0-2.8,0.8-5.2,2.4-6.9c1.6-1.8,3.8-2.7,6.6-2.7c2.6,0,4.7,0.9,6.1,2.7s2.1,4.1,2.1,6.9v9.1
		L346.3,30.1z M379.2,12.8h12v94.1h7.5V12.8h11.8V5.3h-31.3V12.8z M443.9,5.3h-31.4v7.5h12.1v94.1h7.4V12.8h11.9V5.3z"/>
	<path class="st0" d="M528,19.4c-9.9-10.3-22-15.5-36.2-15.5c-14.9,0-27.5,5.1-37.8,15.2c-10.3,10.2-15.4,22.7-15.4,37.6
		c0,14.4,5.1,26.6,15.4,36.6s22.5,14.9,36.9,14.9c14.3,0,26.5-5.1,36.7-15.2c10.2-10.2,15.2-22.4,15.2-36.7
		C542.9,42,537.9,29.7,528,19.4z M522.4,87.9c-8.8,8.6-19.3,12.9-31.6,12.9c-12.4,0-23-4.4-31.7-13.1S446,68.5,446,56.2
		c0-12.1,4.3-22.6,12.9-31.5s18.9-13.3,30.8-13.3c12.9,0,23.8,4.3,32.6,12.9s13.3,19.4,13.3,32.4C535.6,69,531.2,79.4,522.4,87.9
		L522.4,87.9z"/>
</g>
</svg>
