<?xml version="1.0" encoding="utf-8"?>
<!-- Generator: Adobe Illustrator 22.1.0, SVG Export Plug-In . SVG Version: 6.00 Build 0)  -->
<svg version="1.1" id="Layer_1" xmlns="http://www.w3.org/2000/svg" xmlns:xlink="http://www.w3.org/1999/xlink" x="0px" y="0px"
	 viewBox="0 0 800 400" style="enable-background:new 0 0 800 400;" xml:space="preserve">
<style type="text/css">
	.st0{display:none;}
	.st1{display:inline;fill:#1A1A1A;}
	.st2{display:inline;fill:#FF0000;}
</style>
<g id="Layer_1_1_" class="st0">
	<path class="st1" d="M350.4,145l-25.6,111.7h15.5l6.7-30.8h23.6l6.6,30.8h15.7L368.8,145H350.4L350.4,145z M348.9,213.4l5.4-26.7
		c1.5-7.1,3.2-17.4,4.4-25.5h0.7c1.2,8,2.7,17.9,4.2,25.5l5.2,26.7H348.9L348.9,213.4z M452,142h-15.8v41.9h-0.3
		c-2.9-6.1-8.1-9.1-14.6-9.1c-13,0-25.3,13.4-25.3,41.9c0,25,9.3,41.3,24.4,41.3c8.2,0,14.5-5.5,17.2-11.1h0.5l1,9.8h13.6
		c-0.3-5.6-0.7-14.6-0.7-20.7L452,142L452,142z M436.2,228.3c0,1.8-0.2,3.8-0.5,5.1c-2.7,9.6-7.4,11.4-10.9,11.4
		c-8.4,0-12.8-11.6-12.8-28.2c0-14.9,3.4-28.5,13.3-28.5c5.7,0,9.9,6.3,10.8,13.6c0.2,1.7,0.2,3.5,0.2,5L436.2,228.3L436.2,228.3z
		 M490.5,174.8c-15,0-29,12.4-29,41.8c0,27.7,11.8,41.4,28.1,41.4h0.2c12.5,0,28.5-9.8,28.5-41.8
		C518.3,189.1,506.7,174.8,490.5,174.8L490.5,174.8z M490.2,245.7H490c-10.3,0-12.6-15.9-12.6-29.3c0-12.1,2-29.3,12.5-29.3
		c10.1,0,12.3,17.2,12.3,29.3C502.1,228.7,500,245.7,490.2,245.7L490.2,245.7z M561.2,174.8c-7.2,0-13,3.1-17.2,10.4h-0.3V142h-15.8
		v94c0,6.1-0.3,15.2-0.7,20.7h13.6l0.8-10.1h0.7c3.5,7.1,8.1,11.4,16.2,11.4c13.5,0,25.4-14.1,25.4-42.9
		C583.9,190.4,575.2,174.8,561.2,174.8L561.2,174.8z M555,244.9c-3.2,0-8.1-2-10.6-11.8c-0.5-1.3-0.7-3.1-0.7-5v-22.5
		c0-1.7,0.2-3.8,0.5-5.5c1.2-5.8,5.4-11.9,10.6-11.9c9.4,0,13.1,12.4,13.1,27.8C567.9,232.6,564.4,244.9,555,244.9L555,244.9z
		 M646,211.1c0-20.2-7.9-36.3-24.9-36.3s-29.3,16.2-29.3,42.6c0,24.9,10.8,40.1,31.3,40.1c7.2,0,14.6-1.3,19.5-3.8l-2.4-11.3
		c-3.5,1.7-8.4,3-14.1,3c-9.6,0-18.7-5.1-18.9-25.9l38.4,0.2C645.8,217.6,646,215.1,646,211.1L646,211.1z M607.4,208.5
		c0.5-10.1,4.2-21.9,12.5-21.9c6.2,0,11.3,7.6,11.1,21.9H607.4z"/>
	<path class="st2" d="M198.3,234.3l20.7-47.9l30.1,70.3h-19.7l-9-22.4L198.3,234.3L198.3,234.3z M155,145.3h47.3L155,256.7V145.3z
		 M282.9,256.7l-47.3-111.4h47.3V256.7z"/>
</g>
<g id="Layer_2_1_">
	<g>
		<g>
			<path d="M319.2,305.3c1,0.6,1.5,0.9,2,1.2c0.1,0.1,0.2,0.4,0.2,0.6c0.9,4.9,1.8,9.8,0.4,14.7c-1.1,3.7-3.1,6.8-6,9.2
				c-2.7,2.2-6,2.9-9.6,2.5c-1.8-0.2-3.7-0.9-5.6-1.2c-1.6,0.6-2.6,2.3-4.5,2.1c-2.1-1.7-2.8-3.8-2.1-6.5c0.5-1.8,0.5-3.8-0.2-5.6
				c-0.4-1-0.5-2.2-0.6-3.3c-0.2-5.2-1.1-10.3-1.6-15.5c-0.1-1.1-0.1-2.2-0.2-3.3c0.9-0.7,1.7-1.4,2.7-2.2c1.1,0.4,2.5,0.7,4.2,1.2
				c1-0.2,2.1-1.1,3.1-2c1.1-1,2.3-1.4,3.7-1.1c1.1,0.2,2.1,0,3.3-0.4c1.6-0.6,3.3-0.4,4.8,0.7c1.7,1.4,3.4,2.5,4.8,4.3
				c0.5,0.7,1,1.5,0.9,2.5C318.7,303.9,319.2,304.8,319.2,305.3z"/>
			<path d="M421.3,335.1c-0.2-0.5-0.5-0.9-0.7-1.2c-0.7-0.9-1.5-1.2-2.3-0.6c-1.1,0.7-2.1,0.6-3.2,0.2c-3.9-1.2-6.1-4.7-5.6-8.8
				c0.2-1.7,0-3.7,1.5-5c-0.5-1.4-1-2.7-1.5-3.9c-1.1-2.8-1.1-5.5,1-8c1.6-1.8,1.6-3.6,0.9-5.6c-0.9-2.2-0.9-4.7-0.9-7
				c0-3.2,1.2-5.6,4.2-7.2c0.5-0.2,1-0.6,1.5-0.9c1-0.5,2-1.1,2.6-2.1c1.2-1.8,2.9-2,4.8-1.4s3.6,1.4,5.5,2.1c0.7-0.6,1.8-1.1,2.5-2
				c1.1-1.5,2.6-1.7,4.2-1.8c1.7-0.2,3.3,0.1,4.8,1.2c2.8,2.1,3.7,5.5,2.3,9.2c-0.9,0-1.7,0.2-2.6,0c-1.6-0.6-2.5,0.6-3.3,1.2
				c-1,0.7-1.6,1.8-1.5,3.2c0.1,1.2,0.1,2.5,0,3.7c-0.1,3.8-1.7,6.8-4.9,8.7c-0.7,0.4-1.5,0.7-2,1.4c-0.7,1-0.7,2.3,0.9,2.5
				c1.6,0.1,3.1,0.4,4.3,1.7c0.2,0.4,1.1,0.4,1.6,0.4c1.1,0,2.3,0,3.3-0.4c1.6-0.7,2.8-0.1,4.1,0.9c2,1.6,3.3,3.7,3.4,6.5
				c-1,1-2.1,2.1-3.2,3.3c-1,1.1-2,2.5-2.9,3.7c0.2,0.9,0.5,1.6,0.6,2.3c-1,1.4-2.5,2-4.1,2.5C431.5,335.1,426.4,335.5,421.3,335.1z
				 M423.7,328.5c0.6,0,1.2-0.1,1.7,0c1.2,0.6,2.5,0.5,3.7,0.2c1.1-0.1,2.2-0.1,3.3-0.4c1.7-0.4,3.6-0.9,5.2-1.6
				c1.2-0.6,2.1-1.6,3.1-2.6c0.6-0.6,0.5-1.5,0-2.2c-0.9-1.2-2.1-2-3.6-2.5c-2-0.7-3.9-0.9-6-0.7c-3.2,0.2-6.5,0.5-9.7,0.9
				c-1,0.1-2,0.5-2.9,0.9c-1.4,0.5-2.3,1.4-2.8,2.7c-0.6,1.4-0.5,2.1,0.6,2.9c2.1,1.5,4.3,2.8,6,4.8c0.1,0.1,0.4,0,0.7,0
				C423.2,330.2,423.5,329.3,423.7,328.5z M431.6,296.3c-1.7-1.6-3.1-2.9-4.4-4.3c-0.4-0.2-0.7-0.6-1.1-0.7
				c-3.4-1.5-7.7-0.5-9.5,2.8c-0.5,0.7-0.7,1.6-1.1,2.5c-1,2.1-0.5,3.9,0.9,5.8c1.2,1.7,2.9,2.7,4.7,3.8c1.8,1.1,3.6,1,5.4,0.1
				c1.6-0.7,2.7-2,3.6-3.6c0.2-0.5,0.5-1.4,0.2-1.8C429.6,298.9,430.4,297.5,431.6,296.3z M416.6,310.5c-0.7,0.9-2.1,1.6-2.3,3.1
				c2.3,2.8,4.2,3.1,6.6,0.9c0.7-0.6,1.4-1.6,1.8-2.3c0.4-0.6-0.1-1.5-0.9-1.5C420.3,310.7,418.6,310.7,416.6,310.5z"/>
			<path d="M614.2,295.7c1.1-1,2.1-1.7,2.1-3.1c0-2.1,1.4-2.9,3.1-3.6c1.8,1.6,2,3.4,1.2,5.8c-1.8,0.1-3.8,0.2-4.7,2.6
				c0.1,0.5,0.1,1,0.2,1.5c0,0.1-0.1,0.2-0.1,0.4c-0.2,0.1-0.4,0.4-0.5,0.4c-0.9,0.1-1.7-0.1-2.6,0.5c-1.4,0.9-2.8,0.9-4.1-0.2
				c-1.4-1-2.5-0.6-3.7,0.2c-1.5,1.1-3.2,2.1-4.5,3.1c-1.5-0.2-1-1.5-1.5-2.2c-1.5,0.5-2.8,1.1-4.1,2.1c-2,1.7-4.1,1.8-6.3,0.5
				c-2.1-1.2-3.7-3.1-4.7-5.3c-2.1-4.5-1.1-9.5,2.5-13.1c0.7-0.7,1.6-1.5,2.6-2.3c-0.9-1.2-2-1.7-3.1-2.1c-1.5-0.5-2.7-1.1-3.7-2.6
				c0-0.9,0-1.8,0-2.8c0-2.5,1.2-4.3,2.9-5.9c0.2-0.2,0.6-0.5,0.9-0.5c1.2,0.1,2.1-0.9,3.2-1.1c2.3-0.5,4.3-1.8,6.8-1.8
				c0.5,0,1-0.2,1.4,0c1.8,0.9,3.6,0.1,5.2-0.6c1.2,0.7,2.5,1.5,3.4,2.2c0.9,0.7,1.6,1.6,2.3,2.5c0.6,0.7,0.9,1.7,0.4,2.6
				c-0.9,1.5-0.2,2.8,0.2,4.2c0.5,0.1,1,0.2,1.7,0.4c0.1,1.2,0.1,2.5,0.2,3.7c0.2,3.4,0.5,7,0.9,10.4
				C611.8,293.1,612.1,294.8,614.2,295.7z M594.4,280.7c2.2-0.1,4.2-0.9,6.3-0.4c1.4,0.2,2.5-0.4,3.2-1.5c0.5-0.6,0.9-1.2,1.4-1.8
				c-1.7-4.2-3.7-5.4-8.1-5c-0.1,0-0.2,0-0.4,0c-2.6,0.2-4.2,1.6-4.9,3.9c-0.4,1.1-0.4,2.2,0.7,3.1
				C593.3,279.5,593.8,280,594.4,280.7z"/>
			<path d="M334.3,309.8c-0.2-0.4-0.4-0.7-0.6-1c-1.2-1-1.4-2.2-1.2-3.7c0.4-2.5-0.5-4.4-2.1-6.1c-0.5-0.6-1-1.1-1.8-1.4
				c-0.9-0.2-1.6-0.9-2.5-1.5c0.1-0.6,0-1.2,0.4-1.6c0.7-0.7,1.7-1.7,2.7-2c2.3-0.5,4.7-0.6,6.9-0.9c1.1,1,1.4,2,1.5,3.1
				c0.2,1.7,0.4,3.4,0.5,5c0.4,5.6,1.1,11.2,2.2,16.7c0.2,1.1,0.6,2.2,0.9,3.3c0.9,2.9,4.8,4.3,7.5,2.6c0.9-0.5,1.7-1.2,2.3-2
				c1.2-1.5,2.2-3.2,3.3-4.7c0.7-1,1.4-2,2.3-3.3c-0.1-1.1-0.4-2.7-0.6-4.3c-0.4-2.2-0.4-4.4-0.2-6.6c0.2-2.7-1.5-4.9-4.1-5.8
				c-1.2-0.4-2.5-1-3.6-1.5c-0.4-2,1.1-2.6,1.8-3.4c3.1-0.4,5.9-0.7,9-1.2c1.4,1.5,1.5,3.4,1.6,5.3c0.9,6.9,1.5,13.8,2.1,20.5
				c0.1,0.6,0.1,1.4,0.1,2c0,1.5,0.9,2.3,2.2,2.7c0.6,0.2,1.4,0.2,2,0.6s1.1,1,1.7,1.5c-0.7,1.6-1.5,3.1-2.2,4.8
				c-1.7,0.2-3.8,0.5-5.8,0.9c-1.6-1.4-3.2-2.5-4.8-3.8c-0.9,0.7-1.6,1.5-2.2,2.2c-2.6,2.6-5.8,3.8-9.5,3.7c-2.5,0-4.4-0.7-6.1-2.5
				c-2.2-2.2-3.8-4.8-4.4-7.9c-0.4-1.6-0.5-3.3-0.9-5C332.4,312.6,332.5,311,334.3,309.8z"/>
			<path d="M480.7,302c0.7,2.1,0.2,3.9-0.6,5.9c-2.2,5.4-6.6,7.7-11.9,9c-2.6,0.6-4.9-0.1-6.3-2.6c-1.8-0.6-3.1,0.7-4.5,1.4
				c-1.6-0.6-3.1-1.7-4.4-2.9c0.7-2.1-1-3.6-1.1-5.5c-1.5,0.2-2.3-0.4-2.7-1.6c-0.2-1.1-0.6-2.2-0.7-3.3c-0.2-1.8-0.4-3.8-0.6-5.8
				c-0.5-2.6,0.5-4.9,0.6-7.4c0-0.2,0.1-0.5,0.2-0.6c1.7-1.1,1.7-3.3,3.2-4.7c1.1-1,2.1-2.1,3.2-3.1c3.1-2.7,6.5-3.8,10.6-3.1
				c0.5,0.1,0.9,0.1,1.2,0.2c0.7-0.5,1.4-0.9,2.1-1.4c3.2,2.6,6.4,5.2,9.5,7.7c0.6,2-1.8,3.4-0.5,5.4c0.5,0,1,0.1,1.7,0.1
				c1,1.5,0.9,3.2,0.9,4.8c-1.2,1.4-2.8,1.7-4.5,2c-5.2,0.6-10.3,1.2-15.5,2c-1.5,0.1-2.9,0.5-4.4,0.7c-0.6,1.4-2.1,2.2-2,3.8
				c3.8,4.7,3.8,4.7,8.1,7.4c2.9,1.8,5.8,1.5,8.2-1.1c1.5-1.6,2.9-3.4,4.4-5.2c0.4-0.4,0.7-0.9,1.1-1.2c1.1-1.7,2.6-2.1,4.4-1.5
				C480.3,301.6,480.4,301.7,480.7,302z M453.8,291.8c2.2,2.2,2.2,2.3,4.5,2.1c3.7-0.4,7.4-0.9,11.1-1.2c1-0.1,1.7-0.2,2.3-1
				c0.5-0.7,1-1.5,1.6-2.2c-0.4-0.6-0.7-1.2-1.1-1.7c-0.5-0.6-1-1.2-1.6-1.7c-3.2-2.7-10.1-2.7-13.3,0
				C455.5,287.5,454.4,289.4,453.8,291.8z M453.1,307.6c0.2,0.5,0.4,0.7,0.5,0.9c0.2,0.1,0.5,0.1,0.9,0.1c-0.1-0.2-0.1-0.5-0.4-0.6
				C453.9,307.7,453.7,307.7,453.1,307.6z"/>
			<path d="M548.3,273.1c0.7-0.6,1.6-1.1,2.7-2c1.2,0.2,2.6,0.7,4.3,1.1c1-0.6,2.1-1.4,3.1-2.2c1.1-1,2.3-1.5,3.7-1
				c1.1,0.4,2,0.1,2.9-0.4c1.7-0.7,3.3-0.6,4.8,0.6c1.2,1.1,2.7,2,3.9,3.2c1.1,1.1,2.1,2.2,1.7,4.2c-0.1,0.9,0.1,2.3,1.8,2.3
				c0.2,0,0.5,0.4,0.7,0.6c0.1,0.2,0.2,0.6,0.4,1c0.6,4.1,1.5,8.2,0.9,12.4c-0.7,4.4-2.9,8-6.1,11.1c-1.7,1.6-3.8,2.3-6.1,2.6
				c-2.2,0.2-4.5,0.1-6.8-0.5c-0.9-0.2-1.7-0.5-2.8-0.7c-1.4,0.6-2.5,2.2-4.4,2.2c-2.1-1.6-2.8-3.9-2.2-6.5c0.5-2.2,0.4-4.2-0.4-6.3
				c-0.4-1-0.5-2-0.5-2.9c-0.2-5.6-1.4-11.2-1.7-16.8C548.3,274.4,548.3,273.8,548.3,273.1z M572.9,280.5c-1.2-1.1-2.8-2.6-4.4-4.1
				c-0.7-0.7-1.7-1-2.8-0.7c-1.7,0.2-3.6,0.5-5.5,0.7c-1,1.4-2.1,2.8-3.1,4.3c-1.2,2-1.8,4.1-1.4,6.4c0.2,1.2,0.4,2.5,0.4,3.7
				c-0.1,2.8,1.4,4.9,3.1,6.9c1.2,1.4,2.8,2.2,4.7,2.5c0.6,0,1.4,0,2,0.2c2,0.9,3.6,0,4.9-1.2c2.3-2.1,3.7-4.5,3.6-7.7
				c-0.1-2.1-0.5-4.3-0.6-6.4C573.3,283.7,573.1,282.3,572.9,280.5z"/>
			<path d="M638.6,281.4c-0.6,0.2-1.1,0.5-1.6,0.6c-2.3,0.5-3.3-0.2-3.7-2.7c-0.2-1.5-0.4-2.9-0.6-4.3c-0.2-1.4-0.5-2.7-1-3.9
				c-0.7-2-2-2.7-4.2-2.5c-1,0.1-2,0.1-3.1,0.1c-0.6,0-1.1-0.1-1.7-0.2c-1-0.4-1.7-1-2-2.1c-0.2-1.2,0.2-2.2,1.2-2.9
				c1.4-0.9,2.9-1.2,4.5-1.4c1.2-0.1,2.5,0,3.7-0.4c2.8-0.7,3.7-0.7,5.8,0.7c1.1,0.7,2.2,1.5,3.3,2.2c1.5-0.5,2.3-1.5,3.4-2.3
				c1.2-0.9,2.3-1.8,3.4-2.7c0.9-0.7,1.7-1,2.8-0.9c1.2,0.1,2.5,0,3.8,0c1.5,1.2,3.2,2.6,4.9,3.9c0.1,1.6,0.2,3.2,0.2,4.9
				c0.1,1.4-0.4,2.7-1.1,3.8c-1.4,2-3.7,2.3-5.5,1c-1.1-0.9-2.1-1.5-2.6-3.1c-0.4-1.5-1.6-2.3-2.8-3.2c-2.2,1.5-4.2,3.8-5.8,6.5
				C638.8,275.6,638.7,278.4,638.6,281.4z M633.8,267.4c-0.1-0.1-0.1-0.4-0.2-0.5c0,0.1-0.2,0.1-0.2,0.2c0,0.1,0.1,0.4,0.2,0.5
				C633.7,267.6,633.7,267.6,633.8,267.4z"/>
			<path d="M507,280.8c-5.2,4.4-6.9,7.9-7.4,15c-0.4,0.1-0.9,0.5-1.4,0.6c-2.7,0.5-3.6,0-3.9-2.7c-0.2-2-0.6-4.1-0.9-6
				c-0.1-0.9-0.5-1.7-0.9-2.6c-0.7-1.7-2.1-2.5-4.1-2.1c-1.6,0.4-3.1,0.2-4.7-0.2c-1.1-0.2-1.7-1-2-2.1c-0.2-1.2,0.1-2.3,1.4-2.8
				c1-0.5,2.1-0.7,3.2-1.1c2.1-0.6,4.3,0,6.3-1.2c1.4,0.1,2.7,0.1,3.8,0.9c1.4,1,2.7,2,4.4,2.8c2-1.5,3.8-2.8,5.6-4.4
				c1.4-1.1,2.7-1.6,4.3-1.5c1.1,0.1,2.2,0,3.3,0c1.6,1.2,3.1,2.6,4.7,3.8c0.1,1.2,0.4,2.5,0.5,3.7c0.1,1.5,0,2.9-0.6,4.3
				c-1.2,2.7-3.9,3.4-6.4,1.6c-1-0.7-1.8-1.4-2.2-2.8C509.7,282.6,508.3,281.6,507,280.8z M494.8,281.9c-0.1-0.1-0.1-0.4-0.2-0.5
				c0,0.1-0.1,0.1-0.1,0.2c0,0.2,0,0.4,0.1,0.5C494.7,282.2,494.7,282.1,494.8,281.9z"/>
			<path d="M392.2,292.7c-2.5,1.7-4.1,4.2-5.5,6.6c-1.6,2.5-1.7,5.3-1.6,8c-0.2,0.2-0.4,0.5-0.6,0.6c-3.7,1.2-4.7,0.6-5.2-3.2
				c-0.2-1.8-0.5-3.8-0.9-5.6c-0.1-0.9-0.5-1.7-1-2.6c-0.7-1.2-1.8-1.8-3.4-1.6c-1.2,0.1-2.5,0.2-3.7,0.1c-0.7,0-1.6-0.4-2.2-0.7
				c-1.5-0.9-1.6-2.9-0.4-4.1c1.1-1.1,2.6-1.5,4.1-1.7c1.1-0.1,2.2-0.1,3.3-0.2c0.5,0,1.2,0,1.6-0.4c1.8-1.2,3.4-0.4,4.9,0.5
				c1.4,0.7,2.6,1.7,4.1,2.7c2-1.2,3.7-2.7,5.4-4.1c1.6-1.5,3.3-2.3,5.5-1.8c0.7,0.1,1.6,0,2.6,0c1.5,1.2,3.2,2.6,4.8,3.8
				c0.1,1.4,0.4,2.6,0.4,3.8c0,1.4-0.1,2.7-0.5,3.9c-0.6,2-2.1,2.9-4.1,2.8c-0.5,0-1.2-0.1-1.6-0.5c-1.1-1-2.7-1.6-2.9-3.4
				C394.9,294.5,393.6,293.5,392.2,292.7z M380,294c0-0.1,0.1-0.2,0.1-0.2s-0.1-0.1-0.2-0.1c0,0.1-0.1,0.2-0.1,0.2
				C379.9,293.8,380,293.8,380,294z"/>
			<path d="M498,298.9c0.9,0.4,1.7,0.7,2.6,1.1c0.7,2.3,1.1,4.9,3.8,6.1c1.6-0.2,3.2-0.5,5.2-0.9c0.6,0.7,1.8,0.7,2.3,2
				c0.9,1.8,0.5,3.7-1.4,4.5c-0.9,0.5-1.8,0.7-2.9,0.9c-4.9,0.6-9.8,1.2-14.7,1.8c-1.6,0.1-3.1,0.1-5,0.2c-0.6-0.7-1.4-1.6-2.1-2.5
				c0-1.1,0.5-2,1.5-2.7c0.9-0.6,1.5-1.4,2.5-2.3c0.9,0.1,2,0.4,3.2,0.6c0.6-0.7,1.4-1.6,2-2.5C495.1,300.7,495.1,300.7,498,298.9z"
				/>
			<path d="M372.9,326.4c-0.6-0.7-1.4-1.5-2-2.1c0-1.4,0.6-2.1,1.6-2.8c0.9-0.6,1.6-1.6,2.3-2.5c1,0.2,2,0.5,3.1,0.9
				c0.7-0.9,1.5-1.7,2.2-2.7c-0.5-2.6-0.2-5.2,2.9-6.3c0.7,0.2,1.6,0.5,2.6,0.9c0.1,0.4,0.5,0.9,0.6,1.5c0.5,2,1.4,3.6,3.2,4.7
				c1.7-0.2,3.4-0.5,5.4-0.7c0.4,0.2,1,0.5,1.5,1c1.8,1.6,1.7,4.2-0.4,5.4c-0.7,0.5-1.6,0.7-2.6,0.9c-2.5,0.4-4.9,0.6-7.4,0.9
				C381.9,325.8,377.7,326.8,372.9,326.4z"/>
			<path d="M624.6,297.8c0.4-2.6,2.8-3.2,3.9-5.2c1.2,0.2,2.2,0.6,3.3,0.9c0.7-0.9,1.5-1.7,2.1-2.7c-0.1-2.5-0.5-5.2,3.1-6.3
				c0.6,0.2,1.5,0.5,2.5,0.9c0.1,0.4,0.4,0.6,0.5,1c1,3.3,1,3.4,3.3,5.3c1.7-0.2,3.4-0.5,5.4-0.7c0.2,0.2,0.6,0.5,1,0.7
				c1.4,0.6,1.7,1.8,1.7,3.1c0,1.5-1,2.6-2.3,2.9c-1.2,0.4-2.6,0.6-3.9,0.7c-2.2,0.2-4.4,0.5-6.8,0.7c-3.7,0.4-7.4,0.9-11.2,1.4
				C626.2,299.5,625.5,298.6,624.6,297.8z"/>
			<path d="M296.3,295.1c-2,0.4-3.4,0.6-5.2,1c-0.1-0.9-0.2-1.5-0.2-2.1c-1.7-1.4-3.7-2.1-5.9-1.8c-1.4,0.1-1.4,0-4.3-2.1
				c0.1-0.7,0.2-1.6,0.5-2.6c1.8-0.6,3.7-1.1,5.4-1.7c0.4-0.1,0.9-0.2,1.2-0.6c0.9-0.9,2.1-0.9,3.2-0.9c3.2-0.1,4.3,0.7,4.7,3.9
				c0.2,1.6,0.4,3.3,0.5,5C296.4,293.7,296.3,294.3,296.3,295.1z"/>
			<path d="M553.1,268.3c-1.8,0.4-3.3,0.6-5,0.9c-0.1-0.5-0.1-1-0.2-1.4c-0.1-0.2-0.2-0.7-0.5-0.9c-1.5-0.6-2.7-2.1-4.5-1.7
				c-1.8,0.4-3.4-0.5-4.9-1.6c-0.1-0.2-0.2-0.4-0.2-0.6c0-0.6,0.1-1.4,0.2-2c1.7-0.7,3.2-1.7,5-2c0.7-0.1,1.5-0.6,2.1-1
				c1.7-1,3.4-1,5.2-0.4c1,0.4,1.8,1,2.1,2.1C552.8,262.7,553.3,265.4,553.1,268.3z"/>
			<path d="M619.2,298.6c-1.6,2.9-1.6,2.9-3.4,3.1C616.6,300.2,617.7,299.2,619.2,298.6z"/>
			<path d="M327.1,299.5c-0.9-0.7-1.8-1.5-2.8-2.3c0.5-0.1,0.7-0.4,0.9-0.2C326.1,297.5,326.8,298.3,327.1,299.5L327.1,299.5z"/>
			<path d="M480.7,302c-0.1-0.1-0.4-0.4-0.5-0.5c0-0.2,0-0.5,0-0.6c0-0.1,0.1-0.2,0.2-0.5c0.9,0.2,1.4,0.9,2,2.1
				C481.4,302.2,481.1,302.1,480.7,302z"/>
			<path d="M336.2,289.7c0.9,0.7,1.5,1.4,2.1,2c-0.2,0.2-0.5,0.5-0.5,0.4C336.5,291.3,336.5,291.3,336.2,289.7z"/>
			<path d="M352.8,297.7c-0.5,0-0.9,0-1.2,0c0-0.1,0-0.5,0.1-0.5c0.2-0.1,0.6-0.2,0.9-0.2C352.5,296.9,352.5,297.3,352.8,297.7z"/>
			<path d="M327.1,299.5c0.1,0.1,0.2,0.1,0.5,0.2c0-0.1,0-0.4,0-0.5C327.5,299.2,327.2,299.4,327.1,299.5L327.1,299.5z"/>
			<path d="M478.5,300.4c-0.1,0-0.1,0-0.2,0c0,0-0.1-0.1-0.1-0.2c0.1,0,0.2,0,0.4,0C478.5,300.1,478.5,300.2,478.5,300.4z"/>
		</g>
		<path d="M383.9,185.9c0.5,0,0.9-0.1,1.2-0.1c3.8,0,7.7,0,11.5,0c1.1,0,2.3,0.1,3.4,0.4c2.9,0.5,5.2,2.1,6.8,4.5
			c1.2,1.8,1.8,3.8,2.3,5.9c0.5,2.2,0.7,4.4,0.7,6.8c0,3.6,0,7.2,0,10.8c0,2-0.4,3.8-1,5.6c-0.6,1.8-1.5,3.4-2.8,4.8
			c-0.1,0.1-0.2,0.2-0.2,0.4c0,0,0,0.1,0,0.2c0.1,0.1,0.1,0.2,0.2,0.4c2.1,2.1,3.1,4.8,3.6,7.6c0.2,1.5,0.4,3.1,0.4,4.7
			c0,4.1,0,8.1,0,12.2c-0.1,3.1-0.6,6.1-2,9.1c-1.4,3.1-3.7,5.4-7,6.3c-1,0.2-2.1,0.5-3.1,0.5c-4.4,0-8.7,0-13.1,0
			c-0.2,0-0.4,0-0.6,0c0-0.4-0.1-0.6-0.1-0.9c0-0.4,0-0.7,0-1c0-25.3,0-50.6,0-75.9C383.9,187.3,383.9,186.7,383.9,185.9z
			 M394.6,230.6c0,0.4-0.1,0.7-0.1,1.2c-0.1,10.3,0,22.2,0.2,23.5c0.9,0.1,1.7,0.1,2.6,0c0.9-0.1,1.5-0.6,1.7-1.5
			c0.1-0.5,0.2-1.1,0.2-1.6c0-6.1,0-12.3,0-18.3c0-0.5,0-1.1-0.2-1.6c-0.2-0.9-0.9-1.5-1.8-1.5C396.5,230.4,395.6,230.4,394.6,230.6
			z M394.6,219.6c0.9,0.2,1.6,0.1,2.3,0.1c1.4,0,2-0.5,2.2-1.8c0.1-0.4,0.1-0.7,0.1-1c0-5.8,0-11.7,0-17.4c0-0.5-0.1-1.1-0.2-1.6
			c-0.2-0.6-0.7-1-1.4-1.1c-1-0.2-2.1-0.2-3.1,0C394.6,204.3,394.6,211.8,394.6,219.6z"/>
		<path d="M544.8,186c1.1-0.1,8.3-0.2,9.9-0.1c0.1,0,0.4,0.1,0.6,0.1c0,0.6,0,1.1,0,1.6c0,8.1,0,16.3,0,24.4c0,13.1,0,26.3,0,39.4
			c0,0.5,0,1,0,1.5c0.1,1.4,1,2.1,2.3,2.1c1.2,0,2.1-0.7,2.2-2c0.1-0.9,0.1-1.7,0.1-2.6c0-20.9,0-41.7,0-62.6c0-0.6,0-1.4,0-2
			c0.9-0.2,1.7-0.1,2.6-0.1c0.9,0,1.8,0,2.7,0c0.9,0,1.7,0,2.6,0c0.9,0,1.7,0,2.6,0c0,0.4,0.1,0.7,0.1,1c0,0.4,0,0.7,0,1.1
			c0,20,0,40,0,60.2c0,2.6-0.2,5.2-0.9,7.7c-0.2,1.4-0.7,2.6-1.4,3.8c-1.8,3.7-4.7,5.6-8.7,6.1c-2.1,0.2-4.2,0.1-6.3-0.5
			c-2.6-0.7-4.5-2.3-5.9-4.5c-1.4-2-2-4.3-2.3-6.6c-0.4-2.2-0.5-4.5-0.5-6.8c0-19.8,0-39.5,0-59.3
			C544.7,187.4,544.5,186.7,544.8,186z"/>
		<path d="M465.1,225.8c0,7.4,0,14.9,0,22.2c0,2.8-0.2,5.5-1,8.2c-0.4,1.1-0.7,2.3-1.4,3.3c-1.6,3.3-4.2,5.3-7.9,5.9
			c-2.2,0.4-4.5,0.4-6.8-0.2c-2.8-0.7-5-2.5-6.5-5c-1.4-2.3-2-4.8-2.3-7.4c-0.2-1.8-0.4-3.8-0.4-5.6c0-14.5,0-28.9,0-43.3
			c0-2.8,0.2-5.5,1-8.2c0.4-1.6,1-3.1,1.8-4.4c1.6-2.7,4.1-4.4,7.1-5c2.2-0.5,4.5-0.5,6.8,0.1c2.7,0.6,4.8,2.1,6.3,4.3
			c1.2,1.8,2,3.8,2.5,5.9c0.5,2.3,0.7,4.7,0.7,7C465.1,211,465.1,218.5,465.1,225.8z M454.5,225.9c0-1.4,0-2.7,0-4.1
			c0-7.1,0-14.2,0-21.4c0-0.7,0-1.5-0.1-2.2c-0.2-1.2-1.1-1.8-2.2-1.8s-2,0.6-2.2,1.8c-0.1,0.6-0.1,1.2-0.1,1.8
			c0,17.1,0,34.3,0,51.3c0,0.4,0,0.7,0,1.1c0,0.5,0.1,0.9,0.2,1.4c0.2,0.5,0.6,1,1.1,1.1c1.5,0.6,2.9-0.1,3.2-1.7
			c0.1-0.7,0.1-1.5,0.1-2.2C454.5,242.6,454.5,234.3,454.5,225.9z"/>
		<path d="M302.4,265.7c-0.4,0-0.6,0.1-0.9,0.1c-3.2,0-6.3,0-9.5,0c-0.1,0-0.1-0.1-0.2-0.1c0-0.1,0-0.4,0-0.6
			c3.4-26.2,6.9-52.2,10.4-78.3c0-0.2,0.1-0.5,0.2-0.7c1.1-0.2,8.6-0.2,10.2,0c0.1,0.2,0.2,0.6,0.2,1c0.6,4.9,1.2,9.7,2,14.6
			c0.7,5.6,1.5,11.3,2.3,17.1c0.6,4.9,1.2,9.8,2,14.7c0.6,4.9,1.4,9.8,2,14.7c0.5,4.2,1.1,8.2,1.6,12.4c0.1,1.1,0.4,2.2,0.5,3.3
			c0.1,0.6,0.1,1.2,0.2,1.8c-0.2,0-0.5,0.1-0.7,0.1c-3.1,0-6.3,0-9.3,0c-0.1,0-0.2,0-0.5-0.1c-0.5-1.8-0.5-3.7-0.9-5.6
			c-0.2-1.8-0.5-3.8-0.7-5.5c-1.2-0.2-5.4-0.2-7-0.1c-0.4,1.1-0.4,2.5-0.5,3.7c-0.2,1.4-0.2,2.6-0.5,3.9
			C302.8,263.3,302.7,264.5,302.4,265.7z M307.2,222.9c0,0.2-0.1,0.6-0.1,0.9c-0.1,4.1-0.7,8.2-1.1,12.3c-0.2,1.8-0.5,3.8-0.6,5.6
			c0,0.4-0.2,0.9,0.1,1.4c1.2,0,2.6,0.1,3.8-0.1c0-0.2,0.1-0.4,0.1-0.5c-0.6-6.4-1.6-12.8-2-19.3c0-0.1-0.1-0.1-0.1-0.2
			C307.4,223,307.3,223,307.2,222.9z"/>
		<path d="M494.2,186c1.4-0.2,20.9-0.2,22.3,0c0,0.2,0.1,0.4,0.1,0.6c0,3.1,0,6,0,9.1c0,0.2-0.1,0.5-0.1,0.9c-2,0-3.8,0-5.8,0
			c-2,0-3.8,0-5.6,0c-0.5,0.6-0.4,1.1-0.4,1.7c0,5.9,0,11.8,0,17.7c0,1,0,1.8,0,2.8c0,0.2,0,0.6,0.1,1c2.2,0.2,4.3,0,6.4,0.1
			c0.1,0.2,0.2,0.4,0.2,0.5c0,3.1,0,6.1,0,9.2c0,0.2,0,0.5-0.1,0.7c-0.2,0-0.6,0.1-0.9,0.1c-1.4,0-2.7,0-4.1,0c-0.5,0-1,0-1.6,0
			c0,0.4-0.1,0.7-0.1,1.1c0,7.5,0,15,0,22.5c0,0.4,0,0.7,0.1,1.1c0.5,0,1,0.1,1.4,0.1c2.9,0,5.8,0,8.7,0c0.5,0,1,0,1.5,0
			c0,0.4,0.1,0.6,0.1,0.9c0,3.2,0,6.3,0,9.5c-0.5,0.5-1.1,0.2-1.5,0.2c-4.4,0-8.7,0-13.1,0c-2.1,0-4.1,0-6.1,0c-0.5,0-1,0-1.6,0
			c0-0.4-0.1-0.6-0.1-1c0-0.4,0-0.7,0-1.2c0-25.3,0-50.5,0-75.8C494.2,187.3,494.2,186.7,494.2,186z"/>
		<path d="M606.8,265.9c-3.4,0-6.8,0-9.9,0c-0.1,0-0.4-0.1-0.6-0.1c0-0.1-0.1-0.4-0.1-0.5c0-26.3,0-52.6,0-78.8
			c0-0.1,0.1-0.2,0.1-0.5c0.4,0,0.6-0.1,1-0.1c7.7-0.1,23.9-0.1,25.2,0.1c0,0.1,0.1,0.1,0.1,0.2c0,3.2,0,6.4,0,9.5
			c0,0.2,0,0.4,0,0.5c-0.1,0.1-0.1,0.1-0.1,0.1h-0.1c-0.1,0-0.2,0-0.5,0c-3.6,0-11.1,0-14.6,0H607c-0.4,0.2-0.2,0.7-0.2,1.1
			c0,2.2,0,4.5,0,6.8c0,4.4,0,9,0,13.4c0,0.5,0,1.1,0,1.7c0.4,0,0.6,0.1,1,0.1c1.5,0,2.9,0,4.4,0c0.4,0,0.7,0,1.1,0.1
			c0.1,0.2,0.1,0.2,0.1,0.4c0,3.1,0,6,0,9.1c0,0.4,0,0.7,0,1.1c-0.4,0-0.7,0.1-1,0.1c-1.4,0-2.7,0-4.1,0c-0.5,0-0.9,0-1.4,0.1
			c-0.2,0.6-0.1,1.2-0.1,1.8c0,10.6,0,21,0,31.4C606.8,264.5,606.8,265.1,606.8,265.9z"/>
		<path d="M256.1,255.2c1.4,0,2.6,0,3.9,0s2.6,0,3.9,0c1.2,0,2.5-0.1,3.8,0.1c0,0.2,0.1,0.4,0.1,0.6c0,3.1,0,6.3,0,9.3
			c0,0.1-0.1,0.2-0.1,0.4c-1.2,0.1-20.9,0.1-22.2,0c0-0.2-0.1-0.5-0.1-0.9c0-0.4,0-0.7,0-1.2c0-25.2,0-50.5,0-75.6c0-0.6,0-1.4,0-2
			c1.8-0.2,3.6-0.1,5.3-0.1c1.7,0,3.4,0,5.2,0c0,0.4,0.1,0.6,0.1,1c0,0.5,0,1,0,1.5c0,21.6,0,43.2,0,64.8
			C256,253.7,255.9,254.4,256.1,255.2z"/>
		<path d="M434.6,159.6c1,3.1,2,6,3.1,9.3c0.2-0.6,0.5-1,0.7-1.4c1.2-0.2,4.3-0.2,5.5,0c0,0.4-0.1,0.6-0.1,1
			c-0.9,3.2-1.7,6.3-2.7,9.5c-0.1,0.4-0.2,0.9-0.1,1.4c1,0.6,1.8-0.4,2.8,0c0.2,1,0.2,4.7,0,6.1c-0.2,0-0.5,0.1-0.9,0.1
			c-0.7,0-1.5,0-2.2,0c-1.2,0-2.3-0.2-3.4-1c-0.1-0.1-0.2-0.1-0.2-0.1c-1.2,0.4-2.3,0.7-3.4,1c-1.4,0.2-2.7,0.2-4.1,0
			c-2.3-0.5-4.1-1.8-5.2-4.1c-0.6-1.4-1-2.8-1.1-4.3c-0.2-2.8-0.4-5.8,0.2-8.6c0.5-2.8,1.6-5.4,3.2-7.7c0.2-0.4,0.5-0.9,0.9-1.4
			c-0.4-1.2-0.9-2.5-1.2-3.7c-0.6-2.1-1.2-4.2-1.5-6.3c-0.4-2.5-0.4-4.8,0.1-7.2c0.2-1,0.6-2,1.2-2.9c0.9-1.4,2.1-2.2,3.6-2.6
			c1.1-0.2,2.2-0.4,3.3-0.2c2.1,0.2,3.7,1.4,4.5,3.2c0.7,1.5,1,3.1,1.2,4.8c0.2,3.1-0.2,6-1.4,8.8c-0.6,1.7-1.5,3.3-2.2,4.9
			C435.1,158.8,434.9,159.2,434.6,159.6z M430.5,167c-0.1,0.2-0.2,0.2-0.4,0.4c-0.1,0.7-0.2,1.5-0.4,2.2c-0.4,2.2-0.2,4.4-0.1,6.6
			c0,0.6,0.1,1.2,0.2,1.7s0.5,1.1,1,1.2c1.2,0.2,2.3,0.4,3.4-0.5c-0.2-1.1-2.7-9.3-3.4-11.3C430.7,167.4,430.6,167.3,430.5,167z
			 M431.7,152.6c0.5-0.5,0.5-1.1,0.6-1.7c0.5-1.8,0.9-3.7,0.9-5.6c0-0.5,0-0.9-0.1-1.4c-0.1-0.5-0.5-0.7-1-0.7c-0.5,0-0.9,0.2-1,0.7
			c-0.1,0.7-0.2,1.4-0.2,2.1c0,1,0.1,2,0.2,2.8C431.2,150.1,431.2,151.4,431.7,152.6z"/>
		<path d="M623.1,159.6c0,0.6,0,1.2,0,1.8c-0.4,0-0.6,0.1-0.9,0.1c-0.4,0-0.9,0-1.2,0c-55.3,0-110.5,0-165.8,0c-0.6,0-1.2,0-2,0
			c-0.4-0.6-0.2-1.2-0.1-1.8c0.2,0,0.6-0.1,0.9-0.1c0.5,0,0.9,0,1.4,0c55.1,0,110.3,0,165.4,0C621.5,159.5,622.3,159.4,623.1,159.6z
			"/>
		<path d="M243.8,161.4c-0.1-0.6-0.2-1.2,0-1.8c0.2,0,0.4-0.1,0.6-0.1c56.2,0,112.5,0,168.7,0c0.1,0,0.2,0.1,0.5,0.1
			c0,0.5,0,1.1,0,1.7c-0.2,0-0.5,0.1-0.9,0.1c-0.5,0-0.9,0-1.4,0c-55.1,0-110.4,0-165.5,0C245.3,161.6,244.6,161.6,243.8,161.4z"/>
		<path d="M623,166.3c0.1,0.4,0.1,0.5,0.1,0.6c0,0.4,0,0.7,0,1.1c-0.4,0.1-0.6,0.1-0.9,0.2c-0.4,0-0.9,0-1.2,0
			c-55.3,0-110.5,0-165.9,0c-0.6,0-1.4,0.1-2-0.1c-0.2-0.5-0.1-1.1-0.1-1.7c0.2,0,0.6-0.1,0.9-0.1c0.4,0,0.9,0,1.2,0
			c55.3,0,110.5,0,165.6,0C621.5,166.3,622.3,166.3,623,166.3z"/>
		<path d="M243.8,168.2c-0.1-0.7-0.1-1.2,0-1.8c0.2,0,0.4-0.1,0.6-0.1c56.4,0,112.7,0,169.1,0c0.4,0.6,0.2,1.1,0.2,1.7
			c-0.2,0.1-0.6,0.1-0.9,0.2c-0.5,0-0.9,0-1.4,0c-55.3,0-110.4,0-165.6,0C245.3,168.2,244.7,168.2,243.8,168.2z"/>
		<g>
			<path d="M388.5,140.6c0-0.2-0.1-0.5-0.1-0.6c0-26.3,0-52.6,0-78.7c0-0.1,0.1-0.2,0.1-0.5c0.4,0,0.7-0.1,1.1-0.1c3.9,0,8,0,11.9,0
				c1.8,0,3.7,0.4,5.4,1.1c2.5,1.1,4.2,2.9,5.3,5.4c1,2,1.5,4.1,1.8,6.1c0.2,1.8,0.4,3.6,0.4,5.4c0,3.1,0,6,0,9.1
				c0,2.1-0.2,4.2-0.9,6.3c-0.6,2.1-1.5,3.9-3.1,5.4c-0.1,0.1-0.1,0.2-0.2,0.4c0,0.1,0,0.2,0.1,0.2c2.2,2.2,3.2,4.9,3.7,7.9
				c0.2,1.6,0.4,3.1,0.4,4.7c0,3.6,0,7.2,0,10.8c0,2.8-0.4,5.6-1.2,8.5c-0.6,2-1.5,3.8-2.9,5.3c-1.6,1.7-3.6,2.7-5.8,3.1
				c-1,0.2-2.1,0.2-3.2,0.4c-3.9,0-7.9,0-11.8,0C389.2,140.7,388.9,140.6,388.5,140.6z M399.2,105.3c0,0.2-0.1,0.4-0.1,0.5
				c0,7.9,0,15.7,0,23.6c0,0.1,0.1,0.2,0.1,0.5c0.9,0.1,1.7,0.1,2.5,0c1,0,1.6-0.6,1.8-1.5c0.1-0.6,0.2-1.2,0.2-1.7c0-6,0-12,0-18
				c0-0.5-0.1-1-0.1-1.5c-0.2-1.1-0.9-1.7-2-1.8C400.9,105.1,400,105.1,399.2,105.3z M399.3,94.6c0.9,0,1.7,0,2.5,0
				c1-0.1,1.7-0.6,1.8-1.6c0.1-0.7,0.2-1.4,0.2-2.1c0-3.6,0-7,0-10.6c0-1.8,0-3.6,0-5.4c0-0.7-0.1-1.4-0.2-2.1
				c-0.1-0.6-0.5-1.1-1.1-1.4c-0.7-0.2-2.3-0.2-3.2,0C399,73.1,399,93.2,399.3,94.6z"/>
			<path d="M324.1,140.5c-1.1,0.2-9.2,0.2-10.6,0c-0.6-3.7-1-7.5-1.6-11.3c-1.2-0.4-2.5-0.1-3.6-0.1s-2.3-0.1-3.4,0.1
				c-0.6,3.8-0.9,7.6-1.4,11.3c-0.2,0.1-0.4,0.1-0.5,0.1c-3.2,0-6.4,0-9.6,0c-0.1,0-0.2-0.1-0.4-0.1c0-0.1,0-0.1-0.1-0.1v-0.1
				c3.4-26.5,7-52.9,10.6-79.4c0.2-0.1,0.5-0.1,0.7-0.1c2.9,0,5.9,0,8.8,0c0.2,0,0.4,0,0.6,0.1c0.4,0.7,0.4,1.6,0.5,2.5
				c0.9,6,1.6,12,2.5,18c0.7,5.6,1.5,11.3,2.2,17.1c0.7,5.6,1.5,11.3,2.3,17.1c0.6,4.9,1.2,9.8,2,14.7c0.4,3.2,0.9,6.5,1.2,9.7
				C324.1,140,324.1,140.2,324.1,140.5z M308.3,97.1c-0.2,2.3-0.4,4.5-0.6,6.9c-0.2,2.2-0.5,4.5-0.7,6.8c-0.2,2.3-0.5,4.5-0.7,6.9
				c0.7,0.4,1.5,0.2,2.1,0.1c0.7,0,1.4,0.2,2.1-0.2C309.9,110.8,308.8,104,308.3,97.1z"/>
			<path d="M456.3,94.6c1,0.1,2.1,0,3.2,0c1,0,2.1,0,3.1,0c0.1,0.2,0.1,0.4,0.1,0.5c0,3.2,0,6.4,0,9.5c0,0.1-0.1,0.2-0.1,0.5
				c-2.1,0.2-4.2,0-6.4,0.1c-0.1,0.2-0.1,0.5-0.1,0.9c0,1,0,2,0,3.1c0,6.3,0,12.6,0,19c0,0.5,0,1.1,0,1.6c0.5,0.5,1,0.4,1.4,0.4
				c2.9,0,5.8,0,8.7,0c0.5,0,1,0,1.6,0.1c0.2,1.8,0.1,3.6,0.1,5.3s0,3.4,0,5.3c-0.4,0.1-0.5,0.1-0.7,0.1c-7.1,0-14.4,0-21.6,0
				c-0.1-0.4-0.2-0.6-0.2-0.9c0-0.5,0-0.9,0-1.4c0-25.2,0-50.3,0-75.6c0-0.6,0-1.2,0-1.8c0.5-0.5,1-0.4,1.4-0.4c2.9,0,5.9,0,8.8,0
				c3.6,0,7,0,10.6,0c0.5,0,1,0,1.6,0.1c0.2,1.8,0.1,3.6,0.1,5.3c0,1.7,0,3.4,0,5c-0.5,0.4-1,0.4-1.4,0.4c-2.9,0-5.9,0-8.7,0
				c-0.5,0-1,0-1.4,0c-0.1,0.1-0.1,0.1-0.1,0.2V72c0,7.2,0,14.6,0,21.9c0,0.2,0,0.4,0,0.6C456,94.3,456.1,94.3,456.3,94.6z"/>
			<path d="M610.8,71.4c0,0.4-0.1,0.6-0.1,0.9c0,7.4,0,14.7,0,22.2c0.4,0.1,0.6,0.1,1,0.1c1.4,0,2.7,0,4.1,0c0.5,0,1,0,1.6,0
				c0.1,0.4,0.1,0.6,0.1,1c0,2.9,0,5.8,0,8.7c0,0.2,0,0.5-0.1,0.7c-0.7,0.4-1.4,0.1-2.1,0.1c-0.7,0-1.5,0-2.2,0s-1.4,0-2.2,0
				c0,0.5-0.1,0.9-0.1,1.2c0,2.1,0,4.2,0,6.4c0,5.2,0,10.2,0,15.3c0,0.5,0,1.1,0,1.7c0.5,0,1,0.1,1.4,0.1c2.9,0,5.8,0,8.7,0
				c0.5,0,1,0,1.6,0.1c0.1,1.8,0,3.6,0.1,5.3c0,1.7,0,3.4,0,5c-0.6,0.4-1.1,0.2-1.7,0.2c-5.2,0-10.2,0-15.3,0c-1.5,0-2.8,0-4.2,0
				c-0.4,0-0.7,0-1.1-0.1c0-0.2-0.1-0.5-0.1-0.7c-0.1-3.7,0-77.7,0.1-79c0.4-0.4,0.7-0.2,1.1-0.2c2.5,0,4.9,0,7.4,0c4.1,0,8,0,12,0
				c0.5,0,1.1,0,1.7,0.1c0.2,1,0.1,1.7,0.1,2.6c0,0.9,0,1.8,0,2.7c0,0.9,0,1.7,0,2.6c0,0.9,0,1.7-0.1,2.6c-1.4,0.2-2.6,0.1-3.8,0.1
				c-1.4,0-2.6,0-3.9,0C613.5,71.4,612.3,71.4,610.8,71.4z"/>
			<path d="M548.8,60.8c1.5-0.2,9.1-0.2,10.6,0c0,0.2,0.1,0.5,0.1,0.9c0,0.5,0,1,0,1.5c0,21.6,0,43.2,0,64.8c0,0.6,0,1.2,0.1,2
				c1.4,0.2,2.6,0.1,3.8,0.1c1.4,0,2.6,0,3.9,0c1.2,0,2.5,0,3.8,0c0.1,0.2,0.2,0.5,0.2,0.7c0,3.1,0,6.1,0,9.2c0,0.2,0,0.4-0.1,0.5
				c-0.1,0.1-0.1,0.1-0.2,0.2h-0.1c-7.1,0-14.1,0-21.2,0c-0.2,0-0.4,0-0.6-0.1c0,0-0.1-0.1-0.2-0.1c0-0.1-0.1-0.4-0.1-0.6
				C548.8,113.5,548.8,87.2,548.8,60.8z"/>
			<path d="M244.7,60.8c1.4-0.2,7.1-0.2,9.8-0.1c0.2,0,0.5,0.1,0.9,0.1c0.1,2,0,3.8,0,5.8c0,1.8,0,3.8,0,5.8c0,2,0,3.9,0,5.9
				c0,1.8,0,3.8,0,5.8c0,1.8,0,3.8,0,5.8c0,1.8,0,3.8,0,5.8c0,2,0,3.8,0,5.8c0,2,0,3.8,0,5.8c0,2,0,3.9,0,5.9c0,2,0,3.8,0,5.8
				c0,2,0,3.8,0,5.8c0,1.8,0,3.8,0,5.6c0.6,0.4,1.1,0.2,1.6,0.2c2.8,0,5.8,0,8.6,0c0.5,0,1-0.1,1.5,0.1c0.2,1.1,0.2,9,0,10.4
				c-0.2,0-0.5,0.1-0.7,0.1c-7,0-14,0-20.9,0c-0.1,0-0.2,0-0.5-0.1c0-0.2-0.1-0.5-0.1-0.9c0-0.5,0-0.9,0-1.4c0-25.2,0-50.3,0-75.6
				C244.7,62.2,244.7,61.5,244.7,60.8z"/>
			<path d="M508.2,129.8c1.5,0.2,2.7,0.1,3.9,0.1c1.4,0,2.6,0,3.9,0c1.2,0,2.6,0,3.8,0c0.1,0.4,0.1,0.6,0.1,0.9c0,2.9,0,5.8,0,8.7
				c0,0.2,0,0.6-0.1,0.9c-0.1,0.1-0.1,0.1-0.2,0.1h-0.1c-7.1,0-14.1,0-21.2,0c-0.2,0-0.4,0-0.7-0.1c0-0.2-0.1-0.6-0.1-0.9
				c0-0.4,0-0.7,0-1.2c0-25.3,0-50.5,0-75.8c0-0.6-0.1-1.4,0.1-2c1.1-0.2,2.3-0.1,3.4-0.1s2.3,0,3.4,0c1.1,0,2.3,0,3.6,0.1
				c0,0.4,0.1,0.6,0.1,0.9c0,0.5,0,0.9,0,1.4c0,21.6,0,43.2,0,64.7C508.2,128.3,508.2,129.1,508.2,129.8z"/>
		</g>
		<g>
			<path d="M202.5,232.1c-0.7-0.4-1.5-0.9-2.3-1.1c-0.7-0.4-1.5-0.6-2.2-0.9c-0.9-0.2-1.7-0.4-2.5-0.5s-1.6-0.1-2.5-0.1
				s-1.7,0.1-2.6,0.2c-0.7,0.1-1.6,0.2-2.3,0.5c-0.9,0.2-1.6,0.5-2.3,0.9c-0.7,0.4-1.4,0.7-2.2,1.1c-0.1-0.2-0.1-0.5-0.1-0.6
				c0-1.6-0.1-3.1-0.1-4.7c0-4.2,0-8.5,0-12.6c0-2.6,0-5.2,0-7.9c-0.1-9.2-0.1-18.4-0.2-27.7c0-4.7,0-9.3-0.1-14
				c0-1.7-0.1-2.1-1.8-2.6c-1.8-0.6-3.7-1.1-5.5-1.6c-3.2-0.7-6.4-1.5-9.6-2.2c-0.7-0.1-1.6-0.4-2.3-0.6c-1.4-0.4-2.6-1-3.7-2
				c-1.6-1.4-2.3-2.9-2.5-5c0-1.4-0.1-2.8-0.2-4.2c-0.2-4.4-0.4-8.7-0.6-13.1c-0.1-3.4-0.2-6.9-0.5-10.4c-0.2-4.4-0.4-8.7-0.6-13.1
				c-0.2-4.2-0.4-8.5-0.6-12.6c-0.2-4.7-0.4-9.3-0.6-14c-0.2-5.5-0.4-10.9-0.6-16.5c0-1.5-0.2-2.9,0.1-4.3c0.2-1.4,0.7-2.5,1.7-3.4
				c1.1-1.2,2.6-1.6,4.2-1.8c0.5,0,0.9,0,1.4,0c21.2,0,42.4,0,63.6,0c0.5,0,0.9,0,1.4,0c3.3,0.2,5.5,2.3,5.9,5.8
				c0.1,0.9,0.1,1.7,0.1,2.6c-0.1,3.1-0.1,6.1-0.2,9.2c-0.1,3.9-0.2,7.9-0.5,11.8c-0.2,4.7-0.4,9.3-0.6,14
				c-0.2,4.3-0.4,8.5-0.6,12.8c-0.2,4.3-0.4,8.6-0.6,12.9c-0.2,4.2-0.4,8.3-0.6,12.5c-0.1,3.9-0.4,8-0.5,11.9
				c-0.1,2.1-0.9,3.8-2.5,5.2c-1.1,1-2.2,1.6-3.7,2c-3.1,0.7-6,1.4-9.1,2.1c-2.3,0.6-4.8,1.2-7.1,1.8c-0.7,0.2-1.4,0.5-2.1,0.9
				c-0.6,0.2-1,0.7-0.9,1.5c0,0.4,0,0.7,0,1.1c0,7.1,0,14.1,0,21.2c0,3.1,0,6,0,9.1c-0.1,8.5-0.1,16.8-0.2,25.3c0,2.6,0,5.3-0.1,7.9
				c0,1.1-0.1,2.2-0.1,3.3C202.6,231.7,202.6,231.8,202.5,232.1z M190.2,98.5c0,4.1,0,8.1,0,12c0,3.7,0,7.4,0,11.2
				c0,0.6,0,1.2,0.2,1.7c0.2,1,1,1.6,2.1,1.7c0.2,0,0.6,0,0.9,0c1.2-0.1,2-0.7,2.2-1.8c0.1-0.5,0.1-1.1,0.1-1.6
				c0-15.5,0-30.8,0-46.3c0-0.5,0-1-0.1-1.5c-0.1-0.6-0.5-1.2-1-1.6c-1.7-1.2-4.2-0.1-4.4,2c0,0.5,0,0.9,0,1.4
				C190.2,83.3,190.2,90.9,190.2,98.5z M215.6,98.1C215.5,98.1,215.5,98.1,215.6,98.1c0-3.6,0.1-7.2,0.2-10.8
				c0.1-4.2,0.1-8.3,0.1-12.5c0-0.4,0-0.7-0.1-1c-0.1-0.6-0.5-1.2-1.1-1.6c-1.8-1.2-4.2-0.1-4.3,2.1c-0.1,1-0.1,2-0.1,2.9
				c0,2.2,0,4.4-0.1,6.6c0,1.7,0,3.3,0,4.9c-0.1,3.3-0.1,6.8-0.2,10.1c-0.1,5.2-0.1,10.3-0.2,15.5c0,2-0.1,3.9-0.1,5.9
				c0,0.7,0,1.5,0,2.1c0.1,1.8,1.1,2.7,2.9,2.7c0.1,0,0.2,0,0.2,0c1.1-0.1,2-0.7,2.2-1.8c0.1-0.6,0.2-1.4,0.2-2c0-2.1,0-4.2,0.1-6.3
				c0-1.7,0-3.4,0.1-5.2C215.4,106,215.5,102.1,215.6,98.1z M176.2,98.5L176.2,98.5c-0.1-2.2-0.1-4.3-0.1-6.5
				c-0.1-5.2-0.1-10.2-0.2-15.3c0-0.7,0-1.4-0.1-2.1c-0.1-2.1-1.6-3.2-3.7-2.7c-1,0.2-1.7,1-1.8,2c-0.1,0.5-0.1,0.9-0.1,1.4
				c0,1.7,0,3.6,0.1,5.3c0.1,5.2,0.1,10.3,0.2,15.5c0.1,4.9,0.2,9.7,0.2,14.6c0,3.6,0.1,7.2,0.1,10.8c0,0.6,0.1,1.2,0.2,1.8
				c0.1,1,0.7,1.7,1.7,1.8c1.1,0.2,2.1,0.2,2.9-0.6c0.6-0.6,0.7-1.2,0.7-2.1c0-0.9,0-1.8,0-2.7c-0.1-4.1-0.1-8-0.2-12
				C176.3,104.6,176.3,101.6,176.2,98.5z M193,135.1c1.2,0,2.6-0.9,2.6-2.6c0-1.4-1.2-2.5-2.5-2.5c-1.4,0-2.5,1.1-2.6,2.5
				C190.4,133.9,191.5,135.1,193,135.1z M212,135.1c1.4,0,2.5-1.1,2.6-2.5c0-1.5-1.1-2.7-2.5-2.7c-1.4,0-2.6,1.2-2.6,2.6
				C209.6,134,210.7,135.1,212,135.1z M174.2,145.3c1.4,0,2.5-1.1,2.5-2.5c0.1-1.4-1.1-2.6-2.6-2.6c-1.4,0-2.5,1.1-2.5,2.5
				C171.6,144.2,172.7,145.3,174.2,145.3z M171.5,132.5c-0.1,1.1,0.9,2.5,2.5,2.6c1.5,0,2.6-1.1,2.6-2.6c0-1.5-1.2-2.6-2.6-2.6
				C172.5,130.1,171.4,131.2,171.5,132.5z M195.6,142.8c0-1.4-1.1-2.6-2.5-2.6c-1.5-0.1-2.7,1.1-2.7,2.5s1,2.6,2.3,2.6
				C194.4,145.4,195.6,144.2,195.6,142.8z M214.4,142.7c0-1.4-1-2.5-2.5-2.6c-1.5,0-2.6,1.1-2.6,2.6c0,1.4,1,2.5,2.5,2.6
				C213.3,145.3,214.4,144.2,214.4,142.7z"/>
			<path d="M176.4,286.5c0-1.7,0-3.4,0-5.2c0-2.3,0-4.7,0.1-7.1c0.1-5.3,0.2-10.4,0.2-15.6c0.1-4.1,0.1-8,0.2-12
				c0-3.9,1.2-7.4,3.8-10.4c3.2-3.7,7.2-5.6,12.2-5.8c7.1-0.2,14.1,4.8,15.8,12.4c0.2,1.2,0.4,2.5,0.5,3.6c0.1,3.7,0.1,7.4,0.1,11.2
				c0.1,5.3,0.2,10.4,0.2,15.6c0.1,3.6,0.1,7.2,0.2,10.8c0,3.6,0.1,7,0.1,10.6c0.1,4.8,0.1,9.6,0.2,14.5c0.1,5.6,0.1,11.2,0.2,16.8
				c0.1,5.4-2.2,9.6-6.4,12.9c-3.7,2.9-8,4.2-12.6,3.8c-4.1-0.4-7.6-2.1-10.7-4.8c-2.5-2.2-4.2-5-4.9-8.3c-0.1-0.9-0.2-1.8-0.2-2.7
				c0-4.3,0.1-8.6,0.1-12.9c0-3.7,0.1-7.5,0.2-11.2c0-3.6,0.1-7,0.1-10.6C176.2,290.3,176.3,288.4,176.4,286.5
				C176.3,286.5,176.3,286.5,176.4,286.5z M206.8,315.3c-0.9-1-1.8-1.1-3.1-0.9c-1.4,0.2-2.6,1-3.8,1.7c-0.7,0.5-1.5,0.9-2.2,1.2
				c-0.6,0.4-1.4,0.4-2.1,0c-0.5-0.2-1-0.2-1.6-0.1c-0.7,0.1-1.5,0.1-2.2,0c-0.5-0.1-1-0.1-1.5,0.2c-0.7,0.5-1.6,0.4-2.3,0
				c-0.6-0.2-1.1-0.6-1.7-1c-0.7-0.5-1.5-1-2.2-1.2c-0.7-0.4-1.5-0.5-2.1-0.7c-1.1-0.2-2,0-2.8,0.9l0.1,0.1c0.1,0,0.2,0,0.2,0
				c1.6-0.4,2.9,0.1,4.3,1c1.2,0.9,2.5,1.8,3.8,2.7c-0.1,0.1-0.2,0.2-0.4,0.2c-0.2,0.1-0.5,0.2-0.5,0.5c0,0.4,0.2,0.5,0.6,0.6
				c0.5,0.1,1,0.1,1.5,0.1c0.4,0,0.7-0.1,1.2-0.2c0.2,0.6,0.4,1.1,0.6,1.6c0.2,0.5,0.5,1,0.7,1.5c0.2,0.6,0.4,1.2,0.1,2
				c-0.2,0.6,0,1.2,0.2,1.7c0.2,0.5,0.6,0.7,1.2,0.7s1-0.2,1.2-0.7c0.2-0.6,0.4-1.2,0.2-2c-0.1-0.6-0.1-1.2,0.2-1.8
				c0.5-1,0.9-1.8,1.4-2.9c0.4,0.1,0.9,0.1,1.2,0.2c0.6,0.1,1.2,0,1.7-0.4c0.2-0.1,0.2-0.6,0-0.7c-0.2-0.1-0.5-0.2-0.6-0.5
				c1.1-0.7,2-1.5,2.9-2.2c0.4-0.2,0.9-0.6,1.2-0.9c1.1-0.7,2.3-1,3.6-0.7C206.4,315.3,206.6,315.3,206.8,315.3z"/>
		</g>
	</g>
</g>
</svg>
