<svg id="Layer_1" xmlns="http://www.w3.org/2000/svg" viewBox="0 0 543.5 194.2"><style>.st0{fill:#b3b3b3}</style><path class="st0" d="M32.7 71.9v35.8c0 5 2.2 8.6 6.9 10.3 3.8 1.4 7.7 2.5 11.5 3.8.8.2 1.6.5 2.3.9 1.1.6 1.9 1.6 1.4 3-.5 1.3-1.3 2.2-3 2.1-6-.5-12.1-.8-18.1-1.2-8.7-.5-17.4.5-26 1.6-1.4.2-2.9.4-4.3.5-1.7.1-3.1-1-3.3-2.4-.2-1.3.8-2.5 2.5-3 3.6-1 7.2-2 10.8-3.1 4.3-1.4 6.6-4.3 6.8-8.9.7-14.2 1.6-28.3 2.4-42.5.8-13.9 1.6-27.8 2.3-41.6.1-2.1-.3-4.2-.7-6.3-.5-2.5-2.1-4-4.6-4.6-3.1-.8-6.2-1.6-9.3-2.5-1.2-.3-2.4-.7-3.3-1.4s-2-2.1-1.8-2.9c.2-.9 1.6-1.8 2.7-2.3 1.1-.4 2.5-.4 3.7-.4 6.6.2 13.2.5 19.9.6 2.6 0 5.3-.4 7.9-.8 5-.7 8.6 1.3 10.8 5.8l13.2 28.5c6.5 13.9 13 27.9 19.5 41.8.5 1 1 2 1.6 2.9.9 1.3 1.6 1.3 2.5-.1.6-1 1.1-2.1 1.6-3.3 9-22.8 17.9-45.6 26.9-68.3 2.5-6.3 5.9-8.4 12.6-8.3 8.4.1 16.7 0 25.1-.1 2.1 0 4.1-.4 6.2-.5 1.5-.1 3-.1 4.4.3 2.6.7 3.1 3 1 4.8-1.5 1.4-3.4 2.1-5.5 2.3-2.7.3-5.5.6-8.1 1.4-5.6 1.8-8.8 6.9-8.7 12.8.5 25.8 1 51.7 1.6 77.5.2 7.9 3.5 12.4 11.1 14.8 2.4.7 4.9 1.3 7.3 2 .7.2 1.3.4 1.9.7 1.8 1 2.6 2.3 2.2 3.7s-2.3 2.7-4.1 2.6c-4.5-.4-9.1-.8-13.6-1.3-9.1-.8-18.2-.7-27.3 0-4.5.4-9.1.8-13.6 1.1-1.2.1-2.5 0-3.6-.4-1.9-.6-2.4-2.5-.9-3.8 1.1-1 2.6-1.7 4-2.2 2.4-.9 5-1.2 7.2-2.3 1.8-.9 3.4-2.3 4.8-3.7 1.1-1.1 1.3-2.7 1.3-4.3-.5-17.8-.9-35.6-1.3-53.5-.2-7.2-.3-14.3-.5-21.5 0-.9-.1-1.7-.3-2.6-.1-.4-.6-1.1-.9-1.1-.5 0-1.1.4-1.4.7-.4.4-.6 1-.8 1.5-11 27.4-21.9 54.7-32.9 82.1-.7 1.9-1.7 3.7-2.8 5.4-1 1.6-2 1.6-3.2.2-1-1.3-2-2.7-2.7-4.2-12.7-27.3-25.3-54.7-38-82-.4-.9-.8-1.8-1.3-2.6-.2-.3-.8-.7-1.1-.7-.4.1-.8.6-1 1-.2.6-.1 1.3-.1 1.9V72c0-.1.1-.1.2-.1zm311.2-5.4c10.6-.6 21.3-1.2 31.9-1.8 1.5-.1 3 0 4.4.3 1.6.3 3 1.1 3.1 3s-1.2 2.9-2.7 3.4c-2.2.7-4.5 1-6.7 1.5s-4.4.9-6.5 1.8c-2.5 1.1-3.8 3.3-3.8 6.1.1 8 .3 15.9.4 23.9 0 1.7 0 3.5-.2 5.2-.5 4.3-2.7 7.4-6.4 9.6-6 3.6-12.5 5.7-19.4 6.9-10.9 1.8-21.9 2.6-32.9 1.7-13.2-1.1-25.9-4.2-37-11.6-15.1-10-23.7-24.4-25.8-42.1-2.5-20.9 3.7-39.5 18.7-54.6 8.7-8.8 19.8-13.4 31.7-16.5C304.8.1 317.1-.2 329.4.7c5.2.4 10.5.9 15.6 2 8.6 1.9 12.4 6.7 12.8 15.5.1 3.3.1 6.6 0 9.9-.1 2-.4 4.2-2.7 4.8-2.2.5-3.4-1.3-4.4-3-1-1.6-1.7-3.3-2.6-4.9-5.3-10.1-13.2-16.1-24.8-17.1-12.4-1-24 1-34.3 8.5-8.7 6.4-14.3 14.9-17.6 25.1-4.6 14.3-5.6 28.7-.9 43.2 6.6 20.5 26.1 35.3 47.7 36.2 3 .1 6.2-.1 9.1-1 10.3-2.9 12.6-7.6 13.2-15.7.5-6.7.4-13.4.7-20s-4.4-9.1-8.9-9.5c-2.8-.3-5.5-.3-8.3-.4-1.9-.1-3.7-.4-5.1-1.7-1.9-1.8-1.7-4.4.8-5.3 1.7-.7 3.7-.9 5.6-.9 6.2-.1 12.5 0 18.7 0-.1-.3-.1-.1-.1.1zm126.4-11.2c0 16.8-.1 33.6.1 50.4 0 2.7 1 5.4 1.8 8 .7 2.1 2.5 3.4 4.5 4.3 1.9.9 4 1.6 5.9 2.5 1.1.5 2.3 1.2 3.1 2 1.6 1.6 1.1 3.6-1.2 4-2.1.3-4.4.3-6.5 0-11.8-1.5-23.5-1.1-35.2.6-1.8.3-3.9-.2-5.7-.8-1.7-.5-1.8-2-.3-3 1.1-.8 2.4-1.3 3.7-1.8 2.2-1 4.5-1.7 6.7-2.8 3.1-1.7 4.6-4.5 4.5-8-.4-29-.9-58-1.3-87-.1-4.8-2.1-8.1-6.8-9.7-.3-.1-.6-.2-.8-.3-.7-.7-2-1.5-2-2.3s1.1-1.7 1.8-2.4c.5-.5 1.3-.7 2-.9 6.7-2.5 13.4-5 20-7.5.7-.3 1.5-.5 2.3-.6 1.4-.1 2.3.6 2.6 2 .1.7.2 1.5.2 2.2v51.2c.3-.1.4-.1.6-.1zm56.6.1c0 16.9-.1 33.8.1 50.7 0 2.8 1.1 5.6 2 8.3.7 2.1 2.5 3.4 4.5 4.3s4.1 1.6 6 2.5c1.2.6 2.4 1.3 3.2 2.2 1.3 1.4.8 3-1 3.4-1.6.4-3.4.3-5.1.2-5.2-.3-10.5-1.2-15.7-1.1-7.4.2-14.7 1.1-22 1.6-1.6.1-3.2-.2-4.7-.7-1.8-.6-2-2.1-.4-3.2 1.1-.8 2.5-1.3 3.8-1.9 1.9-.8 3.9-1.4 5.8-2.3 3.6-1.8 5.3-4.8 5.2-8.8-.3-24-.7-48-1-72-.1-5.2-.1-10.5-.4-15.7-.2-3.8-2.2-6.4-5.7-7.9-1.1-.5-2.2-1-3.2-1.7-1.2-.9-1.2-2 0-2.9.9-.7 2.1-1.3 3.2-1.7 6.7-2.6 13.4-5 20-7.6 3.8-1.4 5.1-.5 5.1 3.5v50.7c0 .1.2.1.3.1z"/><path class="st0" d="M180.1 80.8c0 8.2 1.7 15.9 6.7 22.6 7.8 10.3 20.3 13.9 33.2 9.5 1.8-.6 3.5-1.4 5.3-2.2 2.2-1 4.6-.8 5.4.5s.2 3.6-2 4.8c-4 2.4-8.1 4.7-12.4 6.5-9.9 4-20.2 5.3-30.3 1.2-15.2-6.1-24.2-17.6-26.2-33.9-.9-7.5 1.4-14.8 4.6-21.6 6.6-13.8 17.9-21.6 32.5-25 7.9-1.9 15.9-1.8 23.8.4 2.8.8 5.5 2.2 7.8 3.8 3.4 2.4 4.3 6.4 3.1 10.2-1.2 3.6-4.3 5.3-8 4.5-2.9-.6-5.2-2.1-7.1-4.4-1.3-1.5-2.5-3.2-3.8-4.7-3.1-3.7-9.2-6.3-15.4-3.6-8.2 3.5-12.9 9.9-15.3 18.1-1.2 4.2-1.6 8.7-2.4 13 .2.2.3.2.5.3zm249.3 46.5c-4.6-.5-8.8-1-13.1-1.5-7.5-.9-14.8.2-22.2 1.6-2.1.4-4.2.6-6.3.4-.8-.1-2.1-1.1-2.3-1.9s.6-2.1 1.3-2.7c1.3-.9 2.8-1.6 4.3-2.1 7.8-2.9 8.8-4.3 8.8-12.7V74.6c0-1.8-.3-3.7-.6-5.5-.7-3.5-2.9-5.5-6.3-6.4-1.6-.4-3.5-.7-3.6-2.7-.2-2 1.7-2.7 3.3-3.3 1.7-.7 3.5-1.2 5.2-1.8 5.4-1.6 10.2-4.3 14.5-7.9.8-.7 1.6-1.5 2.5-1.9 1-.4 2.2-.6 3.2-.3 1.3.4 1.4 1.7 1.3 2.9-.2 2.1-.7 4.1-.7 6.2-.2 18.4-.2 36.8-.3 55.2 0 .6.1 1.3.2 1.9.5 3.6 2.5 6.1 5.7 7.7 1.4.7 3 1.2 4.5 1.8.7.3 1.5.6 2.1 1.1 1.1.9 2 2.1 1.5 3.6-.5 1.9-1.9 2.1-3 2.1zm-136.7 65.8c.5-.3.9-.8 1.4-1 1.8-.8 2.6-2.1 2.6-4v-28.7c0-2.7-.6-3.4-3.2-4.1-.5-.1-.9-.4-1.4-1 .5-.2.9-.5 1.4-.5 4.4-.1 8.9-.2 13.3 0 2.2.1 4.5.2 6.6.9 6 1.9 8.1 9.3 4 14.6-1.3 1.6-3.1 2.8-4.8 4.4.3.4.7 1.1 1.1 1.7 2.2 3.3 4.4 6.7 6.5 10 2.1 3.2 4.1 6.6 8.4 7.5-2.1 1.6-6.3 1.1-8.5-1-1.2-1.1-2.1-2.4-3-3.7-2.4-3.6-4.7-7.1-6.9-10.8-1.1-1.9-2.6-2.6-4.8-2.6-5 .1-4.3-.2-4.3 4.3v8c0 3.6.6 4.4 4.1 5.3.7.2 1.3.6 2 .8-.1.2-.1.4-.2.5h-14c-.1-.3-.2-.5-.3-.6zm8.4-28.7v6.7c0 1.1.5 1.6 1.5 1.6 2.1 0 4.3.1 6.4-.1 2.5-.2 4.5-1.5 5.6-3.8 2.6-5.5-.2-11.6-6.1-13-1.7-.4-3.4-.4-5.1-.5-1.5-.1-2.2.8-2.2 2.2-.1 2.4-.1 4.6-.1 6.9zM70.6 153.8c1.1.1 2.3.4 3.3.1 2.4-.7 3.6.6 4.9 2.1 8.3 9.4 16.8 18.8 25.2 28.1.4.5.9 1 1.3 1.6.2-.1.3-.2.5-.2 0-.6.1-1.2.1-1.8v-21.6c0-4.6-.8-5.7-5.1-7.2-.4-.1-.8-.4-1.1-1h12.1c-.6.5-.9.9-1.3 1-1.8.8-2.3 2.2-2.3 4v32.5c0 .7-.1 1.4-.2 2.7-1-.9-1.8-1.3-2.4-2-8.2-9.2-16.3-18.4-24.4-27.6-.3-.4-.5-.9-.7-1.4-.2.1-.5.3-.7.4-.1.6-.3 1.2-.3 1.7v22.5c0 2.7.7 3.6 3.4 4.2.3.1.6.1.8.2.3.2.4.4.6.7-.3.2-.6.6-.9.6-1.2 0-2.3-.2-3.5-.2-2.1 0-4.3.2-6.4.2-.4 0-.9-.3-1.3-.5.3-.3.5-.8.8-.9 3.3-.8 4-3.3 4-6.2v-22.5c0-1.4-.3-2.9-.7-4.2-.6-2.2-2-3.6-4.2-4.2-.6-.2-1.1-.4-1.7-.6.2-.1.2-.3.2-.5zm198.6 31.9c0 .7.1 1.1 0 1.6-.6 3.1-4.3 6.4-7.4 6.4h-20.1c-.4 0-.9-.1-1.4-.6.5-.3 1-.6 1.5-.8 1.5-.5 2.3-1.5 2.4-3 .1-.8.2-1.6.2-2.4v-26.1c0-.6 0-1.3-.1-1.9-.2-1.9-1-3.3-3.1-3.6-.5-.1-1-.4-1.5-.6v-.5c.7-.1 1.4-.3 2-.3h22.8c1.1 0 1.6.4 1.5 1.5-.1 1.5-.2 3.1-.4 4.6-.1.5-.3 1-.5 1.5h-.5c-.1-.7-.4-1.3-.4-2-.1-1.8-1.1-2.9-2.8-3-3.8-.2-7.6-.3-11.4-.3-.5 0-1.4 1-1.4 1.5-.1 4.4-.1 8.9 0 13.3 0 .4.7 1.1 1.1 1.1 2.8.1 5.7.1 8.5 0 1.7-.1 2.9-1 3.4-2.7.2-.5.4-1 1.1-1.5.1.4.4.8.4 1.3v9c0 .4-.3.8-.5 1.2-.3-.4-.7-.7-.8-1.1-1-3.4-1.5-3.7-5-3.7h-6.6c-1.3 0-1.7.5-1.7 1.8.1 4.2 0 8.3 0 12.5 0 2.1.6 2.7 2.6 2.9 4.8.3 9.6-.1 13.9-2.6 1.6-1.1 2.7-2.3 4.2-3.5zM6.1 153.9h12.3c0 .2.1.3.1.5-.5.2-1.1.5-1.6.7-1.2.4-2.1 1.2-2.1 2.4 0 7.9-.3 15.8.3 23.7.4 6.2 4.7 9.8 10.9 10.5 1.8.2 3.6.2 5.3-.1 6.2-.9 9.9-4.9 10.1-11.3.2-7 .1-14.1.1-21.1 0-2.2-1-3.2-3.1-3.8-.8-.2-1.5-.5-2.2-.8 0-.2.1-.4.1-.6h11.1c-.4.5-.5.8-.8.9-2.5 1.1-2.9 3.2-2.9 5.6v18c0 1.7-.1 3.4-.5 5-1.5 6.4-5.9 10.1-12.8 10.6-2.9.2-5.9 0-8.8-.6-6.6-1.3-10.7-5.9-11-12.6-.3-7-.2-14-.3-20.9 0-3.5 0-3.5-3.3-4.8-.4-.1-.7-.4-1.1-.6.1-.4.2-.5.2-.7zM409.7 1.6c5.6 0 10.3 4.6 10.3 10.1.1 5.6-4.7 10.5-10.2 10.5-5.6 0-10.2-4.6-10.3-10.4 0-5.5 4.6-10.1 10.2-10.2zM353 182c.2.4.6.8.7 1.3 2.4 9 13.1 11.1 19.2 7.1 2.7-1.8 3.9-4.4 3.7-7.6-.2-3.1-2.3-4.7-4.9-5.7-2.8-1-5.6-1.8-8.4-2.7-1.6-.5-3.2-1.1-4.6-1.9-3.6-1.9-5.3-5-5.2-9.1.1-4 2-7 5.6-8.7 4.8-2.4 9.8-2 14.8-.3 1 .3 2 .5 3.4.8.3 2.5.6 5.4.9 8.4-.2.1-.4.1-.7.2-.4-.6-.9-1.2-1.1-1.9-2.4-7-10.7-8.5-16-6-2.6 1.2-3.9 3.3-4 6.2-.1 2.8 1.4 4.6 3.8 5.7 2.7 1.1 5.5 1.9 8.3 2.9 1.7.6 3.4 1.2 5 2 7.9 3.9 7.2 14.3 1.2 18.5-5.1 3.6-14.6 4.1-20 .8-.5-.3-1-.8-1.1-1.2-.5-2.5-.9-5-1.3-7.5-.1-.3.1-.7.1-1 .2-.2.4-.3.6-.3zm-154.7 5.4c.6-1.3.9-2 1.2-2.7 3.2-7.9 6.5-15.9 9.7-23.8.3-.7.6-1.5.7-2.3.4-2.1-.1-2.8-2.1-3.4-.5-.2-1-.5-1.3-1.1h9.4c.1.1.1.3.2.4-3 1.3-3.5 4.2-4.6 6.8l-13.2 31.2c-.2.5-.4 1.2-.8 1.5-.3.2-1 .2-1.4 0-.3-.2-.4-.8-.6-1.2-4.7-11.3-9.5-22.6-14.1-34-.8-1.8-1.9-3.1-3.8-3.6-.3-.1-.6-.5-.8-.7.3-.2.6-.6.9-.6h9.5c.1 0 .3.2.4.3-.1.2-.1.4-.2.5-2.3 2.2-2.4 2.6-1.2 5.4 3.6 8.4 7.1 16.7 10.7 25.1.3.6.8 1.1 1.4 2.2zm245.8-25.5c-.1-.3-.3-.7-.3-1 .2-2 .4-4 .7-6 .2-1.2 1.1-1.1 2-1.1 5.7.1 11.3.2 17 .2 4.7 0 9.3-.1 14-.3 1.6-.1 2.3.5 2.3 2.2-.1 1.3.1 2.5.1 3.8 0 .4-.3.8-.5 1.2-.3-.3-.7-.6-.8-.9-.9-3.1-1.3-3.4-4.5-3.5H466c-1.3 0-1.8.5-1.8 1.8v29.8c0 2.5.6 3.3 3.1 4.1.5.2.9.7 1.3 1.1-.5.1-1 .4-1.5.4h-10.4c-.4 0-.8-.3-1.2-.5.3-.3.6-.9 1-1 2.9-.7 3.5-2.5 3.5-5.3-.1-9.2 0-18.5 0-27.7 0-2.6-.1-2.7-2.7-2.7h-7.1c-3.1.1-3.6.5-4.6 3.4l-.9 2.1c-.3-.1-.4-.1-.6-.1zm77.1 9.5c.6-.7 1.1-1.3 1.4-1.9 2.1-3.3 4.1-6.7 6.2-10 1.3-2.2.7-3.7-1.7-4.4-.6-.2-1.2-.5-1.7-.7 0-.2.1-.3.1-.5h10.3c-5.8 5.4-8.5 12.9-13.2 18.9-.4.5-.6 1.4-.6 2.1-.1 4.2 0 8.3 0 12.5 0 2.8.7 3.7 3.2 4.6.5.2 1 .5 1.5.8 0 .2-.1.3-.1.5h-13.1c-.1-.2-.1-.3-.2-.5.6-.3 1.2-.6 1.8-.8 1.6-.5 2.5-1.5 2.5-3.3v-13.3c0-1-.4-2.1-.9-2.9-3.1-5.1-6.3-10.2-9.6-15.2-.6-.9-1.7-1.4-2.6-2.1-.5-.3-1.1-.4-1.8-.7.7-.7 10.8-1 12.2-.4-.6.4-1 .7-1.5 1-1.3.7-1.6 1.8-.8 3 2.4 3.9 4.8 7.7 7.2 11.6.4.6.8 1.1 1.4 1.7zm-368.7 22.1c-.6.1-1.3.2-1.9.2h-10.2c-.5 0-1.1-.4-1.6-.6.4-.4.8-.8 1.3-1 2.3-.9 3-1.8 3-4.8v-23.2-5c0-2.6-.5-3.2-2.9-4l-1.5-.6c0-.1.1-.3.1-.4h12.5c0 .1.1.3.1.4-.5.2-.9.5-1.4.6-2 .7-2.6 1.5-2.6 3.7V188.2c0 2.4.6 3.1 2.9 3.9.8.3 1.5.6 2.3.8-.1.1-.1.3-.1.6zm266.8 0c-.5.1-1.1.2-1.6.2h-10.5c-.5 0-1-.4-1.4-.6.3-.3.6-.8 1-.9 2.7-1 3.4-1.9 3.4-4.9v-20.2-7.4c0-2.9-.6-3.7-3.4-4.6-.5-.2-.9-.4-1.3-1h12.8c0 .1.1.2.1.4-.5.2-.9.5-1.4.6-1.9.5-2.6 1.8-2.6 3.6v28.9c0 3.4.3 3.7 3.5 4.8.5.2 1 .5 1.4.7.1 0 0 .2 0 .4z"/></svg>