<?xml version="1.0" encoding="utf-8"?>
<!-- Generator: Adobe Illustrator 22.1.0, SVG Export Plug-In . SVG Version: 6.00 Build 0)  -->
<svg version="1.1" id="Layer_1" xmlns="http://www.w3.org/2000/svg" xmlns:xlink="http://www.w3.org/1999/xlink" x="0px" y="0px"
	 viewBox="0 0 800 400" style="enable-background:new 0 0 800 400;" xml:space="preserve">
<style type="text/css">
	.st0{display:none;}
	.st1{display:inline;fill:#1A1A1A;}
	.st2{display:inline;fill:#FF0000;}
	.st3{fill:#FFFFFF;}
	.st4{fill:#231F20;}
</style>
<g id="Layer_1_1_" class="st0">
	<path class="st1" d="M350.4,145l-25.6,111.7h15.5l6.7-30.8h23.6l6.6,30.8h15.7L368.8,145H350.4L350.4,145z M348.9,213.4l5.4-26.7
		c1.5-7.1,3.2-17.4,4.4-25.5h0.7c1.2,8,2.7,17.9,4.2,25.5l5.2,26.7H348.9L348.9,213.4z M452,142h-15.8v41.9h-0.3
		c-2.9-6.1-8.1-9.1-14.6-9.1c-13,0-25.3,13.4-25.3,41.9c0,25,9.3,41.3,24.4,41.3c8.2,0,14.5-5.5,17.2-11.1h0.5l1,9.8h13.6
		c-0.3-5.6-0.7-14.6-0.7-20.7L452,142L452,142z M436.2,228.3c0,1.8-0.2,3.8-0.5,5.1c-2.7,9.6-7.4,11.4-10.9,11.4
		c-8.4,0-12.8-11.6-12.8-28.2c0-14.9,3.4-28.5,13.3-28.5c5.7,0,9.9,6.3,10.8,13.6c0.2,1.7,0.2,3.5,0.2,5L436.2,228.3L436.2,228.3z
		 M490.5,174.8c-15,0-29,12.4-29,41.8c0,27.7,11.8,41.4,28.1,41.4h0.2c12.5,0,28.5-9.8,28.5-41.8
		C518.3,189.1,506.7,174.8,490.5,174.8L490.5,174.8z M490.2,245.7H490c-10.3,0-12.6-15.9-12.6-29.3c0-12.1,2-29.3,12.5-29.3
		c10.1,0,12.3,17.2,12.3,29.3C502.1,228.7,500,245.7,490.2,245.7L490.2,245.7z M561.2,174.8c-7.2,0-13,3.1-17.2,10.4h-0.3V142h-15.8
		v94c0,6.1-0.3,15.2-0.7,20.7h13.6l0.8-10.1h0.7c3.5,7.1,8.1,11.4,16.2,11.4c13.5,0,25.4-14.1,25.4-42.9
		C583.9,190.4,575.2,174.8,561.2,174.8L561.2,174.8z M555,244.9c-3.2,0-8.1-2-10.6-11.8c-0.5-1.3-0.7-3.1-0.7-5v-22.5
		c0-1.7,0.2-3.8,0.5-5.5c1.2-5.8,5.4-11.9,10.6-11.9c9.4,0,13.1,12.4,13.1,27.8C567.9,232.6,564.4,244.9,555,244.9L555,244.9z
		 M646,211.1c0-20.2-7.9-36.3-24.9-36.3s-29.3,16.2-29.3,42.6c0,24.9,10.8,40.1,31.3,40.1c7.2,0,14.6-1.3,19.5-3.8l-2.4-11.3
		c-3.5,1.7-8.4,3-14.1,3c-9.6,0-18.7-5.1-18.9-25.9l38.4,0.2C645.8,217.6,646,215.1,646,211.1L646,211.1z M607.4,208.5
		c0.5-10.1,4.2-21.9,12.5-21.9c6.2,0,11.3,7.6,11.1,21.9H607.4z"/>
	<path class="st2" d="M198.3,234.3l20.7-47.9l30.1,70.3h-19.7l-9-22.4L198.3,234.3L198.3,234.3z M155,145.3h47.3L155,256.7V145.3z
		 M282.9,256.7l-47.3-111.4h47.3V256.7z"/>
</g>
<g id="Layer_2_1_">
	<g>
		<path class="st3" d="M628.6,233c0,12-8.8,23.8-19.5,26.4l-190.6,46c-10.7,2.6-28.3,2.6-39.1,0l-190.6-46
			c-10.7-2.6-19.5-14.5-19.5-26.4v-67.5c0-12,8.8-23.8,19.5-26.4l190.6-46c10.7-2.6,28.3-2.6,39.1,0l190.6,46
			c10.7,2.6,19.5,14.5,19.5,26.4V233z"/>
		<path class="st3" d="M398.9,314.1c-7.9,0-15.4-0.8-21.1-2.1l-190.6-46c-13.8-3.3-24.6-17.8-24.6-32.9v-67.5
			c0-15.1,10.8-29.5,24.6-32.9l190.6-46c5.7-1.4,13.2-2.1,21.1-2.1s15.4,0.8,21.1,2.1l190.6,46c13.8,3.3,24.6,17.8,24.6,32.9V233
			c0,15.1-10.8,29.5-24.6,32.9l-190.6,46C414.3,313.3,406.8,314.1,398.9,314.1z M398.9,97.7c-6.8,0-13.3,0.6-18,1.8l-190.6,46
			c-7.7,1.9-14.5,11.2-14.5,20V233c0,8.8,6.8,18.1,14.5,20l190.6,46c4.6,1.1,11.2,1.8,18,1.8s13.4-0.6,18-1.8l190.6-46
			c7.7-1.9,14.5-11.2,14.5-20v-67.5c0-8.8-6.8-18.1-14.5-20l-190.6-46C412.2,98.4,405.6,97.7,398.9,97.7z"/>
	</g>
	<g>
		<path class="st3" d="M628.6,233c0,12-8.8,23.8-19.5,26.4l-190.6,46c-10.7,2.6-28.3,2.6-39.1,0l-190.6-46
			c-10.7-2.6-19.5-14.5-19.5-26.4v-67.5c0-12,8.8-23.8,19.5-26.4l190.6-46c10.7-2.6,28.3-2.6,39.1,0l190.6,46
			c10.7,2.6,19.5,14.5,19.5,26.4V233z"/>
		<path d="M398.9,312.7c-7.8,0-15.2-0.7-20.8-2.1l-190.6-46c-13.2-3.2-23.6-17.1-23.6-31.6v-67.5c0-14.5,10.4-28.4,23.6-31.6
			l190.6-46c5.6-1.4,13-2.1,20.8-2.1s15.2,0.7,20.8,2.1l190.6,46c13.2,3.2,23.6,17.1,23.6,31.6V233c0,14.5-10.4,28.4-23.6,31.6
			l-190.6,46C414,312,406.7,312.7,398.9,312.7z M398.9,96.4c-6.9,0-13.6,0.7-18.3,1.8l-190.6,46c-8.4,2-15.5,11.8-15.5,21.3V233
			c0,9.5,7.1,19.3,15.5,21.3l190.6,46c4.7,1.1,11.4,1.8,18.3,1.8s13.6-0.7,18.3-1.8l190.6-46c8.4-2,15.5-11.8,15.5-21.3v-67.5
			c0-9.5-7.1-19.3-15.5-21.3l-190.6-46C412.4,97.1,405.8,96.4,398.9,96.4z"/>
	</g>
	<g>
		<path class="st4" d="M302.4,250.8h5.9c3.7,0,6.4,2.5,6.4,6c0,3.4-2.8,6-6.4,6h-5.9v-2h1.3v-8.1h-1.3V250.8z M305.9,252.7v8.1h2.4
			c2.3,0,4.1-1.7,4.1-4c0-2.4-1.7-4.1-4.1-4.1H305.9z"/>
		<path class="st4" d="M328.9,254.1v-1.3H325v3.4h2.9v1.9H325v2.9h3.9v-1.3h1.8v3.3h-9.2v-2h1.3v-8.1h-1.3v-2h9.2v3.3L328.9,254.1
			L328.9,254.1z"/>
		<path class="st4" d="M338.1,262.8v-2h1.3v-8.1h-1.3v-2h5.3v2h-1.8v8.1h3.9v-1.3h1.8v3.3H338.1z"/>
		<path class="st4" d="M354,250.8h4.8v2h-1.3v8.1h1.3v2H354v-2h1.3v-8.1H354V250.8z"/>
		<path class="st4" d="M376.4,262c0,0-1.5,1-4,1c-3.9,0-6.8-2.5-6.8-6.2c0-3.5,2.7-6.2,5.9-6.2c2.9,0,3.4,1.2,3.5,1.5l-0.1-1.2h1.9
			v4.1h-1.9c-0.1-1.4-1.4-2.3-3-2.3c-2.5,0-4,1.8-4,4.3c0,2.4,2,4.2,4.2,4.2c2.4,0,3.7-0.8,3.7-0.8L376.4,262z"/>
		<path class="st4" d="M385.8,250.8h3.9l4.5,10.1h1.3v2H391v-2h0.9l-0.5-1.2h-4.5l-0.5,1.2h1v2h-4.5v-2h1.3l3.7-8.1h-2.1V250.8z
			 M387.6,257.9h3.1l-1.5-3.6L387.6,257.9z"/>
		<path class="st4" d="M403,260.9h1.3v-8.1h-2.2v1.3h-1.8v-3.3h10.1v3.3h-1.8v-1.3h-2.1v8.1h1.3v2H403V260.9z"/>
		<path class="st4" d="M424.4,254.1v-1.3h-3.9v3.4h2.9v1.9h-2.9v2.9h3.9v-1.3h1.8v3.3H417v-2h1.3v-8.1H417v-2h9.2v3.3L424.4,254.1
			L424.4,254.1z"/>
		<path class="st4" d="M435.3,259.1v0.2c0,1.4,1.2,1.8,2.3,1.8c1.4,0,2-0.7,2-1.5s-0.4-1.3-2.6-2.1c-2.3-0.9-3.2-2.1-3.2-3.6
			c0-1.7,1.3-3.3,3.7-3.3c1.6,0,2.1,0.9,2.1,1l-0.2-0.8h1.9v3.5h-1.9v-0.6c-0.1-1-0.9-1.3-1.9-1.3c-1.2,0-1.7,0.6-1.7,1.4
			s0.7,1.4,2.4,2c2.7,1.1,3.5,2.1,3.5,3.7c0,2.1-1.6,3.5-3.7,3.5c-2.3,0-2.9-1.2-2.9-1.2l0.2,1h-1.9V259L435.3,259.1L435.3,259.1z"
			/>
		<path class="st4" d="M450.8,259.1v0.2c0,1.4,1.2,1.8,2.3,1.8c1.4,0,2-0.7,2-1.5s-0.4-1.3-2.6-2.1c-2.4-0.9-3.2-2.1-3.2-3.6
			c0-1.7,1.3-3.3,3.7-3.3c1.6,0,2.1,0.9,2.1,1l-0.2-0.8h1.9v3.5H455v-0.6c-0.1-1-0.9-1.3-1.8-1.3c-1.2,0-1.7,0.6-1.7,1.4
			s0.7,1.4,2.3,2c2.7,1.1,3.5,2.1,3.5,3.7c0,2.1-1.6,3.5-3.7,3.5c-2.3,0-2.9-1.2-2.9-1.2l0.2,1H449V259L450.8,259.1L450.8,259.1z"/>
		<path class="st4" d="M471.9,254.1v-1.3H468v3.4h2.9v1.9H468v2.9h3.9v-1.3h1.8v3.3h-9.1v-2h1.3v-8.1h-1.3v-2h9.1v3.3L471.9,254.1
			L471.9,254.1z"/>
		<path class="st4" d="M489.2,250.8h4.8v2h-1.3v10.1H491l-6.5-7.9v5.9h1.3v2H481v-2h1.3v-8.1H481v-2h2.6l6.9,8v-6.1h-1.3V250.8z"/>
	</g>
	<g>
		<path class="st4" d="M365.3,136.8v-1.5H361v3.7h3.2v2.1H361v3.2h4.3v-1.5h2v3.6h-10v-2.1h1.4v-8.9h-1.4v-2.1h10v3.6h-2V136.8z"/>
		<path class="st4" d="M371.3,142.3v0.2c0,1.5,1.4,1.9,2.6,1.9c1.5,0,2.2-0.8,2.2-1.6c0-0.9-0.5-1.4-2.9-2.3c-2.6-1-3.5-2.3-3.5-3.9
			c0-1.9,1.5-3.7,4.1-3.7c1.7,0,2.3,1,2.3,1.1l-0.2-0.8h2.1v3.9h-2.1v-0.6c-0.1-1.1-1-1.4-2-1.4c-1.3,0-1.8,0.7-1.8,1.5
			c0,0.9,0.7,1.5,2.6,2.2c3,1.1,3.8,2.3,3.8,4c0,2.4-1.8,3.8-4.1,3.8c-2.6,0-3.2-1.3-3.2-1.3l0.2,1.1h-2.1v-4.1L371.3,142.3
			L371.3,142.3z"/>
		<path class="st4" d="M382.6,144.3h1.4v-8.9h-2.4v1.5h-2v-3.6h11.1v3.6h-2v-1.5h-2.4v8.9h1.4v2.1h-5.2v-2.1H382.6z"/>
		<path class="st4" d="M392.9,146.7c-0.8,0-1.4-0.6-1.4-1.4c0-0.8,0.6-1.4,1.4-1.4s1.4,0.6,1.4,1.4
			C394.3,146.1,393.7,146.7,392.9,146.7z"/>
		<path class="st4" d="M402.4,144.3h2.6v-8.1l-2.8,1.1l-0.8-2l5.3-2.1h0.6v11.1h2.3v2.1h-7.2V144.3z"/>
		<path class="st4" d="M412,145c2.8-1.3,4.7-3,5.2-4.5c-0.4,0.5-1.3,1.3-2.6,1.3c-2.5,0-4.1-1.5-4.1-4.3c0-2.5,1.7-4.5,4.8-4.5
			c2.8,0,4.7,2,4.7,5c0,4.5-2.8,6.7-6.8,9L412,145z M415.3,135.1c-1.2,0-2.3,0.8-2.3,2.4c0,1.6,1,2.4,2.3,2.4s2.2-0.8,2.2-2.4
			C417.5,135.9,416.5,135.1,415.3,135.1z"/>
		<path class="st4" d="M422.9,145c2.8-1.3,4.7-3,5.2-4.5c-0.4,0.5-1.3,1.3-2.6,1.3c-2.5,0-4.1-1.5-4.1-4.3c0-2.5,1.7-4.5,4.8-4.5
			c2.8,0,4.7,2,4.7,5c0,4.5-2.8,6.7-6.8,9L422.9,145z M426.2,135.1c-1.2,0-2.3,0.8-2.3,2.4c0,1.6,1,2.4,2.3,2.4s2.2-0.8,2.2-2.4
			C428.5,135.9,427.5,135.1,426.2,135.1z"/>
		<path class="st4" d="M438.9,133c3.9,0,6.3,2.9,6.3,6.8c0,3.9-2.2,6.8-6.3,6.8s-6.4-2.9-6.4-6.8C432.5,136,435.1,133,438.9,133z
			 M438.9,144.6c2.4,0,3.8-2.1,3.8-4.8s-1.4-4.8-3.8-4.8s-3.9,2.1-3.9,4.8S436.6,144.6,438.9,144.6z"/>
	</g>
	<g>
		<path d="M259.9,174.2c-4.6-5.4-10.4-8.5-16-8.5h-5.7v62.4h14.1v-41.6c2.4,3.7,7.6,13.3,7.6,28.3v13.4H274v-62.4h-14.1V174.2z"/>
		<path d="M435.6,215.6c0,10.9,8.5,12.6,13.5,12.6h15.5v-12.7h-15v-13.6H463v-12.3h-13.4v-11.2h15v-12.7h-29.1v49.9H435.6z"/>
		<path d="M499.8,215.3c0-0.4,0-0.8,0-1.1v-48.5h-14.1v48.5c0,3.1,0,6.4,3.3,9.9c3,3.5,7.9,3.9,11.9,3.9h12.8v-12.7h-12.8
			C500.4,215.3,500.1,215.3,499.8,215.3z"/>
		<path d="M399.7,180.8c0,1.3,0,3-2,5c-0.4,0.4-0.8,0.7-1.3,1.1v-21.2h-14.2v62.4h14.2v-23.3c0.5,0.4,0.9,0.7,1.3,1
			c2.1,2,2.1,3.7,2.1,5v16.9v0.4h14.1l0.1-5.5v-13.1c0-4.9-2.9-10.2-7.5-13.7c4.6-3.5,7.5-8.9,7.5-13.7v-16.3h-14.3L399.7,180.8
			L399.7,180.8z"/>
		<rect x="296.3" y="165.7" width="14.1" height="62.4"/>
		<path d="M347.2,165.3c-7.5,0-15.2,5.1-15.2,14.8V214c0,9.7,7.6,14.8,15.2,14.8c7.5,0,15.2-5.1,15.2-14.8v-3.3h-13.8v3.3
			c0,1.5-0.3,1.5-1.3,1.5c-1.1,0-1.3,0-1.3-1.5v-33.9c0-1.5,0.3-1.5,1.3-1.5s1.3,0,1.3,1.5v3.3h13.8v-3.3
			C362.4,170.4,354.7,165.3,347.2,165.3z"/>
		<path d="M558.5,202.2c-2.2-5.7-6.1-8.4-9.6-10.7c-2.8-1.9-4.9-3.4-5.9-6.2c-0.3-0.9-0.3-2.4-0.3-4.1v-0.9c0-1.5,0.3-1.5,1.3-1.5
			c1.1,0,1.3,0,1.3,1.5v3.3h13.8v-3.3c0-9.7-7.6-14.8-15.2-14.8c-7.5,0-15.2,5.1-15.2,14.8c0,4.7,0.2,7.8,1.3,10.5
			c2.1,5.3,5.9,7.7,9.2,9.8c3,1.9,5.3,3.4,6.4,6.8c0.3,1.1,0.3,2.6,0.3,4.6v1.2c0,1.4-0.8,1.5-1.8,1.5c-0.9,0-1.8-0.1-1.8-1.5v-3.3
			h-13.8v3.3c0,9.6,8,14.8,15.6,14.8c7.3,0,15.2-4.5,15.2-14.5v-2.1C559.5,207.8,559.5,204.9,558.5,202.2z"/>
	</g>
</g>
</svg>
