<svg enable-background="new 0 0 470.4 230.8" viewBox="0 0 470.4 230.8" xmlns="http://www.w3.org/2000/svg"><g fill="#b3b3b3"><path d="m235.2 228.2c-7.8 0-15.1-.7-20.7-2.1l-189.6-45.8c-13.1-3.2-23.5-17-23.5-31.4v-67.2c0-14.4 10.3-28.3 23.5-31.4l189.6-45.8c5.6-1.4 12.9-2.1 20.7-2.1s15.1.7 20.7 2.1l189.6 45.8c13.1 3.2 23.5 17 23.5 31.4v67.1c0 14.4-10.3 28.3-23.5 31.4l-189.6 45.8c-5.7 1.5-12.9 2.2-20.7 2.2zm0-215.2c-6.9 0-13.5.7-18.2 1.8l-189.6 45.7c-8.4 2-15.4 11.8-15.4 21.2v67.1c0 9.5 7.1 19.2 15.4 21.2l189.6 45.8c4.7 1.1 11.3 1.8 18.2 1.8s13.5-.7 18.2-1.8l189.6-45.7c8.4-2 15.4-11.7 15.4-21.2v-67.2c0-9.5-7.1-19.2-15.4-21.2l-189.6-45.7c-4.8-1.1-11.3-1.8-18.2-1.8z"/><path d="m139.2 166.6h5.9c3.7 0 6.4 2.5 6.4 6 0 3.4-2.8 6-6.4 6h-5.9v-2h1.3v-8.1h-1.3zm3.5 1.9v8.1h2.4c2.3 0 4.1-1.7 4.1-4 0-2.4-1.7-4.1-4.1-4.1z"/><path d="m165.6 169.9v-1.3h-3.9v3.4h2.9v1.9h-2.9v2.9h3.9v-1.3h1.8v3.3h-9.2v-2h1.3v-8.1h-1.3v-2h9.2v3.3z"/><path d="m174.7 178.5v-2h1.3v-8.1h-1.3v-2h5.3v2h-1.8v8.1h3.9v-1.3h1.8v3.3z"/><path d="m190.5 166.6h4.8v2h-1.3v8.1h1.3v2h-4.8v-2h1.3v-8.1h-1.3z"/><path d="m212.8 177.7s-1.5 1-4 1c-3.9 0-6.8-2.5-6.8-6.2 0-3.5 2.7-6.2 5.9-6.2 2.9 0 3.4 1.2 3.5 1.5l-.1-1.2h1.9v4.1h-1.9c-.1-1.4-1.4-2.3-3-2.3-2.5 0-4 1.8-4 4.3 0 2.4 2 4.2 4.2 4.2 2.4 0 3.7-.8 3.7-.8z"/><path d="m222.2 166.6h3.9l4.5 10h1.3v2h-4.5v-2h.9l-.5-1.2h-4.5l-.5 1.2h1v2h-4.5v-2h1.3l3.7-8.1h-2.1zm1.8 7h3.1l-1.5-3.6z"/><path d="m239.3 176.6h1.3v-8.1h-2.2v1.3h-1.8v-3.3h10v3.3h-1.8v-1.3h-2.1v8.1h1.3v2h-4.8v-2z"/><path d="m260.6 169.9v-1.3h-3.9v3.4h2.9v1.9h-2.9v2.9h3.9v-1.3h1.8v3.3h-9.2v-2h1.3v-8.1h-1.3v-2h9.2v3.3z"/><path d="m271.4 174.8v.2c0 1.4 1.2 1.8 2.3 1.8 1.4 0 2-.7 2-1.5s-.4-1.3-2.6-2.1c-2.3-.9-3.2-2.1-3.2-3.6 0-1.7 1.3-3.3 3.7-3.3 1.6 0 2.1.9 2.1 1l-.2-.8h1.9v3.5h-1.9v-.6c-.1-1-.9-1.3-1.9-1.3-1.2 0-1.7.6-1.7 1.4s.7 1.4 2.4 2c2.7 1.1 3.5 2.1 3.5 3.7 0 2.1-1.6 3.5-3.7 3.5-2.3 0-2.9-1.2-2.9-1.2l.2 1h-1.9v-3.8z"/><path d="m286.8 174.8v.2c0 1.4 1.2 1.8 2.3 1.8 1.4 0 2-.7 2-1.5s-.4-1.3-2.6-2.1c-2.4-.9-3.2-2.1-3.2-3.6 0-1.7 1.3-3.3 3.7-3.3 1.6 0 2.1.9 2.1 1l-.2-.8h1.9v3.5h-1.8v-.6c-.1-1-.9-1.3-1.8-1.3-1.2 0-1.7.6-1.7 1.4s.7 1.4 2.3 2c2.7 1.1 3.5 2.1 3.5 3.7 0 2.1-1.6 3.5-3.7 3.5-2.3 0-2.9-1.2-2.9-1.2l.2 1h-1.9v-3.8z"/><path d="m307.8 169.9v-1.3h-3.9v3.4h2.9v1.9h-2.9v2.9h3.9v-1.3h1.8v3.3h-9.1v-2h1.3v-8.1h-1.3v-2h9.1v3.3z"/><path d="m325 166.6h4.8v2h-1.3v10h-1.7l-6.5-7.9v5.9h1.3v2h-4.8v-2h1.3v-8.1h-1.3v-2h2.6l6.9 8v-6.1h-1.3z"/><path d="m201.8 53.2v-1.5h-4.3v3.7h3.2v2.1h-3.2v3.2h4.3v-1.5h2v3.6h-9.9v-2.1h1.4v-8.9h-1.4v-2.1h9.9v3.6z"/><path d="m207.7 58.6v.2c0 1.5 1.4 1.9 2.6 1.9 1.5 0 2.2-.8 2.2-1.6 0-.9-.5-1.4-2.9-2.3-2.6-1-3.5-2.3-3.5-3.9 0-1.9 1.5-3.7 4.1-3.7 1.7 0 2.3 1 2.3 1.1l-.2-.8h2.1v3.9h-2.1v-.6c-.1-1.1-1-1.4-2-1.4-1.3 0-1.8.7-1.8 1.5 0 .9.7 1.5 2.6 2.2 3 1.1 3.8 2.3 3.8 4 0 2.4-1.8 3.8-4.1 3.8-2.6 0-3.2-1.3-3.2-1.3l.2 1.1h-2.1v-4.1z"/><path d="m219 60.6h1.4v-8.9h-2.4v1.5h-2v-3.6h11v3.6h-2v-1.5h-2.4v8.9h1.4v2.1h-5.2z"/><path d="m229.2 63c-.8 0-1.4-.6-1.4-1.4s.6-1.4 1.4-1.4 1.4.6 1.4 1.4-.6 1.4-1.4 1.4z"/><path d="m238.7 60.6h2.6v-8.1l-2.8 1.1-.8-2 5.3-2.1h.6v11h2.3v2.1h-7.2z"/><path d="m248.2 61.3c2.8-1.3 4.7-3 5.2-4.5-.4.5-1.3 1.3-2.6 1.3-2.5 0-4.1-1.5-4.1-4.3 0-2.5 1.7-4.5 4.8-4.5 2.8 0 4.7 2 4.7 5 0 4.5-2.8 6.7-6.8 9zm3.3-9.8c-1.2 0-2.3.8-2.3 2.4s1 2.4 2.3 2.4 2.2-.8 2.2-2.4-1-2.4-2.2-2.4z"/><path d="m259.1 61.3c2.8-1.3 4.7-3 5.2-4.5-.4.5-1.3 1.3-2.6 1.3-2.5 0-4.1-1.5-4.1-4.3 0-2.5 1.7-4.5 4.8-4.5 2.8 0 4.7 2 4.7 5 0 4.5-2.8 6.7-6.8 9zm3.3-9.8c-1.2 0-2.3.8-2.3 2.4s1 2.4 2.3 2.4 2.2-.8 2.2-2.4-.9-2.4-2.2-2.4z"/><path d="m275 49.4c3.9 0 6.3 2.9 6.3 6.8s-2.2 6.8-6.3 6.8-6.4-2.9-6.4-6.8c0-3.8 2.6-6.8 6.4-6.8zm0 11.5c2.4 0 3.8-2.1 3.8-4.8s-1.4-4.8-3.8-4.8-3.9 2.1-3.9 4.8 1.6 4.8 3.9 4.8z"/><path d="m96.9 90.4c-4.5-5.4-10.3-8.5-15.9-8.5h-5.7v62.1h14v-41.4c2.4 3.7 7.6 13.2 7.6 28.2v13.3h14v-62.1h-14z"/><path d="m271.7 131.6c0 10.8 8.5 12.5 13.4 12.5h15.4v-12.6h-14.9v-13.5h13.4v-12.2h-13.3v-11.2h14.9v-12.7h-28.9z"/><path d="m335.6 131.3c0-.4 0-.8 0-1.1v-48.3h-14v48.2c0 3.1 0 6.4 3.3 9.8 3 3.5 7.9 3.9 11.8 3.9h12.7v-12.6h-12.7c-.5.1-.8.1-1.1.1z"/><path d="m236 96.9c0 1.3 0 3-2 5-.4.4-.8.7-1.3 1.1v-21.1h-14.1v62.1h14.1v-23.2c.5.4.9.7 1.3 1 2.1 2 2.1 3.7 2.1 5v16.8.4h14l.1-5.5v-13c0-4.9-2.9-10.1-7.5-13.6 4.6-3.5 7.5-8.9 7.5-13.6v-16.3h-14.2z"/><path d="m133.1 81.9h14v62.1h-14z"/><path d="m183.8 81.5c-7.5 0-15.1 5.1-15.1 14.7v33.8c0 9.6 7.6 14.7 15.1 14.7s15.1-5.1 15.1-14.7v-3.3h-13.7v3.3c0 1.5-.3 1.5-1.3 1.5-1.1 0-1.3 0-1.3-1.5v-33.7c0-1.5.3-1.5 1.3-1.5s1.3 0 1.3 1.5v3.3h13.7v-3.3c0-9.7-7.7-14.8-15.1-14.8z"/><path d="m394 118.2c-2.2-5.7-6.1-8.4-9.5-10.6-2.8-1.9-4.9-3.4-5.9-6.2-.3-.9-.3-2.4-.3-4.1v-.9c0-1.5.3-1.5 1.3-1.5 1.1 0 1.3 0 1.3 1.5v3.3h13.7v-3.3c0-9.6-7.6-14.7-15.1-14.7s-15.1 5.1-15.1 14.7c0 4.7.2 7.8 1.3 10.4 2.1 5.3 5.9 7.7 9.2 9.7 3 1.9 5.3 3.4 6.4 6.8.3 1.1.3 2.6.3 4.6v1.2c0 1.4-.8 1.5-1.8 1.5-.9 0-1.8-.1-1.8-1.5v-3.3h-13.7v3.3c0 9.5 8 14.7 15.5 14.7 7.3 0 15.1-4.5 15.1-14.4v-2.1c.1-3.5.1-6.4-.9-9.1z"/></g></svg>