<svg enable-background="new 0 0 433.2 190" viewBox="0 0 433.2 190" xmlns="http://www.w3.org/2000/svg"><g fill="#b3b3b3"><path d="m15.1 59.5.3.2v.3l-.5.8v.2c.7 0 1 .8 1 2.4.7 1.7 1.5 3 2.4 3.9v.2l-.3-.2h-.2v.4h.2l.3-.3c3.1 1.8 5.4 2.8 6.9 3v.7h.5v-.5h1.5c1 .1 1.5.3 1.5.7v2c0 .3-.3.5-.8.5l-.3-.2h-.6v.2c.6.1 1 .5 1 1.3l-.8 1.2c.5 0 .8.2.8.5v.5l-.3 1.2-.2-.3h-.3l-.2.1v1c.7 0 1.2.3 1.5.9v1.5c0 .3-.3.5-1 .5l.8 1-.5.5h-1.3c0-.4-.6-1-1.7-2v-.4h-1.5v.2h.7v1.3h-1.9c-.8-1.3-1.4-2-1.7-2l-.3.3v.3c.5 0 .7.5.7 1.5h-.2l-1 .2c-3.3-.4-6.4-1.5-9.5-3.4.3-1.1.7-1.7 1.3-1.7v-.9c-.9.1-1.6.5-2.2 1.2h-1c-3.7-2.6-6.2-6.3-7.6-11.1l-.5-3 .5-.4v-.3l-.2.3h-.1c-.3-.7-.5-1.8-.5-3.2l.5-.5h.3l.2.3.3-.3h.8l1.5.3 1.4-.4h3.4v.8h.3c.1-.7.3-1 .7-1h4.4zm-14.3 2.2v1.7h.3c0-.3.3-.5.8-.5v-.2l-.5-1zm27.4-49.5.3.3v11.9c0 .4-2 .7-5.9 1 .2-.6.7-1 1.7-1.2l1 .3h.5v-.5h-2.7v.5h-1.7l.3 1.2c-2.5 1.7-3.7 3.1-3.7 4.2l-.1 1.1v1.5c0 3.3 4.2 5.7 12.4 7.1l.2.2-.2.3v.5l1-.8c8.4 1.8 14.4 3.7 18 5.6l4.4 3.7v.2h-.8v-.4c-.6 0-1-.3-1-1h-1l1.7 1.5.3 1.5h-.5v.5h.3l.8-.3-.8 1.7h2.2c0 .5.2.8.7.8 0 .5.3 1.1 1 1.9.8.3 1.2 1 1.2 2.2l-.8.4h-2.4c0 .3-.4.6-1.2 1h-1.7v.5c.8 0 1.3.2 1.7.5 0-.3.3-.5 1-.5l.8-.8c.2.8.4 1.3.7 1.3l.3-.3.3.3c0-1.1.5-1.7 1.5-1.7l.3.2v1.7l-.3.3c0 .3-.5.5-1.5.5 0 .8-.2 1.2-.5 1.2-.6 0-1 .4-1 1.2h-2v.3l.3 1.2h.3v-.4l-.3-.3 2-.8h1.2v.5h.5l1-.5v-1.5h.5c-.2 2.9-.5 5.3-1 7.1l-.3-.3h-.5v.3h.5c-.2 1.9-.7 2.9-1.5 2.9l-.7-.3v.5l1 .3c-.4 1-1 1.9-1.9 2.9l-.3-.3h-.3c0 1-.5 1.8-1.5 2.4l-.3-.2h-.3l.5-1.7-2.7-2.2h.5v-.2l-.5-.5-1.1.3v-2.8c0-.4.3-.6 1-.8v-.2c0-.4-.7-.6-2-.7l.5.7v1.7h-.3l-.8-.2.5.7v.5l-1 .9-.2-.2-.3.2h-.5l-.3-.2h-.3c0-1.1.5-1.7 1.5-1.7v-.2l-1.5-1h-1.5l.3.3v.3l-.5.5c-1.2 0-1.8-.2-1.9-.7l.3-.3-.5-.5c0-.6.7-.9 2-.9l.2-.3v-.3c-.7 0-1.2-.4-1.5-1.2.7-1.1 1-2.6 1-4.4l1.2.3c.3-.8.7-1.3 1-1.3v-.2l-.5-.5h-.8l-.7.5h-.3l-1.7-2.2v-.3h.3l1.7.3c0-.5.3-.8 1-.8v-.2l.3.2h1l.5-.5v-.5c-.9 0-1.5-.3-2-1h-.7l-.8.5h-3.7l-.7-.5-1 .3c-1.1-.4-1.7-.7-1.7-1v-.3c.4 0 .9-.3 1.5-1-.8-.7-1.9-1.1-3.2-1.2v.3l-1.5-.5-.3.4-2.5-2.9c-.3 1-1 1.5-1.9 1.5 0 .5-.6.9-1.7 1.2v.5h-1c-14.9-2.5-22.2-9.2-22.2-20.2v-1c0-11.2 7.3-17.8 21.9-19.8zm-25 53.6h.7v-.4h-.2zm.5-2.4h1.2v-.5h-.8zm.4 5.8v.3h.5v-.7zm1.7-7.3-.2.3v.5h.8v-.2zm.3-40.5.5.5h.2v-.5zm1 20 .8.8.3-.8-.3-.3zm0 22.5v1h.5v-1zm1.2 5.8.2 1.5h.5v-.3l-.3-1.2zm.5-24.1.5.4h.5v-.4zm.5 18.3.5.4h.7l-.3-.9zm.2-2.9.5.5.5-.5v-.5h-.5zm.5 14.3v.3h1l-.3-.3v-.2zm.5-33.6v.9l.5.5v-1.5zm1.4 26v.5l.5.9h.5v-.4l-.5-1zm.5-45.8v.5c.8 0 1.2.2 1.2.5h.5l-.8-1zm.3 40.5v.4c.6 0 1 .3 1 1h.8v-.5l-.5-.5h-.3l.3-.2v-.7h-.8zm.5-18.3-.2.3v.3h1.2v-.4zm0-26.5.5.5h.3l.5-.5v-.5zm.2 19v.3l2.9.5-1.7-1zm.3 43v.2c1.1 0 1.7.5 1.7 1.5h.5v-.5l.3-.3-.3-.3-2-.7zm1.4-9.9c0 .5-.2.8-.7.8v.4l1.2-1.2zm.3 5.4h.3l.3-.3h.3l.7.7h.3v-.3l-.3-.7h-1zm.2 1.9.5.5h.2l-.5-.5zm1.5-5.4c0 .3.3.5 1 .5l-.2.3v.3l1 .5v-.3l-.8-1.2zm.5 6.7-.3.3v.8l.3-.3h.3l1 .3zm.7-40v.5h.8v-.5zm1.7 5.8-.3.3v.3h1v-.4zm.3 31.4v.7l1 .7h.5v-1h-.3l-.3.2c-.5 0-.7-.2-.7-.7zm1.7 7.2v.2l-.3.3v.3l-.8-.3v-.3zm.2-2.9v1h.5v-.5zm.7-4.5v.3l.5.5h.3l.7-.3v-.3l-1.2-.3zm0 7.9h1v.5h-.3l-.8-.3zm2.8-33.8-2-.5 1 1.5h1c0-.4.3-.6 1-.7v-.5l.7-.4-.3-.8zm1.8 3.4h1.7l.8.7v1.2c-3.1-.6-4.6-1.1-4.6-1.5h2.2zm-1.8 26.5v.9l.5.5.3-.3h.5v.5h.3v-.5zm.4-6.5v.8h.8v-.3l-.5-.5zm.7-26.3v1.2h.3v-1.2zm2.6-5.8v.3l.3 1.2c-.3 0-.7.5-1 1.5h-1.2l.3.9-.3.7c1.6-1.2 2.5-2.4 2.5-3.7v-1zm-.7 10.7h.7l.8.7v.7h-.3l-1.2-.5zm2.5-39.2c7 0 13.2 2 18.7 6.1 2.6 2.7 3.9 4.5 3.9 5.4.8 0 1.9 3.2 3.1 9.5v.7l-8.3 1v-.3l-6.9.7c-.6-3.9-1.8-6.5-3.4-7.8-1.3-1.1-3.9-2-7.6-2.7v-.5l.3-1.5-.3-2.4v-7.8zm6.3 57.2c1 0 2 .4 2.9 1.2 1.6 0 2.4.6 2.4 1.7l.8.3.3-.3.5.7-.3.3v.3c1 .8 1.5 1.4 1.5 1.9h.5c0-.7.7-1.1 2-1.2l.3.2-.3.3v.5l.3.3c-.1.8-.3 1.2-.7 1.2v1c0 .8-.4 1.2-1.3 1.2 0 .4.4.6 1.3.7v-.2l.2-.3h.3v-1.7h.5v-.3l-.3-.3c.1-.8.7-1.2 1.7-1.2.3 1.1.6 1.7 1 1.7v.3c-3.4 2.6-6 3.9-7.8 3.9v-.4l-2.7.4v-.2l.3-.8h-.3l-.7.3v.3l.5.7v.5c0 .7-3 1.2-9 1.5l-.3-.3v-2.9l.3-.3v-.4l1.2.3h.5c.3 0 .5-.4.5-1.2l.7-.8v-.5h-.3l-.3.3h-.2c0-.8-.3-1.8-1-3l.3-.7-1.7-1.4v-1.5c0-.4.4-.6 1.2-.8l1.3.3c0-.6.8-.9 2.4-.9v1.5h-2.4l.7 1.5h.3v-.5h2l-.3-.3v-.3h.5l.7.5.3-.3.3 1.5h.5v-.7l-.2-1.2.2-.3c-.5 0-.8-.4-1-1.2h-.7v-.1zm-6.6 4.9h.5l.3.7-.3.7h-.5zm.8 2 1.2.3v1.9h-1.5l-.5-.5v-1.2c0-.4.3-.5.8-.5zm.7 6.4v.2l1.7.3-.3-.7zm1.4-1.7v1.2l1.2-.5c0-.4-.4-.6-1.2-.7zm.3-35.2h1v-.5h-.5zm.7 4.1-.3.3v.2h.7zm2-2.4-.5.5v.5h.7v-1zm-.2 30c.2.6.5.9.7.9h.5v-.2l-.8-.7zm.7-63.3v.3l.8.2v-.5zm2.2 57.2.3.7.5-.5v-.8h-.3zm.9 2.2v.5h1.2l-.5-.5zm.5-19.8-.3.7h.5l.5-.5-.3-.2zm.7 23v1.2l1.7-.2v-.3c-.8 0-1.2-.2-1.2-.7zm5.9-30.8.5 1.2-1 .5-.3-.3h-.8l-.5.5v.3l.5.7v1l-.5.9h-1.2l-.8-.5v1h-1.7v.3l1.2.5.8-.7h.3l.7.5c.2-.7.7-1 1.5-1v1.2h-.7v.7l1 1 .5-.5v-1.7l.5-.5h.2l.8.3v-1.7h-1.7v-.3l.3-1.2h.3l1.2.3c0-.7.2-1 .5-1-.2-.5-.7-1-1.6-1.5zm-5.1-30.1 1-.8h-.3zm0 48.9v.3c0 .5.6.7 1.7.7 0 .7.2 1 .5 1h.5l.5-.5-2.7-1.5zm1 15.5h1.5v-.5l-.5-.4h-.3zm1-3.8c0 .5-.3.7-.8.7v.3h1l.3-1zm0-13.1.5.5h.3l-.5-.5zm5.3-4.4v.5h-1.2c-.3.3-1.3.5-2.9.7l-.3-.3v.5h2.2c0 1 .2 1.5.5 1.5h.5l-.5-.8v-.2l.5-.5h1.7l.7.5v-1l-.2-.3v-.2l.5-.5zm-4.1-35.1v.5h1v-.5zm1.7 30.1c0 .8-.4 1.2-1.3 1.2v.7h.3l2.2-1.7zm-1.3 13.3v.4l1 .5h.3v-.5zm2.8-45.9v.5h-1.5v.5h1.2l1.2-.2.5.7.7-.3v-.7l-.4-.5zm-1.3 44.4v.3c0 .3.5.7 1.5 1.3v-1c-.8 0-1.3-.2-1.3-.5zm.7-1.9v.4h1.2v-1.5c-.3 0-.5.3-.5 1zm.8-14.7-.3.8h.7v-.8zm-.2 24.6h1v1l-.7.3-.3-.3zm.4-21.9v.4l1 .3v-.5zm0 4.2v.5h1.3l-.5-.5zm.3 8.7v.9h.5v-.9zm0 6.8v.3h.5v.2l1.2-1c.8 0 1.2-.4 1.2-1.2h.3c0-.5-.3-.8-1-.8v-.4h-.3c-.3 0-.5.8-.5 2.4zm.6-3.4v.3l.7.3v-.6zm.3-17.3v.5l1.5-.3v-.3zm.2 1.9.5.5h.3l-.5-.5zm.7 8.6.5 1 .7-1zm.3 3.9v.4l.5.5h.2v-1zm0 8.3v.5h.7v-.5zm.2-18.9v.5l1 .3h.8v-.3c-.8-.1-1.4-.2-1.8-.5zm.5 11.8v1h.3l.5-.4zm1.5-17.1h.2c.7.3 1 .8 1 1.5h-1.2l-.5-.5v-.5zm-.3 11.1v.5h.3l.5-.5zm1-33.3v1.3l.8.4v-.3l-.5-1.5z"/><path d="m88.1 12.2.3.3v11.2l-1.5 1v.3l.8.3c0-.5.2-.8.5-.8h.3v.5l-6.4 2.2-4.2 3.2-2-.5c.3.7.7 1.1 1 1.2 0-.5.2-.7.5-.7v.4c-2.8 3.3-4.6 7.6-5.3 12.6l-.3-.3h-.8c0 .3.3.5.8.5l.3.3v.5c0 1.9-.3 2.9-.8 2.9h-.3l.3.3v.5l-.5.4-.7-.3-.3.3v.3l.3.3h.3l.7-.3c.6.6 1.2 3.1 1.7 7.6l-.6.6h-.3v.3h.5v-.3c.8 0 1.3.7 1.3 2.2l-.3.3c.4.1 1.7 2.1 3.9 6.1 0 .4 1.7 1.7 5.1 3.9l4.1 1v.7l-.3.3v.3l-.2-.3h-.5v.8h-.5v-.3l.3-.3v-.3l-1.5-.3c-.5 1.5-1.4 2.2-2.7 2.2v.5c.5 0 .8.3.8 1v.3l1-.3-.2-.3v-.2c.8 0 1.2-.2 1.2-.5v-.5l-.3-.7h.3l1-.3h.5l1.7.4v-.2c.7.2 1 .5 1 .7l-.3.3v.3h.2l-.3.3v.7l.3.3v.3l-.3.3h-.3l-.5-.5c0 .3-.3.5-.8.5l-.2 1.2h.2l1-.3c0 .3.3.5 1 .5v.5l-.5 1.2h-.3l-1-.5-1 .8v.5h.5v.9l-.5.5-1 .3v-.8h.5v-.5l-.7-.2c1-1.2 1.5-2.1 1.5-2.7-.4 0-.9.6-1.7 2l.3.3h-.3l-.8-.5h-.3l-.5.5c0 .5.3.7 1 .7l-.3.7.3 1.2-.3-.3h-.3v.3c.5 0 .8.6 1 1.7h-.5v.3l-4.4-.9.2-1.3-1.5-.4-.5.4c0-.6-.2-.9-.7-.9 0 .6-.3.9-1 .9-3-.9-6.5-3.4-10.5-7.5l.2-1-.2-.3h-.3l-.5.5-3.7-5.1.3-.8h-.3c-.6 0-1.7-2.2-3.2-6.6 0-1.5.6-2.2 1.7-2.2l-.3-1.2c.3 0 .5.3.5.8l.3-.3h.2l.3.3v-1.3h.8l.5.5-.8.7.3.3v.5l-.3-.3h-.3l-.3 1.7 1.3.3v-.3c1 0 1.8.5 2.4 1.5l-.3.3.3.3h.6l-.5-1.5h.3l.8.3v-.3l.7.5.3-.3h.5v.5l.5-.5v-.3l-.3-.3v-.3l.3-.3-.3-.3h-.3c0 .7-.3 1-.8 1h-.3c-.7-.8-1.3-1.2-1.7-1.2l-.5.4h-1c-.3-.1-.7-.5-1-1.2 0-.8.4-1.5 1.2-2l.3.3 1 .5.3-.3v-.2l-.3-.3.5-.9-.3-.3.3-.3h-.3l-.2.3h-.3l-.8-.3v.3l-.5.5v-.3l-1.5.5h-2.2v.4h-1.2c-.6 0-1-1.2-1-3.7l1.2.8h.8v-.5l-.3-1.2.7-.8h-.3l-1 .8-.5-1 .3-.2-1-.5c.1 1 .3 1.5.5 1.5l-.2.8c-.5 0-.8-1.8-.8-5.4 0-3.9.3-5.9.8-5.9l-.3-.3c.4-5 2.6-10.5 6.4-16.4 7.3-8.2 15.9-12.5 26.1-12.5zm-31.6 45.8h.3l1 .3v.2l-.8.8h-.3zm2 2.9-.3.3v.3l2.5 1.5v-.5c0-.6-.3-1.1-.8-1.5l-.3.3h-.2zm.3-16v.5l.8.3v-.3zm.5 6.4v.4h1l-.5-.4zm.2-3.2v.8l.7-.3v-.5l-.3.3h-.3zm4.7-2.7v.3l.3.7c-.5.4-1.3.7-2.2.8 0-.4-.3-.6-1-.8l-.3.3v.3c1.3 0 2 .8 2 2.5h-.3c-.3 0-.5.2-.5.7-1.3.6-2 1-2 1.3h.3c1.5-.3 2.2-.8 2.2-1.5l1.5-.2v.2l.3-.2h.5l-.3.2v.3l.3.3.2-.3h.3l.5.5-.3.3h1.2v-.3l-.2-.8h.5v.5h.8l-.3-.3v-.4h.3l1 .7.8-.3-.3-.3v-.2l.3-1.3h-1.5v-.4h-.3v.4c-1.1-.2-1.7-.6-1.7-1.2v-.3l-.3.3h-.3c-.6-.4-1-.9-1.2-1.7zm-3.7-10.2v.5h.8v-.5zm0 7.8v.5l.5.5.3-.3v-.8zm1 10v.3l.7-.8h-.3zm.9-1.7-.3.9c.3 0 .5-.3.5-.8v-.1zm0 18.3v.8h.3l.7-.3-.5-.5zm.3-25.6v.5h.7v-.3zm1.5 14.4-.3.8.3.8h.3l.3-.8.7.3v-.8zm-.3 11.7v.7l.3.3h.3v-.3l-.3-.7zm1.2-14.3-.7-.3h-.3v.3l1.7 1h.3l-.3-1.2.5-.5h-.3zm.3 9.5 1 .2.5-.7h-1zm3.2-8.3c0 .5-.2.8-.5.8l-1-.3v.3l-.3-.3h-.2l-1 1.5.3 1h.3c0-.7.4-1.2 1.2-1.5h.8v.3h-.5l.8 1.3h1.2l.3-.3h.3l1 .9h.3c-1-1.6-1.7-2.4-2.2-2.4v-1.3zm-3 15.1.5.4.3-.2v.2l.7-.2-.3-.8h-.7zm.8-3.9.3.9h.5l.5-.4v-.5l-.3.3-.3-.3zm.4-27.6v.4h.8v-.4zm.5-16v.7c.7-.4 1.1-.8 1.2-1.2h-.2zm.8 49.2h.3l.5-.5v-.3zm.2-19 .2.7 1-.9h-.5zm.8 17.7.5.5h.5l.3-1h-.3zm.5 4v.3c.3.8.9 1.2 1.7 1.2h1.2v-.3l-1.2-.2-.8.2.3-.2v-.5zm.2-22.2.3.3v.3l1.2-.3v-.5h-.3zm.7 18.7v.8h.5v-.8zm1.3-32.9c0 .3-.3.5-.8.5v.4h.3l1-.9zm-.5 34 .3.2-.3.3v.3l.5.5.7-.3v.5h.3c0-.3.3-.5 1-.5l.5-.5v-.4l-.7.4-1.5-.4zm.2-4.5v1h.3l.3-1zm1.5 9-.3.8h.3l1-.5v-.3h-.5l-.3-.3zm0-16.5v.3h.8v-.4zm1.1 14.6-.5.8h.5l.3-.8zm-.3-10.2.3.3v.3l-.3.7.3.3h.5c0-1-.2-1.5-.8-1.6zm2 1.2-1.2 1.2 2.2-.7v-.3zm-.7-3.9v.5l.5.5.5-.5-.7-.5zm0 6.6v.9c0 .8.4 1.4 1.2 1.7h.5v-1zm2.9 7.7v.3l.3.3h.8v-.3zm1.5 1.2-.3.2v.3h.5l-.3.3v.3h1v-.8zm1.3-1.2.5 1.3h1v-.5c-.3 0-.5-.3-.5-.8zm1.7-8.5.2.3v.3h-.5v.5l.7-.5.3.3v-.3l-.5-.5zm4.1 11.9c1 0 1.5.4 1.5 1.3l.3.7h-.3l-2 .3v-.3l-.7-.9-.3.3h-.3v-.5zm1.5-2.4h.3v2l-.3.2v.3l-.7-.3c.2-1.5.4-2.2.7-2.2zm3.4-66.9c7.5 0 14.7 2.8 21.7 8.5 4.4 4.6 6.9 8.4 7.6 11.5l-.5.7v.5l.5.5v-1.5c.4 0 .9 1.4 1.5 4.2h-.5v-.7c-.3 0-.5.5-.5 1.5-.3 0-.5.4-.5 1.2l-.3.3h-3.3l-1.7-1.5h-.3l.3.3v1.2l-1.2.5h-1.3v-.5h-.5v.7l.8 1h-.3l-.3-.3h-.3v1.2l-3.2-.9v.4c0 .5 1 .7 3 .7 0 .3.5.6 1.5 1l.7-.3.3.3v-.4l.3.3h.3l1-.3 1 .3.5-.8c-.5 0-.8-.4-.8-1.2l-1 .3-.8-.3v-.5c0-.9.4-1.5 1.2-1.7l.5 1.2-.3.3v.5h.3c0-.4.6-.8 1.7-1l.3.3v.8c-.4 0-.7.4-.8 1.2h.5v-.5c.5 0 .8-.3.8-.9l.2-.3v-.3h-.5v-.4h.5l.3.3h.3l2.5-1.2.5.8-.3.7c.5 0 .7.9.7 2.7l-.7 1.2-.3-.3h-.6c0 .4-.4.7-1.2.8l-.3.3v.4l1.7-.7-.3.3v.4h1.2l.5.5-.3.3v.3l.5.4-.3.3.3 1.3-.3 1.5c-.3 0-.5-.3-.5-1h-1v1l-.3 1.2-1-.3-.8.3.3.8 1-.5v.5h.8l.3-.3h.3v.3l-.3.7h1.2c0 6.5-2.8 13.3-8.3 20.8-7.2 7.3-15.2 11-24.2 11v-.5c.5 0 .7-.1.7-.4h-1v-3.4h.5v-1.5h.8l.8.5h.2l1-.5-1.5-2v-1c0-1.7.7-2.7 2-2.9l-.3-.3.3-.3v-.9l-1.3.2v-.7l2.2-.5v.3l-.3.3v.3h.5c0-.7 1.3-1.7 3.9-3 1.9-1.6 2.9-2.7 2.9-3.2h1.7v-.3l-.3-.3v-.2l-.3.2h-.5v-.2c0-.3.7-.8 2.2-1.7v-.8l-.2-1.2.2-.3h.5l.3.3.3-.3h.3c.5 0 .7.2.7.7h.3v-1h-1.2c-.3 0-.5-.3-.5-.8l.3-1.7h.3l.7.5h.3l-.3-.3c.1-.8.4-1.2.8-1.2v-.5c-.6 0-1-.2-1-.5v-1.5l.2-.3v-.2l.3.2h.5c0-.3.3-.4.8-.4l.2-1.3h-.5v.5l-.5.5h-.8v-.3c.1-1.8.3-2.7.5-2.7h.5v-.2l-.8-1.3v-1.2h.5v-.3l.3.3h.3c.5 0 .7-.3.7-.8h.3v.5h2.5l1-.3 3 .8c.7-.8 1.3-1.2 1.9-1.2l.5.4h.3v-.2c-.5 0-.8-.1-.8-.4h.3l-.7-1c-.2.4-1.1.9-2.7 1.3l-.5-.5h-.5l-.3.3h-.3l-.3-.3v-.3l.5-1.5-1.5.5h-.8l-.3-.3-.3.3h-.2c-.2-.3-1.2-.5-3-.5l-.7-3.2c.3 0 .5-.3.5-1l1.3-.3-2.7-2.4.3-.3v-.3l-2.9-4.9c-2.4-2.9-5.5-5-9.3-6.1-1.8-.1-2.8-.5-2.8-.8v-12.2zm0 60.1h.5l-.3 1.2h-.3l-.5-.5v-.3zm-.5 3h.5v2l-.5.4zm3.7 4.7-.3.3v.5l.7.3v-.5zm0-5.5v.3l.7.3v-.5zm5.5 3v.2h.5l.3-.7h-.3zm5-11.5.3.8h.2l.5-.5v-.5l-.5-.4c-.4-.1-.5.1-.5.6zm1.4-2 .3.8h.3l.5-.5v-.5l-.5-.4c-.4-.1-.6.2-.6.6zm1-19.3 1.7.5-.3.3v.5l.3.3v.2l-.3.3c-1.1 0-1.7-.6-1.7-1.7zm.5 20.3v.3l.3.2h.7v-.2zm.2-9.5v.3l.3.8h.7l-.5-1zm0 5.4.5.5h.2l-.5-.5zm.3-40.7v.3c.3 0 .5.3.5.8h.5v-1zm.9 29.1c0 .5-.2.7-.5.7l-.2-.3h-.3v.3c0 .4.9.7 2.7 1 0 .5.2.7.5.7l.3-.3v-.1c-.5 0-.8-.3-.8-1l-.3.3h-.3c-.4 0-.7-.4-.7-1.2zm.3 8.2-.3.9h.8l1-.4-.3-.3v-.3l-.3.3h-.5zm1.5 6.3.3.3-.3.3h.8l-.3-.9zm1.7-11.8-.3-.3h-.3l-.2.3v.5l.2-.3h.8l.8.5v-1.3h-.3zm-.5.7v.3l.3.7-.3.3h.8v-.3l-.5-.9zm1-10v.8h.3l.3-.8zm.9-1.7v.3l-.5.5v-.3zm.5 12.4.3.8h.8v-.5zm3.5-19.6c0 .5-.4.7-1.2.7v.3h1l1.5-.5v-.4h-.5l-.3.2h-.3zm-1 17.7v.3h1.2l-.5-.4zm.5-6.8.3.3v.3l.3-.3h1c.3 0 .5.3.5 1l.3.3h.3l.3-.3-.3-1.5h-1.2zm3.2 1.7-.3 1.3.7.3.8-.3.3.3v.2l.7-.2v-1h-.3c0 .5-.2.8-.5.8-.7 0-1-.4-1-1.3zm.6 7-.3.8h.8v-.8z"/><path d="m131.7 11.8v.6c-.3 0-.5.3-.5 1l-.3.3h-.3l-1-.3v.3c0 .3.5.7 1.6 1l.3 1.2v.3h-.6v.3c.5 0 .8.2.8.5h.5l.3-1.6-.8-.7v-.5l1.3-.3h.8l.6-1.3v-.3l-.6-.5h-.3l-1.3.3-.1-.3h4c.1.5.2 1.1.2 1.9l.3-.3h.8l.5.6v2h-.8l.3.3v.3l-.3.8.8 1.2v40.9c.1 3.4 1.6 5.8 4.4 7.4v.3l-.3.2h-.3l-.3-.2v.5h2.1v.5l2.8-.3h.6v10.1h-.1l-.3-.3h-1.4l-.3.3-.3-.3v.5l2 .3v.5l-.3.3.6.6v3.8c-.4.1-1.2.1-2.4.2-.5 0-.8-.3-.8-.8h-.3l-.3.8c-2.1 0-4.3-.3-6.6-1.1-8.2-3-13.2-10.3-15.2-21.6v-40.3h1.3l1.3.8c0-.7.3-1.1 1-1.1 0-1 .2-1.5.5-1.5h1.3l.8.5.5-.8-.3-.3h-1.6v-.5c-.8 0-1.5-.4-2.1-1.2l-.5.8c.5 0 .8.2.8.5v1.6h-1.6l-.5-.5v-1.3c.5 0 .8-.2.8-.5-.7 0-1.3-.4-1.8-1.3v-3.1l1-1.1h3.8c-.2.4-.8.8-1.7 1.1v.5h.3l1.6-1.2.8.2v-.6zm-10.3 8.4v-2.6h.5v.5l.3 1.8-.3.2zm2-4.8v-.5h-1.6v.8zm-1 8.9.5-1.3v-.3l-1 .3.3 1.3zm-.1 28 .2.2.1-.3zm1.1-22v-2.3h-.6l-.3.8.6 1.6zm4.6-8.8-.5-.6c-1.5.5-2.4 1-2.6 1.6l.3.2c.8-.7 1.8-1.2 2.8-1.2zm-1.3 39.8h.3l.3-1h-.5zm3.4-44.9v-.3l-2.6-1.8v1c.9.6 1.3 1.4 1.3 2.3.3 0 .5-.4.8-1.2zm-2.5 43.4h.6zm.6 5.6v.3l.5.5c0-.5-.2-.8-.5-.8zm1 0v-.8h-.6c.1.6.3.8.6.8zm.8-4.6-.3 1.3c0 .5.2.7.5.7 0-.9.2-1.6.5-2.1l-1-1h-.3l-.3.3zm1.2-40.8v-1h-.8v.3l.3.8zm-.4 49.7h1v-.2l-1-.5zm1.9-48.2v-.6l-.5-.5v1.1zm.6 46.2v.8h.5v-.8l.3-1.3h-.5zm3.3-51.5v-.3c-.5 0-1.1-.3-1.6-1h-.3l-.8.8.8 1.3h.3c.6-.6 1.1-.8 1.6-.8zm-.4 55.6h.3v-.8h-1.4c0 .3.4.5 1.1.8zm1.1-51.3-1.3-1h-.8c0 .4.7.8 2.1 1zm-1.6 2.3v-1.2h-.5v1.2zm.2 44.6.5.8v1.3l.8.2c.2-1 .9-1.5 2.3-1.5v-.3l-3.3-.8h-.3zm.3-5.8.8.2v-.5l-.5-.5zm1.6-49.8v.3l-.3.2v.3c-.6-.1-1-.3-1.2-.8zm-.9 62.8c.2 1 1.1 1.6 2.8 2h.3l.3-.3v-.3l-.3-.3c-1.8-.5-2.8-1-2.8-1.5h-.3zm.5 7h.6v-1.3h-.6zm2.3-12.9.3.3v.5h.8l.3-.3c0-.3-.3-.5-1-.8zm3.3 7.9.8-3.1v-.3l-2.3.8-.8-.6c0 1.4.8 2.4 2.3 3.2zm-1.8 1.5h.3l-.5-.5h-.3zm.2-7.4v.3l2.1-.6v-1l-.3-.3-2.1.3zm1.6 7.1h1.3v-.3l-1.3-.2zm.3 2.8h1.3v-.5h-.8zm26.1-68.7v.6l.8-.3 1.6 1.2h.3v-.5c-.9-.3-1.5-.6-1.7-1.1h3.8l1 1.1v3.1c-.5.9-1.1 1.3-1.8 1.3 0 .3.3.5.8.5v1.3l-.5.5h-1.6v-1.6c0-.3.3-.5.8-.5l-.5-.8c-.6.8-1.3 1.3-2.1 1.3v.5h-1.5l-.3.3.5.8.8-.5h1.3c.3 0 .5.5.5 1.5.7 0 1 .3 1 1l1.3-.8h1.3v40.3c-2 11.4-7.1 18.6-15.2 21.6-2.3.7-4.5 1-6.6 1l-.3-.7h-.3c0 .5-.3.7-.8.7-1.1 0-1.9-.1-2.4-.1v-3.8l.6-.6-.3-.3v-.5l2-.2v-.5l-.3.3-.3-.3h-1.3l-.3.3h-.1v-10.1h.6l2.8.2v-.5h2.1v-.5l-.3.3h-.3l-.3-.3v-.3c2.9-1.5 4.3-4 4.4-7.4v-40.9l.8-1.2-.3-.8v-.3l.3-.3h-.8v-2l.5-.6h.8l.3.3c0-.8.1-1.4.2-1.9h4l-.1.3-1.3-.3h-.3l-.6.5v.3l.6 1.3h.8l1.3.3v.5l-.8.8.3 1.5h.5c0-.3.3-.5.8-.5v-.3h-.6v-.3l.3-1.2c1-.3 1.6-.7 1.6-1v-.2l-1 .3h-.3l-.3-.3c0-.7-.2-1-.5-1v-.6zm-13.6 60-2.1-.3-.3.3v1l2.1.6v-.3zm.6 4.9h-.8v.5h1.3zm.7-5.9c-.7.2-1 .5-1 .8l.3.3h.8v-.5l.3-.3zm3.1-59c-.2.5-.6.7-1.2.8v-.3l-.3-.3v-.3zm1.1 7.7h-.8l-1.3 1c1.4-.2 2.1-.6 2.1-1zm-1.1 41.3-.5.5v.5l.8-.3zm3.2 5.1h-.3l-3.3.8v.3c1.3 0 2.1.5 2.3 1.5l.8-.3v-1.2l.5-.8zm-1.8-49h.3l.8-1.3-.8-.7h-.3c-.5.7-1 1-1.6 1v.3c.5 0 1 .2 1.6.7zm-.3 5.9v-1.3h-.5v1.3zm1.5 31.7-1.3.3v.3h1.3zm-.3-27.5c.2.8.5 1.2.8 1.2 0-.9.4-1.7 1.3-2.3v-1l-2.6 1.8v.3zm2.6 23.8-.8.6-2.3-.8v.3l.8 3.1c1.6-.9 2.3-1.9 2.3-3.2zm-2.4 26.1h-.6v1.3h.6zm1.5-7.1h-1.3v.8h.3c.7-.3 1-.6 1-.8zm.2-48.3v-1l-.5.5v.6zm.7 33.3h-.3l-.5.5h.3zm.7 10.4h-.5l.3 1.2v.8h.5v-.8zm1.3-8.4-.3-.3h-.3l-1 1c.3.5.5 1.2.5 2.1.3 0 .5-.3.5-.8l-.3-1.3zm1.8-5.2h-.3c0 .5-.9 1-2.8 1.5l-.3.3v.3l.3.3h.3c1.7-.4 2.6-1 2.8-2zm-2.6-27.7.3-.8v-.3h-.8v1zm1.4 37.5h-.6v.8c.4 0 .6-.3.6-.8zm.9 6.3-1 .5v.3h1zm-.9-4.8.5-.5v-.3c-.4.1-.5.3-.5.8zm.5-6.4.5.1v-.1zm3-33.7.3-.3c-.2-.5-1.1-1.1-2.6-1.6l-.5.6c1.1 0 2 .5 2.8 1.3zm-1.6 34.3h-.5l.3 1h.3zm5-41.5v-.7h-1.6v.5zm-1.3 14.7.6-1.6-.3-.7h-.6v2.3zm1-6 .3-1.3-1-.3v.3l.5 1.3zm-.4 27.9.1.3.2-.2zm.7-32-.3-.3.3-1.8v-.5h.5v2.6z"/><path d="m205.6 71.5-.2.2h.2v12h-5.3l-26.3-71.4h15.5l15.9 43.4zm-22.2-56.1h2l-.5-.8v-.5l.3-1.3h-.3l-.3.3-3.1 1.3v.3zm2 9.5.5-.5v-.3h-.5l-.3.3v.5zm1.8 4.8-.8-.3h-.3l.5.8zm1.8 3.9v-.6h-.5l-.6.6zm.9 5 .3-1-.8-.2-.6.7zm.5 3.6-.5-.5h-.3v.5zm2.1-2.6v-.5h-.8l-.5.5zm.5 9.8-.3-1.3h-1.3v.3c.7 0 1.1.3 1.1.7v.5l-.6.8v.3c.5 0 .8-.5 1.1-1.3zm-.1-6.2v-.5c-.5 0-.8-.2-.8-.5h-.6v.2zm3.5 15c0-.3.3-.5.8-.5v-.3h-.6v-.3l.3-1.3c1-.3 1.6-.7 1.6-1v-.3l-1 .3h-.3l-.3-.3c0-.7-.2-1-.5-1v-1.5h-.3l-.3 1.2-1.3-.3h-.3l-.6.5v.3l.6 1.3h.8l1.3.3v.5l-.8.8.3 1.6zm-1.4-12.6v-.5h-.8v.5zm.9 17.2v-1.1l-.5.5v.6zm.7-21.9.5-.5v-.3l-.3-.2-.6.5v.5zm2.7 8.2c-.8-.6-1.3-1.2-1.3-2h-.5c0 .7-.4 1-1.1 1v.3c0 .3 1 .5 2.9.7zm-1.8 12.1.3-.7v-.3h-.8v1zm.8-9.6.3-.8h-.3l-.3-.3h-.8zm1.7 16.4v-1.2c-1.3 0-2-.4-2.1-1.2h-.3v.3c.1.9.8 1.5 2.4 2.1zm1.5-6.3.3-.3c0-.5.3-.7.8-.7v-.5c-1.2.6-1.8 1-1.8 1.3v.3zm1.2 15.8-.3-1.2h-.8l.3 1.2zm-.5-4.3c.2.8.5 1.3.8 1.3 0-.9.4-1.7 1.3-2.3v-1l-2.6 1.8v.3zm2.2-7.4h.3v-.5c-1.2-.3-1.8-.8-1.8-1.5h-.8v1l.8-.3zm-1.4-6.1v-.3l.3-.3h-1.1v.3zm1.9 3.3c0-.2-.3-.5-1-.8v.5zm3.7 16.7 1.5.6.3.3h.3l-.3-1.2v-.5l.5-.8h-2l-.2.1v-21.9l16-43.9h15.5l-26.2 71.3h-5.5zm2-11.1v.5l.3.3h.5v-.3l-.5-.5zm1.5-5.3-.5.8h.3l.8-.3zm1.2-3.5.6.6h.5v-.6zm1-4.5.6.8.8-.3-.3-1zm.8-4v.5h.3l.5-.5zm1.5 2.6.5.5h.8v-.5zm.7-11.1v.3l.6.8v.5c0 .5-.4.8-1.1.8v.3h1.3l.3-1.3c-.4-.9-.7-1.3-1.1-1.4zm-.3 8.3v.3h.6c0-.4.3-.6.8-.6v-.5zm4.4-15.9-.3 1.6.8.8v.5l-1.3.3h-.8l-.6 1.3v.3l.6.5h.3l1.3-.3.3 1.2h.3v-1.5c.3 0 .5-.3.5-1l.3-.3h.3l1 .3v-.3c0-.3-.5-.7-1.6-1l-.3-1.2v-.3h.6v-.3c-.5 0-.8-.2-.8-.5zm-1.8 12.7v.5h.8v-.5zm1.2-17.3v.6l.5.5v-1zm1 22v.5l.6.5.3-.3v-.3l-.5-.5zm.1-7.4v.3c.7 0 1.1.3 1.1 1h.5c0-.8.4-1.4 1.3-2-2 .1-2.9.4-2.9.7zm.5-13v1h.8v-.3l-.3-.8zm.3 10.7h.8l.3-.3h.3l-.3-.8zm.4-15.4v.3h.3c.1-.8.8-1.2 2.1-1.2v-1.2c-1.7.7-2.4 1.4-2.4 2.1zm2.1 15.4v.3c0 .3.6.7 1.8 1.3v-.5c-.5 0-.8-.3-.8-.8l-.3-.3zm1.2-15.7-.3 1.2h.8l.3-1.2zm-.2 4.2v.3l2.6 1.8v-1c-.9-.6-1.3-1.4-1.3-2.3-.3 0-.5.4-.8 1.3zm1.1 8.7-.8-.3v1h.8c0-.7.6-1.2 1.8-1.5v-.5h-.3zm-.6 5.1v.3h1.1l-.3-.3v-.3zm.2-30.8v.3c.5 0 1.1.3 1.6 1h.3l.8-.7-.8-1.3h-.3c-.6.5-1.1.7-1.6.7zm1.1 9.6.5.6c1.5-.5 2.4-1 2.6-1.6l-.3-.3c-.9.9-1.8 1.3-2.8 1.3zm.3 17.9v.5c.7-.3 1-.5 1-.7zm1.5-15.7h.8l.5-.6h-.8zm1-4.6h.5l.5-.5h-.5zm1.5 3.1v.5c-.5 0-.8.2-.8.5h.8l.3-.8v-.3zm1.6-8.9c0 .7-.2 1-.5 1l-.8-.3-.3.3v.8c.5 0 .8.3.8.8h.3c0-.9.4-1.3 1.3-1.3h.8c-.4-.7-.9-1.1-1.6-1.3z"/><path d="m237.8 12.1h15.3l.5.5v5.9l-.5.6h-.5c0-.4-.4-.9-1.3-1.5v-.5h-.3l-.3.3h-.1l1.6 2.3-1.3 1h.3l2.3-1.3.3.3v31.6h-1.3l-1.3-.8c0 .7-.3 1.1-1 1.1 0 1-.2 1.5-.5 1.5h-1.3l-.8-.5-.5.8.3.3h1.5v.5c.8 0 1.5.4 2.1 1.3l.5-.8c-.5 0-.8-.2-.8-.5v-1.6h1.6l.5.5v1.3c-.5 0-.8.2-.8.5.7 0 1.3.4 1.8 1.3v3.1l-1.8 2h1.3v-1h.5v11.2c-.3.7-.8 1.1-1.3 1.1l.5.4.8-.2v7.1h-.5c0-.8-.2-1.3-.5-1.3l-1.6-.7v.1c0 .3.5.5 1.6.8l.3 1.3v.3l-.8.7h-.7l-1.5-1.3v.3l1.3 1.5-.3.8h.3c1 0 1.6-.3 1.6-1h.8v2.1l-.5.5h-1.7l-.8-.5-.5.5h-1.8c-.3 0-.5-.3-.5-.7h-1.6c0 .5-.2.7-.5.7h-1.3l-1.6-1.2h-.3v1.2h-3.1v-.7h-1.6v.2h.6v.5h-1.1l-.5-.5v-.2l.5-.8v-1.3h-.5v-2.3l1-1.5c0-.5-.3-.8-.8-.8l-.3-.3v-1.8l.5-.5h1.1l.8.5h.8l-.3-.3-1.3-.5-.6-1.5h-.5v1.2h-.4v-9.7l.5-.5h.3l1.6.5v.3l1.3-.3h2.1c0-.3-.3-.5-1-.5v-.5h-1.8l-.5-.5.3-1.1c-.7 0-1-.9-1-2.8l-.3.3h-.8l-.5-.6v-2h.8l-.3-.3v-.3l.3-.8-.8-1.2v-40.8zm-.2 47.2c.9.1 1.3.6 1.3 1.5-.7.4-1.1.8-1.1 1.3h-.5v-2.3l.3-.3zm.2-7.8 1.3 1h.8c0-.4-.7-.7-2.1-1zm2.1 13.4c0 .7-.2 1-.5 1l-.8-.3-.3.3v.8c.5 0 .8.3.8.7h.3c0-.9.4-1.3 1.3-1.3h.8c-.5-.5-1-.9-1.6-1.2zm-1.3-43.3v.5l.6.5.3-.3v-.3l-.5-.5zm0 34.1v.3c.5 0 1.1.3 1.6 1h.3l.8-.7-.8-1.3h-.3c-.6.5-1.2.7-1.6.7zm.8-6.5v1.3h.5v-1.3zm3.5 5.8-.3 1.6.8.7v.5l-1.3.3h-.8l-.6 1.3v.2l.6.5h.3l1.3-.3.3 1.3h.3v-1.5c.3 0 .5-.3.5-1l.3-.3h.3l1 .3v-.3c0-.3-.5-.7-1.6-1l-.3-1.3v-.3h.6v-.3c-.5 0-.8-.2-.8-.5zm-2.1 17.3h.8l.5-.6h-.8zm0 9.1.6.8.8-.3-.3-1zm.8-3.9v.5h.3l.5-.5zm.8-64.6-.5.8h.3l.8-.3zm-.5 54.8h.5l.5-.5h-.5zm.5-17.2v.6l.5.5v-1.1zm1 20.3v.5c-.5 0-.8.2-.8.5h.8l.3-.8v-.3zm-.3 9.1.5.5h.8v-.5zm.3-15v.3c.7 0 1.1.3 1.1 1h.5c0-.8.4-1.4 1.3-2-2 .2-2.9.4-2.9.7zm.2 12.3v.3h.6c0-.4.3-.6.8-.6v-.5zm.3-25.2v1h.8v-.3l-.3-.8zm.3 10.6h.8l.3-.3h.3l-.3-.7zm.7-7.1v.3l2.6 1.8v-1c-.9-.6-1.3-1.4-1.3-2.3-.3 0-.5.4-.8 1.2zm.3-40.3v.5l.3.3h.5v-.3l-.5-.5zm0 4.1v.3l3.1 1.2.3.3h.3l-.3-1.2v-.5l.5-.8h-2zm1.2 57.1v.3l.6.8v.5c0 .5-.4.8-1.1.8v.2h1.3l.3-1.3c-.3-.8-.7-1.2-1.1-1.3zm.3-13.8v.3c0 .3.6.7 1.8 1.3v-.6c-.5 0-.8-.3-.8-.8l-.3-.3zm.3-12.1.5.6c1.5-.5 2.4-1 2.6-1.6l-.3-.3c-.8.9-1.8 1.3-2.8 1.3zm1.8 9.3-.8-.3v1h.8c0-.7.6-1.2 1.8-1.5v-.5h-.3zm-.5 5.1v.3h1.1l-.3-.3v-.2zm.5 3.6v.3h.3c.1-.7.8-1 2.1-1v-1c-1.7.4-2.4 1-2.4 1.7zm0 12.9v.5h.8v-.5zm.2-60.4.6.6h.5v-.6zm.8 40.6v.5c.7-.3 1-.5 1-.8zm1.8-20v2.3h.6l.3-.8-.6-1.6zm0 14.9v.5h1.6v-.7zm.5 11.7-.3 1.1h.8l.3-1.1zm.5-20.5-.5 1.3v.2l1-.2-.3-1.3zm1.1 4.1v2.6h-.5v-.5l-.3-1.8.3-.2zm34.3 19v.8h-.3l-.3.3.3.3c0 .7.3 1 1 1 0-.5.2-.8.5-.8l.5 2.6h-1v.5c.7 0 1 .3 1 .8l1.6 1.3v2.1h-.8v1l.5.8v1.5l-.3.3c-.7 0-1.1.3-1.1.8h-3.2l-.5-.5v-.3h1v-2.6c.7 0 1.1-.3 1.1-.7h-.8v-.8c.8-.1 1.3-.4 1.3-.8v-.5c-.5-.6-.8-1.2-.8-1.8l.3-1.3-1.1-.5c-.7.4-1.2.8-1.3 1.2l.5.8v.3l-.3.3.3.3v.3c-.4 0-.9.2-1.5.7v.3l.3.3v1.6l-.3.3h.8v1.8l-.5.5c-1 0-1.6-.4-1.6-1.3h-1.5v.5h-1.3l-.8 1c.5 0 .8.2.8.5v.3h-3.5l-.5-.5v-.3l.3-.3h-.3c0-.5.3-.8.8-.8v-.9l-1.8-.8c-.4.3-1.3.6-2.8.8l.8 1.5-1.3 1h-4.1v-.8h-.8l-.3.3v-.3h-.5v.3l1 .3v.3h-10.2l-.6-.5v-3.3l.6-.8-.6-.8v-.2l.3-.3-.3-.3v-3.3h.3l1.1.7h.3l-1.6-2.3v-2l.6-.6h3.3v.8l-.3.3.5.5c1.7-1 2.9-1.6 3.6-1.6h4.3c-.2 1.2-.6 1.8-1.3 1.8v.5l2.1-1-.3-.3c.1-.5.4-.9 1-1.1l1 .6.8-.6h8.7l1.1 1.1h.3l.3-.3v-.3l-.3-.3h2.3c.3 0 .5.3.5.8l1-.8h1.6zm-28.8 4.6v.5l.3.3-.3.3-1.3-.3-.3 1.1.3.3.3-.3 1 .3-.3 1.2v.8c.5 0 .8.2.8.5h.5l-1-1.6c.3-.4.6-1.2.8-2.6l-.5-.5zm3.3-1-.3.3.3 1.5h.3l.3-1.3v-.5zm2.5 3-1.5 1v.5l.3.3.8-.3c0-.7.2-1 .5-1l.3-.3.3-.2zm2.6-.2-.5.5v.3h.5l.3-.3v-.5zm1 .6v1.6l.5.5h.3l-.3-1.3v-.8zm1.3-2.2-.8-.8v1l1.1.3v-.5zm.5-3.5-.3.7.5.6v-1.3zm0 3.8-.3.8v.3h.3l.3-.8v-.3zm1.3 1v1.1l-1 1 .5 1-1 1.8v.3c.8-.2 1.5-.7 2-1.5v-3.8zm-.8-3v.3c.3 0 .5.3.5.7h.3v-.7l-.3-.3zm2.8-1.1.5.6.5-.6zm2.8 8.8c-.7.7-1 1.4-1 2.1h-.6l-1.3-.5v-.5h.3c.4-1 1.1-1.5 2.1-1.5zm-1.2-6.2-.6.5c.4 0 .7.4.8 1.3l-.8.3.3.2v.3l-.3.3v.3c1-.4 1.6-.7 1.6-1h-.8v-.4l.3-.3v-1.6zm.2-4.1-.3.3v.3l.8-.3v-.3zm6.7 5.1-1.1-.3-1.8.8h-.5l-.8-1.1.3 1.3c0 .8-.4 1.2-1.1 1.2v.3l.3.3 2.3-2h1l.6.5 1.5-1.3v-.3zm-3.6-5.1v1h.5v-.5zm5.6 11.9-.5.5h-2.3v-.3l1-1h.8zm7.1-8.6h-1v-1l.5-.6h.5z"/><path d="m329.7 12.2 25.5 71.4h-18.6c-2.8-10.2-4.4-15.2-4.8-15.2h-19.9l3.9-13.2h12.2v-.3c-3.4-10.7-5.9-19.4-7.5-26.3h-.3c0 2-3.4 14.2-10.2 36.7-1.9 6.7-3.2 10.6-3.9 11.7h-.5v.5l.5.8-1.5 5.4h-.3l-.8-.3-1.3.3h-1.2l-.8-.3-1.3.3h-3.3l-1.6-.3-.8.3v-.3l-.3.3h-3.1v-3.3l.3-1.6-.3-.8.3.3h.3l.3-.3v-.3h-.8v-3.3l.5-.5h.5l.8.3v-.3l-.3-.8h-.6l-.3.3-.8-.3.3-2.1h.3l2.1-6.6.8.5.3-.3v-.2l-.8-.6 1.5-4.6h.3c0 .3.3.5.8.5v1.6l.5-.6v-2.3c0-.5.5-.8 1.5-.8v-.3l-.3-.8h-.5c-.6 0-1.1.9-1.5 2.6h-.5v-.2l1.5-4.9h1v.5h.8v-.3l-.6-.8.6-1.6-.3-.2h-.3c0 1.2-.2 1.8-.5 1.8h-.3l5.6-16.7h.3v.5h.5l-.5-.8c.2-1.4.6-2.1 1.1-2.1l-.3-.3v-.3l7.7-21.8h18.9zm-38.9 68.2v.8c.7-.2 1.1-.5 1.1-.8zm1.8-9.1c0 .3-.3.5-.8.5l.5.5h.3l1-.5v-.5zm1.5 1.2c-.7 0-1 .3-1 .8h1v-.6l.8-.3-.3-.7-.3.3h-.3zm.3-10.4v.2l1.3.5-.3-.7zm1.5 5.1v1.1h.8c0-.3.3-.5.8-.5v-.6l-1.3.3zm0 11.9v.3l1.3.5c0-.3.3-.5.8-.5v-.3l-.6-.5h-1zm1.6-15.5v.5h1.1v-.5zm1.8 12.8-.5 2 .5 1.6-1.8.7.3.8h.5c0-.4.3-.7 1-1h1.3v.5c.5 0 .8.5 1.1 1.6h.8l-.5-1.8c.5 0 .8-.3.8-.7l-.5-1.6v-.3h.5v-.7h-.5l-.5.5v.3l.3 2.3-2.3-1.8v-1l.5-.7v-.3zm-1-25.9v.3l.5.5.3-.3v-.5zm2.8-3.5c0 1-.4 1.5-1.1 1.5l.3.3v.3c-.5 0-.8.3-.8 1h1c0-1.4.4-2.1 1.1-2.1v-1zm-1.6 12.1v.3l.5-.5v-.3zm.3 7.1v.5h1.8v-.3l-.8-.3v.3l-.3-.3zm1-2.6-.3.3v.3l.8.6h.3v-.3zm-.3 10.8v.3l.3.7h.5v-1zm.8-32v.5l1.3-.3v-.3zm1.6 14.6c.5.7.9 1 1.3 1v1.6h.5l.5-1c-.3-.7-.8-1.2-1.5-1.6zm.2 5.1v1l.3-.3h.3l-.3-.7zm2.1 11.8c0 .3-.3.5-.8.5.7.6 1 1.2 1 1.8h.3l.5-.5v-.3c0-.9-.4-1.4-1-1.5zm.5-20.3-.3.3v.3h.8zm.5-19.4v.6l1.1.3v-.3l-.8-.6z"/><path d="m368.4 12.2-.2 71.4h-16.4v-71.4zm25 0h20.9v.3l-32.7 32.2 34.2 38.7v.3h-19.6l-25.6-29.7v-17.7z"/><path d="m412.4 12.1h15.4l.5.5v5.9l-.5.6h-.5c0-.4-.4-.9-1.3-1.6v-.5h-.3l-.3.3h-.3l1.6 2.3-1.3 1h.3l2.3-1.2.3.3v31.8h-1.3l-1.3-.8c0 .7-.3 1-1 1 0 1-.2 1.5-.5 1.5h-1.2l-.8-.5-.5.8.3.3h1.5v.5c.8 0 1.5.4 2.1 1.3l.5-.8c-.5 0-.8-.2-.8-.5v-1.5h1.6l.5.5v1.3c-.5 0-.8.2-.8.5.7 0 1.3.4 1.8 1.3v3.1l-1.8 2h1.3v-1h.5v10.8c-.3.7-.8 1-1.3 1l.5.5.8-.3v7.1h-.5c0-.8-.2-1.2-.5-1.2l-1.6-.8v.3c0 .3.5.5 1.6.8l.3 1.3-.8.8h-.6l-1.5-1.3v.3l1.3 1.5-.3.8h.3c1 0 1.6-.3 1.6-1h.8v2.1l-.5.5h-1.6l-.8-.5-.5.5h-1.8c-.3 0-.5-.3-.5-.8h-1.6c0 .5-.2.8-.5.8h-1.3l-1.6-1.2h-.3v1.2h-3.1v-.8h-1.5v.3h.6v.5h-1.1l-.5-.5v-.3l.5-.8v-1.3h-.5v-2.3l1-1.5c0-.5-.3-.8-.8-.8l-.3-.3v-1.8l.5-.5h1.1l.8.5h.8l-.3-.3-1.3-.5-.6-1.5h-.5v1.2h-.4v-9.7l.5-.5h.3l1.6.5v.3l1.3-.3h2.1c0-.3-.3-.5-1-.5v-.5h-1.8l-.5-.5.3-1c-.7 0-1-.9-1-2.8l-.3.3h-.8l-.5-.6v-2h.8l-.3-.3v-.3l.3-.8-.8-1.2v-40.8zm-.2 47.2c.9.1 1.3.6 1.3 1.5-.7.4-1.1.8-1.1 1.3h-.5v-2.3l.3-.3zm0 0c.9.1 1.3.6 1.3 1.5-.7.4-1.1.8-1.1 1.3h-.5v-2.3l.3-.3zm.2-7.8 1.3 1h.8c0-.4-.7-.8-2.1-1zm2.1 13.4c0 .7-.2 1-.5 1l-.8-.3-.3.3v.8c.5 0 .8.3.8.7h.3c0-.9.4-1.3 1.3-1.3h.8c-.4-.6-.9-1-1.6-1.2zm-1.3-43.4v.5l.6.5.3-.3v-.3l-.5-.5zm0 34.2v.3c.5 0 1.1.3 1.6 1h.3l.8-.7-.8-1.3h-.3c-.6.4-1.1.7-1.6.7zm.8-6.5v1.3h.5v-1.3zm3.6 5.7-.3 1.6.8.7v.5l-1.3.3h-.8l-.6 1.3v.3l.6.5h.3l1.3-.3.3 1.3h.3v-1.5c.3 0 .5-.3.5-1l.3-.3h.3l1 .3v-.4c0-.3-.5-.7-1.6-1l-.3-1.2v-.3h.6v-.3c-.5 0-.8-.2-.8-.5zm-2.1 17.4h.8l.5-.5h-.8zm0 9.1.6.8.8-.3-.3-1zm.8-4v.5h.3l.5-.5zm.8-64.6-.5.8h.3l.8-.3zm-.5 54.9h.5l.5-.5h-.5zm.5-17.3v.6l.5.5v-1zm1 20.3v.5c-.5 0-.8.2-.8.5h.8l.3-.8v-.3zm-.3 9.2.5.5h.8v-.5zm.3-15v.3c.7 0 1.1.3 1.1 1h.5c0-.8.4-1.4 1.3-2-2 .1-2.9.4-2.9.7zm.2 12.3v.3h.6c0-.4.3-.6.8-.6v-.5zm.3-25.2v1h.8v-.3l-.3-.8zm.3 10.6h.8l.3-.3h.3l-.3-.7zm.7-7.2v.3l2.6 1.8v-1c-.9-.6-1.3-1.4-1.3-2.3-.3 0-.5.4-.8 1.3zm.3-40.3v.5l.3.3h.5v-.3l-.5-.5zm0 4.1v.3l3.1 1.3.3.3h.3l-.3-1.2v-.5l.5-.8h-2zm1.3 57.2v.3l.6.8v.5c0 .5-.4.8-1.1.8v.2h1.3l.3-1.3c-.4-.8-.8-1.3-1.1-1.3zm.3-13.8v.3c0 .3.6.7 1.8 1.3v-.6c-.5 0-.8-.3-.8-.8l-.3-.3zm.2-12.2.5.6c1.5-.5 2.4-1 2.6-1.6l-.3-.3c-.8.9-1.7 1.3-2.8 1.3zm1.8 9.4-.8-.3v1h.8c0-.7.6-1.2 1.8-1.5v-.5h-.3zm-.5 5.1v.3h1.1l-.3-.3v-.3zm.5 3.5v.3h.3c.1-.7.8-1 2.1-1v-1c-1.6.5-2.4 1.1-2.4 1.7zm0 13v.5h.8v-.5zm.2-60.4.6.6h.5v-.6zm.8 40.6v.5c.7-.3 1-.5 1-.7zm1.8-20.1v2.3h.6l.3-.7-.6-1.6zm0 15v.5h1.6v-.8zm.6 11.7-.3 1.1h.8l.3-1.1zm.5-20.6-.5 1.3v.3l1-.3-.3-1.3zm1 4.1v2.6h-.5v-.5l-.3-1.8.3-.3zm0 0v2.6h-.5v-.5l-.3-1.8.3-.3z"/><path d="m253.2 103.8h15.3l.5.5v5.9l-.5.6h-.5c0-.4-.4-.9-1.3-1.6v-.5h-.2l-.3.3h-.3l1.6 2.3-1.3 1h.3l2.3-1.2.3.3v31.8h-1.3l-1.3-.8c0 .7-.3 1-1 1 0 1-.2 1.5-.5 1.5h-1.3l-.8-.5-.5.8.3.2h1.5v.5c.8 0 1.5.4 2.1 1.2l.5-.7c-.5 0-.8-.2-.8-.5v-1.6h1.6l.5.5v1.3c-.5 0-.8.2-.8.5.7 0 1.3.4 1.8 1.3v3.1l-1.8 2h1.3v-1h.5v11.2c-.3.7-.8 1-1.3 1l.5.5.8-.2v7.1h-.6c0-.8-.2-1.2-.5-1.2l-1.6-.7v.2c0 .3.5.5 1.6.8l.3 1.3v.2l-.8.8h-.6l-1.5-1.3v.3l1.3 1.5-.3.7h.3c1 0 1.6-.3 1.6-1h.8v2.1l-.5.5h-1.6l-.8-.5-.5.5h-1.7c-.3 0-.5-.3-.5-.8h-1.6c0 .5-.2.8-.5.8h-1.3l-1.6-1.2h-.3v1.2h-3.1v-.8h-1.6v.3h.6v.5h-1.1l-.5-.5v-.3l.5-.8v-1.2h-.5v-2.3l1-1.5c0-.5-.3-.8-.8-.8l-.3-.3v-1.8l.5-.5h1.1l.8.5h.8l-.3-.2-1.3-.5-.6-1.5h-.5v1.2h-.5v-9.7l.5-.5h.3l1.6.5v.3l1.3-.3h2.1c0-.3-.3-.5-1-.5v-.5h-1.8l-.5-.5.3-1c-.7 0-1-.9-1-2.8l-.3.3h-.8l-.5-.6v-2h.8l-.3-.3v-.2l.3-.8-.8-1.2v-40.9zm-.3 47.2c.9.1 1.3.6 1.3 1.5-.7.4-1.1.8-1.1 1.3h-.5v-2.3l.3-.2zm0 0c.9.1 1.3.6 1.3 1.5-.7.4-1.1.8-1.1 1.3h-.5v-2.3l.3-.2zm.3-7.8 1.3 1h.8c0-.4-.7-.7-2.1-1zm2.1 13.4c0 .7-.2 1-.5 1l-.8-.2-.3.2v.8c.5 0 .8.2.8.7h.3c0-.9.4-1.3 1.3-1.3h.8c-.4-.5-.9-.9-1.6-1.2zm-1.3-43.3v.5l.6.5.3-.2v-.3l-.5-.5zm0 34.2v.3c.5 0 1.1.3 1.6 1h.3l.8-.7-.8-1.3h-.3c-.7.5-1.2.7-1.6.7zm.8-6.6v1.3h.5v-1.3zm3.5 5.9-.3 1.6.8.7v.5l-1.3.2h-.8l-.6 1.3v.3l.6.5h.3l1.3-.3.3 1.3h.3v-1.5c.3 0 .5-.3.5-1l.3-.3h.3l1 .3v-.4c0-.3-.5-.7-1.6-1l-.3-1.2v-.3h.6v-.2c-.5 0-.8-.2-.8-.5zm-2 17.2h.8l.5-.5h-.8zm0 9.1.6.7.8-.2-.3-1zm.8-4v.5h.3l.5-.5zm.7-64.5-.5.8h.3l.8-.3zm-.5 54.8h.5l.5-.5h-.5zm.5-17.2v.6l.5.5v-1zm1 20.3v.5c-.5 0-.8.2-.8.5h.8l.3-.8v-.2zm-.2 9.2.5.5h.8v-.5zm.2-15.1v.3c.7 0 1.1.3 1.1 1h.5c0-.8.4-1.4 1.3-2-1.9.2-2.9.4-2.9.7zm.3 12.3v.3h.6c0-.4.3-.6.8-.6v-.5zm.2-25.2v1h.8v-.2l-.3-.8zm.4 10.6h.8l.3-.2h.3l-.3-.7zm.7-7v.2l2.6 1.8v-1c-.9-.6-1.3-1.4-1.3-2.3-.3 0-.5.4-.8 1.3zm.3-40.4v.5l.3.3h.5v-.3l-.5-.5zm0 4.1v.3l3.1 1.3.3.2h.3l-.3-1.2v-.6l.5-.8h-2zm1.2 57.1v.2l.6.8v.5c0 .5-.4.8-1.1.8v.2h1.3l.3-1.2c-.4-.8-.7-1.2-1.1-1.3zm.3-13.8v.3c0 .3.6.7 1.8 1.3v-.6c-.5 0-.8-.2-.8-.7l-.3-.3zm.3-12.1.5.6c1.5-.5 2.4-1 2.6-1.6l-.3-.3c-.9.9-1.8 1.3-2.8 1.3zm1.7 9.3-.8-.2v1h.8c0-.7.6-1.2 1.8-1.5v-.5h-.3zm-.5 5.1v.3h1.1l-.3-.3v-.2zm.5 3.6v.2h.3c.1-.7.8-1 2.1-1v-1c-1.7.5-2.4 1.1-2.4 1.8zm0 12.9v.5h.8v-.5zm.2-60.4.6.6h.5v-.6zm.8 40.6v.5c.7-.3 1-.5 1-.7zm1.8-20v2.3h.6l.3-.7-.6-1.6zm0 15v.5h1.6v-.7zm.5 11.6-.3 1.1h.8l.3-1.1zm.5-20.5-.5 1.3v.2l1-.2-.3-1.3zm1 4.1v2.5h-.5v-.5l-.3-1.8.3-.2zm0 0v2.5h-.5v-.5l-.3-1.8.3-.2zm3.1-39.5h14.9c11.6 0 18.9 4.1 21.9 12.1.7 1.6 1.1 3.5 1.1 5.6l-.8.3v.2c.5 0 .8.3.8.8-.3 3.1-.7 4.6-1.3 4.6l-.3-1.6h-1.3l-.3.2h-.3l-.6-.5v-.5l.3-.3v-.2l-1.1-1-.3.2h-.5l-.3-1h-.5l.3.2-.3.3v.5l.3.3v.2l-.3.3c.8.5 1.5 1.4 2 2.8v.5l-.3 1.8-1.3-.3h-.3l1 1.3h-1.8l.3 2.5-.8.2v.8l.6.7-2.3 1.3c-.9 0-1.3-.4-1.3-1.3h-2v.8c.8 0 2.2.7 4.1 2 0 .4.4.6 1.3.6 1.2.6 1.8 1.3 1.8 2.3 2.1 0 4 2.4 5.9 7.2l-.3.2c.6 0 1.1 1.3 1.3 3.8-.5 0-.8.2-.8.5.7.3 1 .9 1 1.8h-.3l.3.2c-.3 4.1-.9 6.1-1.8 6.1l.5 1-.5 1.1-1.8-.3h-.3l-.3.6c-.9-.2-1.3-.5-1.3-.8v-.3l.3-.2v-.2h-.3l-1.3.5v.6c0 .4.6.8 1.8 1v.7l-.8.8h-1.3l-.5.6v.5c.6 0 1.6.7 3.1 2-2.7 3.1-4.9 4.6-6.7 4.6 0 .3-1.3.9-3.9 1.8-.4 0-.9-.5-1.5-1.6l-.8.2v-.2l-.3-.8.3-.7h-1.3l-.8-.6v.3c1.1 1.4 1.7 2.7 1.8 4.1l-4.3.2h-.3c-.3 0-.5-.5-.5-1.5-.5 0-.8-.4-.8-1.3h-.3v1.5c-1 .1-1.5.3-1.5.6l.3.7-.3.3h-14.3l-.5-.5v-12.4l.5-.6h10.3l1 .8h.3l-.3-.2v-.3l1.5-.6h.8c0 .5.2.8.5.8h.5c0-.7.6-1.1 1.8-1.1l3.8-1.5.3 1.8v.8h.5c0 .4.6.9 1.8 1.5h1.5v-1c-.5 0-.8-.2-.8-.5v-.8l.3-1.3h.5c.3 0 .5.3.5 1h.3l.3-1.2-2.8-1.6-.6-.5v-.7c0-.6.4-1.5 1.1-2.6v-3l.3-.3-1.6-3.8 1.1.5.3-.3v-.7h-1.8l-1-1.1.3-.2v-.3h-.3l-.8.3c-.8-1.2-3.7-1.8-8.7-1.8h-10.8l-.5-.6v-11.9l.5-.5h12.7v.8h.6c0-.8 1.3-1.2 3.8-1.2 3.1-1.3 4.6-3.7 4.6-7.1l.3-1.8h-.5v-2h-.5l.3.3v.3l-.3.3h-.3c-1.5-2.2-4-3.3-7.4-3.3h-13.3l-.5-.6v-12.4zm.8 4v.3l.6.6.8-.3v-.3l-1-.3zm5.6 56.5c0 .4-.5 1-1.5 1.8.3 0 1 .6 2 1.8.1-.7.4-1.1.8-1.1l-.3-.3.3-1.3v-.2c-.5 0-.8-.3-.8-.8zm-1.3-60.3v1.3l1.3-.3zm1.6 65.4v.8l.6-.5-.3-.3zm2 4-.3 1h2.1v-.5l-.6-.6zm.3-10.1v.2c.1.5.8.7 2.1.7h.3c-.2-.7-.7-1-1.6-1zm.7-21.2h1.6l-.5-.5h-.5zm.6 29.1v1h.3l.3-.2h.3l.3.2v-.2c-.2-.3-.5-.5-1.2-.8zm.2 1.5v.3l.3.7h.5l.3-1zm1.1-8.9 1.3.5.3-.2h.3l-.6-1.2c-.9.3-1.3.6-1.3.9zm0 3.6v.2l.3.3v.2l-.3.3h.3l.3-.3 1.3.3h.5v-1.1l-1.3-.3zm1.8-60.8v1h.5v-.5zm.7 2-.3.3v.3l1 1c.5-.3 1.2-.5 2.1-.5 0-.3-.3-.5-.8-.5l-1.3.3zm.3-2.5v.5l1-.3v-.3zm.5 25.5-.3.3v.6c1 .2 1.6.5 1.6 1h.3v-.5c-.4 0-.6-.4-.6-1.1zm0-15.9.5.5h.5l-.3-.7zm.2 49.4-.3 1c.9 0 1.3.3 1.3 1h.3v-.7l-.3-1.2zm.5-29.6-.5 1h1.1l.5-.5v-.3zm.5 4v.5c.4 0 .8.3 1.3.7h.3c-.1-.4-.5-.8-1.3-1.3zm.7 31.5v1h1v-1zm2.6-63.4c0 .3-.3.5-.8.5v.6h.8c0-.4.3-.6.8-.6l-.5-.5zm0 22.3v.5l.5.5h.3l-.3-1zm1.8 28.3h.3c0 .5.6 1.3 1.8 2.3-.2.7-.8 1-1.8 1-.8-1-1.3-1.8-1.3-2.5zm-.8-45.3v.5l1.3-.3h.8v-.5h-.8zm.8 2.3v.3l.8 2.3h.3c0-.7.5-1.1 1.5-1.3l-.3-.7h-1.3l-.8-.5zm.2 23.1c.3.8.7 1.2 1.1 1.2h.3l-.8-1.8zm0 5.8v.5h.8l.5-.5zm.5-10.4v.7h.6l.5-.5zm.3-8.8v.5l1-.5v-.2h-.3zm.3-6.6c.2.7.5 1 .8 1l.3-.2v-.8h-.5l-.3-.2zm.2 26.3v.5h.8v-.5zm.3-34.5.5 1h.3v-1zm.5 9.4-.3 2 .3.3h1l.6-2.1h-.3zm0 11.4v.5l.5.5h2.1v-.5h1.3l.8.5h.5c0-.6-1.2-1.1-3.6-1.5h-.6zm.5 6.6h.3l.5-.5h-.3zm1.1-23v1.2h.8v-.2c-.3-.7-.6-1-.8-1zm.2 10.4.3 1h.3c.2 0 .5-.3.8-1zm2.5 18.7c.9 0 1.3.5 1.3 1.6h.8c0-.9.2-1.3.5-1.3l.3.3 2.1-.6h.3c.3 0 .5.3.5.8.3.3.8.5 1.6.5v.5c-1.2 1.2-1.8 2.3-1.8 3.1l.8.7v.3c-.4 0-.8.3-1.3.8h-1v2l-1.8.5-.5-.5-.5 1.6.3 1-.8.8.8 1.3v.5c0 .3-.7.6-2.1.7l-.3-.2-.3.2v.3c.4 0 .7.3.8 1l-.5.5c1 0 1.6.4 1.6 1.3 0 .4.8.8 2.3 1.3.1-.9.3-1.3.6-1.3l-.3-.3v-.2l.3-.3v-.2l1.3.2h.3l-2.1-1.2-.3.2h-.3l-.3-.2v-.3l.5-1.2 3.6-.2v-.3l-.5-.7-1.3.2-1.3-.5v-1.1l.3-.3-.3-.2v-1l.8-.8h1.8l-.3 1.3.3.2h.5l.3-1.3-.3-1.8.3.2h.3l.5-.5v-.3l-.3-.2v-.3c1-.4 1.5-.8 1.5-1.1l-.8-1.2c.4-1 .7-1.6 1-1.6l.3.3v-.3l-1-1.5.5-.8v-.6l-.3.3h-.3l-.3-.3-.3.3h-.3c-.3 0-.5-.3-.5-.7h-3.9c-.3 0-.6-.8-.8-2.3l1.6-.5.3.2h.8v-.2c-.6 0-1.3-.3-2.1-.8-1.3.9-2 1.7-2 2.3zm-.2-24.6.6.7-.8 2.3h.3l3.1-.7c-.9-1.5-1.9-2.3-3.2-2.3zm.5 29.7-.6 1 .3.3-.3.3h1.6l-.5-.8 1-.3v-.5zm.3-32.5v.2c.5 0 1 .6 1.5 1.8l.3.3h.3l.3-.3v-.2c-.4-1-1-1.6-2-1.8zm0 9.6.3.2v.3l-.3.2v.3h.5l.5-1.6zm.2 39.3v.2l.5.5h.3v-.5l-.3-.2zm2.9-2.3-.6 1v.3c.9-.2 1.3-.5 1.3-.7l-.5-.5zm0-41.5.3 1.2h.3v-1.2zm.2-2.3v.2l.5.5v-.2zm1.5 26.1v.8l.8-.3v-.2zm1.3-15.5 1 .7-1.8 2.1h-.3v-.8c.8-.8 1.1-1.4 1.1-2zm0-2.5v.8h-.6v-.3zm-.2-5v.8h.5v-1.3zm.2-5.4v.6h1.3v-.6zm0 40v.2l.8 1.8-.3 1.3h.5c0-.3.3-.5 1-.5v-.5c-.5 0-.8-.4-.8-1.3l.5-.8v-.2zm.6-29.1h.3l1.3.3c0 .9-.3 1.5-1 1.8h-.5v-.3l.3-.2-.3-.3zm.5 36h.3l1.3.5v.5l-1.1 1.1h-.5l-.5-.5v-1.1zm1.5-13 .5.5.5-.5zm.8 4.8v.2l.5.6v-.8zm0 2.8.3.2h.8v-.7h-.5z"/><path d="m349.6 104 25.5 71.4h-18.6c-2.8-10.2-4.4-15.2-4.8-15.2h-19.9l3.9-13.2h12.2v-.2c-3.4-10.7-5.9-19.4-7.5-26.3h-.3c0 2-3.4 14.2-10.2 36.7-1.9 6.7-3.2 10.6-3.9 11.7h-.5v.5l.5.7-1.5 5.4h-.3l-.8-.3-1.3.3h-1.3l-.8-.3-1.3.3h-3.3l-1.6-.3-.8.3v-.3l-.3.3h-3.1v-3.3l.3-1.6-.3-.7.3.2h.3l.3-.2v-.3h-.8v-3.3l.5-.5h.5l.8.2v-.2l-.3-.8h-.6l-.3.3-.8-.3.3-2h.3l2.1-6.6.8.5.3-.3v-.2l-.8-.6 1.5-4.6h.3c0 .3.3.5.8.5v1.6l.5-.6v-2.3c0-.5.5-.8 1.5-.8v-.2l-.3-.8h-.5c-.6 0-1.1.9-1.5 2.6h-.5v-.2l1.5-4.9h1v.5h.8v-.6l-.6-.8.6-1.6-.3-.2h-.3c0 1.2-.2 1.8-.5 1.8h-.3l5.6-16.7h.3v.5h.5l-.5-.7c.2-1.4.6-2.1 1.1-2.1l-.3-.2v-.3l7.7-21.8zm-38.8 68.2v.7c.7-.2 1.1-.5 1.1-.7zm1.7-9.2c0 .3-.3.5-.8.5l.5.5h.3l1-.5v-.5zm1.5 1.3c-.7 0-1 .3-1 .8h1v-.6l.8-.2-.3-.7-.2.2h-.3zm.3-10.4v.2l1.3.5-.3-.7zm1.6 5v1.1h.8c0-.3.3-.5.8-.5v-.6l-1.3.3zm0 12v.3l1.3.5c0-.3.3-.5.8-.5v-.3l-.6-.5h-1zm1.5-15.5v.5h1.1v-.5zm1.8 12.7-.5 2 .5 1.6-1.8.7.3.8h.5c0-.4.3-.7 1-1h1.3v.5c.5 0 .8.5 1.1 1.6h.8l-.5-1.8c.5 0 .8-.2.8-.7l-.5-1.6v-.2h.5v-.7h-.5l-.5.5v.3l.3 2.3-2.3-1.8v-1l.5-.7v-.3zm-1-25.8v.2l.5.5.3-.2v-.5zm2.8-3.6c0 1-.4 1.5-1.1 1.5l.3.3v.2c-.5 0-.8.4-.8 1.1h1c0-1.4.4-2.1 1.1-2.1v-1zm-1.6 12.1v.3l.5-.5v-.3zm.3 7.1v.5h1.8v-.3l-.8-.2v.2l-.3-.2zm1-2.5-.3.3v.2l.8.6h.3v-.2zm-.3 10.7v.3l.3.7h.5v-1zm.9-32v.5l1.3-.2v-.3zm1.5 14.8c.5.7.9 1 1.3 1v1.6h.5l.5-1c-.3-.7-.8-1.2-1.5-1.6zm.2 5v1l.3-.2h.3l-.3-.7zm2.1 11.7c0 .3-.3.5-.8.5.7.6 1 1.2 1 1.8h.3l.5-.5v-.2c0-.9-.3-1.4-1-1.6zm.5-20.3-.3.3v.2h.8zm.5-19.3v.6l1.1.2v-.2l-.8-.6z"/><path d="m384.6 103.5.3.3h2.8l.5.5v28.7l-.3 1 .3.7h-.3l.3.3v8.4l-.3.3.3.3v31l-.5.5h-1.6v-.8h-.5c0 .5-.2.8-.5.8h-8.1v-.8h-.5v.8h-4.1l-.5-.5v-70.5l.5-.5h12zm-10.5 65v.5h.8v-.5zm.3 3.8v.8l.5-.5v-.3zm1-.2h1.1l-.6-.5zm3.3-1.8v.2c1.2-.2 1.8-.4 1.8-.7v-.3h-1zm.8 2.3.3.7h.3v-.7zm2.3-30c0 .6-.5 1.1-1.6 1.3v.2h1.3l.5-1.3v-.3zm-1 22.3v.3l.8.8h.3v-1.1zm1.8 7.7-.5.5v.8l.8-1.1v-.2zm-.3-6.6v.5h.8l-.5-.5zm.8-20.8v.5h1l.3-1h-.4zm.2 26.9-.3.2v.3h.8zm1.8-14.3c0 .5-.5.8-1.6.8v.5l2.1-.8v-.5zm-.3-23.8.5.5h.3v-.5zm1 22.3-.3 1.1h.5l.3-1.1zm1-23.8c0 .7-.3 1-1 1v.3h.3c.8-.3 1.2-.7 1.3-1v-.3zm-.7 10.1v.5h1.1v-.5zm.5-17.2v.5h.8v-.5zm4.6-21.6h13.8c10.3.5 15.3 2 15.3 4.4h1.3c4.8 3.4 7.2 8.6 7.2 15.4 0 7.6-2.9 12.9-8.8 16l-.5-.5c0 .8-1 1.4-3.1 1.8v.3c3 0 5.7 2.6 8.2 7.9l-.3.3h-1l-.3-.3h-.2l-.3 1.1h.3l1.6-.3c.7 0 1.2 1.9 1.6 5.6h-.6l-1.3-.2-1 1.2c.5 0 .9.3 1.3 1.1v.5l-.3.3v.2h1.8v-.8h.5l1.5 7.9c-1 .3-1.5.7-1.5 1v.3h1.3c.5 0 1 1.2 1.6 3.6l-.8.8v.8l.8-.5h.3c.4.2 1.1 1.1 2.1 2.8l-1.1 1h-4.1l.5-2.1v-.7c-.5 0-.8.9-1 2.8h-4.4l-.5-.5.3-.3h.5l1.3.3v-.8l-.3-1 .8-1 1.3.2 1.1-.2v-1.4c-2.6.6-3.9 1.1-3.9 1.6l.3 1.6-.3.2h-2.4c0 .8-.2 1.3-.5 1.3h-4.1c-.6 0-1.6-2-3.1-6.1l.3-.8c-.5 0-1.4-4.5-2.8-13.4-.6-2.1-2-3.8-4.1-5.1-2-.7-4.8-1.1-8.2-1.1v-.8h.5v-.5h-.5c0 .3-.3.5-1 .5v.8l-4.4.3h-.8l-.5-.6v-4.8c0-.4.4-.6 1.3-.6v-.4h-.3l-.8.2-.3-.2v-6.4l.5-.5h6.4c10.1 0 15.1-3 15.1-8.9v-2.1c-.6-4.9-3-7.4-7.2-7.4 0-.3-2.1-.5-6.4-.5h-8l-.5-.5v-12.4zm3.1 39.3v.3l1.6.8h2.3v-.5h-2.3c-.4 0-.6-.3-.6-.8zm.5-6.1v.5l.5.6-.3.3v.7h1.1l-.3-.2v-.3l.8-1.1-1.6-.5zm2.6-.5-.3 1h.8v-1zm1 7.7.5.5h1.5v-.2l-.5-.5zm2.9-2.3.3.7h.5l.5-.5v-.2l-1.3-.2zm5.8-5.9.5.7-.3.2h-.3l-.3-.2c-.9 0-2 .4-3.4 1.3h-.8l.3.3v.2l-.5 1.5h.8c1-.4 1.6-1 1.6-2l.8-.6h1.1c.5 0 .8.4.8 1.1h.5l.8-1.3c-.3 0-.5-.3-.5-1l-.3-.2zm1.7 10.7.8 3.8h.5v-.7l-.5-2.1.5-.7v-.2zm2.3-6.1-.5 1.1 2.6 1v-.5c-.3 0-.5-.3-.5-1l-1.1-.6zm0-7.1 1.1 1h1l.5-.5h-2.1v-.5zm.8 28.4c.2 1 .5 1.5.8 1.5l.5-.5v-.3l-.8-.7zm.6-9.7-.3 1v.3h.3l.3-1v-.2zm1-7.5-.3.2v.5l1-.5v-.2zm-.3 12.1 1 1.5h.5v-.5c-.5 0-.8-.3-.8-1zm.3 10.2c1.1.3 1.8.8 2.1 1.5l2.3.8v-.8c-1.2 0-2.1-.6-2.8-1.8l-.3-.2h-.8zm.5-3.6.5.5h.6v-.5zm0 6.6.5.5h.3l-.5-.5zm.2-33.5v2h.5v-2zm.5 24.1v.3h.6v-.7zm1.3-30.2-.3.7.3.7h.3l.3-1.5zm.8 22.1v.2h.3l.8-.7v-.6zm0 21v.6h.3l1.3-.2v-.8h-.5zm.7-18.7h.3l.5-.6h-.3zm1.4 4.8-.8-.5-.6.5v.2h1.8l.3.3c1-.4 1.6-.7 1.6-1.1l-.3-.2h-.3c-.6.5-1.2.8-1.7.8zm-1.4 2.8.3 1h.3l1-.5v-.6zm.9-4.3v.2l.5.5h.5l.5-.5zm1.7 10.9c0 .7-.2 1-.5 1l.3.3v.2l-.5.8v.3h1.1v-2.6zm-.2-49.7h.3l.6-.5h-.3zm.5 35.5v.5l1.3-.2v-.3zm.5 10.1c0 .3.6.9 1.8 1.6h.6v-.3c0-.3-.6-.7-1.8-1.3zm.3-7.6h.5l1-.6v-.5h-.3c-.7.4-1.2.8-1.2 1.1zm1.2-6.4-.5.8 1 .7.3-.2h.3l1.5 1v-2h-.8l-1.3.2zm-.5 11.5v.6h1v-.6zm.3-14.2v.3l.8.2v-.5zm.7 4.8v1.6c.4 0 .6-.3.6-.8l-.3-.7zm1.1 14.5.5.5.5-.5zm2.8 1.5v.5h1v-.5zm4.8 7.8h1.3l.5.5-.5.5h-1.3l-.6-.5z"/><path d="m245.1 103.8h5.1v71.6h-5.1z"/><path d="m247 103.8h5.5v71.5h-5.5z"/><path d="m239.7 103.8h3.2v71.6h-3.2z"/><path d="m230.3 103.8h6.4v71.6h-6.4z"/><path d="m219.8 177.6v-71.6s-.1-3.9 3.6-3.5c0 0 3.8-.1 2.3 7.1 0 0-2.5 7.9-3.4 11.1-1 3.4-.1 6.3 3.7 7.1 0 0 1.3.3 4.3-.5 0 0 1.8 48-10.5 50.3zm3-69.6c.7 0 1.3-.6 1.3-1.3s-.6-1.3-1.3-1.3-1.3.6-1.3 1.3.6 1.3 1.3 1.3z"/><path d="m214.2 163.3c-.1-1.7-.9-7-.9-7-.2-2-.1-3.4-.1-3.4.1-2.5 1.8-3.7 1.8-3.7 1.6-1.6-.3-1.6-.3-1.6h-1.3l-.6-22.3c4.1-1.5 4.3-4.4 4.3-4.4.9-11.6-3.7-21.9-3.7-21.9l.3 17.6c-.1 2.3-2.9 2.1-2.9 2.1-2-.2-2.3-2.2-2.3-2.2l-.4-16.5c-3.2 9.1-3.3 19-3.3 19 .4 5.1 4.4 6.3 4.4 6.3l-.4 22.5h-1.1c-1.8.2 0 1.8 0 1.8 1.5 1.1 1.5 3.2 1.5 3.2.2 1.1-.8 7.6-.8 7.6s-1.3 11.9-.1 15.4c0 0 .5 1.4 1.3 2 0 0 1.6 1 2.7 0 0 0 .7-.5 1.2-2.1.2.1 1.4-2.2.7-12.4z"/><path d="m196.1 99.8-.2 10.8s-9.8 1.5-4.1 10.3c0 0-4.8 3.9-.4 11.4 0 0 1.4 1.6.7 2.2 0 0-3.8 4.1.9 8.6 0 0-4.1 5.1-.4 8.1 0 0-5.4 9.5 5.3 9.1l2 16.2s1.7 1.2 3.4-.3l-1-17.5s6.8-2.9 3.4-7c0 0 3.1-6.6-1.2-7.1 0 0-1.3-.6-.4-2.1 0 0 2.7-5.9.7-6.8 0 0 1.6-2.3 2.7-2.3 0 0 1.6-8.3-5-11.4 0 0 4.9-10.2-3.1-11.2z"/><path d="m187.2 105c.3 4.6 1.2 49.7 1.2 49.7l3.1 19.9c-.5 2.3-5.3 1.1-5.3 1.1-1.8-3.5-2.5-19.1-2.5-19.1-1.5-4-11.8-3.9-11.8-3.9-12.2-34.5-8-49.4-8-49.4s21.8-.4 22.3-.4c1 0 1 2.1 1 2.1zm-5.8 5.8c1.3 0 2.4-1.1 2.4-2.4s-1.1-2.4-2.4-2.4-2.4 1.1-2.4 2.4 1.1 2.4 2.4 2.4z"/></g></svg>