<?xml version="1.0" encoding="utf-8"?>
<!-- Generator: Adobe Illustrator 26.2.1, SVG Export Plug-In . SVG Version: 6.00 Build 0)  -->
<svg version="1.1" id="Layer_1" xmlns="http://www.w3.org/2000/svg" xmlns:xlink="http://www.w3.org/1999/xlink" x="0px" y="0px"
	 viewBox="0 0 999 116.96" style="enable-background:new 0 0 999 116.96;" xml:space="preserve">
<style type="text/css">
	.st0{fill:#FFFFFF;}
</style>
<path class="st0" d="M620.38,116.96c-0.1-6.76-0.28-13.53-0.29-20.29c-0.03-23.29,0-46.59,0-69.88c0-1.28-0.11-2.55-0.24-5.41
	c-1.84,2.33-2.96,3.56-3.86,4.93c-11.59,17.52-23.16,35.06-34.73,52.59c-3.86,5.86-5.84,5.97-9.66,0.25
	c-12.02-18.03-23.98-36.1-35.97-54.16c-0.62-0.94-1.32-1.83-3.16-2.6c0,31.52,0,63.05,0,94.57c-3.33,0-6.66,0-9.99,0
	c-0.06-29.87-0.13-59.75-0.18-89.62c-0.01-6.11,0.08-12.22-0.04-18.32c-0.06-2.92,1.05-3.92,4.06-4.18
	c5.4-0.48,8.74,1.28,11.77,6.03c11.63,18.25,23.79,36.18,35.76,54.23c0.54,0.81,1.17,1.57,2.12,2.84c1.01-1.16,1.93-2,2.58-2.99
	c12.18-18.5,24.32-37.02,36.48-55.53c2.69-4.1,8.08-6.19,12.35-4.12c1.31,0.63,2.18,3.43,2.19,5.24
	c0.14,23.44,0.12,46.88,0.08,70.32c-0.02,12.04-0.17,24.09-0.26,36.13C626.37,116.96,623.38,116.96,620.38,116.96z"/>
<path class="st0" d="M750.25,116.96c0.09-19.64,0.2-39.28,0.25-58.92c0.04-15.68,0.14-31.37-0.08-47.05
	c-0.06-4.41,1.09-6.28,5.84-6.14c14.78,0.43,29.63-0.22,44.35,0.92c21.17,1.64,40.1,19.85,44.44,40.5
	c3.56,16.96,1.63,32.82-7.97,47.42c-7.21,10.96-17.49,17.83-30.16,21.32c-1.32,0.36-2.49,1.29-3.72,1.95
	C785.55,116.96,767.9,116.96,750.25,116.96z M761.08,13.89c-0.51,0.88-0.66,1.02-0.66,1.16c-0.07,29.72-0.12,59.44-0.23,89.16
	c-0.01,2.81,1.54,3.24,3.83,3.2c10.97-0.21,22,0.25,32.91-0.72c12.59-1.12,23.16-6.85,30.53-17.43
	c9.08-13.02,11.37-27.34,7.07-42.47c-4.08-14.38-12.99-24.72-27.6-29.55C791.91,12.27,776.4,14.3,761.08,13.89z"/>
<path class="st0" d="M653.35,116.96c-0.17-1.62-0.49-3.25-0.5-4.87c-0.03-33.54-0.02-67.08-0.02-100.62c0-6.53,0.01-6.54,6.69-6.54
	c22.3,0,44.61-0.01,66.91,0.01c2.46,0,5.17-0.5,5.47,3.3c0.29,3.69-0.32,5.79-4.96,5.73c-19.31-0.23-38.62,0.07-57.92-0.21
	c-4.89-0.07-6.16,1.43-6,6.12c0.35,10.23,0.31,20.49,0.01,30.72c-0.12,4.29,1.48,5.3,5.49,5.26c18.14-0.17,36.29-0.07,54.43-0.08
	c2.74,0,5.47-0.17,5.74,3.73c0.27,3.77-0.66,5.82-5.14,5.78c-18.14-0.18-36.29,0.08-54.43-0.18c-4.82-0.07-6.29,1.27-6.11,6.09
	c0.37,10.23,0.33,20.49,0.01,30.72c-0.14,4.5,1.48,5.58,5.75,5.53c18.97-0.19,37.95-0.08,56.93-0.08c8.58,0,9.2,0.78,7.56,9.58
	C706.63,116.96,679.99,116.96,653.35,116.96z"/>
<path class="st0" d="M888.11,116.96c6.13-13.85,12.18-27.74,18.41-41.56c9.96-22.09,20.17-44.07,29.96-66.24
	c1.76-3.99,4.33-4.24,7.84-4.3c3.39-0.06,5.38,0.92,6.88,4.25c15.57,34.56,31.33,69.04,46.98,103.57c0.58,1.29,0.57,2.84,0.83,4.27
	c-3.66,0-7.33,0-10.99,0c-3.54-8.46-6.99-16.96-10.73-25.34c-0.4-0.89-2.45-1.49-3.75-1.49c-19.81-0.09-39.62-0.13-59.42,0.06
	c-1.54,0.01-3.82,1.44-4.47,2.8c-3.73,7.89-7.07,15.96-10.54,23.97C895.44,116.96,891.77,116.96,888.11,116.96z M943.76,15.65
	c-9.82,22.12-19.06,42.92-28.41,63.98c19.52,0,37.96,0,56.95,0C962.79,58.32,953.61,37.73,943.76,15.65z"/>
<path class="st0" d="M0,111.01c2.34-5.36,4.98-10.62,6.97-16.11c6.84-18.86,13.42-37.82,20.17-56.71
	C31.28,26.59,35.46,15,39.91,3.52c0.57-1.48,2.78-3.03,4.41-3.27c3.42-0.5,6.97-0.06,10.46-0.18c4.01-0.14,5.56,1.07,4,5.29
	c-4.94,13.43-9.65,26.94-14.48,40.4c-7.5,20.91-15.12,41.77-22.48,62.73c-1.45,4.13-3.31,6.56-8.12,5.86
	c-4.54-0.66-9.14-0.92-13.71-1.35C0,112.33,0,111.67,0,111.01z"/>
<path class="st0" d="M866.13,116.96c0.03-35.47,0.13-70.94,0.02-106.4c-0.01-4.36,1.44-5.87,5.76-5.72
	c3.47,0.12,4.63,1.41,4.62,4.77c-0.07,34.97-0.04,69.95-0.05,104.92c0,0.81-0.23,1.62-0.35,2.44
	C872.79,116.96,869.46,116.96,866.13,116.96z"/>
<path class="st0" d="M197.37,78.66c2.2-6.64,4.46-13.26,6.58-19.92c5.42-16.98,10.8-33.97,16.15-50.97c0.9-2.86,2.34-4.37,5.69-4.24
	c6.27,0.25,12.56,0.07,19.95,0.07c-1.81,5.28-3.26,9.71-4.86,14.09c-10.78,29.62-21.68,59.2-32.31,88.87
	c-1.72,4.79-3.85,7.02-9.46,6.78c-12.04-0.51-12.07-0.14-16.13-11.09c-6.16-16.64-12.3-33.3-18.47-49.94
	c-0.39-1.05-0.96-2.04-1.95-4.11c-2.82,8.37-5.16,15.9-7.9,23.28c-4.91,13.27-10.01,26.46-15.2,39.63
	c-0.43,1.09-2.09,1.74-3.25,2.47c-0.36,0.23-0.98,0.11-1.48,0.08c-4.95-0.22-11.09,1.24-14.52-1.14c-3.41-2.37-4.25-8.54-5.96-13.14
	c-11.55-31-23.03-62.02-34.53-93.03c-0.22-0.6-0.33-1.24-0.86-3.25c4.35,0,8.21,0,12.07,0c13.42,0,13.32,0.03,17.41,12.75
	c6.05,18.82,12.26,37.59,18.39,56.38c0.6,1.84,1.18,3.68,2.24,7c2.69-7.66,4.98-13.99,7.15-20.36
	c5.98-17.59,11.84-35.21,17.96-52.75c0.45-1.29,2.43-2.59,3.89-2.88c2.4-0.48,4.99,0.07,7.46-0.18c3.51-0.35,5.15,1.39,6.19,4.4
	c6.46,18.86,12.98,37.71,19.48,56.56c1.66,4.81,3.3,9.62,4.94,14.43C196.48,78.53,196.93,78.59,197.37,78.66z"/>
<path class="st0" d="M444.67,115.09c-33.64-0.01-56.68-22.71-56.67-55.83C388,25.51,411.62,1.68,445.04,1.7
	c33.65,0.02,56.81,23.3,56.74,57.03C501.72,92.68,479,115.11,444.67,115.09z M445.03,95.5c21.98,0.03,35.53-14.05,35.58-36.97
	c0.05-22.45-14.08-37.26-35.54-37.25c-21.49,0.01-35.81,14.9-35.79,37.21C409.3,81.14,423.15,95.47,445.03,95.5z"/>
<path class="st0" d="M350.89,23.47c-16.08,0-31.21,0-46.34,0c-7.16,0-7.16-0.01-7.15-7.03c0-12.84,0-12.84,12.78-12.84
	c21.47,0,42.94-0.05,64.4,0.07c2.64,0.01,7.52,0.8,7.55,1.43c0.21,3.75,0.49,8.36-1.45,11.23c-10.38,15.35-21.42,30.25-32.2,45.33
	c-7.1,9.93-14.15,19.89-21.92,30.83c2.78,0.14,4.48,0.29,6.17,0.3c14.81,0.02,29.62,0.14,44.43-0.07c4.38-0.06,5.76,1.4,5.74,5.72
	c-0.06,14.76,0.08,14.77-14.84,14.77c-21.47,0-42.94,0-64.41,0c-7.71,0-8.02-0.02-7.54-7.39c0.21-3.23,1.3-6.84,3.16-9.47
	c16.59-23.53,33.44-46.89,50.2-70.3C349.85,25.52,350.09,24.94,350.89,23.47z"/>
<path class="st0" d="M258.01,58.2c0-16.5,0.11-33.01-0.08-49.51c-0.04-3.83,0.95-5.44,5-5.16c4.14,0.29,8.31,0.17,12.46,0.04
	c3.14-0.1,4.42,0.99,4.41,4.29c-0.09,33.66-0.09,67.33,0,100.99c0.01,3.22-1.09,4.47-4.32,4.36c-4.32-0.16-8.65-0.2-12.96,0.02
	c-3.46,0.18-4.61-1.05-4.58-4.54C258.09,91.86,258.01,75.03,258.01,58.2z"/>
</svg>
