<svg xmlns="http://www.w3.org/2000/svg" viewBox="0 0 494.4 493.6"><path d="M41.2 40.7c-12.3 11.9-22 26.7-28 42.9-6.8 17.6-10.3 36-11.4 59.7-1.2 27-1.5 36-1.5 103.6s.3 76.6 1.5 103.7c1.1 23.6 4.6 41.9 11.4 59.6 6.1 16.3 15.5 30.7 27.9 42.8 12.3 12.5 26.7 21.8 42.9 27.9 17.6 6.8 36 10.3 59.7 11.4 27.1 1.2 36.1 1.5 103.7 1.5s76.5-.3 103.7-1.5c23.6-1.1 41.9-4.6 59.6-11.4 32.5-12.6 58.3-38.4 70.8-70.8 6.8-17.6 10.3-36 11.4-59.6 1.2-27.1 1.5-36.1 1.5-103.7s-.3-76.6-1.5-103.7c-1.1-23.6-4.6-41.9-11.4-59.6-6.1-16.3-15.5-30.7-27.9-42.8-12.2-12.4-26.6-21.8-42.9-28-17.6-6.8-36-10.3-59.6-11.4-26.8-1-35-1.3-103.8-1.3-67.6 0-76.6.3-103.7 1.5-23.6 1.1-42 4.6-59.5 11.4-16.4 6-30.8 15.4-42.9 27.8zm104-3.9c26.9-1.3 35.2-1.5 102-1.5 68.7 0 75.7.3 102 1.5 25.4 1.1 39.2 5.4 48.4 9 11.3 4.2 22 11.1 30.7 19.9 8.8 8.5 15.7 19.2 20 30.8 3.6 9.2 7.9 23 9 48.3 1.2 26.3 1.5 33.4 1.5 102 0 68.7-.3 75.7-1.5 102-1.1 25.4-5.4 39.2-9 48.4-9 23.2-27.4 41.7-50.7 50.6-9.2 3.6-23 7.9-48.4 9-26.3 1.2-33.4 1.5-102 1.5-68.7 0-75.7-.3-102-1.5-25.4-1.1-39.2-5.4-48.4-9-11.3-4.2-22-11.1-30.7-19.9-8.8-8.5-15.7-19.2-20-30.8-3.6-9.2-7.9-23-9-48.3-1.2-26.3-1.5-33.4-1.5-102 0-68.7.3-75.7 1.5-102 1.1-25.4 5.4-39.2 9-48.4C50.3 85.2 57.2 74.5 66 65.8c8.5-8.8 19.2-15.7 30.8-20 9.2-3.6 23-7.9 48.4-9zm102 85.6c-68.6 0-124.4 55.8-124.4 124.4s55.8 124.4 124.4 124.4 124.4-55.8 124.4-124.4-55.8-124.4-124.4-124.4zm0 213.4c-49.1 0-89-39.9-89-89s39.9-89 89-89 89 39.9 89 89-39.9 89-89 89zm162.2-223.5c0 15.3-12.4 27.7-27.7 27.7S354 127.6 354 112.3s12.4-27.7 27.7-27.7 27.7 12.4 27.7 27.7z"/></svg>