<?xml version="1.0" encoding="utf-8"?>
<!-- Generator: Adobe Illustrator 22.1.0, SVG Export Plug-In . SVG Version: 6.00 Build 0)  -->
<svg version="1.1" id="Layer_1" xmlns="http://www.w3.org/2000/svg" xmlns:xlink="http://www.w3.org/1999/xlink" x="0px" y="0px"
	 viewBox="0 0 53.8 56.8" style="enable-background:new 0 0 53.8 56.8;" xml:space="preserve">
<style type="text/css">
	.st0{fill:none;stroke:#000000;stroke-miterlimit:10;}
	.st1{fill:#FFFFFF;}
	.st2{fill:none;stroke:#000000;stroke-linecap:round;stroke-linejoin:round;stroke-miterlimit:10;}
</style>
<g>
	<path d="M49.6,16.3l3.2,7v32.5h-6.4V23.3L49.6,16.3 M49.6,13.9l-4.2,9.2v33.7h8.4V23.1L49.6,13.9L49.6,13.9z"/>
</g>
<line class="st0" x1="49.6" y1="23.1" x2="49.6" y2="56.8"/>
<g>
	<path d="M49.6,16.3l2.6,5.8H47L49.6,16.3 M49.6,13.9l-4.2,9.2h8.4L49.6,13.9L49.6,13.9z"/>
</g>
<g>
	<path d="M31,6c2.6,0,4.8,2.1,4.8,4.8V51c0,2.6-2.1,4.8-4.8,4.8H1V6H31 M31,5H0v51.8h31c3.2,0,5.8-2.6,5.8-5.8V10.8
		C36.8,7.6,34.2,5,31,5L31,5z"/>
</g>
<line class="st0" x1="27.4" y1="5" x2="27.4" y2="56.8"/>
<line class="st0" x1="23.6" y1="5" x2="23.6" y2="56.8"/>
<polyline class="st0" points="10.6,6 10.6,1.6 8.4,3.2 6.1,1.6 6.1,6 "/>
<polygon points="49.6,15.1 48.2,17.4 50.8,17.4 "/>
</svg>
