<?xml version="1.0" encoding="utf-8"?>
<!-- Generator: Adobe Illustrator 22.1.0, SVG Export Plug-In . SVG Version: 6.00 Build 0)  -->
<svg version="1.1" id="Laptop" xmlns="http://www.w3.org/2000/svg" xmlns:xlink="http://www.w3.org/1999/xlink" x="0px" y="0px"
	 viewBox="0 0 130 150" style="enable-background:new 0 0 130 150;" xml:space="preserve">
<style type="text/css">
	.st0{fill:#221F1F;}
	.st1{fill:#E5E0DB;}
	.st2{fill:url(#SVGID_1_);}
	.st3{fill:url(#SVGID_2_);}
</style>
<g>
	<path class="st0" d="M124.4479,112.3337c0.4323,0.9572,0.4426,1.6468,0.4323,2.2025s0.0823,1.4615,0.072,2.1202
		s0.3602,1.7497,0.4323,2.1819c0.072,0.4323,0.2882,1.2968,0.1132,2.7069c-0.175,1.41,0.1955,1.3997,0.1955,2.8201
		s0.0206,2.4495-0.2985,3.3964c-0.3191,0.9469-0.6431,1.757-2.5183,2.2431c-1.8752,0.4861-2.3006-0.3212-2.3006-0.3212
		l0.5035-0.0347c0,0,0.2691,0.1302,0.382,0.1736c0.1129,0.0434,0.5529,0.0724,0.5529,0.0724
		c0.305-0.1398,1.311-0.4297,1.6772-0.7672c0.3661-0.3375,0.6865-0.5721,0.9497-1.4989c0.2632-0.9268,0.5206-1.9852,0.4691-3.0035
		c-0.0515-1.0183-0.0915-1.3501-0.1545-1.7392c-0.0629-0.389-0.0915-0.7952-0.0629-1.1041s0.1259-1.3101,0.0686-1.9165
		c-0.0572-0.6064-0.0858-1.0813-0.3547-1.7506c-0.2689-0.6693-0.0973-1.579-0.1545-2.1797
		c-0.0572-0.6007-0.0858-1.7849-0.2002-2.0767C124.1377,113.5668,124.4479,112.3337,124.4479,112.3337z"/>
	<path class="st0" d="M126.053,107.9429c0.2394,0.006,0.386,0.1314,0.4293,0.273c0.0432,0.1416,0.0703,0.1906-0.0838,1.0173
		c-0.1541,0.8267-3.7698,19.8086-3.9458,20.7114c-0.1761,0.9029-0.4,1.2941-1.5096,1.1013s-9.7055-1.8316-9.8078-1.8523
		s-0.133-0.0361-0.1637-0.0106c-0.0308,0.0255-0.2073,0.02-0.2278,0.0277s-0.0871,0.0433-0.133-0.0054
		c-0.046-0.0487-0.2673-0.1448-0.2724-0.1806c-0.005-0.0358,0.0052-0.0563-0.0766-0.0769s-11.6891-4.0234-12.0682-4.1413
		c-0.3792-0.1179-0.5809-0.518-0.4236-0.9901c0.0862-0.2586,6.89-13.7062,7.5223-15.0581
		c0.6322-1.3204,6.5314,3.3094,10.4324,2.9813C121.5073,111.2533,126.053,107.9429,126.053,107.9429z"/>
	<path class="st1" d="M125.3881,107.4164c0.2084,0.0196,0.2128,0.024,0.3013,0.1037c0.0885,0.0796,0.3716,0.3893,0.3716,0.3893
		s0.2124,0.177,0.1593,0.5309c-0.0531,0.3539-3.9173,20.5482-4.0335,21.0905c-0.1162,0.5423-0.3796,1.2397-1.3869,1.0847
		c-1.0072-0.155-9.9404-1.6968-9.9404-1.6968l-0.7294-0.2486c0,0-11.4192-3.8965-11.8143-4.0514
		c-0.3951-0.155-0.3711-0.4781-0.3685-0.6551c0.0502-0.1573,0.1015-0.4354,0.2424-0.6929
		c0.1409-0.2575,7.267-14.4986,7.3256-14.6023c0.0586-0.1036,0.2384-0.2671,0.4098-0.2687
		c0.1715-0.0017,9.8477,3.0324,9.8477,3.0324L125.3881,107.4164z"/>
	<path class="st1" d="M115.8565,111.1736c-3.2513-1.366-6.6591-1.9426-9.2966-2.723c-0.6381-0.1888-0.8664-0.1925-1.1827,0.4951
		c-0.3163,0.6876-6.8749,13.7324-7.2377,14.439c-0.3629,0.7066-0.207,0.9442,0.4297,1.1363
		c2.4533,0.7402,9.4611,3.1642,11.669,3.9629C110.8015,127.0038,115.8565,111.1736,115.8565,111.1736z"/>
	<linearGradient id="SVGID_1_" gradientUnits="userSpaceOnUse" x1="113.8525" y1="116.7165" x2="122.9785" y2="119.5563">
		<stop  offset="0" style="stop-color:#E9E4DF"/>
		<stop  offset="0.68" style="stop-color:#F1ECE7"/>
	</linearGradient>
	<path class="st2" d="M115.8565,111.1736c0.5507-0.6977,1.5144-1.0927,2.8256-1.5192c1.3112-0.4266,5.087-1.7378,5.8453-2.0222
		c0.7583-0.2844,1.1562-0.397,1.0007,0.2925s-3.8111,20.1054-3.9881,20.9496c-0.177,0.8441-0.4765,1.4432-1.6474,1.2254
		s-8.6209-1.5704-9.6544-1.6158C110.5178,127.6826,115.8565,111.1736,115.8565,111.1736z"/>
	<path class="st0" d="M109.3333,127.1535c0.1164,0.4363-0.2124,0.985-0.1704,1.4203c0.042,0.4353,0.0814,0.6197,0.0814,0.6197
		l0.3987-0.0704c0,0-0.1811-0.3646-0.111-0.9942c0.0693-0.622,0.3827-1.0313,0.3827-1.0313L109.3333,127.1535z"/>
	<linearGradient id="SVGID_2_" gradientUnits="userSpaceOnUse" x1="113.4017" y1="118.869" x2="103.4092" y2="115.7225">
		<stop  offset="0" style="stop-color:#F1ECE7"/>
		<stop  offset="0.4111" style="stop-color:#ECE7E0"/>
	</linearGradient>
	<path class="st3" d="M115.8565,111.1736c-2.3504-4.3944-5.4978-3.4027-8.1199-3.5651c-0.3734-0.0162-0.5825,0.083-0.7613,0.4853
		c-0.1788,0.4022-6.6107,13.6534-6.9722,14.3766c-0.3616,0.7231-0.0301,1.0546,0.4821,1.0546s6.4568,0.4048,9.753,4.959
		C111.154,125.8068,115.8565,111.1736,115.8565,111.1736z"/>
</g>
</svg>
