<?xml version="1.0" encoding="utf-8"?>
<!-- Generator: Adobe Illustrator 22.1.0, SVG Export Plug-In . SVG Version: 6.00 Build 0)  -->
<svg version="1.1" id="Laptop" xmlns="http://www.w3.org/2000/svg" xmlns:xlink="http://www.w3.org/1999/xlink" x="0px" y="0px"
	 viewBox="0 0 130 150" style="enable-background:new 0 0 130 150;" xml:space="preserve">
<style type="text/css">
	.st0{fill:#FFFFFF;}
	.st1{opacity:0.1;filter:url(#AI_GaussianBlur_1);}
	.st2{fill:#221F1F;}
	.st3{fill:#BABCBE;}
	.st4{fill:#CFD1D2;}
	.st5{fill:#C7C8CA;}
	.st6{opacity:0.9;fill:url(#SVGID_1_);}
</style>
<filter  id="AI_GaussianBlur_1">
	<feGaussianBlur  stdDeviation="1"></feGaussianBlur>
</filter>
<path class="st0" d="M0,150V0c0,0,27.1375,0,33.2573,0c26.3945,28.8117-0.3959,57.2088,31.3183,73.2
	C82.7034,82.3113,89.7063,96.7547,79.8,112.9485c-4.4961,7.3498,0,12.7795,5.9241,16.586l0.3572,0.1845l9.5998-1.4074l-0.224-0.2046
	c-8.5772-6.0164,18.5116-11.6672,34.5429-21.9338V150H0z"/>
<g class="st1">
	<path class="st2" d="M74.4045,138.7219c3.3857,4.4142,7.5258,8.4734,6.3886,7.036c0.4564,0.5768,1.3493,1.2798,3.1538,0.9478
		c1.8046-0.3321,29.9751-5.6819,30.4694-5.7837c0.4931-0.1016,0.1739-0.4505-0.0608-0.6534
		c-0.5172-0.4471-9.7122-6.0281-10.0508-6.3544c-0.3386-0.3263-1.2572-0.6489-2.1565-0.5148
		c-0.8993,0.1341-27.8718,4.2984-28.0808,4.3533C73.6823,137.8537,73.9591,138.1412,74.4045,138.7219z"/>
</g>
<path class="st2" d="M102.5688,127.0904l-28.271,4.1463l-2.878-20.3909l10.0099-0.8499c0.1741-0.3538,0.3399-0.7066,0.4978-1.0583
	c-5.0746,0.4118-9.447,0.7653-10.0102,0.8055c-1.3938,0.0995-1.1947,0.8818-1.0667,1.6782
	c0.128,0.7964,2.6453,19.0862,2.8018,20.2809c0.1564,1.1947,0.6827,1.024,1.1662,0.9671c0,0,28.1803-4.0213,28.2793-4.3922
	c0.0989-0.3709,0.0618-0.9397-0.0742-1.8793c-0.0557-0.385-0.5199-3.4658-1.0484-6.9684c-0.1705,0.0794-0.3394,0.1585-0.506,0.2374
	L102.5688,127.0904z"/>
<path class="st3" d="M115.1374,136.0119c0,0,0,0.4056,0,0.488c0,0.0824,0.0528,0.1648-0.2197,0.2345
	c-0.2725,0.0697-29.5443,5.4914-30.0684,5.5766s-1.4385,0.3321-2.2544-0.4621c-0.9137-0.8893-8.0908-8.4221-8.1563-8.4876
	c-0.0655-0.0655-0.1145-0.1179-0.1145-0.3276s0.0043-0.5253,0.0043-0.5253L115.1374,136.0119z"/>
<path class="st4" d="M74.5281,132.8824c2.2767,2.3476,7.3113,7.6024,7.7848,8.0759c0.4735,0.4735,0.7542,1.0221,2.5597,0.7054
	c1.8055-0.3167,29.515-5.3731,30.0092-5.469c0.4931-0.0957,0.1632-0.3811-0.0778-0.5461
	c-0.5313-0.3635-10.1102-6.7622-10.4589-7.0283c-0.3487-0.2661-0.9329-0.7154-1.8335-0.5839
	c-0.9006,0.1315-27.4361,4.1692-27.6448,4.2196C74.4821,132.349,74.0655,132.4054,74.5281,132.8824z"/>
<path class="st3" d="M100.4661,134.4068c-0.8402,0.1427-9.6647,1.5866-9.8903,1.6067c-0.2338,0.0208-0.3947,0.1509-0.1625,0.3599
	c0.2322,0.2089,2.9253,2.5538,3.0414,2.6583s0.2568,0.1763,0.5688,0.1277c0.4073-0.0634,10.3774-1.8452,10.5735-1.8865
	c0.1121-0.0236,0.4072-0.059,0.0413-0.3305c-0.3659-0.2715-3.1813-2.3195-3.3701-2.4553
	C101.0792,134.3512,100.987,134.3213,100.4661,134.4068z"/>
<path class="st3" d="M79.3078,132.7509c-0.4289,0.0613-0.5759,0.1103-0.3063,0.3553c0.2696,0.2451,3.4186,3.1123,3.5411,3.2225
	c0.1225,0.1103,0.2573,0.2328,0.6494,0.1838c0.3921-0.049,22.5804-3.7204,22.7029-3.7449s0.2328-0.0613-0.0368-0.2573
	c-0.2696-0.1961-4.3064-3.0842-4.3876-3.1473c-0.0812-0.0632-0.1624-0.0722-0.415-0.0361S79.3078,132.7509,79.3078,132.7509z"/>
<path class="st5" d="M101.5891,138.5521c-0.0014,0.3379-0.1326,0.3464-0.2102,0.3605c-0.0776,0.0141-2.7797,0.5009-3.0266,0.5432
	c-0.2469,0.0423-0.247-0.0847-0.247-0.2684c0.0307-0.1209,0.1079-0.1606,0.2141-0.1793c0.1062-0.0188,2.958-0.5158,3.0159-0.5303
	C101.3931,138.4633,101.539,138.4768,101.5891,138.5521z"/>
<radialGradient id="SVGID_1_" cx="110.6287" cy="114.5969" r="21.7763" gradientUnits="userSpaceOnUse">
	<stop  offset="0" style="stop-color:#9E9E9E"/>
	<stop  offset="1" style="stop-color:#000000;stop-opacity:0"/>
</radialGradient>
<path class="st6" d="M74.5281,132.8824c2.2767,2.3476,7.3113,7.6024,7.7848,8.0759c0.4735,0.4735,0.7542,1.0221,2.5597,0.7054
	c1.8055-0.3167,29.515-5.3731,30.0092-5.469c0.4931-0.0957,0.1632-0.3811-0.0778-0.5461
	c-0.5313-0.3635-10.1102-6.7622-10.4589-7.0283c-0.3487-0.2661-0.9329-0.7154-1.8335-0.5839
	c-0.9006,0.1315-27.4361,4.1692-27.6448,4.2196C74.4821,132.349,74.0655,132.4054,74.5281,132.8824z"/>
</svg>
