<?xml version="1.0" encoding="utf-8"?>
<!-- Generator: Adobe Illustrator 22.1.0, SVG Export Plug-In . SVG Version: 6.00 Build 0)  -->
<svg version="1.1" id="Layer_1" xmlns="http://www.w3.org/2000/svg" xmlns:xlink="http://www.w3.org/1999/xlink" x="0px" y="0px"
	 viewBox="0 0 65 75" style="enable-background:new 0 0 65 75;" xml:space="preserve">
<style type="text/css">
	.st0{fill:#FFFFFF;}
</style>
<path class="st0" d="M38.0237,51.3947C37.8877,50.455,35.3191,33.46,35.3191,33.46c-0.1564-0.9813-0.5689-0.9671-1.3227-0.9102
	C33.0269,32.623,8.311,34.6405,6.9173,34.74c-1.3938,0.0996-1.1947,0.8818-1.0667,1.6782
	c0.128,0.7964,2.6453,19.0862,2.8018,20.2809c0.1564,1.1947,0.6827,1.024,1.1662,0.9671c0,0,28.1803-4.0213,28.2793-4.3922
	C38.1968,52.9031,38.1597,52.3344,38.0237,51.3947z M9.2979,56.2337l-2.878-20.3909l28.3859-2.4101l2.7632,18.6547L9.2979,56.2337z"
	/>
</svg>
