<?xml version="1.0" encoding="utf-8"?>
<!-- Generator: Adobe Illustrator 22.1.0, SVG Export Plug-In . SVG Version: 6.00 Build 0)  -->
<svg version="1.1" id="Laptop" xmlns="http://www.w3.org/2000/svg" xmlns:xlink="http://www.w3.org/1999/xlink" x="0px" y="0px"
	 viewBox="0 0 130 150" style="enable-background:new 0 0 130 150;" xml:space="preserve">
<style type="text/css">
	.st0{fill:#FFFFFF;}
</style>
<path class="st0" d="M103.0237,126.3947c-0.136-0.9397-2.7046-17.9347-2.7046-17.9347c-0.1564-0.9813-0.5689-0.9671-1.3227-0.9102
	c-0.9695,0.0732-25.6854,2.0907-27.0791,2.1902c-1.3938,0.0995-1.1947,0.8818-1.0667,1.6782
	c0.128,0.7964,2.6453,19.0862,2.8018,20.2809c0.1564,1.1947,0.6827,1.024,1.1662,0.9671c0,0,28.1803-4.0213,28.2793-4.3922
	C103.1968,127.9031,103.1597,127.3344,103.0237,126.3947z M74.2979,131.2337l-2.8781-20.3909l28.3859-2.4101l2.7632,18.6547
	L74.2979,131.2337z"/>
</svg>
